M48
;DRILL file {KiCad (5.0.1)-4} date 2019-03-02 1:01:15 PM
;FORMAT={-:-/ absolute / inch / decimal}
FMAT,2
INCH,TZ
T1C0.0197
T2C0.0394
T3C0.1181
%
G90
G05
M72
T1
X6.024Y-2.7659
X6.024Y-3.632
X6.1027Y-2.7659
X6.1027Y-3.632
X6.1815Y-2.7659
X6.1815Y-3.632
X6.2602Y-2.7659
X6.2602Y-3.632
X6.3389Y-2.7659
X6.3389Y-3.632
X6.4177Y-2.7659
X6.4177Y-3.632
X6.4964Y-2.7659
X6.4964Y-3.632
X6.5752Y-2.7659
X6.5752Y-3.632
X6.6539Y-2.7659
X6.6539Y-3.632
X6.7326Y-2.7659
X6.7326Y-3.632
T2
X5.925Y-4.175
X5.925Y-4.275
X5.925Y-4.375
X5.925Y-4.475
X5.925Y-4.575
X5.9055Y-3.8189
X5.9055Y-3.9189
X5.5118Y-2.6719
X5.5118Y-2.7719
X5.5118Y-2.8719
X5.5118Y-2.9719
X5.5118Y-3.0719
X5.5118Y-3.1719
X5.5118Y-3.2719
X5.5118Y-3.3719
X5.5118Y-3.4719
X5.5118Y-3.5719
X5.5118Y-3.6719
X5.5118Y-3.7719
X5.5118Y-3.8719
X5.5118Y-3.9719
X5.5118Y-4.0719
X5.5118Y-4.1719
X5.5118Y-4.2719
X5.5118Y-4.3719
X5.5118Y-4.4719
X5.5118Y-4.5719
X5.6118Y-2.6719
X5.6118Y-2.7719
X5.6118Y-2.8719
X5.6118Y-2.9719
X5.6118Y-3.0719
X5.6118Y-3.1719
X5.6118Y-3.2719
X5.6118Y-3.3719
X5.6118Y-3.4719
X5.6118Y-3.5719
X5.6118Y-3.6719
X5.6118Y-3.7719
X5.6118Y-3.8719
X5.6118Y-3.9719
X5.6118Y-4.0719
X5.6118Y-4.1719
X5.6118Y-4.2719
X5.6118Y-4.3719
X5.6118Y-4.4719
X5.6118Y-4.5719
T3
X6.2992Y-2.5197
X6.2992Y-4.5276
T0
M30
