G04 #@! TF.GenerationSoftware,KiCad,Pcbnew,(5.0.1)-4*
G04 #@! TF.CreationDate,2019-03-02T13:01:10-06:00*
G04 #@! TF.ProjectId,ccu_pcb2,6363755F706362322E6B696361645F70,rev?*
G04 #@! TF.SameCoordinates,Original*
G04 #@! TF.FileFunction,Copper,L1,Top,Signal*
G04 #@! TF.FilePolarity,Positive*
%FSLAX46Y46*%
G04 Gerber Fmt 4.6, Leading zero omitted, Abs format (unit mm)*
G04 Created by KiCad (PCBNEW (5.0.1)-4) date 2019-03-02 1:01:10 PM*
%MOMM*%
%LPD*%
G01*
G04 APERTURE LIST*
G04 #@! TA.AperFunction,ComponentPad*
%ADD10R,1.008000X1.008000*%
G04 #@! TD*
G04 #@! TA.AperFunction,ComponentPad*
%ADD11C,1.008000*%
G04 #@! TD*
G04 #@! TA.AperFunction,ComponentPad*
%ADD12R,1.700000X1.700000*%
G04 #@! TD*
G04 #@! TA.AperFunction,ComponentPad*
%ADD13O,1.700000X1.700000*%
G04 #@! TD*
G04 #@! TA.AperFunction,ComponentPad*
%ADD14C,6.000000*%
G04 #@! TD*
G04 #@! TA.AperFunction,Conductor*
%ADD15C,0.250000*%
G04 #@! TD*
G04 APERTURE END LIST*
D10*
G04 #@! TO.P,U1,1*
G04 #@! TO.N,VCC*
X171009000Y-70254000D03*
D11*
G04 #@! TO.P,U1,2*
G04 #@! TO.N,X_DOUT*
X169009000Y-70254000D03*
G04 #@! TO.P,U1,3*
G04 #@! TO.N,X_DIN*
X167009000Y-70254000D03*
G04 #@! TO.P,U1,4*
G04 #@! TO.N,Net-(U1-Pad4)*
X165009000Y-70254000D03*
G04 #@! TO.P,U1,5*
G04 #@! TO.N,Net-(U1-Pad5)*
X163009000Y-70254000D03*
G04 #@! TO.P,U1,6*
G04 #@! TO.N,Net-(U1-Pad6)*
X161009000Y-70254000D03*
G04 #@! TO.P,U1,7*
G04 #@! TO.N,Net-(U1-Pad7)*
X159009000Y-70254000D03*
G04 #@! TO.P,U1,8*
G04 #@! TO.N,Net-(U1-Pad8)*
X157009000Y-70254000D03*
G04 #@! TO.P,U1,9*
G04 #@! TO.N,Net-(U1-Pad9)*
X155009000Y-70254000D03*
G04 #@! TO.P,U1,10*
G04 #@! TO.N,GND*
X153009000Y-70254000D03*
G04 #@! TO.P,U1,20*
G04 #@! TO.N,Net-(U1-Pad20)*
X171009000Y-92254000D03*
G04 #@! TO.P,U1,19*
G04 #@! TO.N,Net-(U1-Pad19)*
X169009000Y-92254000D03*
G04 #@! TO.P,U1,18*
G04 #@! TO.N,Net-(U1-Pad18)*
X167009000Y-92254000D03*
G04 #@! TO.P,U1,17*
G04 #@! TO.N,Net-(U1-Pad17)*
X165009000Y-92254000D03*
G04 #@! TO.P,U1,16*
G04 #@! TO.N,Net-(U1-Pad16)*
X163009000Y-92254000D03*
G04 #@! TO.P,U1,15*
G04 #@! TO.N,Net-(U1-Pad15)*
X161009000Y-92254000D03*
G04 #@! TO.P,U1,14*
G04 #@! TO.N,Net-(U1-Pad14)*
X159009000Y-92254000D03*
G04 #@! TO.P,U1,13*
G04 #@! TO.N,Net-(U1-Pad13)*
X157009000Y-92254000D03*
G04 #@! TO.P,U1,12*
G04 #@! TO.N,Net-(U1-Pad12)*
X155009000Y-92254000D03*
G04 #@! TO.P,U1,11*
G04 #@! TO.N,Net-(U1-Pad11)*
X153009000Y-92254000D03*
G04 #@! TD*
D12*
G04 #@! TO.P,J1,1*
G04 #@! TO.N,Net-(J1-Pad1)*
X140000000Y-67865001D03*
D13*
G04 #@! TO.P,J1,2*
G04 #@! TO.N,5Vsupply*
X142540000Y-67865001D03*
G04 #@! TO.P,J1,3*
G04 #@! TO.N,Net-(J1-Pad3)*
X140000000Y-70405001D03*
G04 #@! TO.P,J1,4*
G04 #@! TO.N,Net-(J1-Pad4)*
X142540000Y-70405001D03*
G04 #@! TO.P,J1,5*
G04 #@! TO.N,Net-(J1-Pad5)*
X140000000Y-72945001D03*
G04 #@! TO.P,J1,6*
G04 #@! TO.N,GND*
X142540000Y-72945001D03*
G04 #@! TO.P,J1,7*
G04 #@! TO.N,Net-(J1-Pad7)*
X140000000Y-75485001D03*
G04 #@! TO.P,J1,8*
G04 #@! TO.N,X_DIN*
X142540000Y-75485001D03*
G04 #@! TO.P,J1,9*
G04 #@! TO.N,Net-(J1-Pad9)*
X140000000Y-78025001D03*
G04 #@! TO.P,J1,10*
G04 #@! TO.N,X_DOUT*
X142540000Y-78025001D03*
G04 #@! TO.P,J1,11*
G04 #@! TO.N,Net-(J1-Pad11)*
X140000000Y-80565001D03*
G04 #@! TO.P,J1,12*
G04 #@! TO.N,Net-(J1-Pad12)*
X142540000Y-80565001D03*
G04 #@! TO.P,J1,13*
G04 #@! TO.N,Net-(J1-Pad13)*
X140000000Y-83105001D03*
G04 #@! TO.P,J1,14*
G04 #@! TO.N,Net-(J1-Pad14)*
X142540000Y-83105001D03*
G04 #@! TO.P,J1,15*
G04 #@! TO.N,Net-(J1-Pad15)*
X140000000Y-85645001D03*
G04 #@! TO.P,J1,16*
G04 #@! TO.N,Net-(J1-Pad16)*
X142540000Y-85645001D03*
G04 #@! TO.P,J1,17*
G04 #@! TO.N,VCC*
X140000000Y-88185001D03*
G04 #@! TO.P,J1,18*
G04 #@! TO.N,Net-(J1-Pad18)*
X142540000Y-88185001D03*
G04 #@! TO.P,J1,19*
G04 #@! TO.N,Net-(J1-Pad19)*
X140000000Y-90725001D03*
G04 #@! TO.P,J1,20*
G04 #@! TO.N,Net-(J1-Pad20)*
X142540000Y-90725001D03*
G04 #@! TO.P,J1,21*
G04 #@! TO.N,Net-(J1-Pad21)*
X140000000Y-93265001D03*
G04 #@! TO.P,J1,22*
G04 #@! TO.N,Net-(J1-Pad22)*
X142540000Y-93265001D03*
G04 #@! TO.P,J1,23*
G04 #@! TO.N,Net-(J1-Pad23)*
X140000000Y-95805001D03*
G04 #@! TO.P,J1,24*
G04 #@! TO.N,Net-(J1-Pad24)*
X142540000Y-95805001D03*
G04 #@! TO.P,J1,25*
G04 #@! TO.N,Net-(J1-Pad25)*
X140000000Y-98345001D03*
G04 #@! TO.P,J1,26*
G04 #@! TO.N,Net-(J1-Pad26)*
X142540000Y-98345001D03*
G04 #@! TO.P,J1,27*
G04 #@! TO.N,Net-(J1-Pad27)*
X140000000Y-100885001D03*
G04 #@! TO.P,J1,28*
G04 #@! TO.N,Net-(J1-Pad28)*
X142540000Y-100885001D03*
G04 #@! TO.P,J1,29*
G04 #@! TO.N,Net-(J1-Pad29)*
X140000000Y-103425001D03*
G04 #@! TO.P,J1,30*
G04 #@! TO.N,GND3*
X142540000Y-103425001D03*
G04 #@! TO.P,J1,31*
G04 #@! TO.N,Net-(J1-Pad31)*
X140000000Y-105965001D03*
G04 #@! TO.P,J1,32*
G04 #@! TO.N,Therm_in_h*
X142540000Y-105965001D03*
G04 #@! TO.P,J1,33*
G04 #@! TO.N,Net-(J1-Pad33)*
X140000000Y-108505001D03*
G04 #@! TO.P,J1,34*
G04 #@! TO.N,GND2*
X142540000Y-108505001D03*
G04 #@! TO.P,J1,35*
G04 #@! TO.N,Net-(J1-Pad35)*
X140000000Y-111045001D03*
G04 #@! TO.P,J1,36*
G04 #@! TO.N,Therm_in_c*
X142540000Y-111045001D03*
G04 #@! TO.P,J1,37*
G04 #@! TO.N,Net-(J1-Pad37)*
X140000000Y-113585001D03*
G04 #@! TO.P,J1,38*
G04 #@! TO.N,Net-(J1-Pad38)*
X142540000Y-113585001D03*
G04 #@! TO.P,J1,39*
G04 #@! TO.N,Net-(J1-Pad39)*
X140000000Y-116125001D03*
G04 #@! TO.P,J1,40*
G04 #@! TO.N,Therm_out*
X142540000Y-116125001D03*
G04 #@! TD*
G04 #@! TO.P,J2,2*
G04 #@! TO.N,GND3*
X150000000Y-99540000D03*
D12*
G04 #@! TO.P,J2,1*
G04 #@! TO.N,5Vsupply*
X150000000Y-97000000D03*
G04 #@! TD*
G04 #@! TO.P,J3,1*
G04 #@! TO.N,Therm_in_h*
X150495000Y-106045000D03*
D13*
G04 #@! TO.P,J3,2*
G04 #@! TO.N,GND2*
X150495000Y-108585000D03*
G04 #@! TO.P,J3,3*
G04 #@! TO.N,Therm_in_c*
X150495000Y-111125000D03*
G04 #@! TO.P,J3,4*
G04 #@! TO.N,5Vsupply*
X150495000Y-113665000D03*
G04 #@! TO.P,J3,5*
G04 #@! TO.N,Therm_out*
X150495000Y-116205000D03*
G04 #@! TD*
D14*
G04 #@! TO.P,,1*
G04 #@! TO.N,N/C*
X160000000Y-115000000D03*
G04 #@! TD*
G04 #@! TO.P,REF\002A\002A,1*
G04 #@! TO.N,N/C*
X160000000Y-64000000D03*
G04 #@! TD*
D15*
G04 #@! TO.N,Therm_in_c*
X150415001Y-111045001D02*
X150495000Y-111125000D01*
G04 #@! TD*
M02*
