G04 #@! TF.GenerationSoftware,KiCad,Pcbnew,(5.0.1)-4*
G04 #@! TF.CreationDate,2019-03-02T13:01:11-06:00*
G04 #@! TF.ProjectId,ccu_pcb2,6363755F706362322E6B696361645F70,rev?*
G04 #@! TF.SameCoordinates,Original*
G04 #@! TF.FileFunction,Soldermask,Bot*
G04 #@! TF.FilePolarity,Negative*
%FSLAX46Y46*%
G04 Gerber Fmt 4.6, Leading zero omitted, Abs format (unit mm)*
G04 Created by KiCad (PCBNEW (5.0.1)-4) date 2019-03-02 1:01:11 PM*
%MOMM*%
%LPD*%
G01*
G04 APERTURE LIST*
%ADD10C,0.100000*%
G04 APERTURE END LIST*
D10*
G36*
X160681870Y-112076859D02*
X160875068Y-112115288D01*
X161421033Y-112341434D01*
X161909077Y-112667535D01*
X161912392Y-112669750D01*
X162330250Y-113087608D01*
X162330252Y-113087611D01*
X162658566Y-113578967D01*
X162884712Y-114124932D01*
X162887614Y-114139520D01*
X163000000Y-114704524D01*
X163000000Y-115295476D01*
X162955130Y-115521052D01*
X162884712Y-115875068D01*
X162658566Y-116421033D01*
X162539304Y-116599521D01*
X162330250Y-116912392D01*
X161912392Y-117330250D01*
X161912389Y-117330252D01*
X161421033Y-117658566D01*
X160875068Y-117884712D01*
X160681870Y-117923141D01*
X160295476Y-118000000D01*
X159704524Y-118000000D01*
X159318130Y-117923141D01*
X159124932Y-117884712D01*
X158578967Y-117658566D01*
X158087611Y-117330252D01*
X158087608Y-117330250D01*
X157669750Y-116912392D01*
X157460696Y-116599521D01*
X157341434Y-116421033D01*
X157115288Y-115875068D01*
X157044870Y-115521052D01*
X157000000Y-115295476D01*
X157000000Y-114704524D01*
X157112386Y-114139520D01*
X157115288Y-114124932D01*
X157341434Y-113578967D01*
X157669748Y-113087611D01*
X157669750Y-113087608D01*
X158087608Y-112669750D01*
X158090923Y-112667535D01*
X158578967Y-112341434D01*
X159124932Y-112115288D01*
X159318130Y-112076859D01*
X159704524Y-112000000D01*
X160295476Y-112000000D01*
X160681870Y-112076859D01*
X160681870Y-112076859D01*
G37*
G36*
X150661630Y-115367299D02*
X150821855Y-115415903D01*
X150969520Y-115494831D01*
X151098949Y-115601051D01*
X151205169Y-115730480D01*
X151284097Y-115878145D01*
X151332701Y-116038370D01*
X151349112Y-116205000D01*
X151332701Y-116371630D01*
X151284097Y-116531855D01*
X151205169Y-116679520D01*
X151098949Y-116808949D01*
X150969520Y-116915169D01*
X150821855Y-116994097D01*
X150661630Y-117042701D01*
X150536752Y-117055000D01*
X150453248Y-117055000D01*
X150328370Y-117042701D01*
X150168145Y-116994097D01*
X150020480Y-116915169D01*
X149891051Y-116808949D01*
X149784831Y-116679520D01*
X149705903Y-116531855D01*
X149657299Y-116371630D01*
X149640888Y-116205000D01*
X149657299Y-116038370D01*
X149705903Y-115878145D01*
X149784831Y-115730480D01*
X149891051Y-115601051D01*
X150020480Y-115494831D01*
X150168145Y-115415903D01*
X150328370Y-115367299D01*
X150453248Y-115355000D01*
X150536752Y-115355000D01*
X150661630Y-115367299D01*
X150661630Y-115367299D01*
G37*
G36*
X140166630Y-115287300D02*
X140326855Y-115335904D01*
X140474520Y-115414832D01*
X140603949Y-115521052D01*
X140710169Y-115650481D01*
X140789097Y-115798146D01*
X140837701Y-115958371D01*
X140854112Y-116125001D01*
X140837701Y-116291631D01*
X140789097Y-116451856D01*
X140710169Y-116599521D01*
X140603949Y-116728950D01*
X140474520Y-116835170D01*
X140326855Y-116914098D01*
X140166630Y-116962702D01*
X140041752Y-116975001D01*
X139958248Y-116975001D01*
X139833370Y-116962702D01*
X139673145Y-116914098D01*
X139525480Y-116835170D01*
X139396051Y-116728950D01*
X139289831Y-116599521D01*
X139210903Y-116451856D01*
X139162299Y-116291631D01*
X139145888Y-116125001D01*
X139162299Y-115958371D01*
X139210903Y-115798146D01*
X139289831Y-115650481D01*
X139396051Y-115521052D01*
X139525480Y-115414832D01*
X139673145Y-115335904D01*
X139833370Y-115287300D01*
X139958248Y-115275001D01*
X140041752Y-115275001D01*
X140166630Y-115287300D01*
X140166630Y-115287300D01*
G37*
G36*
X142706630Y-115287300D02*
X142866855Y-115335904D01*
X143014520Y-115414832D01*
X143143949Y-115521052D01*
X143250169Y-115650481D01*
X143329097Y-115798146D01*
X143377701Y-115958371D01*
X143394112Y-116125001D01*
X143377701Y-116291631D01*
X143329097Y-116451856D01*
X143250169Y-116599521D01*
X143143949Y-116728950D01*
X143014520Y-116835170D01*
X142866855Y-116914098D01*
X142706630Y-116962702D01*
X142581752Y-116975001D01*
X142498248Y-116975001D01*
X142373370Y-116962702D01*
X142213145Y-116914098D01*
X142065480Y-116835170D01*
X141936051Y-116728950D01*
X141829831Y-116599521D01*
X141750903Y-116451856D01*
X141702299Y-116291631D01*
X141685888Y-116125001D01*
X141702299Y-115958371D01*
X141750903Y-115798146D01*
X141829831Y-115650481D01*
X141936051Y-115521052D01*
X142065480Y-115414832D01*
X142213145Y-115335904D01*
X142373370Y-115287300D01*
X142498248Y-115275001D01*
X142581752Y-115275001D01*
X142706630Y-115287300D01*
X142706630Y-115287300D01*
G37*
G36*
X150661630Y-112827299D02*
X150821855Y-112875903D01*
X150969520Y-112954831D01*
X151098949Y-113061051D01*
X151205169Y-113190480D01*
X151284097Y-113338145D01*
X151332701Y-113498370D01*
X151349112Y-113665000D01*
X151332701Y-113831630D01*
X151284097Y-113991855D01*
X151205169Y-114139520D01*
X151098949Y-114268949D01*
X150969520Y-114375169D01*
X150821855Y-114454097D01*
X150661630Y-114502701D01*
X150536752Y-114515000D01*
X150453248Y-114515000D01*
X150328370Y-114502701D01*
X150168145Y-114454097D01*
X150020480Y-114375169D01*
X149891051Y-114268949D01*
X149784831Y-114139520D01*
X149705903Y-113991855D01*
X149657299Y-113831630D01*
X149640888Y-113665000D01*
X149657299Y-113498370D01*
X149705903Y-113338145D01*
X149784831Y-113190480D01*
X149891051Y-113061051D01*
X150020480Y-112954831D01*
X150168145Y-112875903D01*
X150328370Y-112827299D01*
X150453248Y-112815000D01*
X150536752Y-112815000D01*
X150661630Y-112827299D01*
X150661630Y-112827299D01*
G37*
G36*
X142706630Y-112747300D02*
X142866855Y-112795904D01*
X143014520Y-112874832D01*
X143143949Y-112981052D01*
X143250169Y-113110481D01*
X143329097Y-113258146D01*
X143377701Y-113418371D01*
X143394112Y-113585001D01*
X143377701Y-113751631D01*
X143329097Y-113911856D01*
X143250169Y-114059521D01*
X143143949Y-114188950D01*
X143014520Y-114295170D01*
X142866855Y-114374098D01*
X142706630Y-114422702D01*
X142581752Y-114435001D01*
X142498248Y-114435001D01*
X142373370Y-114422702D01*
X142213145Y-114374098D01*
X142065480Y-114295170D01*
X141936051Y-114188950D01*
X141829831Y-114059521D01*
X141750903Y-113911856D01*
X141702299Y-113751631D01*
X141685888Y-113585001D01*
X141702299Y-113418371D01*
X141750903Y-113258146D01*
X141829831Y-113110481D01*
X141936051Y-112981052D01*
X142065480Y-112874832D01*
X142213145Y-112795904D01*
X142373370Y-112747300D01*
X142498248Y-112735001D01*
X142581752Y-112735001D01*
X142706630Y-112747300D01*
X142706630Y-112747300D01*
G37*
G36*
X140166630Y-112747300D02*
X140326855Y-112795904D01*
X140474520Y-112874832D01*
X140603949Y-112981052D01*
X140710169Y-113110481D01*
X140789097Y-113258146D01*
X140837701Y-113418371D01*
X140854112Y-113585001D01*
X140837701Y-113751631D01*
X140789097Y-113911856D01*
X140710169Y-114059521D01*
X140603949Y-114188950D01*
X140474520Y-114295170D01*
X140326855Y-114374098D01*
X140166630Y-114422702D01*
X140041752Y-114435001D01*
X139958248Y-114435001D01*
X139833370Y-114422702D01*
X139673145Y-114374098D01*
X139525480Y-114295170D01*
X139396051Y-114188950D01*
X139289831Y-114059521D01*
X139210903Y-113911856D01*
X139162299Y-113751631D01*
X139145888Y-113585001D01*
X139162299Y-113418371D01*
X139210903Y-113258146D01*
X139289831Y-113110481D01*
X139396051Y-112981052D01*
X139525480Y-112874832D01*
X139673145Y-112795904D01*
X139833370Y-112747300D01*
X139958248Y-112735001D01*
X140041752Y-112735001D01*
X140166630Y-112747300D01*
X140166630Y-112747300D01*
G37*
G36*
X150661630Y-110287299D02*
X150821855Y-110335903D01*
X150969520Y-110414831D01*
X151098949Y-110521051D01*
X151205169Y-110650480D01*
X151284097Y-110798145D01*
X151332701Y-110958370D01*
X151349112Y-111125000D01*
X151332701Y-111291630D01*
X151284097Y-111451855D01*
X151205169Y-111599520D01*
X151098949Y-111728949D01*
X150969520Y-111835169D01*
X150821855Y-111914097D01*
X150661630Y-111962701D01*
X150536752Y-111975000D01*
X150453248Y-111975000D01*
X150328370Y-111962701D01*
X150168145Y-111914097D01*
X150020480Y-111835169D01*
X149891051Y-111728949D01*
X149784831Y-111599520D01*
X149705903Y-111451855D01*
X149657299Y-111291630D01*
X149640888Y-111125000D01*
X149657299Y-110958370D01*
X149705903Y-110798145D01*
X149784831Y-110650480D01*
X149891051Y-110521051D01*
X150020480Y-110414831D01*
X150168145Y-110335903D01*
X150328370Y-110287299D01*
X150453248Y-110275000D01*
X150536752Y-110275000D01*
X150661630Y-110287299D01*
X150661630Y-110287299D01*
G37*
G36*
X140166630Y-110207300D02*
X140326855Y-110255904D01*
X140474520Y-110334832D01*
X140603949Y-110441052D01*
X140710169Y-110570481D01*
X140789097Y-110718146D01*
X140837701Y-110878371D01*
X140854112Y-111045001D01*
X140837701Y-111211631D01*
X140789097Y-111371856D01*
X140710169Y-111519521D01*
X140603949Y-111648950D01*
X140474520Y-111755170D01*
X140326855Y-111834098D01*
X140166630Y-111882702D01*
X140041752Y-111895001D01*
X139958248Y-111895001D01*
X139833370Y-111882702D01*
X139673145Y-111834098D01*
X139525480Y-111755170D01*
X139396051Y-111648950D01*
X139289831Y-111519521D01*
X139210903Y-111371856D01*
X139162299Y-111211631D01*
X139145888Y-111045001D01*
X139162299Y-110878371D01*
X139210903Y-110718146D01*
X139289831Y-110570481D01*
X139396051Y-110441052D01*
X139525480Y-110334832D01*
X139673145Y-110255904D01*
X139833370Y-110207300D01*
X139958248Y-110195001D01*
X140041752Y-110195001D01*
X140166630Y-110207300D01*
X140166630Y-110207300D01*
G37*
G36*
X142706630Y-110207300D02*
X142866855Y-110255904D01*
X143014520Y-110334832D01*
X143143949Y-110441052D01*
X143250169Y-110570481D01*
X143329097Y-110718146D01*
X143377701Y-110878371D01*
X143394112Y-111045001D01*
X143377701Y-111211631D01*
X143329097Y-111371856D01*
X143250169Y-111519521D01*
X143143949Y-111648950D01*
X143014520Y-111755170D01*
X142866855Y-111834098D01*
X142706630Y-111882702D01*
X142581752Y-111895001D01*
X142498248Y-111895001D01*
X142373370Y-111882702D01*
X142213145Y-111834098D01*
X142065480Y-111755170D01*
X141936051Y-111648950D01*
X141829831Y-111519521D01*
X141750903Y-111371856D01*
X141702299Y-111211631D01*
X141685888Y-111045001D01*
X141702299Y-110878371D01*
X141750903Y-110718146D01*
X141829831Y-110570481D01*
X141936051Y-110441052D01*
X142065480Y-110334832D01*
X142213145Y-110255904D01*
X142373370Y-110207300D01*
X142498248Y-110195001D01*
X142581752Y-110195001D01*
X142706630Y-110207300D01*
X142706630Y-110207300D01*
G37*
G36*
X150661630Y-107747299D02*
X150821855Y-107795903D01*
X150969520Y-107874831D01*
X151098949Y-107981051D01*
X151205169Y-108110480D01*
X151284097Y-108258145D01*
X151332701Y-108418370D01*
X151349112Y-108585000D01*
X151332701Y-108751630D01*
X151284097Y-108911855D01*
X151205169Y-109059520D01*
X151098949Y-109188949D01*
X150969520Y-109295169D01*
X150821855Y-109374097D01*
X150661630Y-109422701D01*
X150536752Y-109435000D01*
X150453248Y-109435000D01*
X150328370Y-109422701D01*
X150168145Y-109374097D01*
X150020480Y-109295169D01*
X149891051Y-109188949D01*
X149784831Y-109059520D01*
X149705903Y-108911855D01*
X149657299Y-108751630D01*
X149640888Y-108585000D01*
X149657299Y-108418370D01*
X149705903Y-108258145D01*
X149784831Y-108110480D01*
X149891051Y-107981051D01*
X150020480Y-107874831D01*
X150168145Y-107795903D01*
X150328370Y-107747299D01*
X150453248Y-107735000D01*
X150536752Y-107735000D01*
X150661630Y-107747299D01*
X150661630Y-107747299D01*
G37*
G36*
X142706630Y-107667300D02*
X142866855Y-107715904D01*
X143014520Y-107794832D01*
X143143949Y-107901052D01*
X143250169Y-108030481D01*
X143329097Y-108178146D01*
X143377701Y-108338371D01*
X143394112Y-108505001D01*
X143377701Y-108671631D01*
X143329097Y-108831856D01*
X143250169Y-108979521D01*
X143143949Y-109108950D01*
X143014520Y-109215170D01*
X142866855Y-109294098D01*
X142706630Y-109342702D01*
X142581752Y-109355001D01*
X142498248Y-109355001D01*
X142373370Y-109342702D01*
X142213145Y-109294098D01*
X142065480Y-109215170D01*
X141936051Y-109108950D01*
X141829831Y-108979521D01*
X141750903Y-108831856D01*
X141702299Y-108671631D01*
X141685888Y-108505001D01*
X141702299Y-108338371D01*
X141750903Y-108178146D01*
X141829831Y-108030481D01*
X141936051Y-107901052D01*
X142065480Y-107794832D01*
X142213145Y-107715904D01*
X142373370Y-107667300D01*
X142498248Y-107655001D01*
X142581752Y-107655001D01*
X142706630Y-107667300D01*
X142706630Y-107667300D01*
G37*
G36*
X140166630Y-107667300D02*
X140326855Y-107715904D01*
X140474520Y-107794832D01*
X140603949Y-107901052D01*
X140710169Y-108030481D01*
X140789097Y-108178146D01*
X140837701Y-108338371D01*
X140854112Y-108505001D01*
X140837701Y-108671631D01*
X140789097Y-108831856D01*
X140710169Y-108979521D01*
X140603949Y-109108950D01*
X140474520Y-109215170D01*
X140326855Y-109294098D01*
X140166630Y-109342702D01*
X140041752Y-109355001D01*
X139958248Y-109355001D01*
X139833370Y-109342702D01*
X139673145Y-109294098D01*
X139525480Y-109215170D01*
X139396051Y-109108950D01*
X139289831Y-108979521D01*
X139210903Y-108831856D01*
X139162299Y-108671631D01*
X139145888Y-108505001D01*
X139162299Y-108338371D01*
X139210903Y-108178146D01*
X139289831Y-108030481D01*
X139396051Y-107901052D01*
X139525480Y-107794832D01*
X139673145Y-107715904D01*
X139833370Y-107667300D01*
X139958248Y-107655001D01*
X140041752Y-107655001D01*
X140166630Y-107667300D01*
X140166630Y-107667300D01*
G37*
G36*
X151345000Y-106895000D02*
X149645000Y-106895000D01*
X149645000Y-105195000D01*
X151345000Y-105195000D01*
X151345000Y-106895000D01*
X151345000Y-106895000D01*
G37*
G36*
X142706630Y-105127300D02*
X142866855Y-105175904D01*
X143014520Y-105254832D01*
X143143949Y-105361052D01*
X143250169Y-105490481D01*
X143329097Y-105638146D01*
X143377701Y-105798371D01*
X143394112Y-105965001D01*
X143377701Y-106131631D01*
X143329097Y-106291856D01*
X143250169Y-106439521D01*
X143143949Y-106568950D01*
X143014520Y-106675170D01*
X142866855Y-106754098D01*
X142706630Y-106802702D01*
X142581752Y-106815001D01*
X142498248Y-106815001D01*
X142373370Y-106802702D01*
X142213145Y-106754098D01*
X142065480Y-106675170D01*
X141936051Y-106568950D01*
X141829831Y-106439521D01*
X141750903Y-106291856D01*
X141702299Y-106131631D01*
X141685888Y-105965001D01*
X141702299Y-105798371D01*
X141750903Y-105638146D01*
X141829831Y-105490481D01*
X141936051Y-105361052D01*
X142065480Y-105254832D01*
X142213145Y-105175904D01*
X142373370Y-105127300D01*
X142498248Y-105115001D01*
X142581752Y-105115001D01*
X142706630Y-105127300D01*
X142706630Y-105127300D01*
G37*
G36*
X140166630Y-105127300D02*
X140326855Y-105175904D01*
X140474520Y-105254832D01*
X140603949Y-105361052D01*
X140710169Y-105490481D01*
X140789097Y-105638146D01*
X140837701Y-105798371D01*
X140854112Y-105965001D01*
X140837701Y-106131631D01*
X140789097Y-106291856D01*
X140710169Y-106439521D01*
X140603949Y-106568950D01*
X140474520Y-106675170D01*
X140326855Y-106754098D01*
X140166630Y-106802702D01*
X140041752Y-106815001D01*
X139958248Y-106815001D01*
X139833370Y-106802702D01*
X139673145Y-106754098D01*
X139525480Y-106675170D01*
X139396051Y-106568950D01*
X139289831Y-106439521D01*
X139210903Y-106291856D01*
X139162299Y-106131631D01*
X139145888Y-105965001D01*
X139162299Y-105798371D01*
X139210903Y-105638146D01*
X139289831Y-105490481D01*
X139396051Y-105361052D01*
X139525480Y-105254832D01*
X139673145Y-105175904D01*
X139833370Y-105127300D01*
X139958248Y-105115001D01*
X140041752Y-105115001D01*
X140166630Y-105127300D01*
X140166630Y-105127300D01*
G37*
G36*
X142706630Y-102587300D02*
X142866855Y-102635904D01*
X143014520Y-102714832D01*
X143143949Y-102821052D01*
X143250169Y-102950481D01*
X143329097Y-103098146D01*
X143377701Y-103258371D01*
X143394112Y-103425001D01*
X143377701Y-103591631D01*
X143329097Y-103751856D01*
X143250169Y-103899521D01*
X143143949Y-104028950D01*
X143014520Y-104135170D01*
X142866855Y-104214098D01*
X142706630Y-104262702D01*
X142581752Y-104275001D01*
X142498248Y-104275001D01*
X142373370Y-104262702D01*
X142213145Y-104214098D01*
X142065480Y-104135170D01*
X141936051Y-104028950D01*
X141829831Y-103899521D01*
X141750903Y-103751856D01*
X141702299Y-103591631D01*
X141685888Y-103425001D01*
X141702299Y-103258371D01*
X141750903Y-103098146D01*
X141829831Y-102950481D01*
X141936051Y-102821052D01*
X142065480Y-102714832D01*
X142213145Y-102635904D01*
X142373370Y-102587300D01*
X142498248Y-102575001D01*
X142581752Y-102575001D01*
X142706630Y-102587300D01*
X142706630Y-102587300D01*
G37*
G36*
X140166630Y-102587300D02*
X140326855Y-102635904D01*
X140474520Y-102714832D01*
X140603949Y-102821052D01*
X140710169Y-102950481D01*
X140789097Y-103098146D01*
X140837701Y-103258371D01*
X140854112Y-103425001D01*
X140837701Y-103591631D01*
X140789097Y-103751856D01*
X140710169Y-103899521D01*
X140603949Y-104028950D01*
X140474520Y-104135170D01*
X140326855Y-104214098D01*
X140166630Y-104262702D01*
X140041752Y-104275001D01*
X139958248Y-104275001D01*
X139833370Y-104262702D01*
X139673145Y-104214098D01*
X139525480Y-104135170D01*
X139396051Y-104028950D01*
X139289831Y-103899521D01*
X139210903Y-103751856D01*
X139162299Y-103591631D01*
X139145888Y-103425001D01*
X139162299Y-103258371D01*
X139210903Y-103098146D01*
X139289831Y-102950481D01*
X139396051Y-102821052D01*
X139525480Y-102714832D01*
X139673145Y-102635904D01*
X139833370Y-102587300D01*
X139958248Y-102575001D01*
X140041752Y-102575001D01*
X140166630Y-102587300D01*
X140166630Y-102587300D01*
G37*
G36*
X142706630Y-100047300D02*
X142866855Y-100095904D01*
X143014520Y-100174832D01*
X143143949Y-100281052D01*
X143250169Y-100410481D01*
X143329097Y-100558146D01*
X143377701Y-100718371D01*
X143394112Y-100885001D01*
X143377701Y-101051631D01*
X143329097Y-101211856D01*
X143250169Y-101359521D01*
X143143949Y-101488950D01*
X143014520Y-101595170D01*
X142866855Y-101674098D01*
X142706630Y-101722702D01*
X142581752Y-101735001D01*
X142498248Y-101735001D01*
X142373370Y-101722702D01*
X142213145Y-101674098D01*
X142065480Y-101595170D01*
X141936051Y-101488950D01*
X141829831Y-101359521D01*
X141750903Y-101211856D01*
X141702299Y-101051631D01*
X141685888Y-100885001D01*
X141702299Y-100718371D01*
X141750903Y-100558146D01*
X141829831Y-100410481D01*
X141936051Y-100281052D01*
X142065480Y-100174832D01*
X142213145Y-100095904D01*
X142373370Y-100047300D01*
X142498248Y-100035001D01*
X142581752Y-100035001D01*
X142706630Y-100047300D01*
X142706630Y-100047300D01*
G37*
G36*
X140166630Y-100047300D02*
X140326855Y-100095904D01*
X140474520Y-100174832D01*
X140603949Y-100281052D01*
X140710169Y-100410481D01*
X140789097Y-100558146D01*
X140837701Y-100718371D01*
X140854112Y-100885001D01*
X140837701Y-101051631D01*
X140789097Y-101211856D01*
X140710169Y-101359521D01*
X140603949Y-101488950D01*
X140474520Y-101595170D01*
X140326855Y-101674098D01*
X140166630Y-101722702D01*
X140041752Y-101735001D01*
X139958248Y-101735001D01*
X139833370Y-101722702D01*
X139673145Y-101674098D01*
X139525480Y-101595170D01*
X139396051Y-101488950D01*
X139289831Y-101359521D01*
X139210903Y-101211856D01*
X139162299Y-101051631D01*
X139145888Y-100885001D01*
X139162299Y-100718371D01*
X139210903Y-100558146D01*
X139289831Y-100410481D01*
X139396051Y-100281052D01*
X139525480Y-100174832D01*
X139673145Y-100095904D01*
X139833370Y-100047300D01*
X139958248Y-100035001D01*
X140041752Y-100035001D01*
X140166630Y-100047300D01*
X140166630Y-100047300D01*
G37*
G36*
X150166630Y-98702299D02*
X150326855Y-98750903D01*
X150474520Y-98829831D01*
X150603949Y-98936051D01*
X150710169Y-99065480D01*
X150789097Y-99213145D01*
X150837701Y-99373370D01*
X150854112Y-99540000D01*
X150837701Y-99706630D01*
X150789097Y-99866855D01*
X150710169Y-100014520D01*
X150603949Y-100143949D01*
X150474520Y-100250169D01*
X150326855Y-100329097D01*
X150166630Y-100377701D01*
X150041752Y-100390000D01*
X149958248Y-100390000D01*
X149833370Y-100377701D01*
X149673145Y-100329097D01*
X149525480Y-100250169D01*
X149396051Y-100143949D01*
X149289831Y-100014520D01*
X149210903Y-99866855D01*
X149162299Y-99706630D01*
X149145888Y-99540000D01*
X149162299Y-99373370D01*
X149210903Y-99213145D01*
X149289831Y-99065480D01*
X149396051Y-98936051D01*
X149525480Y-98829831D01*
X149673145Y-98750903D01*
X149833370Y-98702299D01*
X149958248Y-98690000D01*
X150041752Y-98690000D01*
X150166630Y-98702299D01*
X150166630Y-98702299D01*
G37*
G36*
X140166630Y-97507300D02*
X140326855Y-97555904D01*
X140474520Y-97634832D01*
X140603949Y-97741052D01*
X140710169Y-97870481D01*
X140789097Y-98018146D01*
X140837701Y-98178371D01*
X140854112Y-98345001D01*
X140837701Y-98511631D01*
X140789097Y-98671856D01*
X140710169Y-98819521D01*
X140603949Y-98948950D01*
X140474520Y-99055170D01*
X140326855Y-99134098D01*
X140166630Y-99182702D01*
X140041752Y-99195001D01*
X139958248Y-99195001D01*
X139833370Y-99182702D01*
X139673145Y-99134098D01*
X139525480Y-99055170D01*
X139396051Y-98948950D01*
X139289831Y-98819521D01*
X139210903Y-98671856D01*
X139162299Y-98511631D01*
X139145888Y-98345001D01*
X139162299Y-98178371D01*
X139210903Y-98018146D01*
X139289831Y-97870481D01*
X139396051Y-97741052D01*
X139525480Y-97634832D01*
X139673145Y-97555904D01*
X139833370Y-97507300D01*
X139958248Y-97495001D01*
X140041752Y-97495001D01*
X140166630Y-97507300D01*
X140166630Y-97507300D01*
G37*
G36*
X142706630Y-97507300D02*
X142866855Y-97555904D01*
X143014520Y-97634832D01*
X143143949Y-97741052D01*
X143250169Y-97870481D01*
X143329097Y-98018146D01*
X143377701Y-98178371D01*
X143394112Y-98345001D01*
X143377701Y-98511631D01*
X143329097Y-98671856D01*
X143250169Y-98819521D01*
X143143949Y-98948950D01*
X143014520Y-99055170D01*
X142866855Y-99134098D01*
X142706630Y-99182702D01*
X142581752Y-99195001D01*
X142498248Y-99195001D01*
X142373370Y-99182702D01*
X142213145Y-99134098D01*
X142065480Y-99055170D01*
X141936051Y-98948950D01*
X141829831Y-98819521D01*
X141750903Y-98671856D01*
X141702299Y-98511631D01*
X141685888Y-98345001D01*
X141702299Y-98178371D01*
X141750903Y-98018146D01*
X141829831Y-97870481D01*
X141936051Y-97741052D01*
X142065480Y-97634832D01*
X142213145Y-97555904D01*
X142373370Y-97507300D01*
X142498248Y-97495001D01*
X142581752Y-97495001D01*
X142706630Y-97507300D01*
X142706630Y-97507300D01*
G37*
G36*
X150850000Y-97850000D02*
X149150000Y-97850000D01*
X149150000Y-96150000D01*
X150850000Y-96150000D01*
X150850000Y-97850000D01*
X150850000Y-97850000D01*
G37*
G36*
X142706630Y-94967300D02*
X142866855Y-95015904D01*
X143014520Y-95094832D01*
X143143949Y-95201052D01*
X143250169Y-95330481D01*
X143329097Y-95478146D01*
X143377701Y-95638371D01*
X143394112Y-95805001D01*
X143377701Y-95971631D01*
X143329097Y-96131856D01*
X143250169Y-96279521D01*
X143143949Y-96408950D01*
X143014520Y-96515170D01*
X142866855Y-96594098D01*
X142706630Y-96642702D01*
X142581752Y-96655001D01*
X142498248Y-96655001D01*
X142373370Y-96642702D01*
X142213145Y-96594098D01*
X142065480Y-96515170D01*
X141936051Y-96408950D01*
X141829831Y-96279521D01*
X141750903Y-96131856D01*
X141702299Y-95971631D01*
X141685888Y-95805001D01*
X141702299Y-95638371D01*
X141750903Y-95478146D01*
X141829831Y-95330481D01*
X141936051Y-95201052D01*
X142065480Y-95094832D01*
X142213145Y-95015904D01*
X142373370Y-94967300D01*
X142498248Y-94955001D01*
X142581752Y-94955001D01*
X142706630Y-94967300D01*
X142706630Y-94967300D01*
G37*
G36*
X140166630Y-94967300D02*
X140326855Y-95015904D01*
X140474520Y-95094832D01*
X140603949Y-95201052D01*
X140710169Y-95330481D01*
X140789097Y-95478146D01*
X140837701Y-95638371D01*
X140854112Y-95805001D01*
X140837701Y-95971631D01*
X140789097Y-96131856D01*
X140710169Y-96279521D01*
X140603949Y-96408950D01*
X140474520Y-96515170D01*
X140326855Y-96594098D01*
X140166630Y-96642702D01*
X140041752Y-96655001D01*
X139958248Y-96655001D01*
X139833370Y-96642702D01*
X139673145Y-96594098D01*
X139525480Y-96515170D01*
X139396051Y-96408950D01*
X139289831Y-96279521D01*
X139210903Y-96131856D01*
X139162299Y-95971631D01*
X139145888Y-95805001D01*
X139162299Y-95638371D01*
X139210903Y-95478146D01*
X139289831Y-95330481D01*
X139396051Y-95201052D01*
X139525480Y-95094832D01*
X139673145Y-95015904D01*
X139833370Y-94967300D01*
X139958248Y-94955001D01*
X140041752Y-94955001D01*
X140166630Y-94967300D01*
X140166630Y-94967300D01*
G37*
G36*
X142706630Y-92427300D02*
X142866855Y-92475904D01*
X143014520Y-92554832D01*
X143143949Y-92661052D01*
X143250169Y-92790481D01*
X143329097Y-92938146D01*
X143377701Y-93098371D01*
X143394112Y-93265001D01*
X143377701Y-93431631D01*
X143329097Y-93591856D01*
X143250169Y-93739521D01*
X143143949Y-93868950D01*
X143014520Y-93975170D01*
X142866855Y-94054098D01*
X142706630Y-94102702D01*
X142581752Y-94115001D01*
X142498248Y-94115001D01*
X142373370Y-94102702D01*
X142213145Y-94054098D01*
X142065480Y-93975170D01*
X141936051Y-93868950D01*
X141829831Y-93739521D01*
X141750903Y-93591856D01*
X141702299Y-93431631D01*
X141685888Y-93265001D01*
X141702299Y-93098371D01*
X141750903Y-92938146D01*
X141829831Y-92790481D01*
X141936051Y-92661052D01*
X142065480Y-92554832D01*
X142213145Y-92475904D01*
X142373370Y-92427300D01*
X142498248Y-92415001D01*
X142581752Y-92415001D01*
X142706630Y-92427300D01*
X142706630Y-92427300D01*
G37*
G36*
X140166630Y-92427300D02*
X140326855Y-92475904D01*
X140474520Y-92554832D01*
X140603949Y-92661052D01*
X140710169Y-92790481D01*
X140789097Y-92938146D01*
X140837701Y-93098371D01*
X140854112Y-93265001D01*
X140837701Y-93431631D01*
X140789097Y-93591856D01*
X140710169Y-93739521D01*
X140603949Y-93868950D01*
X140474520Y-93975170D01*
X140326855Y-94054098D01*
X140166630Y-94102702D01*
X140041752Y-94115001D01*
X139958248Y-94115001D01*
X139833370Y-94102702D01*
X139673145Y-94054098D01*
X139525480Y-93975170D01*
X139396051Y-93868950D01*
X139289831Y-93739521D01*
X139210903Y-93591856D01*
X139162299Y-93431631D01*
X139145888Y-93265001D01*
X139162299Y-93098371D01*
X139210903Y-92938146D01*
X139289831Y-92790481D01*
X139396051Y-92661052D01*
X139525480Y-92554832D01*
X139673145Y-92475904D01*
X139833370Y-92427300D01*
X139958248Y-92415001D01*
X140041752Y-92415001D01*
X140166630Y-92427300D01*
X140166630Y-92427300D01*
G37*
G36*
X153156011Y-91769368D02*
X153247734Y-91807361D01*
X153330282Y-91862517D01*
X153400483Y-91932718D01*
X153455639Y-92015266D01*
X153493632Y-92106989D01*
X153513000Y-92204360D01*
X153513000Y-92303640D01*
X153493632Y-92401011D01*
X153455639Y-92492734D01*
X153400483Y-92575282D01*
X153330282Y-92645483D01*
X153247734Y-92700639D01*
X153156011Y-92738632D01*
X153058640Y-92758000D01*
X152959360Y-92758000D01*
X152861989Y-92738632D01*
X152770266Y-92700639D01*
X152687718Y-92645483D01*
X152617517Y-92575282D01*
X152562361Y-92492734D01*
X152524368Y-92401011D01*
X152505000Y-92303640D01*
X152505000Y-92204360D01*
X152524368Y-92106989D01*
X152562361Y-92015266D01*
X152617517Y-91932718D01*
X152687718Y-91862517D01*
X152770266Y-91807361D01*
X152861989Y-91769368D01*
X152959360Y-91750000D01*
X153058640Y-91750000D01*
X153156011Y-91769368D01*
X153156011Y-91769368D01*
G37*
G36*
X155156011Y-91769368D02*
X155247734Y-91807361D01*
X155330282Y-91862517D01*
X155400483Y-91932718D01*
X155455639Y-92015266D01*
X155493632Y-92106989D01*
X155513000Y-92204360D01*
X155513000Y-92303640D01*
X155493632Y-92401011D01*
X155455639Y-92492734D01*
X155400483Y-92575282D01*
X155330282Y-92645483D01*
X155247734Y-92700639D01*
X155156011Y-92738632D01*
X155058640Y-92758000D01*
X154959360Y-92758000D01*
X154861989Y-92738632D01*
X154770266Y-92700639D01*
X154687718Y-92645483D01*
X154617517Y-92575282D01*
X154562361Y-92492734D01*
X154524368Y-92401011D01*
X154505000Y-92303640D01*
X154505000Y-92204360D01*
X154524368Y-92106989D01*
X154562361Y-92015266D01*
X154617517Y-91932718D01*
X154687718Y-91862517D01*
X154770266Y-91807361D01*
X154861989Y-91769368D01*
X154959360Y-91750000D01*
X155058640Y-91750000D01*
X155156011Y-91769368D01*
X155156011Y-91769368D01*
G37*
G36*
X157156011Y-91769368D02*
X157247734Y-91807361D01*
X157330282Y-91862517D01*
X157400483Y-91932718D01*
X157455639Y-92015266D01*
X157493632Y-92106989D01*
X157513000Y-92204360D01*
X157513000Y-92303640D01*
X157493632Y-92401011D01*
X157455639Y-92492734D01*
X157400483Y-92575282D01*
X157330282Y-92645483D01*
X157247734Y-92700639D01*
X157156011Y-92738632D01*
X157058640Y-92758000D01*
X156959360Y-92758000D01*
X156861989Y-92738632D01*
X156770266Y-92700639D01*
X156687718Y-92645483D01*
X156617517Y-92575282D01*
X156562361Y-92492734D01*
X156524368Y-92401011D01*
X156505000Y-92303640D01*
X156505000Y-92204360D01*
X156524368Y-92106989D01*
X156562361Y-92015266D01*
X156617517Y-91932718D01*
X156687718Y-91862517D01*
X156770266Y-91807361D01*
X156861989Y-91769368D01*
X156959360Y-91750000D01*
X157058640Y-91750000D01*
X157156011Y-91769368D01*
X157156011Y-91769368D01*
G37*
G36*
X159156011Y-91769368D02*
X159247734Y-91807361D01*
X159330282Y-91862517D01*
X159400483Y-91932718D01*
X159455639Y-92015266D01*
X159493632Y-92106989D01*
X159513000Y-92204360D01*
X159513000Y-92303640D01*
X159493632Y-92401011D01*
X159455639Y-92492734D01*
X159400483Y-92575282D01*
X159330282Y-92645483D01*
X159247734Y-92700639D01*
X159156011Y-92738632D01*
X159058640Y-92758000D01*
X158959360Y-92758000D01*
X158861989Y-92738632D01*
X158770266Y-92700639D01*
X158687718Y-92645483D01*
X158617517Y-92575282D01*
X158562361Y-92492734D01*
X158524368Y-92401011D01*
X158505000Y-92303640D01*
X158505000Y-92204360D01*
X158524368Y-92106989D01*
X158562361Y-92015266D01*
X158617517Y-91932718D01*
X158687718Y-91862517D01*
X158770266Y-91807361D01*
X158861989Y-91769368D01*
X158959360Y-91750000D01*
X159058640Y-91750000D01*
X159156011Y-91769368D01*
X159156011Y-91769368D01*
G37*
G36*
X161156011Y-91769368D02*
X161247734Y-91807361D01*
X161330282Y-91862517D01*
X161400483Y-91932718D01*
X161455639Y-92015266D01*
X161493632Y-92106989D01*
X161513000Y-92204360D01*
X161513000Y-92303640D01*
X161493632Y-92401011D01*
X161455639Y-92492734D01*
X161400483Y-92575282D01*
X161330282Y-92645483D01*
X161247734Y-92700639D01*
X161156011Y-92738632D01*
X161058640Y-92758000D01*
X160959360Y-92758000D01*
X160861989Y-92738632D01*
X160770266Y-92700639D01*
X160687718Y-92645483D01*
X160617517Y-92575282D01*
X160562361Y-92492734D01*
X160524368Y-92401011D01*
X160505000Y-92303640D01*
X160505000Y-92204360D01*
X160524368Y-92106989D01*
X160562361Y-92015266D01*
X160617517Y-91932718D01*
X160687718Y-91862517D01*
X160770266Y-91807361D01*
X160861989Y-91769368D01*
X160959360Y-91750000D01*
X161058640Y-91750000D01*
X161156011Y-91769368D01*
X161156011Y-91769368D01*
G37*
G36*
X171156011Y-91769368D02*
X171247734Y-91807361D01*
X171330282Y-91862517D01*
X171400483Y-91932718D01*
X171455639Y-92015266D01*
X171493632Y-92106989D01*
X171513000Y-92204360D01*
X171513000Y-92303640D01*
X171493632Y-92401011D01*
X171455639Y-92492734D01*
X171400483Y-92575282D01*
X171330282Y-92645483D01*
X171247734Y-92700639D01*
X171156011Y-92738632D01*
X171058640Y-92758000D01*
X170959360Y-92758000D01*
X170861989Y-92738632D01*
X170770266Y-92700639D01*
X170687718Y-92645483D01*
X170617517Y-92575282D01*
X170562361Y-92492734D01*
X170524368Y-92401011D01*
X170505000Y-92303640D01*
X170505000Y-92204360D01*
X170524368Y-92106989D01*
X170562361Y-92015266D01*
X170617517Y-91932718D01*
X170687718Y-91862517D01*
X170770266Y-91807361D01*
X170861989Y-91769368D01*
X170959360Y-91750000D01*
X171058640Y-91750000D01*
X171156011Y-91769368D01*
X171156011Y-91769368D01*
G37*
G36*
X163156011Y-91769368D02*
X163247734Y-91807361D01*
X163330282Y-91862517D01*
X163400483Y-91932718D01*
X163455639Y-92015266D01*
X163493632Y-92106989D01*
X163513000Y-92204360D01*
X163513000Y-92303640D01*
X163493632Y-92401011D01*
X163455639Y-92492734D01*
X163400483Y-92575282D01*
X163330282Y-92645483D01*
X163247734Y-92700639D01*
X163156011Y-92738632D01*
X163058640Y-92758000D01*
X162959360Y-92758000D01*
X162861989Y-92738632D01*
X162770266Y-92700639D01*
X162687718Y-92645483D01*
X162617517Y-92575282D01*
X162562361Y-92492734D01*
X162524368Y-92401011D01*
X162505000Y-92303640D01*
X162505000Y-92204360D01*
X162524368Y-92106989D01*
X162562361Y-92015266D01*
X162617517Y-91932718D01*
X162687718Y-91862517D01*
X162770266Y-91807361D01*
X162861989Y-91769368D01*
X162959360Y-91750000D01*
X163058640Y-91750000D01*
X163156011Y-91769368D01*
X163156011Y-91769368D01*
G37*
G36*
X165156011Y-91769368D02*
X165247734Y-91807361D01*
X165330282Y-91862517D01*
X165400483Y-91932718D01*
X165455639Y-92015266D01*
X165493632Y-92106989D01*
X165513000Y-92204360D01*
X165513000Y-92303640D01*
X165493632Y-92401011D01*
X165455639Y-92492734D01*
X165400483Y-92575282D01*
X165330282Y-92645483D01*
X165247734Y-92700639D01*
X165156011Y-92738632D01*
X165058640Y-92758000D01*
X164959360Y-92758000D01*
X164861989Y-92738632D01*
X164770266Y-92700639D01*
X164687718Y-92645483D01*
X164617517Y-92575282D01*
X164562361Y-92492734D01*
X164524368Y-92401011D01*
X164505000Y-92303640D01*
X164505000Y-92204360D01*
X164524368Y-92106989D01*
X164562361Y-92015266D01*
X164617517Y-91932718D01*
X164687718Y-91862517D01*
X164770266Y-91807361D01*
X164861989Y-91769368D01*
X164959360Y-91750000D01*
X165058640Y-91750000D01*
X165156011Y-91769368D01*
X165156011Y-91769368D01*
G37*
G36*
X167156011Y-91769368D02*
X167247734Y-91807361D01*
X167330282Y-91862517D01*
X167400483Y-91932718D01*
X167455639Y-92015266D01*
X167493632Y-92106989D01*
X167513000Y-92204360D01*
X167513000Y-92303640D01*
X167493632Y-92401011D01*
X167455639Y-92492734D01*
X167400483Y-92575282D01*
X167330282Y-92645483D01*
X167247734Y-92700639D01*
X167156011Y-92738632D01*
X167058640Y-92758000D01*
X166959360Y-92758000D01*
X166861989Y-92738632D01*
X166770266Y-92700639D01*
X166687718Y-92645483D01*
X166617517Y-92575282D01*
X166562361Y-92492734D01*
X166524368Y-92401011D01*
X166505000Y-92303640D01*
X166505000Y-92204360D01*
X166524368Y-92106989D01*
X166562361Y-92015266D01*
X166617517Y-91932718D01*
X166687718Y-91862517D01*
X166770266Y-91807361D01*
X166861989Y-91769368D01*
X166959360Y-91750000D01*
X167058640Y-91750000D01*
X167156011Y-91769368D01*
X167156011Y-91769368D01*
G37*
G36*
X169156011Y-91769368D02*
X169247734Y-91807361D01*
X169330282Y-91862517D01*
X169400483Y-91932718D01*
X169455639Y-92015266D01*
X169493632Y-92106989D01*
X169513000Y-92204360D01*
X169513000Y-92303640D01*
X169493632Y-92401011D01*
X169455639Y-92492734D01*
X169400483Y-92575282D01*
X169330282Y-92645483D01*
X169247734Y-92700639D01*
X169156011Y-92738632D01*
X169058640Y-92758000D01*
X168959360Y-92758000D01*
X168861989Y-92738632D01*
X168770266Y-92700639D01*
X168687718Y-92645483D01*
X168617517Y-92575282D01*
X168562361Y-92492734D01*
X168524368Y-92401011D01*
X168505000Y-92303640D01*
X168505000Y-92204360D01*
X168524368Y-92106989D01*
X168562361Y-92015266D01*
X168617517Y-91932718D01*
X168687718Y-91862517D01*
X168770266Y-91807361D01*
X168861989Y-91769368D01*
X168959360Y-91750000D01*
X169058640Y-91750000D01*
X169156011Y-91769368D01*
X169156011Y-91769368D01*
G37*
G36*
X142706630Y-89887300D02*
X142866855Y-89935904D01*
X143014520Y-90014832D01*
X143143949Y-90121052D01*
X143250169Y-90250481D01*
X143329097Y-90398146D01*
X143377701Y-90558371D01*
X143394112Y-90725001D01*
X143377701Y-90891631D01*
X143329097Y-91051856D01*
X143250169Y-91199521D01*
X143143949Y-91328950D01*
X143014520Y-91435170D01*
X142866855Y-91514098D01*
X142706630Y-91562702D01*
X142581752Y-91575001D01*
X142498248Y-91575001D01*
X142373370Y-91562702D01*
X142213145Y-91514098D01*
X142065480Y-91435170D01*
X141936051Y-91328950D01*
X141829831Y-91199521D01*
X141750903Y-91051856D01*
X141702299Y-90891631D01*
X141685888Y-90725001D01*
X141702299Y-90558371D01*
X141750903Y-90398146D01*
X141829831Y-90250481D01*
X141936051Y-90121052D01*
X142065480Y-90014832D01*
X142213145Y-89935904D01*
X142373370Y-89887300D01*
X142498248Y-89875001D01*
X142581752Y-89875001D01*
X142706630Y-89887300D01*
X142706630Y-89887300D01*
G37*
G36*
X140166630Y-89887300D02*
X140326855Y-89935904D01*
X140474520Y-90014832D01*
X140603949Y-90121052D01*
X140710169Y-90250481D01*
X140789097Y-90398146D01*
X140837701Y-90558371D01*
X140854112Y-90725001D01*
X140837701Y-90891631D01*
X140789097Y-91051856D01*
X140710169Y-91199521D01*
X140603949Y-91328950D01*
X140474520Y-91435170D01*
X140326855Y-91514098D01*
X140166630Y-91562702D01*
X140041752Y-91575001D01*
X139958248Y-91575001D01*
X139833370Y-91562702D01*
X139673145Y-91514098D01*
X139525480Y-91435170D01*
X139396051Y-91328950D01*
X139289831Y-91199521D01*
X139210903Y-91051856D01*
X139162299Y-90891631D01*
X139145888Y-90725001D01*
X139162299Y-90558371D01*
X139210903Y-90398146D01*
X139289831Y-90250481D01*
X139396051Y-90121052D01*
X139525480Y-90014832D01*
X139673145Y-89935904D01*
X139833370Y-89887300D01*
X139958248Y-89875001D01*
X140041752Y-89875001D01*
X140166630Y-89887300D01*
X140166630Y-89887300D01*
G37*
G36*
X140166630Y-87347300D02*
X140326855Y-87395904D01*
X140474520Y-87474832D01*
X140603949Y-87581052D01*
X140710169Y-87710481D01*
X140789097Y-87858146D01*
X140837701Y-88018371D01*
X140854112Y-88185001D01*
X140837701Y-88351631D01*
X140789097Y-88511856D01*
X140710169Y-88659521D01*
X140603949Y-88788950D01*
X140474520Y-88895170D01*
X140326855Y-88974098D01*
X140166630Y-89022702D01*
X140041752Y-89035001D01*
X139958248Y-89035001D01*
X139833370Y-89022702D01*
X139673145Y-88974098D01*
X139525480Y-88895170D01*
X139396051Y-88788950D01*
X139289831Y-88659521D01*
X139210903Y-88511856D01*
X139162299Y-88351631D01*
X139145888Y-88185001D01*
X139162299Y-88018371D01*
X139210903Y-87858146D01*
X139289831Y-87710481D01*
X139396051Y-87581052D01*
X139525480Y-87474832D01*
X139673145Y-87395904D01*
X139833370Y-87347300D01*
X139958248Y-87335001D01*
X140041752Y-87335001D01*
X140166630Y-87347300D01*
X140166630Y-87347300D01*
G37*
G36*
X142706630Y-87347300D02*
X142866855Y-87395904D01*
X143014520Y-87474832D01*
X143143949Y-87581052D01*
X143250169Y-87710481D01*
X143329097Y-87858146D01*
X143377701Y-88018371D01*
X143394112Y-88185001D01*
X143377701Y-88351631D01*
X143329097Y-88511856D01*
X143250169Y-88659521D01*
X143143949Y-88788950D01*
X143014520Y-88895170D01*
X142866855Y-88974098D01*
X142706630Y-89022702D01*
X142581752Y-89035001D01*
X142498248Y-89035001D01*
X142373370Y-89022702D01*
X142213145Y-88974098D01*
X142065480Y-88895170D01*
X141936051Y-88788950D01*
X141829831Y-88659521D01*
X141750903Y-88511856D01*
X141702299Y-88351631D01*
X141685888Y-88185001D01*
X141702299Y-88018371D01*
X141750903Y-87858146D01*
X141829831Y-87710481D01*
X141936051Y-87581052D01*
X142065480Y-87474832D01*
X142213145Y-87395904D01*
X142373370Y-87347300D01*
X142498248Y-87335001D01*
X142581752Y-87335001D01*
X142706630Y-87347300D01*
X142706630Y-87347300D01*
G37*
G36*
X142706630Y-84807300D02*
X142866855Y-84855904D01*
X143014520Y-84934832D01*
X143143949Y-85041052D01*
X143250169Y-85170481D01*
X143329097Y-85318146D01*
X143377701Y-85478371D01*
X143394112Y-85645001D01*
X143377701Y-85811631D01*
X143329097Y-85971856D01*
X143250169Y-86119521D01*
X143143949Y-86248950D01*
X143014520Y-86355170D01*
X142866855Y-86434098D01*
X142706630Y-86482702D01*
X142581752Y-86495001D01*
X142498248Y-86495001D01*
X142373370Y-86482702D01*
X142213145Y-86434098D01*
X142065480Y-86355170D01*
X141936051Y-86248950D01*
X141829831Y-86119521D01*
X141750903Y-85971856D01*
X141702299Y-85811631D01*
X141685888Y-85645001D01*
X141702299Y-85478371D01*
X141750903Y-85318146D01*
X141829831Y-85170481D01*
X141936051Y-85041052D01*
X142065480Y-84934832D01*
X142213145Y-84855904D01*
X142373370Y-84807300D01*
X142498248Y-84795001D01*
X142581752Y-84795001D01*
X142706630Y-84807300D01*
X142706630Y-84807300D01*
G37*
G36*
X140166630Y-84807300D02*
X140326855Y-84855904D01*
X140474520Y-84934832D01*
X140603949Y-85041052D01*
X140710169Y-85170481D01*
X140789097Y-85318146D01*
X140837701Y-85478371D01*
X140854112Y-85645001D01*
X140837701Y-85811631D01*
X140789097Y-85971856D01*
X140710169Y-86119521D01*
X140603949Y-86248950D01*
X140474520Y-86355170D01*
X140326855Y-86434098D01*
X140166630Y-86482702D01*
X140041752Y-86495001D01*
X139958248Y-86495001D01*
X139833370Y-86482702D01*
X139673145Y-86434098D01*
X139525480Y-86355170D01*
X139396051Y-86248950D01*
X139289831Y-86119521D01*
X139210903Y-85971856D01*
X139162299Y-85811631D01*
X139145888Y-85645001D01*
X139162299Y-85478371D01*
X139210903Y-85318146D01*
X139289831Y-85170481D01*
X139396051Y-85041052D01*
X139525480Y-84934832D01*
X139673145Y-84855904D01*
X139833370Y-84807300D01*
X139958248Y-84795001D01*
X140041752Y-84795001D01*
X140166630Y-84807300D01*
X140166630Y-84807300D01*
G37*
G36*
X142706630Y-82267300D02*
X142866855Y-82315904D01*
X143014520Y-82394832D01*
X143143949Y-82501052D01*
X143250169Y-82630481D01*
X143329097Y-82778146D01*
X143377701Y-82938371D01*
X143394112Y-83105001D01*
X143377701Y-83271631D01*
X143329097Y-83431856D01*
X143250169Y-83579521D01*
X143143949Y-83708950D01*
X143014520Y-83815170D01*
X142866855Y-83894098D01*
X142706630Y-83942702D01*
X142581752Y-83955001D01*
X142498248Y-83955001D01*
X142373370Y-83942702D01*
X142213145Y-83894098D01*
X142065480Y-83815170D01*
X141936051Y-83708950D01*
X141829831Y-83579521D01*
X141750903Y-83431856D01*
X141702299Y-83271631D01*
X141685888Y-83105001D01*
X141702299Y-82938371D01*
X141750903Y-82778146D01*
X141829831Y-82630481D01*
X141936051Y-82501052D01*
X142065480Y-82394832D01*
X142213145Y-82315904D01*
X142373370Y-82267300D01*
X142498248Y-82255001D01*
X142581752Y-82255001D01*
X142706630Y-82267300D01*
X142706630Y-82267300D01*
G37*
G36*
X140166630Y-82267300D02*
X140326855Y-82315904D01*
X140474520Y-82394832D01*
X140603949Y-82501052D01*
X140710169Y-82630481D01*
X140789097Y-82778146D01*
X140837701Y-82938371D01*
X140854112Y-83105001D01*
X140837701Y-83271631D01*
X140789097Y-83431856D01*
X140710169Y-83579521D01*
X140603949Y-83708950D01*
X140474520Y-83815170D01*
X140326855Y-83894098D01*
X140166630Y-83942702D01*
X140041752Y-83955001D01*
X139958248Y-83955001D01*
X139833370Y-83942702D01*
X139673145Y-83894098D01*
X139525480Y-83815170D01*
X139396051Y-83708950D01*
X139289831Y-83579521D01*
X139210903Y-83431856D01*
X139162299Y-83271631D01*
X139145888Y-83105001D01*
X139162299Y-82938371D01*
X139210903Y-82778146D01*
X139289831Y-82630481D01*
X139396051Y-82501052D01*
X139525480Y-82394832D01*
X139673145Y-82315904D01*
X139833370Y-82267300D01*
X139958248Y-82255001D01*
X140041752Y-82255001D01*
X140166630Y-82267300D01*
X140166630Y-82267300D01*
G37*
G36*
X142706630Y-79727300D02*
X142866855Y-79775904D01*
X143014520Y-79854832D01*
X143143949Y-79961052D01*
X143250169Y-80090481D01*
X143329097Y-80238146D01*
X143377701Y-80398371D01*
X143394112Y-80565001D01*
X143377701Y-80731631D01*
X143329097Y-80891856D01*
X143250169Y-81039521D01*
X143143949Y-81168950D01*
X143014520Y-81275170D01*
X142866855Y-81354098D01*
X142706630Y-81402702D01*
X142581752Y-81415001D01*
X142498248Y-81415001D01*
X142373370Y-81402702D01*
X142213145Y-81354098D01*
X142065480Y-81275170D01*
X141936051Y-81168950D01*
X141829831Y-81039521D01*
X141750903Y-80891856D01*
X141702299Y-80731631D01*
X141685888Y-80565001D01*
X141702299Y-80398371D01*
X141750903Y-80238146D01*
X141829831Y-80090481D01*
X141936051Y-79961052D01*
X142065480Y-79854832D01*
X142213145Y-79775904D01*
X142373370Y-79727300D01*
X142498248Y-79715001D01*
X142581752Y-79715001D01*
X142706630Y-79727300D01*
X142706630Y-79727300D01*
G37*
G36*
X140166630Y-79727300D02*
X140326855Y-79775904D01*
X140474520Y-79854832D01*
X140603949Y-79961052D01*
X140710169Y-80090481D01*
X140789097Y-80238146D01*
X140837701Y-80398371D01*
X140854112Y-80565001D01*
X140837701Y-80731631D01*
X140789097Y-80891856D01*
X140710169Y-81039521D01*
X140603949Y-81168950D01*
X140474520Y-81275170D01*
X140326855Y-81354098D01*
X140166630Y-81402702D01*
X140041752Y-81415001D01*
X139958248Y-81415001D01*
X139833370Y-81402702D01*
X139673145Y-81354098D01*
X139525480Y-81275170D01*
X139396051Y-81168950D01*
X139289831Y-81039521D01*
X139210903Y-80891856D01*
X139162299Y-80731631D01*
X139145888Y-80565001D01*
X139162299Y-80398371D01*
X139210903Y-80238146D01*
X139289831Y-80090481D01*
X139396051Y-79961052D01*
X139525480Y-79854832D01*
X139673145Y-79775904D01*
X139833370Y-79727300D01*
X139958248Y-79715001D01*
X140041752Y-79715001D01*
X140166630Y-79727300D01*
X140166630Y-79727300D01*
G37*
G36*
X142706630Y-77187300D02*
X142866855Y-77235904D01*
X143014520Y-77314832D01*
X143143949Y-77421052D01*
X143250169Y-77550481D01*
X143329097Y-77698146D01*
X143377701Y-77858371D01*
X143394112Y-78025001D01*
X143377701Y-78191631D01*
X143329097Y-78351856D01*
X143250169Y-78499521D01*
X143143949Y-78628950D01*
X143014520Y-78735170D01*
X142866855Y-78814098D01*
X142706630Y-78862702D01*
X142581752Y-78875001D01*
X142498248Y-78875001D01*
X142373370Y-78862702D01*
X142213145Y-78814098D01*
X142065480Y-78735170D01*
X141936051Y-78628950D01*
X141829831Y-78499521D01*
X141750903Y-78351856D01*
X141702299Y-78191631D01*
X141685888Y-78025001D01*
X141702299Y-77858371D01*
X141750903Y-77698146D01*
X141829831Y-77550481D01*
X141936051Y-77421052D01*
X142065480Y-77314832D01*
X142213145Y-77235904D01*
X142373370Y-77187300D01*
X142498248Y-77175001D01*
X142581752Y-77175001D01*
X142706630Y-77187300D01*
X142706630Y-77187300D01*
G37*
G36*
X140166630Y-77187300D02*
X140326855Y-77235904D01*
X140474520Y-77314832D01*
X140603949Y-77421052D01*
X140710169Y-77550481D01*
X140789097Y-77698146D01*
X140837701Y-77858371D01*
X140854112Y-78025001D01*
X140837701Y-78191631D01*
X140789097Y-78351856D01*
X140710169Y-78499521D01*
X140603949Y-78628950D01*
X140474520Y-78735170D01*
X140326855Y-78814098D01*
X140166630Y-78862702D01*
X140041752Y-78875001D01*
X139958248Y-78875001D01*
X139833370Y-78862702D01*
X139673145Y-78814098D01*
X139525480Y-78735170D01*
X139396051Y-78628950D01*
X139289831Y-78499521D01*
X139210903Y-78351856D01*
X139162299Y-78191631D01*
X139145888Y-78025001D01*
X139162299Y-77858371D01*
X139210903Y-77698146D01*
X139289831Y-77550481D01*
X139396051Y-77421052D01*
X139525480Y-77314832D01*
X139673145Y-77235904D01*
X139833370Y-77187300D01*
X139958248Y-77175001D01*
X140041752Y-77175001D01*
X140166630Y-77187300D01*
X140166630Y-77187300D01*
G37*
G36*
X140166630Y-74647300D02*
X140326855Y-74695904D01*
X140474520Y-74774832D01*
X140603949Y-74881052D01*
X140710169Y-75010481D01*
X140789097Y-75158146D01*
X140837701Y-75318371D01*
X140854112Y-75485001D01*
X140837701Y-75651631D01*
X140789097Y-75811856D01*
X140710169Y-75959521D01*
X140603949Y-76088950D01*
X140474520Y-76195170D01*
X140326855Y-76274098D01*
X140166630Y-76322702D01*
X140041752Y-76335001D01*
X139958248Y-76335001D01*
X139833370Y-76322702D01*
X139673145Y-76274098D01*
X139525480Y-76195170D01*
X139396051Y-76088950D01*
X139289831Y-75959521D01*
X139210903Y-75811856D01*
X139162299Y-75651631D01*
X139145888Y-75485001D01*
X139162299Y-75318371D01*
X139210903Y-75158146D01*
X139289831Y-75010481D01*
X139396051Y-74881052D01*
X139525480Y-74774832D01*
X139673145Y-74695904D01*
X139833370Y-74647300D01*
X139958248Y-74635001D01*
X140041752Y-74635001D01*
X140166630Y-74647300D01*
X140166630Y-74647300D01*
G37*
G36*
X142706630Y-74647300D02*
X142866855Y-74695904D01*
X143014520Y-74774832D01*
X143143949Y-74881052D01*
X143250169Y-75010481D01*
X143329097Y-75158146D01*
X143377701Y-75318371D01*
X143394112Y-75485001D01*
X143377701Y-75651631D01*
X143329097Y-75811856D01*
X143250169Y-75959521D01*
X143143949Y-76088950D01*
X143014520Y-76195170D01*
X142866855Y-76274098D01*
X142706630Y-76322702D01*
X142581752Y-76335001D01*
X142498248Y-76335001D01*
X142373370Y-76322702D01*
X142213145Y-76274098D01*
X142065480Y-76195170D01*
X141936051Y-76088950D01*
X141829831Y-75959521D01*
X141750903Y-75811856D01*
X141702299Y-75651631D01*
X141685888Y-75485001D01*
X141702299Y-75318371D01*
X141750903Y-75158146D01*
X141829831Y-75010481D01*
X141936051Y-74881052D01*
X142065480Y-74774832D01*
X142213145Y-74695904D01*
X142373370Y-74647300D01*
X142498248Y-74635001D01*
X142581752Y-74635001D01*
X142706630Y-74647300D01*
X142706630Y-74647300D01*
G37*
G36*
X142706630Y-72107300D02*
X142866855Y-72155904D01*
X143014520Y-72234832D01*
X143143949Y-72341052D01*
X143250169Y-72470481D01*
X143329097Y-72618146D01*
X143377701Y-72778371D01*
X143394112Y-72945001D01*
X143377701Y-73111631D01*
X143329097Y-73271856D01*
X143250169Y-73419521D01*
X143143949Y-73548950D01*
X143014520Y-73655170D01*
X142866855Y-73734098D01*
X142706630Y-73782702D01*
X142581752Y-73795001D01*
X142498248Y-73795001D01*
X142373370Y-73782702D01*
X142213145Y-73734098D01*
X142065480Y-73655170D01*
X141936051Y-73548950D01*
X141829831Y-73419521D01*
X141750903Y-73271856D01*
X141702299Y-73111631D01*
X141685888Y-72945001D01*
X141702299Y-72778371D01*
X141750903Y-72618146D01*
X141829831Y-72470481D01*
X141936051Y-72341052D01*
X142065480Y-72234832D01*
X142213145Y-72155904D01*
X142373370Y-72107300D01*
X142498248Y-72095001D01*
X142581752Y-72095001D01*
X142706630Y-72107300D01*
X142706630Y-72107300D01*
G37*
G36*
X140166630Y-72107300D02*
X140326855Y-72155904D01*
X140474520Y-72234832D01*
X140603949Y-72341052D01*
X140710169Y-72470481D01*
X140789097Y-72618146D01*
X140837701Y-72778371D01*
X140854112Y-72945001D01*
X140837701Y-73111631D01*
X140789097Y-73271856D01*
X140710169Y-73419521D01*
X140603949Y-73548950D01*
X140474520Y-73655170D01*
X140326855Y-73734098D01*
X140166630Y-73782702D01*
X140041752Y-73795001D01*
X139958248Y-73795001D01*
X139833370Y-73782702D01*
X139673145Y-73734098D01*
X139525480Y-73655170D01*
X139396051Y-73548950D01*
X139289831Y-73419521D01*
X139210903Y-73271856D01*
X139162299Y-73111631D01*
X139145888Y-72945001D01*
X139162299Y-72778371D01*
X139210903Y-72618146D01*
X139289831Y-72470481D01*
X139396051Y-72341052D01*
X139525480Y-72234832D01*
X139673145Y-72155904D01*
X139833370Y-72107300D01*
X139958248Y-72095001D01*
X140041752Y-72095001D01*
X140166630Y-72107300D01*
X140166630Y-72107300D01*
G37*
G36*
X142706630Y-69567300D02*
X142866855Y-69615904D01*
X143014520Y-69694832D01*
X143143949Y-69801052D01*
X143250169Y-69930481D01*
X143329097Y-70078146D01*
X143377701Y-70238371D01*
X143394112Y-70405001D01*
X143377701Y-70571631D01*
X143329097Y-70731856D01*
X143250169Y-70879521D01*
X143143949Y-71008950D01*
X143014520Y-71115170D01*
X142866855Y-71194098D01*
X142706630Y-71242702D01*
X142581752Y-71255001D01*
X142498248Y-71255001D01*
X142373370Y-71242702D01*
X142213145Y-71194098D01*
X142065480Y-71115170D01*
X141936051Y-71008950D01*
X141829831Y-70879521D01*
X141750903Y-70731856D01*
X141702299Y-70571631D01*
X141685888Y-70405001D01*
X141702299Y-70238371D01*
X141750903Y-70078146D01*
X141829831Y-69930481D01*
X141936051Y-69801052D01*
X142065480Y-69694832D01*
X142213145Y-69615904D01*
X142373370Y-69567300D01*
X142498248Y-69555001D01*
X142581752Y-69555001D01*
X142706630Y-69567300D01*
X142706630Y-69567300D01*
G37*
G36*
X140166630Y-69567300D02*
X140326855Y-69615904D01*
X140474520Y-69694832D01*
X140603949Y-69801052D01*
X140710169Y-69930481D01*
X140789097Y-70078146D01*
X140837701Y-70238371D01*
X140854112Y-70405001D01*
X140837701Y-70571631D01*
X140789097Y-70731856D01*
X140710169Y-70879521D01*
X140603949Y-71008950D01*
X140474520Y-71115170D01*
X140326855Y-71194098D01*
X140166630Y-71242702D01*
X140041752Y-71255001D01*
X139958248Y-71255001D01*
X139833370Y-71242702D01*
X139673145Y-71194098D01*
X139525480Y-71115170D01*
X139396051Y-71008950D01*
X139289831Y-70879521D01*
X139210903Y-70731856D01*
X139162299Y-70571631D01*
X139145888Y-70405001D01*
X139162299Y-70238371D01*
X139210903Y-70078146D01*
X139289831Y-69930481D01*
X139396051Y-69801052D01*
X139525480Y-69694832D01*
X139673145Y-69615904D01*
X139833370Y-69567300D01*
X139958248Y-69555001D01*
X140041752Y-69555001D01*
X140166630Y-69567300D01*
X140166630Y-69567300D01*
G37*
G36*
X159156011Y-69769368D02*
X159247734Y-69807361D01*
X159330282Y-69862517D01*
X159400483Y-69932718D01*
X159455639Y-70015266D01*
X159493632Y-70106989D01*
X159513000Y-70204360D01*
X159513000Y-70303640D01*
X159493632Y-70401011D01*
X159455639Y-70492734D01*
X159400483Y-70575282D01*
X159330282Y-70645483D01*
X159247734Y-70700639D01*
X159156011Y-70738632D01*
X159058640Y-70758000D01*
X158959360Y-70758000D01*
X158861989Y-70738632D01*
X158770266Y-70700639D01*
X158687718Y-70645483D01*
X158617517Y-70575282D01*
X158562361Y-70492734D01*
X158524368Y-70401011D01*
X158505000Y-70303640D01*
X158505000Y-70204360D01*
X158524368Y-70106989D01*
X158562361Y-70015266D01*
X158617517Y-69932718D01*
X158687718Y-69862517D01*
X158770266Y-69807361D01*
X158861989Y-69769368D01*
X158959360Y-69750000D01*
X159058640Y-69750000D01*
X159156011Y-69769368D01*
X159156011Y-69769368D01*
G37*
G36*
X167156011Y-69769368D02*
X167247734Y-69807361D01*
X167330282Y-69862517D01*
X167400483Y-69932718D01*
X167455639Y-70015266D01*
X167493632Y-70106989D01*
X167513000Y-70204360D01*
X167513000Y-70303640D01*
X167493632Y-70401011D01*
X167455639Y-70492734D01*
X167400483Y-70575282D01*
X167330282Y-70645483D01*
X167247734Y-70700639D01*
X167156011Y-70738632D01*
X167058640Y-70758000D01*
X166959360Y-70758000D01*
X166861989Y-70738632D01*
X166770266Y-70700639D01*
X166687718Y-70645483D01*
X166617517Y-70575282D01*
X166562361Y-70492734D01*
X166524368Y-70401011D01*
X166505000Y-70303640D01*
X166505000Y-70204360D01*
X166524368Y-70106989D01*
X166562361Y-70015266D01*
X166617517Y-69932718D01*
X166687718Y-69862517D01*
X166770266Y-69807361D01*
X166861989Y-69769368D01*
X166959360Y-69750000D01*
X167058640Y-69750000D01*
X167156011Y-69769368D01*
X167156011Y-69769368D01*
G37*
G36*
X165156011Y-69769368D02*
X165247734Y-69807361D01*
X165330282Y-69862517D01*
X165400483Y-69932718D01*
X165455639Y-70015266D01*
X165493632Y-70106989D01*
X165513000Y-70204360D01*
X165513000Y-70303640D01*
X165493632Y-70401011D01*
X165455639Y-70492734D01*
X165400483Y-70575282D01*
X165330282Y-70645483D01*
X165247734Y-70700639D01*
X165156011Y-70738632D01*
X165058640Y-70758000D01*
X164959360Y-70758000D01*
X164861989Y-70738632D01*
X164770266Y-70700639D01*
X164687718Y-70645483D01*
X164617517Y-70575282D01*
X164562361Y-70492734D01*
X164524368Y-70401011D01*
X164505000Y-70303640D01*
X164505000Y-70204360D01*
X164524368Y-70106989D01*
X164562361Y-70015266D01*
X164617517Y-69932718D01*
X164687718Y-69862517D01*
X164770266Y-69807361D01*
X164861989Y-69769368D01*
X164959360Y-69750000D01*
X165058640Y-69750000D01*
X165156011Y-69769368D01*
X165156011Y-69769368D01*
G37*
G36*
X153156011Y-69769368D02*
X153247734Y-69807361D01*
X153330282Y-69862517D01*
X153400483Y-69932718D01*
X153455639Y-70015266D01*
X153493632Y-70106989D01*
X153513000Y-70204360D01*
X153513000Y-70303640D01*
X153493632Y-70401011D01*
X153455639Y-70492734D01*
X153400483Y-70575282D01*
X153330282Y-70645483D01*
X153247734Y-70700639D01*
X153156011Y-70738632D01*
X153058640Y-70758000D01*
X152959360Y-70758000D01*
X152861989Y-70738632D01*
X152770266Y-70700639D01*
X152687718Y-70645483D01*
X152617517Y-70575282D01*
X152562361Y-70492734D01*
X152524368Y-70401011D01*
X152505000Y-70303640D01*
X152505000Y-70204360D01*
X152524368Y-70106989D01*
X152562361Y-70015266D01*
X152617517Y-69932718D01*
X152687718Y-69862517D01*
X152770266Y-69807361D01*
X152861989Y-69769368D01*
X152959360Y-69750000D01*
X153058640Y-69750000D01*
X153156011Y-69769368D01*
X153156011Y-69769368D01*
G37*
G36*
X155156011Y-69769368D02*
X155247734Y-69807361D01*
X155330282Y-69862517D01*
X155400483Y-69932718D01*
X155455639Y-70015266D01*
X155493632Y-70106989D01*
X155513000Y-70204360D01*
X155513000Y-70303640D01*
X155493632Y-70401011D01*
X155455639Y-70492734D01*
X155400483Y-70575282D01*
X155330282Y-70645483D01*
X155247734Y-70700639D01*
X155156011Y-70738632D01*
X155058640Y-70758000D01*
X154959360Y-70758000D01*
X154861989Y-70738632D01*
X154770266Y-70700639D01*
X154687718Y-70645483D01*
X154617517Y-70575282D01*
X154562361Y-70492734D01*
X154524368Y-70401011D01*
X154505000Y-70303640D01*
X154505000Y-70204360D01*
X154524368Y-70106989D01*
X154562361Y-70015266D01*
X154617517Y-69932718D01*
X154687718Y-69862517D01*
X154770266Y-69807361D01*
X154861989Y-69769368D01*
X154959360Y-69750000D01*
X155058640Y-69750000D01*
X155156011Y-69769368D01*
X155156011Y-69769368D01*
G37*
G36*
X157156011Y-69769368D02*
X157247734Y-69807361D01*
X157330282Y-69862517D01*
X157400483Y-69932718D01*
X157455639Y-70015266D01*
X157493632Y-70106989D01*
X157513000Y-70204360D01*
X157513000Y-70303640D01*
X157493632Y-70401011D01*
X157455639Y-70492734D01*
X157400483Y-70575282D01*
X157330282Y-70645483D01*
X157247734Y-70700639D01*
X157156011Y-70738632D01*
X157058640Y-70758000D01*
X156959360Y-70758000D01*
X156861989Y-70738632D01*
X156770266Y-70700639D01*
X156687718Y-70645483D01*
X156617517Y-70575282D01*
X156562361Y-70492734D01*
X156524368Y-70401011D01*
X156505000Y-70303640D01*
X156505000Y-70204360D01*
X156524368Y-70106989D01*
X156562361Y-70015266D01*
X156617517Y-69932718D01*
X156687718Y-69862517D01*
X156770266Y-69807361D01*
X156861989Y-69769368D01*
X156959360Y-69750000D01*
X157058640Y-69750000D01*
X157156011Y-69769368D01*
X157156011Y-69769368D01*
G37*
G36*
X161156011Y-69769368D02*
X161247734Y-69807361D01*
X161330282Y-69862517D01*
X161400483Y-69932718D01*
X161455639Y-70015266D01*
X161493632Y-70106989D01*
X161513000Y-70204360D01*
X161513000Y-70303640D01*
X161493632Y-70401011D01*
X161455639Y-70492734D01*
X161400483Y-70575282D01*
X161330282Y-70645483D01*
X161247734Y-70700639D01*
X161156011Y-70738632D01*
X161058640Y-70758000D01*
X160959360Y-70758000D01*
X160861989Y-70738632D01*
X160770266Y-70700639D01*
X160687718Y-70645483D01*
X160617517Y-70575282D01*
X160562361Y-70492734D01*
X160524368Y-70401011D01*
X160505000Y-70303640D01*
X160505000Y-70204360D01*
X160524368Y-70106989D01*
X160562361Y-70015266D01*
X160617517Y-69932718D01*
X160687718Y-69862517D01*
X160770266Y-69807361D01*
X160861989Y-69769368D01*
X160959360Y-69750000D01*
X161058640Y-69750000D01*
X161156011Y-69769368D01*
X161156011Y-69769368D01*
G37*
G36*
X163156011Y-69769368D02*
X163247734Y-69807361D01*
X163330282Y-69862517D01*
X163400483Y-69932718D01*
X163455639Y-70015266D01*
X163493632Y-70106989D01*
X163513000Y-70204360D01*
X163513000Y-70303640D01*
X163493632Y-70401011D01*
X163455639Y-70492734D01*
X163400483Y-70575282D01*
X163330282Y-70645483D01*
X163247734Y-70700639D01*
X163156011Y-70738632D01*
X163058640Y-70758000D01*
X162959360Y-70758000D01*
X162861989Y-70738632D01*
X162770266Y-70700639D01*
X162687718Y-70645483D01*
X162617517Y-70575282D01*
X162562361Y-70492734D01*
X162524368Y-70401011D01*
X162505000Y-70303640D01*
X162505000Y-70204360D01*
X162524368Y-70106989D01*
X162562361Y-70015266D01*
X162617517Y-69932718D01*
X162687718Y-69862517D01*
X162770266Y-69807361D01*
X162861989Y-69769368D01*
X162959360Y-69750000D01*
X163058640Y-69750000D01*
X163156011Y-69769368D01*
X163156011Y-69769368D01*
G37*
G36*
X169156011Y-69769368D02*
X169247734Y-69807361D01*
X169330282Y-69862517D01*
X169400483Y-69932718D01*
X169455639Y-70015266D01*
X169493632Y-70106989D01*
X169513000Y-70204360D01*
X169513000Y-70303640D01*
X169493632Y-70401011D01*
X169455639Y-70492734D01*
X169400483Y-70575282D01*
X169330282Y-70645483D01*
X169247734Y-70700639D01*
X169156011Y-70738632D01*
X169058640Y-70758000D01*
X168959360Y-70758000D01*
X168861989Y-70738632D01*
X168770266Y-70700639D01*
X168687718Y-70645483D01*
X168617517Y-70575282D01*
X168562361Y-70492734D01*
X168524368Y-70401011D01*
X168505000Y-70303640D01*
X168505000Y-70204360D01*
X168524368Y-70106989D01*
X168562361Y-70015266D01*
X168617517Y-69932718D01*
X168687718Y-69862517D01*
X168770266Y-69807361D01*
X168861989Y-69769368D01*
X168959360Y-69750000D01*
X169058640Y-69750000D01*
X169156011Y-69769368D01*
X169156011Y-69769368D01*
G37*
G36*
X171513000Y-70758000D02*
X170505000Y-70758000D01*
X170505000Y-69750000D01*
X171513000Y-69750000D01*
X171513000Y-70758000D01*
X171513000Y-70758000D01*
G37*
G36*
X140850000Y-68715001D02*
X139150000Y-68715001D01*
X139150000Y-67015001D01*
X140850000Y-67015001D01*
X140850000Y-68715001D01*
X140850000Y-68715001D01*
G37*
G36*
X142706630Y-67027300D02*
X142866855Y-67075904D01*
X143014520Y-67154832D01*
X143143949Y-67261052D01*
X143250169Y-67390481D01*
X143329097Y-67538146D01*
X143377701Y-67698371D01*
X143394112Y-67865001D01*
X143377701Y-68031631D01*
X143329097Y-68191856D01*
X143250169Y-68339521D01*
X143143949Y-68468950D01*
X143014520Y-68575170D01*
X142866855Y-68654098D01*
X142706630Y-68702702D01*
X142581752Y-68715001D01*
X142498248Y-68715001D01*
X142373370Y-68702702D01*
X142213145Y-68654098D01*
X142065480Y-68575170D01*
X141936051Y-68468950D01*
X141829831Y-68339521D01*
X141750903Y-68191856D01*
X141702299Y-68031631D01*
X141685888Y-67865001D01*
X141702299Y-67698371D01*
X141750903Y-67538146D01*
X141829831Y-67390481D01*
X141936051Y-67261052D01*
X142065480Y-67154832D01*
X142213145Y-67075904D01*
X142373370Y-67027300D01*
X142498248Y-67015001D01*
X142581752Y-67015001D01*
X142706630Y-67027300D01*
X142706630Y-67027300D01*
G37*
G36*
X160681870Y-61076859D02*
X160875068Y-61115288D01*
X161421033Y-61341434D01*
X161909077Y-61667535D01*
X161912392Y-61669750D01*
X162330250Y-62087608D01*
X162330252Y-62087611D01*
X162658566Y-62578967D01*
X162884712Y-63124932D01*
X163000000Y-63704526D01*
X163000000Y-64295474D01*
X162884712Y-64875068D01*
X162658566Y-65421033D01*
X162332465Y-65909077D01*
X162330250Y-65912392D01*
X161912392Y-66330250D01*
X161912389Y-66330252D01*
X161421033Y-66658566D01*
X160875068Y-66884712D01*
X160681870Y-66923141D01*
X160295476Y-67000000D01*
X159704524Y-67000000D01*
X159318130Y-66923141D01*
X159124932Y-66884712D01*
X158578967Y-66658566D01*
X158087611Y-66330252D01*
X158087608Y-66330250D01*
X157669750Y-65912392D01*
X157667535Y-65909077D01*
X157341434Y-65421033D01*
X157115288Y-64875068D01*
X157000000Y-64295474D01*
X157000000Y-63704526D01*
X157115288Y-63124932D01*
X157341434Y-62578967D01*
X157669748Y-62087611D01*
X157669750Y-62087608D01*
X158087608Y-61669750D01*
X158090923Y-61667535D01*
X158578967Y-61341434D01*
X159124932Y-61115288D01*
X159318130Y-61076859D01*
X159704524Y-61000000D01*
X160295476Y-61000000D01*
X160681870Y-61076859D01*
X160681870Y-61076859D01*
G37*
M02*
