G04 #@! TF.GenerationSoftware,KiCad,Pcbnew,(5.0.1)-4*
G04 #@! TF.CreationDate,2019-03-02T13:01:11-06:00*
G04 #@! TF.ProjectId,ccu_pcb2,6363755F706362322E6B696361645F70,rev?*
G04 #@! TF.SameCoordinates,Original*
G04 #@! TF.FileFunction,Legend,Top*
G04 #@! TF.FilePolarity,Positive*
%FSLAX46Y46*%
G04 Gerber Fmt 4.6, Leading zero omitted, Abs format (unit mm)*
G04 Created by KiCad (PCBNEW (5.0.1)-4) date 2019-03-02 1:01:11 PM*
%MOMM*%
%LPD*%
G01*
G04 APERTURE LIST*
%ADD10C,0.150000*%
%ADD11C,0.300000*%
%ADD12C,0.120000*%
%ADD13C,0.010000*%
%ADD14C,0.050000*%
G04 APERTURE END LIST*
D10*
X152238095Y-99500000D02*
X152142857Y-99452380D01*
X152000000Y-99452380D01*
X151857142Y-99500000D01*
X151761904Y-99595238D01*
X151714285Y-99690476D01*
X151666666Y-99880952D01*
X151666666Y-100023809D01*
X151714285Y-100214285D01*
X151761904Y-100309523D01*
X151857142Y-100404761D01*
X152000000Y-100452380D01*
X152095238Y-100452380D01*
X152238095Y-100404761D01*
X152285714Y-100357142D01*
X152285714Y-100023809D01*
X152095238Y-100023809D01*
X152714285Y-100452380D02*
X152714285Y-99452380D01*
X153285714Y-100452380D01*
X153285714Y-99452380D01*
X153761904Y-100452380D02*
X153761904Y-99452380D01*
X154000000Y-99452380D01*
X154142857Y-99500000D01*
X154238095Y-99595238D01*
X154285714Y-99690476D01*
X154333333Y-99880952D01*
X154333333Y-100023809D01*
X154285714Y-100214285D01*
X154238095Y-100309523D01*
X154142857Y-100404761D01*
X154000000Y-100452380D01*
X153761904Y-100452380D01*
X152809523Y-96452380D02*
X152333333Y-96452380D01*
X152285714Y-96928571D01*
X152333333Y-96880952D01*
X152428571Y-96833333D01*
X152666666Y-96833333D01*
X152761904Y-96880952D01*
X152809523Y-96928571D01*
X152857142Y-97023809D01*
X152857142Y-97261904D01*
X152809523Y-97357142D01*
X152761904Y-97404761D01*
X152666666Y-97452380D01*
X152428571Y-97452380D01*
X152333333Y-97404761D01*
X152285714Y-97357142D01*
X153142857Y-96452380D02*
X153476190Y-97452380D01*
X153809523Y-96452380D01*
D11*
X158821428Y-106678571D02*
X158821428Y-105178571D01*
X158821428Y-105892857D02*
X159678571Y-105892857D01*
X159678571Y-106678571D02*
X159678571Y-105178571D01*
X160678571Y-105178571D02*
X160964285Y-105178571D01*
X161107142Y-105250000D01*
X161250000Y-105392857D01*
X161321428Y-105678571D01*
X161321428Y-106178571D01*
X161250000Y-106464285D01*
X161107142Y-106607142D01*
X160964285Y-106678571D01*
X160678571Y-106678571D01*
X160535714Y-106607142D01*
X160392857Y-106464285D01*
X160321428Y-106178571D01*
X160321428Y-105678571D01*
X160392857Y-105392857D01*
X160535714Y-105250000D01*
X160678571Y-105178571D01*
X161964285Y-106678571D02*
X161964285Y-105178571D01*
X162464285Y-106250000D01*
X162964285Y-105178571D01*
X162964285Y-106678571D01*
X163678571Y-105892857D02*
X164178571Y-105892857D01*
X164392857Y-106678571D02*
X163678571Y-106678571D01*
X163678571Y-105178571D01*
X164392857Y-105178571D01*
X166178571Y-105892857D02*
X166678571Y-105892857D01*
X166892857Y-106678571D02*
X166178571Y-106678571D01*
X166178571Y-105178571D01*
X166892857Y-105178571D01*
X167535714Y-106678571D02*
X167535714Y-105178571D01*
X168392857Y-106678571D01*
X168392857Y-105178571D01*
X169107142Y-105892857D02*
X169607142Y-105892857D01*
X169821428Y-106678571D02*
X169107142Y-106678571D01*
X169107142Y-105178571D01*
X169821428Y-105178571D01*
X171321428Y-106678571D02*
X170821428Y-105964285D01*
X170464285Y-106678571D02*
X170464285Y-105178571D01*
X171035714Y-105178571D01*
X171178571Y-105250000D01*
X171250000Y-105321428D01*
X171321428Y-105464285D01*
X171321428Y-105678571D01*
X171250000Y-105821428D01*
X171178571Y-105892857D01*
X171035714Y-105964285D01*
X170464285Y-105964285D01*
X172750000Y-105250000D02*
X172607142Y-105178571D01*
X172392857Y-105178571D01*
X172178571Y-105250000D01*
X172035714Y-105392857D01*
X171964285Y-105535714D01*
X171892857Y-105821428D01*
X171892857Y-106035714D01*
X171964285Y-106321428D01*
X172035714Y-106464285D01*
X172178571Y-106607142D01*
X172392857Y-106678571D01*
X172535714Y-106678571D01*
X172750000Y-106607142D01*
X172821428Y-106535714D01*
X172821428Y-106035714D01*
X172535714Y-106035714D01*
X173750000Y-105964285D02*
X173750000Y-106678571D01*
X173250000Y-105178571D02*
X173750000Y-105964285D01*
X174250000Y-105178571D01*
X155357142Y-109228571D02*
X155357142Y-107728571D01*
X155857142Y-108800000D01*
X156357142Y-107728571D01*
X156357142Y-109228571D01*
X157000000Y-108800000D02*
X157714285Y-108800000D01*
X156857142Y-109228571D02*
X157357142Y-107728571D01*
X157857142Y-109228571D01*
X158357142Y-109228571D02*
X158357142Y-107728571D01*
X159214285Y-109228571D01*
X159214285Y-107728571D01*
X159857142Y-108800000D02*
X160571428Y-108800000D01*
X159714285Y-109228571D02*
X160214285Y-107728571D01*
X160714285Y-109228571D01*
X162000000Y-107800000D02*
X161857142Y-107728571D01*
X161642857Y-107728571D01*
X161428571Y-107800000D01*
X161285714Y-107942857D01*
X161214285Y-108085714D01*
X161142857Y-108371428D01*
X161142857Y-108585714D01*
X161214285Y-108871428D01*
X161285714Y-109014285D01*
X161428571Y-109157142D01*
X161642857Y-109228571D01*
X161785714Y-109228571D01*
X162000000Y-109157142D01*
X162071428Y-109085714D01*
X162071428Y-108585714D01*
X161785714Y-108585714D01*
X162714285Y-108442857D02*
X163214285Y-108442857D01*
X163428571Y-109228571D02*
X162714285Y-109228571D01*
X162714285Y-107728571D01*
X163428571Y-107728571D01*
X164071428Y-109228571D02*
X164071428Y-107728571D01*
X164571428Y-108800000D01*
X165071428Y-107728571D01*
X165071428Y-109228571D01*
X165785714Y-108442857D02*
X166285714Y-108442857D01*
X166500000Y-109228571D02*
X165785714Y-109228571D01*
X165785714Y-107728571D01*
X166500000Y-107728571D01*
X167142857Y-109228571D02*
X167142857Y-107728571D01*
X168000000Y-109228571D01*
X168000000Y-107728571D01*
X168500000Y-107728571D02*
X169357142Y-107728571D01*
X168928571Y-109228571D02*
X168928571Y-107728571D01*
X170928571Y-109157142D02*
X171142857Y-109228571D01*
X171500000Y-109228571D01*
X171642857Y-109157142D01*
X171714285Y-109085714D01*
X171785714Y-108942857D01*
X171785714Y-108800000D01*
X171714285Y-108657142D01*
X171642857Y-108585714D01*
X171500000Y-108514285D01*
X171214285Y-108442857D01*
X171071428Y-108371428D01*
X171000000Y-108300000D01*
X170928571Y-108157142D01*
X170928571Y-108014285D01*
X171000000Y-107871428D01*
X171071428Y-107800000D01*
X171214285Y-107728571D01*
X171571428Y-107728571D01*
X171785714Y-107800000D01*
X172714285Y-108514285D02*
X172714285Y-109228571D01*
X172214285Y-107728571D02*
X172714285Y-108514285D01*
X173214285Y-107728571D01*
X173642857Y-109157142D02*
X173857142Y-109228571D01*
X174214285Y-109228571D01*
X174357142Y-109157142D01*
X174428571Y-109085714D01*
X174500000Y-108942857D01*
X174500000Y-108800000D01*
X174428571Y-108657142D01*
X174357142Y-108585714D01*
X174214285Y-108514285D01*
X173928571Y-108442857D01*
X173785714Y-108371428D01*
X173714285Y-108300000D01*
X173642857Y-108157142D01*
X173642857Y-108014285D01*
X173714285Y-107871428D01*
X173785714Y-107800000D01*
X173928571Y-107728571D01*
X174285714Y-107728571D01*
X174500000Y-107800000D01*
X174928571Y-107728571D02*
X175785714Y-107728571D01*
X175357142Y-109228571D02*
X175357142Y-107728571D01*
X176285714Y-108442857D02*
X176785714Y-108442857D01*
X177000000Y-109228571D02*
X176285714Y-109228571D01*
X176285714Y-107728571D01*
X177000000Y-107728571D01*
X177642857Y-109228571D02*
X177642857Y-107728571D01*
X178142857Y-108800000D01*
X178642857Y-107728571D01*
X178642857Y-109228571D01*
D12*
G04 #@! TO.C,J1*
X138670000Y-117455001D02*
X143870000Y-117455001D01*
X138670000Y-69135001D02*
X138670000Y-117455001D01*
X143870000Y-66535001D02*
X143870000Y-117455001D01*
X138670000Y-69135001D02*
X141270000Y-69135001D01*
X141270000Y-69135001D02*
X141270000Y-66535001D01*
X141270000Y-66535001D02*
X143870000Y-66535001D01*
X138670000Y-67865001D02*
X138670000Y-66535001D01*
X138670000Y-66535001D02*
X140000000Y-66535001D01*
G04 #@! TO.C,J2*
X148670000Y-95670000D02*
X150000000Y-95670000D01*
X148670000Y-97000000D02*
X148670000Y-95670000D01*
X148670000Y-98270000D02*
X151330000Y-98270000D01*
X151330000Y-98270000D02*
X151330000Y-100870000D01*
X148670000Y-98270000D02*
X148670000Y-100870000D01*
X148670000Y-100870000D02*
X151330000Y-100870000D01*
G04 #@! TO.C,J3*
X149165000Y-117535000D02*
X151825000Y-117535000D01*
X149165000Y-107315000D02*
X149165000Y-117535000D01*
X151825000Y-107315000D02*
X151825000Y-117535000D01*
X149165000Y-107315000D02*
X151825000Y-107315000D01*
X149165000Y-106045000D02*
X149165000Y-104715000D01*
X149165000Y-104715000D02*
X150495000Y-104715000D01*
D13*
G04 #@! TO.C,REF\002A\002A*
G36*
X175164043Y-111085835D02*
X175187065Y-111123245D01*
X175222534Y-111182514D01*
X175268996Y-111261118D01*
X175324996Y-111356538D01*
X175389081Y-111466250D01*
X175459796Y-111587734D01*
X175535687Y-111718468D01*
X175615299Y-111855930D01*
X175697178Y-111997598D01*
X175779870Y-112140951D01*
X175861921Y-112283467D01*
X175941876Y-112422624D01*
X176018281Y-112555901D01*
X176089682Y-112680776D01*
X176154624Y-112794727D01*
X176211653Y-112895233D01*
X176259315Y-112979772D01*
X176296155Y-113045822D01*
X176320720Y-113090862D01*
X176331554Y-113112370D01*
X176331951Y-113113714D01*
X176318501Y-113131965D01*
X176281114Y-113159882D01*
X176224235Y-113194725D01*
X176152312Y-113233754D01*
X176077015Y-113270843D01*
X175974560Y-113315817D01*
X175866817Y-113356226D01*
X175750073Y-113392969D01*
X175620618Y-113426942D01*
X175474740Y-113459044D01*
X175308726Y-113490173D01*
X175118866Y-113521227D01*
X174922469Y-113550145D01*
X174751834Y-113575800D01*
X174608545Y-113601198D01*
X174489008Y-113627602D01*
X174389630Y-113656273D01*
X174306818Y-113688473D01*
X174236978Y-113725465D01*
X174176518Y-113768512D01*
X174121845Y-113818875D01*
X174104214Y-113837583D01*
X174066000Y-113881139D01*
X174037732Y-113916682D01*
X174024618Y-113937583D01*
X174024268Y-113939297D01*
X174019680Y-113949806D01*
X174003758Y-113949924D01*
X173973266Y-113938254D01*
X173924968Y-113913396D01*
X173855627Y-113873952D01*
X173807439Y-113845587D01*
X173735583Y-113801247D01*
X173679742Y-113763279D01*
X173643667Y-113734416D01*
X173631113Y-113717388D01*
X173631121Y-113717264D01*
X173638906Y-113701037D01*
X173660892Y-113660400D01*
X173695803Y-113597567D01*
X173742363Y-113514752D01*
X173799295Y-113414172D01*
X173865323Y-113298040D01*
X173939172Y-113168571D01*
X174019564Y-113027980D01*
X174105224Y-112878482D01*
X174194876Y-112722292D01*
X174287243Y-112561624D01*
X174381049Y-112398693D01*
X174475018Y-112235713D01*
X174567874Y-112074900D01*
X174658340Y-111918468D01*
X174745141Y-111768633D01*
X174827000Y-111627608D01*
X174902641Y-111497609D01*
X174970787Y-111380849D01*
X175030163Y-111279545D01*
X175079493Y-111195911D01*
X175117500Y-111132162D01*
X175142907Y-111090511D01*
X175154440Y-111073175D01*
X175154923Y-111072805D01*
X175164043Y-111085835D01*
X175164043Y-111085835D01*
G37*
X175164043Y-111085835D02*
X175187065Y-111123245D01*
X175222534Y-111182514D01*
X175268996Y-111261118D01*
X175324996Y-111356538D01*
X175389081Y-111466250D01*
X175459796Y-111587734D01*
X175535687Y-111718468D01*
X175615299Y-111855930D01*
X175697178Y-111997598D01*
X175779870Y-112140951D01*
X175861921Y-112283467D01*
X175941876Y-112422624D01*
X176018281Y-112555901D01*
X176089682Y-112680776D01*
X176154624Y-112794727D01*
X176211653Y-112895233D01*
X176259315Y-112979772D01*
X176296155Y-113045822D01*
X176320720Y-113090862D01*
X176331554Y-113112370D01*
X176331951Y-113113714D01*
X176318501Y-113131965D01*
X176281114Y-113159882D01*
X176224235Y-113194725D01*
X176152312Y-113233754D01*
X176077015Y-113270843D01*
X175974560Y-113315817D01*
X175866817Y-113356226D01*
X175750073Y-113392969D01*
X175620618Y-113426942D01*
X175474740Y-113459044D01*
X175308726Y-113490173D01*
X175118866Y-113521227D01*
X174922469Y-113550145D01*
X174751834Y-113575800D01*
X174608545Y-113601198D01*
X174489008Y-113627602D01*
X174389630Y-113656273D01*
X174306818Y-113688473D01*
X174236978Y-113725465D01*
X174176518Y-113768512D01*
X174121845Y-113818875D01*
X174104214Y-113837583D01*
X174066000Y-113881139D01*
X174037732Y-113916682D01*
X174024618Y-113937583D01*
X174024268Y-113939297D01*
X174019680Y-113949806D01*
X174003758Y-113949924D01*
X173973266Y-113938254D01*
X173924968Y-113913396D01*
X173855627Y-113873952D01*
X173807439Y-113845587D01*
X173735583Y-113801247D01*
X173679742Y-113763279D01*
X173643667Y-113734416D01*
X173631113Y-113717388D01*
X173631121Y-113717264D01*
X173638906Y-113701037D01*
X173660892Y-113660400D01*
X173695803Y-113597567D01*
X173742363Y-113514752D01*
X173799295Y-113414172D01*
X173865323Y-113298040D01*
X173939172Y-113168571D01*
X174019564Y-113027980D01*
X174105224Y-112878482D01*
X174194876Y-112722292D01*
X174287243Y-112561624D01*
X174381049Y-112398693D01*
X174475018Y-112235713D01*
X174567874Y-112074900D01*
X174658340Y-111918468D01*
X174745141Y-111768633D01*
X174827000Y-111627608D01*
X174902641Y-111497609D01*
X174970787Y-111380849D01*
X175030163Y-111279545D01*
X175079493Y-111195911D01*
X175117500Y-111132162D01*
X175142907Y-111090511D01*
X175154440Y-111073175D01*
X175154923Y-111072805D01*
X175164043Y-111085835D01*
G36*
X176987528Y-114234619D02*
X176998908Y-114253693D01*
X177024488Y-114297421D01*
X177063002Y-114363619D01*
X177113186Y-114450102D01*
X177173775Y-114554685D01*
X177243503Y-114675183D01*
X177321107Y-114809412D01*
X177405320Y-114955187D01*
X177494879Y-115110323D01*
X177586998Y-115270000D01*
X177681076Y-115433117D01*
X177771402Y-115589709D01*
X177856665Y-115737506D01*
X177935557Y-115874240D01*
X178006769Y-115997642D01*
X178068991Y-116105444D01*
X178120913Y-116195377D01*
X178161228Y-116265173D01*
X178188624Y-116312564D01*
X178201507Y-116334786D01*
X178222507Y-116372330D01*
X178233925Y-116395831D01*
X178234551Y-116399920D01*
X178220636Y-116392242D01*
X178181941Y-116370203D01*
X178120487Y-116334971D01*
X178038298Y-116287711D01*
X177937396Y-116229589D01*
X177819805Y-116161771D01*
X177687546Y-116085424D01*
X177542642Y-116001714D01*
X177387117Y-115911806D01*
X177222992Y-115816867D01*
X177160549Y-115780732D01*
X176993487Y-115684083D01*
X176834074Y-115591938D01*
X176684355Y-115505475D01*
X176546376Y-115425871D01*
X176422185Y-115354305D01*
X176313827Y-115291955D01*
X176223348Y-115239998D01*
X176152796Y-115199613D01*
X176104215Y-115171978D01*
X176079654Y-115158272D01*
X176077085Y-115156974D01*
X176084569Y-115145220D01*
X176110614Y-115113795D01*
X176152559Y-115065594D01*
X176207746Y-115003510D01*
X176273517Y-114930439D01*
X176347212Y-114849276D01*
X176426173Y-114762916D01*
X176507740Y-114674253D01*
X176589254Y-114586182D01*
X176668057Y-114501599D01*
X176741490Y-114423397D01*
X176806893Y-114354472D01*
X176861608Y-114297719D01*
X176902977Y-114256032D01*
X176917164Y-114242363D01*
X176964180Y-114198201D01*
X176987528Y-114234619D01*
X176987528Y-114234619D01*
G37*
X176987528Y-114234619D02*
X176998908Y-114253693D01*
X177024488Y-114297421D01*
X177063002Y-114363619D01*
X177113186Y-114450102D01*
X177173775Y-114554685D01*
X177243503Y-114675183D01*
X177321107Y-114809412D01*
X177405320Y-114955187D01*
X177494879Y-115110323D01*
X177586998Y-115270000D01*
X177681076Y-115433117D01*
X177771402Y-115589709D01*
X177856665Y-115737506D01*
X177935557Y-115874240D01*
X178006769Y-115997642D01*
X178068991Y-116105444D01*
X178120913Y-116195377D01*
X178161228Y-116265173D01*
X178188624Y-116312564D01*
X178201507Y-116334786D01*
X178222507Y-116372330D01*
X178233925Y-116395831D01*
X178234551Y-116399920D01*
X178220636Y-116392242D01*
X178181941Y-116370203D01*
X178120487Y-116334971D01*
X178038298Y-116287711D01*
X177937396Y-116229589D01*
X177819805Y-116161771D01*
X177687546Y-116085424D01*
X177542642Y-116001714D01*
X177387117Y-115911806D01*
X177222992Y-115816867D01*
X177160549Y-115780732D01*
X176993487Y-115684083D01*
X176834074Y-115591938D01*
X176684355Y-115505475D01*
X176546376Y-115425871D01*
X176422185Y-115354305D01*
X176313827Y-115291955D01*
X176223348Y-115239998D01*
X176152796Y-115199613D01*
X176104215Y-115171978D01*
X176079654Y-115158272D01*
X176077085Y-115156974D01*
X176084569Y-115145220D01*
X176110614Y-115113795D01*
X176152559Y-115065594D01*
X176207746Y-115003510D01*
X176273517Y-114930439D01*
X176347212Y-114849276D01*
X176426173Y-114762916D01*
X176507740Y-114674253D01*
X176589254Y-114586182D01*
X176668057Y-114501599D01*
X176741490Y-114423397D01*
X176806893Y-114354472D01*
X176861608Y-114297719D01*
X176902977Y-114256032D01*
X176917164Y-114242363D01*
X176964180Y-114198201D01*
X176987528Y-114234619D01*
G36*
X173322094Y-114291158D02*
X173354619Y-114303736D01*
X173404193Y-114328712D01*
X173475374Y-114367876D01*
X173480916Y-114370988D01*
X173546474Y-114408476D01*
X173601798Y-114441319D01*
X173641455Y-114466205D01*
X173660012Y-114479820D01*
X173660531Y-114480487D01*
X173656048Y-114499390D01*
X173635486Y-114541605D01*
X173600183Y-114604832D01*
X173551480Y-114686772D01*
X173490718Y-114785122D01*
X173419236Y-114897585D01*
X173401445Y-114925165D01*
X173355093Y-115001699D01*
X173321342Y-115067556D01*
X173303153Y-115116782D01*
X173301286Y-115126507D01*
X173302115Y-115169312D01*
X173311394Y-115237209D01*
X173327968Y-115325843D01*
X173350680Y-115430859D01*
X173378373Y-115547902D01*
X173409890Y-115672616D01*
X173444075Y-115800645D01*
X173479771Y-115927634D01*
X173515821Y-116049228D01*
X173551068Y-116161072D01*
X173584356Y-116258810D01*
X173614528Y-116338087D01*
X173635561Y-116385122D01*
X173660337Y-116435225D01*
X173683730Y-116483168D01*
X173684997Y-116485793D01*
X173723699Y-116534220D01*
X173780184Y-116566828D01*
X173845939Y-116582454D01*
X173912451Y-116579937D01*
X173971205Y-116558114D01*
X174004258Y-116529382D01*
X174051859Y-116450583D01*
X174086739Y-116352378D01*
X174105877Y-116244779D01*
X174108588Y-116183780D01*
X174097670Y-116069935D01*
X174065624Y-115975660D01*
X174010726Y-115896379D01*
X173993607Y-115878733D01*
X173942661Y-115829235D01*
X173939163Y-115479362D01*
X173935664Y-115129489D01*
X174024818Y-114994531D01*
X174066654Y-114933445D01*
X174106945Y-114878493D01*
X174139943Y-114837336D01*
X174154126Y-114822192D01*
X174194281Y-114784810D01*
X174248665Y-114814098D01*
X174283039Y-114835084D01*
X174301846Y-114851378D01*
X174303049Y-114854307D01*
X174315903Y-114866728D01*
X174337896Y-114875977D01*
X174359150Y-114884313D01*
X174391694Y-114900149D01*
X174438322Y-114925033D01*
X174501829Y-114960509D01*
X174585008Y-115008123D01*
X174690653Y-115069422D01*
X174748062Y-115102932D01*
X174815594Y-115143071D01*
X174859885Y-115171659D01*
X174884855Y-115192039D01*
X174894423Y-115207553D01*
X174892508Y-115221546D01*
X174890911Y-115224796D01*
X174875376Y-115245266D01*
X174842136Y-115283665D01*
X174795062Y-115335696D01*
X174738028Y-115397066D01*
X174688700Y-115449090D01*
X174575030Y-115572567D01*
X174486105Y-115679591D01*
X174421134Y-115771240D01*
X174379321Y-115848588D01*
X174365217Y-115887866D01*
X174359392Y-115922249D01*
X174353375Y-115980899D01*
X174347696Y-116057117D01*
X174342884Y-116144202D01*
X174340619Y-116199268D01*
X174337459Y-116294464D01*
X174336069Y-116364062D01*
X174336858Y-116413409D01*
X174340235Y-116447854D01*
X174346608Y-116472743D01*
X174356387Y-116493425D01*
X174364067Y-116506053D01*
X174408421Y-116554726D01*
X174465574Y-116588645D01*
X174525708Y-116603438D01*
X174570773Y-116598086D01*
X174611576Y-116574930D01*
X174662724Y-116533462D01*
X174717042Y-116480912D01*
X174767357Y-116424516D01*
X174806494Y-116371505D01*
X174820905Y-116345889D01*
X174842491Y-116310814D01*
X174881753Y-116257389D01*
X174935102Y-116189789D01*
X174998952Y-116112190D01*
X175069715Y-116028768D01*
X175143804Y-115943698D01*
X175217632Y-115861155D01*
X175287611Y-115785316D01*
X175350155Y-115720356D01*
X175399260Y-115672669D01*
X175453779Y-115625032D01*
X175499642Y-115589908D01*
X175531811Y-115570949D01*
X175542489Y-115568864D01*
X175558853Y-115577274D01*
X175599671Y-115599846D01*
X175662586Y-115635224D01*
X175745244Y-115682054D01*
X175845289Y-115738981D01*
X175960366Y-115804649D01*
X176088119Y-115877703D01*
X176226194Y-115956788D01*
X176372234Y-116040548D01*
X176523884Y-116127629D01*
X176678790Y-116216676D01*
X176834595Y-116306332D01*
X176988944Y-116395243D01*
X177139482Y-116482054D01*
X177283854Y-116565409D01*
X177419704Y-116643954D01*
X177544677Y-116716333D01*
X177656417Y-116781190D01*
X177752570Y-116837171D01*
X177830779Y-116882920D01*
X177888689Y-116917083D01*
X177923946Y-116938304D01*
X177934165Y-116944963D01*
X177920402Y-116946280D01*
X177877104Y-116947559D01*
X177805714Y-116948796D01*
X177707673Y-116949983D01*
X177584422Y-116951115D01*
X177437403Y-116952186D01*
X177268057Y-116953189D01*
X177077826Y-116954119D01*
X176868151Y-116954968D01*
X176640473Y-116955732D01*
X176396235Y-116956403D01*
X176136877Y-116956976D01*
X175863841Y-116957444D01*
X175578568Y-116957802D01*
X175282500Y-116958042D01*
X174977079Y-116958159D01*
X174848924Y-116958171D01*
X171748970Y-116958171D01*
X171970053Y-116574847D01*
X172016856Y-116493680D01*
X172077102Y-116389166D01*
X172148778Y-116264801D01*
X172229869Y-116124082D01*
X172318362Y-115970503D01*
X172412240Y-115807562D01*
X172509491Y-115638754D01*
X172608100Y-115467575D01*
X172706053Y-115297521D01*
X172730825Y-115254512D01*
X172821152Y-115097857D01*
X172907289Y-114948803D01*
X172987942Y-114809568D01*
X173061816Y-114682371D01*
X173127617Y-114569432D01*
X173184050Y-114472968D01*
X173229821Y-114395200D01*
X173263635Y-114338346D01*
X173284198Y-114304625D01*
X173289953Y-114296040D01*
X173302058Y-114289189D01*
X173322094Y-114291158D01*
X173322094Y-114291158D01*
G37*
X173322094Y-114291158D02*
X173354619Y-114303736D01*
X173404193Y-114328712D01*
X173475374Y-114367876D01*
X173480916Y-114370988D01*
X173546474Y-114408476D01*
X173601798Y-114441319D01*
X173641455Y-114466205D01*
X173660012Y-114479820D01*
X173660531Y-114480487D01*
X173656048Y-114499390D01*
X173635486Y-114541605D01*
X173600183Y-114604832D01*
X173551480Y-114686772D01*
X173490718Y-114785122D01*
X173419236Y-114897585D01*
X173401445Y-114925165D01*
X173355093Y-115001699D01*
X173321342Y-115067556D01*
X173303153Y-115116782D01*
X173301286Y-115126507D01*
X173302115Y-115169312D01*
X173311394Y-115237209D01*
X173327968Y-115325843D01*
X173350680Y-115430859D01*
X173378373Y-115547902D01*
X173409890Y-115672616D01*
X173444075Y-115800645D01*
X173479771Y-115927634D01*
X173515821Y-116049228D01*
X173551068Y-116161072D01*
X173584356Y-116258810D01*
X173614528Y-116338087D01*
X173635561Y-116385122D01*
X173660337Y-116435225D01*
X173683730Y-116483168D01*
X173684997Y-116485793D01*
X173723699Y-116534220D01*
X173780184Y-116566828D01*
X173845939Y-116582454D01*
X173912451Y-116579937D01*
X173971205Y-116558114D01*
X174004258Y-116529382D01*
X174051859Y-116450583D01*
X174086739Y-116352378D01*
X174105877Y-116244779D01*
X174108588Y-116183780D01*
X174097670Y-116069935D01*
X174065624Y-115975660D01*
X174010726Y-115896379D01*
X173993607Y-115878733D01*
X173942661Y-115829235D01*
X173939163Y-115479362D01*
X173935664Y-115129489D01*
X174024818Y-114994531D01*
X174066654Y-114933445D01*
X174106945Y-114878493D01*
X174139943Y-114837336D01*
X174154126Y-114822192D01*
X174194281Y-114784810D01*
X174248665Y-114814098D01*
X174283039Y-114835084D01*
X174301846Y-114851378D01*
X174303049Y-114854307D01*
X174315903Y-114866728D01*
X174337896Y-114875977D01*
X174359150Y-114884313D01*
X174391694Y-114900149D01*
X174438322Y-114925033D01*
X174501829Y-114960509D01*
X174585008Y-115008123D01*
X174690653Y-115069422D01*
X174748062Y-115102932D01*
X174815594Y-115143071D01*
X174859885Y-115171659D01*
X174884855Y-115192039D01*
X174894423Y-115207553D01*
X174892508Y-115221546D01*
X174890911Y-115224796D01*
X174875376Y-115245266D01*
X174842136Y-115283665D01*
X174795062Y-115335696D01*
X174738028Y-115397066D01*
X174688700Y-115449090D01*
X174575030Y-115572567D01*
X174486105Y-115679591D01*
X174421134Y-115771240D01*
X174379321Y-115848588D01*
X174365217Y-115887866D01*
X174359392Y-115922249D01*
X174353375Y-115980899D01*
X174347696Y-116057117D01*
X174342884Y-116144202D01*
X174340619Y-116199268D01*
X174337459Y-116294464D01*
X174336069Y-116364062D01*
X174336858Y-116413409D01*
X174340235Y-116447854D01*
X174346608Y-116472743D01*
X174356387Y-116493425D01*
X174364067Y-116506053D01*
X174408421Y-116554726D01*
X174465574Y-116588645D01*
X174525708Y-116603438D01*
X174570773Y-116598086D01*
X174611576Y-116574930D01*
X174662724Y-116533462D01*
X174717042Y-116480912D01*
X174767357Y-116424516D01*
X174806494Y-116371505D01*
X174820905Y-116345889D01*
X174842491Y-116310814D01*
X174881753Y-116257389D01*
X174935102Y-116189789D01*
X174998952Y-116112190D01*
X175069715Y-116028768D01*
X175143804Y-115943698D01*
X175217632Y-115861155D01*
X175287611Y-115785316D01*
X175350155Y-115720356D01*
X175399260Y-115672669D01*
X175453779Y-115625032D01*
X175499642Y-115589908D01*
X175531811Y-115570949D01*
X175542489Y-115568864D01*
X175558853Y-115577274D01*
X175599671Y-115599846D01*
X175662586Y-115635224D01*
X175745244Y-115682054D01*
X175845289Y-115738981D01*
X175960366Y-115804649D01*
X176088119Y-115877703D01*
X176226194Y-115956788D01*
X176372234Y-116040548D01*
X176523884Y-116127629D01*
X176678790Y-116216676D01*
X176834595Y-116306332D01*
X176988944Y-116395243D01*
X177139482Y-116482054D01*
X177283854Y-116565409D01*
X177419704Y-116643954D01*
X177544677Y-116716333D01*
X177656417Y-116781190D01*
X177752570Y-116837171D01*
X177830779Y-116882920D01*
X177888689Y-116917083D01*
X177923946Y-116938304D01*
X177934165Y-116944963D01*
X177920402Y-116946280D01*
X177877104Y-116947559D01*
X177805714Y-116948796D01*
X177707673Y-116949983D01*
X177584422Y-116951115D01*
X177437403Y-116952186D01*
X177268057Y-116953189D01*
X177077826Y-116954119D01*
X176868151Y-116954968D01*
X176640473Y-116955732D01*
X176396235Y-116956403D01*
X176136877Y-116956976D01*
X175863841Y-116957444D01*
X175578568Y-116957802D01*
X175282500Y-116958042D01*
X174977079Y-116958159D01*
X174848924Y-116958171D01*
X171748970Y-116958171D01*
X171970053Y-116574847D01*
X172016856Y-116493680D01*
X172077102Y-116389166D01*
X172148778Y-116264801D01*
X172229869Y-116124082D01*
X172318362Y-115970503D01*
X172412240Y-115807562D01*
X172509491Y-115638754D01*
X172608100Y-115467575D01*
X172706053Y-115297521D01*
X172730825Y-115254512D01*
X172821152Y-115097857D01*
X172907289Y-114948803D01*
X172987942Y-114809568D01*
X173061816Y-114682371D01*
X173127617Y-114569432D01*
X173184050Y-114472968D01*
X173229821Y-114395200D01*
X173263635Y-114338346D01*
X173284198Y-114304625D01*
X173289953Y-114296040D01*
X173302058Y-114289189D01*
X173322094Y-114291158D01*
G36*
X170124430Y-111064848D02*
X170123811Y-111151931D01*
X169672086Y-111610891D01*
X169220361Y-112069852D01*
X169220032Y-112280471D01*
X169219703Y-112491089D01*
X168944610Y-112491089D01*
X168937522Y-112544530D01*
X168934838Y-112568888D01*
X168930313Y-112614759D01*
X168924191Y-112679405D01*
X168916712Y-112760091D01*
X168908119Y-112854081D01*
X168898654Y-112958637D01*
X168888558Y-113071025D01*
X168878074Y-113188507D01*
X168867444Y-113308348D01*
X168856909Y-113427811D01*
X168846713Y-113544159D01*
X168837095Y-113654657D01*
X168828300Y-113756569D01*
X168820568Y-113847158D01*
X168814142Y-113923687D01*
X168809263Y-113983421D01*
X168806175Y-114023624D01*
X168805117Y-114041559D01*
X168805118Y-114041644D01*
X168812827Y-114056035D01*
X168835981Y-114085748D01*
X168874895Y-114131131D01*
X168929884Y-114192529D01*
X169001264Y-114270288D01*
X169089349Y-114364754D01*
X169194454Y-114476272D01*
X169316895Y-114605188D01*
X169351310Y-114641287D01*
X169897137Y-115213416D01*
X169808881Y-115301436D01*
X169737485Y-115223758D01*
X169711366Y-115195686D01*
X169670566Y-115152274D01*
X169617777Y-115096366D01*
X169555691Y-115030808D01*
X169487000Y-114958441D01*
X169414396Y-114882112D01*
X169370960Y-114836524D01*
X169289416Y-114751119D01*
X169223504Y-114682710D01*
X169171544Y-114630053D01*
X169131855Y-114591905D01*
X169102757Y-114567020D01*
X169082569Y-114554156D01*
X169069610Y-114552068D01*
X169062200Y-114559513D01*
X169058658Y-114575246D01*
X169057303Y-114598023D01*
X169057121Y-114604239D01*
X169047703Y-114647061D01*
X169024497Y-114698819D01*
X168992136Y-114751328D01*
X168955252Y-114796403D01*
X168940493Y-114810328D01*
X168864767Y-114859047D01*
X168776308Y-114886306D01*
X168698100Y-114892773D01*
X168609468Y-114880576D01*
X168527612Y-114844813D01*
X168455164Y-114786722D01*
X168441797Y-114772262D01*
X168392918Y-114716733D01*
X167547326Y-114716733D01*
X167547326Y-114892773D01*
X167320990Y-114892773D01*
X167320990Y-114810531D01*
X167318150Y-114754386D01*
X167308607Y-114715416D01*
X167297009Y-114694219D01*
X167288723Y-114679052D01*
X167281627Y-114657062D01*
X167275252Y-114624987D01*
X167269128Y-114579569D01*
X167262784Y-114517548D01*
X167255750Y-114435662D01*
X167250934Y-114374746D01*
X167228839Y-114089343D01*
X166686435Y-114638805D01*
X166588363Y-114738228D01*
X166494216Y-114833815D01*
X166405715Y-114923810D01*
X166324580Y-115006457D01*
X166252531Y-115080001D01*
X166191288Y-115142684D01*
X166142573Y-115192752D01*
X166108104Y-115228448D01*
X166089621Y-115247995D01*
X166059257Y-115278944D01*
X166033929Y-115300530D01*
X166020305Y-115307723D01*
X166002905Y-115299297D01*
X165977540Y-115278245D01*
X165968942Y-115269671D01*
X165932486Y-115231620D01*
X166133198Y-115027658D01*
X166184404Y-114975699D01*
X166250431Y-114908820D01*
X166328382Y-114829950D01*
X166415362Y-114742014D01*
X166508474Y-114647941D01*
X166604821Y-114550658D01*
X166701508Y-114453093D01*
X166770866Y-114383145D01*
X166876297Y-114276550D01*
X166964871Y-114186307D01*
X167037719Y-114111192D01*
X167095977Y-114049986D01*
X167140775Y-114001466D01*
X167162979Y-113976129D01*
X167341276Y-113976129D01*
X167363599Y-114261555D01*
X167370331Y-114345219D01*
X167376843Y-114421727D01*
X167382766Y-114487081D01*
X167387732Y-114537281D01*
X167391371Y-114568329D01*
X167392542Y-114575273D01*
X167399162Y-114603565D01*
X168348636Y-114603565D01*
X168354974Y-114524606D01*
X168374110Y-114431315D01*
X168414154Y-114348791D01*
X168472582Y-114280038D01*
X168546871Y-114228063D01*
X168630252Y-114196863D01*
X168657302Y-114182228D01*
X168670844Y-114150819D01*
X168671128Y-114149434D01*
X168672753Y-114136174D01*
X168670744Y-114122595D01*
X168663142Y-114106181D01*
X168647984Y-114084411D01*
X168623312Y-114054767D01*
X168587164Y-114014732D01*
X168537580Y-113961785D01*
X168472599Y-113893409D01*
X168468401Y-113889005D01*
X168398507Y-113815611D01*
X168324200Y-113737437D01*
X168250586Y-113659864D01*
X168182771Y-113588275D01*
X168125860Y-113528051D01*
X168113168Y-113514587D01*
X168064513Y-113463820D01*
X168021291Y-113420375D01*
X167986605Y-113387241D01*
X167963556Y-113367405D01*
X167955818Y-113363046D01*
X167944278Y-113372170D01*
X167917290Y-113397200D01*
X167876979Y-113436052D01*
X167825471Y-113486643D01*
X167764891Y-113546888D01*
X167697364Y-113614704D01*
X167642174Y-113670565D01*
X167341276Y-113976129D01*
X167162979Y-113976129D01*
X167173249Y-113964411D01*
X167194529Y-113937599D01*
X167205749Y-113919808D01*
X167208246Y-113911570D01*
X167207300Y-113893590D01*
X167204427Y-113852892D01*
X167199813Y-113791819D01*
X167193642Y-113712713D01*
X167186102Y-113617914D01*
X167177379Y-113509767D01*
X167167657Y-113390612D01*
X167157124Y-113262791D01*
X167148635Y-113160635D01*
X167100604Y-112584674D01*
X167224195Y-112584674D01*
X167224727Y-112597104D01*
X167227231Y-112632110D01*
X167231504Y-112687215D01*
X167237347Y-112759943D01*
X167244557Y-112847814D01*
X167252934Y-112948351D01*
X167262277Y-113059077D01*
X167271242Y-113164205D01*
X167281398Y-113283483D01*
X167290858Y-113396080D01*
X167299404Y-113499305D01*
X167306821Y-113590473D01*
X167312892Y-113666895D01*
X167317399Y-113725883D01*
X167320127Y-113764749D01*
X167320884Y-113779844D01*
X167322065Y-113789238D01*
X167326744Y-113792966D01*
X167336724Y-113789471D01*
X167353810Y-113777199D01*
X167379804Y-113754594D01*
X167416510Y-113720100D01*
X167465733Y-113672162D01*
X167529274Y-113609224D01*
X167596695Y-113541968D01*
X167872399Y-113266477D01*
X167870467Y-113264406D01*
X168052710Y-113264406D01*
X168061016Y-113275780D01*
X168084267Y-113302563D01*
X168120135Y-113342292D01*
X168166287Y-113392507D01*
X168220394Y-113450746D01*
X168280126Y-113514547D01*
X168343152Y-113581449D01*
X168407142Y-113648990D01*
X168469764Y-113714710D01*
X168528690Y-113776146D01*
X168581588Y-113830837D01*
X168626128Y-113876322D01*
X168659980Y-113910138D01*
X168680812Y-113929826D01*
X168686494Y-113933837D01*
X168688366Y-113920891D01*
X168692254Y-113885134D01*
X168697943Y-113828804D01*
X168705219Y-113754140D01*
X168713869Y-113663380D01*
X168723678Y-113558762D01*
X168734434Y-113442526D01*
X168745921Y-113316908D01*
X168755093Y-113215618D01*
X168766826Y-113084279D01*
X168777665Y-112960552D01*
X168787430Y-112846681D01*
X168795937Y-112744911D01*
X168803005Y-112657487D01*
X168808451Y-112586653D01*
X168812092Y-112534653D01*
X168813747Y-112503732D01*
X168813558Y-112495703D01*
X168803666Y-112502854D01*
X168778476Y-112525841D01*
X168740190Y-112562439D01*
X168691011Y-112610422D01*
X168633139Y-112667566D01*
X168568778Y-112731647D01*
X168500129Y-112800438D01*
X168429395Y-112871716D01*
X168358778Y-112943255D01*
X168290480Y-113012830D01*
X168226704Y-113078217D01*
X168169650Y-113137191D01*
X168121522Y-113187527D01*
X168084522Y-113226999D01*
X168060852Y-113253383D01*
X168052710Y-113264406D01*
X167870467Y-113264406D01*
X167769591Y-113156295D01*
X167717232Y-113100377D01*
X167658465Y-113037948D01*
X167595615Y-112971443D01*
X167531005Y-112903298D01*
X167466958Y-112835948D01*
X167405797Y-112771828D01*
X167349847Y-112713372D01*
X167301430Y-112663018D01*
X167262870Y-112623198D01*
X167236491Y-112596350D01*
X167224616Y-112584908D01*
X167224195Y-112584674D01*
X167100604Y-112584674D01*
X167088599Y-112440726D01*
X166488062Y-111809158D01*
X165887525Y-111177589D01*
X165887966Y-111089315D01*
X165888408Y-111001040D01*
X165985417Y-111104666D01*
X166039709Y-111162463D01*
X166103808Y-111230368D01*
X166175984Y-111306572D01*
X166254508Y-111389269D01*
X166337651Y-111476653D01*
X166423681Y-111566915D01*
X166510870Y-111658250D01*
X166597487Y-111748849D01*
X166681803Y-111836907D01*
X166762088Y-111920615D01*
X166836613Y-111998167D01*
X166903646Y-112067757D01*
X166961459Y-112127576D01*
X167008321Y-112175818D01*
X167042504Y-112210676D01*
X167062276Y-112230343D01*
X167066610Y-112234116D01*
X167066908Y-112220992D01*
X167065269Y-112187389D01*
X167061977Y-112137880D01*
X167057318Y-112077037D01*
X167055318Y-112052732D01*
X167040423Y-111874951D01*
X167157045Y-111874951D01*
X167163066Y-111903243D01*
X167166137Y-111925618D01*
X167170452Y-111967717D01*
X167175512Y-112024178D01*
X167180819Y-112089635D01*
X167182656Y-112113862D01*
X167188073Y-112183421D01*
X167193541Y-112248018D01*
X167198512Y-112301548D01*
X167202439Y-112337910D01*
X167203325Y-112344509D01*
X167206666Y-112358056D01*
X167213899Y-112373914D01*
X167226560Y-112393861D01*
X167246189Y-112419673D01*
X167274322Y-112453129D01*
X167312498Y-112496007D01*
X167362254Y-112550083D01*
X167425129Y-112617136D01*
X167502659Y-112698943D01*
X167581749Y-112781950D01*
X167660436Y-112864094D01*
X167733888Y-112940169D01*
X167800276Y-113008325D01*
X167857773Y-113066712D01*
X167904549Y-113113481D01*
X167938776Y-113146782D01*
X167958627Y-113164767D01*
X167962860Y-113167442D01*
X167973997Y-113157741D01*
X168000029Y-113132441D01*
X168038430Y-113094082D01*
X168086672Y-113045200D01*
X168142230Y-112988334D01*
X168182408Y-112946906D01*
X168392169Y-112730000D01*
X167773663Y-112730000D01*
X167773663Y-112491089D01*
X168528119Y-112491089D01*
X168528119Y-112597542D01*
X168666435Y-112459654D01*
X168764553Y-112361840D01*
X168955643Y-112361840D01*
X168957471Y-112377270D01*
X168966723Y-112385867D01*
X168989050Y-112389613D01*
X169030105Y-112390489D01*
X169037376Y-112390495D01*
X169119109Y-112390495D01*
X169119109Y-112171172D01*
X169037376Y-112252179D01*
X168991270Y-112301428D01*
X168963694Y-112339159D01*
X168955643Y-112361840D01*
X168764553Y-112361840D01*
X168804752Y-112321766D01*
X168804752Y-112198952D01*
X168805137Y-112142450D01*
X168806900Y-112106505D01*
X168810950Y-112086530D01*
X168818199Y-112077937D01*
X168829130Y-112076139D01*
X168841288Y-112073498D01*
X168850273Y-112062912D01*
X168857174Y-112040381D01*
X168863076Y-112001909D01*
X168869065Y-111943498D01*
X168870987Y-111922104D01*
X168875148Y-111874951D01*
X167157045Y-111874951D01*
X167040423Y-111874951D01*
X166880891Y-111874951D01*
X166880891Y-111761782D01*
X166948686Y-111761782D01*
X166988338Y-111760696D01*
X167009884Y-111755454D01*
X167012520Y-111752334D01*
X167151384Y-111752334D01*
X167158692Y-111759462D01*
X167184007Y-111761662D01*
X167201092Y-111761782D01*
X167258119Y-111761782D01*
X167470779Y-111761782D01*
X168885302Y-111761782D01*
X168837458Y-111712786D01*
X168763150Y-111652324D01*
X168671184Y-111605691D01*
X168560002Y-111572249D01*
X168449529Y-111553753D01*
X168377227Y-111545122D01*
X168377227Y-111636040D01*
X167798812Y-111636040D01*
X167798812Y-111532893D01*
X167713935Y-111541496D01*
X167654632Y-111548756D01*
X167591449Y-111558379D01*
X167553614Y-111565252D01*
X167478168Y-111580407D01*
X167474474Y-111671095D01*
X167470779Y-111761782D01*
X167258119Y-111761782D01*
X167258119Y-111711485D01*
X167256456Y-111679976D01*
X167252303Y-111662463D01*
X167250629Y-111661188D01*
X167232013Y-111669254D01*
X167204817Y-111688820D01*
X167177552Y-111712944D01*
X167158733Y-111734682D01*
X167157057Y-111737508D01*
X167151384Y-111752334D01*
X167012520Y-111752334D01*
X167020338Y-111743081D01*
X167024558Y-111729604D01*
X167041781Y-111694627D01*
X167074862Y-111652579D01*
X167118107Y-111609356D01*
X167165826Y-111570854D01*
X167197170Y-111550801D01*
X167232877Y-111528851D01*
X167251181Y-111510411D01*
X167257612Y-111488668D01*
X167258106Y-111475718D01*
X167258106Y-111472575D01*
X167899406Y-111472575D01*
X167899406Y-111535446D01*
X168276633Y-111535446D01*
X168276633Y-111472575D01*
X167899406Y-111472575D01*
X167258106Y-111472575D01*
X167258119Y-111434852D01*
X167363952Y-111434852D01*
X167412645Y-111436029D01*
X167450595Y-111439165D01*
X167471692Y-111443671D01*
X167473977Y-111445495D01*
X167487359Y-111448295D01*
X167519926Y-111447148D01*
X167566084Y-111442393D01*
X167597624Y-111438003D01*
X167654812Y-111429378D01*
X167707114Y-111421591D01*
X167746418Y-111415847D01*
X167757945Y-111414215D01*
X167788063Y-111404888D01*
X167798812Y-111390272D01*
X167802080Y-111384320D01*
X167813770Y-111379778D01*
X167836712Y-111376470D01*
X167873735Y-111374215D01*
X167927668Y-111372834D01*
X168001340Y-111372150D01*
X168088020Y-111371980D01*
X168180529Y-111372077D01*
X168250906Y-111372530D01*
X168302164Y-111373590D01*
X168337320Y-111375503D01*
X168359389Y-111378519D01*
X168371385Y-111382885D01*
X168376324Y-111388849D01*
X168377227Y-111395784D01*
X168384921Y-111417795D01*
X168410121Y-111430321D01*
X168456009Y-111434788D01*
X168464264Y-111434852D01*
X168541973Y-111442868D01*
X168630233Y-111464936D01*
X168721085Y-111498084D01*
X168806570Y-111539339D01*
X168878726Y-111585731D01*
X168888072Y-111593082D01*
X168918533Y-111616998D01*
X168936572Y-111626576D01*
X168949169Y-111623480D01*
X168962100Y-111610704D01*
X169000293Y-111585678D01*
X169049998Y-111576071D01*
X169103524Y-111581067D01*
X169153178Y-111599851D01*
X169191267Y-111631606D01*
X169194025Y-111635297D01*
X169222526Y-111694575D01*
X169227828Y-111755934D01*
X169210518Y-111814427D01*
X169171180Y-111865104D01*
X169166370Y-111869289D01*
X169138440Y-111889167D01*
X169110102Y-111897921D01*
X169070263Y-111898553D01*
X169060311Y-111897992D01*
X169021332Y-111896562D01*
X169001254Y-111899839D01*
X168993985Y-111909728D01*
X168993240Y-111918961D01*
X168991716Y-111945744D01*
X168987935Y-111986025D01*
X168985218Y-112010124D01*
X168981277Y-112048401D01*
X168982916Y-112067996D01*
X168992421Y-112075158D01*
X169009351Y-112076139D01*
X169019392Y-112072901D01*
X169035590Y-112062420D01*
X169059145Y-112043548D01*
X169091257Y-112015135D01*
X169133128Y-111976035D01*
X169185957Y-111925097D01*
X169250945Y-111861173D01*
X169329291Y-111783114D01*
X169422197Y-111689772D01*
X169530863Y-111579998D01*
X169583231Y-111526952D01*
X170125049Y-110977767D01*
X170124430Y-111064848D01*
X170124430Y-111064848D01*
G37*
X170124430Y-111064848D02*
X170123811Y-111151931D01*
X169672086Y-111610891D01*
X169220361Y-112069852D01*
X169220032Y-112280471D01*
X169219703Y-112491089D01*
X168944610Y-112491089D01*
X168937522Y-112544530D01*
X168934838Y-112568888D01*
X168930313Y-112614759D01*
X168924191Y-112679405D01*
X168916712Y-112760091D01*
X168908119Y-112854081D01*
X168898654Y-112958637D01*
X168888558Y-113071025D01*
X168878074Y-113188507D01*
X168867444Y-113308348D01*
X168856909Y-113427811D01*
X168846713Y-113544159D01*
X168837095Y-113654657D01*
X168828300Y-113756569D01*
X168820568Y-113847158D01*
X168814142Y-113923687D01*
X168809263Y-113983421D01*
X168806175Y-114023624D01*
X168805117Y-114041559D01*
X168805118Y-114041644D01*
X168812827Y-114056035D01*
X168835981Y-114085748D01*
X168874895Y-114131131D01*
X168929884Y-114192529D01*
X169001264Y-114270288D01*
X169089349Y-114364754D01*
X169194454Y-114476272D01*
X169316895Y-114605188D01*
X169351310Y-114641287D01*
X169897137Y-115213416D01*
X169808881Y-115301436D01*
X169737485Y-115223758D01*
X169711366Y-115195686D01*
X169670566Y-115152274D01*
X169617777Y-115096366D01*
X169555691Y-115030808D01*
X169487000Y-114958441D01*
X169414396Y-114882112D01*
X169370960Y-114836524D01*
X169289416Y-114751119D01*
X169223504Y-114682710D01*
X169171544Y-114630053D01*
X169131855Y-114591905D01*
X169102757Y-114567020D01*
X169082569Y-114554156D01*
X169069610Y-114552068D01*
X169062200Y-114559513D01*
X169058658Y-114575246D01*
X169057303Y-114598023D01*
X169057121Y-114604239D01*
X169047703Y-114647061D01*
X169024497Y-114698819D01*
X168992136Y-114751328D01*
X168955252Y-114796403D01*
X168940493Y-114810328D01*
X168864767Y-114859047D01*
X168776308Y-114886306D01*
X168698100Y-114892773D01*
X168609468Y-114880576D01*
X168527612Y-114844813D01*
X168455164Y-114786722D01*
X168441797Y-114772262D01*
X168392918Y-114716733D01*
X167547326Y-114716733D01*
X167547326Y-114892773D01*
X167320990Y-114892773D01*
X167320990Y-114810531D01*
X167318150Y-114754386D01*
X167308607Y-114715416D01*
X167297009Y-114694219D01*
X167288723Y-114679052D01*
X167281627Y-114657062D01*
X167275252Y-114624987D01*
X167269128Y-114579569D01*
X167262784Y-114517548D01*
X167255750Y-114435662D01*
X167250934Y-114374746D01*
X167228839Y-114089343D01*
X166686435Y-114638805D01*
X166588363Y-114738228D01*
X166494216Y-114833815D01*
X166405715Y-114923810D01*
X166324580Y-115006457D01*
X166252531Y-115080001D01*
X166191288Y-115142684D01*
X166142573Y-115192752D01*
X166108104Y-115228448D01*
X166089621Y-115247995D01*
X166059257Y-115278944D01*
X166033929Y-115300530D01*
X166020305Y-115307723D01*
X166002905Y-115299297D01*
X165977540Y-115278245D01*
X165968942Y-115269671D01*
X165932486Y-115231620D01*
X166133198Y-115027658D01*
X166184404Y-114975699D01*
X166250431Y-114908820D01*
X166328382Y-114829950D01*
X166415362Y-114742014D01*
X166508474Y-114647941D01*
X166604821Y-114550658D01*
X166701508Y-114453093D01*
X166770866Y-114383145D01*
X166876297Y-114276550D01*
X166964871Y-114186307D01*
X167037719Y-114111192D01*
X167095977Y-114049986D01*
X167140775Y-114001466D01*
X167162979Y-113976129D01*
X167341276Y-113976129D01*
X167363599Y-114261555D01*
X167370331Y-114345219D01*
X167376843Y-114421727D01*
X167382766Y-114487081D01*
X167387732Y-114537281D01*
X167391371Y-114568329D01*
X167392542Y-114575273D01*
X167399162Y-114603565D01*
X168348636Y-114603565D01*
X168354974Y-114524606D01*
X168374110Y-114431315D01*
X168414154Y-114348791D01*
X168472582Y-114280038D01*
X168546871Y-114228063D01*
X168630252Y-114196863D01*
X168657302Y-114182228D01*
X168670844Y-114150819D01*
X168671128Y-114149434D01*
X168672753Y-114136174D01*
X168670744Y-114122595D01*
X168663142Y-114106181D01*
X168647984Y-114084411D01*
X168623312Y-114054767D01*
X168587164Y-114014732D01*
X168537580Y-113961785D01*
X168472599Y-113893409D01*
X168468401Y-113889005D01*
X168398507Y-113815611D01*
X168324200Y-113737437D01*
X168250586Y-113659864D01*
X168182771Y-113588275D01*
X168125860Y-113528051D01*
X168113168Y-113514587D01*
X168064513Y-113463820D01*
X168021291Y-113420375D01*
X167986605Y-113387241D01*
X167963556Y-113367405D01*
X167955818Y-113363046D01*
X167944278Y-113372170D01*
X167917290Y-113397200D01*
X167876979Y-113436052D01*
X167825471Y-113486643D01*
X167764891Y-113546888D01*
X167697364Y-113614704D01*
X167642174Y-113670565D01*
X167341276Y-113976129D01*
X167162979Y-113976129D01*
X167173249Y-113964411D01*
X167194529Y-113937599D01*
X167205749Y-113919808D01*
X167208246Y-113911570D01*
X167207300Y-113893590D01*
X167204427Y-113852892D01*
X167199813Y-113791819D01*
X167193642Y-113712713D01*
X167186102Y-113617914D01*
X167177379Y-113509767D01*
X167167657Y-113390612D01*
X167157124Y-113262791D01*
X167148635Y-113160635D01*
X167100604Y-112584674D01*
X167224195Y-112584674D01*
X167224727Y-112597104D01*
X167227231Y-112632110D01*
X167231504Y-112687215D01*
X167237347Y-112759943D01*
X167244557Y-112847814D01*
X167252934Y-112948351D01*
X167262277Y-113059077D01*
X167271242Y-113164205D01*
X167281398Y-113283483D01*
X167290858Y-113396080D01*
X167299404Y-113499305D01*
X167306821Y-113590473D01*
X167312892Y-113666895D01*
X167317399Y-113725883D01*
X167320127Y-113764749D01*
X167320884Y-113779844D01*
X167322065Y-113789238D01*
X167326744Y-113792966D01*
X167336724Y-113789471D01*
X167353810Y-113777199D01*
X167379804Y-113754594D01*
X167416510Y-113720100D01*
X167465733Y-113672162D01*
X167529274Y-113609224D01*
X167596695Y-113541968D01*
X167872399Y-113266477D01*
X167870467Y-113264406D01*
X168052710Y-113264406D01*
X168061016Y-113275780D01*
X168084267Y-113302563D01*
X168120135Y-113342292D01*
X168166287Y-113392507D01*
X168220394Y-113450746D01*
X168280126Y-113514547D01*
X168343152Y-113581449D01*
X168407142Y-113648990D01*
X168469764Y-113714710D01*
X168528690Y-113776146D01*
X168581588Y-113830837D01*
X168626128Y-113876322D01*
X168659980Y-113910138D01*
X168680812Y-113929826D01*
X168686494Y-113933837D01*
X168688366Y-113920891D01*
X168692254Y-113885134D01*
X168697943Y-113828804D01*
X168705219Y-113754140D01*
X168713869Y-113663380D01*
X168723678Y-113558762D01*
X168734434Y-113442526D01*
X168745921Y-113316908D01*
X168755093Y-113215618D01*
X168766826Y-113084279D01*
X168777665Y-112960552D01*
X168787430Y-112846681D01*
X168795937Y-112744911D01*
X168803005Y-112657487D01*
X168808451Y-112586653D01*
X168812092Y-112534653D01*
X168813747Y-112503732D01*
X168813558Y-112495703D01*
X168803666Y-112502854D01*
X168778476Y-112525841D01*
X168740190Y-112562439D01*
X168691011Y-112610422D01*
X168633139Y-112667566D01*
X168568778Y-112731647D01*
X168500129Y-112800438D01*
X168429395Y-112871716D01*
X168358778Y-112943255D01*
X168290480Y-113012830D01*
X168226704Y-113078217D01*
X168169650Y-113137191D01*
X168121522Y-113187527D01*
X168084522Y-113226999D01*
X168060852Y-113253383D01*
X168052710Y-113264406D01*
X167870467Y-113264406D01*
X167769591Y-113156295D01*
X167717232Y-113100377D01*
X167658465Y-113037948D01*
X167595615Y-112971443D01*
X167531005Y-112903298D01*
X167466958Y-112835948D01*
X167405797Y-112771828D01*
X167349847Y-112713372D01*
X167301430Y-112663018D01*
X167262870Y-112623198D01*
X167236491Y-112596350D01*
X167224616Y-112584908D01*
X167224195Y-112584674D01*
X167100604Y-112584674D01*
X167088599Y-112440726D01*
X166488062Y-111809158D01*
X165887525Y-111177589D01*
X165887966Y-111089315D01*
X165888408Y-111001040D01*
X165985417Y-111104666D01*
X166039709Y-111162463D01*
X166103808Y-111230368D01*
X166175984Y-111306572D01*
X166254508Y-111389269D01*
X166337651Y-111476653D01*
X166423681Y-111566915D01*
X166510870Y-111658250D01*
X166597487Y-111748849D01*
X166681803Y-111836907D01*
X166762088Y-111920615D01*
X166836613Y-111998167D01*
X166903646Y-112067757D01*
X166961459Y-112127576D01*
X167008321Y-112175818D01*
X167042504Y-112210676D01*
X167062276Y-112230343D01*
X167066610Y-112234116D01*
X167066908Y-112220992D01*
X167065269Y-112187389D01*
X167061977Y-112137880D01*
X167057318Y-112077037D01*
X167055318Y-112052732D01*
X167040423Y-111874951D01*
X167157045Y-111874951D01*
X167163066Y-111903243D01*
X167166137Y-111925618D01*
X167170452Y-111967717D01*
X167175512Y-112024178D01*
X167180819Y-112089635D01*
X167182656Y-112113862D01*
X167188073Y-112183421D01*
X167193541Y-112248018D01*
X167198512Y-112301548D01*
X167202439Y-112337910D01*
X167203325Y-112344509D01*
X167206666Y-112358056D01*
X167213899Y-112373914D01*
X167226560Y-112393861D01*
X167246189Y-112419673D01*
X167274322Y-112453129D01*
X167312498Y-112496007D01*
X167362254Y-112550083D01*
X167425129Y-112617136D01*
X167502659Y-112698943D01*
X167581749Y-112781950D01*
X167660436Y-112864094D01*
X167733888Y-112940169D01*
X167800276Y-113008325D01*
X167857773Y-113066712D01*
X167904549Y-113113481D01*
X167938776Y-113146782D01*
X167958627Y-113164767D01*
X167962860Y-113167442D01*
X167973997Y-113157741D01*
X168000029Y-113132441D01*
X168038430Y-113094082D01*
X168086672Y-113045200D01*
X168142230Y-112988334D01*
X168182408Y-112946906D01*
X168392169Y-112730000D01*
X167773663Y-112730000D01*
X167773663Y-112491089D01*
X168528119Y-112491089D01*
X168528119Y-112597542D01*
X168666435Y-112459654D01*
X168764553Y-112361840D01*
X168955643Y-112361840D01*
X168957471Y-112377270D01*
X168966723Y-112385867D01*
X168989050Y-112389613D01*
X169030105Y-112390489D01*
X169037376Y-112390495D01*
X169119109Y-112390495D01*
X169119109Y-112171172D01*
X169037376Y-112252179D01*
X168991270Y-112301428D01*
X168963694Y-112339159D01*
X168955643Y-112361840D01*
X168764553Y-112361840D01*
X168804752Y-112321766D01*
X168804752Y-112198952D01*
X168805137Y-112142450D01*
X168806900Y-112106505D01*
X168810950Y-112086530D01*
X168818199Y-112077937D01*
X168829130Y-112076139D01*
X168841288Y-112073498D01*
X168850273Y-112062912D01*
X168857174Y-112040381D01*
X168863076Y-112001909D01*
X168869065Y-111943498D01*
X168870987Y-111922104D01*
X168875148Y-111874951D01*
X167157045Y-111874951D01*
X167040423Y-111874951D01*
X166880891Y-111874951D01*
X166880891Y-111761782D01*
X166948686Y-111761782D01*
X166988338Y-111760696D01*
X167009884Y-111755454D01*
X167012520Y-111752334D01*
X167151384Y-111752334D01*
X167158692Y-111759462D01*
X167184007Y-111761662D01*
X167201092Y-111761782D01*
X167258119Y-111761782D01*
X167470779Y-111761782D01*
X168885302Y-111761782D01*
X168837458Y-111712786D01*
X168763150Y-111652324D01*
X168671184Y-111605691D01*
X168560002Y-111572249D01*
X168449529Y-111553753D01*
X168377227Y-111545122D01*
X168377227Y-111636040D01*
X167798812Y-111636040D01*
X167798812Y-111532893D01*
X167713935Y-111541496D01*
X167654632Y-111548756D01*
X167591449Y-111558379D01*
X167553614Y-111565252D01*
X167478168Y-111580407D01*
X167474474Y-111671095D01*
X167470779Y-111761782D01*
X167258119Y-111761782D01*
X167258119Y-111711485D01*
X167256456Y-111679976D01*
X167252303Y-111662463D01*
X167250629Y-111661188D01*
X167232013Y-111669254D01*
X167204817Y-111688820D01*
X167177552Y-111712944D01*
X167158733Y-111734682D01*
X167157057Y-111737508D01*
X167151384Y-111752334D01*
X167012520Y-111752334D01*
X167020338Y-111743081D01*
X167024558Y-111729604D01*
X167041781Y-111694627D01*
X167074862Y-111652579D01*
X167118107Y-111609356D01*
X167165826Y-111570854D01*
X167197170Y-111550801D01*
X167232877Y-111528851D01*
X167251181Y-111510411D01*
X167257612Y-111488668D01*
X167258106Y-111475718D01*
X167258106Y-111472575D01*
X167899406Y-111472575D01*
X167899406Y-111535446D01*
X168276633Y-111535446D01*
X168276633Y-111472575D01*
X167899406Y-111472575D01*
X167258106Y-111472575D01*
X167258119Y-111434852D01*
X167363952Y-111434852D01*
X167412645Y-111436029D01*
X167450595Y-111439165D01*
X167471692Y-111443671D01*
X167473977Y-111445495D01*
X167487359Y-111448295D01*
X167519926Y-111447148D01*
X167566084Y-111442393D01*
X167597624Y-111438003D01*
X167654812Y-111429378D01*
X167707114Y-111421591D01*
X167746418Y-111415847D01*
X167757945Y-111414215D01*
X167788063Y-111404888D01*
X167798812Y-111390272D01*
X167802080Y-111384320D01*
X167813770Y-111379778D01*
X167836712Y-111376470D01*
X167873735Y-111374215D01*
X167927668Y-111372834D01*
X168001340Y-111372150D01*
X168088020Y-111371980D01*
X168180529Y-111372077D01*
X168250906Y-111372530D01*
X168302164Y-111373590D01*
X168337320Y-111375503D01*
X168359389Y-111378519D01*
X168371385Y-111382885D01*
X168376324Y-111388849D01*
X168377227Y-111395784D01*
X168384921Y-111417795D01*
X168410121Y-111430321D01*
X168456009Y-111434788D01*
X168464264Y-111434852D01*
X168541973Y-111442868D01*
X168630233Y-111464936D01*
X168721085Y-111498084D01*
X168806570Y-111539339D01*
X168878726Y-111585731D01*
X168888072Y-111593082D01*
X168918533Y-111616998D01*
X168936572Y-111626576D01*
X168949169Y-111623480D01*
X168962100Y-111610704D01*
X169000293Y-111585678D01*
X169049998Y-111576071D01*
X169103524Y-111581067D01*
X169153178Y-111599851D01*
X169191267Y-111631606D01*
X169194025Y-111635297D01*
X169222526Y-111694575D01*
X169227828Y-111755934D01*
X169210518Y-111814427D01*
X169171180Y-111865104D01*
X169166370Y-111869289D01*
X169138440Y-111889167D01*
X169110102Y-111897921D01*
X169070263Y-111898553D01*
X169060311Y-111897992D01*
X169021332Y-111896562D01*
X169001254Y-111899839D01*
X168993985Y-111909728D01*
X168993240Y-111918961D01*
X168991716Y-111945744D01*
X168987935Y-111986025D01*
X168985218Y-112010124D01*
X168981277Y-112048401D01*
X168982916Y-112067996D01*
X168992421Y-112075158D01*
X169009351Y-112076139D01*
X169019392Y-112072901D01*
X169035590Y-112062420D01*
X169059145Y-112043548D01*
X169091257Y-112015135D01*
X169133128Y-111976035D01*
X169185957Y-111925097D01*
X169250945Y-111861173D01*
X169329291Y-111783114D01*
X169422197Y-111689772D01*
X169530863Y-111579998D01*
X169583231Y-111526952D01*
X170125049Y-110977767D01*
X170124430Y-111064848D01*
G36*
X169747822Y-117017822D02*
X166227029Y-117017822D01*
X166227029Y-116150198D01*
X169747822Y-116150198D01*
X169747822Y-117017822D01*
X169747822Y-117017822D01*
G37*
X169747822Y-117017822D02*
X166227029Y-117017822D01*
X166227029Y-116150198D01*
X169747822Y-116150198D01*
X169747822Y-117017822D01*
G04 #@! TO.C,U1*
D14*
X178452380Y-74685714D02*
X179261904Y-74685714D01*
X179357142Y-74642857D01*
X179404761Y-74600000D01*
X179452380Y-74514285D01*
X179452380Y-74342857D01*
X179404761Y-74257142D01*
X179357142Y-74214285D01*
X179261904Y-74171428D01*
X178452380Y-74171428D01*
X179452380Y-73271428D02*
X179452380Y-73785714D01*
X179452380Y-73528571D02*
X178452380Y-73528571D01*
X178595238Y-73614285D01*
X178690476Y-73700000D01*
X178738095Y-73785714D01*
X178452380Y-86871428D02*
X179452380Y-86271428D01*
X178452380Y-86271428D02*
X179452380Y-86871428D01*
X178928571Y-85628571D02*
X178976190Y-85500000D01*
X179023809Y-85457142D01*
X179119047Y-85414285D01*
X179261904Y-85414285D01*
X179357142Y-85457142D01*
X179404761Y-85500000D01*
X179452380Y-85585714D01*
X179452380Y-85928571D01*
X178452380Y-85928571D01*
X178452380Y-85628571D01*
X178500000Y-85542857D01*
X178547619Y-85500000D01*
X178642857Y-85457142D01*
X178738095Y-85457142D01*
X178833333Y-85500000D01*
X178880952Y-85542857D01*
X178928571Y-85628571D01*
X178928571Y-85928571D01*
X178547619Y-85071428D02*
X178500000Y-85028571D01*
X178452380Y-84942857D01*
X178452380Y-84728571D01*
X178500000Y-84642857D01*
X178547619Y-84600000D01*
X178642857Y-84557142D01*
X178738095Y-84557142D01*
X178880952Y-84600000D01*
X179452380Y-85114285D01*
X179452380Y-84557142D01*
X178785714Y-83785714D02*
X179452380Y-83785714D01*
X178404761Y-84000000D02*
X179119047Y-84214285D01*
X179119047Y-83657142D01*
X179357142Y-82800000D02*
X179404761Y-82842857D01*
X179452380Y-82971428D01*
X179452380Y-83057142D01*
X179404761Y-83185714D01*
X179309523Y-83271428D01*
X179214285Y-83314285D01*
X179023809Y-83357142D01*
X178880952Y-83357142D01*
X178690476Y-83314285D01*
X178595238Y-83271428D01*
X178500000Y-83185714D01*
X178452380Y-83057142D01*
X178452380Y-82971428D01*
X178500000Y-82842857D01*
X178547619Y-82800000D01*
X179452380Y-82414285D02*
X178452380Y-82414285D01*
X178452380Y-82200000D01*
X178500000Y-82071428D01*
X178595238Y-81985714D01*
X178690476Y-81942857D01*
X178880952Y-81900000D01*
X179023809Y-81900000D01*
X179214285Y-81942857D01*
X179309523Y-81985714D01*
X179404761Y-82071428D01*
X179452380Y-82200000D01*
X179452380Y-82414285D01*
X179452380Y-81514285D02*
X178452380Y-81514285D01*
X179166666Y-81214285D01*
X178452380Y-80914285D01*
X179452380Y-80914285D01*
X179452380Y-80485714D02*
X178452380Y-80485714D01*
X178452380Y-80142857D01*
X178500000Y-80057142D01*
X178547619Y-80014285D01*
X178642857Y-79971428D01*
X178785714Y-79971428D01*
X178880952Y-80014285D01*
X178928571Y-80057142D01*
X178976190Y-80142857D01*
X178976190Y-80485714D01*
X179452380Y-79585714D02*
X178452380Y-79585714D01*
X178452380Y-79285714D02*
X178452380Y-78771428D01*
X179452380Y-79028571D02*
X178452380Y-79028571D01*
X179071428Y-78471428D02*
X179071428Y-77785714D01*
X178452380Y-77185714D02*
X178452380Y-77100000D01*
X178500000Y-77014285D01*
X178547619Y-76971428D01*
X178642857Y-76928571D01*
X178833333Y-76885714D01*
X179071428Y-76885714D01*
X179261904Y-76928571D01*
X179357142Y-76971428D01*
X179404761Y-77014285D01*
X179452380Y-77100000D01*
X179452380Y-77185714D01*
X179404761Y-77271428D01*
X179357142Y-77314285D01*
X179261904Y-77357142D01*
X179071428Y-77400000D01*
X178833333Y-77400000D01*
X178642857Y-77357142D01*
X178547619Y-77314285D01*
X178500000Y-77271428D01*
X178452380Y-77185714D01*
X178452380Y-76328571D02*
X178452380Y-76242857D01*
X178500000Y-76157142D01*
X178547619Y-76114285D01*
X178642857Y-76071428D01*
X178833333Y-76028571D01*
X179071428Y-76028571D01*
X179261904Y-76071428D01*
X179357142Y-76114285D01*
X179404761Y-76157142D01*
X179452380Y-76242857D01*
X179452380Y-76328571D01*
X179404761Y-76414285D01*
X179357142Y-76457142D01*
X179261904Y-76500000D01*
X179071428Y-76542857D01*
X178833333Y-76542857D01*
X178642857Y-76500000D01*
X178547619Y-76457142D01*
X178500000Y-76414285D01*
X178452380Y-76328571D01*
X179452380Y-75171428D02*
X179452380Y-75685714D01*
X179452380Y-75428571D02*
X178452380Y-75428571D01*
X178595238Y-75514285D01*
X178690476Y-75600000D01*
X178738095Y-75685714D01*
G04 #@! TO.C,J1*
D10*
X140936666Y-64987381D02*
X140936666Y-65701667D01*
X140889047Y-65844524D01*
X140793809Y-65939762D01*
X140650952Y-65987381D01*
X140555714Y-65987381D01*
X141936666Y-65987381D02*
X141365238Y-65987381D01*
X141650952Y-65987381D02*
X141650952Y-64987381D01*
X141555714Y-65130239D01*
X141460476Y-65225477D01*
X141365238Y-65273096D01*
G04 #@! TO.C,J2*
X149666666Y-94122380D02*
X149666666Y-94836666D01*
X149619047Y-94979523D01*
X149523809Y-95074761D01*
X149380952Y-95122380D01*
X149285714Y-95122380D01*
X150095238Y-94217619D02*
X150142857Y-94170000D01*
X150238095Y-94122380D01*
X150476190Y-94122380D01*
X150571428Y-94170000D01*
X150619047Y-94217619D01*
X150666666Y-94312857D01*
X150666666Y-94408095D01*
X150619047Y-94550952D01*
X150047619Y-95122380D01*
X150666666Y-95122380D01*
G04 #@! TO.C,J3*
X150161666Y-103167380D02*
X150161666Y-103881666D01*
X150114047Y-104024523D01*
X150018809Y-104119761D01*
X149875952Y-104167380D01*
X149780714Y-104167380D01*
X150542619Y-103167380D02*
X151161666Y-103167380D01*
X150828333Y-103548333D01*
X150971190Y-103548333D01*
X151066428Y-103595952D01*
X151114047Y-103643571D01*
X151161666Y-103738809D01*
X151161666Y-103976904D01*
X151114047Y-104072142D01*
X151066428Y-104119761D01*
X150971190Y-104167380D01*
X150685476Y-104167380D01*
X150590238Y-104119761D01*
X150542619Y-104072142D01*
G04 #@! TO.C,*
G04 #@! TD*
M02*
