G04 #@! TF.GenerationSoftware,KiCad,Pcbnew,(5.0.1)-4*
G04 #@! TF.CreationDate,2019-03-02T17:06:11-06:00*
G04 #@! TF.ProjectId,monitoring,6D6F6E69746F72696E672E6B69636164,rev?*
G04 #@! TF.SameCoordinates,Original*
G04 #@! TF.FileFunction,Copper,L2,Bot,Signal*
G04 #@! TF.FilePolarity,Positive*
%FSLAX46Y46*%
G04 Gerber Fmt 4.6, Leading zero omitted, Abs format (unit mm)*
G04 Created by KiCad (PCBNEW (5.0.1)-4) date 2019-03-02 5:06:11 PM*
%MOMM*%
%LPD*%
G01*
G04 APERTURE LIST*
G04 #@! TA.AperFunction,ComponentPad*
%ADD10C,2.400000*%
G04 #@! TD*
G04 #@! TA.AperFunction,ComponentPad*
%ADD11C,1.650000*%
G04 #@! TD*
G04 #@! TA.AperFunction,ComponentPad*
%ADD12R,1.650000X1.650000*%
G04 #@! TD*
G04 #@! TA.AperFunction,ComponentPad*
%ADD13O,2.400000X2.400000*%
G04 #@! TD*
G04 #@! TA.AperFunction,ComponentPad*
%ADD14C,3.500000*%
G04 #@! TD*
G04 #@! TA.AperFunction,ViaPad*
%ADD15C,0.800000*%
G04 #@! TD*
G04 #@! TA.AperFunction,Conductor*
%ADD16C,0.300000*%
G04 #@! TD*
G04 #@! TA.AperFunction,Conductor*
%ADD17C,0.250000*%
G04 #@! TD*
G04 #@! TA.AperFunction,Conductor*
%ADD18C,0.220000*%
G04 #@! TD*
G04 APERTURE END LIST*
D10*
G04 #@! TO.P,C02,1*
G04 #@! TO.N,Net-(C01-Pad2)*
X172720000Y-85090000D03*
G04 #@! TO.P,C02,2*
G04 #@! TO.N,Net-(C02-Pad2)*
X157720000Y-85090000D03*
G04 #@! TD*
G04 #@! TO.P,C01,2*
G04 #@! TO.N,Net-(C01-Pad2)*
X157720000Y-77470000D03*
G04 #@! TO.P,C01,1*
G04 #@! TO.N,Net-(C01-Pad1)*
X172720000Y-77470000D03*
G04 #@! TD*
G04 #@! TO.P,C03,1*
G04 #@! TO.N,Net-(C03-Pad1)*
X148590000Y-91440000D03*
G04 #@! TO.P,C03,2*
G04 #@! TO.N,Net-(C01-Pad2)*
X148590000Y-106440000D03*
G04 #@! TD*
G04 #@! TO.P,C04,2*
G04 #@! TO.N,Net-(C04-Pad2)*
X160020000Y-106440000D03*
G04 #@! TO.P,C04,1*
G04 #@! TO.N,Net-(C01-Pad2)*
X160020000Y-91440000D03*
G04 #@! TD*
D11*
G04 #@! TO.P,CT,2*
G04 #@! TO.N,Net-(C01-Pad1)*
X124460000Y-67270000D03*
D12*
G04 #@! TO.P,CT,1*
G04 #@! TO.N,Net-(J1-Pad1)*
X124460000Y-62270000D03*
G04 #@! TD*
G04 #@! TO.P,PT,1*
G04 #@! TO.N,Net-(J2-Pad1)*
X124460000Y-83780000D03*
D11*
G04 #@! TO.P,PT,2*
G04 #@! TO.N,Net-(C01-Pad2)*
X124460000Y-78780000D03*
G04 #@! TD*
D12*
G04 #@! TO.P,J3,1*
G04 #@! TO.N,Net-(J3-Pad1)*
X170180000Y-68540000D03*
D11*
G04 #@! TO.P,J3,2*
G04 #@! TO.N,Net-(C01-Pad2)*
X170180000Y-63540000D03*
G04 #@! TD*
G04 #@! TO.P,J4,2*
G04 #@! TO.N,Net-(C02-Pad2)*
X171450000Y-100370000D03*
D12*
G04 #@! TO.P,J4,1*
G04 #@! TO.N,Net-(C04-Pad2)*
X171450000Y-105370000D03*
G04 #@! TD*
D13*
G04 #@! TO.P,R01,2*
G04 #@! TO.N,Net-(C01-Pad1)*
X140970000Y-67310000D03*
D10*
G04 #@! TO.P,R01,1*
G04 #@! TO.N,Net-(J3-Pad1)*
X153670000Y-67310000D03*
G04 #@! TD*
G04 #@! TO.P,R02,1*
G04 #@! TO.N,Net-(C01-Pad1)*
X140970000Y-62230000D03*
D13*
G04 #@! TO.P,R02,2*
G04 #@! TO.N,Net-(C01-Pad2)*
X153670000Y-62230000D03*
G04 #@! TD*
D10*
G04 #@! TO.P,R03,1*
G04 #@! TO.N,Net-(J1-Pad1)*
X133350000Y-60960000D03*
D13*
G04 #@! TO.P,R03,2*
G04 #@! TO.N,Net-(C01-Pad1)*
X133350000Y-73660000D03*
G04 #@! TD*
G04 #@! TO.P,R04,2*
G04 #@! TO.N,Net-(R04-Pad2)*
X133350000Y-104140000D03*
D10*
G04 #@! TO.P,R04,1*
G04 #@! TO.N,Net-(J2-Pad1)*
X133350000Y-91440000D03*
G04 #@! TD*
G04 #@! TO.P,R05,1*
G04 #@! TO.N,Net-(R04-Pad2)*
X139700000Y-104140000D03*
D13*
G04 #@! TO.P,R05,2*
G04 #@! TO.N,Net-(R05-Pad2)*
X139700000Y-91440000D03*
G04 #@! TD*
G04 #@! TO.P,R06,2*
G04 #@! TO.N,Net-(C01-Pad2)*
X139700000Y-74930000D03*
D10*
G04 #@! TO.P,R06,1*
G04 #@! TO.N,Net-(R05-Pad2)*
X139700000Y-87630000D03*
G04 #@! TD*
D14*
G04 #@! TO.P,REF\002A\002A,1*
G04 #@! TO.N,N/C*
X182000000Y-56000000D03*
G04 #@! TD*
G04 #@! TO.P,REF\002A\002A,1*
G04 #@! TO.N,N/C*
X118000000Y-56000000D03*
G04 #@! TD*
G04 #@! TO.P,REF\002A\002A,1*
G04 #@! TO.N,N/C*
X182000000Y-109000000D03*
G04 #@! TD*
G04 #@! TO.P,REF\002A\002A,1*
G04 #@! TO.N,N/C*
X118000000Y-109000000D03*
G04 #@! TD*
D15*
G04 #@! TO.N,Net-(C01-Pad2)*
X156210000Y-72390000D03*
X163830000Y-63500000D03*
G04 #@! TO.N,Net-(J1-Pad1)*
X146050000Y-71120000D03*
X137160000Y-68580000D03*
G04 #@! TO.N,Net-(J3-Pad1)*
X155000000Y-74000000D03*
X155000000Y-71500000D03*
X155000000Y-71500000D03*
X155000000Y-71500000D03*
X155000000Y-77664000D03*
X153416000Y-80772000D03*
G04 #@! TD*
D16*
G04 #@! TO.N,Net-(C01-Pad2)*
X156210000Y-64770000D02*
X157480000Y-63500000D01*
X157480000Y-63500000D02*
X163830000Y-63500000D01*
X156210000Y-72390000D02*
X156210000Y-71120000D01*
X170180000Y-85090000D02*
X168910000Y-83820000D01*
X172720000Y-85090000D02*
X170180000Y-85090000D01*
X168910000Y-83820000D02*
X168910000Y-73660000D01*
X156210000Y-70000000D02*
X156210000Y-64770000D01*
X156210000Y-71120000D02*
X156210000Y-70000000D01*
D17*
X168910000Y-73660000D02*
X168910000Y-71910000D01*
X168910000Y-71910000D02*
X168000000Y-71000000D01*
X157600000Y-71000000D02*
X156210000Y-72390000D01*
X168000000Y-71000000D02*
X157600000Y-71000000D01*
D18*
G04 #@! TO.N,Net-(J1-Pad1)*
X146050000Y-71120000D02*
X139700000Y-71120000D01*
D17*
X139700000Y-71120000D02*
X137160000Y-68580000D01*
G04 #@! TO.N,Net-(J3-Pad1)*
X155000000Y-71500000D02*
X155000000Y-71500000D01*
X155000000Y-71500000D02*
X155000000Y-74000000D01*
X155000000Y-71500000D02*
X155000000Y-71500000D01*
X155000000Y-71500000D02*
X155000000Y-71500000D01*
X154600001Y-78063999D02*
X154600001Y-79587999D01*
X155000000Y-77664000D02*
X154600001Y-78063999D01*
X154600001Y-79587999D02*
X153416000Y-80772000D01*
X153416000Y-80772000D02*
X153416000Y-80772000D01*
G04 #@! TD*
M02*
