G04 #@! TF.GenerationSoftware,KiCad,Pcbnew,(5.0.1)-4*
G04 #@! TF.CreationDate,2019-03-02T17:06:11-06:00*
G04 #@! TF.ProjectId,monitoring,6D6F6E69746F72696E672E6B69636164,rev?*
G04 #@! TF.SameCoordinates,Original*
G04 #@! TF.FileFunction,Copper,L1,Top,Signal*
G04 #@! TF.FilePolarity,Positive*
%FSLAX46Y46*%
G04 Gerber Fmt 4.6, Leading zero omitted, Abs format (unit mm)*
G04 Created by KiCad (PCBNEW (5.0.1)-4) date 2019-03-02 5:06:11 PM*
%MOMM*%
%LPD*%
G01*
G04 APERTURE LIST*
G04 #@! TA.AperFunction,SMDPad,CuDef*
%ADD10R,1.397000X0.431800*%
G04 #@! TD*
G04 #@! TA.AperFunction,ComponentPad*
%ADD11C,2.400000*%
G04 #@! TD*
G04 #@! TA.AperFunction,ComponentPad*
%ADD12C,1.650000*%
G04 #@! TD*
G04 #@! TA.AperFunction,ComponentPad*
%ADD13R,1.650000X1.650000*%
G04 #@! TD*
G04 #@! TA.AperFunction,ComponentPad*
%ADD14O,2.400000X2.400000*%
G04 #@! TD*
G04 #@! TA.AperFunction,ComponentPad*
%ADD15C,3.500000*%
G04 #@! TD*
G04 #@! TA.AperFunction,ViaPad*
%ADD16C,0.800000*%
G04 #@! TD*
G04 #@! TA.AperFunction,Conductor*
%ADD17C,0.250000*%
G04 #@! TD*
G04 #@! TA.AperFunction,Conductor*
%ADD18C,0.300000*%
G04 #@! TD*
G04 #@! TA.AperFunction,Conductor*
%ADD19C,0.220000*%
G04 #@! TD*
G04 #@! TA.AperFunction,Conductor*
%ADD20C,0.320000*%
G04 #@! TD*
G04 APERTURE END LIST*
D10*
G04 #@! TO.P,U1,1*
G04 #@! TO.N,Net-(C01-Pad2)*
X148920200Y-73955000D03*
G04 #@! TO.P,U1,2*
G04 #@! TO.N,Net-(J1-Pad1)*
X148920200Y-74605000D03*
G04 #@! TO.P,U1,3*
G04 #@! TO.N,Net-(C01-Pad1)*
X148920200Y-75255000D03*
G04 #@! TO.P,U1,4*
G04 #@! TO.N,Net-(C01-Pad2)*
X148920200Y-75905000D03*
G04 #@! TO.P,U1,5*
G04 #@! TO.N,Net-(C02-Pad2)*
X153339800Y-75905000D03*
G04 #@! TO.P,U1,6*
G04 #@! TO.N,Net-(C01-Pad2)*
X153339800Y-75255000D03*
G04 #@! TO.P,U1,7*
G04 #@! TO.N,Net-(J3-Pad1)*
X153339800Y-74605000D03*
G04 #@! TO.P,U1,8*
G04 #@! TO.N,Net-(C01-Pad2)*
X153339800Y-73955000D03*
G04 #@! TD*
D11*
G04 #@! TO.P,C02,1*
G04 #@! TO.N,Net-(C01-Pad2)*
X172720000Y-85090000D03*
G04 #@! TO.P,C02,2*
G04 #@! TO.N,Net-(C02-Pad2)*
X157720000Y-85090000D03*
G04 #@! TD*
G04 #@! TO.P,C01,2*
G04 #@! TO.N,Net-(C01-Pad2)*
X157720000Y-77470000D03*
G04 #@! TO.P,C01,1*
G04 #@! TO.N,Net-(C01-Pad1)*
X172720000Y-77470000D03*
G04 #@! TD*
G04 #@! TO.P,C03,1*
G04 #@! TO.N,Net-(C03-Pad1)*
X148590000Y-91440000D03*
G04 #@! TO.P,C03,2*
G04 #@! TO.N,Net-(C01-Pad2)*
X148590000Y-106440000D03*
G04 #@! TD*
G04 #@! TO.P,C04,2*
G04 #@! TO.N,Net-(C04-Pad2)*
X160020000Y-106440000D03*
G04 #@! TO.P,C04,1*
G04 #@! TO.N,Net-(C01-Pad2)*
X160020000Y-91440000D03*
G04 #@! TD*
D12*
G04 #@! TO.P,CT,2*
G04 #@! TO.N,Net-(C01-Pad1)*
X124460000Y-67270000D03*
D13*
G04 #@! TO.P,CT,1*
G04 #@! TO.N,Net-(J1-Pad1)*
X124460000Y-62270000D03*
G04 #@! TD*
G04 #@! TO.P,PT,1*
G04 #@! TO.N,Net-(J2-Pad1)*
X124460000Y-83780000D03*
D12*
G04 #@! TO.P,PT,2*
G04 #@! TO.N,Net-(C01-Pad2)*
X124460000Y-78780000D03*
G04 #@! TD*
D13*
G04 #@! TO.P,J3,1*
G04 #@! TO.N,Net-(J3-Pad1)*
X170180000Y-68540000D03*
D12*
G04 #@! TO.P,J3,2*
G04 #@! TO.N,Net-(C01-Pad2)*
X170180000Y-63540000D03*
G04 #@! TD*
G04 #@! TO.P,J4,2*
G04 #@! TO.N,Net-(C02-Pad2)*
X171450000Y-100370000D03*
D13*
G04 #@! TO.P,J4,1*
G04 #@! TO.N,Net-(C04-Pad2)*
X171450000Y-105370000D03*
G04 #@! TD*
D14*
G04 #@! TO.P,R01,2*
G04 #@! TO.N,Net-(C01-Pad1)*
X140970000Y-67310000D03*
D11*
G04 #@! TO.P,R01,1*
G04 #@! TO.N,Net-(J3-Pad1)*
X153670000Y-67310000D03*
G04 #@! TD*
G04 #@! TO.P,R02,1*
G04 #@! TO.N,Net-(C01-Pad1)*
X140970000Y-62230000D03*
D14*
G04 #@! TO.P,R02,2*
G04 #@! TO.N,Net-(C01-Pad2)*
X153670000Y-62230000D03*
G04 #@! TD*
D11*
G04 #@! TO.P,R03,1*
G04 #@! TO.N,Net-(J1-Pad1)*
X133350000Y-60960000D03*
D14*
G04 #@! TO.P,R03,2*
G04 #@! TO.N,Net-(C01-Pad1)*
X133350000Y-73660000D03*
G04 #@! TD*
G04 #@! TO.P,R04,2*
G04 #@! TO.N,Net-(R04-Pad2)*
X133350000Y-104140000D03*
D11*
G04 #@! TO.P,R04,1*
G04 #@! TO.N,Net-(J2-Pad1)*
X133350000Y-91440000D03*
G04 #@! TD*
G04 #@! TO.P,R05,1*
G04 #@! TO.N,Net-(R04-Pad2)*
X139700000Y-104140000D03*
D14*
G04 #@! TO.P,R05,2*
G04 #@! TO.N,Net-(R05-Pad2)*
X139700000Y-91440000D03*
G04 #@! TD*
G04 #@! TO.P,R06,2*
G04 #@! TO.N,Net-(C01-Pad2)*
X139700000Y-74930000D03*
D11*
G04 #@! TO.P,R06,1*
G04 #@! TO.N,Net-(R05-Pad2)*
X139700000Y-87630000D03*
G04 #@! TD*
D10*
G04 #@! TO.P,U2,8*
G04 #@! TO.N,Net-(C01-Pad2)*
X152069800Y-82550000D03*
G04 #@! TO.P,U2,7*
G04 #@! TO.N,Net-(J3-Pad1)*
X152069800Y-83200000D03*
G04 #@! TO.P,U2,6*
G04 #@! TO.N,Net-(C01-Pad2)*
X152069800Y-83850000D03*
G04 #@! TO.P,U2,5*
G04 #@! TO.N,Net-(C04-Pad2)*
X152069800Y-84500000D03*
G04 #@! TO.P,U2,4*
G04 #@! TO.N,Net-(C01-Pad2)*
X147650200Y-84500000D03*
G04 #@! TO.P,U2,3*
G04 #@! TO.N,Net-(C03-Pad1)*
X147650200Y-83850000D03*
G04 #@! TO.P,U2,2*
G04 #@! TO.N,Net-(R04-Pad2)*
X147650200Y-83200000D03*
G04 #@! TO.P,U2,1*
G04 #@! TO.N,Net-(C01-Pad2)*
X147650200Y-82550000D03*
G04 #@! TD*
D15*
G04 #@! TO.P,REF\002A\002A,1*
G04 #@! TO.N,N/C*
X182000000Y-56000000D03*
G04 #@! TD*
G04 #@! TO.P,REF\002A\002A,1*
G04 #@! TO.N,N/C*
X118000000Y-56000000D03*
G04 #@! TD*
G04 #@! TO.P,REF\002A\002A,1*
G04 #@! TO.N,N/C*
X182000000Y-109000000D03*
G04 #@! TD*
G04 #@! TO.P,REF\002A\002A,1*
G04 #@! TO.N,N/C*
X118000000Y-109000000D03*
G04 #@! TD*
D16*
G04 #@! TO.N,Net-(C01-Pad2)*
X156210000Y-72390000D03*
X163830000Y-63500000D03*
G04 #@! TO.N,Net-(J1-Pad1)*
X146050000Y-71120000D03*
X137160000Y-68580000D03*
G04 #@! TO.N,Net-(J3-Pad1)*
X155000000Y-74000000D03*
X155000000Y-71500000D03*
X155000000Y-71500000D03*
X155000000Y-71500000D03*
X155000000Y-77664000D03*
X153416000Y-80772000D03*
G04 #@! TD*
D17*
G04 #@! TO.N,Net-(C01-Pad2)*
X163830000Y-63500000D02*
X164104991Y-63500000D01*
D18*
X170180000Y-63540000D02*
X164104991Y-63500000D01*
X170180000Y-58420000D02*
X170180000Y-63540000D01*
X168910000Y-57150000D02*
X170180000Y-58420000D01*
X154940000Y-57150000D02*
X168910000Y-57150000D01*
X153670000Y-62230000D02*
X153670000Y-58420000D01*
X153670000Y-58420000D02*
X154940000Y-57150000D01*
D17*
X156210000Y-72390000D02*
X158750000Y-72390000D01*
X158750000Y-72390000D02*
X160020000Y-73660000D01*
X160020000Y-73660000D02*
X160020000Y-76200000D01*
X160020000Y-76200000D02*
X158750000Y-77470000D01*
X158750000Y-77470000D02*
X157720000Y-77470000D01*
D18*
X135850000Y-78780000D02*
X139700000Y-74930000D01*
X124460000Y-78780000D02*
X135850000Y-78780000D01*
X147080000Y-107950000D02*
X148590000Y-106440000D01*
X124460000Y-78780000D02*
X119340000Y-78780000D01*
D17*
X153018300Y-83850000D02*
X152069800Y-83850000D01*
X154940000Y-85771700D02*
X153018300Y-83850000D01*
X154940000Y-90170000D02*
X154940000Y-85771700D01*
X156210000Y-91440000D02*
X154940000Y-90170000D01*
X160020000Y-91440000D02*
X156210000Y-91440000D01*
X148920200Y-73955000D02*
X148437600Y-73955000D01*
X154940000Y-72390000D02*
X156210000Y-72390000D01*
X153670000Y-72390000D02*
X154940000Y-72390000D01*
X148920200Y-76370900D02*
X148920200Y-75905000D01*
X148132800Y-82550000D02*
X148920200Y-81762600D01*
X147650200Y-82550000D02*
X148132800Y-82550000D01*
X148920200Y-81762600D02*
X148920200Y-81500000D01*
X153339800Y-72720200D02*
X153560000Y-72500000D01*
X153560000Y-72500000D02*
X153670000Y-72390000D01*
X139700000Y-74930000D02*
X139700000Y-81200000D01*
X141050000Y-82550000D02*
X146950000Y-82550000D01*
X139700000Y-81200000D02*
X141050000Y-82550000D01*
X146950000Y-82550000D02*
X147650200Y-82550000D01*
X148920200Y-75905000D02*
X150595000Y-75905000D01*
X150595000Y-75905000D02*
X151000000Y-75500000D01*
X151000000Y-73500000D02*
X151500000Y-73000000D01*
X151500000Y-73000000D02*
X153339800Y-73000000D01*
X153339800Y-73955000D02*
X153339800Y-73000000D01*
X153339800Y-73000000D02*
X153339800Y-72720200D01*
X151245000Y-75255000D02*
X151000000Y-75500000D01*
X153339800Y-75255000D02*
X151245000Y-75255000D01*
X150455000Y-73955000D02*
X151000000Y-74500000D01*
X148920200Y-73955000D02*
X150455000Y-73955000D01*
X151000000Y-75500000D02*
X151000000Y-74500000D01*
X151000000Y-74500000D02*
X151000000Y-73500000D01*
X150000000Y-80579800D02*
X148920200Y-79500000D01*
X149500000Y-84500000D02*
X150000000Y-84000000D01*
X147650200Y-84500000D02*
X149500000Y-84500000D01*
X148920200Y-81500000D02*
X148920200Y-79500000D01*
X148920200Y-79500000D02*
X148920200Y-76370900D01*
X150600000Y-83850000D02*
X150000000Y-83250000D01*
X152069800Y-83850000D02*
X150600000Y-83850000D01*
X150000000Y-84000000D02*
X150000000Y-83250000D01*
X150550000Y-82550000D02*
X150000000Y-82000000D01*
X152069800Y-82550000D02*
X150550000Y-82550000D01*
X150000000Y-83250000D02*
X150000000Y-82000000D01*
X150000000Y-82000000D02*
X150000000Y-80579800D01*
X147080000Y-107950000D02*
X121950000Y-107950000D01*
X121950000Y-107950000D02*
X118000000Y-104000000D01*
X118000000Y-80120000D02*
X119340000Y-78780000D01*
X118000000Y-104000000D02*
X118000000Y-80120000D01*
G04 #@! TO.N,Net-(C01-Pad1)*
X132080000Y-73660000D02*
X133350000Y-73660000D01*
X140970000Y-67310000D02*
X139700000Y-66040000D01*
X139700000Y-63500000D02*
X140970000Y-62230000D01*
X139700000Y-66040000D02*
X139700000Y-63500000D01*
X124460000Y-67270000D02*
X124460000Y-69850000D01*
X124460000Y-69850000D02*
X124460000Y-71120000D01*
X133350000Y-73660000D02*
X130810000Y-73660000D01*
X130810000Y-73660000D02*
X129540000Y-72390000D01*
X129540000Y-72390000D02*
X125730000Y-72390000D01*
X125730000Y-72390000D02*
X124460000Y-71120000D01*
X172720000Y-77470000D02*
X176530000Y-77470000D01*
X176530000Y-77470000D02*
X177800000Y-76200000D01*
X177800000Y-76200000D02*
X177800000Y-55880000D01*
X177800000Y-55880000D02*
X176530000Y-54610000D01*
X176530000Y-54610000D02*
X140970000Y-54610000D01*
X140970000Y-54610000D02*
X139700000Y-55880000D01*
X139700000Y-60960000D02*
X140970000Y-62230000D01*
X139700000Y-55880000D02*
X139700000Y-60960000D01*
D19*
X139700000Y-68580000D02*
X140970000Y-67310000D01*
X139700000Y-69850000D02*
X139700000Y-68580000D01*
D17*
X133350000Y-73660000D02*
X135890000Y-73660000D01*
D19*
X139700000Y-69850000D02*
X139700000Y-71120000D01*
X139700000Y-71120000D02*
X140970000Y-72390000D01*
D17*
X147971700Y-75255000D02*
X148920200Y-75255000D01*
X147011410Y-75255000D02*
X147971700Y-75255000D01*
D19*
X144146410Y-72390000D02*
X147011410Y-75255000D01*
X140970000Y-72390000D02*
X144146410Y-72390000D01*
D17*
X139272944Y-67310000D02*
X138000000Y-68582944D01*
X140970000Y-67310000D02*
X139272944Y-67310000D01*
X138000000Y-71550000D02*
X137000000Y-72550000D01*
X138000000Y-68582944D02*
X138000000Y-71550000D01*
X135890000Y-73660000D02*
X137000000Y-72550000D01*
X137000000Y-72550000D02*
X137160000Y-72390000D01*
G04 #@! TO.N,Net-(C02-Pad2)*
X171450000Y-95250000D02*
X171450000Y-100370000D01*
X157720000Y-85090000D02*
X161290000Y-85090000D01*
X161290000Y-85090000D02*
X171450000Y-95250000D01*
X153339800Y-79339800D02*
X153339800Y-75905000D01*
X155000000Y-81000000D02*
X153339800Y-79339800D01*
X156500000Y-81000000D02*
X155000000Y-81000000D01*
X157720000Y-85090000D02*
X157720000Y-82220000D01*
X157720000Y-82220000D02*
X156500000Y-81000000D01*
G04 #@! TO.N,Net-(C03-Pad1)*
X146170000Y-91440000D02*
X148590000Y-91440000D01*
X144840000Y-90110000D02*
X146170000Y-91440000D01*
X144840000Y-85090000D02*
X144840000Y-90110000D01*
X147650200Y-83850000D02*
X146080000Y-83850000D01*
X146080000Y-83850000D02*
X144840000Y-85090000D01*
G04 #@! TO.N,Net-(C04-Pad2)*
X152069800Y-84965900D02*
X152069800Y-84500000D01*
X152069800Y-86029800D02*
X152069800Y-84965900D01*
X153670000Y-87630000D02*
X152069800Y-86029800D01*
X153670000Y-103660000D02*
X153670000Y-87630000D01*
X156450000Y-106440000D02*
X153670000Y-103660000D01*
X160020000Y-106440000D02*
X156450000Y-106440000D01*
X162787056Y-105370000D02*
X171450000Y-105370000D01*
X160020000Y-106440000D02*
X161717056Y-106440000D01*
X161717056Y-106440000D02*
X162787056Y-105370000D01*
G04 #@! TO.N,Net-(J1-Pad1)*
X133350000Y-58420000D02*
X133350000Y-60960000D01*
X132080000Y-57150000D02*
X133350000Y-58420000D01*
X125730000Y-57150000D02*
X132080000Y-57150000D01*
X124460000Y-62270000D02*
X124460000Y-58420000D01*
X124460000Y-58420000D02*
X125730000Y-57150000D01*
D19*
X133350000Y-60960000D02*
X135890000Y-60960000D01*
X135890000Y-60960000D02*
X137160000Y-62230000D01*
X137160000Y-62230000D02*
X137160000Y-68580000D01*
X147971700Y-74605000D02*
X147320000Y-73953300D01*
X148920200Y-74605000D02*
X147971700Y-74605000D01*
X147320000Y-73953300D02*
X147320000Y-72390000D01*
X147320000Y-72390000D02*
X146050000Y-71120000D01*
D17*
X146050000Y-71120000D02*
X146050000Y-71120000D01*
X137160000Y-68580000D02*
X137160000Y-68580000D01*
D20*
G04 #@! TO.N,Net-(J2-Pad1)*
X130810000Y-88900000D02*
X133350000Y-91440000D01*
X130810000Y-88900000D02*
X125730000Y-88900000D01*
X125730000Y-88900000D02*
X124460000Y-87630000D01*
X124460000Y-87630000D02*
X124460000Y-83780000D01*
D18*
G04 #@! TO.N,Net-(J3-Pad1)*
X163830000Y-69850000D02*
X156210000Y-69850000D01*
X170180000Y-68540000D02*
X165140000Y-68540000D01*
X165140000Y-68540000D02*
X163830000Y-69850000D01*
D17*
X156210000Y-69850000D02*
X155541795Y-69818205D01*
D18*
X155541795Y-69818205D02*
X153670000Y-67310000D01*
D17*
X155541795Y-69818205D02*
X155541795Y-70958205D01*
X155541795Y-70958205D02*
X155000000Y-71500000D01*
X154395000Y-74605000D02*
X155000000Y-74000000D01*
X153339800Y-74605000D02*
X154395000Y-74605000D01*
X155000000Y-74000000D02*
X155000000Y-77664000D01*
X155000000Y-77664000D02*
X155000000Y-77664000D01*
X153018300Y-83200000D02*
X152069800Y-83200000D01*
X153815999Y-82402301D02*
X153018300Y-83200000D01*
X153815999Y-81171999D02*
X153815999Y-82402301D01*
X153416000Y-80772000D02*
X153815999Y-81171999D01*
G04 #@! TO.N,Net-(R04-Pad2)*
X133350000Y-104140000D02*
X139700000Y-104140000D01*
X145400000Y-83200000D02*
X147650200Y-83200000D01*
X143510000Y-85090000D02*
X145400000Y-83200000D01*
X143510000Y-85090000D02*
X143510000Y-103124000D01*
X142494000Y-104140000D02*
X139700000Y-104140000D01*
X143510000Y-103124000D02*
X142494000Y-104140000D01*
G04 #@! TO.N,Net-(R05-Pad2)*
X139700000Y-91440000D02*
X139700000Y-87630000D01*
G04 #@! TD*
M02*
