M48
;DRILL file {KiCad (5.0.1)-4} date 2019-03-02 5:06:16 PM
;FORMAT={-:-/ absolute / inch / decimal}
FMAT,2
INCH,TZ
T1C0.0157
T2C0.0433
T3C0.0472
T4C0.0866
%
G90
G05
M72
T1
X5.4Y-2.7
X5.75Y-2.8
X6.04Y-3.18
X6.1024Y-2.815
X6.1024Y-2.815
X6.1024Y-2.815
X6.1024Y-2.9134
X6.1024Y-3.0576
X6.15Y-2.85
X6.45Y-2.5
T2
X6.75Y-3.9516
X6.75Y-4.1484
X6.7Y-2.5016
X6.7Y-2.6984
X4.9Y-3.1016
X4.9Y-3.2984
X4.9Y-2.4516
X4.9Y-2.6484
T3
X5.85Y-3.6
X5.85Y-4.1906
X5.25Y-3.6
X5.25Y-4.1
X6.2094Y-3.35
X6.8Y-3.35
X5.25Y-2.4
X5.25Y-2.9
X6.3Y-3.6
X6.3Y-4.1906
X5.5Y-2.95
X5.5Y-3.45
X5.55Y-2.45
X6.05Y-2.45
X5.5Y-3.6
X5.5Y-4.1
X6.2094Y-3.05
X6.8Y-3.05
X5.55Y-2.65
X6.05Y-2.65
T4
X7.1654Y-2.2047
X7.1654Y-4.2913
X4.6457Y-2.2047
X4.6457Y-4.2913
T0
M30
