G04 #@! TF.GenerationSoftware,KiCad,Pcbnew,(5.0.1)-4*
G04 #@! TF.CreationDate,2019-03-02T17:06:11-06:00*
G04 #@! TF.ProjectId,monitoring,6D6F6E69746F72696E672E6B69636164,rev?*
G04 #@! TF.SameCoordinates,Original*
G04 #@! TF.FileFunction,Soldermask,Bot*
G04 #@! TF.FilePolarity,Negative*
%FSLAX46Y46*%
G04 Gerber Fmt 4.6, Leading zero omitted, Abs format (unit mm)*
G04 Created by KiCad (PCBNEW (5.0.1)-4) date 2019-03-02 5:06:11 PM*
%MOMM*%
%LPD*%
G01*
G04 APERTURE LIST*
%ADD10C,0.100000*%
G04 APERTURE END LIST*
D10*
G36*
X182525331Y-107268211D02*
X182853092Y-107403974D01*
X183148073Y-107601074D01*
X183398926Y-107851927D01*
X183596026Y-108146908D01*
X183731789Y-108474669D01*
X183801000Y-108822616D01*
X183801000Y-109177384D01*
X183731789Y-109525331D01*
X183596026Y-109853092D01*
X183398926Y-110148073D01*
X183148073Y-110398926D01*
X182853092Y-110596026D01*
X182525331Y-110731789D01*
X182177384Y-110801000D01*
X181822616Y-110801000D01*
X181474669Y-110731789D01*
X181146908Y-110596026D01*
X180851927Y-110398926D01*
X180601074Y-110148073D01*
X180403974Y-109853092D01*
X180268211Y-109525331D01*
X180199000Y-109177384D01*
X180199000Y-108822616D01*
X180268211Y-108474669D01*
X180403974Y-108146908D01*
X180601074Y-107851927D01*
X180851927Y-107601074D01*
X181146908Y-107403974D01*
X181474669Y-107268211D01*
X181822616Y-107199000D01*
X182177384Y-107199000D01*
X182525331Y-107268211D01*
X182525331Y-107268211D01*
G37*
G36*
X118525331Y-107268211D02*
X118853092Y-107403974D01*
X119148073Y-107601074D01*
X119398926Y-107851927D01*
X119596026Y-108146908D01*
X119731789Y-108474669D01*
X119801000Y-108822616D01*
X119801000Y-109177384D01*
X119731789Y-109525331D01*
X119596026Y-109853092D01*
X119398926Y-110148073D01*
X119148073Y-110398926D01*
X118853092Y-110596026D01*
X118525331Y-110731789D01*
X118177384Y-110801000D01*
X117822616Y-110801000D01*
X117474669Y-110731789D01*
X117146908Y-110596026D01*
X116851927Y-110398926D01*
X116601074Y-110148073D01*
X116403974Y-109853092D01*
X116268211Y-109525331D01*
X116199000Y-109177384D01*
X116199000Y-108822616D01*
X116268211Y-108474669D01*
X116403974Y-108146908D01*
X116601074Y-107851927D01*
X116851927Y-107601074D01*
X117146908Y-107403974D01*
X117474669Y-107268211D01*
X117822616Y-107199000D01*
X118177384Y-107199000D01*
X118525331Y-107268211D01*
X118525331Y-107268211D01*
G37*
G36*
X148773635Y-105201019D02*
X148954903Y-105237075D01*
X149182571Y-105331378D01*
X149386542Y-105467668D01*
X149387469Y-105468287D01*
X149561713Y-105642531D01*
X149561715Y-105642534D01*
X149698622Y-105847429D01*
X149792925Y-106075097D01*
X149841000Y-106316787D01*
X149841000Y-106563213D01*
X149792925Y-106804903D01*
X149698622Y-107032571D01*
X149587417Y-107199000D01*
X149561713Y-107237469D01*
X149387469Y-107411713D01*
X149387466Y-107411715D01*
X149182571Y-107548622D01*
X148954903Y-107642925D01*
X148773636Y-107678981D01*
X148713214Y-107691000D01*
X148466786Y-107691000D01*
X148406364Y-107678981D01*
X148225097Y-107642925D01*
X147997429Y-107548622D01*
X147792534Y-107411715D01*
X147792531Y-107411713D01*
X147618287Y-107237469D01*
X147592583Y-107199000D01*
X147481378Y-107032571D01*
X147387075Y-106804903D01*
X147339000Y-106563213D01*
X147339000Y-106316787D01*
X147387075Y-106075097D01*
X147481378Y-105847429D01*
X147618285Y-105642534D01*
X147618287Y-105642531D01*
X147792531Y-105468287D01*
X147793458Y-105467668D01*
X147997429Y-105331378D01*
X148225097Y-105237075D01*
X148406365Y-105201019D01*
X148466786Y-105189000D01*
X148713214Y-105189000D01*
X148773635Y-105201019D01*
X148773635Y-105201019D01*
G37*
G36*
X160203635Y-105201019D02*
X160384903Y-105237075D01*
X160612571Y-105331378D01*
X160816542Y-105467668D01*
X160817469Y-105468287D01*
X160991713Y-105642531D01*
X160991715Y-105642534D01*
X161128622Y-105847429D01*
X161222925Y-106075097D01*
X161271000Y-106316787D01*
X161271000Y-106563213D01*
X161222925Y-106804903D01*
X161128622Y-107032571D01*
X161017417Y-107199000D01*
X160991713Y-107237469D01*
X160817469Y-107411713D01*
X160817466Y-107411715D01*
X160612571Y-107548622D01*
X160384903Y-107642925D01*
X160203636Y-107678981D01*
X160143214Y-107691000D01*
X159896786Y-107691000D01*
X159836364Y-107678981D01*
X159655097Y-107642925D01*
X159427429Y-107548622D01*
X159222534Y-107411715D01*
X159222531Y-107411713D01*
X159048287Y-107237469D01*
X159022583Y-107199000D01*
X158911378Y-107032571D01*
X158817075Y-106804903D01*
X158769000Y-106563213D01*
X158769000Y-106316787D01*
X158817075Y-106075097D01*
X158911378Y-105847429D01*
X159048285Y-105642534D01*
X159048287Y-105642531D01*
X159222531Y-105468287D01*
X159223458Y-105467668D01*
X159427429Y-105331378D01*
X159655097Y-105237075D01*
X159836365Y-105201019D01*
X159896786Y-105189000D01*
X160143214Y-105189000D01*
X160203635Y-105201019D01*
X160203635Y-105201019D01*
G37*
G36*
X172326000Y-106246000D02*
X170574000Y-106246000D01*
X170574000Y-104494000D01*
X172326000Y-104494000D01*
X172326000Y-106246000D01*
X172326000Y-106246000D01*
G37*
G36*
X139883636Y-102901019D02*
X140064903Y-102937075D01*
X140292571Y-103031378D01*
X140387488Y-103094800D01*
X140497469Y-103168287D01*
X140671713Y-103342531D01*
X140671715Y-103342534D01*
X140808622Y-103547429D01*
X140902925Y-103775097D01*
X140951000Y-104016787D01*
X140951000Y-104263213D01*
X140902925Y-104504903D01*
X140808622Y-104732571D01*
X140737921Y-104838382D01*
X140671713Y-104937469D01*
X140497469Y-105111713D01*
X140497466Y-105111715D01*
X140292571Y-105248622D01*
X140064903Y-105342925D01*
X139914213Y-105372899D01*
X139823214Y-105391000D01*
X139576786Y-105391000D01*
X139485787Y-105372899D01*
X139335097Y-105342925D01*
X139107429Y-105248622D01*
X138902534Y-105111715D01*
X138902531Y-105111713D01*
X138728287Y-104937469D01*
X138662079Y-104838382D01*
X138591378Y-104732571D01*
X138497075Y-104504903D01*
X138449000Y-104263213D01*
X138449000Y-104016787D01*
X138497075Y-103775097D01*
X138591378Y-103547429D01*
X138728285Y-103342534D01*
X138728287Y-103342531D01*
X138902531Y-103168287D01*
X139012512Y-103094800D01*
X139107429Y-103031378D01*
X139335097Y-102937075D01*
X139516364Y-102901019D01*
X139576786Y-102889000D01*
X139823214Y-102889000D01*
X139883636Y-102901019D01*
X139883636Y-102901019D01*
G37*
G36*
X133595239Y-102907101D02*
X133831053Y-102978634D01*
X134048381Y-103094799D01*
X134238871Y-103251129D01*
X134395201Y-103441619D01*
X134511366Y-103658947D01*
X134582899Y-103894761D01*
X134607053Y-104140000D01*
X134582899Y-104385239D01*
X134511366Y-104621053D01*
X134395201Y-104838381D01*
X134238871Y-105028871D01*
X134048381Y-105185201D01*
X133831053Y-105301366D01*
X133595239Y-105372899D01*
X133411457Y-105391000D01*
X133288543Y-105391000D01*
X133104761Y-105372899D01*
X132868947Y-105301366D01*
X132651619Y-105185201D01*
X132461129Y-105028871D01*
X132304799Y-104838381D01*
X132188634Y-104621053D01*
X132117101Y-104385239D01*
X132092947Y-104140000D01*
X132117101Y-103894761D01*
X132188634Y-103658947D01*
X132304799Y-103441619D01*
X132461129Y-103251129D01*
X132651619Y-103094799D01*
X132868947Y-102978634D01*
X133104761Y-102907101D01*
X133288543Y-102889000D01*
X133411457Y-102889000D01*
X133595239Y-102907101D01*
X133595239Y-102907101D01*
G37*
G36*
X171578589Y-99502416D02*
X171705520Y-99527664D01*
X171864942Y-99593699D01*
X172008418Y-99689566D01*
X172130434Y-99811582D01*
X172226301Y-99955058D01*
X172292336Y-100114480D01*
X172326000Y-100283721D01*
X172326000Y-100456279D01*
X172292336Y-100625520D01*
X172226301Y-100784942D01*
X172130434Y-100928418D01*
X172008418Y-101050434D01*
X171864942Y-101146301D01*
X171705520Y-101212336D01*
X171578589Y-101237584D01*
X171536280Y-101246000D01*
X171363720Y-101246000D01*
X171321411Y-101237584D01*
X171194480Y-101212336D01*
X171035058Y-101146301D01*
X170891582Y-101050434D01*
X170769566Y-100928418D01*
X170673699Y-100784942D01*
X170607664Y-100625520D01*
X170574000Y-100456279D01*
X170574000Y-100283721D01*
X170607664Y-100114480D01*
X170673699Y-99955058D01*
X170769566Y-99811582D01*
X170891582Y-99689566D01*
X171035058Y-99593699D01*
X171194480Y-99527664D01*
X171321411Y-99502416D01*
X171363720Y-99494000D01*
X171536280Y-99494000D01*
X171578589Y-99502416D01*
X171578589Y-99502416D01*
G37*
G36*
X148773636Y-90201019D02*
X148954903Y-90237075D01*
X149182571Y-90331378D01*
X149277488Y-90394800D01*
X149387469Y-90468287D01*
X149561713Y-90642531D01*
X149561715Y-90642534D01*
X149698622Y-90847429D01*
X149792925Y-91075097D01*
X149841000Y-91316787D01*
X149841000Y-91563213D01*
X149792925Y-91804903D01*
X149698622Y-92032571D01*
X149627921Y-92138382D01*
X149561713Y-92237469D01*
X149387469Y-92411713D01*
X149387466Y-92411715D01*
X149182571Y-92548622D01*
X148954903Y-92642925D01*
X148804213Y-92672899D01*
X148713214Y-92691000D01*
X148466786Y-92691000D01*
X148375787Y-92672899D01*
X148225097Y-92642925D01*
X147997429Y-92548622D01*
X147792534Y-92411715D01*
X147792531Y-92411713D01*
X147618287Y-92237469D01*
X147552079Y-92138382D01*
X147481378Y-92032571D01*
X147387075Y-91804903D01*
X147339000Y-91563213D01*
X147339000Y-91316787D01*
X147387075Y-91075097D01*
X147481378Y-90847429D01*
X147618285Y-90642534D01*
X147618287Y-90642531D01*
X147792531Y-90468287D01*
X147902512Y-90394800D01*
X147997429Y-90331378D01*
X148225097Y-90237075D01*
X148406364Y-90201019D01*
X148466786Y-90189000D01*
X148713214Y-90189000D01*
X148773636Y-90201019D01*
X148773636Y-90201019D01*
G37*
G36*
X139945239Y-90207101D02*
X140181053Y-90278634D01*
X140398381Y-90394799D01*
X140588871Y-90551129D01*
X140745201Y-90741619D01*
X140861366Y-90958947D01*
X140932899Y-91194761D01*
X140957053Y-91440000D01*
X140932899Y-91685239D01*
X140861366Y-91921053D01*
X140745201Y-92138381D01*
X140588871Y-92328871D01*
X140398381Y-92485201D01*
X140181053Y-92601366D01*
X139945239Y-92672899D01*
X139761457Y-92691000D01*
X139638543Y-92691000D01*
X139454761Y-92672899D01*
X139218947Y-92601366D01*
X139001619Y-92485201D01*
X138811129Y-92328871D01*
X138654799Y-92138381D01*
X138538634Y-91921053D01*
X138467101Y-91685239D01*
X138442947Y-91440000D01*
X138467101Y-91194761D01*
X138538634Y-90958947D01*
X138654799Y-90741619D01*
X138811129Y-90551129D01*
X139001619Y-90394799D01*
X139218947Y-90278634D01*
X139454761Y-90207101D01*
X139638543Y-90189000D01*
X139761457Y-90189000D01*
X139945239Y-90207101D01*
X139945239Y-90207101D01*
G37*
G36*
X133533636Y-90201019D02*
X133714903Y-90237075D01*
X133942571Y-90331378D01*
X134037488Y-90394800D01*
X134147469Y-90468287D01*
X134321713Y-90642531D01*
X134321715Y-90642534D01*
X134458622Y-90847429D01*
X134552925Y-91075097D01*
X134601000Y-91316787D01*
X134601000Y-91563213D01*
X134552925Y-91804903D01*
X134458622Y-92032571D01*
X134387921Y-92138382D01*
X134321713Y-92237469D01*
X134147469Y-92411713D01*
X134147466Y-92411715D01*
X133942571Y-92548622D01*
X133714903Y-92642925D01*
X133564213Y-92672899D01*
X133473214Y-92691000D01*
X133226786Y-92691000D01*
X133135787Y-92672899D01*
X132985097Y-92642925D01*
X132757429Y-92548622D01*
X132552534Y-92411715D01*
X132552531Y-92411713D01*
X132378287Y-92237469D01*
X132312079Y-92138382D01*
X132241378Y-92032571D01*
X132147075Y-91804903D01*
X132099000Y-91563213D01*
X132099000Y-91316787D01*
X132147075Y-91075097D01*
X132241378Y-90847429D01*
X132378285Y-90642534D01*
X132378287Y-90642531D01*
X132552531Y-90468287D01*
X132662512Y-90394800D01*
X132757429Y-90331378D01*
X132985097Y-90237075D01*
X133166364Y-90201019D01*
X133226786Y-90189000D01*
X133473214Y-90189000D01*
X133533636Y-90201019D01*
X133533636Y-90201019D01*
G37*
G36*
X160203636Y-90201019D02*
X160384903Y-90237075D01*
X160612571Y-90331378D01*
X160707488Y-90394800D01*
X160817469Y-90468287D01*
X160991713Y-90642531D01*
X160991715Y-90642534D01*
X161128622Y-90847429D01*
X161222925Y-91075097D01*
X161271000Y-91316787D01*
X161271000Y-91563213D01*
X161222925Y-91804903D01*
X161128622Y-92032571D01*
X161057921Y-92138382D01*
X160991713Y-92237469D01*
X160817469Y-92411713D01*
X160817466Y-92411715D01*
X160612571Y-92548622D01*
X160384903Y-92642925D01*
X160234213Y-92672899D01*
X160143214Y-92691000D01*
X159896786Y-92691000D01*
X159805787Y-92672899D01*
X159655097Y-92642925D01*
X159427429Y-92548622D01*
X159222534Y-92411715D01*
X159222531Y-92411713D01*
X159048287Y-92237469D01*
X158982079Y-92138382D01*
X158911378Y-92032571D01*
X158817075Y-91804903D01*
X158769000Y-91563213D01*
X158769000Y-91316787D01*
X158817075Y-91075097D01*
X158911378Y-90847429D01*
X159048285Y-90642534D01*
X159048287Y-90642531D01*
X159222531Y-90468287D01*
X159332512Y-90394800D01*
X159427429Y-90331378D01*
X159655097Y-90237075D01*
X159836364Y-90201019D01*
X159896786Y-90189000D01*
X160143214Y-90189000D01*
X160203636Y-90201019D01*
X160203636Y-90201019D01*
G37*
G36*
X139883636Y-86391019D02*
X140064903Y-86427075D01*
X140292571Y-86521378D01*
X140496542Y-86657668D01*
X140497469Y-86658287D01*
X140671713Y-86832531D01*
X140671715Y-86832534D01*
X140808622Y-87037429D01*
X140902925Y-87265097D01*
X140951000Y-87506787D01*
X140951000Y-87753213D01*
X140902925Y-87994903D01*
X140808622Y-88222571D01*
X140672332Y-88426542D01*
X140671713Y-88427469D01*
X140497469Y-88601713D01*
X140497466Y-88601715D01*
X140292571Y-88738622D01*
X140064903Y-88832925D01*
X139883635Y-88868981D01*
X139823214Y-88881000D01*
X139576786Y-88881000D01*
X139516365Y-88868981D01*
X139335097Y-88832925D01*
X139107429Y-88738622D01*
X138902534Y-88601715D01*
X138902531Y-88601713D01*
X138728287Y-88427469D01*
X138727668Y-88426542D01*
X138591378Y-88222571D01*
X138497075Y-87994903D01*
X138449000Y-87753213D01*
X138449000Y-87506787D01*
X138497075Y-87265097D01*
X138591378Y-87037429D01*
X138728285Y-86832534D01*
X138728287Y-86832531D01*
X138902531Y-86658287D01*
X138903458Y-86657668D01*
X139107429Y-86521378D01*
X139335097Y-86427075D01*
X139516364Y-86391019D01*
X139576786Y-86379000D01*
X139823214Y-86379000D01*
X139883636Y-86391019D01*
X139883636Y-86391019D01*
G37*
G36*
X172903636Y-83851019D02*
X173084903Y-83887075D01*
X173312571Y-83981378D01*
X173516542Y-84117668D01*
X173517469Y-84118287D01*
X173691713Y-84292531D01*
X173691715Y-84292534D01*
X173828622Y-84497429D01*
X173922925Y-84725097D01*
X173971000Y-84966787D01*
X173971000Y-85213213D01*
X173922925Y-85454903D01*
X173828622Y-85682571D01*
X173692332Y-85886542D01*
X173691713Y-85887469D01*
X173517469Y-86061713D01*
X173517466Y-86061715D01*
X173312571Y-86198622D01*
X173084903Y-86292925D01*
X172903636Y-86328981D01*
X172843214Y-86341000D01*
X172596786Y-86341000D01*
X172536364Y-86328981D01*
X172355097Y-86292925D01*
X172127429Y-86198622D01*
X171922534Y-86061715D01*
X171922531Y-86061713D01*
X171748287Y-85887469D01*
X171747668Y-85886542D01*
X171611378Y-85682571D01*
X171517075Y-85454903D01*
X171469000Y-85213213D01*
X171469000Y-84966787D01*
X171517075Y-84725097D01*
X171611378Y-84497429D01*
X171748285Y-84292534D01*
X171748287Y-84292531D01*
X171922531Y-84118287D01*
X171923458Y-84117668D01*
X172127429Y-83981378D01*
X172355097Y-83887075D01*
X172536364Y-83851019D01*
X172596786Y-83839000D01*
X172843214Y-83839000D01*
X172903636Y-83851019D01*
X172903636Y-83851019D01*
G37*
G36*
X157903636Y-83851019D02*
X158084903Y-83887075D01*
X158312571Y-83981378D01*
X158516542Y-84117668D01*
X158517469Y-84118287D01*
X158691713Y-84292531D01*
X158691715Y-84292534D01*
X158828622Y-84497429D01*
X158922925Y-84725097D01*
X158971000Y-84966787D01*
X158971000Y-85213213D01*
X158922925Y-85454903D01*
X158828622Y-85682571D01*
X158692332Y-85886542D01*
X158691713Y-85887469D01*
X158517469Y-86061713D01*
X158517466Y-86061715D01*
X158312571Y-86198622D01*
X158084903Y-86292925D01*
X157903636Y-86328981D01*
X157843214Y-86341000D01*
X157596786Y-86341000D01*
X157536364Y-86328981D01*
X157355097Y-86292925D01*
X157127429Y-86198622D01*
X156922534Y-86061715D01*
X156922531Y-86061713D01*
X156748287Y-85887469D01*
X156747668Y-85886542D01*
X156611378Y-85682571D01*
X156517075Y-85454903D01*
X156469000Y-85213213D01*
X156469000Y-84966787D01*
X156517075Y-84725097D01*
X156611378Y-84497429D01*
X156748285Y-84292534D01*
X156748287Y-84292531D01*
X156922531Y-84118287D01*
X156923458Y-84117668D01*
X157127429Y-83981378D01*
X157355097Y-83887075D01*
X157536364Y-83851019D01*
X157596786Y-83839000D01*
X157843214Y-83839000D01*
X157903636Y-83851019D01*
X157903636Y-83851019D01*
G37*
G36*
X125336000Y-84656000D02*
X123584000Y-84656000D01*
X123584000Y-82904000D01*
X125336000Y-82904000D01*
X125336000Y-84656000D01*
X125336000Y-84656000D01*
G37*
G36*
X124588589Y-77912416D02*
X124715520Y-77937664D01*
X124874942Y-78003699D01*
X125018418Y-78099566D01*
X125140434Y-78221582D01*
X125236301Y-78365058D01*
X125302336Y-78524480D01*
X125313105Y-78578621D01*
X125331864Y-78672925D01*
X125336000Y-78693721D01*
X125336000Y-78866279D01*
X125302336Y-79035520D01*
X125236301Y-79194942D01*
X125140434Y-79338418D01*
X125018418Y-79460434D01*
X124874942Y-79556301D01*
X124715520Y-79622336D01*
X124588589Y-79647584D01*
X124546280Y-79656000D01*
X124373720Y-79656000D01*
X124331411Y-79647584D01*
X124204480Y-79622336D01*
X124045058Y-79556301D01*
X123901582Y-79460434D01*
X123779566Y-79338418D01*
X123683699Y-79194942D01*
X123617664Y-79035520D01*
X123584000Y-78866279D01*
X123584000Y-78693721D01*
X123588137Y-78672925D01*
X123606895Y-78578621D01*
X123617664Y-78524480D01*
X123683699Y-78365058D01*
X123779566Y-78221582D01*
X123901582Y-78099566D01*
X124045058Y-78003699D01*
X124204480Y-77937664D01*
X124331411Y-77912416D01*
X124373720Y-77904000D01*
X124546280Y-77904000D01*
X124588589Y-77912416D01*
X124588589Y-77912416D01*
G37*
G36*
X172903635Y-76231019D02*
X173084903Y-76267075D01*
X173312571Y-76361378D01*
X173516542Y-76497668D01*
X173517469Y-76498287D01*
X173691713Y-76672531D01*
X173691715Y-76672534D01*
X173828622Y-76877429D01*
X173922925Y-77105097D01*
X173971000Y-77346787D01*
X173971000Y-77593213D01*
X173922925Y-77834903D01*
X173828622Y-78062571D01*
X173722375Y-78221580D01*
X173691713Y-78267469D01*
X173517469Y-78441713D01*
X173517466Y-78441715D01*
X173312571Y-78578622D01*
X173084903Y-78672925D01*
X172903636Y-78708981D01*
X172843214Y-78721000D01*
X172596786Y-78721000D01*
X172536365Y-78708981D01*
X172355097Y-78672925D01*
X172127429Y-78578622D01*
X171922534Y-78441715D01*
X171922531Y-78441713D01*
X171748287Y-78267469D01*
X171717625Y-78221580D01*
X171611378Y-78062571D01*
X171517075Y-77834903D01*
X171469000Y-77593213D01*
X171469000Y-77346787D01*
X171517075Y-77105097D01*
X171611378Y-76877429D01*
X171748285Y-76672534D01*
X171748287Y-76672531D01*
X171922531Y-76498287D01*
X171923458Y-76497668D01*
X172127429Y-76361378D01*
X172355097Y-76267075D01*
X172536364Y-76231019D01*
X172596786Y-76219000D01*
X172843214Y-76219000D01*
X172903635Y-76231019D01*
X172903635Y-76231019D01*
G37*
G36*
X157903635Y-76231019D02*
X158084903Y-76267075D01*
X158312571Y-76361378D01*
X158516542Y-76497668D01*
X158517469Y-76498287D01*
X158691713Y-76672531D01*
X158691715Y-76672534D01*
X158828622Y-76877429D01*
X158922925Y-77105097D01*
X158971000Y-77346787D01*
X158971000Y-77593213D01*
X158922925Y-77834903D01*
X158828622Y-78062571D01*
X158722375Y-78221580D01*
X158691713Y-78267469D01*
X158517469Y-78441713D01*
X158517466Y-78441715D01*
X158312571Y-78578622D01*
X158084903Y-78672925D01*
X157903636Y-78708981D01*
X157843214Y-78721000D01*
X157596786Y-78721000D01*
X157536365Y-78708981D01*
X157355097Y-78672925D01*
X157127429Y-78578622D01*
X156922534Y-78441715D01*
X156922531Y-78441713D01*
X156748287Y-78267469D01*
X156717625Y-78221580D01*
X156611378Y-78062571D01*
X156517075Y-77834903D01*
X156469000Y-77593213D01*
X156469000Y-77346787D01*
X156517075Y-77105097D01*
X156611378Y-76877429D01*
X156748285Y-76672534D01*
X156748287Y-76672531D01*
X156922531Y-76498287D01*
X156923458Y-76497668D01*
X157127429Y-76361378D01*
X157355097Y-76267075D01*
X157536364Y-76231019D01*
X157596786Y-76219000D01*
X157843214Y-76219000D01*
X157903635Y-76231019D01*
X157903635Y-76231019D01*
G37*
G36*
X139945239Y-73697101D02*
X140181053Y-73768634D01*
X140398381Y-73884799D01*
X140588871Y-74041129D01*
X140745201Y-74231619D01*
X140861366Y-74448947D01*
X140932899Y-74684761D01*
X140957053Y-74930000D01*
X140932899Y-75175239D01*
X140861366Y-75411053D01*
X140745201Y-75628381D01*
X140588871Y-75818871D01*
X140398381Y-75975201D01*
X140181053Y-76091366D01*
X139945239Y-76162899D01*
X139761457Y-76181000D01*
X139638543Y-76181000D01*
X139454761Y-76162899D01*
X139218947Y-76091366D01*
X139001619Y-75975201D01*
X138811129Y-75818871D01*
X138654799Y-75628381D01*
X138538634Y-75411053D01*
X138467101Y-75175239D01*
X138442947Y-74930000D01*
X138467101Y-74684761D01*
X138538634Y-74448947D01*
X138654799Y-74231619D01*
X138811129Y-74041129D01*
X139001619Y-73884799D01*
X139218947Y-73768634D01*
X139454761Y-73697101D01*
X139638543Y-73679000D01*
X139761457Y-73679000D01*
X139945239Y-73697101D01*
X139945239Y-73697101D01*
G37*
G36*
X133595239Y-72427101D02*
X133831053Y-72498634D01*
X134048381Y-72614799D01*
X134238871Y-72771129D01*
X134395201Y-72961619D01*
X134511366Y-73178947D01*
X134582899Y-73414761D01*
X134607053Y-73660000D01*
X134582899Y-73905239D01*
X134511366Y-74141053D01*
X134395201Y-74358381D01*
X134238871Y-74548871D01*
X134048381Y-74705201D01*
X133831053Y-74821366D01*
X133595239Y-74892899D01*
X133411457Y-74911000D01*
X133288543Y-74911000D01*
X133104761Y-74892899D01*
X132868947Y-74821366D01*
X132651619Y-74705201D01*
X132461129Y-74548871D01*
X132304799Y-74358381D01*
X132188634Y-74141053D01*
X132117101Y-73905239D01*
X132092947Y-73660000D01*
X132117101Y-73414761D01*
X132188634Y-73178947D01*
X132304799Y-72961619D01*
X132461129Y-72771129D01*
X132651619Y-72614799D01*
X132868947Y-72498634D01*
X133104761Y-72427101D01*
X133288543Y-72409000D01*
X133411457Y-72409000D01*
X133595239Y-72427101D01*
X133595239Y-72427101D01*
G37*
G36*
X171056000Y-69416000D02*
X169304000Y-69416000D01*
X169304000Y-67664000D01*
X171056000Y-67664000D01*
X171056000Y-69416000D01*
X171056000Y-69416000D01*
G37*
G36*
X153853636Y-66071019D02*
X154034903Y-66107075D01*
X154262571Y-66201378D01*
X154357488Y-66264800D01*
X154467469Y-66338287D01*
X154641713Y-66512531D01*
X154641715Y-66512534D01*
X154778622Y-66717429D01*
X154872925Y-66945097D01*
X154921000Y-67186787D01*
X154921000Y-67433213D01*
X154872925Y-67674903D01*
X154778622Y-67902571D01*
X154707921Y-68008382D01*
X154641713Y-68107469D01*
X154467469Y-68281713D01*
X154467466Y-68281715D01*
X154262571Y-68418622D01*
X154034903Y-68512925D01*
X153884213Y-68542899D01*
X153793214Y-68561000D01*
X153546786Y-68561000D01*
X153455787Y-68542899D01*
X153305097Y-68512925D01*
X153077429Y-68418622D01*
X152872534Y-68281715D01*
X152872531Y-68281713D01*
X152698287Y-68107469D01*
X152632079Y-68008382D01*
X152561378Y-67902571D01*
X152467075Y-67674903D01*
X152419000Y-67433213D01*
X152419000Y-67186787D01*
X152467075Y-66945097D01*
X152561378Y-66717429D01*
X152698285Y-66512534D01*
X152698287Y-66512531D01*
X152872531Y-66338287D01*
X152982512Y-66264800D01*
X153077429Y-66201378D01*
X153305097Y-66107075D01*
X153486364Y-66071019D01*
X153546786Y-66059000D01*
X153793214Y-66059000D01*
X153853636Y-66071019D01*
X153853636Y-66071019D01*
G37*
G36*
X141215239Y-66077101D02*
X141451053Y-66148634D01*
X141668381Y-66264799D01*
X141858871Y-66421129D01*
X142015201Y-66611619D01*
X142131366Y-66828947D01*
X142202899Y-67064761D01*
X142227053Y-67310000D01*
X142202899Y-67555239D01*
X142131366Y-67791053D01*
X142015201Y-68008381D01*
X141858871Y-68198871D01*
X141668381Y-68355201D01*
X141451053Y-68471366D01*
X141215239Y-68542899D01*
X141031457Y-68561000D01*
X140908543Y-68561000D01*
X140724761Y-68542899D01*
X140488947Y-68471366D01*
X140271619Y-68355201D01*
X140081129Y-68198871D01*
X139924799Y-68008381D01*
X139808634Y-67791053D01*
X139737101Y-67555239D01*
X139712947Y-67310000D01*
X139737101Y-67064761D01*
X139808634Y-66828947D01*
X139924799Y-66611619D01*
X140081129Y-66421129D01*
X140271619Y-66264799D01*
X140488947Y-66148634D01*
X140724761Y-66077101D01*
X140908543Y-66059000D01*
X141031457Y-66059000D01*
X141215239Y-66077101D01*
X141215239Y-66077101D01*
G37*
G36*
X124588589Y-66402416D02*
X124715520Y-66427664D01*
X124874942Y-66493699D01*
X125018418Y-66589566D01*
X125140434Y-66711582D01*
X125236301Y-66855058D01*
X125302336Y-67014480D01*
X125336000Y-67183721D01*
X125336000Y-67356279D01*
X125302336Y-67525520D01*
X125236301Y-67684942D01*
X125140434Y-67828418D01*
X125018418Y-67950434D01*
X124874942Y-68046301D01*
X124715520Y-68112336D01*
X124588589Y-68137584D01*
X124546280Y-68146000D01*
X124373720Y-68146000D01*
X124331411Y-68137584D01*
X124204480Y-68112336D01*
X124045058Y-68046301D01*
X123901582Y-67950434D01*
X123779566Y-67828418D01*
X123683699Y-67684942D01*
X123617664Y-67525520D01*
X123584000Y-67356279D01*
X123584000Y-67183721D01*
X123617664Y-67014480D01*
X123683699Y-66855058D01*
X123779566Y-66711582D01*
X123901582Y-66589566D01*
X124045058Y-66493699D01*
X124204480Y-66427664D01*
X124331411Y-66402416D01*
X124373720Y-66394000D01*
X124546280Y-66394000D01*
X124588589Y-66402416D01*
X124588589Y-66402416D01*
G37*
G36*
X170308589Y-62672416D02*
X170435520Y-62697664D01*
X170594942Y-62763699D01*
X170738418Y-62859566D01*
X170860434Y-62981582D01*
X170956301Y-63125058D01*
X171022336Y-63284480D01*
X171033105Y-63338621D01*
X171051864Y-63432925D01*
X171056000Y-63453721D01*
X171056000Y-63626279D01*
X171022336Y-63795520D01*
X170956301Y-63954942D01*
X170860434Y-64098418D01*
X170738418Y-64220434D01*
X170594942Y-64316301D01*
X170435520Y-64382336D01*
X170308589Y-64407584D01*
X170266280Y-64416000D01*
X170093720Y-64416000D01*
X170051411Y-64407584D01*
X169924480Y-64382336D01*
X169765058Y-64316301D01*
X169621582Y-64220434D01*
X169499566Y-64098418D01*
X169403699Y-63954942D01*
X169337664Y-63795520D01*
X169304000Y-63626279D01*
X169304000Y-63453721D01*
X169308137Y-63432925D01*
X169326895Y-63338621D01*
X169337664Y-63284480D01*
X169403699Y-63125058D01*
X169499566Y-62981582D01*
X169621582Y-62859566D01*
X169765058Y-62763699D01*
X169924480Y-62697664D01*
X170051411Y-62672416D01*
X170093720Y-62664000D01*
X170266280Y-62664000D01*
X170308589Y-62672416D01*
X170308589Y-62672416D01*
G37*
G36*
X141153635Y-60991019D02*
X141334903Y-61027075D01*
X141562571Y-61121378D01*
X141657488Y-61184800D01*
X141767469Y-61258287D01*
X141941713Y-61432531D01*
X141941715Y-61432534D01*
X142078622Y-61637429D01*
X142172925Y-61865097D01*
X142221000Y-62106787D01*
X142221000Y-62353213D01*
X142172925Y-62594903D01*
X142078622Y-62822571D01*
X142007921Y-62928382D01*
X141941713Y-63027469D01*
X141767469Y-63201713D01*
X141767466Y-63201715D01*
X141562571Y-63338622D01*
X141334903Y-63432925D01*
X141184213Y-63462899D01*
X141093214Y-63481000D01*
X140846786Y-63481000D01*
X140755787Y-63462899D01*
X140605097Y-63432925D01*
X140377429Y-63338622D01*
X140172534Y-63201715D01*
X140172531Y-63201713D01*
X139998287Y-63027469D01*
X139932079Y-62928382D01*
X139861378Y-62822571D01*
X139767075Y-62594903D01*
X139719000Y-62353213D01*
X139719000Y-62106787D01*
X139767075Y-61865097D01*
X139861378Y-61637429D01*
X139998285Y-61432534D01*
X139998287Y-61432531D01*
X140172531Y-61258287D01*
X140282512Y-61184800D01*
X140377429Y-61121378D01*
X140605097Y-61027075D01*
X140786365Y-60991019D01*
X140846786Y-60979000D01*
X141093214Y-60979000D01*
X141153635Y-60991019D01*
X141153635Y-60991019D01*
G37*
G36*
X153915239Y-60997101D02*
X154151053Y-61068634D01*
X154368381Y-61184799D01*
X154558871Y-61341129D01*
X154715201Y-61531619D01*
X154831366Y-61748947D01*
X154902899Y-61984761D01*
X154927053Y-62230000D01*
X154902899Y-62475239D01*
X154831366Y-62711053D01*
X154715201Y-62928381D01*
X154558871Y-63118871D01*
X154368381Y-63275201D01*
X154151053Y-63391366D01*
X153915239Y-63462899D01*
X153731457Y-63481000D01*
X153608543Y-63481000D01*
X153424761Y-63462899D01*
X153188947Y-63391366D01*
X152971619Y-63275201D01*
X152781129Y-63118871D01*
X152624799Y-62928381D01*
X152508634Y-62711053D01*
X152437101Y-62475239D01*
X152412947Y-62230000D01*
X152437101Y-61984761D01*
X152508634Y-61748947D01*
X152624799Y-61531619D01*
X152781129Y-61341129D01*
X152971619Y-61184799D01*
X153188947Y-61068634D01*
X153424761Y-60997101D01*
X153608543Y-60979000D01*
X153731457Y-60979000D01*
X153915239Y-60997101D01*
X153915239Y-60997101D01*
G37*
G36*
X125336000Y-63146000D02*
X123584000Y-63146000D01*
X123584000Y-61394000D01*
X125336000Y-61394000D01*
X125336000Y-63146000D01*
X125336000Y-63146000D01*
G37*
G36*
X133533636Y-59721019D02*
X133714903Y-59757075D01*
X133942571Y-59851378D01*
X134146542Y-59987668D01*
X134147469Y-59988287D01*
X134321713Y-60162531D01*
X134321715Y-60162534D01*
X134458622Y-60367429D01*
X134552925Y-60595097D01*
X134601000Y-60836787D01*
X134601000Y-61083213D01*
X134552925Y-61324903D01*
X134458622Y-61552571D01*
X134401921Y-61637429D01*
X134321713Y-61757469D01*
X134147469Y-61931713D01*
X134147466Y-61931715D01*
X133942571Y-62068622D01*
X133714903Y-62162925D01*
X133533636Y-62198981D01*
X133473214Y-62211000D01*
X133226786Y-62211000D01*
X133166364Y-62198981D01*
X132985097Y-62162925D01*
X132757429Y-62068622D01*
X132552534Y-61931715D01*
X132552531Y-61931713D01*
X132378287Y-61757469D01*
X132298079Y-61637429D01*
X132241378Y-61552571D01*
X132147075Y-61324903D01*
X132099000Y-61083213D01*
X132099000Y-60836787D01*
X132147075Y-60595097D01*
X132241378Y-60367429D01*
X132378285Y-60162534D01*
X132378287Y-60162531D01*
X132552531Y-59988287D01*
X132553458Y-59987668D01*
X132757429Y-59851378D01*
X132985097Y-59757075D01*
X133166364Y-59721019D01*
X133226786Y-59709000D01*
X133473214Y-59709000D01*
X133533636Y-59721019D01*
X133533636Y-59721019D01*
G37*
G36*
X182525331Y-54268211D02*
X182853092Y-54403974D01*
X183148073Y-54601074D01*
X183398926Y-54851927D01*
X183596026Y-55146908D01*
X183731789Y-55474669D01*
X183801000Y-55822616D01*
X183801000Y-56177384D01*
X183731789Y-56525331D01*
X183596026Y-56853092D01*
X183398926Y-57148073D01*
X183148073Y-57398926D01*
X182853092Y-57596026D01*
X182525331Y-57731789D01*
X182177384Y-57801000D01*
X181822616Y-57801000D01*
X181474669Y-57731789D01*
X181146908Y-57596026D01*
X180851927Y-57398926D01*
X180601074Y-57148073D01*
X180403974Y-56853092D01*
X180268211Y-56525331D01*
X180199000Y-56177384D01*
X180199000Y-55822616D01*
X180268211Y-55474669D01*
X180403974Y-55146908D01*
X180601074Y-54851927D01*
X180851927Y-54601074D01*
X181146908Y-54403974D01*
X181474669Y-54268211D01*
X181822616Y-54199000D01*
X182177384Y-54199000D01*
X182525331Y-54268211D01*
X182525331Y-54268211D01*
G37*
G36*
X118525331Y-54268211D02*
X118853092Y-54403974D01*
X119148073Y-54601074D01*
X119398926Y-54851927D01*
X119596026Y-55146908D01*
X119731789Y-55474669D01*
X119801000Y-55822616D01*
X119801000Y-56177384D01*
X119731789Y-56525331D01*
X119596026Y-56853092D01*
X119398926Y-57148073D01*
X119148073Y-57398926D01*
X118853092Y-57596026D01*
X118525331Y-57731789D01*
X118177384Y-57801000D01*
X117822616Y-57801000D01*
X117474669Y-57731789D01*
X117146908Y-57596026D01*
X116851927Y-57398926D01*
X116601074Y-57148073D01*
X116403974Y-56853092D01*
X116268211Y-56525331D01*
X116199000Y-56177384D01*
X116199000Y-55822616D01*
X116268211Y-55474669D01*
X116403974Y-55146908D01*
X116601074Y-54851927D01*
X116851927Y-54601074D01*
X117146908Y-54403974D01*
X117474669Y-54268211D01*
X117822616Y-54199000D01*
X118177384Y-54199000D01*
X118525331Y-54268211D01*
X118525331Y-54268211D01*
G37*
M02*
