M48
;DRILL file {KiCad (5.0.1)-4} date 2019-03-02 6:56:40 PM
;FORMAT={-:-/ absolute / inch / decimal}
FMAT,2
INCH,TZ
T1C0.0197
T2C0.0394
T3C0.0433
T4C0.0866
%
G90
G05
M72
T1
X7.0966Y-3.2674
X7.0966Y-3.3461
X7.0966Y-3.4248
X7.0966Y-3.5036
X7.0966Y-3.5823
X7.0966Y-3.6611
X7.0966Y-3.7398
X7.0966Y-3.8185
X7.0966Y-3.8973
X7.0966Y-3.976
X7.9628Y-3.2674
X7.9628Y-3.3461
X7.9628Y-3.4248
X7.9628Y-3.5036
X7.9628Y-3.5823
X7.9628Y-3.6611
X7.9628Y-3.7398
X7.9628Y-3.8185
X7.9628Y-3.8973
X7.9628Y-3.976
T2
X5.0984Y-5.2984
X5.1984Y-5.2984
X5.2984Y-5.2984
X5.3984Y-5.2984
X5.4984Y-5.2984
X5.5984Y-5.2984
X6.4984Y-2.2984
X6.4984Y-2.3984
X6.4984Y-2.4984
X6.4984Y-2.5984
X6.4984Y-2.6984
X6.4984Y-2.7984
X6.4984Y-2.8984
X6.4984Y-2.9984
X6.4984Y-3.0984
X6.4984Y-3.1984
X6.4984Y-3.2984
X6.4984Y-3.3984
X6.4984Y-3.4984
X6.4984Y-3.5984
X6.4984Y-3.6984
X6.4984Y-3.7984
X6.4984Y-3.8984
X6.4984Y-3.9984
X6.4984Y-4.0984
X6.4984Y-4.1984
X6.4984Y-4.2984
X6.4984Y-4.3984
X6.4984Y-4.4984
X6.4984Y-4.5984
X6.4984Y-4.6984
X6.4984Y-4.7984
X6.4984Y-4.8984
X6.4984Y-4.9984
X4.6984Y-2.2984
X4.6984Y-2.3984
X4.6984Y-2.4984
X4.6984Y-2.5984
X4.6984Y-2.6984
X4.6984Y-2.7984
X4.6984Y-2.8984
X4.6984Y-2.9984
X4.6984Y-3.0984
X4.6984Y-3.1984
X4.6984Y-3.2984
X4.6984Y-3.3984
X4.6984Y-3.4984
X4.6984Y-3.5984
X4.6984Y-3.6984
X4.6984Y-3.7984
X4.6984Y-3.8984
X4.6984Y-3.9984
X4.6984Y-4.0984
X4.6984Y-4.1984
X4.6984Y-4.2984
X4.6984Y-4.3984
X4.6984Y-4.4984
X4.6984Y-4.5984
X4.6984Y-4.6984
X4.6984Y-4.7984
X4.6984Y-4.8984
X4.6984Y-4.9984
X5.8858Y-2.3031
X5.8858Y-2.4031
X5.8858Y-2.5031
X5.8858Y-2.6031
X5.8858Y-2.7031
X5.8858Y-2.8031
X5.8858Y-2.9031
X5.8858Y-3.0031
X5.8858Y-3.1031
X5.8858Y-3.2031
X5.8858Y-3.3031
X5.8858Y-3.4031
X5.8858Y-3.5031
X5.8858Y-3.6031
X5.8858Y-3.7031
X5.8858Y-3.8031
X5.8858Y-3.9031
X5.8858Y-4.0031
X5.8858Y-4.1031
X5.8858Y-4.2031
X5.8858Y-4.3031
X5.8858Y-4.4031
X5.8858Y-4.5031
X5.8858Y-4.6031
X5.8858Y-4.7031
X5.8858Y-4.8031
X5.8858Y-4.9031
X5.8858Y-5.0031
T3
X7.0016Y-5.0984
X7.1984Y-5.0984
X7.3953Y-5.0984
X6.9031Y-2.3984
X7.1Y-2.3984
X7.2969Y-2.3984
X7.4937Y-2.3984
T4
X4.2717Y-1.8504
X7.9724Y-1.8504
X7.9724Y-5.5512
X4.2717Y-5.5512
T0
M30
