%TF.GenerationSoftware,KiCad,Pcbnew,(5.0.1)-4*%
%TF.CreationDate,2019-03-02T18:56:36-06:00*%
%TF.ProjectId,uC and Xbee,754320616E6420586265652E6B696361,rev?*%
%TF.SameCoordinates,Original*%
%TF.FileFunction,Soldermask,Top*%
%TF.FilePolarity,Negative*%
%FSLAX46Y46*%
G04 Gerber Fmt 4.6, Leading zero omitted, Abs format (unit mm)*
G04 Created by KiCad (PCBNEW (5.0.1)-4) date 2019-03-02 6:56:36 PM*
%MOMM*%
%LPD*%
G01*
G04 APERTURE LIST*
%ADD10C,0.100000*%
G04 APERTURE END LIST*
D10*
G36*
X203025331Y-139268211D02*
X203353092Y-139403974D01*
X203648073Y-139601074D01*
X203898926Y-139851927D01*
X204096026Y-140146908D01*
X204231789Y-140474669D01*
X204301000Y-140822616D01*
X204301000Y-141177384D01*
X204231789Y-141525331D01*
X204096026Y-141853092D01*
X203898926Y-142148073D01*
X203648073Y-142398926D01*
X203353092Y-142596026D01*
X203025331Y-142731789D01*
X202677384Y-142801000D01*
X202322616Y-142801000D01*
X201974669Y-142731789D01*
X201646908Y-142596026D01*
X201351927Y-142398926D01*
X201101074Y-142148073D01*
X200903974Y-141853092D01*
X200768211Y-141525331D01*
X200699000Y-141177384D01*
X200699000Y-140822616D01*
X200768211Y-140474669D01*
X200903974Y-140146908D01*
X201101074Y-139851927D01*
X201351927Y-139601074D01*
X201646908Y-139403974D01*
X201974669Y-139268211D01*
X202322616Y-139199000D01*
X202677384Y-139199000D01*
X203025331Y-139268211D01*
X203025331Y-139268211D01*
G37*
G36*
X109025331Y-139268211D02*
X109353092Y-139403974D01*
X109648073Y-139601074D01*
X109898926Y-139851927D01*
X110096026Y-140146908D01*
X110231789Y-140474669D01*
X110301000Y-140822616D01*
X110301000Y-141177384D01*
X110231789Y-141525331D01*
X110096026Y-141853092D01*
X109898926Y-142148073D01*
X109648073Y-142398926D01*
X109353092Y-142596026D01*
X109025331Y-142731789D01*
X108677384Y-142801000D01*
X108322616Y-142801000D01*
X107974669Y-142731789D01*
X107646908Y-142596026D01*
X107351927Y-142398926D01*
X107101074Y-142148073D01*
X106903974Y-141853092D01*
X106768211Y-141525331D01*
X106699000Y-141177384D01*
X106699000Y-140822616D01*
X106768211Y-140474669D01*
X106903974Y-140146908D01*
X107101074Y-139851927D01*
X107351927Y-139601074D01*
X107646908Y-139403974D01*
X107974669Y-139268211D01*
X108322616Y-139199000D01*
X108677384Y-139199000D01*
X109025331Y-139268211D01*
X109025331Y-139268211D01*
G37*
G36*
X142310442Y-133685518D02*
X142376627Y-133692037D01*
X142489853Y-133726384D01*
X142546467Y-133743557D01*
X142685087Y-133817652D01*
X142702991Y-133827222D01*
X142738729Y-133856552D01*
X142840186Y-133939814D01*
X142923448Y-134041271D01*
X142952778Y-134077009D01*
X142952779Y-134077011D01*
X143036443Y-134233533D01*
X143036443Y-134233534D01*
X143087963Y-134403373D01*
X143105359Y-134580000D01*
X143087963Y-134756627D01*
X143053616Y-134869853D01*
X143036443Y-134926467D01*
X142962348Y-135065087D01*
X142952778Y-135082991D01*
X142923448Y-135118729D01*
X142840186Y-135220186D01*
X142738729Y-135303448D01*
X142702991Y-135332778D01*
X142702989Y-135332779D01*
X142546467Y-135416443D01*
X142489853Y-135433616D01*
X142376627Y-135467963D01*
X142310442Y-135474482D01*
X142244260Y-135481000D01*
X142155740Y-135481000D01*
X142089558Y-135474482D01*
X142023373Y-135467963D01*
X141910147Y-135433616D01*
X141853533Y-135416443D01*
X141697011Y-135332779D01*
X141697009Y-135332778D01*
X141661271Y-135303448D01*
X141559814Y-135220186D01*
X141476552Y-135118729D01*
X141447222Y-135082991D01*
X141437652Y-135065087D01*
X141363557Y-134926467D01*
X141346384Y-134869853D01*
X141312037Y-134756627D01*
X141294641Y-134580000D01*
X141312037Y-134403373D01*
X141363557Y-134233534D01*
X141363557Y-134233533D01*
X141447221Y-134077011D01*
X141447222Y-134077009D01*
X141476552Y-134041271D01*
X141559814Y-133939814D01*
X141661271Y-133856552D01*
X141697009Y-133827222D01*
X141714913Y-133817652D01*
X141853533Y-133743557D01*
X141910147Y-133726384D01*
X142023373Y-133692037D01*
X142089558Y-133685518D01*
X142155740Y-133679000D01*
X142244260Y-133679000D01*
X142310442Y-133685518D01*
X142310442Y-133685518D01*
G37*
G36*
X137230442Y-133685518D02*
X137296627Y-133692037D01*
X137409853Y-133726384D01*
X137466467Y-133743557D01*
X137605087Y-133817652D01*
X137622991Y-133827222D01*
X137658729Y-133856552D01*
X137760186Y-133939814D01*
X137843448Y-134041271D01*
X137872778Y-134077009D01*
X137872779Y-134077011D01*
X137956443Y-134233533D01*
X137956443Y-134233534D01*
X138007963Y-134403373D01*
X138025359Y-134580000D01*
X138007963Y-134756627D01*
X137973616Y-134869853D01*
X137956443Y-134926467D01*
X137882348Y-135065087D01*
X137872778Y-135082991D01*
X137843448Y-135118729D01*
X137760186Y-135220186D01*
X137658729Y-135303448D01*
X137622991Y-135332778D01*
X137622989Y-135332779D01*
X137466467Y-135416443D01*
X137409853Y-135433616D01*
X137296627Y-135467963D01*
X137230442Y-135474482D01*
X137164260Y-135481000D01*
X137075740Y-135481000D01*
X137009558Y-135474482D01*
X136943373Y-135467963D01*
X136830147Y-135433616D01*
X136773533Y-135416443D01*
X136617011Y-135332779D01*
X136617009Y-135332778D01*
X136581271Y-135303448D01*
X136479814Y-135220186D01*
X136396552Y-135118729D01*
X136367222Y-135082991D01*
X136357652Y-135065087D01*
X136283557Y-134926467D01*
X136266384Y-134869853D01*
X136232037Y-134756627D01*
X136214641Y-134580000D01*
X136232037Y-134403373D01*
X136283557Y-134233534D01*
X136283557Y-134233533D01*
X136367221Y-134077011D01*
X136367222Y-134077009D01*
X136396552Y-134041271D01*
X136479814Y-133939814D01*
X136581271Y-133856552D01*
X136617009Y-133827222D01*
X136634913Y-133817652D01*
X136773533Y-133743557D01*
X136830147Y-133726384D01*
X136943373Y-133692037D01*
X137009558Y-133685518D01*
X137075740Y-133679000D01*
X137164260Y-133679000D01*
X137230442Y-133685518D01*
X137230442Y-133685518D01*
G37*
G36*
X130401000Y-135481000D02*
X128599000Y-135481000D01*
X128599000Y-133679000D01*
X130401000Y-133679000D01*
X130401000Y-135481000D01*
X130401000Y-135481000D01*
G37*
G36*
X132150442Y-133685518D02*
X132216627Y-133692037D01*
X132329853Y-133726384D01*
X132386467Y-133743557D01*
X132525087Y-133817652D01*
X132542991Y-133827222D01*
X132578729Y-133856552D01*
X132680186Y-133939814D01*
X132763448Y-134041271D01*
X132792778Y-134077009D01*
X132792779Y-134077011D01*
X132876443Y-134233533D01*
X132876443Y-134233534D01*
X132927963Y-134403373D01*
X132945359Y-134580000D01*
X132927963Y-134756627D01*
X132893616Y-134869853D01*
X132876443Y-134926467D01*
X132802348Y-135065087D01*
X132792778Y-135082991D01*
X132763448Y-135118729D01*
X132680186Y-135220186D01*
X132578729Y-135303448D01*
X132542991Y-135332778D01*
X132542989Y-135332779D01*
X132386467Y-135416443D01*
X132329853Y-135433616D01*
X132216627Y-135467963D01*
X132150442Y-135474482D01*
X132084260Y-135481000D01*
X131995740Y-135481000D01*
X131929558Y-135474482D01*
X131863373Y-135467963D01*
X131750147Y-135433616D01*
X131693533Y-135416443D01*
X131537011Y-135332779D01*
X131537009Y-135332778D01*
X131501271Y-135303448D01*
X131399814Y-135220186D01*
X131316552Y-135118729D01*
X131287222Y-135082991D01*
X131277652Y-135065087D01*
X131203557Y-134926467D01*
X131186384Y-134869853D01*
X131152037Y-134756627D01*
X131134641Y-134580000D01*
X131152037Y-134403373D01*
X131203557Y-134233534D01*
X131203557Y-134233533D01*
X131287221Y-134077011D01*
X131287222Y-134077009D01*
X131316552Y-134041271D01*
X131399814Y-133939814D01*
X131501271Y-133856552D01*
X131537009Y-133827222D01*
X131554913Y-133817652D01*
X131693533Y-133743557D01*
X131750147Y-133726384D01*
X131863373Y-133692037D01*
X131929558Y-133685518D01*
X131995740Y-133679000D01*
X132084260Y-133679000D01*
X132150442Y-133685518D01*
X132150442Y-133685518D01*
G37*
G36*
X139770442Y-133685518D02*
X139836627Y-133692037D01*
X139949853Y-133726384D01*
X140006467Y-133743557D01*
X140145087Y-133817652D01*
X140162991Y-133827222D01*
X140198729Y-133856552D01*
X140300186Y-133939814D01*
X140383448Y-134041271D01*
X140412778Y-134077009D01*
X140412779Y-134077011D01*
X140496443Y-134233533D01*
X140496443Y-134233534D01*
X140547963Y-134403373D01*
X140565359Y-134580000D01*
X140547963Y-134756627D01*
X140513616Y-134869853D01*
X140496443Y-134926467D01*
X140422348Y-135065087D01*
X140412778Y-135082991D01*
X140383448Y-135118729D01*
X140300186Y-135220186D01*
X140198729Y-135303448D01*
X140162991Y-135332778D01*
X140162989Y-135332779D01*
X140006467Y-135416443D01*
X139949853Y-135433616D01*
X139836627Y-135467963D01*
X139770442Y-135474482D01*
X139704260Y-135481000D01*
X139615740Y-135481000D01*
X139549558Y-135474482D01*
X139483373Y-135467963D01*
X139370147Y-135433616D01*
X139313533Y-135416443D01*
X139157011Y-135332779D01*
X139157009Y-135332778D01*
X139121271Y-135303448D01*
X139019814Y-135220186D01*
X138936552Y-135118729D01*
X138907222Y-135082991D01*
X138897652Y-135065087D01*
X138823557Y-134926467D01*
X138806384Y-134869853D01*
X138772037Y-134756627D01*
X138754641Y-134580000D01*
X138772037Y-134403373D01*
X138823557Y-134233534D01*
X138823557Y-134233533D01*
X138907221Y-134077011D01*
X138907222Y-134077009D01*
X138936552Y-134041271D01*
X139019814Y-133939814D01*
X139121271Y-133856552D01*
X139157009Y-133827222D01*
X139174913Y-133817652D01*
X139313533Y-133743557D01*
X139370147Y-133726384D01*
X139483373Y-133692037D01*
X139549558Y-133685518D01*
X139615740Y-133679000D01*
X139704260Y-133679000D01*
X139770442Y-133685518D01*
X139770442Y-133685518D01*
G37*
G36*
X134690442Y-133685518D02*
X134756627Y-133692037D01*
X134869853Y-133726384D01*
X134926467Y-133743557D01*
X135065087Y-133817652D01*
X135082991Y-133827222D01*
X135118729Y-133856552D01*
X135220186Y-133939814D01*
X135303448Y-134041271D01*
X135332778Y-134077009D01*
X135332779Y-134077011D01*
X135416443Y-134233533D01*
X135416443Y-134233534D01*
X135467963Y-134403373D01*
X135485359Y-134580000D01*
X135467963Y-134756627D01*
X135433616Y-134869853D01*
X135416443Y-134926467D01*
X135342348Y-135065087D01*
X135332778Y-135082991D01*
X135303448Y-135118729D01*
X135220186Y-135220186D01*
X135118729Y-135303448D01*
X135082991Y-135332778D01*
X135082989Y-135332779D01*
X134926467Y-135416443D01*
X134869853Y-135433616D01*
X134756627Y-135467963D01*
X134690442Y-135474482D01*
X134624260Y-135481000D01*
X134535740Y-135481000D01*
X134469558Y-135474482D01*
X134403373Y-135467963D01*
X134290147Y-135433616D01*
X134233533Y-135416443D01*
X134077011Y-135332779D01*
X134077009Y-135332778D01*
X134041271Y-135303448D01*
X133939814Y-135220186D01*
X133856552Y-135118729D01*
X133827222Y-135082991D01*
X133817652Y-135065087D01*
X133743557Y-134926467D01*
X133726384Y-134869853D01*
X133692037Y-134756627D01*
X133674641Y-134580000D01*
X133692037Y-134403373D01*
X133743557Y-134233534D01*
X133743557Y-134233533D01*
X133827221Y-134077011D01*
X133827222Y-134077009D01*
X133856552Y-134041271D01*
X133939814Y-133939814D01*
X134041271Y-133856552D01*
X134077009Y-133827222D01*
X134094913Y-133817652D01*
X134233533Y-133743557D01*
X134290147Y-133726384D01*
X134403373Y-133692037D01*
X134469558Y-133685518D01*
X134535740Y-133679000D01*
X134624260Y-133679000D01*
X134690442Y-133685518D01*
X134690442Y-133685518D01*
G37*
G36*
X187968589Y-128632416D02*
X188095520Y-128657664D01*
X188254942Y-128723699D01*
X188398418Y-128819566D01*
X188520434Y-128941582D01*
X188616301Y-129085058D01*
X188682336Y-129244480D01*
X188716000Y-129413721D01*
X188716000Y-129586279D01*
X188682336Y-129755520D01*
X188616301Y-129914942D01*
X188520434Y-130058418D01*
X188398418Y-130180434D01*
X188254942Y-130276301D01*
X188095520Y-130342336D01*
X187968589Y-130367584D01*
X187926280Y-130376000D01*
X187753720Y-130376000D01*
X187711411Y-130367584D01*
X187584480Y-130342336D01*
X187425058Y-130276301D01*
X187281582Y-130180434D01*
X187159566Y-130058418D01*
X187063699Y-129914942D01*
X186997664Y-129755520D01*
X186964000Y-129586279D01*
X186964000Y-129413721D01*
X186997664Y-129244480D01*
X187063699Y-129085058D01*
X187159566Y-128941582D01*
X187281582Y-128819566D01*
X187425058Y-128723699D01*
X187584480Y-128657664D01*
X187711411Y-128632416D01*
X187753720Y-128624000D01*
X187926280Y-128624000D01*
X187968589Y-128632416D01*
X187968589Y-128632416D01*
G37*
G36*
X182968589Y-128632416D02*
X183095520Y-128657664D01*
X183254942Y-128723699D01*
X183398418Y-128819566D01*
X183520434Y-128941582D01*
X183616301Y-129085058D01*
X183682336Y-129244480D01*
X183716000Y-129413721D01*
X183716000Y-129586279D01*
X183682336Y-129755520D01*
X183616301Y-129914942D01*
X183520434Y-130058418D01*
X183398418Y-130180434D01*
X183254942Y-130276301D01*
X183095520Y-130342336D01*
X182968589Y-130367584D01*
X182926280Y-130376000D01*
X182753720Y-130376000D01*
X182711411Y-130367584D01*
X182584480Y-130342336D01*
X182425058Y-130276301D01*
X182281582Y-130180434D01*
X182159566Y-130058418D01*
X182063699Y-129914942D01*
X181997664Y-129755520D01*
X181964000Y-129586279D01*
X181964000Y-129413721D01*
X181997664Y-129244480D01*
X182063699Y-129085058D01*
X182159566Y-128941582D01*
X182281582Y-128819566D01*
X182425058Y-128723699D01*
X182584480Y-128657664D01*
X182711411Y-128632416D01*
X182753720Y-128624000D01*
X182926280Y-128624000D01*
X182968589Y-128632416D01*
X182968589Y-128632416D01*
G37*
G36*
X178716000Y-130376000D02*
X176964000Y-130376000D01*
X176964000Y-128624000D01*
X178716000Y-128624000D01*
X178716000Y-130376000D01*
X178716000Y-130376000D01*
G37*
G36*
X150401000Y-127981000D02*
X148599000Y-127981000D01*
X148599000Y-126179000D01*
X150401000Y-126179000D01*
X150401000Y-127981000D01*
X150401000Y-127981000D01*
G37*
G36*
X119450442Y-126065518D02*
X119516627Y-126072037D01*
X119629853Y-126106384D01*
X119686467Y-126123557D01*
X119790192Y-126179000D01*
X119842991Y-126207222D01*
X119878729Y-126236552D01*
X119980186Y-126319814D01*
X120063448Y-126421271D01*
X120092778Y-126457009D01*
X120092779Y-126457011D01*
X120176443Y-126613533D01*
X120176443Y-126613534D01*
X120227963Y-126783373D01*
X120245359Y-126960000D01*
X120227963Y-127136627D01*
X120193616Y-127249853D01*
X120176443Y-127306467D01*
X120102348Y-127445087D01*
X120092778Y-127462991D01*
X120063448Y-127498729D01*
X119980186Y-127600186D01*
X119878729Y-127683448D01*
X119842991Y-127712778D01*
X119842989Y-127712779D01*
X119686467Y-127796443D01*
X119629853Y-127813616D01*
X119516627Y-127847963D01*
X119450443Y-127854481D01*
X119384260Y-127861000D01*
X119295740Y-127861000D01*
X119229557Y-127854481D01*
X119163373Y-127847963D01*
X119050147Y-127813616D01*
X118993533Y-127796443D01*
X118837011Y-127712779D01*
X118837009Y-127712778D01*
X118801271Y-127683448D01*
X118699814Y-127600186D01*
X118616552Y-127498729D01*
X118587222Y-127462991D01*
X118577652Y-127445087D01*
X118503557Y-127306467D01*
X118486384Y-127249853D01*
X118452037Y-127136627D01*
X118434641Y-126960000D01*
X118452037Y-126783373D01*
X118503557Y-126613534D01*
X118503557Y-126613533D01*
X118587221Y-126457011D01*
X118587222Y-126457009D01*
X118616552Y-126421271D01*
X118699814Y-126319814D01*
X118801271Y-126236552D01*
X118837009Y-126207222D01*
X118889808Y-126179000D01*
X118993533Y-126123557D01*
X119050147Y-126106384D01*
X119163373Y-126072037D01*
X119229558Y-126065518D01*
X119295740Y-126059000D01*
X119384260Y-126059000D01*
X119450442Y-126065518D01*
X119450442Y-126065518D01*
G37*
G36*
X165961000Y-127861000D02*
X164159000Y-127861000D01*
X164159000Y-126059000D01*
X165961000Y-126059000D01*
X165961000Y-127861000D01*
X165961000Y-127861000D01*
G37*
G36*
X149610443Y-123645519D02*
X149676627Y-123652037D01*
X149789853Y-123686384D01*
X149846467Y-123703557D01*
X149985087Y-123777652D01*
X150002991Y-123787222D01*
X150038729Y-123816552D01*
X150140186Y-123899814D01*
X150223448Y-124001271D01*
X150252778Y-124037009D01*
X150252779Y-124037011D01*
X150336443Y-124193533D01*
X150351562Y-124243375D01*
X150387963Y-124363373D01*
X150405359Y-124540000D01*
X150387963Y-124716627D01*
X150372844Y-124766467D01*
X150336443Y-124886467D01*
X150316921Y-124922989D01*
X150252778Y-125042991D01*
X150238667Y-125060185D01*
X150140186Y-125180186D01*
X150047265Y-125256443D01*
X150002991Y-125292778D01*
X150002989Y-125292779D01*
X149846467Y-125376443D01*
X149789853Y-125393616D01*
X149676627Y-125427963D01*
X149610442Y-125434482D01*
X149544260Y-125441000D01*
X149455740Y-125441000D01*
X149389558Y-125434482D01*
X149323373Y-125427963D01*
X149210147Y-125393616D01*
X149153533Y-125376443D01*
X148997011Y-125292779D01*
X148997009Y-125292778D01*
X148952735Y-125256443D01*
X148859814Y-125180186D01*
X148761333Y-125060185D01*
X148747222Y-125042991D01*
X148683079Y-124922989D01*
X148663557Y-124886467D01*
X148627156Y-124766467D01*
X148612037Y-124716627D01*
X148594641Y-124540000D01*
X148612037Y-124363373D01*
X148648438Y-124243375D01*
X148663557Y-124193533D01*
X148747221Y-124037011D01*
X148747222Y-124037009D01*
X148776552Y-124001271D01*
X148859814Y-123899814D01*
X148961271Y-123816552D01*
X148997009Y-123787222D01*
X149014913Y-123777652D01*
X149153533Y-123703557D01*
X149210147Y-123686384D01*
X149323373Y-123652037D01*
X149389557Y-123645519D01*
X149455740Y-123639000D01*
X149544260Y-123639000D01*
X149610443Y-123645519D01*
X149610443Y-123645519D01*
G37*
G36*
X119450443Y-123525519D02*
X119516627Y-123532037D01*
X119629853Y-123566384D01*
X119686467Y-123583557D01*
X119790192Y-123639000D01*
X119842991Y-123667222D01*
X119878729Y-123696552D01*
X119980186Y-123779814D01*
X120063448Y-123881271D01*
X120092778Y-123917009D01*
X120092779Y-123917011D01*
X120176443Y-124073533D01*
X120176443Y-124073534D01*
X120227963Y-124243373D01*
X120245359Y-124420000D01*
X120227963Y-124596627D01*
X120193616Y-124709853D01*
X120176443Y-124766467D01*
X120112301Y-124886466D01*
X120092778Y-124922991D01*
X120063448Y-124958729D01*
X119980186Y-125060186D01*
X119878729Y-125143448D01*
X119842991Y-125172778D01*
X119842989Y-125172779D01*
X119686467Y-125256443D01*
X119629853Y-125273616D01*
X119516627Y-125307963D01*
X119450443Y-125314481D01*
X119384260Y-125321000D01*
X119295740Y-125321000D01*
X119229557Y-125314481D01*
X119163373Y-125307963D01*
X119050147Y-125273616D01*
X118993533Y-125256443D01*
X118837011Y-125172779D01*
X118837009Y-125172778D01*
X118801271Y-125143448D01*
X118699814Y-125060186D01*
X118616552Y-124958729D01*
X118587222Y-124922991D01*
X118567699Y-124886466D01*
X118503557Y-124766467D01*
X118486384Y-124709853D01*
X118452037Y-124596627D01*
X118434641Y-124420000D01*
X118452037Y-124243373D01*
X118503557Y-124073534D01*
X118503557Y-124073533D01*
X118587221Y-123917011D01*
X118587222Y-123917009D01*
X118616552Y-123881271D01*
X118699814Y-123779814D01*
X118801271Y-123696552D01*
X118837009Y-123667222D01*
X118889808Y-123639000D01*
X118993533Y-123583557D01*
X119050147Y-123566384D01*
X119163373Y-123532037D01*
X119229557Y-123525519D01*
X119295740Y-123519000D01*
X119384260Y-123519000D01*
X119450443Y-123525519D01*
X119450443Y-123525519D01*
G37*
G36*
X165170443Y-123525519D02*
X165236627Y-123532037D01*
X165349853Y-123566384D01*
X165406467Y-123583557D01*
X165510192Y-123639000D01*
X165562991Y-123667222D01*
X165598729Y-123696552D01*
X165700186Y-123779814D01*
X165783448Y-123881271D01*
X165812778Y-123917009D01*
X165812779Y-123917011D01*
X165896443Y-124073533D01*
X165896443Y-124073534D01*
X165947963Y-124243373D01*
X165965359Y-124420000D01*
X165947963Y-124596627D01*
X165913616Y-124709853D01*
X165896443Y-124766467D01*
X165832301Y-124886466D01*
X165812778Y-124922991D01*
X165783448Y-124958729D01*
X165700186Y-125060186D01*
X165598729Y-125143448D01*
X165562991Y-125172778D01*
X165562989Y-125172779D01*
X165406467Y-125256443D01*
X165349853Y-125273616D01*
X165236627Y-125307963D01*
X165170443Y-125314481D01*
X165104260Y-125321000D01*
X165015740Y-125321000D01*
X164949557Y-125314481D01*
X164883373Y-125307963D01*
X164770147Y-125273616D01*
X164713533Y-125256443D01*
X164557011Y-125172779D01*
X164557009Y-125172778D01*
X164521271Y-125143448D01*
X164419814Y-125060186D01*
X164336552Y-124958729D01*
X164307222Y-124922991D01*
X164287699Y-124886466D01*
X164223557Y-124766467D01*
X164206384Y-124709853D01*
X164172037Y-124596627D01*
X164154641Y-124420000D01*
X164172037Y-124243373D01*
X164223557Y-124073534D01*
X164223557Y-124073533D01*
X164307221Y-123917011D01*
X164307222Y-123917009D01*
X164336552Y-123881271D01*
X164419814Y-123779814D01*
X164521271Y-123696552D01*
X164557009Y-123667222D01*
X164609808Y-123639000D01*
X164713533Y-123583557D01*
X164770147Y-123566384D01*
X164883373Y-123532037D01*
X164949557Y-123525519D01*
X165015740Y-123519000D01*
X165104260Y-123519000D01*
X165170443Y-123525519D01*
X165170443Y-123525519D01*
G37*
G36*
X149610442Y-121105518D02*
X149676627Y-121112037D01*
X149789853Y-121146384D01*
X149846467Y-121163557D01*
X149985087Y-121237652D01*
X150002991Y-121247222D01*
X150038729Y-121276552D01*
X150140186Y-121359814D01*
X150223448Y-121461271D01*
X150252778Y-121497009D01*
X150252779Y-121497011D01*
X150336443Y-121653533D01*
X150351562Y-121703375D01*
X150387963Y-121823373D01*
X150405359Y-122000000D01*
X150387963Y-122176627D01*
X150372844Y-122226467D01*
X150336443Y-122346467D01*
X150316921Y-122382989D01*
X150252778Y-122502991D01*
X150238667Y-122520185D01*
X150140186Y-122640186D01*
X150047265Y-122716443D01*
X150002991Y-122752778D01*
X150002989Y-122752779D01*
X149846467Y-122836443D01*
X149789853Y-122853616D01*
X149676627Y-122887963D01*
X149610442Y-122894482D01*
X149544260Y-122901000D01*
X149455740Y-122901000D01*
X149389558Y-122894482D01*
X149323373Y-122887963D01*
X149210147Y-122853616D01*
X149153533Y-122836443D01*
X148997011Y-122752779D01*
X148997009Y-122752778D01*
X148952735Y-122716443D01*
X148859814Y-122640186D01*
X148761333Y-122520185D01*
X148747222Y-122502991D01*
X148683079Y-122382989D01*
X148663557Y-122346467D01*
X148627156Y-122226467D01*
X148612037Y-122176627D01*
X148594641Y-122000000D01*
X148612037Y-121823373D01*
X148648438Y-121703375D01*
X148663557Y-121653533D01*
X148747221Y-121497011D01*
X148747222Y-121497009D01*
X148776552Y-121461271D01*
X148859814Y-121359814D01*
X148961271Y-121276552D01*
X148997009Y-121247222D01*
X149014913Y-121237652D01*
X149153533Y-121163557D01*
X149210147Y-121146384D01*
X149323373Y-121112037D01*
X149389558Y-121105518D01*
X149455740Y-121099000D01*
X149544260Y-121099000D01*
X149610442Y-121105518D01*
X149610442Y-121105518D01*
G37*
G36*
X119450442Y-120985518D02*
X119516627Y-120992037D01*
X119629853Y-121026384D01*
X119686467Y-121043557D01*
X119790192Y-121099000D01*
X119842991Y-121127222D01*
X119878729Y-121156552D01*
X119980186Y-121239814D01*
X120063448Y-121341271D01*
X120092778Y-121377009D01*
X120092779Y-121377011D01*
X120176443Y-121533533D01*
X120176443Y-121533534D01*
X120227963Y-121703373D01*
X120245359Y-121880000D01*
X120227963Y-122056627D01*
X120193616Y-122169853D01*
X120176443Y-122226467D01*
X120112301Y-122346466D01*
X120092778Y-122382991D01*
X120063448Y-122418729D01*
X119980186Y-122520186D01*
X119878729Y-122603448D01*
X119842991Y-122632778D01*
X119842989Y-122632779D01*
X119686467Y-122716443D01*
X119629853Y-122733616D01*
X119516627Y-122767963D01*
X119450442Y-122774482D01*
X119384260Y-122781000D01*
X119295740Y-122781000D01*
X119229558Y-122774482D01*
X119163373Y-122767963D01*
X119050147Y-122733616D01*
X118993533Y-122716443D01*
X118837011Y-122632779D01*
X118837009Y-122632778D01*
X118801271Y-122603448D01*
X118699814Y-122520186D01*
X118616552Y-122418729D01*
X118587222Y-122382991D01*
X118567699Y-122346466D01*
X118503557Y-122226467D01*
X118486384Y-122169853D01*
X118452037Y-122056627D01*
X118434641Y-121880000D01*
X118452037Y-121703373D01*
X118503557Y-121533534D01*
X118503557Y-121533533D01*
X118587221Y-121377011D01*
X118587222Y-121377009D01*
X118616552Y-121341271D01*
X118699814Y-121239814D01*
X118801271Y-121156552D01*
X118837009Y-121127222D01*
X118889808Y-121099000D01*
X118993533Y-121043557D01*
X119050147Y-121026384D01*
X119163373Y-120992037D01*
X119229558Y-120985518D01*
X119295740Y-120979000D01*
X119384260Y-120979000D01*
X119450442Y-120985518D01*
X119450442Y-120985518D01*
G37*
G36*
X165170442Y-120985518D02*
X165236627Y-120992037D01*
X165349853Y-121026384D01*
X165406467Y-121043557D01*
X165510192Y-121099000D01*
X165562991Y-121127222D01*
X165598729Y-121156552D01*
X165700186Y-121239814D01*
X165783448Y-121341271D01*
X165812778Y-121377009D01*
X165812779Y-121377011D01*
X165896443Y-121533533D01*
X165896443Y-121533534D01*
X165947963Y-121703373D01*
X165965359Y-121880000D01*
X165947963Y-122056627D01*
X165913616Y-122169853D01*
X165896443Y-122226467D01*
X165832301Y-122346466D01*
X165812778Y-122382991D01*
X165783448Y-122418729D01*
X165700186Y-122520186D01*
X165598729Y-122603448D01*
X165562991Y-122632778D01*
X165562989Y-122632779D01*
X165406467Y-122716443D01*
X165349853Y-122733616D01*
X165236627Y-122767963D01*
X165170442Y-122774482D01*
X165104260Y-122781000D01*
X165015740Y-122781000D01*
X164949558Y-122774482D01*
X164883373Y-122767963D01*
X164770147Y-122733616D01*
X164713533Y-122716443D01*
X164557011Y-122632779D01*
X164557009Y-122632778D01*
X164521271Y-122603448D01*
X164419814Y-122520186D01*
X164336552Y-122418729D01*
X164307222Y-122382991D01*
X164287699Y-122346466D01*
X164223557Y-122226467D01*
X164206384Y-122169853D01*
X164172037Y-122056627D01*
X164154641Y-121880000D01*
X164172037Y-121703373D01*
X164223557Y-121533534D01*
X164223557Y-121533533D01*
X164307221Y-121377011D01*
X164307222Y-121377009D01*
X164336552Y-121341271D01*
X164419814Y-121239814D01*
X164521271Y-121156552D01*
X164557009Y-121127222D01*
X164609808Y-121099000D01*
X164713533Y-121043557D01*
X164770147Y-121026384D01*
X164883373Y-120992037D01*
X164949558Y-120985518D01*
X165015740Y-120979000D01*
X165104260Y-120979000D01*
X165170442Y-120985518D01*
X165170442Y-120985518D01*
G37*
G36*
X149610442Y-118565518D02*
X149676627Y-118572037D01*
X149789853Y-118606384D01*
X149846467Y-118623557D01*
X149985087Y-118697652D01*
X150002991Y-118707222D01*
X150038729Y-118736552D01*
X150140186Y-118819814D01*
X150223448Y-118921271D01*
X150252778Y-118957009D01*
X150252779Y-118957011D01*
X150336443Y-119113533D01*
X150351562Y-119163375D01*
X150387963Y-119283373D01*
X150405359Y-119460000D01*
X150387963Y-119636627D01*
X150372844Y-119686467D01*
X150336443Y-119806467D01*
X150316921Y-119842989D01*
X150252778Y-119962991D01*
X150238667Y-119980185D01*
X150140186Y-120100186D01*
X150047265Y-120176443D01*
X150002991Y-120212778D01*
X150002989Y-120212779D01*
X149846467Y-120296443D01*
X149789853Y-120313616D01*
X149676627Y-120347963D01*
X149610442Y-120354482D01*
X149544260Y-120361000D01*
X149455740Y-120361000D01*
X149389558Y-120354482D01*
X149323373Y-120347963D01*
X149210147Y-120313616D01*
X149153533Y-120296443D01*
X148997011Y-120212779D01*
X148997009Y-120212778D01*
X148952735Y-120176443D01*
X148859814Y-120100186D01*
X148761333Y-119980185D01*
X148747222Y-119962991D01*
X148683079Y-119842989D01*
X148663557Y-119806467D01*
X148627156Y-119686467D01*
X148612037Y-119636627D01*
X148594641Y-119460000D01*
X148612037Y-119283373D01*
X148648438Y-119163375D01*
X148663557Y-119113533D01*
X148747221Y-118957011D01*
X148747222Y-118957009D01*
X148776552Y-118921271D01*
X148859814Y-118819814D01*
X148961271Y-118736552D01*
X148997009Y-118707222D01*
X149014913Y-118697652D01*
X149153533Y-118623557D01*
X149210147Y-118606384D01*
X149323373Y-118572037D01*
X149389558Y-118565518D01*
X149455740Y-118559000D01*
X149544260Y-118559000D01*
X149610442Y-118565518D01*
X149610442Y-118565518D01*
G37*
G36*
X165170442Y-118445518D02*
X165236627Y-118452037D01*
X165349853Y-118486384D01*
X165406467Y-118503557D01*
X165510192Y-118559000D01*
X165562991Y-118587222D01*
X165598729Y-118616552D01*
X165700186Y-118699814D01*
X165783448Y-118801271D01*
X165812778Y-118837009D01*
X165812779Y-118837011D01*
X165896443Y-118993533D01*
X165896443Y-118993534D01*
X165947963Y-119163373D01*
X165965359Y-119340000D01*
X165947963Y-119516627D01*
X165913616Y-119629853D01*
X165896443Y-119686467D01*
X165832301Y-119806466D01*
X165812778Y-119842991D01*
X165783448Y-119878729D01*
X165700186Y-119980186D01*
X165598729Y-120063448D01*
X165562991Y-120092778D01*
X165562989Y-120092779D01*
X165406467Y-120176443D01*
X165349853Y-120193616D01*
X165236627Y-120227963D01*
X165170442Y-120234482D01*
X165104260Y-120241000D01*
X165015740Y-120241000D01*
X164949558Y-120234482D01*
X164883373Y-120227963D01*
X164770147Y-120193616D01*
X164713533Y-120176443D01*
X164557011Y-120092779D01*
X164557009Y-120092778D01*
X164521271Y-120063448D01*
X164419814Y-119980186D01*
X164336552Y-119878729D01*
X164307222Y-119842991D01*
X164287699Y-119806466D01*
X164223557Y-119686467D01*
X164206384Y-119629853D01*
X164172037Y-119516627D01*
X164154641Y-119340000D01*
X164172037Y-119163373D01*
X164223557Y-118993534D01*
X164223557Y-118993533D01*
X164307221Y-118837011D01*
X164307222Y-118837009D01*
X164336552Y-118801271D01*
X164419814Y-118699814D01*
X164521271Y-118616552D01*
X164557009Y-118587222D01*
X164609808Y-118559000D01*
X164713533Y-118503557D01*
X164770147Y-118486384D01*
X164883373Y-118452037D01*
X164949558Y-118445518D01*
X165015740Y-118439000D01*
X165104260Y-118439000D01*
X165170442Y-118445518D01*
X165170442Y-118445518D01*
G37*
G36*
X119450442Y-118445518D02*
X119516627Y-118452037D01*
X119629853Y-118486384D01*
X119686467Y-118503557D01*
X119790192Y-118559000D01*
X119842991Y-118587222D01*
X119878729Y-118616552D01*
X119980186Y-118699814D01*
X120063448Y-118801271D01*
X120092778Y-118837009D01*
X120092779Y-118837011D01*
X120176443Y-118993533D01*
X120176443Y-118993534D01*
X120227963Y-119163373D01*
X120245359Y-119340000D01*
X120227963Y-119516627D01*
X120193616Y-119629853D01*
X120176443Y-119686467D01*
X120112301Y-119806466D01*
X120092778Y-119842991D01*
X120063448Y-119878729D01*
X119980186Y-119980186D01*
X119878729Y-120063448D01*
X119842991Y-120092778D01*
X119842989Y-120092779D01*
X119686467Y-120176443D01*
X119629853Y-120193616D01*
X119516627Y-120227963D01*
X119450442Y-120234482D01*
X119384260Y-120241000D01*
X119295740Y-120241000D01*
X119229558Y-120234482D01*
X119163373Y-120227963D01*
X119050147Y-120193616D01*
X118993533Y-120176443D01*
X118837011Y-120092779D01*
X118837009Y-120092778D01*
X118801271Y-120063448D01*
X118699814Y-119980186D01*
X118616552Y-119878729D01*
X118587222Y-119842991D01*
X118567699Y-119806466D01*
X118503557Y-119686467D01*
X118486384Y-119629853D01*
X118452037Y-119516627D01*
X118434641Y-119340000D01*
X118452037Y-119163373D01*
X118503557Y-118993534D01*
X118503557Y-118993533D01*
X118587221Y-118837011D01*
X118587222Y-118837009D01*
X118616552Y-118801271D01*
X118699814Y-118699814D01*
X118801271Y-118616552D01*
X118837009Y-118587222D01*
X118889808Y-118559000D01*
X118993533Y-118503557D01*
X119050147Y-118486384D01*
X119163373Y-118452037D01*
X119229558Y-118445518D01*
X119295740Y-118439000D01*
X119384260Y-118439000D01*
X119450442Y-118445518D01*
X119450442Y-118445518D01*
G37*
G36*
X149610443Y-116025519D02*
X149676627Y-116032037D01*
X149789853Y-116066384D01*
X149846467Y-116083557D01*
X149985087Y-116157652D01*
X150002991Y-116167222D01*
X150038729Y-116196552D01*
X150140186Y-116279814D01*
X150223448Y-116381271D01*
X150252778Y-116417009D01*
X150252779Y-116417011D01*
X150336443Y-116573533D01*
X150351562Y-116623375D01*
X150387963Y-116743373D01*
X150405359Y-116920000D01*
X150387963Y-117096627D01*
X150372844Y-117146467D01*
X150336443Y-117266467D01*
X150316921Y-117302989D01*
X150252778Y-117422991D01*
X150238667Y-117440185D01*
X150140186Y-117560186D01*
X150047265Y-117636443D01*
X150002991Y-117672778D01*
X150002989Y-117672779D01*
X149846467Y-117756443D01*
X149789853Y-117773616D01*
X149676627Y-117807963D01*
X149610443Y-117814481D01*
X149544260Y-117821000D01*
X149455740Y-117821000D01*
X149389557Y-117814481D01*
X149323373Y-117807963D01*
X149210147Y-117773616D01*
X149153533Y-117756443D01*
X148997011Y-117672779D01*
X148997009Y-117672778D01*
X148952735Y-117636443D01*
X148859814Y-117560186D01*
X148761333Y-117440185D01*
X148747222Y-117422991D01*
X148683079Y-117302989D01*
X148663557Y-117266467D01*
X148627156Y-117146467D01*
X148612037Y-117096627D01*
X148594641Y-116920000D01*
X148612037Y-116743373D01*
X148648438Y-116623375D01*
X148663557Y-116573533D01*
X148747221Y-116417011D01*
X148747222Y-116417009D01*
X148776552Y-116381271D01*
X148859814Y-116279814D01*
X148961271Y-116196552D01*
X148997009Y-116167222D01*
X149014913Y-116157652D01*
X149153533Y-116083557D01*
X149210147Y-116066384D01*
X149323373Y-116032037D01*
X149389557Y-116025519D01*
X149455740Y-116019000D01*
X149544260Y-116019000D01*
X149610443Y-116025519D01*
X149610443Y-116025519D01*
G37*
G36*
X119450442Y-115905518D02*
X119516627Y-115912037D01*
X119629853Y-115946384D01*
X119686467Y-115963557D01*
X119790192Y-116019000D01*
X119842991Y-116047222D01*
X119878729Y-116076552D01*
X119980186Y-116159814D01*
X120063448Y-116261271D01*
X120092778Y-116297009D01*
X120092779Y-116297011D01*
X120176443Y-116453533D01*
X120176443Y-116453534D01*
X120227963Y-116623373D01*
X120245359Y-116800000D01*
X120227963Y-116976627D01*
X120193616Y-117089853D01*
X120176443Y-117146467D01*
X120112301Y-117266466D01*
X120092778Y-117302991D01*
X120063448Y-117338729D01*
X119980186Y-117440186D01*
X119878729Y-117523448D01*
X119842991Y-117552778D01*
X119842989Y-117552779D01*
X119686467Y-117636443D01*
X119629853Y-117653616D01*
X119516627Y-117687963D01*
X119450443Y-117694481D01*
X119384260Y-117701000D01*
X119295740Y-117701000D01*
X119229557Y-117694481D01*
X119163373Y-117687963D01*
X119050147Y-117653616D01*
X118993533Y-117636443D01*
X118837011Y-117552779D01*
X118837009Y-117552778D01*
X118801271Y-117523448D01*
X118699814Y-117440186D01*
X118616552Y-117338729D01*
X118587222Y-117302991D01*
X118567699Y-117266466D01*
X118503557Y-117146467D01*
X118486384Y-117089853D01*
X118452037Y-116976627D01*
X118434641Y-116800000D01*
X118452037Y-116623373D01*
X118503557Y-116453534D01*
X118503557Y-116453533D01*
X118587221Y-116297011D01*
X118587222Y-116297009D01*
X118616552Y-116261271D01*
X118699814Y-116159814D01*
X118801271Y-116076552D01*
X118837009Y-116047222D01*
X118889808Y-116019000D01*
X118993533Y-115963557D01*
X119050147Y-115946384D01*
X119163373Y-115912037D01*
X119229558Y-115905518D01*
X119295740Y-115899000D01*
X119384260Y-115899000D01*
X119450442Y-115905518D01*
X119450442Y-115905518D01*
G37*
G36*
X165170442Y-115905518D02*
X165236627Y-115912037D01*
X165349853Y-115946384D01*
X165406467Y-115963557D01*
X165510192Y-116019000D01*
X165562991Y-116047222D01*
X165598729Y-116076552D01*
X165700186Y-116159814D01*
X165783448Y-116261271D01*
X165812778Y-116297009D01*
X165812779Y-116297011D01*
X165896443Y-116453533D01*
X165896443Y-116453534D01*
X165947963Y-116623373D01*
X165965359Y-116800000D01*
X165947963Y-116976627D01*
X165913616Y-117089853D01*
X165896443Y-117146467D01*
X165832301Y-117266466D01*
X165812778Y-117302991D01*
X165783448Y-117338729D01*
X165700186Y-117440186D01*
X165598729Y-117523448D01*
X165562991Y-117552778D01*
X165562989Y-117552779D01*
X165406467Y-117636443D01*
X165349853Y-117653616D01*
X165236627Y-117687963D01*
X165170443Y-117694481D01*
X165104260Y-117701000D01*
X165015740Y-117701000D01*
X164949557Y-117694481D01*
X164883373Y-117687963D01*
X164770147Y-117653616D01*
X164713533Y-117636443D01*
X164557011Y-117552779D01*
X164557009Y-117552778D01*
X164521271Y-117523448D01*
X164419814Y-117440186D01*
X164336552Y-117338729D01*
X164307222Y-117302991D01*
X164287699Y-117266466D01*
X164223557Y-117146467D01*
X164206384Y-117089853D01*
X164172037Y-116976627D01*
X164154641Y-116800000D01*
X164172037Y-116623373D01*
X164223557Y-116453534D01*
X164223557Y-116453533D01*
X164307221Y-116297011D01*
X164307222Y-116297009D01*
X164336552Y-116261271D01*
X164419814Y-116159814D01*
X164521271Y-116076552D01*
X164557009Y-116047222D01*
X164609808Y-116019000D01*
X164713533Y-115963557D01*
X164770147Y-115946384D01*
X164883373Y-115912037D01*
X164949558Y-115905518D01*
X165015740Y-115899000D01*
X165104260Y-115899000D01*
X165170442Y-115905518D01*
X165170442Y-115905518D01*
G37*
G36*
X149610443Y-113485519D02*
X149676627Y-113492037D01*
X149789853Y-113526384D01*
X149846467Y-113543557D01*
X149985087Y-113617652D01*
X150002991Y-113627222D01*
X150038729Y-113656552D01*
X150140186Y-113739814D01*
X150223448Y-113841271D01*
X150252778Y-113877009D01*
X150252779Y-113877011D01*
X150336443Y-114033533D01*
X150351562Y-114083375D01*
X150387963Y-114203373D01*
X150405359Y-114380000D01*
X150387963Y-114556627D01*
X150372844Y-114606467D01*
X150336443Y-114726467D01*
X150316921Y-114762989D01*
X150252778Y-114882991D01*
X150238667Y-114900185D01*
X150140186Y-115020186D01*
X150047265Y-115096443D01*
X150002991Y-115132778D01*
X150002989Y-115132779D01*
X149846467Y-115216443D01*
X149789853Y-115233616D01*
X149676627Y-115267963D01*
X149610442Y-115274482D01*
X149544260Y-115281000D01*
X149455740Y-115281000D01*
X149389558Y-115274482D01*
X149323373Y-115267963D01*
X149210147Y-115233616D01*
X149153533Y-115216443D01*
X148997011Y-115132779D01*
X148997009Y-115132778D01*
X148952735Y-115096443D01*
X148859814Y-115020186D01*
X148761333Y-114900185D01*
X148747222Y-114882991D01*
X148683079Y-114762989D01*
X148663557Y-114726467D01*
X148627156Y-114606467D01*
X148612037Y-114556627D01*
X148594641Y-114380000D01*
X148612037Y-114203373D01*
X148648438Y-114083375D01*
X148663557Y-114033533D01*
X148747221Y-113877011D01*
X148747222Y-113877009D01*
X148776552Y-113841271D01*
X148859814Y-113739814D01*
X148961271Y-113656552D01*
X148997009Y-113627222D01*
X149014913Y-113617652D01*
X149153533Y-113543557D01*
X149210147Y-113526384D01*
X149323373Y-113492037D01*
X149389557Y-113485519D01*
X149455740Y-113479000D01*
X149544260Y-113479000D01*
X149610443Y-113485519D01*
X149610443Y-113485519D01*
G37*
G36*
X119450442Y-113365518D02*
X119516627Y-113372037D01*
X119629853Y-113406384D01*
X119686467Y-113423557D01*
X119790192Y-113479000D01*
X119842991Y-113507222D01*
X119878729Y-113536552D01*
X119980186Y-113619814D01*
X120063448Y-113721271D01*
X120092778Y-113757009D01*
X120092779Y-113757011D01*
X120176443Y-113913533D01*
X120176443Y-113913534D01*
X120227963Y-114083373D01*
X120245359Y-114260000D01*
X120227963Y-114436627D01*
X120193616Y-114549853D01*
X120176443Y-114606467D01*
X120112301Y-114726466D01*
X120092778Y-114762991D01*
X120063448Y-114798729D01*
X119980186Y-114900186D01*
X119878729Y-114983448D01*
X119842991Y-115012778D01*
X119842989Y-115012779D01*
X119686467Y-115096443D01*
X119629853Y-115113616D01*
X119516627Y-115147963D01*
X119450442Y-115154482D01*
X119384260Y-115161000D01*
X119295740Y-115161000D01*
X119229558Y-115154482D01*
X119163373Y-115147963D01*
X119050147Y-115113616D01*
X118993533Y-115096443D01*
X118837011Y-115012779D01*
X118837009Y-115012778D01*
X118801271Y-114983448D01*
X118699814Y-114900186D01*
X118616552Y-114798729D01*
X118587222Y-114762991D01*
X118567699Y-114726466D01*
X118503557Y-114606467D01*
X118486384Y-114549853D01*
X118452037Y-114436627D01*
X118434641Y-114260000D01*
X118452037Y-114083373D01*
X118503557Y-113913534D01*
X118503557Y-113913533D01*
X118587221Y-113757011D01*
X118587222Y-113757009D01*
X118616552Y-113721271D01*
X118699814Y-113619814D01*
X118801271Y-113536552D01*
X118837009Y-113507222D01*
X118889808Y-113479000D01*
X118993533Y-113423557D01*
X119050147Y-113406384D01*
X119163373Y-113372037D01*
X119229558Y-113365518D01*
X119295740Y-113359000D01*
X119384260Y-113359000D01*
X119450442Y-113365518D01*
X119450442Y-113365518D01*
G37*
G36*
X165170442Y-113365518D02*
X165236627Y-113372037D01*
X165349853Y-113406384D01*
X165406467Y-113423557D01*
X165510192Y-113479000D01*
X165562991Y-113507222D01*
X165598729Y-113536552D01*
X165700186Y-113619814D01*
X165783448Y-113721271D01*
X165812778Y-113757009D01*
X165812779Y-113757011D01*
X165896443Y-113913533D01*
X165896443Y-113913534D01*
X165947963Y-114083373D01*
X165965359Y-114260000D01*
X165947963Y-114436627D01*
X165913616Y-114549853D01*
X165896443Y-114606467D01*
X165832301Y-114726466D01*
X165812778Y-114762991D01*
X165783448Y-114798729D01*
X165700186Y-114900186D01*
X165598729Y-114983448D01*
X165562991Y-115012778D01*
X165562989Y-115012779D01*
X165406467Y-115096443D01*
X165349853Y-115113616D01*
X165236627Y-115147963D01*
X165170442Y-115154482D01*
X165104260Y-115161000D01*
X165015740Y-115161000D01*
X164949558Y-115154482D01*
X164883373Y-115147963D01*
X164770147Y-115113616D01*
X164713533Y-115096443D01*
X164557011Y-115012779D01*
X164557009Y-115012778D01*
X164521271Y-114983448D01*
X164419814Y-114900186D01*
X164336552Y-114798729D01*
X164307222Y-114762991D01*
X164287699Y-114726466D01*
X164223557Y-114606467D01*
X164206384Y-114549853D01*
X164172037Y-114436627D01*
X164154641Y-114260000D01*
X164172037Y-114083373D01*
X164223557Y-113913534D01*
X164223557Y-113913533D01*
X164307221Y-113757011D01*
X164307222Y-113757009D01*
X164336552Y-113721271D01*
X164419814Y-113619814D01*
X164521271Y-113536552D01*
X164557009Y-113507222D01*
X164609808Y-113479000D01*
X164713533Y-113423557D01*
X164770147Y-113406384D01*
X164883373Y-113372037D01*
X164949558Y-113365518D01*
X165015740Y-113359000D01*
X165104260Y-113359000D01*
X165170442Y-113365518D01*
X165170442Y-113365518D01*
G37*
G36*
X149610442Y-110945518D02*
X149676627Y-110952037D01*
X149789853Y-110986384D01*
X149846467Y-111003557D01*
X149985087Y-111077652D01*
X150002991Y-111087222D01*
X150038729Y-111116552D01*
X150140186Y-111199814D01*
X150223448Y-111301271D01*
X150252778Y-111337009D01*
X150252779Y-111337011D01*
X150336443Y-111493533D01*
X150351562Y-111543375D01*
X150387963Y-111663373D01*
X150405359Y-111840000D01*
X150387963Y-112016627D01*
X150372844Y-112066467D01*
X150336443Y-112186467D01*
X150316921Y-112222989D01*
X150252778Y-112342991D01*
X150238667Y-112360185D01*
X150140186Y-112480186D01*
X150047265Y-112556443D01*
X150002991Y-112592778D01*
X150002989Y-112592779D01*
X149846467Y-112676443D01*
X149789853Y-112693616D01*
X149676627Y-112727963D01*
X149610443Y-112734481D01*
X149544260Y-112741000D01*
X149455740Y-112741000D01*
X149389557Y-112734481D01*
X149323373Y-112727963D01*
X149210147Y-112693616D01*
X149153533Y-112676443D01*
X148997011Y-112592779D01*
X148997009Y-112592778D01*
X148952735Y-112556443D01*
X148859814Y-112480186D01*
X148761333Y-112360185D01*
X148747222Y-112342991D01*
X148683079Y-112222989D01*
X148663557Y-112186467D01*
X148627156Y-112066467D01*
X148612037Y-112016627D01*
X148594641Y-111840000D01*
X148612037Y-111663373D01*
X148648438Y-111543375D01*
X148663557Y-111493533D01*
X148747221Y-111337011D01*
X148747222Y-111337009D01*
X148776552Y-111301271D01*
X148859814Y-111199814D01*
X148961271Y-111116552D01*
X148997009Y-111087222D01*
X149014913Y-111077652D01*
X149153533Y-111003557D01*
X149210147Y-110986384D01*
X149323373Y-110952037D01*
X149389558Y-110945518D01*
X149455740Y-110939000D01*
X149544260Y-110939000D01*
X149610442Y-110945518D01*
X149610442Y-110945518D01*
G37*
G36*
X165170443Y-110825519D02*
X165236627Y-110832037D01*
X165349853Y-110866384D01*
X165406467Y-110883557D01*
X165510192Y-110939000D01*
X165562991Y-110967222D01*
X165598729Y-110996552D01*
X165700186Y-111079814D01*
X165783448Y-111181271D01*
X165812778Y-111217009D01*
X165812779Y-111217011D01*
X165896443Y-111373533D01*
X165896443Y-111373534D01*
X165947963Y-111543373D01*
X165965359Y-111720000D01*
X165947963Y-111896627D01*
X165913616Y-112009853D01*
X165896443Y-112066467D01*
X165832301Y-112186466D01*
X165812778Y-112222991D01*
X165783448Y-112258729D01*
X165700186Y-112360186D01*
X165598729Y-112443448D01*
X165562991Y-112472778D01*
X165562989Y-112472779D01*
X165406467Y-112556443D01*
X165349853Y-112573616D01*
X165236627Y-112607963D01*
X165170442Y-112614482D01*
X165104260Y-112621000D01*
X165015740Y-112621000D01*
X164949558Y-112614482D01*
X164883373Y-112607963D01*
X164770147Y-112573616D01*
X164713533Y-112556443D01*
X164557011Y-112472779D01*
X164557009Y-112472778D01*
X164521271Y-112443448D01*
X164419814Y-112360186D01*
X164336552Y-112258729D01*
X164307222Y-112222991D01*
X164287699Y-112186466D01*
X164223557Y-112066467D01*
X164206384Y-112009853D01*
X164172037Y-111896627D01*
X164154641Y-111720000D01*
X164172037Y-111543373D01*
X164223557Y-111373534D01*
X164223557Y-111373533D01*
X164307221Y-111217011D01*
X164307222Y-111217009D01*
X164336552Y-111181271D01*
X164419814Y-111079814D01*
X164521271Y-110996552D01*
X164557009Y-110967222D01*
X164609808Y-110939000D01*
X164713533Y-110883557D01*
X164770147Y-110866384D01*
X164883373Y-110832037D01*
X164949557Y-110825519D01*
X165015740Y-110819000D01*
X165104260Y-110819000D01*
X165170443Y-110825519D01*
X165170443Y-110825519D01*
G37*
G36*
X119450443Y-110825519D02*
X119516627Y-110832037D01*
X119629853Y-110866384D01*
X119686467Y-110883557D01*
X119790192Y-110939000D01*
X119842991Y-110967222D01*
X119878729Y-110996552D01*
X119980186Y-111079814D01*
X120063448Y-111181271D01*
X120092778Y-111217009D01*
X120092779Y-111217011D01*
X120176443Y-111373533D01*
X120176443Y-111373534D01*
X120227963Y-111543373D01*
X120245359Y-111720000D01*
X120227963Y-111896627D01*
X120193616Y-112009853D01*
X120176443Y-112066467D01*
X120112301Y-112186466D01*
X120092778Y-112222991D01*
X120063448Y-112258729D01*
X119980186Y-112360186D01*
X119878729Y-112443448D01*
X119842991Y-112472778D01*
X119842989Y-112472779D01*
X119686467Y-112556443D01*
X119629853Y-112573616D01*
X119516627Y-112607963D01*
X119450442Y-112614482D01*
X119384260Y-112621000D01*
X119295740Y-112621000D01*
X119229558Y-112614482D01*
X119163373Y-112607963D01*
X119050147Y-112573616D01*
X118993533Y-112556443D01*
X118837011Y-112472779D01*
X118837009Y-112472778D01*
X118801271Y-112443448D01*
X118699814Y-112360186D01*
X118616552Y-112258729D01*
X118587222Y-112222991D01*
X118567699Y-112186466D01*
X118503557Y-112066467D01*
X118486384Y-112009853D01*
X118452037Y-111896627D01*
X118434641Y-111720000D01*
X118452037Y-111543373D01*
X118503557Y-111373534D01*
X118503557Y-111373533D01*
X118587221Y-111217011D01*
X118587222Y-111217009D01*
X118616552Y-111181271D01*
X118699814Y-111079814D01*
X118801271Y-110996552D01*
X118837009Y-110967222D01*
X118889808Y-110939000D01*
X118993533Y-110883557D01*
X119050147Y-110866384D01*
X119163373Y-110832037D01*
X119229557Y-110825519D01*
X119295740Y-110819000D01*
X119384260Y-110819000D01*
X119450443Y-110825519D01*
X119450443Y-110825519D01*
G37*
G36*
X149610442Y-108405518D02*
X149676627Y-108412037D01*
X149789853Y-108446384D01*
X149846467Y-108463557D01*
X149985087Y-108537652D01*
X150002991Y-108547222D01*
X150038729Y-108576552D01*
X150140186Y-108659814D01*
X150223448Y-108761271D01*
X150252778Y-108797009D01*
X150252779Y-108797011D01*
X150336443Y-108953533D01*
X150351562Y-109003375D01*
X150387963Y-109123373D01*
X150405359Y-109300000D01*
X150387963Y-109476627D01*
X150372844Y-109526467D01*
X150336443Y-109646467D01*
X150316921Y-109682989D01*
X150252778Y-109802991D01*
X150238667Y-109820185D01*
X150140186Y-109940186D01*
X150047265Y-110016443D01*
X150002991Y-110052778D01*
X150002989Y-110052779D01*
X149846467Y-110136443D01*
X149789853Y-110153616D01*
X149676627Y-110187963D01*
X149610443Y-110194481D01*
X149544260Y-110201000D01*
X149455740Y-110201000D01*
X149389557Y-110194481D01*
X149323373Y-110187963D01*
X149210147Y-110153616D01*
X149153533Y-110136443D01*
X148997011Y-110052779D01*
X148997009Y-110052778D01*
X148952735Y-110016443D01*
X148859814Y-109940186D01*
X148761333Y-109820185D01*
X148747222Y-109802991D01*
X148683079Y-109682989D01*
X148663557Y-109646467D01*
X148627156Y-109526467D01*
X148612037Y-109476627D01*
X148594641Y-109300000D01*
X148612037Y-109123373D01*
X148648438Y-109003375D01*
X148663557Y-108953533D01*
X148747221Y-108797011D01*
X148747222Y-108797009D01*
X148776552Y-108761271D01*
X148859814Y-108659814D01*
X148961271Y-108576552D01*
X148997009Y-108547222D01*
X149014913Y-108537652D01*
X149153533Y-108463557D01*
X149210147Y-108446384D01*
X149323373Y-108412037D01*
X149389558Y-108405518D01*
X149455740Y-108399000D01*
X149544260Y-108399000D01*
X149610442Y-108405518D01*
X149610442Y-108405518D01*
G37*
G36*
X119450443Y-108285519D02*
X119516627Y-108292037D01*
X119629853Y-108326384D01*
X119686467Y-108343557D01*
X119790192Y-108399000D01*
X119842991Y-108427222D01*
X119878729Y-108456552D01*
X119980186Y-108539814D01*
X120063448Y-108641271D01*
X120092778Y-108677009D01*
X120092779Y-108677011D01*
X120176443Y-108833533D01*
X120176443Y-108833534D01*
X120227963Y-109003373D01*
X120245359Y-109180000D01*
X120227963Y-109356627D01*
X120193616Y-109469853D01*
X120176443Y-109526467D01*
X120112301Y-109646466D01*
X120092778Y-109682991D01*
X120063448Y-109718729D01*
X119980186Y-109820186D01*
X119878729Y-109903448D01*
X119842991Y-109932778D01*
X119842989Y-109932779D01*
X119686467Y-110016443D01*
X119629853Y-110033616D01*
X119516627Y-110067963D01*
X119450442Y-110074482D01*
X119384260Y-110081000D01*
X119295740Y-110081000D01*
X119229558Y-110074482D01*
X119163373Y-110067963D01*
X119050147Y-110033616D01*
X118993533Y-110016443D01*
X118837011Y-109932779D01*
X118837009Y-109932778D01*
X118801271Y-109903448D01*
X118699814Y-109820186D01*
X118616552Y-109718729D01*
X118587222Y-109682991D01*
X118567699Y-109646466D01*
X118503557Y-109526467D01*
X118486384Y-109469853D01*
X118452037Y-109356627D01*
X118434641Y-109180000D01*
X118452037Y-109003373D01*
X118503557Y-108833534D01*
X118503557Y-108833533D01*
X118587221Y-108677011D01*
X118587222Y-108677009D01*
X118616552Y-108641271D01*
X118699814Y-108539814D01*
X118801271Y-108456552D01*
X118837009Y-108427222D01*
X118889808Y-108399000D01*
X118993533Y-108343557D01*
X119050147Y-108326384D01*
X119163373Y-108292037D01*
X119229557Y-108285519D01*
X119295740Y-108279000D01*
X119384260Y-108279000D01*
X119450443Y-108285519D01*
X119450443Y-108285519D01*
G37*
G36*
X165170443Y-108285519D02*
X165236627Y-108292037D01*
X165349853Y-108326384D01*
X165406467Y-108343557D01*
X165510192Y-108399000D01*
X165562991Y-108427222D01*
X165598729Y-108456552D01*
X165700186Y-108539814D01*
X165783448Y-108641271D01*
X165812778Y-108677009D01*
X165812779Y-108677011D01*
X165896443Y-108833533D01*
X165896443Y-108833534D01*
X165947963Y-109003373D01*
X165965359Y-109180000D01*
X165947963Y-109356627D01*
X165913616Y-109469853D01*
X165896443Y-109526467D01*
X165832301Y-109646466D01*
X165812778Y-109682991D01*
X165783448Y-109718729D01*
X165700186Y-109820186D01*
X165598729Y-109903448D01*
X165562991Y-109932778D01*
X165562989Y-109932779D01*
X165406467Y-110016443D01*
X165349853Y-110033616D01*
X165236627Y-110067963D01*
X165170442Y-110074482D01*
X165104260Y-110081000D01*
X165015740Y-110081000D01*
X164949558Y-110074482D01*
X164883373Y-110067963D01*
X164770147Y-110033616D01*
X164713533Y-110016443D01*
X164557011Y-109932779D01*
X164557009Y-109932778D01*
X164521271Y-109903448D01*
X164419814Y-109820186D01*
X164336552Y-109718729D01*
X164307222Y-109682991D01*
X164287699Y-109646466D01*
X164223557Y-109526467D01*
X164206384Y-109469853D01*
X164172037Y-109356627D01*
X164154641Y-109180000D01*
X164172037Y-109003373D01*
X164223557Y-108833534D01*
X164223557Y-108833533D01*
X164307221Y-108677011D01*
X164307222Y-108677009D01*
X164336552Y-108641271D01*
X164419814Y-108539814D01*
X164521271Y-108456552D01*
X164557009Y-108427222D01*
X164609808Y-108399000D01*
X164713533Y-108343557D01*
X164770147Y-108326384D01*
X164883373Y-108292037D01*
X164949557Y-108285519D01*
X165015740Y-108279000D01*
X165104260Y-108279000D01*
X165170443Y-108285519D01*
X165170443Y-108285519D01*
G37*
G36*
X149610442Y-105865518D02*
X149676627Y-105872037D01*
X149789853Y-105906384D01*
X149846467Y-105923557D01*
X149985087Y-105997652D01*
X150002991Y-106007222D01*
X150038729Y-106036552D01*
X150140186Y-106119814D01*
X150223448Y-106221271D01*
X150252778Y-106257009D01*
X150252779Y-106257011D01*
X150336443Y-106413533D01*
X150351562Y-106463375D01*
X150387963Y-106583373D01*
X150405359Y-106760000D01*
X150387963Y-106936627D01*
X150372844Y-106986467D01*
X150336443Y-107106467D01*
X150316921Y-107142989D01*
X150252778Y-107262991D01*
X150238667Y-107280185D01*
X150140186Y-107400186D01*
X150047265Y-107476443D01*
X150002991Y-107512778D01*
X150002989Y-107512779D01*
X149846467Y-107596443D01*
X149789853Y-107613616D01*
X149676627Y-107647963D01*
X149610442Y-107654482D01*
X149544260Y-107661000D01*
X149455740Y-107661000D01*
X149389558Y-107654482D01*
X149323373Y-107647963D01*
X149210147Y-107613616D01*
X149153533Y-107596443D01*
X148997011Y-107512779D01*
X148997009Y-107512778D01*
X148952735Y-107476443D01*
X148859814Y-107400186D01*
X148761333Y-107280185D01*
X148747222Y-107262991D01*
X148683079Y-107142989D01*
X148663557Y-107106467D01*
X148627156Y-106986467D01*
X148612037Y-106936627D01*
X148594641Y-106760000D01*
X148612037Y-106583373D01*
X148648438Y-106463375D01*
X148663557Y-106413533D01*
X148747221Y-106257011D01*
X148747222Y-106257009D01*
X148776552Y-106221271D01*
X148859814Y-106119814D01*
X148961271Y-106036552D01*
X148997009Y-106007222D01*
X149014913Y-105997652D01*
X149153533Y-105923557D01*
X149210147Y-105906384D01*
X149323373Y-105872037D01*
X149389558Y-105865518D01*
X149455740Y-105859000D01*
X149544260Y-105859000D01*
X149610442Y-105865518D01*
X149610442Y-105865518D01*
G37*
G36*
X119450443Y-105745519D02*
X119516627Y-105752037D01*
X119629853Y-105786384D01*
X119686467Y-105803557D01*
X119790192Y-105859000D01*
X119842991Y-105887222D01*
X119878729Y-105916552D01*
X119980186Y-105999814D01*
X120063448Y-106101271D01*
X120092778Y-106137009D01*
X120092779Y-106137011D01*
X120176443Y-106293533D01*
X120176443Y-106293534D01*
X120227963Y-106463373D01*
X120245359Y-106640000D01*
X120227963Y-106816627D01*
X120193616Y-106929853D01*
X120176443Y-106986467D01*
X120112301Y-107106466D01*
X120092778Y-107142991D01*
X120063448Y-107178729D01*
X119980186Y-107280186D01*
X119878729Y-107363448D01*
X119842991Y-107392778D01*
X119842989Y-107392779D01*
X119686467Y-107476443D01*
X119629853Y-107493616D01*
X119516627Y-107527963D01*
X119450443Y-107534481D01*
X119384260Y-107541000D01*
X119295740Y-107541000D01*
X119229557Y-107534481D01*
X119163373Y-107527963D01*
X119050147Y-107493616D01*
X118993533Y-107476443D01*
X118837011Y-107392779D01*
X118837009Y-107392778D01*
X118801271Y-107363448D01*
X118699814Y-107280186D01*
X118616552Y-107178729D01*
X118587222Y-107142991D01*
X118567699Y-107106466D01*
X118503557Y-106986467D01*
X118486384Y-106929853D01*
X118452037Y-106816627D01*
X118434641Y-106640000D01*
X118452037Y-106463373D01*
X118503557Y-106293534D01*
X118503557Y-106293533D01*
X118587221Y-106137011D01*
X118587222Y-106137009D01*
X118616552Y-106101271D01*
X118699814Y-105999814D01*
X118801271Y-105916552D01*
X118837009Y-105887222D01*
X118889808Y-105859000D01*
X118993533Y-105803557D01*
X119050147Y-105786384D01*
X119163373Y-105752037D01*
X119229557Y-105745519D01*
X119295740Y-105739000D01*
X119384260Y-105739000D01*
X119450443Y-105745519D01*
X119450443Y-105745519D01*
G37*
G36*
X165170443Y-105745519D02*
X165236627Y-105752037D01*
X165349853Y-105786384D01*
X165406467Y-105803557D01*
X165510192Y-105859000D01*
X165562991Y-105887222D01*
X165598729Y-105916552D01*
X165700186Y-105999814D01*
X165783448Y-106101271D01*
X165812778Y-106137009D01*
X165812779Y-106137011D01*
X165896443Y-106293533D01*
X165896443Y-106293534D01*
X165947963Y-106463373D01*
X165965359Y-106640000D01*
X165947963Y-106816627D01*
X165913616Y-106929853D01*
X165896443Y-106986467D01*
X165832301Y-107106466D01*
X165812778Y-107142991D01*
X165783448Y-107178729D01*
X165700186Y-107280186D01*
X165598729Y-107363448D01*
X165562991Y-107392778D01*
X165562989Y-107392779D01*
X165406467Y-107476443D01*
X165349853Y-107493616D01*
X165236627Y-107527963D01*
X165170443Y-107534481D01*
X165104260Y-107541000D01*
X165015740Y-107541000D01*
X164949557Y-107534481D01*
X164883373Y-107527963D01*
X164770147Y-107493616D01*
X164713533Y-107476443D01*
X164557011Y-107392779D01*
X164557009Y-107392778D01*
X164521271Y-107363448D01*
X164419814Y-107280186D01*
X164336552Y-107178729D01*
X164307222Y-107142991D01*
X164287699Y-107106466D01*
X164223557Y-106986467D01*
X164206384Y-106929853D01*
X164172037Y-106816627D01*
X164154641Y-106640000D01*
X164172037Y-106463373D01*
X164223557Y-106293534D01*
X164223557Y-106293533D01*
X164307221Y-106137011D01*
X164307222Y-106137009D01*
X164336552Y-106101271D01*
X164419814Y-105999814D01*
X164521271Y-105916552D01*
X164557009Y-105887222D01*
X164609808Y-105859000D01*
X164713533Y-105803557D01*
X164770147Y-105786384D01*
X164883373Y-105752037D01*
X164949557Y-105745519D01*
X165015740Y-105739000D01*
X165104260Y-105739000D01*
X165170443Y-105745519D01*
X165170443Y-105745519D01*
G37*
G36*
X149610443Y-103325519D02*
X149676627Y-103332037D01*
X149789853Y-103366384D01*
X149846467Y-103383557D01*
X149985087Y-103457652D01*
X150002991Y-103467222D01*
X150038729Y-103496552D01*
X150140186Y-103579814D01*
X150223448Y-103681271D01*
X150252778Y-103717009D01*
X150252779Y-103717011D01*
X150336443Y-103873533D01*
X150351562Y-103923375D01*
X150387963Y-104043373D01*
X150405359Y-104220000D01*
X150387963Y-104396627D01*
X150372844Y-104446467D01*
X150336443Y-104566467D01*
X150316921Y-104602989D01*
X150252778Y-104722991D01*
X150238667Y-104740185D01*
X150140186Y-104860186D01*
X150047265Y-104936443D01*
X150002991Y-104972778D01*
X150002989Y-104972779D01*
X149846467Y-105056443D01*
X149789853Y-105073616D01*
X149676627Y-105107963D01*
X149610443Y-105114481D01*
X149544260Y-105121000D01*
X149455740Y-105121000D01*
X149389558Y-105114482D01*
X149323373Y-105107963D01*
X149210147Y-105073616D01*
X149153533Y-105056443D01*
X148997011Y-104972779D01*
X148997009Y-104972778D01*
X148952735Y-104936443D01*
X148859814Y-104860186D01*
X148761333Y-104740185D01*
X148747222Y-104722991D01*
X148683079Y-104602989D01*
X148663557Y-104566467D01*
X148627156Y-104446467D01*
X148612037Y-104396627D01*
X148594641Y-104220000D01*
X148612037Y-104043373D01*
X148648438Y-103923375D01*
X148663557Y-103873533D01*
X148747221Y-103717011D01*
X148747222Y-103717009D01*
X148776552Y-103681271D01*
X148859814Y-103579814D01*
X148961271Y-103496552D01*
X148997009Y-103467222D01*
X149014913Y-103457652D01*
X149153533Y-103383557D01*
X149210147Y-103366384D01*
X149323373Y-103332037D01*
X149389557Y-103325519D01*
X149455740Y-103319000D01*
X149544260Y-103319000D01*
X149610443Y-103325519D01*
X149610443Y-103325519D01*
G37*
G36*
X119450443Y-103205519D02*
X119516627Y-103212037D01*
X119629853Y-103246384D01*
X119686467Y-103263557D01*
X119790192Y-103319000D01*
X119842991Y-103347222D01*
X119878729Y-103376552D01*
X119980186Y-103459814D01*
X120063448Y-103561271D01*
X120092778Y-103597009D01*
X120092779Y-103597011D01*
X120176443Y-103753533D01*
X120176443Y-103753534D01*
X120227963Y-103923373D01*
X120245359Y-104100000D01*
X120227963Y-104276627D01*
X120193616Y-104389853D01*
X120176443Y-104446467D01*
X120112301Y-104566466D01*
X120092778Y-104602991D01*
X120063448Y-104638729D01*
X119980186Y-104740186D01*
X119878729Y-104823448D01*
X119842991Y-104852778D01*
X119842989Y-104852779D01*
X119686467Y-104936443D01*
X119629853Y-104953616D01*
X119516627Y-104987963D01*
X119450443Y-104994481D01*
X119384260Y-105001000D01*
X119295740Y-105001000D01*
X119229558Y-104994482D01*
X119163373Y-104987963D01*
X119050147Y-104953616D01*
X118993533Y-104936443D01*
X118837011Y-104852779D01*
X118837009Y-104852778D01*
X118801271Y-104823448D01*
X118699814Y-104740186D01*
X118616552Y-104638729D01*
X118587222Y-104602991D01*
X118567699Y-104566466D01*
X118503557Y-104446467D01*
X118486384Y-104389853D01*
X118452037Y-104276627D01*
X118434641Y-104100000D01*
X118452037Y-103923373D01*
X118503557Y-103753534D01*
X118503557Y-103753533D01*
X118587221Y-103597011D01*
X118587222Y-103597009D01*
X118616552Y-103561271D01*
X118699814Y-103459814D01*
X118801271Y-103376552D01*
X118837009Y-103347222D01*
X118889808Y-103319000D01*
X118993533Y-103263557D01*
X119050147Y-103246384D01*
X119163373Y-103212037D01*
X119229557Y-103205519D01*
X119295740Y-103199000D01*
X119384260Y-103199000D01*
X119450443Y-103205519D01*
X119450443Y-103205519D01*
G37*
G36*
X165170443Y-103205519D02*
X165236627Y-103212037D01*
X165349853Y-103246384D01*
X165406467Y-103263557D01*
X165510192Y-103319000D01*
X165562991Y-103347222D01*
X165598729Y-103376552D01*
X165700186Y-103459814D01*
X165783448Y-103561271D01*
X165812778Y-103597009D01*
X165812779Y-103597011D01*
X165896443Y-103753533D01*
X165896443Y-103753534D01*
X165947963Y-103923373D01*
X165965359Y-104100000D01*
X165947963Y-104276627D01*
X165913616Y-104389853D01*
X165896443Y-104446467D01*
X165832301Y-104566466D01*
X165812778Y-104602991D01*
X165783448Y-104638729D01*
X165700186Y-104740186D01*
X165598729Y-104823448D01*
X165562991Y-104852778D01*
X165562989Y-104852779D01*
X165406467Y-104936443D01*
X165349853Y-104953616D01*
X165236627Y-104987963D01*
X165170443Y-104994481D01*
X165104260Y-105001000D01*
X165015740Y-105001000D01*
X164949558Y-104994482D01*
X164883373Y-104987963D01*
X164770147Y-104953616D01*
X164713533Y-104936443D01*
X164557011Y-104852779D01*
X164557009Y-104852778D01*
X164521271Y-104823448D01*
X164419814Y-104740186D01*
X164336552Y-104638729D01*
X164307222Y-104602991D01*
X164287699Y-104566466D01*
X164223557Y-104446467D01*
X164206384Y-104389853D01*
X164172037Y-104276627D01*
X164154641Y-104100000D01*
X164172037Y-103923373D01*
X164223557Y-103753534D01*
X164223557Y-103753533D01*
X164307221Y-103597011D01*
X164307222Y-103597009D01*
X164336552Y-103561271D01*
X164419814Y-103459814D01*
X164521271Y-103376552D01*
X164557009Y-103347222D01*
X164609808Y-103319000D01*
X164713533Y-103263557D01*
X164770147Y-103246384D01*
X164883373Y-103212037D01*
X164949557Y-103205519D01*
X165015740Y-103199000D01*
X165104260Y-103199000D01*
X165170443Y-103205519D01*
X165170443Y-103205519D01*
G37*
G36*
X149610442Y-100785518D02*
X149676627Y-100792037D01*
X149789853Y-100826384D01*
X149846467Y-100843557D01*
X149985087Y-100917652D01*
X150002991Y-100927222D01*
X150038729Y-100956552D01*
X150140186Y-101039814D01*
X150223448Y-101141271D01*
X150252778Y-101177009D01*
X150252779Y-101177011D01*
X150336443Y-101333533D01*
X150351562Y-101383375D01*
X150387963Y-101503373D01*
X150405359Y-101680000D01*
X150387963Y-101856627D01*
X150372844Y-101906467D01*
X150336443Y-102026467D01*
X150316921Y-102062989D01*
X150252778Y-102182991D01*
X150238667Y-102200185D01*
X150140186Y-102320186D01*
X150047265Y-102396443D01*
X150002991Y-102432778D01*
X150002989Y-102432779D01*
X149846467Y-102516443D01*
X149789853Y-102533616D01*
X149676627Y-102567963D01*
X149610443Y-102574481D01*
X149544260Y-102581000D01*
X149455740Y-102581000D01*
X149389557Y-102574481D01*
X149323373Y-102567963D01*
X149210147Y-102533616D01*
X149153533Y-102516443D01*
X148997011Y-102432779D01*
X148997009Y-102432778D01*
X148952735Y-102396443D01*
X148859814Y-102320186D01*
X148761333Y-102200185D01*
X148747222Y-102182991D01*
X148683079Y-102062989D01*
X148663557Y-102026467D01*
X148627156Y-101906467D01*
X148612037Y-101856627D01*
X148594641Y-101680000D01*
X148612037Y-101503373D01*
X148648438Y-101383375D01*
X148663557Y-101333533D01*
X148747221Y-101177011D01*
X148747222Y-101177009D01*
X148776552Y-101141271D01*
X148859814Y-101039814D01*
X148961271Y-100956552D01*
X148997009Y-100927222D01*
X149014913Y-100917652D01*
X149153533Y-100843557D01*
X149210147Y-100826384D01*
X149323373Y-100792037D01*
X149389558Y-100785518D01*
X149455740Y-100779000D01*
X149544260Y-100779000D01*
X149610442Y-100785518D01*
X149610442Y-100785518D01*
G37*
G36*
X165170442Y-100665518D02*
X165236627Y-100672037D01*
X165349853Y-100706384D01*
X165406467Y-100723557D01*
X165510192Y-100779000D01*
X165562991Y-100807222D01*
X165598729Y-100836552D01*
X165700186Y-100919814D01*
X165783448Y-101021271D01*
X165812778Y-101057009D01*
X165812779Y-101057011D01*
X165896443Y-101213533D01*
X165913616Y-101270147D01*
X165947963Y-101383373D01*
X165965359Y-101560000D01*
X165947963Y-101736627D01*
X165913616Y-101849853D01*
X165896443Y-101906467D01*
X165832301Y-102026466D01*
X165812778Y-102062991D01*
X165783448Y-102098729D01*
X165700186Y-102200186D01*
X165598729Y-102283448D01*
X165562991Y-102312778D01*
X165562989Y-102312779D01*
X165406467Y-102396443D01*
X165349853Y-102413616D01*
X165236627Y-102447963D01*
X165170443Y-102454481D01*
X165104260Y-102461000D01*
X165015740Y-102461000D01*
X164949557Y-102454481D01*
X164883373Y-102447963D01*
X164770147Y-102413616D01*
X164713533Y-102396443D01*
X164557011Y-102312779D01*
X164557009Y-102312778D01*
X164521271Y-102283448D01*
X164419814Y-102200186D01*
X164336552Y-102098729D01*
X164307222Y-102062991D01*
X164287699Y-102026466D01*
X164223557Y-101906467D01*
X164206384Y-101849853D01*
X164172037Y-101736627D01*
X164154641Y-101560000D01*
X164172037Y-101383373D01*
X164206384Y-101270147D01*
X164223557Y-101213533D01*
X164307221Y-101057011D01*
X164307222Y-101057009D01*
X164336552Y-101021271D01*
X164419814Y-100919814D01*
X164521271Y-100836552D01*
X164557009Y-100807222D01*
X164609808Y-100779000D01*
X164713533Y-100723557D01*
X164770147Y-100706384D01*
X164883373Y-100672037D01*
X164949558Y-100665518D01*
X165015740Y-100659000D01*
X165104260Y-100659000D01*
X165170442Y-100665518D01*
X165170442Y-100665518D01*
G37*
G36*
X119450442Y-100665518D02*
X119516627Y-100672037D01*
X119629853Y-100706384D01*
X119686467Y-100723557D01*
X119790192Y-100779000D01*
X119842991Y-100807222D01*
X119878729Y-100836552D01*
X119980186Y-100919814D01*
X120063448Y-101021271D01*
X120092778Y-101057009D01*
X120092779Y-101057011D01*
X120176443Y-101213533D01*
X120193616Y-101270147D01*
X120227963Y-101383373D01*
X120245359Y-101560000D01*
X120227963Y-101736627D01*
X120193616Y-101849853D01*
X120176443Y-101906467D01*
X120112301Y-102026466D01*
X120092778Y-102062991D01*
X120063448Y-102098729D01*
X119980186Y-102200186D01*
X119878729Y-102283448D01*
X119842991Y-102312778D01*
X119842989Y-102312779D01*
X119686467Y-102396443D01*
X119629853Y-102413616D01*
X119516627Y-102447963D01*
X119450443Y-102454481D01*
X119384260Y-102461000D01*
X119295740Y-102461000D01*
X119229557Y-102454481D01*
X119163373Y-102447963D01*
X119050147Y-102413616D01*
X118993533Y-102396443D01*
X118837011Y-102312779D01*
X118837009Y-102312778D01*
X118801271Y-102283448D01*
X118699814Y-102200186D01*
X118616552Y-102098729D01*
X118587222Y-102062991D01*
X118567699Y-102026466D01*
X118503557Y-101906467D01*
X118486384Y-101849853D01*
X118452037Y-101736627D01*
X118434641Y-101560000D01*
X118452037Y-101383373D01*
X118486384Y-101270147D01*
X118503557Y-101213533D01*
X118587221Y-101057011D01*
X118587222Y-101057009D01*
X118616552Y-101021271D01*
X118699814Y-100919814D01*
X118801271Y-100836552D01*
X118837009Y-100807222D01*
X118889808Y-100779000D01*
X118993533Y-100723557D01*
X119050147Y-100706384D01*
X119163373Y-100672037D01*
X119229558Y-100665518D01*
X119295740Y-100659000D01*
X119384260Y-100659000D01*
X119450442Y-100665518D01*
X119450442Y-100665518D01*
G37*
G36*
X202415885Y-100457328D02*
X202516892Y-100499166D01*
X202607795Y-100559906D01*
X202685094Y-100637205D01*
X202745834Y-100728108D01*
X202787672Y-100829115D01*
X202809000Y-100936336D01*
X202809000Y-101045664D01*
X202787672Y-101152885D01*
X202745834Y-101253892D01*
X202685094Y-101344795D01*
X202607795Y-101422094D01*
X202516892Y-101482834D01*
X202415885Y-101524672D01*
X202308664Y-101546000D01*
X202199336Y-101546000D01*
X202092115Y-101524672D01*
X201991108Y-101482834D01*
X201900205Y-101422094D01*
X201822906Y-101344795D01*
X201762166Y-101253892D01*
X201720328Y-101152885D01*
X201699000Y-101045664D01*
X201699000Y-100936336D01*
X201720328Y-100829115D01*
X201762166Y-100728108D01*
X201822906Y-100637205D01*
X201900205Y-100559906D01*
X201991108Y-100499166D01*
X202092115Y-100457328D01*
X202199336Y-100436000D01*
X202308664Y-100436000D01*
X202415885Y-100457328D01*
X202415885Y-100457328D01*
G37*
G36*
X180415885Y-100457328D02*
X180516892Y-100499166D01*
X180607795Y-100559906D01*
X180685094Y-100637205D01*
X180745834Y-100728108D01*
X180787672Y-100829115D01*
X180809000Y-100936336D01*
X180809000Y-101045664D01*
X180787672Y-101152885D01*
X180745834Y-101253892D01*
X180685094Y-101344795D01*
X180607795Y-101422094D01*
X180516892Y-101482834D01*
X180415885Y-101524672D01*
X180308664Y-101546000D01*
X180199336Y-101546000D01*
X180092115Y-101524672D01*
X179991108Y-101482834D01*
X179900205Y-101422094D01*
X179822906Y-101344795D01*
X179762166Y-101253892D01*
X179720328Y-101152885D01*
X179699000Y-101045664D01*
X179699000Y-100936336D01*
X179720328Y-100829115D01*
X179762166Y-100728108D01*
X179822906Y-100637205D01*
X179900205Y-100559906D01*
X179991108Y-100499166D01*
X180092115Y-100457328D01*
X180199336Y-100436000D01*
X180308664Y-100436000D01*
X180415885Y-100457328D01*
X180415885Y-100457328D01*
G37*
G36*
X149610443Y-98245519D02*
X149676627Y-98252037D01*
X149789853Y-98286384D01*
X149846467Y-98303557D01*
X149985087Y-98377652D01*
X150002991Y-98387222D01*
X150038729Y-98416552D01*
X150140186Y-98499814D01*
X150189501Y-98559906D01*
X150252778Y-98637009D01*
X150252779Y-98637011D01*
X150336443Y-98793533D01*
X150351562Y-98843375D01*
X150387963Y-98963373D01*
X150405359Y-99140000D01*
X150387963Y-99316627D01*
X150372844Y-99366467D01*
X150336443Y-99486467D01*
X150304621Y-99546000D01*
X150252778Y-99642991D01*
X150238667Y-99660185D01*
X150140186Y-99780186D01*
X150047265Y-99856443D01*
X150002991Y-99892778D01*
X150002989Y-99892779D01*
X149846467Y-99976443D01*
X149789853Y-99993616D01*
X149676627Y-100027963D01*
X149610443Y-100034481D01*
X149544260Y-100041000D01*
X149455740Y-100041000D01*
X149389557Y-100034481D01*
X149323373Y-100027963D01*
X149210147Y-99993616D01*
X149153533Y-99976443D01*
X148997011Y-99892779D01*
X148997009Y-99892778D01*
X148952735Y-99856443D01*
X148859814Y-99780186D01*
X148761333Y-99660185D01*
X148747222Y-99642991D01*
X148695379Y-99546000D01*
X148663557Y-99486467D01*
X148627156Y-99366467D01*
X148612037Y-99316627D01*
X148594641Y-99140000D01*
X148612037Y-98963373D01*
X148648438Y-98843375D01*
X148663557Y-98793533D01*
X148747221Y-98637011D01*
X148747222Y-98637009D01*
X148810499Y-98559906D01*
X148859814Y-98499814D01*
X148961271Y-98416552D01*
X148997009Y-98387222D01*
X149014913Y-98377652D01*
X149153533Y-98303557D01*
X149210147Y-98286384D01*
X149323373Y-98252037D01*
X149389558Y-98245518D01*
X149455740Y-98239000D01*
X149544260Y-98239000D01*
X149610443Y-98245519D01*
X149610443Y-98245519D01*
G37*
G36*
X165170443Y-98125519D02*
X165236627Y-98132037D01*
X165349853Y-98166384D01*
X165406467Y-98183557D01*
X165510192Y-98239000D01*
X165562991Y-98267222D01*
X165598729Y-98296552D01*
X165700186Y-98379814D01*
X165763799Y-98457328D01*
X165812778Y-98517009D01*
X165812779Y-98517011D01*
X165896443Y-98673533D01*
X165896443Y-98673534D01*
X165947963Y-98843373D01*
X165965359Y-99020000D01*
X165947963Y-99196627D01*
X165930592Y-99253891D01*
X165896443Y-99366467D01*
X165866709Y-99422094D01*
X165812778Y-99522991D01*
X165811399Y-99524671D01*
X165700186Y-99660186D01*
X165598729Y-99743448D01*
X165562991Y-99772778D01*
X165562989Y-99772779D01*
X165406467Y-99856443D01*
X165349853Y-99873616D01*
X165236627Y-99907963D01*
X165170443Y-99914481D01*
X165104260Y-99921000D01*
X165015740Y-99921000D01*
X164949557Y-99914481D01*
X164883373Y-99907963D01*
X164770147Y-99873616D01*
X164713533Y-99856443D01*
X164557011Y-99772779D01*
X164557009Y-99772778D01*
X164521271Y-99743448D01*
X164419814Y-99660186D01*
X164308601Y-99524671D01*
X164307222Y-99522991D01*
X164253291Y-99422094D01*
X164223557Y-99366467D01*
X164189408Y-99253891D01*
X164172037Y-99196627D01*
X164154641Y-99020000D01*
X164172037Y-98843373D01*
X164223557Y-98673534D01*
X164223557Y-98673533D01*
X164307221Y-98517011D01*
X164307222Y-98517009D01*
X164356201Y-98457328D01*
X164419814Y-98379814D01*
X164521271Y-98296552D01*
X164557009Y-98267222D01*
X164609808Y-98239000D01*
X164713533Y-98183557D01*
X164770147Y-98166384D01*
X164883373Y-98132037D01*
X164949557Y-98125519D01*
X165015740Y-98119000D01*
X165104260Y-98119000D01*
X165170443Y-98125519D01*
X165170443Y-98125519D01*
G37*
G36*
X119450443Y-98125519D02*
X119516627Y-98132037D01*
X119629853Y-98166384D01*
X119686467Y-98183557D01*
X119790192Y-98239000D01*
X119842991Y-98267222D01*
X119878729Y-98296552D01*
X119980186Y-98379814D01*
X120043799Y-98457328D01*
X120092778Y-98517009D01*
X120092779Y-98517011D01*
X120176443Y-98673533D01*
X120176443Y-98673534D01*
X120227963Y-98843373D01*
X120245359Y-99020000D01*
X120227963Y-99196627D01*
X120210592Y-99253891D01*
X120176443Y-99366467D01*
X120146709Y-99422094D01*
X120092778Y-99522991D01*
X120091399Y-99524671D01*
X119980186Y-99660186D01*
X119878729Y-99743448D01*
X119842991Y-99772778D01*
X119842989Y-99772779D01*
X119686467Y-99856443D01*
X119629853Y-99873616D01*
X119516627Y-99907963D01*
X119450443Y-99914481D01*
X119384260Y-99921000D01*
X119295740Y-99921000D01*
X119229557Y-99914481D01*
X119163373Y-99907963D01*
X119050147Y-99873616D01*
X118993533Y-99856443D01*
X118837011Y-99772779D01*
X118837009Y-99772778D01*
X118801271Y-99743448D01*
X118699814Y-99660186D01*
X118588601Y-99524671D01*
X118587222Y-99522991D01*
X118533291Y-99422094D01*
X118503557Y-99366467D01*
X118469408Y-99253891D01*
X118452037Y-99196627D01*
X118434641Y-99020000D01*
X118452037Y-98843373D01*
X118503557Y-98673534D01*
X118503557Y-98673533D01*
X118587221Y-98517011D01*
X118587222Y-98517009D01*
X118636201Y-98457328D01*
X118699814Y-98379814D01*
X118801271Y-98296552D01*
X118837009Y-98267222D01*
X118889808Y-98239000D01*
X118993533Y-98183557D01*
X119050147Y-98166384D01*
X119163373Y-98132037D01*
X119229557Y-98125519D01*
X119295740Y-98119000D01*
X119384260Y-98119000D01*
X119450443Y-98125519D01*
X119450443Y-98125519D01*
G37*
G36*
X202415885Y-98457328D02*
X202516892Y-98499166D01*
X202607795Y-98559906D01*
X202685094Y-98637205D01*
X202745834Y-98728108D01*
X202787672Y-98829115D01*
X202809000Y-98936336D01*
X202809000Y-99045664D01*
X202787672Y-99152885D01*
X202745834Y-99253892D01*
X202685094Y-99344795D01*
X202607795Y-99422094D01*
X202516892Y-99482834D01*
X202415885Y-99524672D01*
X202308664Y-99546000D01*
X202199336Y-99546000D01*
X202092115Y-99524672D01*
X201991108Y-99482834D01*
X201900205Y-99422094D01*
X201822906Y-99344795D01*
X201762166Y-99253892D01*
X201720328Y-99152885D01*
X201699000Y-99045664D01*
X201699000Y-98936336D01*
X201720328Y-98829115D01*
X201762166Y-98728108D01*
X201822906Y-98637205D01*
X201900205Y-98559906D01*
X201991108Y-98499166D01*
X202092115Y-98457328D01*
X202199336Y-98436000D01*
X202308664Y-98436000D01*
X202415885Y-98457328D01*
X202415885Y-98457328D01*
G37*
G36*
X180415885Y-98457328D02*
X180516892Y-98499166D01*
X180607795Y-98559906D01*
X180685094Y-98637205D01*
X180745834Y-98728108D01*
X180787672Y-98829115D01*
X180809000Y-98936336D01*
X180809000Y-99045664D01*
X180787672Y-99152885D01*
X180745834Y-99253892D01*
X180685094Y-99344795D01*
X180607795Y-99422094D01*
X180516892Y-99482834D01*
X180415885Y-99524672D01*
X180308664Y-99546000D01*
X180199336Y-99546000D01*
X180092115Y-99524672D01*
X179991108Y-99482834D01*
X179900205Y-99422094D01*
X179822906Y-99344795D01*
X179762166Y-99253892D01*
X179720328Y-99152885D01*
X179699000Y-99045664D01*
X179699000Y-98936336D01*
X179720328Y-98829115D01*
X179762166Y-98728108D01*
X179822906Y-98637205D01*
X179900205Y-98559906D01*
X179991108Y-98499166D01*
X180092115Y-98457328D01*
X180199336Y-98436000D01*
X180308664Y-98436000D01*
X180415885Y-98457328D01*
X180415885Y-98457328D01*
G37*
G36*
X180415885Y-96457328D02*
X180516892Y-96499166D01*
X180607795Y-96559906D01*
X180685094Y-96637205D01*
X180745834Y-96728108D01*
X180787672Y-96829115D01*
X180809000Y-96936336D01*
X180809000Y-97045664D01*
X180787672Y-97152885D01*
X180745834Y-97253892D01*
X180685094Y-97344795D01*
X180607795Y-97422094D01*
X180516892Y-97482834D01*
X180415885Y-97524672D01*
X180308664Y-97546000D01*
X180199336Y-97546000D01*
X180092115Y-97524672D01*
X179991108Y-97482834D01*
X179900205Y-97422094D01*
X179822906Y-97344795D01*
X179762166Y-97253892D01*
X179720328Y-97152885D01*
X179699000Y-97045664D01*
X179699000Y-96936336D01*
X179720328Y-96829115D01*
X179762166Y-96728108D01*
X179822906Y-96637205D01*
X179900205Y-96559906D01*
X179991108Y-96499166D01*
X180092115Y-96457328D01*
X180199336Y-96436000D01*
X180308664Y-96436000D01*
X180415885Y-96457328D01*
X180415885Y-96457328D01*
G37*
G36*
X202415885Y-96457328D02*
X202516892Y-96499166D01*
X202607795Y-96559906D01*
X202685094Y-96637205D01*
X202745834Y-96728108D01*
X202787672Y-96829115D01*
X202809000Y-96936336D01*
X202809000Y-97045664D01*
X202787672Y-97152885D01*
X202745834Y-97253892D01*
X202685094Y-97344795D01*
X202607795Y-97422094D01*
X202516892Y-97482834D01*
X202415885Y-97524672D01*
X202308664Y-97546000D01*
X202199336Y-97546000D01*
X202092115Y-97524672D01*
X201991108Y-97482834D01*
X201900205Y-97422094D01*
X201822906Y-97344795D01*
X201762166Y-97253892D01*
X201720328Y-97152885D01*
X201699000Y-97045664D01*
X201699000Y-96936336D01*
X201720328Y-96829115D01*
X201762166Y-96728108D01*
X201822906Y-96637205D01*
X201900205Y-96559906D01*
X201991108Y-96499166D01*
X202092115Y-96457328D01*
X202199336Y-96436000D01*
X202308664Y-96436000D01*
X202415885Y-96457328D01*
X202415885Y-96457328D01*
G37*
G36*
X149610443Y-95705519D02*
X149676627Y-95712037D01*
X149789853Y-95746384D01*
X149846467Y-95763557D01*
X149985087Y-95837652D01*
X150002991Y-95847222D01*
X150038729Y-95876552D01*
X150140186Y-95959814D01*
X150223448Y-96061271D01*
X150252778Y-96097009D01*
X150252779Y-96097011D01*
X150336443Y-96253533D01*
X150351562Y-96303375D01*
X150387963Y-96423373D01*
X150405359Y-96600000D01*
X150387963Y-96776627D01*
X150372041Y-96829115D01*
X150336443Y-96946467D01*
X150316921Y-96982989D01*
X150252778Y-97102991D01*
X150238667Y-97120185D01*
X150140186Y-97240186D01*
X150047265Y-97316443D01*
X150002991Y-97352778D01*
X150002989Y-97352779D01*
X149846467Y-97436443D01*
X149789853Y-97453616D01*
X149676627Y-97487963D01*
X149610442Y-97494482D01*
X149544260Y-97501000D01*
X149455740Y-97501000D01*
X149389558Y-97494482D01*
X149323373Y-97487963D01*
X149210147Y-97453616D01*
X149153533Y-97436443D01*
X148997011Y-97352779D01*
X148997009Y-97352778D01*
X148952735Y-97316443D01*
X148859814Y-97240186D01*
X148761333Y-97120185D01*
X148747222Y-97102991D01*
X148683079Y-96982989D01*
X148663557Y-96946467D01*
X148627959Y-96829115D01*
X148612037Y-96776627D01*
X148594641Y-96600000D01*
X148612037Y-96423373D01*
X148648438Y-96303375D01*
X148663557Y-96253533D01*
X148747221Y-96097011D01*
X148747222Y-96097009D01*
X148776552Y-96061271D01*
X148859814Y-95959814D01*
X148961271Y-95876552D01*
X148997009Y-95847222D01*
X149014913Y-95837652D01*
X149153533Y-95763557D01*
X149210147Y-95746384D01*
X149323373Y-95712037D01*
X149389557Y-95705519D01*
X149455740Y-95699000D01*
X149544260Y-95699000D01*
X149610443Y-95705519D01*
X149610443Y-95705519D01*
G37*
G36*
X119450443Y-95585519D02*
X119516627Y-95592037D01*
X119629853Y-95626384D01*
X119686467Y-95643557D01*
X119790192Y-95699000D01*
X119842991Y-95727222D01*
X119878729Y-95756552D01*
X119980186Y-95839814D01*
X120063448Y-95941271D01*
X120092778Y-95977009D01*
X120092779Y-95977011D01*
X120176443Y-96133533D01*
X120176443Y-96133534D01*
X120227963Y-96303373D01*
X120245359Y-96480000D01*
X120227963Y-96656627D01*
X120206279Y-96728109D01*
X120176443Y-96826467D01*
X120117716Y-96936336D01*
X120092778Y-96982991D01*
X120063448Y-97018729D01*
X119980186Y-97120186D01*
X119878729Y-97203448D01*
X119842991Y-97232778D01*
X119842989Y-97232779D01*
X119686467Y-97316443D01*
X119629853Y-97333616D01*
X119516627Y-97367963D01*
X119450443Y-97374481D01*
X119384260Y-97381000D01*
X119295740Y-97381000D01*
X119229558Y-97374482D01*
X119163373Y-97367963D01*
X119050147Y-97333616D01*
X118993533Y-97316443D01*
X118837011Y-97232779D01*
X118837009Y-97232778D01*
X118801271Y-97203448D01*
X118699814Y-97120186D01*
X118616552Y-97018729D01*
X118587222Y-96982991D01*
X118562284Y-96936336D01*
X118503557Y-96826467D01*
X118473721Y-96728109D01*
X118452037Y-96656627D01*
X118434641Y-96480000D01*
X118452037Y-96303373D01*
X118503557Y-96133534D01*
X118503557Y-96133533D01*
X118587221Y-95977011D01*
X118587222Y-95977009D01*
X118616552Y-95941271D01*
X118699814Y-95839814D01*
X118801271Y-95756552D01*
X118837009Y-95727222D01*
X118889808Y-95699000D01*
X118993533Y-95643557D01*
X119050147Y-95626384D01*
X119163373Y-95592037D01*
X119229558Y-95585518D01*
X119295740Y-95579000D01*
X119384260Y-95579000D01*
X119450443Y-95585519D01*
X119450443Y-95585519D01*
G37*
G36*
X165170443Y-95585519D02*
X165236627Y-95592037D01*
X165349853Y-95626384D01*
X165406467Y-95643557D01*
X165510192Y-95699000D01*
X165562991Y-95727222D01*
X165598729Y-95756552D01*
X165700186Y-95839814D01*
X165783448Y-95941271D01*
X165812778Y-95977009D01*
X165812779Y-95977011D01*
X165896443Y-96133533D01*
X165896443Y-96133534D01*
X165947963Y-96303373D01*
X165965359Y-96480000D01*
X165947963Y-96656627D01*
X165926279Y-96728109D01*
X165896443Y-96826467D01*
X165837716Y-96936336D01*
X165812778Y-96982991D01*
X165783448Y-97018729D01*
X165700186Y-97120186D01*
X165598729Y-97203448D01*
X165562991Y-97232778D01*
X165562989Y-97232779D01*
X165406467Y-97316443D01*
X165349853Y-97333616D01*
X165236627Y-97367963D01*
X165170443Y-97374481D01*
X165104260Y-97381000D01*
X165015740Y-97381000D01*
X164949558Y-97374482D01*
X164883373Y-97367963D01*
X164770147Y-97333616D01*
X164713533Y-97316443D01*
X164557011Y-97232779D01*
X164557009Y-97232778D01*
X164521271Y-97203448D01*
X164419814Y-97120186D01*
X164336552Y-97018729D01*
X164307222Y-96982991D01*
X164282284Y-96936336D01*
X164223557Y-96826467D01*
X164193721Y-96728109D01*
X164172037Y-96656627D01*
X164154641Y-96480000D01*
X164172037Y-96303373D01*
X164223557Y-96133534D01*
X164223557Y-96133533D01*
X164307221Y-95977011D01*
X164307222Y-95977009D01*
X164336552Y-95941271D01*
X164419814Y-95839814D01*
X164521271Y-95756552D01*
X164557009Y-95727222D01*
X164609808Y-95699000D01*
X164713533Y-95643557D01*
X164770147Y-95626384D01*
X164883373Y-95592037D01*
X164949558Y-95585518D01*
X165015740Y-95579000D01*
X165104260Y-95579000D01*
X165170443Y-95585519D01*
X165170443Y-95585519D01*
G37*
G36*
X180415885Y-94457328D02*
X180516892Y-94499166D01*
X180607795Y-94559906D01*
X180685094Y-94637205D01*
X180745834Y-94728108D01*
X180787672Y-94829115D01*
X180809000Y-94936336D01*
X180809000Y-95045664D01*
X180787672Y-95152885D01*
X180745834Y-95253892D01*
X180685094Y-95344795D01*
X180607795Y-95422094D01*
X180516892Y-95482834D01*
X180415885Y-95524672D01*
X180308664Y-95546000D01*
X180199336Y-95546000D01*
X180092115Y-95524672D01*
X179991108Y-95482834D01*
X179900205Y-95422094D01*
X179822906Y-95344795D01*
X179762166Y-95253892D01*
X179720328Y-95152885D01*
X179699000Y-95045664D01*
X179699000Y-94936336D01*
X179720328Y-94829115D01*
X179762166Y-94728108D01*
X179822906Y-94637205D01*
X179900205Y-94559906D01*
X179991108Y-94499166D01*
X180092115Y-94457328D01*
X180199336Y-94436000D01*
X180308664Y-94436000D01*
X180415885Y-94457328D01*
X180415885Y-94457328D01*
G37*
G36*
X202415885Y-94457328D02*
X202516892Y-94499166D01*
X202607795Y-94559906D01*
X202685094Y-94637205D01*
X202745834Y-94728108D01*
X202787672Y-94829115D01*
X202809000Y-94936336D01*
X202809000Y-95045664D01*
X202787672Y-95152885D01*
X202745834Y-95253892D01*
X202685094Y-95344795D01*
X202607795Y-95422094D01*
X202516892Y-95482834D01*
X202415885Y-95524672D01*
X202308664Y-95546000D01*
X202199336Y-95546000D01*
X202092115Y-95524672D01*
X201991108Y-95482834D01*
X201900205Y-95422094D01*
X201822906Y-95344795D01*
X201762166Y-95253892D01*
X201720328Y-95152885D01*
X201699000Y-95045664D01*
X201699000Y-94936336D01*
X201720328Y-94829115D01*
X201762166Y-94728108D01*
X201822906Y-94637205D01*
X201900205Y-94559906D01*
X201991108Y-94499166D01*
X202092115Y-94457328D01*
X202199336Y-94436000D01*
X202308664Y-94436000D01*
X202415885Y-94457328D01*
X202415885Y-94457328D01*
G37*
G36*
X149610443Y-93165519D02*
X149676627Y-93172037D01*
X149789853Y-93206384D01*
X149846467Y-93223557D01*
X149985087Y-93297652D01*
X150002991Y-93307222D01*
X150038729Y-93336552D01*
X150140186Y-93419814D01*
X150191904Y-93482834D01*
X150252778Y-93557009D01*
X150252779Y-93557011D01*
X150336443Y-93713533D01*
X150351562Y-93763375D01*
X150387963Y-93883373D01*
X150405359Y-94060000D01*
X150387963Y-94236627D01*
X150372844Y-94286467D01*
X150336443Y-94406467D01*
X150262348Y-94545087D01*
X150252778Y-94562991D01*
X150238667Y-94580185D01*
X150140186Y-94700186D01*
X150047265Y-94776443D01*
X150002991Y-94812778D01*
X150002989Y-94812779D01*
X149846467Y-94896443D01*
X149789853Y-94913616D01*
X149676627Y-94947963D01*
X149610443Y-94954481D01*
X149544260Y-94961000D01*
X149455740Y-94961000D01*
X149389557Y-94954481D01*
X149323373Y-94947963D01*
X149210147Y-94913616D01*
X149153533Y-94896443D01*
X148997011Y-94812779D01*
X148997009Y-94812778D01*
X148952735Y-94776443D01*
X148859814Y-94700186D01*
X148761333Y-94580185D01*
X148747222Y-94562991D01*
X148737652Y-94545087D01*
X148663557Y-94406467D01*
X148627156Y-94286467D01*
X148612037Y-94236627D01*
X148594641Y-94060000D01*
X148612037Y-93883373D01*
X148648438Y-93763375D01*
X148663557Y-93713533D01*
X148747221Y-93557011D01*
X148747222Y-93557009D01*
X148808096Y-93482834D01*
X148859814Y-93419814D01*
X148961271Y-93336552D01*
X148997009Y-93307222D01*
X149014913Y-93297652D01*
X149153533Y-93223557D01*
X149210147Y-93206384D01*
X149323373Y-93172037D01*
X149389557Y-93165519D01*
X149455740Y-93159000D01*
X149544260Y-93159000D01*
X149610443Y-93165519D01*
X149610443Y-93165519D01*
G37*
G36*
X119450442Y-93045518D02*
X119516627Y-93052037D01*
X119629853Y-93086384D01*
X119686467Y-93103557D01*
X119790192Y-93159000D01*
X119842991Y-93187222D01*
X119878729Y-93216552D01*
X119980186Y-93299814D01*
X120063448Y-93401271D01*
X120092778Y-93437009D01*
X120092779Y-93437011D01*
X120176443Y-93593533D01*
X120176443Y-93593534D01*
X120227963Y-93763373D01*
X120245359Y-93940000D01*
X120227963Y-94116627D01*
X120193616Y-94229853D01*
X120176443Y-94286467D01*
X120112301Y-94406466D01*
X120092778Y-94442991D01*
X120081011Y-94457329D01*
X119980186Y-94580186D01*
X119910703Y-94637208D01*
X119842991Y-94692778D01*
X119842989Y-94692779D01*
X119686467Y-94776443D01*
X119629853Y-94793616D01*
X119516627Y-94827963D01*
X119450443Y-94834481D01*
X119384260Y-94841000D01*
X119295740Y-94841000D01*
X119229557Y-94834481D01*
X119163373Y-94827963D01*
X119050147Y-94793616D01*
X118993533Y-94776443D01*
X118837011Y-94692779D01*
X118837009Y-94692778D01*
X118769297Y-94637208D01*
X118699814Y-94580186D01*
X118598989Y-94457329D01*
X118587222Y-94442991D01*
X118567699Y-94406466D01*
X118503557Y-94286467D01*
X118486384Y-94229853D01*
X118452037Y-94116627D01*
X118434641Y-93940000D01*
X118452037Y-93763373D01*
X118503557Y-93593534D01*
X118503557Y-93593533D01*
X118587221Y-93437011D01*
X118587222Y-93437009D01*
X118616552Y-93401271D01*
X118699814Y-93299814D01*
X118801271Y-93216552D01*
X118837009Y-93187222D01*
X118889808Y-93159000D01*
X118993533Y-93103557D01*
X119050147Y-93086384D01*
X119163373Y-93052037D01*
X119229558Y-93045518D01*
X119295740Y-93039000D01*
X119384260Y-93039000D01*
X119450442Y-93045518D01*
X119450442Y-93045518D01*
G37*
G36*
X165170442Y-93045518D02*
X165236627Y-93052037D01*
X165349853Y-93086384D01*
X165406467Y-93103557D01*
X165510192Y-93159000D01*
X165562991Y-93187222D01*
X165598729Y-93216552D01*
X165700186Y-93299814D01*
X165783448Y-93401271D01*
X165812778Y-93437009D01*
X165812779Y-93437011D01*
X165896443Y-93593533D01*
X165896443Y-93593534D01*
X165947963Y-93763373D01*
X165965359Y-93940000D01*
X165947963Y-94116627D01*
X165913616Y-94229853D01*
X165896443Y-94286467D01*
X165832301Y-94406466D01*
X165812778Y-94442991D01*
X165801011Y-94457329D01*
X165700186Y-94580186D01*
X165630703Y-94637208D01*
X165562991Y-94692778D01*
X165562989Y-94692779D01*
X165406467Y-94776443D01*
X165349853Y-94793616D01*
X165236627Y-94827963D01*
X165170443Y-94834481D01*
X165104260Y-94841000D01*
X165015740Y-94841000D01*
X164949557Y-94834481D01*
X164883373Y-94827963D01*
X164770147Y-94793616D01*
X164713533Y-94776443D01*
X164557011Y-94692779D01*
X164557009Y-94692778D01*
X164489297Y-94637208D01*
X164419814Y-94580186D01*
X164318989Y-94457329D01*
X164307222Y-94442991D01*
X164287699Y-94406466D01*
X164223557Y-94286467D01*
X164206384Y-94229853D01*
X164172037Y-94116627D01*
X164154641Y-93940000D01*
X164172037Y-93763373D01*
X164223557Y-93593534D01*
X164223557Y-93593533D01*
X164307221Y-93437011D01*
X164307222Y-93437009D01*
X164336552Y-93401271D01*
X164419814Y-93299814D01*
X164521271Y-93216552D01*
X164557009Y-93187222D01*
X164609808Y-93159000D01*
X164713533Y-93103557D01*
X164770147Y-93086384D01*
X164883373Y-93052037D01*
X164949558Y-93045518D01*
X165015740Y-93039000D01*
X165104260Y-93039000D01*
X165170442Y-93045518D01*
X165170442Y-93045518D01*
G37*
G36*
X180415885Y-92457328D02*
X180516892Y-92499166D01*
X180607795Y-92559906D01*
X180685094Y-92637205D01*
X180745834Y-92728108D01*
X180787672Y-92829115D01*
X180809000Y-92936336D01*
X180809000Y-93045664D01*
X180787672Y-93152885D01*
X180745834Y-93253892D01*
X180685094Y-93344795D01*
X180607795Y-93422094D01*
X180516892Y-93482834D01*
X180415885Y-93524672D01*
X180308664Y-93546000D01*
X180199336Y-93546000D01*
X180092115Y-93524672D01*
X179991108Y-93482834D01*
X179900205Y-93422094D01*
X179822906Y-93344795D01*
X179762166Y-93253892D01*
X179720328Y-93152885D01*
X179699000Y-93045664D01*
X179699000Y-92936336D01*
X179720328Y-92829115D01*
X179762166Y-92728108D01*
X179822906Y-92637205D01*
X179900205Y-92559906D01*
X179991108Y-92499166D01*
X180092115Y-92457328D01*
X180199336Y-92436000D01*
X180308664Y-92436000D01*
X180415885Y-92457328D01*
X180415885Y-92457328D01*
G37*
G36*
X202415885Y-92457328D02*
X202516892Y-92499166D01*
X202607795Y-92559906D01*
X202685094Y-92637205D01*
X202745834Y-92728108D01*
X202787672Y-92829115D01*
X202809000Y-92936336D01*
X202809000Y-93045664D01*
X202787672Y-93152885D01*
X202745834Y-93253892D01*
X202685094Y-93344795D01*
X202607795Y-93422094D01*
X202516892Y-93482834D01*
X202415885Y-93524672D01*
X202308664Y-93546000D01*
X202199336Y-93546000D01*
X202092115Y-93524672D01*
X201991108Y-93482834D01*
X201900205Y-93422094D01*
X201822906Y-93344795D01*
X201762166Y-93253892D01*
X201720328Y-93152885D01*
X201699000Y-93045664D01*
X201699000Y-92936336D01*
X201720328Y-92829115D01*
X201762166Y-92728108D01*
X201822906Y-92637205D01*
X201900205Y-92559906D01*
X201991108Y-92499166D01*
X202092115Y-92457328D01*
X202199336Y-92436000D01*
X202308664Y-92436000D01*
X202415885Y-92457328D01*
X202415885Y-92457328D01*
G37*
G36*
X149610442Y-90625518D02*
X149676627Y-90632037D01*
X149789853Y-90666384D01*
X149846467Y-90683557D01*
X149985087Y-90757652D01*
X150002991Y-90767222D01*
X150038729Y-90796552D01*
X150140186Y-90879814D01*
X150223448Y-90981271D01*
X150252778Y-91017009D01*
X150252779Y-91017011D01*
X150336443Y-91173533D01*
X150351562Y-91223375D01*
X150387963Y-91343373D01*
X150405359Y-91520000D01*
X150387963Y-91696627D01*
X150372844Y-91746467D01*
X150336443Y-91866467D01*
X150316921Y-91902989D01*
X150252778Y-92022991D01*
X150238667Y-92040185D01*
X150140186Y-92160186D01*
X150047265Y-92236443D01*
X150002991Y-92272778D01*
X150002989Y-92272779D01*
X149846467Y-92356443D01*
X149789853Y-92373616D01*
X149676627Y-92407963D01*
X149610442Y-92414482D01*
X149544260Y-92421000D01*
X149455740Y-92421000D01*
X149389557Y-92414481D01*
X149323373Y-92407963D01*
X149210147Y-92373616D01*
X149153533Y-92356443D01*
X148997011Y-92272779D01*
X148997009Y-92272778D01*
X148952735Y-92236443D01*
X148859814Y-92160186D01*
X148761333Y-92040185D01*
X148747222Y-92022991D01*
X148683079Y-91902989D01*
X148663557Y-91866467D01*
X148627156Y-91746467D01*
X148612037Y-91696627D01*
X148594641Y-91520000D01*
X148612037Y-91343373D01*
X148648438Y-91223375D01*
X148663557Y-91173533D01*
X148747221Y-91017011D01*
X148747222Y-91017009D01*
X148776552Y-90981271D01*
X148859814Y-90879814D01*
X148961271Y-90796552D01*
X148997009Y-90767222D01*
X149014913Y-90757652D01*
X149153533Y-90683557D01*
X149210147Y-90666384D01*
X149323373Y-90632037D01*
X149389558Y-90625518D01*
X149455740Y-90619000D01*
X149544260Y-90619000D01*
X149610442Y-90625518D01*
X149610442Y-90625518D01*
G37*
G36*
X119450442Y-90505518D02*
X119516627Y-90512037D01*
X119629853Y-90546384D01*
X119686467Y-90563557D01*
X119790192Y-90619000D01*
X119842991Y-90647222D01*
X119878729Y-90676552D01*
X119980186Y-90759814D01*
X120063448Y-90861271D01*
X120092778Y-90897009D01*
X120092779Y-90897011D01*
X120176443Y-91053533D01*
X120176443Y-91053534D01*
X120227963Y-91223373D01*
X120245359Y-91400000D01*
X120227963Y-91576627D01*
X120193616Y-91689853D01*
X120176443Y-91746467D01*
X120112301Y-91866466D01*
X120092778Y-91902991D01*
X120063448Y-91938729D01*
X119980186Y-92040186D01*
X119878729Y-92123448D01*
X119842991Y-92152778D01*
X119842989Y-92152779D01*
X119686467Y-92236443D01*
X119629853Y-92253616D01*
X119516627Y-92287963D01*
X119450442Y-92294482D01*
X119384260Y-92301000D01*
X119295740Y-92301000D01*
X119229558Y-92294482D01*
X119163373Y-92287963D01*
X119050147Y-92253616D01*
X118993533Y-92236443D01*
X118837011Y-92152779D01*
X118837009Y-92152778D01*
X118801271Y-92123448D01*
X118699814Y-92040186D01*
X118616552Y-91938729D01*
X118587222Y-91902991D01*
X118567699Y-91866466D01*
X118503557Y-91746467D01*
X118486384Y-91689853D01*
X118452037Y-91576627D01*
X118434641Y-91400000D01*
X118452037Y-91223373D01*
X118503557Y-91053534D01*
X118503557Y-91053533D01*
X118587221Y-90897011D01*
X118587222Y-90897009D01*
X118616552Y-90861271D01*
X118699814Y-90759814D01*
X118801271Y-90676552D01*
X118837009Y-90647222D01*
X118889808Y-90619000D01*
X118993533Y-90563557D01*
X119050147Y-90546384D01*
X119163373Y-90512037D01*
X119229558Y-90505518D01*
X119295740Y-90499000D01*
X119384260Y-90499000D01*
X119450442Y-90505518D01*
X119450442Y-90505518D01*
G37*
G36*
X165170442Y-90505518D02*
X165236627Y-90512037D01*
X165349853Y-90546384D01*
X165406467Y-90563557D01*
X165510192Y-90619000D01*
X165562991Y-90647222D01*
X165598729Y-90676552D01*
X165700186Y-90759814D01*
X165783448Y-90861271D01*
X165812778Y-90897009D01*
X165812779Y-90897011D01*
X165896443Y-91053533D01*
X165896443Y-91053534D01*
X165947963Y-91223373D01*
X165965359Y-91400000D01*
X165947963Y-91576627D01*
X165913616Y-91689853D01*
X165896443Y-91746467D01*
X165832301Y-91866466D01*
X165812778Y-91902991D01*
X165783448Y-91938729D01*
X165700186Y-92040186D01*
X165598729Y-92123448D01*
X165562991Y-92152778D01*
X165562989Y-92152779D01*
X165406467Y-92236443D01*
X165349853Y-92253616D01*
X165236627Y-92287963D01*
X165170442Y-92294482D01*
X165104260Y-92301000D01*
X165015740Y-92301000D01*
X164949558Y-92294482D01*
X164883373Y-92287963D01*
X164770147Y-92253616D01*
X164713533Y-92236443D01*
X164557011Y-92152779D01*
X164557009Y-92152778D01*
X164521271Y-92123448D01*
X164419814Y-92040186D01*
X164336552Y-91938729D01*
X164307222Y-91902991D01*
X164287699Y-91866466D01*
X164223557Y-91746467D01*
X164206384Y-91689853D01*
X164172037Y-91576627D01*
X164154641Y-91400000D01*
X164172037Y-91223373D01*
X164223557Y-91053534D01*
X164223557Y-91053533D01*
X164307221Y-90897011D01*
X164307222Y-90897009D01*
X164336552Y-90861271D01*
X164419814Y-90759814D01*
X164521271Y-90676552D01*
X164557009Y-90647222D01*
X164609808Y-90619000D01*
X164713533Y-90563557D01*
X164770147Y-90546384D01*
X164883373Y-90512037D01*
X164949558Y-90505518D01*
X165015740Y-90499000D01*
X165104260Y-90499000D01*
X165170442Y-90505518D01*
X165170442Y-90505518D01*
G37*
G36*
X202415885Y-90457328D02*
X202516892Y-90499166D01*
X202607795Y-90559906D01*
X202685094Y-90637205D01*
X202745834Y-90728108D01*
X202787672Y-90829115D01*
X202809000Y-90936336D01*
X202809000Y-91045664D01*
X202787672Y-91152885D01*
X202745834Y-91253892D01*
X202685094Y-91344795D01*
X202607795Y-91422094D01*
X202516892Y-91482834D01*
X202415885Y-91524672D01*
X202308664Y-91546000D01*
X202199336Y-91546000D01*
X202092115Y-91524672D01*
X201991108Y-91482834D01*
X201900205Y-91422094D01*
X201822906Y-91344795D01*
X201762166Y-91253892D01*
X201720328Y-91152885D01*
X201699000Y-91045664D01*
X201699000Y-90936336D01*
X201720328Y-90829115D01*
X201762166Y-90728108D01*
X201822906Y-90637205D01*
X201900205Y-90559906D01*
X201991108Y-90499166D01*
X202092115Y-90457328D01*
X202199336Y-90436000D01*
X202308664Y-90436000D01*
X202415885Y-90457328D01*
X202415885Y-90457328D01*
G37*
G36*
X180415885Y-90457328D02*
X180516892Y-90499166D01*
X180607795Y-90559906D01*
X180685094Y-90637205D01*
X180745834Y-90728108D01*
X180787672Y-90829115D01*
X180809000Y-90936336D01*
X180809000Y-91045664D01*
X180787672Y-91152885D01*
X180745834Y-91253892D01*
X180685094Y-91344795D01*
X180607795Y-91422094D01*
X180516892Y-91482834D01*
X180415885Y-91524672D01*
X180308664Y-91546000D01*
X180199336Y-91546000D01*
X180092115Y-91524672D01*
X179991108Y-91482834D01*
X179900205Y-91422094D01*
X179822906Y-91344795D01*
X179762166Y-91253892D01*
X179720328Y-91152885D01*
X179699000Y-91045664D01*
X179699000Y-90936336D01*
X179720328Y-90829115D01*
X179762166Y-90728108D01*
X179822906Y-90637205D01*
X179900205Y-90559906D01*
X179991108Y-90499166D01*
X180092115Y-90457328D01*
X180199336Y-90436000D01*
X180308664Y-90436000D01*
X180415885Y-90457328D01*
X180415885Y-90457328D01*
G37*
G36*
X149610443Y-88085519D02*
X149676627Y-88092037D01*
X149789853Y-88126384D01*
X149846467Y-88143557D01*
X149985087Y-88217652D01*
X150002991Y-88227222D01*
X150038729Y-88256552D01*
X150140186Y-88339814D01*
X150219123Y-88436000D01*
X150252778Y-88477009D01*
X150252779Y-88477011D01*
X150336443Y-88633533D01*
X150351562Y-88683375D01*
X150387963Y-88803373D01*
X150405359Y-88980000D01*
X150387963Y-89156627D01*
X150372844Y-89206467D01*
X150336443Y-89326467D01*
X150285327Y-89422096D01*
X150252778Y-89482991D01*
X150238667Y-89500185D01*
X150140186Y-89620186D01*
X150047265Y-89696443D01*
X150002991Y-89732778D01*
X150002989Y-89732779D01*
X149846467Y-89816443D01*
X149789853Y-89833616D01*
X149676627Y-89867963D01*
X149610443Y-89874481D01*
X149544260Y-89881000D01*
X149455740Y-89881000D01*
X149389557Y-89874481D01*
X149323373Y-89867963D01*
X149210147Y-89833616D01*
X149153533Y-89816443D01*
X148997011Y-89732779D01*
X148997009Y-89732778D01*
X148952735Y-89696443D01*
X148859814Y-89620186D01*
X148761333Y-89500185D01*
X148747222Y-89482991D01*
X148714673Y-89422096D01*
X148663557Y-89326467D01*
X148627156Y-89206467D01*
X148612037Y-89156627D01*
X148594641Y-88980000D01*
X148612037Y-88803373D01*
X148648438Y-88683375D01*
X148663557Y-88633533D01*
X148747221Y-88477011D01*
X148747222Y-88477009D01*
X148780877Y-88436000D01*
X148859814Y-88339814D01*
X148961271Y-88256552D01*
X148997009Y-88227222D01*
X149014913Y-88217652D01*
X149153533Y-88143557D01*
X149210147Y-88126384D01*
X149323373Y-88092037D01*
X149389557Y-88085519D01*
X149455740Y-88079000D01*
X149544260Y-88079000D01*
X149610443Y-88085519D01*
X149610443Y-88085519D01*
G37*
G36*
X119450443Y-87965519D02*
X119516627Y-87972037D01*
X119629853Y-88006384D01*
X119686467Y-88023557D01*
X119790192Y-88079000D01*
X119842991Y-88107222D01*
X119878729Y-88136552D01*
X119980186Y-88219814D01*
X120063448Y-88321271D01*
X120092778Y-88357009D01*
X120092779Y-88357011D01*
X120176443Y-88513533D01*
X120176443Y-88513534D01*
X120227963Y-88683373D01*
X120245359Y-88860000D01*
X120227963Y-89036627D01*
X120193616Y-89149853D01*
X120176443Y-89206467D01*
X120151094Y-89253891D01*
X120092778Y-89362991D01*
X120063448Y-89398729D01*
X119980186Y-89500186D01*
X119878729Y-89583448D01*
X119842991Y-89612778D01*
X119842989Y-89612779D01*
X119686467Y-89696443D01*
X119629853Y-89713616D01*
X119516627Y-89747963D01*
X119450443Y-89754481D01*
X119384260Y-89761000D01*
X119295740Y-89761000D01*
X119229557Y-89754481D01*
X119163373Y-89747963D01*
X119050147Y-89713616D01*
X118993533Y-89696443D01*
X118837011Y-89612779D01*
X118837009Y-89612778D01*
X118801271Y-89583448D01*
X118699814Y-89500186D01*
X118616552Y-89398729D01*
X118587222Y-89362991D01*
X118528906Y-89253891D01*
X118503557Y-89206467D01*
X118486384Y-89149853D01*
X118452037Y-89036627D01*
X118434641Y-88860000D01*
X118452037Y-88683373D01*
X118503557Y-88513534D01*
X118503557Y-88513533D01*
X118587221Y-88357011D01*
X118587222Y-88357009D01*
X118616552Y-88321271D01*
X118699814Y-88219814D01*
X118801271Y-88136552D01*
X118837009Y-88107222D01*
X118889808Y-88079000D01*
X118993533Y-88023557D01*
X119050147Y-88006384D01*
X119163373Y-87972037D01*
X119229557Y-87965519D01*
X119295740Y-87959000D01*
X119384260Y-87959000D01*
X119450443Y-87965519D01*
X119450443Y-87965519D01*
G37*
G36*
X165170443Y-87965519D02*
X165236627Y-87972037D01*
X165349853Y-88006384D01*
X165406467Y-88023557D01*
X165510192Y-88079000D01*
X165562991Y-88107222D01*
X165598729Y-88136552D01*
X165700186Y-88219814D01*
X165783448Y-88321271D01*
X165812778Y-88357009D01*
X165812779Y-88357011D01*
X165896443Y-88513533D01*
X165896443Y-88513534D01*
X165947963Y-88683373D01*
X165965359Y-88860000D01*
X165947963Y-89036627D01*
X165913616Y-89149853D01*
X165896443Y-89206467D01*
X165871094Y-89253891D01*
X165812778Y-89362991D01*
X165783448Y-89398729D01*
X165700186Y-89500186D01*
X165598729Y-89583448D01*
X165562991Y-89612778D01*
X165562989Y-89612779D01*
X165406467Y-89696443D01*
X165349853Y-89713616D01*
X165236627Y-89747963D01*
X165170442Y-89754482D01*
X165104260Y-89761000D01*
X165015740Y-89761000D01*
X164949557Y-89754481D01*
X164883373Y-89747963D01*
X164770147Y-89713616D01*
X164713533Y-89696443D01*
X164557011Y-89612779D01*
X164557009Y-89612778D01*
X164521271Y-89583448D01*
X164419814Y-89500186D01*
X164336552Y-89398729D01*
X164307222Y-89362991D01*
X164248906Y-89253891D01*
X164223557Y-89206467D01*
X164206384Y-89149853D01*
X164172037Y-89036627D01*
X164154641Y-88860000D01*
X164172037Y-88683373D01*
X164223557Y-88513534D01*
X164223557Y-88513533D01*
X164307221Y-88357011D01*
X164307222Y-88357009D01*
X164336552Y-88321271D01*
X164419814Y-88219814D01*
X164521271Y-88136552D01*
X164557009Y-88107222D01*
X164609808Y-88079000D01*
X164713533Y-88023557D01*
X164770147Y-88006384D01*
X164883373Y-87972037D01*
X164949557Y-87965519D01*
X165015740Y-87959000D01*
X165104260Y-87959000D01*
X165170443Y-87965519D01*
X165170443Y-87965519D01*
G37*
G36*
X180415885Y-88457328D02*
X180516892Y-88499166D01*
X180607795Y-88559906D01*
X180685094Y-88637205D01*
X180745834Y-88728108D01*
X180787672Y-88829115D01*
X180809000Y-88936336D01*
X180809000Y-89045664D01*
X180787672Y-89152885D01*
X180745834Y-89253892D01*
X180685094Y-89344795D01*
X180607795Y-89422094D01*
X180516892Y-89482834D01*
X180415885Y-89524672D01*
X180308664Y-89546000D01*
X180199336Y-89546000D01*
X180092115Y-89524672D01*
X179991108Y-89482834D01*
X179900205Y-89422094D01*
X179822906Y-89344795D01*
X179762166Y-89253892D01*
X179720328Y-89152885D01*
X179699000Y-89045664D01*
X179699000Y-88936336D01*
X179720328Y-88829115D01*
X179762166Y-88728108D01*
X179822906Y-88637205D01*
X179900205Y-88559906D01*
X179991108Y-88499166D01*
X180092115Y-88457328D01*
X180199336Y-88436000D01*
X180308664Y-88436000D01*
X180415885Y-88457328D01*
X180415885Y-88457328D01*
G37*
G36*
X202415885Y-88457328D02*
X202516892Y-88499166D01*
X202607795Y-88559906D01*
X202685094Y-88637205D01*
X202745834Y-88728108D01*
X202787672Y-88829115D01*
X202809000Y-88936336D01*
X202809000Y-89045664D01*
X202787672Y-89152885D01*
X202745834Y-89253892D01*
X202685094Y-89344795D01*
X202607795Y-89422094D01*
X202516892Y-89482834D01*
X202415885Y-89524672D01*
X202308664Y-89546000D01*
X202199336Y-89546000D01*
X202092115Y-89524672D01*
X201991108Y-89482834D01*
X201900205Y-89422094D01*
X201822906Y-89344795D01*
X201762166Y-89253892D01*
X201720328Y-89152885D01*
X201699000Y-89045664D01*
X201699000Y-88936336D01*
X201720328Y-88829115D01*
X201762166Y-88728108D01*
X201822906Y-88637205D01*
X201900205Y-88559906D01*
X201991108Y-88499166D01*
X202092115Y-88457328D01*
X202199336Y-88436000D01*
X202308664Y-88436000D01*
X202415885Y-88457328D01*
X202415885Y-88457328D01*
G37*
G36*
X202415885Y-86457328D02*
X202516892Y-86499166D01*
X202607795Y-86559906D01*
X202685094Y-86637205D01*
X202745834Y-86728108D01*
X202787672Y-86829115D01*
X202809000Y-86936336D01*
X202809000Y-87045664D01*
X202787672Y-87152885D01*
X202745834Y-87253892D01*
X202685094Y-87344795D01*
X202607795Y-87422094D01*
X202516892Y-87482834D01*
X202415885Y-87524672D01*
X202308664Y-87546000D01*
X202199336Y-87546000D01*
X202092115Y-87524672D01*
X201991108Y-87482834D01*
X201900205Y-87422094D01*
X201822906Y-87344795D01*
X201762166Y-87253892D01*
X201720328Y-87152885D01*
X201699000Y-87045664D01*
X201699000Y-86936336D01*
X201720328Y-86829115D01*
X201762166Y-86728108D01*
X201822906Y-86637205D01*
X201900205Y-86559906D01*
X201991108Y-86499166D01*
X202092115Y-86457328D01*
X202199336Y-86436000D01*
X202308664Y-86436000D01*
X202415885Y-86457328D01*
X202415885Y-86457328D01*
G37*
G36*
X180415885Y-86457328D02*
X180516892Y-86499166D01*
X180607795Y-86559906D01*
X180685094Y-86637205D01*
X180745834Y-86728108D01*
X180787672Y-86829115D01*
X180809000Y-86936336D01*
X180809000Y-87045664D01*
X180787672Y-87152885D01*
X180745834Y-87253892D01*
X180685094Y-87344795D01*
X180607795Y-87422094D01*
X180516892Y-87482834D01*
X180415885Y-87524672D01*
X180308664Y-87546000D01*
X180199336Y-87546000D01*
X180092115Y-87524672D01*
X179991108Y-87482834D01*
X179900205Y-87422094D01*
X179822906Y-87344795D01*
X179762166Y-87253892D01*
X179720328Y-87152885D01*
X179699000Y-87045664D01*
X179699000Y-86936336D01*
X179720328Y-86829115D01*
X179762166Y-86728108D01*
X179822906Y-86637205D01*
X179900205Y-86559906D01*
X179991108Y-86499166D01*
X180092115Y-86457328D01*
X180199336Y-86436000D01*
X180308664Y-86436000D01*
X180415885Y-86457328D01*
X180415885Y-86457328D01*
G37*
G36*
X149610443Y-85545519D02*
X149676627Y-85552037D01*
X149789853Y-85586384D01*
X149846467Y-85603557D01*
X149985087Y-85677652D01*
X150002991Y-85687222D01*
X150038729Y-85716552D01*
X150140186Y-85799814D01*
X150223448Y-85901271D01*
X150252778Y-85937009D01*
X150252779Y-85937011D01*
X150336443Y-86093533D01*
X150351562Y-86143375D01*
X150387963Y-86263373D01*
X150405359Y-86440000D01*
X150387963Y-86616627D01*
X150372844Y-86666467D01*
X150336443Y-86786467D01*
X150262348Y-86925087D01*
X150252778Y-86942991D01*
X150238667Y-86960185D01*
X150140186Y-87080186D01*
X150051598Y-87152887D01*
X150002991Y-87192778D01*
X150002989Y-87192779D01*
X149846467Y-87276443D01*
X149789853Y-87293616D01*
X149676627Y-87327963D01*
X149610442Y-87334482D01*
X149544260Y-87341000D01*
X149455740Y-87341000D01*
X149389558Y-87334482D01*
X149323373Y-87327963D01*
X149210147Y-87293616D01*
X149153533Y-87276443D01*
X148997011Y-87192779D01*
X148997009Y-87192778D01*
X148948402Y-87152887D01*
X148859814Y-87080186D01*
X148761333Y-86960185D01*
X148747222Y-86942991D01*
X148737652Y-86925087D01*
X148663557Y-86786467D01*
X148627156Y-86666467D01*
X148612037Y-86616627D01*
X148594641Y-86440000D01*
X148612037Y-86263373D01*
X148648438Y-86143375D01*
X148663557Y-86093533D01*
X148747221Y-85937011D01*
X148747222Y-85937009D01*
X148776552Y-85901271D01*
X148859814Y-85799814D01*
X148961271Y-85716552D01*
X148997009Y-85687222D01*
X149014913Y-85677652D01*
X149153533Y-85603557D01*
X149210147Y-85586384D01*
X149323373Y-85552037D01*
X149389557Y-85545519D01*
X149455740Y-85539000D01*
X149544260Y-85539000D01*
X149610443Y-85545519D01*
X149610443Y-85545519D01*
G37*
G36*
X119450443Y-85425519D02*
X119516627Y-85432037D01*
X119629853Y-85466384D01*
X119686467Y-85483557D01*
X119790192Y-85539000D01*
X119842991Y-85567222D01*
X119878729Y-85596552D01*
X119980186Y-85679814D01*
X120063448Y-85781271D01*
X120092778Y-85817009D01*
X120092779Y-85817011D01*
X120176443Y-85973533D01*
X120176443Y-85973534D01*
X120227963Y-86143373D01*
X120245359Y-86320000D01*
X120227963Y-86496627D01*
X120193616Y-86609853D01*
X120176443Y-86666467D01*
X120143494Y-86728109D01*
X120092778Y-86822991D01*
X120087752Y-86829115D01*
X119980186Y-86960186D01*
X119878729Y-87043448D01*
X119842991Y-87072778D01*
X119842989Y-87072779D01*
X119686467Y-87156443D01*
X119629853Y-87173616D01*
X119516627Y-87207963D01*
X119450442Y-87214482D01*
X119384260Y-87221000D01*
X119295740Y-87221000D01*
X119229558Y-87214482D01*
X119163373Y-87207963D01*
X119050147Y-87173616D01*
X118993533Y-87156443D01*
X118837011Y-87072779D01*
X118837009Y-87072778D01*
X118801271Y-87043448D01*
X118699814Y-86960186D01*
X118592248Y-86829115D01*
X118587222Y-86822991D01*
X118536506Y-86728109D01*
X118503557Y-86666467D01*
X118486384Y-86609853D01*
X118452037Y-86496627D01*
X118434641Y-86320000D01*
X118452037Y-86143373D01*
X118503557Y-85973534D01*
X118503557Y-85973533D01*
X118587221Y-85817011D01*
X118587222Y-85817009D01*
X118616552Y-85781271D01*
X118699814Y-85679814D01*
X118801271Y-85596552D01*
X118837009Y-85567222D01*
X118889808Y-85539000D01*
X118993533Y-85483557D01*
X119050147Y-85466384D01*
X119163373Y-85432037D01*
X119229557Y-85425519D01*
X119295740Y-85419000D01*
X119384260Y-85419000D01*
X119450443Y-85425519D01*
X119450443Y-85425519D01*
G37*
G36*
X165170443Y-85425519D02*
X165236627Y-85432037D01*
X165349853Y-85466384D01*
X165406467Y-85483557D01*
X165510192Y-85539000D01*
X165562991Y-85567222D01*
X165598729Y-85596552D01*
X165700186Y-85679814D01*
X165783448Y-85781271D01*
X165812778Y-85817009D01*
X165812779Y-85817011D01*
X165896443Y-85973533D01*
X165896443Y-85973534D01*
X165947963Y-86143373D01*
X165965359Y-86320000D01*
X165947963Y-86496627D01*
X165913616Y-86609853D01*
X165896443Y-86666467D01*
X165863494Y-86728109D01*
X165812778Y-86822991D01*
X165807752Y-86829115D01*
X165700186Y-86960186D01*
X165598729Y-87043448D01*
X165562991Y-87072778D01*
X165562989Y-87072779D01*
X165406467Y-87156443D01*
X165349853Y-87173616D01*
X165236627Y-87207963D01*
X165170442Y-87214482D01*
X165104260Y-87221000D01*
X165015740Y-87221000D01*
X164949558Y-87214482D01*
X164883373Y-87207963D01*
X164770147Y-87173616D01*
X164713533Y-87156443D01*
X164557011Y-87072779D01*
X164557009Y-87072778D01*
X164521271Y-87043448D01*
X164419814Y-86960186D01*
X164312248Y-86829115D01*
X164307222Y-86822991D01*
X164256506Y-86728109D01*
X164223557Y-86666467D01*
X164206384Y-86609853D01*
X164172037Y-86496627D01*
X164154641Y-86320000D01*
X164172037Y-86143373D01*
X164223557Y-85973534D01*
X164223557Y-85973533D01*
X164307221Y-85817011D01*
X164307222Y-85817009D01*
X164336552Y-85781271D01*
X164419814Y-85679814D01*
X164521271Y-85596552D01*
X164557009Y-85567222D01*
X164609808Y-85539000D01*
X164713533Y-85483557D01*
X164770147Y-85466384D01*
X164883373Y-85432037D01*
X164949557Y-85425519D01*
X165015740Y-85419000D01*
X165104260Y-85419000D01*
X165170443Y-85425519D01*
X165170443Y-85425519D01*
G37*
G36*
X202415885Y-84457328D02*
X202516892Y-84499166D01*
X202607795Y-84559906D01*
X202685094Y-84637205D01*
X202745834Y-84728108D01*
X202787672Y-84829115D01*
X202809000Y-84936336D01*
X202809000Y-85045664D01*
X202787672Y-85152885D01*
X202745834Y-85253892D01*
X202685094Y-85344795D01*
X202607795Y-85422094D01*
X202516892Y-85482834D01*
X202415885Y-85524672D01*
X202308664Y-85546000D01*
X202199336Y-85546000D01*
X202092115Y-85524672D01*
X201991108Y-85482834D01*
X201900205Y-85422094D01*
X201822906Y-85344795D01*
X201762166Y-85253892D01*
X201720328Y-85152885D01*
X201699000Y-85045664D01*
X201699000Y-84936336D01*
X201720328Y-84829115D01*
X201762166Y-84728108D01*
X201822906Y-84637205D01*
X201900205Y-84559906D01*
X201991108Y-84499166D01*
X202092115Y-84457328D01*
X202199336Y-84436000D01*
X202308664Y-84436000D01*
X202415885Y-84457328D01*
X202415885Y-84457328D01*
G37*
G36*
X180415885Y-84457328D02*
X180516892Y-84499166D01*
X180607795Y-84559906D01*
X180685094Y-84637205D01*
X180745834Y-84728108D01*
X180787672Y-84829115D01*
X180809000Y-84936336D01*
X180809000Y-85045664D01*
X180787672Y-85152885D01*
X180745834Y-85253892D01*
X180685094Y-85344795D01*
X180607795Y-85422094D01*
X180516892Y-85482834D01*
X180415885Y-85524672D01*
X180308664Y-85546000D01*
X180199336Y-85546000D01*
X180092115Y-85524672D01*
X179991108Y-85482834D01*
X179900205Y-85422094D01*
X179822906Y-85344795D01*
X179762166Y-85253892D01*
X179720328Y-85152885D01*
X179699000Y-85045664D01*
X179699000Y-84936336D01*
X179720328Y-84829115D01*
X179762166Y-84728108D01*
X179822906Y-84637205D01*
X179900205Y-84559906D01*
X179991108Y-84499166D01*
X180092115Y-84457328D01*
X180199336Y-84436000D01*
X180308664Y-84436000D01*
X180415885Y-84457328D01*
X180415885Y-84457328D01*
G37*
G36*
X149610442Y-83005518D02*
X149676627Y-83012037D01*
X149787477Y-83045663D01*
X149846467Y-83063557D01*
X149985087Y-83137652D01*
X150002991Y-83147222D01*
X150038729Y-83176552D01*
X150140186Y-83259814D01*
X150209927Y-83344795D01*
X150252778Y-83397009D01*
X150252779Y-83397011D01*
X150336443Y-83553533D01*
X150351562Y-83603375D01*
X150387963Y-83723373D01*
X150405359Y-83900000D01*
X150387963Y-84076627D01*
X150372844Y-84126467D01*
X150336443Y-84246467D01*
X150316921Y-84282989D01*
X150252778Y-84402991D01*
X150238667Y-84420185D01*
X150140186Y-84540186D01*
X150047265Y-84616443D01*
X150002991Y-84652778D01*
X150002989Y-84652779D01*
X149846467Y-84736443D01*
X149789853Y-84753616D01*
X149676627Y-84787963D01*
X149610442Y-84794482D01*
X149544260Y-84801000D01*
X149455740Y-84801000D01*
X149389558Y-84794482D01*
X149323373Y-84787963D01*
X149210147Y-84753616D01*
X149153533Y-84736443D01*
X148997011Y-84652779D01*
X148997009Y-84652778D01*
X148952735Y-84616443D01*
X148859814Y-84540186D01*
X148761333Y-84420185D01*
X148747222Y-84402991D01*
X148683079Y-84282989D01*
X148663557Y-84246467D01*
X148627156Y-84126467D01*
X148612037Y-84076627D01*
X148594641Y-83900000D01*
X148612037Y-83723373D01*
X148648438Y-83603375D01*
X148663557Y-83553533D01*
X148747221Y-83397011D01*
X148747222Y-83397009D01*
X148790073Y-83344795D01*
X148859814Y-83259814D01*
X148961271Y-83176552D01*
X148997009Y-83147222D01*
X149014913Y-83137652D01*
X149153533Y-83063557D01*
X149212523Y-83045663D01*
X149323373Y-83012037D01*
X149389558Y-83005518D01*
X149455740Y-82999000D01*
X149544260Y-82999000D01*
X149610442Y-83005518D01*
X149610442Y-83005518D01*
G37*
G36*
X165170442Y-82885518D02*
X165236627Y-82892037D01*
X165349853Y-82926384D01*
X165406467Y-82943557D01*
X165510192Y-82999000D01*
X165562991Y-83027222D01*
X165585461Y-83045663D01*
X165700186Y-83139814D01*
X165783448Y-83241271D01*
X165812778Y-83277009D01*
X165812779Y-83277011D01*
X165896443Y-83433533D01*
X165896443Y-83433534D01*
X165947963Y-83603373D01*
X165965359Y-83780000D01*
X165947963Y-83956627D01*
X165913616Y-84069853D01*
X165896443Y-84126467D01*
X165832301Y-84246466D01*
X165812778Y-84282991D01*
X165783448Y-84318729D01*
X165700186Y-84420186D01*
X165603947Y-84499166D01*
X165562991Y-84532778D01*
X165562989Y-84532779D01*
X165406467Y-84616443D01*
X165349853Y-84633616D01*
X165236627Y-84667963D01*
X165170443Y-84674481D01*
X165104260Y-84681000D01*
X165015740Y-84681000D01*
X164949557Y-84674481D01*
X164883373Y-84667963D01*
X164770147Y-84633616D01*
X164713533Y-84616443D01*
X164557011Y-84532779D01*
X164557009Y-84532778D01*
X164516053Y-84499166D01*
X164419814Y-84420186D01*
X164336552Y-84318729D01*
X164307222Y-84282991D01*
X164287699Y-84246466D01*
X164223557Y-84126467D01*
X164206384Y-84069853D01*
X164172037Y-83956627D01*
X164154641Y-83780000D01*
X164172037Y-83603373D01*
X164223557Y-83433534D01*
X164223557Y-83433533D01*
X164307221Y-83277011D01*
X164307222Y-83277009D01*
X164336552Y-83241271D01*
X164419814Y-83139814D01*
X164534539Y-83045663D01*
X164557009Y-83027222D01*
X164609808Y-82999000D01*
X164713533Y-82943557D01*
X164770147Y-82926384D01*
X164883373Y-82892037D01*
X164949558Y-82885518D01*
X165015740Y-82879000D01*
X165104260Y-82879000D01*
X165170442Y-82885518D01*
X165170442Y-82885518D01*
G37*
G36*
X119450442Y-82885518D02*
X119516627Y-82892037D01*
X119629853Y-82926384D01*
X119686467Y-82943557D01*
X119790192Y-82999000D01*
X119842991Y-83027222D01*
X119865461Y-83045663D01*
X119980186Y-83139814D01*
X120063448Y-83241271D01*
X120092778Y-83277009D01*
X120092779Y-83277011D01*
X120176443Y-83433533D01*
X120176443Y-83433534D01*
X120227963Y-83603373D01*
X120245359Y-83780000D01*
X120227963Y-83956627D01*
X120193616Y-84069853D01*
X120176443Y-84126467D01*
X120112301Y-84246466D01*
X120092778Y-84282991D01*
X120063448Y-84318729D01*
X119980186Y-84420186D01*
X119883947Y-84499166D01*
X119842991Y-84532778D01*
X119842989Y-84532779D01*
X119686467Y-84616443D01*
X119629853Y-84633616D01*
X119516627Y-84667963D01*
X119450443Y-84674481D01*
X119384260Y-84681000D01*
X119295740Y-84681000D01*
X119229557Y-84674481D01*
X119163373Y-84667963D01*
X119050147Y-84633616D01*
X118993533Y-84616443D01*
X118837011Y-84532779D01*
X118837009Y-84532778D01*
X118796053Y-84499166D01*
X118699814Y-84420186D01*
X118616552Y-84318729D01*
X118587222Y-84282991D01*
X118567699Y-84246466D01*
X118503557Y-84126467D01*
X118486384Y-84069853D01*
X118452037Y-83956627D01*
X118434641Y-83780000D01*
X118452037Y-83603373D01*
X118503557Y-83433534D01*
X118503557Y-83433533D01*
X118587221Y-83277011D01*
X118587222Y-83277009D01*
X118616552Y-83241271D01*
X118699814Y-83139814D01*
X118814539Y-83045663D01*
X118837009Y-83027222D01*
X118889808Y-82999000D01*
X118993533Y-82943557D01*
X119050147Y-82926384D01*
X119163373Y-82892037D01*
X119229558Y-82885518D01*
X119295740Y-82879000D01*
X119384260Y-82879000D01*
X119450442Y-82885518D01*
X119450442Y-82885518D01*
G37*
G36*
X180809000Y-83546000D02*
X179699000Y-83546000D01*
X179699000Y-82436000D01*
X180809000Y-82436000D01*
X180809000Y-83546000D01*
X180809000Y-83546000D01*
G37*
G36*
X202415885Y-82457328D02*
X202516892Y-82499166D01*
X202607795Y-82559906D01*
X202685094Y-82637205D01*
X202745834Y-82728108D01*
X202787672Y-82829115D01*
X202809000Y-82936336D01*
X202809000Y-83045664D01*
X202787672Y-83152885D01*
X202745834Y-83253892D01*
X202685094Y-83344795D01*
X202607795Y-83422094D01*
X202516892Y-83482834D01*
X202415885Y-83524672D01*
X202308664Y-83546000D01*
X202199336Y-83546000D01*
X202092115Y-83524672D01*
X201991108Y-83482834D01*
X201900205Y-83422094D01*
X201822906Y-83344795D01*
X201762166Y-83253892D01*
X201720328Y-83152885D01*
X201699000Y-83045664D01*
X201699000Y-82936336D01*
X201720328Y-82829115D01*
X201762166Y-82728108D01*
X201822906Y-82637205D01*
X201900205Y-82559906D01*
X201991108Y-82499166D01*
X202092115Y-82457328D01*
X202199336Y-82436000D01*
X202308664Y-82436000D01*
X202415885Y-82457328D01*
X202415885Y-82457328D01*
G37*
G36*
X149610442Y-80465518D02*
X149676627Y-80472037D01*
X149789853Y-80506384D01*
X149846467Y-80523557D01*
X149985087Y-80597652D01*
X150002991Y-80607222D01*
X150038729Y-80636552D01*
X150140186Y-80719814D01*
X150223448Y-80821271D01*
X150252778Y-80857009D01*
X150252779Y-80857011D01*
X150336443Y-81013533D01*
X150351562Y-81063375D01*
X150387963Y-81183373D01*
X150405359Y-81360000D01*
X150387963Y-81536627D01*
X150372844Y-81586467D01*
X150336443Y-81706467D01*
X150316921Y-81742989D01*
X150252778Y-81862991D01*
X150238667Y-81880185D01*
X150140186Y-82000186D01*
X150047265Y-82076443D01*
X150002991Y-82112778D01*
X150002989Y-82112779D01*
X149846467Y-82196443D01*
X149789853Y-82213616D01*
X149676627Y-82247963D01*
X149610443Y-82254481D01*
X149544260Y-82261000D01*
X149455740Y-82261000D01*
X149389557Y-82254481D01*
X149323373Y-82247963D01*
X149210147Y-82213616D01*
X149153533Y-82196443D01*
X148997011Y-82112779D01*
X148997009Y-82112778D01*
X148952735Y-82076443D01*
X148859814Y-82000186D01*
X148761333Y-81880185D01*
X148747222Y-81862991D01*
X148683079Y-81742989D01*
X148663557Y-81706467D01*
X148627156Y-81586467D01*
X148612037Y-81536627D01*
X148594641Y-81360000D01*
X148612037Y-81183373D01*
X148648438Y-81063375D01*
X148663557Y-81013533D01*
X148747221Y-80857011D01*
X148747222Y-80857009D01*
X148776552Y-80821271D01*
X148859814Y-80719814D01*
X148961271Y-80636552D01*
X148997009Y-80607222D01*
X149014913Y-80597652D01*
X149153533Y-80523557D01*
X149210147Y-80506384D01*
X149323373Y-80472037D01*
X149389558Y-80465518D01*
X149455740Y-80459000D01*
X149544260Y-80459000D01*
X149610442Y-80465518D01*
X149610442Y-80465518D01*
G37*
G36*
X119450442Y-80345518D02*
X119516627Y-80352037D01*
X119629853Y-80386384D01*
X119686467Y-80403557D01*
X119790192Y-80459000D01*
X119842991Y-80487222D01*
X119878729Y-80516552D01*
X119980186Y-80599814D01*
X120063448Y-80701271D01*
X120092778Y-80737009D01*
X120092779Y-80737011D01*
X120176443Y-80893533D01*
X120176443Y-80893534D01*
X120227963Y-81063373D01*
X120245359Y-81240000D01*
X120227963Y-81416627D01*
X120193616Y-81529853D01*
X120176443Y-81586467D01*
X120112301Y-81706466D01*
X120092778Y-81742991D01*
X120063448Y-81778729D01*
X119980186Y-81880186D01*
X119878729Y-81963448D01*
X119842991Y-81992778D01*
X119842989Y-81992779D01*
X119686467Y-82076443D01*
X119629853Y-82093616D01*
X119516627Y-82127963D01*
X119450442Y-82134482D01*
X119384260Y-82141000D01*
X119295740Y-82141000D01*
X119229558Y-82134482D01*
X119163373Y-82127963D01*
X119050147Y-82093616D01*
X118993533Y-82076443D01*
X118837011Y-81992779D01*
X118837009Y-81992778D01*
X118801271Y-81963448D01*
X118699814Y-81880186D01*
X118616552Y-81778729D01*
X118587222Y-81742991D01*
X118567699Y-81706466D01*
X118503557Y-81586467D01*
X118486384Y-81529853D01*
X118452037Y-81416627D01*
X118434641Y-81240000D01*
X118452037Y-81063373D01*
X118503557Y-80893534D01*
X118503557Y-80893533D01*
X118587221Y-80737011D01*
X118587222Y-80737009D01*
X118616552Y-80701271D01*
X118699814Y-80599814D01*
X118801271Y-80516552D01*
X118837009Y-80487222D01*
X118889808Y-80459000D01*
X118993533Y-80403557D01*
X119050147Y-80386384D01*
X119163373Y-80352037D01*
X119229558Y-80345518D01*
X119295740Y-80339000D01*
X119384260Y-80339000D01*
X119450442Y-80345518D01*
X119450442Y-80345518D01*
G37*
G36*
X165170442Y-80345518D02*
X165236627Y-80352037D01*
X165349853Y-80386384D01*
X165406467Y-80403557D01*
X165510192Y-80459000D01*
X165562991Y-80487222D01*
X165598729Y-80516552D01*
X165700186Y-80599814D01*
X165783448Y-80701271D01*
X165812778Y-80737009D01*
X165812779Y-80737011D01*
X165896443Y-80893533D01*
X165896443Y-80893534D01*
X165947963Y-81063373D01*
X165965359Y-81240000D01*
X165947963Y-81416627D01*
X165913616Y-81529853D01*
X165896443Y-81586467D01*
X165832301Y-81706466D01*
X165812778Y-81742991D01*
X165783448Y-81778729D01*
X165700186Y-81880186D01*
X165598729Y-81963448D01*
X165562991Y-81992778D01*
X165562989Y-81992779D01*
X165406467Y-82076443D01*
X165349853Y-82093616D01*
X165236627Y-82127963D01*
X165170442Y-82134482D01*
X165104260Y-82141000D01*
X165015740Y-82141000D01*
X164949558Y-82134482D01*
X164883373Y-82127963D01*
X164770147Y-82093616D01*
X164713533Y-82076443D01*
X164557011Y-81992779D01*
X164557009Y-81992778D01*
X164521271Y-81963448D01*
X164419814Y-81880186D01*
X164336552Y-81778729D01*
X164307222Y-81742991D01*
X164287699Y-81706466D01*
X164223557Y-81586467D01*
X164206384Y-81529853D01*
X164172037Y-81416627D01*
X164154641Y-81240000D01*
X164172037Y-81063373D01*
X164223557Y-80893534D01*
X164223557Y-80893533D01*
X164307221Y-80737011D01*
X164307222Y-80737009D01*
X164336552Y-80701271D01*
X164419814Y-80599814D01*
X164521271Y-80516552D01*
X164557009Y-80487222D01*
X164609808Y-80459000D01*
X164713533Y-80403557D01*
X164770147Y-80386384D01*
X164883373Y-80352037D01*
X164949558Y-80345518D01*
X165015740Y-80339000D01*
X165104260Y-80339000D01*
X165170442Y-80345518D01*
X165170442Y-80345518D01*
G37*
G36*
X149610443Y-77925519D02*
X149676627Y-77932037D01*
X149789853Y-77966384D01*
X149846467Y-77983557D01*
X149985087Y-78057652D01*
X150002991Y-78067222D01*
X150038729Y-78096552D01*
X150140186Y-78179814D01*
X150223448Y-78281271D01*
X150252778Y-78317009D01*
X150252779Y-78317011D01*
X150336443Y-78473533D01*
X150351562Y-78523375D01*
X150387963Y-78643373D01*
X150405359Y-78820000D01*
X150387963Y-78996627D01*
X150372844Y-79046467D01*
X150336443Y-79166467D01*
X150316921Y-79202989D01*
X150252778Y-79322991D01*
X150238667Y-79340185D01*
X150140186Y-79460186D01*
X150047265Y-79536443D01*
X150002991Y-79572778D01*
X150002989Y-79572779D01*
X149846467Y-79656443D01*
X149789853Y-79673616D01*
X149676627Y-79707963D01*
X149610442Y-79714482D01*
X149544260Y-79721000D01*
X149455740Y-79721000D01*
X149389558Y-79714482D01*
X149323373Y-79707963D01*
X149210147Y-79673616D01*
X149153533Y-79656443D01*
X148997011Y-79572779D01*
X148997009Y-79572778D01*
X148952735Y-79536443D01*
X148859814Y-79460186D01*
X148761333Y-79340185D01*
X148747222Y-79322991D01*
X148683079Y-79202989D01*
X148663557Y-79166467D01*
X148627156Y-79046467D01*
X148612037Y-78996627D01*
X148594641Y-78820000D01*
X148612037Y-78643373D01*
X148648438Y-78523375D01*
X148663557Y-78473533D01*
X148747221Y-78317011D01*
X148747222Y-78317009D01*
X148776552Y-78281271D01*
X148859814Y-78179814D01*
X148961271Y-78096552D01*
X148997009Y-78067222D01*
X149014913Y-78057652D01*
X149153533Y-77983557D01*
X149210147Y-77966384D01*
X149323373Y-77932037D01*
X149389557Y-77925519D01*
X149455740Y-77919000D01*
X149544260Y-77919000D01*
X149610443Y-77925519D01*
X149610443Y-77925519D01*
G37*
G36*
X165170443Y-77805519D02*
X165236627Y-77812037D01*
X165349853Y-77846384D01*
X165406467Y-77863557D01*
X165510192Y-77919000D01*
X165562991Y-77947222D01*
X165598729Y-77976552D01*
X165700186Y-78059814D01*
X165783448Y-78161271D01*
X165812778Y-78197009D01*
X165812779Y-78197011D01*
X165896443Y-78353533D01*
X165896443Y-78353534D01*
X165947963Y-78523373D01*
X165965359Y-78700000D01*
X165947963Y-78876627D01*
X165913616Y-78989853D01*
X165896443Y-79046467D01*
X165832301Y-79166466D01*
X165812778Y-79202991D01*
X165783448Y-79238729D01*
X165700186Y-79340186D01*
X165598729Y-79423448D01*
X165562991Y-79452778D01*
X165562989Y-79452779D01*
X165406467Y-79536443D01*
X165349853Y-79553616D01*
X165236627Y-79587963D01*
X165170442Y-79594482D01*
X165104260Y-79601000D01*
X165015740Y-79601000D01*
X164949558Y-79594482D01*
X164883373Y-79587963D01*
X164770147Y-79553616D01*
X164713533Y-79536443D01*
X164557011Y-79452779D01*
X164557009Y-79452778D01*
X164521271Y-79423448D01*
X164419814Y-79340186D01*
X164336552Y-79238729D01*
X164307222Y-79202991D01*
X164287699Y-79166466D01*
X164223557Y-79046467D01*
X164206384Y-78989853D01*
X164172037Y-78876627D01*
X164154641Y-78700000D01*
X164172037Y-78523373D01*
X164223557Y-78353534D01*
X164223557Y-78353533D01*
X164307221Y-78197011D01*
X164307222Y-78197009D01*
X164336552Y-78161271D01*
X164419814Y-78059814D01*
X164521271Y-77976552D01*
X164557009Y-77947222D01*
X164609808Y-77919000D01*
X164713533Y-77863557D01*
X164770147Y-77846384D01*
X164883373Y-77812037D01*
X164949557Y-77805519D01*
X165015740Y-77799000D01*
X165104260Y-77799000D01*
X165170443Y-77805519D01*
X165170443Y-77805519D01*
G37*
G36*
X119450443Y-77805519D02*
X119516627Y-77812037D01*
X119629853Y-77846384D01*
X119686467Y-77863557D01*
X119790192Y-77919000D01*
X119842991Y-77947222D01*
X119878729Y-77976552D01*
X119980186Y-78059814D01*
X120063448Y-78161271D01*
X120092778Y-78197009D01*
X120092779Y-78197011D01*
X120176443Y-78353533D01*
X120176443Y-78353534D01*
X120227963Y-78523373D01*
X120245359Y-78700000D01*
X120227963Y-78876627D01*
X120193616Y-78989853D01*
X120176443Y-79046467D01*
X120112301Y-79166466D01*
X120092778Y-79202991D01*
X120063448Y-79238729D01*
X119980186Y-79340186D01*
X119878729Y-79423448D01*
X119842991Y-79452778D01*
X119842989Y-79452779D01*
X119686467Y-79536443D01*
X119629853Y-79553616D01*
X119516627Y-79587963D01*
X119450442Y-79594482D01*
X119384260Y-79601000D01*
X119295740Y-79601000D01*
X119229558Y-79594482D01*
X119163373Y-79587963D01*
X119050147Y-79553616D01*
X118993533Y-79536443D01*
X118837011Y-79452779D01*
X118837009Y-79452778D01*
X118801271Y-79423448D01*
X118699814Y-79340186D01*
X118616552Y-79238729D01*
X118587222Y-79202991D01*
X118567699Y-79166466D01*
X118503557Y-79046467D01*
X118486384Y-78989853D01*
X118452037Y-78876627D01*
X118434641Y-78700000D01*
X118452037Y-78523373D01*
X118503557Y-78353534D01*
X118503557Y-78353533D01*
X118587221Y-78197011D01*
X118587222Y-78197009D01*
X118616552Y-78161271D01*
X118699814Y-78059814D01*
X118801271Y-77976552D01*
X118837009Y-77947222D01*
X118889808Y-77919000D01*
X118993533Y-77863557D01*
X119050147Y-77846384D01*
X119163373Y-77812037D01*
X119229557Y-77805519D01*
X119295740Y-77799000D01*
X119384260Y-77799000D01*
X119450443Y-77805519D01*
X119450443Y-77805519D01*
G37*
G36*
X149610442Y-75385518D02*
X149676627Y-75392037D01*
X149789853Y-75426384D01*
X149846467Y-75443557D01*
X149985087Y-75517652D01*
X150002991Y-75527222D01*
X150038729Y-75556552D01*
X150140186Y-75639814D01*
X150223448Y-75741271D01*
X150252778Y-75777009D01*
X150252779Y-75777011D01*
X150336443Y-75933533D01*
X150351562Y-75983375D01*
X150387963Y-76103373D01*
X150405359Y-76280000D01*
X150387963Y-76456627D01*
X150372844Y-76506467D01*
X150336443Y-76626467D01*
X150316921Y-76662989D01*
X150252778Y-76782991D01*
X150238667Y-76800185D01*
X150140186Y-76920186D01*
X150047265Y-76996443D01*
X150002991Y-77032778D01*
X150002989Y-77032779D01*
X149846467Y-77116443D01*
X149789853Y-77133616D01*
X149676627Y-77167963D01*
X149610443Y-77174481D01*
X149544260Y-77181000D01*
X149455740Y-77181000D01*
X149389557Y-77174481D01*
X149323373Y-77167963D01*
X149210147Y-77133616D01*
X149153533Y-77116443D01*
X148997011Y-77032779D01*
X148997009Y-77032778D01*
X148952735Y-76996443D01*
X148859814Y-76920186D01*
X148761333Y-76800185D01*
X148747222Y-76782991D01*
X148683079Y-76662989D01*
X148663557Y-76626467D01*
X148627156Y-76506467D01*
X148612037Y-76456627D01*
X148594641Y-76280000D01*
X148612037Y-76103373D01*
X148648438Y-75983375D01*
X148663557Y-75933533D01*
X148747221Y-75777011D01*
X148747222Y-75777009D01*
X148776552Y-75741271D01*
X148859814Y-75639814D01*
X148961271Y-75556552D01*
X148997009Y-75527222D01*
X149014913Y-75517652D01*
X149153533Y-75443557D01*
X149210147Y-75426384D01*
X149323373Y-75392037D01*
X149389558Y-75385518D01*
X149455740Y-75379000D01*
X149544260Y-75379000D01*
X149610442Y-75385518D01*
X149610442Y-75385518D01*
G37*
G36*
X165170442Y-75265518D02*
X165236627Y-75272037D01*
X165349853Y-75306384D01*
X165406467Y-75323557D01*
X165510192Y-75379000D01*
X165562991Y-75407222D01*
X165598729Y-75436552D01*
X165700186Y-75519814D01*
X165783448Y-75621271D01*
X165812778Y-75657009D01*
X165812779Y-75657011D01*
X165896443Y-75813533D01*
X165896443Y-75813534D01*
X165947963Y-75983373D01*
X165965359Y-76160000D01*
X165947963Y-76336627D01*
X165913616Y-76449853D01*
X165896443Y-76506467D01*
X165832301Y-76626466D01*
X165812778Y-76662991D01*
X165783448Y-76698729D01*
X165700186Y-76800186D01*
X165598729Y-76883448D01*
X165562991Y-76912778D01*
X165562989Y-76912779D01*
X165406467Y-76996443D01*
X165349853Y-77013616D01*
X165236627Y-77047963D01*
X165170443Y-77054481D01*
X165104260Y-77061000D01*
X165015740Y-77061000D01*
X164949557Y-77054481D01*
X164883373Y-77047963D01*
X164770147Y-77013616D01*
X164713533Y-76996443D01*
X164557011Y-76912779D01*
X164557009Y-76912778D01*
X164521271Y-76883448D01*
X164419814Y-76800186D01*
X164336552Y-76698729D01*
X164307222Y-76662991D01*
X164287699Y-76626466D01*
X164223557Y-76506467D01*
X164206384Y-76449853D01*
X164172037Y-76336627D01*
X164154641Y-76160000D01*
X164172037Y-75983373D01*
X164223557Y-75813534D01*
X164223557Y-75813533D01*
X164307221Y-75657011D01*
X164307222Y-75657009D01*
X164336552Y-75621271D01*
X164419814Y-75519814D01*
X164521271Y-75436552D01*
X164557009Y-75407222D01*
X164609808Y-75379000D01*
X164713533Y-75323557D01*
X164770147Y-75306384D01*
X164883373Y-75272037D01*
X164949558Y-75265518D01*
X165015740Y-75259000D01*
X165104260Y-75259000D01*
X165170442Y-75265518D01*
X165170442Y-75265518D01*
G37*
G36*
X119450442Y-75265518D02*
X119516627Y-75272037D01*
X119629853Y-75306384D01*
X119686467Y-75323557D01*
X119790192Y-75379000D01*
X119842991Y-75407222D01*
X119878729Y-75436552D01*
X119980186Y-75519814D01*
X120063448Y-75621271D01*
X120092778Y-75657009D01*
X120092779Y-75657011D01*
X120176443Y-75813533D01*
X120176443Y-75813534D01*
X120227963Y-75983373D01*
X120245359Y-76160000D01*
X120227963Y-76336627D01*
X120193616Y-76449853D01*
X120176443Y-76506467D01*
X120112301Y-76626466D01*
X120092778Y-76662991D01*
X120063448Y-76698729D01*
X119980186Y-76800186D01*
X119878729Y-76883448D01*
X119842991Y-76912778D01*
X119842989Y-76912779D01*
X119686467Y-76996443D01*
X119629853Y-77013616D01*
X119516627Y-77047963D01*
X119450443Y-77054481D01*
X119384260Y-77061000D01*
X119295740Y-77061000D01*
X119229557Y-77054481D01*
X119163373Y-77047963D01*
X119050147Y-77013616D01*
X118993533Y-76996443D01*
X118837011Y-76912779D01*
X118837009Y-76912778D01*
X118801271Y-76883448D01*
X118699814Y-76800186D01*
X118616552Y-76698729D01*
X118587222Y-76662991D01*
X118567699Y-76626466D01*
X118503557Y-76506467D01*
X118486384Y-76449853D01*
X118452037Y-76336627D01*
X118434641Y-76160000D01*
X118452037Y-75983373D01*
X118503557Y-75813534D01*
X118503557Y-75813533D01*
X118587221Y-75657011D01*
X118587222Y-75657009D01*
X118616552Y-75621271D01*
X118699814Y-75519814D01*
X118801271Y-75436552D01*
X118837009Y-75407222D01*
X118889808Y-75379000D01*
X118993533Y-75323557D01*
X119050147Y-75306384D01*
X119163373Y-75272037D01*
X119229558Y-75265518D01*
X119295740Y-75259000D01*
X119384260Y-75259000D01*
X119450442Y-75265518D01*
X119450442Y-75265518D01*
G37*
G36*
X149610442Y-72845518D02*
X149676627Y-72852037D01*
X149789853Y-72886384D01*
X149846467Y-72903557D01*
X149985087Y-72977652D01*
X150002991Y-72987222D01*
X150038729Y-73016552D01*
X150140186Y-73099814D01*
X150223448Y-73201271D01*
X150252778Y-73237009D01*
X150252779Y-73237011D01*
X150336443Y-73393533D01*
X150351562Y-73443375D01*
X150387963Y-73563373D01*
X150405359Y-73740000D01*
X150387963Y-73916627D01*
X150372844Y-73966467D01*
X150336443Y-74086467D01*
X150316921Y-74122989D01*
X150252778Y-74242991D01*
X150238667Y-74260185D01*
X150140186Y-74380186D01*
X150047265Y-74456443D01*
X150002991Y-74492778D01*
X150002989Y-74492779D01*
X149846467Y-74576443D01*
X149789853Y-74593616D01*
X149676627Y-74627963D01*
X149610442Y-74634482D01*
X149544260Y-74641000D01*
X149455740Y-74641000D01*
X149389558Y-74634482D01*
X149323373Y-74627963D01*
X149210147Y-74593616D01*
X149153533Y-74576443D01*
X148997011Y-74492779D01*
X148997009Y-74492778D01*
X148952735Y-74456443D01*
X148859814Y-74380186D01*
X148761333Y-74260185D01*
X148747222Y-74242991D01*
X148683079Y-74122989D01*
X148663557Y-74086467D01*
X148627156Y-73966467D01*
X148612037Y-73916627D01*
X148594641Y-73740000D01*
X148612037Y-73563373D01*
X148648438Y-73443375D01*
X148663557Y-73393533D01*
X148747221Y-73237011D01*
X148747222Y-73237009D01*
X148776552Y-73201271D01*
X148859814Y-73099814D01*
X148961271Y-73016552D01*
X148997009Y-72987222D01*
X149014913Y-72977652D01*
X149153533Y-72903557D01*
X149210147Y-72886384D01*
X149323373Y-72852037D01*
X149389558Y-72845518D01*
X149455740Y-72839000D01*
X149544260Y-72839000D01*
X149610442Y-72845518D01*
X149610442Y-72845518D01*
G37*
G36*
X119450443Y-72725519D02*
X119516627Y-72732037D01*
X119629853Y-72766384D01*
X119686467Y-72783557D01*
X119790192Y-72839000D01*
X119842991Y-72867222D01*
X119878729Y-72896552D01*
X119980186Y-72979814D01*
X120063448Y-73081271D01*
X120092778Y-73117009D01*
X120092779Y-73117011D01*
X120176443Y-73273533D01*
X120176443Y-73273534D01*
X120227963Y-73443373D01*
X120245359Y-73620000D01*
X120227963Y-73796627D01*
X120193616Y-73909853D01*
X120176443Y-73966467D01*
X120112301Y-74086466D01*
X120092778Y-74122991D01*
X120063448Y-74158729D01*
X119980186Y-74260186D01*
X119878729Y-74343448D01*
X119842991Y-74372778D01*
X119842989Y-74372779D01*
X119686467Y-74456443D01*
X119629853Y-74473616D01*
X119516627Y-74507963D01*
X119450442Y-74514482D01*
X119384260Y-74521000D01*
X119295740Y-74521000D01*
X119229558Y-74514482D01*
X119163373Y-74507963D01*
X119050147Y-74473616D01*
X118993533Y-74456443D01*
X118837011Y-74372779D01*
X118837009Y-74372778D01*
X118801271Y-74343448D01*
X118699814Y-74260186D01*
X118616552Y-74158729D01*
X118587222Y-74122991D01*
X118567699Y-74086466D01*
X118503557Y-73966467D01*
X118486384Y-73909853D01*
X118452037Y-73796627D01*
X118434641Y-73620000D01*
X118452037Y-73443373D01*
X118503557Y-73273534D01*
X118503557Y-73273533D01*
X118587221Y-73117011D01*
X118587222Y-73117009D01*
X118616552Y-73081271D01*
X118699814Y-72979814D01*
X118801271Y-72896552D01*
X118837009Y-72867222D01*
X118889808Y-72839000D01*
X118993533Y-72783557D01*
X119050147Y-72766384D01*
X119163373Y-72732037D01*
X119229557Y-72725519D01*
X119295740Y-72719000D01*
X119384260Y-72719000D01*
X119450443Y-72725519D01*
X119450443Y-72725519D01*
G37*
G36*
X165170443Y-72725519D02*
X165236627Y-72732037D01*
X165349853Y-72766384D01*
X165406467Y-72783557D01*
X165510192Y-72839000D01*
X165562991Y-72867222D01*
X165598729Y-72896552D01*
X165700186Y-72979814D01*
X165783448Y-73081271D01*
X165812778Y-73117009D01*
X165812779Y-73117011D01*
X165896443Y-73273533D01*
X165896443Y-73273534D01*
X165947963Y-73443373D01*
X165965359Y-73620000D01*
X165947963Y-73796627D01*
X165913616Y-73909853D01*
X165896443Y-73966467D01*
X165832301Y-74086466D01*
X165812778Y-74122991D01*
X165783448Y-74158729D01*
X165700186Y-74260186D01*
X165598729Y-74343448D01*
X165562991Y-74372778D01*
X165562989Y-74372779D01*
X165406467Y-74456443D01*
X165349853Y-74473616D01*
X165236627Y-74507963D01*
X165170442Y-74514482D01*
X165104260Y-74521000D01*
X165015740Y-74521000D01*
X164949558Y-74514482D01*
X164883373Y-74507963D01*
X164770147Y-74473616D01*
X164713533Y-74456443D01*
X164557011Y-74372779D01*
X164557009Y-74372778D01*
X164521271Y-74343448D01*
X164419814Y-74260186D01*
X164336552Y-74158729D01*
X164307222Y-74122991D01*
X164287699Y-74086466D01*
X164223557Y-73966467D01*
X164206384Y-73909853D01*
X164172037Y-73796627D01*
X164154641Y-73620000D01*
X164172037Y-73443373D01*
X164223557Y-73273534D01*
X164223557Y-73273533D01*
X164307221Y-73117011D01*
X164307222Y-73117009D01*
X164336552Y-73081271D01*
X164419814Y-72979814D01*
X164521271Y-72896552D01*
X164557009Y-72867222D01*
X164609808Y-72839000D01*
X164713533Y-72783557D01*
X164770147Y-72766384D01*
X164883373Y-72732037D01*
X164949557Y-72725519D01*
X165015740Y-72719000D01*
X165104260Y-72719000D01*
X165170443Y-72725519D01*
X165170443Y-72725519D01*
G37*
G36*
X149610442Y-70305518D02*
X149676627Y-70312037D01*
X149789853Y-70346384D01*
X149846467Y-70363557D01*
X149985087Y-70437652D01*
X150002991Y-70447222D01*
X150038729Y-70476552D01*
X150140186Y-70559814D01*
X150223448Y-70661271D01*
X150252778Y-70697009D01*
X150252779Y-70697011D01*
X150336443Y-70853533D01*
X150351562Y-70903375D01*
X150387963Y-71023373D01*
X150405359Y-71200000D01*
X150387963Y-71376627D01*
X150372844Y-71426467D01*
X150336443Y-71546467D01*
X150316921Y-71582989D01*
X150252778Y-71702991D01*
X150238667Y-71720185D01*
X150140186Y-71840186D01*
X150047265Y-71916443D01*
X150002991Y-71952778D01*
X150002989Y-71952779D01*
X149846467Y-72036443D01*
X149789853Y-72053616D01*
X149676627Y-72087963D01*
X149610442Y-72094482D01*
X149544260Y-72101000D01*
X149455740Y-72101000D01*
X149389558Y-72094482D01*
X149323373Y-72087963D01*
X149210147Y-72053616D01*
X149153533Y-72036443D01*
X148997011Y-71952779D01*
X148997009Y-71952778D01*
X148952735Y-71916443D01*
X148859814Y-71840186D01*
X148761333Y-71720185D01*
X148747222Y-71702991D01*
X148683079Y-71582989D01*
X148663557Y-71546467D01*
X148627156Y-71426467D01*
X148612037Y-71376627D01*
X148594641Y-71200000D01*
X148612037Y-71023373D01*
X148648438Y-70903375D01*
X148663557Y-70853533D01*
X148747221Y-70697011D01*
X148747222Y-70697009D01*
X148776552Y-70661271D01*
X148859814Y-70559814D01*
X148961271Y-70476552D01*
X148997009Y-70447222D01*
X149014913Y-70437652D01*
X149153533Y-70363557D01*
X149210147Y-70346384D01*
X149323373Y-70312037D01*
X149389558Y-70305518D01*
X149455740Y-70299000D01*
X149544260Y-70299000D01*
X149610442Y-70305518D01*
X149610442Y-70305518D01*
G37*
G36*
X119450442Y-70185518D02*
X119516627Y-70192037D01*
X119629853Y-70226384D01*
X119686467Y-70243557D01*
X119790192Y-70299000D01*
X119842991Y-70327222D01*
X119878729Y-70356552D01*
X119980186Y-70439814D01*
X120063448Y-70541271D01*
X120092778Y-70577009D01*
X120092779Y-70577011D01*
X120176443Y-70733533D01*
X120176443Y-70733534D01*
X120227963Y-70903373D01*
X120245359Y-71080000D01*
X120227963Y-71256627D01*
X120193616Y-71369853D01*
X120176443Y-71426467D01*
X120112301Y-71546466D01*
X120092778Y-71582991D01*
X120063448Y-71618729D01*
X119980186Y-71720186D01*
X119878729Y-71803448D01*
X119842991Y-71832778D01*
X119842989Y-71832779D01*
X119686467Y-71916443D01*
X119629853Y-71933616D01*
X119516627Y-71967963D01*
X119450442Y-71974482D01*
X119384260Y-71981000D01*
X119295740Y-71981000D01*
X119229558Y-71974482D01*
X119163373Y-71967963D01*
X119050147Y-71933616D01*
X118993533Y-71916443D01*
X118837011Y-71832779D01*
X118837009Y-71832778D01*
X118801271Y-71803448D01*
X118699814Y-71720186D01*
X118616552Y-71618729D01*
X118587222Y-71582991D01*
X118567699Y-71546466D01*
X118503557Y-71426467D01*
X118486384Y-71369853D01*
X118452037Y-71256627D01*
X118434641Y-71080000D01*
X118452037Y-70903373D01*
X118503557Y-70733534D01*
X118503557Y-70733533D01*
X118587221Y-70577011D01*
X118587222Y-70577009D01*
X118616552Y-70541271D01*
X118699814Y-70439814D01*
X118801271Y-70356552D01*
X118837009Y-70327222D01*
X118889808Y-70299000D01*
X118993533Y-70243557D01*
X119050147Y-70226384D01*
X119163373Y-70192037D01*
X119229558Y-70185518D01*
X119295740Y-70179000D01*
X119384260Y-70179000D01*
X119450442Y-70185518D01*
X119450442Y-70185518D01*
G37*
G36*
X165170442Y-70185518D02*
X165236627Y-70192037D01*
X165349853Y-70226384D01*
X165406467Y-70243557D01*
X165510192Y-70299000D01*
X165562991Y-70327222D01*
X165598729Y-70356552D01*
X165700186Y-70439814D01*
X165783448Y-70541271D01*
X165812778Y-70577009D01*
X165812779Y-70577011D01*
X165896443Y-70733533D01*
X165896443Y-70733534D01*
X165947963Y-70903373D01*
X165965359Y-71080000D01*
X165947963Y-71256627D01*
X165913616Y-71369853D01*
X165896443Y-71426467D01*
X165832301Y-71546466D01*
X165812778Y-71582991D01*
X165783448Y-71618729D01*
X165700186Y-71720186D01*
X165598729Y-71803448D01*
X165562991Y-71832778D01*
X165562989Y-71832779D01*
X165406467Y-71916443D01*
X165349853Y-71933616D01*
X165236627Y-71967963D01*
X165170442Y-71974482D01*
X165104260Y-71981000D01*
X165015740Y-71981000D01*
X164949558Y-71974482D01*
X164883373Y-71967963D01*
X164770147Y-71933616D01*
X164713533Y-71916443D01*
X164557011Y-71832779D01*
X164557009Y-71832778D01*
X164521271Y-71803448D01*
X164419814Y-71720186D01*
X164336552Y-71618729D01*
X164307222Y-71582991D01*
X164287699Y-71546466D01*
X164223557Y-71426467D01*
X164206384Y-71369853D01*
X164172037Y-71256627D01*
X164154641Y-71080000D01*
X164172037Y-70903373D01*
X164223557Y-70733534D01*
X164223557Y-70733533D01*
X164307221Y-70577011D01*
X164307222Y-70577009D01*
X164336552Y-70541271D01*
X164419814Y-70439814D01*
X164521271Y-70356552D01*
X164557009Y-70327222D01*
X164609808Y-70299000D01*
X164713533Y-70243557D01*
X164770147Y-70226384D01*
X164883373Y-70192037D01*
X164949558Y-70185518D01*
X165015740Y-70179000D01*
X165104260Y-70179000D01*
X165170442Y-70185518D01*
X165170442Y-70185518D01*
G37*
G36*
X149610443Y-67765519D02*
X149676627Y-67772037D01*
X149789853Y-67806384D01*
X149846467Y-67823557D01*
X149985087Y-67897652D01*
X150002991Y-67907222D01*
X150038729Y-67936552D01*
X150140186Y-68019814D01*
X150223448Y-68121271D01*
X150252778Y-68157009D01*
X150252779Y-68157011D01*
X150336443Y-68313533D01*
X150351562Y-68363375D01*
X150387963Y-68483373D01*
X150405359Y-68660000D01*
X150387963Y-68836627D01*
X150372844Y-68886467D01*
X150336443Y-69006467D01*
X150316921Y-69042989D01*
X150252778Y-69162991D01*
X150238667Y-69180185D01*
X150140186Y-69300186D01*
X150047265Y-69376443D01*
X150002991Y-69412778D01*
X150002989Y-69412779D01*
X149846467Y-69496443D01*
X149789853Y-69513616D01*
X149676627Y-69547963D01*
X149610442Y-69554482D01*
X149544260Y-69561000D01*
X149455740Y-69561000D01*
X149389558Y-69554482D01*
X149323373Y-69547963D01*
X149210147Y-69513616D01*
X149153533Y-69496443D01*
X148997011Y-69412779D01*
X148997009Y-69412778D01*
X148952735Y-69376443D01*
X148859814Y-69300186D01*
X148761333Y-69180185D01*
X148747222Y-69162991D01*
X148683079Y-69042989D01*
X148663557Y-69006467D01*
X148627156Y-68886467D01*
X148612037Y-68836627D01*
X148594641Y-68660000D01*
X148612037Y-68483373D01*
X148648438Y-68363375D01*
X148663557Y-68313533D01*
X148747221Y-68157011D01*
X148747222Y-68157009D01*
X148776552Y-68121271D01*
X148859814Y-68019814D01*
X148961271Y-67936552D01*
X148997009Y-67907222D01*
X149014913Y-67897652D01*
X149153533Y-67823557D01*
X149210147Y-67806384D01*
X149323373Y-67772037D01*
X149389557Y-67765519D01*
X149455740Y-67759000D01*
X149544260Y-67759000D01*
X149610443Y-67765519D01*
X149610443Y-67765519D01*
G37*
G36*
X119450443Y-67645519D02*
X119516627Y-67652037D01*
X119629853Y-67686384D01*
X119686467Y-67703557D01*
X119790192Y-67759000D01*
X119842991Y-67787222D01*
X119878729Y-67816552D01*
X119980186Y-67899814D01*
X120063448Y-68001271D01*
X120092778Y-68037009D01*
X120092779Y-68037011D01*
X120176443Y-68193533D01*
X120176443Y-68193534D01*
X120227963Y-68363373D01*
X120245359Y-68540000D01*
X120227963Y-68716627D01*
X120193616Y-68829853D01*
X120176443Y-68886467D01*
X120112301Y-69006466D01*
X120092778Y-69042991D01*
X120063448Y-69078729D01*
X119980186Y-69180186D01*
X119878729Y-69263448D01*
X119842991Y-69292778D01*
X119842989Y-69292779D01*
X119686467Y-69376443D01*
X119629853Y-69393616D01*
X119516627Y-69427963D01*
X119450443Y-69434481D01*
X119384260Y-69441000D01*
X119295740Y-69441000D01*
X119229557Y-69434481D01*
X119163373Y-69427963D01*
X119050147Y-69393616D01*
X118993533Y-69376443D01*
X118837011Y-69292779D01*
X118837009Y-69292778D01*
X118801271Y-69263448D01*
X118699814Y-69180186D01*
X118616552Y-69078729D01*
X118587222Y-69042991D01*
X118567699Y-69006466D01*
X118503557Y-68886467D01*
X118486384Y-68829853D01*
X118452037Y-68716627D01*
X118434641Y-68540000D01*
X118452037Y-68363373D01*
X118503557Y-68193534D01*
X118503557Y-68193533D01*
X118587221Y-68037011D01*
X118587222Y-68037009D01*
X118616552Y-68001271D01*
X118699814Y-67899814D01*
X118801271Y-67816552D01*
X118837009Y-67787222D01*
X118889808Y-67759000D01*
X118993533Y-67703557D01*
X119050147Y-67686384D01*
X119163373Y-67652037D01*
X119229557Y-67645519D01*
X119295740Y-67639000D01*
X119384260Y-67639000D01*
X119450443Y-67645519D01*
X119450443Y-67645519D01*
G37*
G36*
X165170443Y-67645519D02*
X165236627Y-67652037D01*
X165349853Y-67686384D01*
X165406467Y-67703557D01*
X165510192Y-67759000D01*
X165562991Y-67787222D01*
X165598729Y-67816552D01*
X165700186Y-67899814D01*
X165783448Y-68001271D01*
X165812778Y-68037009D01*
X165812779Y-68037011D01*
X165896443Y-68193533D01*
X165896443Y-68193534D01*
X165947963Y-68363373D01*
X165965359Y-68540000D01*
X165947963Y-68716627D01*
X165913616Y-68829853D01*
X165896443Y-68886467D01*
X165832301Y-69006466D01*
X165812778Y-69042991D01*
X165783448Y-69078729D01*
X165700186Y-69180186D01*
X165598729Y-69263448D01*
X165562991Y-69292778D01*
X165562989Y-69292779D01*
X165406467Y-69376443D01*
X165349853Y-69393616D01*
X165236627Y-69427963D01*
X165170443Y-69434481D01*
X165104260Y-69441000D01*
X165015740Y-69441000D01*
X164949557Y-69434481D01*
X164883373Y-69427963D01*
X164770147Y-69393616D01*
X164713533Y-69376443D01*
X164557011Y-69292779D01*
X164557009Y-69292778D01*
X164521271Y-69263448D01*
X164419814Y-69180186D01*
X164336552Y-69078729D01*
X164307222Y-69042991D01*
X164287699Y-69006466D01*
X164223557Y-68886467D01*
X164206384Y-68829853D01*
X164172037Y-68716627D01*
X164154641Y-68540000D01*
X164172037Y-68363373D01*
X164223557Y-68193534D01*
X164223557Y-68193533D01*
X164307221Y-68037011D01*
X164307222Y-68037009D01*
X164336552Y-68001271D01*
X164419814Y-67899814D01*
X164521271Y-67816552D01*
X164557009Y-67787222D01*
X164609808Y-67759000D01*
X164713533Y-67703557D01*
X164770147Y-67686384D01*
X164883373Y-67652037D01*
X164949557Y-67645519D01*
X165015740Y-67639000D01*
X165104260Y-67639000D01*
X165170443Y-67645519D01*
X165170443Y-67645519D01*
G37*
G36*
X149610442Y-65225518D02*
X149676627Y-65232037D01*
X149789853Y-65266384D01*
X149846467Y-65283557D01*
X149985087Y-65357652D01*
X150002991Y-65367222D01*
X150038729Y-65396552D01*
X150140186Y-65479814D01*
X150223448Y-65581271D01*
X150252778Y-65617009D01*
X150252779Y-65617011D01*
X150336443Y-65773533D01*
X150351562Y-65823375D01*
X150387963Y-65943373D01*
X150405359Y-66120000D01*
X150387963Y-66296627D01*
X150372844Y-66346467D01*
X150336443Y-66466467D01*
X150316921Y-66502989D01*
X150252778Y-66622991D01*
X150238667Y-66640185D01*
X150140186Y-66760186D01*
X150047265Y-66836443D01*
X150002991Y-66872778D01*
X150002989Y-66872779D01*
X149846467Y-66956443D01*
X149789853Y-66973616D01*
X149676627Y-67007963D01*
X149610443Y-67014481D01*
X149544260Y-67021000D01*
X149455740Y-67021000D01*
X149389557Y-67014481D01*
X149323373Y-67007963D01*
X149210147Y-66973616D01*
X149153533Y-66956443D01*
X148997011Y-66872779D01*
X148997009Y-66872778D01*
X148952735Y-66836443D01*
X148859814Y-66760186D01*
X148761333Y-66640185D01*
X148747222Y-66622991D01*
X148683079Y-66502989D01*
X148663557Y-66466467D01*
X148627156Y-66346467D01*
X148612037Y-66296627D01*
X148594641Y-66120000D01*
X148612037Y-65943373D01*
X148648438Y-65823375D01*
X148663557Y-65773533D01*
X148747221Y-65617011D01*
X148747222Y-65617009D01*
X148776552Y-65581271D01*
X148859814Y-65479814D01*
X148961271Y-65396552D01*
X148997009Y-65367222D01*
X149014913Y-65357652D01*
X149153533Y-65283557D01*
X149210147Y-65266384D01*
X149323373Y-65232037D01*
X149389558Y-65225518D01*
X149455740Y-65219000D01*
X149544260Y-65219000D01*
X149610442Y-65225518D01*
X149610442Y-65225518D01*
G37*
G36*
X119450442Y-65105518D02*
X119516627Y-65112037D01*
X119629853Y-65146384D01*
X119686467Y-65163557D01*
X119790192Y-65219000D01*
X119842991Y-65247222D01*
X119878729Y-65276552D01*
X119980186Y-65359814D01*
X120063448Y-65461271D01*
X120092778Y-65497009D01*
X120092779Y-65497011D01*
X120176443Y-65653533D01*
X120176443Y-65653534D01*
X120227963Y-65823373D01*
X120245359Y-66000000D01*
X120227963Y-66176627D01*
X120193616Y-66289853D01*
X120176443Y-66346467D01*
X120112301Y-66466466D01*
X120092778Y-66502991D01*
X120063448Y-66538729D01*
X119980186Y-66640186D01*
X119878729Y-66723448D01*
X119842991Y-66752778D01*
X119842989Y-66752779D01*
X119686467Y-66836443D01*
X119629853Y-66853616D01*
X119516627Y-66887963D01*
X119450443Y-66894481D01*
X119384260Y-66901000D01*
X119295740Y-66901000D01*
X119229557Y-66894481D01*
X119163373Y-66887963D01*
X119050147Y-66853616D01*
X118993533Y-66836443D01*
X118837011Y-66752779D01*
X118837009Y-66752778D01*
X118801271Y-66723448D01*
X118699814Y-66640186D01*
X118616552Y-66538729D01*
X118587222Y-66502991D01*
X118567699Y-66466466D01*
X118503557Y-66346467D01*
X118486384Y-66289853D01*
X118452037Y-66176627D01*
X118434641Y-66000000D01*
X118452037Y-65823373D01*
X118503557Y-65653534D01*
X118503557Y-65653533D01*
X118587221Y-65497011D01*
X118587222Y-65497009D01*
X118616552Y-65461271D01*
X118699814Y-65359814D01*
X118801271Y-65276552D01*
X118837009Y-65247222D01*
X118889808Y-65219000D01*
X118993533Y-65163557D01*
X119050147Y-65146384D01*
X119163373Y-65112037D01*
X119229558Y-65105518D01*
X119295740Y-65099000D01*
X119384260Y-65099000D01*
X119450442Y-65105518D01*
X119450442Y-65105518D01*
G37*
G36*
X165170442Y-65105518D02*
X165236627Y-65112037D01*
X165349853Y-65146384D01*
X165406467Y-65163557D01*
X165510192Y-65219000D01*
X165562991Y-65247222D01*
X165598729Y-65276552D01*
X165700186Y-65359814D01*
X165783448Y-65461271D01*
X165812778Y-65497009D01*
X165812779Y-65497011D01*
X165896443Y-65653533D01*
X165896443Y-65653534D01*
X165947963Y-65823373D01*
X165965359Y-66000000D01*
X165947963Y-66176627D01*
X165913616Y-66289853D01*
X165896443Y-66346467D01*
X165832301Y-66466466D01*
X165812778Y-66502991D01*
X165783448Y-66538729D01*
X165700186Y-66640186D01*
X165598729Y-66723448D01*
X165562991Y-66752778D01*
X165562989Y-66752779D01*
X165406467Y-66836443D01*
X165349853Y-66853616D01*
X165236627Y-66887963D01*
X165170443Y-66894481D01*
X165104260Y-66901000D01*
X165015740Y-66901000D01*
X164949557Y-66894481D01*
X164883373Y-66887963D01*
X164770147Y-66853616D01*
X164713533Y-66836443D01*
X164557011Y-66752779D01*
X164557009Y-66752778D01*
X164521271Y-66723448D01*
X164419814Y-66640186D01*
X164336552Y-66538729D01*
X164307222Y-66502991D01*
X164287699Y-66466466D01*
X164223557Y-66346467D01*
X164206384Y-66289853D01*
X164172037Y-66176627D01*
X164154641Y-66000000D01*
X164172037Y-65823373D01*
X164223557Y-65653534D01*
X164223557Y-65653533D01*
X164307221Y-65497011D01*
X164307222Y-65497009D01*
X164336552Y-65461271D01*
X164419814Y-65359814D01*
X164521271Y-65276552D01*
X164557009Y-65247222D01*
X164609808Y-65219000D01*
X164713533Y-65163557D01*
X164770147Y-65146384D01*
X164883373Y-65112037D01*
X164949558Y-65105518D01*
X165015740Y-65099000D01*
X165104260Y-65099000D01*
X165170442Y-65105518D01*
X165170442Y-65105518D01*
G37*
G36*
X149610442Y-62685518D02*
X149676627Y-62692037D01*
X149789853Y-62726384D01*
X149846467Y-62743557D01*
X149985087Y-62817652D01*
X150002991Y-62827222D01*
X150038729Y-62856552D01*
X150140186Y-62939814D01*
X150223448Y-63041271D01*
X150252778Y-63077009D01*
X150252779Y-63077011D01*
X150336443Y-63233533D01*
X150351562Y-63283375D01*
X150387963Y-63403373D01*
X150405359Y-63580000D01*
X150387963Y-63756627D01*
X150372844Y-63806467D01*
X150336443Y-63926467D01*
X150316921Y-63962989D01*
X150252778Y-64082991D01*
X150238667Y-64100185D01*
X150140186Y-64220186D01*
X150047265Y-64296443D01*
X150002991Y-64332778D01*
X150002989Y-64332779D01*
X149846467Y-64416443D01*
X149789853Y-64433616D01*
X149676627Y-64467963D01*
X149610442Y-64474482D01*
X149544260Y-64481000D01*
X149455740Y-64481000D01*
X149389558Y-64474482D01*
X149323373Y-64467963D01*
X149210147Y-64433616D01*
X149153533Y-64416443D01*
X148997011Y-64332779D01*
X148997009Y-64332778D01*
X148952735Y-64296443D01*
X148859814Y-64220186D01*
X148761333Y-64100185D01*
X148747222Y-64082991D01*
X148683079Y-63962989D01*
X148663557Y-63926467D01*
X148627156Y-63806467D01*
X148612037Y-63756627D01*
X148594641Y-63580000D01*
X148612037Y-63403373D01*
X148648438Y-63283375D01*
X148663557Y-63233533D01*
X148747221Y-63077011D01*
X148747222Y-63077009D01*
X148776552Y-63041271D01*
X148859814Y-62939814D01*
X148961271Y-62856552D01*
X148997009Y-62827222D01*
X149014913Y-62817652D01*
X149153533Y-62743557D01*
X149210147Y-62726384D01*
X149323373Y-62692037D01*
X149389558Y-62685518D01*
X149455740Y-62679000D01*
X149544260Y-62679000D01*
X149610442Y-62685518D01*
X149610442Y-62685518D01*
G37*
G36*
X165170443Y-62565519D02*
X165236627Y-62572037D01*
X165349853Y-62606384D01*
X165406467Y-62623557D01*
X165510192Y-62679000D01*
X165562991Y-62707222D01*
X165598729Y-62736552D01*
X165700186Y-62819814D01*
X165783448Y-62921271D01*
X165812778Y-62957009D01*
X165812779Y-62957011D01*
X165896443Y-63113533D01*
X165896443Y-63113534D01*
X165947963Y-63283373D01*
X165965359Y-63460000D01*
X165947963Y-63636627D01*
X165913616Y-63749853D01*
X165896443Y-63806467D01*
X165832301Y-63926466D01*
X165812778Y-63962991D01*
X165783448Y-63998729D01*
X165700186Y-64100186D01*
X165598729Y-64183448D01*
X165562991Y-64212778D01*
X165562989Y-64212779D01*
X165406467Y-64296443D01*
X165349853Y-64313616D01*
X165236627Y-64347963D01*
X165170442Y-64354482D01*
X165104260Y-64361000D01*
X165015740Y-64361000D01*
X164949558Y-64354482D01*
X164883373Y-64347963D01*
X164770147Y-64313616D01*
X164713533Y-64296443D01*
X164557011Y-64212779D01*
X164557009Y-64212778D01*
X164521271Y-64183448D01*
X164419814Y-64100186D01*
X164336552Y-63998729D01*
X164307222Y-63962991D01*
X164287699Y-63926466D01*
X164223557Y-63806467D01*
X164206384Y-63749853D01*
X164172037Y-63636627D01*
X164154641Y-63460000D01*
X164172037Y-63283373D01*
X164223557Y-63113534D01*
X164223557Y-63113533D01*
X164307221Y-62957011D01*
X164307222Y-62957009D01*
X164336552Y-62921271D01*
X164419814Y-62819814D01*
X164521271Y-62736552D01*
X164557009Y-62707222D01*
X164609808Y-62679000D01*
X164713533Y-62623557D01*
X164770147Y-62606384D01*
X164883373Y-62572037D01*
X164949557Y-62565519D01*
X165015740Y-62559000D01*
X165104260Y-62559000D01*
X165170443Y-62565519D01*
X165170443Y-62565519D01*
G37*
G36*
X119450443Y-62565519D02*
X119516627Y-62572037D01*
X119629853Y-62606384D01*
X119686467Y-62623557D01*
X119790192Y-62679000D01*
X119842991Y-62707222D01*
X119878729Y-62736552D01*
X119980186Y-62819814D01*
X120063448Y-62921271D01*
X120092778Y-62957009D01*
X120092779Y-62957011D01*
X120176443Y-63113533D01*
X120176443Y-63113534D01*
X120227963Y-63283373D01*
X120245359Y-63460000D01*
X120227963Y-63636627D01*
X120193616Y-63749853D01*
X120176443Y-63806467D01*
X120112301Y-63926466D01*
X120092778Y-63962991D01*
X120063448Y-63998729D01*
X119980186Y-64100186D01*
X119878729Y-64183448D01*
X119842991Y-64212778D01*
X119842989Y-64212779D01*
X119686467Y-64296443D01*
X119629853Y-64313616D01*
X119516627Y-64347963D01*
X119450442Y-64354482D01*
X119384260Y-64361000D01*
X119295740Y-64361000D01*
X119229558Y-64354482D01*
X119163373Y-64347963D01*
X119050147Y-64313616D01*
X118993533Y-64296443D01*
X118837011Y-64212779D01*
X118837009Y-64212778D01*
X118801271Y-64183448D01*
X118699814Y-64100186D01*
X118616552Y-63998729D01*
X118587222Y-63962991D01*
X118567699Y-63926466D01*
X118503557Y-63806467D01*
X118486384Y-63749853D01*
X118452037Y-63636627D01*
X118434641Y-63460000D01*
X118452037Y-63283373D01*
X118503557Y-63113534D01*
X118503557Y-63113533D01*
X118587221Y-62957011D01*
X118587222Y-62957009D01*
X118616552Y-62921271D01*
X118699814Y-62819814D01*
X118801271Y-62736552D01*
X118837009Y-62707222D01*
X118889808Y-62679000D01*
X118993533Y-62623557D01*
X119050147Y-62606384D01*
X119163373Y-62572037D01*
X119229557Y-62565519D01*
X119295740Y-62559000D01*
X119384260Y-62559000D01*
X119450443Y-62565519D01*
X119450443Y-62565519D01*
G37*
G36*
X149591969Y-60143699D02*
X149676627Y-60152037D01*
X149789853Y-60186384D01*
X149846467Y-60203557D01*
X149985087Y-60277652D01*
X150002991Y-60287222D01*
X150038729Y-60316552D01*
X150140186Y-60399814D01*
X150223448Y-60501271D01*
X150252778Y-60537009D01*
X150252779Y-60537011D01*
X150336443Y-60693533D01*
X150351562Y-60743375D01*
X150387963Y-60863373D01*
X150405359Y-61040000D01*
X150387963Y-61216627D01*
X150372844Y-61266467D01*
X150336443Y-61386467D01*
X150316921Y-61422989D01*
X150252778Y-61542991D01*
X150238667Y-61560185D01*
X150140186Y-61680186D01*
X150047265Y-61756443D01*
X150002991Y-61792778D01*
X150002989Y-61792779D01*
X149846467Y-61876443D01*
X149789853Y-61893616D01*
X149676627Y-61927963D01*
X149610442Y-61934482D01*
X149544260Y-61941000D01*
X149455740Y-61941000D01*
X149389558Y-61934482D01*
X149323373Y-61927963D01*
X149210147Y-61893616D01*
X149153533Y-61876443D01*
X148997011Y-61792779D01*
X148997009Y-61792778D01*
X148952735Y-61756443D01*
X148859814Y-61680186D01*
X148761333Y-61560185D01*
X148747222Y-61542991D01*
X148683079Y-61422989D01*
X148663557Y-61386467D01*
X148627156Y-61266467D01*
X148612037Y-61216627D01*
X148594641Y-61040000D01*
X148612037Y-60863373D01*
X148648438Y-60743375D01*
X148663557Y-60693533D01*
X148747221Y-60537011D01*
X148747222Y-60537009D01*
X148776552Y-60501271D01*
X148859814Y-60399814D01*
X148961271Y-60316552D01*
X148997009Y-60287222D01*
X149014913Y-60277652D01*
X149153533Y-60203557D01*
X149210147Y-60186384D01*
X149323373Y-60152037D01*
X149408031Y-60143699D01*
X149455740Y-60139000D01*
X149544260Y-60139000D01*
X149591969Y-60143699D01*
X149591969Y-60143699D01*
G37*
G36*
X119450442Y-60025518D02*
X119516627Y-60032037D01*
X119629853Y-60066384D01*
X119686467Y-60083557D01*
X119790192Y-60139000D01*
X119842991Y-60167222D01*
X119878729Y-60196552D01*
X119980186Y-60279814D01*
X120047290Y-60361582D01*
X120092778Y-60417009D01*
X120092779Y-60417011D01*
X120176443Y-60573533D01*
X120176443Y-60573534D01*
X120227963Y-60743373D01*
X120245359Y-60920000D01*
X120227963Y-61096627D01*
X120204032Y-61175517D01*
X120176443Y-61266467D01*
X120139842Y-61334942D01*
X120092778Y-61422991D01*
X120063448Y-61458729D01*
X119980186Y-61560186D01*
X119878729Y-61643448D01*
X119842991Y-61672778D01*
X119842989Y-61672779D01*
X119686467Y-61756443D01*
X119629853Y-61773616D01*
X119516627Y-61807963D01*
X119450442Y-61814482D01*
X119384260Y-61821000D01*
X119295740Y-61821000D01*
X119229558Y-61814482D01*
X119163373Y-61807963D01*
X119050147Y-61773616D01*
X118993533Y-61756443D01*
X118837011Y-61672779D01*
X118837009Y-61672778D01*
X118801271Y-61643448D01*
X118699814Y-61560186D01*
X118616552Y-61458729D01*
X118587222Y-61422991D01*
X118540158Y-61334942D01*
X118503557Y-61266467D01*
X118475968Y-61175517D01*
X118452037Y-61096627D01*
X118434641Y-60920000D01*
X118452037Y-60743373D01*
X118503557Y-60573534D01*
X118503557Y-60573533D01*
X118587221Y-60417011D01*
X118587222Y-60417009D01*
X118632710Y-60361582D01*
X118699814Y-60279814D01*
X118801271Y-60196552D01*
X118837009Y-60167222D01*
X118889808Y-60139000D01*
X118993533Y-60083557D01*
X119050147Y-60066384D01*
X119163373Y-60032037D01*
X119229558Y-60025518D01*
X119295740Y-60019000D01*
X119384260Y-60019000D01*
X119450442Y-60025518D01*
X119450442Y-60025518D01*
G37*
G36*
X165170442Y-60025518D02*
X165236627Y-60032037D01*
X165349853Y-60066384D01*
X165406467Y-60083557D01*
X165510192Y-60139000D01*
X165562991Y-60167222D01*
X165598729Y-60196552D01*
X165700186Y-60279814D01*
X165767290Y-60361582D01*
X165812778Y-60417009D01*
X165812779Y-60417011D01*
X165896443Y-60573533D01*
X165896443Y-60573534D01*
X165947963Y-60743373D01*
X165965359Y-60920000D01*
X165947963Y-61096627D01*
X165924032Y-61175517D01*
X165896443Y-61266467D01*
X165859842Y-61334942D01*
X165812778Y-61422991D01*
X165783448Y-61458729D01*
X165700186Y-61560186D01*
X165598729Y-61643448D01*
X165562991Y-61672778D01*
X165562989Y-61672779D01*
X165406467Y-61756443D01*
X165349853Y-61773616D01*
X165236627Y-61807963D01*
X165170442Y-61814482D01*
X165104260Y-61821000D01*
X165015740Y-61821000D01*
X164949558Y-61814482D01*
X164883373Y-61807963D01*
X164770147Y-61773616D01*
X164713533Y-61756443D01*
X164557011Y-61672779D01*
X164557009Y-61672778D01*
X164521271Y-61643448D01*
X164419814Y-61560186D01*
X164336552Y-61458729D01*
X164307222Y-61422991D01*
X164260158Y-61334942D01*
X164223557Y-61266467D01*
X164195968Y-61175517D01*
X164172037Y-61096627D01*
X164154641Y-60920000D01*
X164172037Y-60743373D01*
X164223557Y-60573534D01*
X164223557Y-60573533D01*
X164307221Y-60417011D01*
X164307222Y-60417009D01*
X164352710Y-60361582D01*
X164419814Y-60279814D01*
X164521271Y-60196552D01*
X164557009Y-60167222D01*
X164609808Y-60139000D01*
X164713533Y-60083557D01*
X164770147Y-60066384D01*
X164883373Y-60032037D01*
X164949558Y-60025518D01*
X165015740Y-60019000D01*
X165104260Y-60019000D01*
X165170442Y-60025518D01*
X165170442Y-60025518D01*
G37*
G36*
X185468589Y-60052416D02*
X185595520Y-60077664D01*
X185754942Y-60143699D01*
X185898418Y-60239566D01*
X186020434Y-60361582D01*
X186116301Y-60505058D01*
X186182336Y-60664480D01*
X186216000Y-60833721D01*
X186216000Y-61006279D01*
X186182336Y-61175520D01*
X186116301Y-61334942D01*
X186020434Y-61478418D01*
X185898418Y-61600434D01*
X185754942Y-61696301D01*
X185595520Y-61762336D01*
X185468589Y-61787584D01*
X185426280Y-61796000D01*
X185253720Y-61796000D01*
X185211411Y-61787584D01*
X185084480Y-61762336D01*
X184925058Y-61696301D01*
X184781582Y-61600434D01*
X184659566Y-61478418D01*
X184563699Y-61334942D01*
X184497664Y-61175520D01*
X184464000Y-61006279D01*
X184464000Y-60833721D01*
X184497664Y-60664480D01*
X184563699Y-60505058D01*
X184659566Y-60361582D01*
X184781582Y-60239566D01*
X184925058Y-60143699D01*
X185084480Y-60077664D01*
X185211411Y-60052416D01*
X185253720Y-60044000D01*
X185426280Y-60044000D01*
X185468589Y-60052416D01*
X185468589Y-60052416D01*
G37*
G36*
X190468589Y-60052416D02*
X190595520Y-60077664D01*
X190754942Y-60143699D01*
X190898418Y-60239566D01*
X191020434Y-60361582D01*
X191116301Y-60505058D01*
X191182336Y-60664480D01*
X191216000Y-60833721D01*
X191216000Y-61006279D01*
X191182336Y-61175520D01*
X191116301Y-61334942D01*
X191020434Y-61478418D01*
X190898418Y-61600434D01*
X190754942Y-61696301D01*
X190595520Y-61762336D01*
X190468589Y-61787584D01*
X190426280Y-61796000D01*
X190253720Y-61796000D01*
X190211411Y-61787584D01*
X190084480Y-61762336D01*
X189925058Y-61696301D01*
X189781582Y-61600434D01*
X189659566Y-61478418D01*
X189563699Y-61334942D01*
X189497664Y-61175520D01*
X189464000Y-61006279D01*
X189464000Y-60833721D01*
X189497664Y-60664480D01*
X189563699Y-60505058D01*
X189659566Y-60361582D01*
X189781582Y-60239566D01*
X189925058Y-60143699D01*
X190084480Y-60077664D01*
X190211411Y-60052416D01*
X190253720Y-60044000D01*
X190426280Y-60044000D01*
X190468589Y-60052416D01*
X190468589Y-60052416D01*
G37*
G36*
X180468589Y-60052416D02*
X180595520Y-60077664D01*
X180754942Y-60143699D01*
X180898418Y-60239566D01*
X181020434Y-60361582D01*
X181116301Y-60505058D01*
X181182336Y-60664480D01*
X181216000Y-60833721D01*
X181216000Y-61006279D01*
X181182336Y-61175520D01*
X181116301Y-61334942D01*
X181020434Y-61478418D01*
X180898418Y-61600434D01*
X180754942Y-61696301D01*
X180595520Y-61762336D01*
X180468589Y-61787584D01*
X180426280Y-61796000D01*
X180253720Y-61796000D01*
X180211411Y-61787584D01*
X180084480Y-61762336D01*
X179925058Y-61696301D01*
X179781582Y-61600434D01*
X179659566Y-61478418D01*
X179563699Y-61334942D01*
X179497664Y-61175520D01*
X179464000Y-61006279D01*
X179464000Y-60833721D01*
X179497664Y-60664480D01*
X179563699Y-60505058D01*
X179659566Y-60361582D01*
X179781582Y-60239566D01*
X179925058Y-60143699D01*
X180084480Y-60077664D01*
X180211411Y-60052416D01*
X180253720Y-60044000D01*
X180426280Y-60044000D01*
X180468589Y-60052416D01*
X180468589Y-60052416D01*
G37*
G36*
X176216000Y-61796000D02*
X174464000Y-61796000D01*
X174464000Y-60044000D01*
X176216000Y-60044000D01*
X176216000Y-61796000D01*
X176216000Y-61796000D01*
G37*
G36*
X149610442Y-57605518D02*
X149676627Y-57612037D01*
X149789853Y-57646384D01*
X149846467Y-57663557D01*
X149985087Y-57737652D01*
X150002991Y-57747222D01*
X150038729Y-57776552D01*
X150140186Y-57859814D01*
X150223448Y-57961271D01*
X150252778Y-57997009D01*
X150252779Y-57997011D01*
X150336443Y-58153533D01*
X150351562Y-58203375D01*
X150387963Y-58323373D01*
X150405359Y-58500000D01*
X150387963Y-58676627D01*
X150372844Y-58726467D01*
X150336443Y-58846467D01*
X150316921Y-58882989D01*
X150252778Y-59002991D01*
X150238667Y-59020185D01*
X150140186Y-59140186D01*
X150047265Y-59216443D01*
X150002991Y-59252778D01*
X150002989Y-59252779D01*
X149846467Y-59336443D01*
X149789853Y-59353616D01*
X149676627Y-59387963D01*
X149610443Y-59394481D01*
X149544260Y-59401000D01*
X149455740Y-59401000D01*
X149389557Y-59394481D01*
X149323373Y-59387963D01*
X149210147Y-59353616D01*
X149153533Y-59336443D01*
X148997011Y-59252779D01*
X148997009Y-59252778D01*
X148952735Y-59216443D01*
X148859814Y-59140186D01*
X148761333Y-59020185D01*
X148747222Y-59002991D01*
X148683079Y-58882989D01*
X148663557Y-58846467D01*
X148627156Y-58726467D01*
X148612037Y-58676627D01*
X148594641Y-58500000D01*
X148612037Y-58323373D01*
X148648438Y-58203375D01*
X148663557Y-58153533D01*
X148747221Y-57997011D01*
X148747222Y-57997009D01*
X148776552Y-57961271D01*
X148859814Y-57859814D01*
X148961271Y-57776552D01*
X148997009Y-57747222D01*
X149014913Y-57737652D01*
X149153533Y-57663557D01*
X149210147Y-57646384D01*
X149323373Y-57612037D01*
X149389558Y-57605518D01*
X149455740Y-57599000D01*
X149544260Y-57599000D01*
X149610442Y-57605518D01*
X149610442Y-57605518D01*
G37*
G36*
X165170442Y-57485518D02*
X165236627Y-57492037D01*
X165349853Y-57526384D01*
X165406467Y-57543557D01*
X165510192Y-57599000D01*
X165562991Y-57627222D01*
X165598729Y-57656552D01*
X165700186Y-57739814D01*
X165783448Y-57841271D01*
X165812778Y-57877009D01*
X165812779Y-57877011D01*
X165896443Y-58033533D01*
X165896443Y-58033534D01*
X165947963Y-58203373D01*
X165965359Y-58380000D01*
X165947963Y-58556627D01*
X165913616Y-58669853D01*
X165896443Y-58726467D01*
X165832301Y-58846466D01*
X165812778Y-58882991D01*
X165783448Y-58918729D01*
X165700186Y-59020186D01*
X165598729Y-59103448D01*
X165562991Y-59132778D01*
X165562989Y-59132779D01*
X165406467Y-59216443D01*
X165349853Y-59233616D01*
X165236627Y-59267963D01*
X165170443Y-59274481D01*
X165104260Y-59281000D01*
X165015740Y-59281000D01*
X164949557Y-59274481D01*
X164883373Y-59267963D01*
X164770147Y-59233616D01*
X164713533Y-59216443D01*
X164557011Y-59132779D01*
X164557009Y-59132778D01*
X164521271Y-59103448D01*
X164419814Y-59020186D01*
X164336552Y-58918729D01*
X164307222Y-58882991D01*
X164287699Y-58846466D01*
X164223557Y-58726467D01*
X164206384Y-58669853D01*
X164172037Y-58556627D01*
X164154641Y-58380000D01*
X164172037Y-58203373D01*
X164223557Y-58033534D01*
X164223557Y-58033533D01*
X164307221Y-57877011D01*
X164307222Y-57877009D01*
X164336552Y-57841271D01*
X164419814Y-57739814D01*
X164521271Y-57656552D01*
X164557009Y-57627222D01*
X164609808Y-57599000D01*
X164713533Y-57543557D01*
X164770147Y-57526384D01*
X164883373Y-57492037D01*
X164949558Y-57485518D01*
X165015740Y-57479000D01*
X165104260Y-57479000D01*
X165170442Y-57485518D01*
X165170442Y-57485518D01*
G37*
G36*
X120241000Y-59281000D02*
X118439000Y-59281000D01*
X118439000Y-57479000D01*
X120241000Y-57479000D01*
X120241000Y-59281000D01*
X120241000Y-59281000D01*
G37*
G36*
X203025331Y-45268211D02*
X203353092Y-45403974D01*
X203648073Y-45601074D01*
X203898926Y-45851927D01*
X204096026Y-46146908D01*
X204231789Y-46474669D01*
X204301000Y-46822616D01*
X204301000Y-47177384D01*
X204231789Y-47525331D01*
X204096026Y-47853092D01*
X203898926Y-48148073D01*
X203648073Y-48398926D01*
X203353092Y-48596026D01*
X203025331Y-48731789D01*
X202677384Y-48801000D01*
X202322616Y-48801000D01*
X201974669Y-48731789D01*
X201646908Y-48596026D01*
X201351927Y-48398926D01*
X201101074Y-48148073D01*
X200903974Y-47853092D01*
X200768211Y-47525331D01*
X200699000Y-47177384D01*
X200699000Y-46822616D01*
X200768211Y-46474669D01*
X200903974Y-46146908D01*
X201101074Y-45851927D01*
X201351927Y-45601074D01*
X201646908Y-45403974D01*
X201974669Y-45268211D01*
X202322616Y-45199000D01*
X202677384Y-45199000D01*
X203025331Y-45268211D01*
X203025331Y-45268211D01*
G37*
G36*
X109025331Y-45268211D02*
X109353092Y-45403974D01*
X109648073Y-45601074D01*
X109898926Y-45851927D01*
X110096026Y-46146908D01*
X110231789Y-46474669D01*
X110301000Y-46822616D01*
X110301000Y-47177384D01*
X110231789Y-47525331D01*
X110096026Y-47853092D01*
X109898926Y-48148073D01*
X109648073Y-48398926D01*
X109353092Y-48596026D01*
X109025331Y-48731789D01*
X108677384Y-48801000D01*
X108322616Y-48801000D01*
X107974669Y-48731789D01*
X107646908Y-48596026D01*
X107351927Y-48398926D01*
X107101074Y-48148073D01*
X106903974Y-47853092D01*
X106768211Y-47525331D01*
X106699000Y-47177384D01*
X106699000Y-46822616D01*
X106768211Y-46474669D01*
X106903974Y-46146908D01*
X107101074Y-45851927D01*
X107351927Y-45601074D01*
X107646908Y-45403974D01*
X107974669Y-45268211D01*
X108322616Y-45199000D01*
X108677384Y-45199000D01*
X109025331Y-45268211D01*
X109025331Y-45268211D01*
G37*
M02*
