M48
;DRILL file {KiCad (5.0.1)-4} date 2019-03-02 12:47:25 PM
;FORMAT={-:-/ absolute / inch / decimal}
FMAT,2
INCH,TZ
T1C0.0295
T2C0.0315
T3C0.0394
T4C0.0413
T5C0.0433
T6C0.0512
T7C0.0866
%
G90
G05
M72
T1
X5.7874Y-2.9724
X5.7874Y-3.0224
X5.7874Y-3.0724
T2
X6.063Y-2.7165
X6.063Y-3.0165
X4.1256Y-3.4472
X4.1256Y-3.6472
X4.2256Y-3.4472
X4.2256Y-3.6472
X4.3256Y-3.4472
X4.3256Y-3.6472
X4.5256Y-3.4472
X4.5256Y-3.6472
X5.8268Y-2.3228
X5.8268Y-2.5197
T3
X4.9606Y-3.4252
X4.2126Y-2.9528
X4.4126Y-2.9528
X5.2126Y-2.2528
X5.4126Y-2.2528
X5.4126Y-2.9528
X5.7874Y-3.4252
T4
X3.6565Y-2.7067
X3.8238Y-2.4114
X6.2943Y-3.4941
X6.4616Y-3.1988
T5
X6.378Y-2.3228
X6.378Y-2.5197
X6.378Y-2.7165
T6
X3.2283Y-3.4055
X3.2283Y-3.6024
X3.189Y-2.2638
X3.189Y-2.4606
T7
X2.874Y-2.0866
X6.5748Y-3.9764
X2.8937Y-3.9764
X6.5748Y-2.0866
T0
M30
