G04 #@! TF.GenerationSoftware,KiCad,Pcbnew,(5.0.1)-4*
G04 #@! TF.CreationDate,2019-03-02T12:20:55-06:00*
G04 #@! TF.ProjectId,PS Rev2,505320526576322E6B696361645F7063,rev?*
G04 #@! TF.SameCoordinates,Original*
G04 #@! TF.FileFunction,Soldermask,Top*
G04 #@! TF.FilePolarity,Negative*
%FSLAX46Y46*%
G04 Gerber Fmt 4.6, Leading zero omitted, Abs format (unit mm)*
G04 Created by KiCad (PCBNEW (5.0.1)-4) date 2019-03-02 12:20:55 PM*
%MOMM*%
%LPD*%
G01*
G04 APERTURE LIST*
%ADD10C,0.100000*%
G04 APERTURE END LIST*
D10*
G36*
X167525331Y-99268211D02*
X167853092Y-99403974D01*
X168148073Y-99601074D01*
X168398926Y-99851927D01*
X168596026Y-100146908D01*
X168731789Y-100474669D01*
X168801000Y-100822616D01*
X168801000Y-101177384D01*
X168731789Y-101525331D01*
X168596026Y-101853092D01*
X168398926Y-102148073D01*
X168148073Y-102398926D01*
X167853092Y-102596026D01*
X167525331Y-102731789D01*
X167177384Y-102801000D01*
X166822616Y-102801000D01*
X166474669Y-102731789D01*
X166146908Y-102596026D01*
X165851927Y-102398926D01*
X165601074Y-102148073D01*
X165403974Y-101853092D01*
X165268211Y-101525331D01*
X165199000Y-101177384D01*
X165199000Y-100822616D01*
X165268211Y-100474669D01*
X165403974Y-100146908D01*
X165601074Y-99851927D01*
X165851927Y-99601074D01*
X166146908Y-99403974D01*
X166474669Y-99268211D01*
X166822616Y-99199000D01*
X167177384Y-99199000D01*
X167525331Y-99268211D01*
X167525331Y-99268211D01*
G37*
G36*
X74025331Y-99268211D02*
X74353092Y-99403974D01*
X74648073Y-99601074D01*
X74898926Y-99851927D01*
X75096026Y-100146908D01*
X75231789Y-100474669D01*
X75301000Y-100822616D01*
X75301000Y-101177384D01*
X75231789Y-101525331D01*
X75096026Y-101853092D01*
X74898926Y-102148073D01*
X74648073Y-102398926D01*
X74353092Y-102596026D01*
X74025331Y-102731789D01*
X73677384Y-102801000D01*
X73322616Y-102801000D01*
X72974669Y-102731789D01*
X72646908Y-102596026D01*
X72351927Y-102398926D01*
X72101074Y-102148073D01*
X71903974Y-101853092D01*
X71768211Y-101525331D01*
X71699000Y-101177384D01*
X71699000Y-100822616D01*
X71768211Y-100474669D01*
X71903974Y-100146908D01*
X72101074Y-99851927D01*
X72351927Y-99601074D01*
X72646908Y-99403974D01*
X72974669Y-99268211D01*
X73322616Y-99199000D01*
X73677384Y-99199000D01*
X74025331Y-99268211D01*
X74025331Y-99268211D01*
G37*
G36*
X107535638Y-91962092D02*
X107535640Y-91962093D01*
X107535641Y-91962093D01*
X107663943Y-92015237D01*
X107778890Y-92092043D01*
X107779414Y-92092393D01*
X107877607Y-92190586D01*
X107877609Y-92190589D01*
X107954763Y-92306057D01*
X108007907Y-92434359D01*
X108035000Y-92570564D01*
X108035000Y-92709436D01*
X108007907Y-92845641D01*
X107954763Y-92973943D01*
X107877957Y-93088890D01*
X107877607Y-93089414D01*
X107779414Y-93187607D01*
X107779411Y-93187609D01*
X107663943Y-93264763D01*
X107535641Y-93317907D01*
X107535640Y-93317907D01*
X107535638Y-93317908D01*
X107399438Y-93345000D01*
X107260562Y-93345000D01*
X107124362Y-93317908D01*
X107124360Y-93317907D01*
X107124359Y-93317907D01*
X106996057Y-93264763D01*
X106880589Y-93187609D01*
X106880586Y-93187607D01*
X106782393Y-93089414D01*
X106782043Y-93088890D01*
X106705237Y-92973943D01*
X106652093Y-92845641D01*
X106625000Y-92709436D01*
X106625000Y-92570564D01*
X106652093Y-92434359D01*
X106705237Y-92306057D01*
X106782391Y-92190589D01*
X106782393Y-92190586D01*
X106880586Y-92092393D01*
X106881110Y-92092043D01*
X106996057Y-92015237D01*
X107124359Y-91962093D01*
X107124360Y-91962093D01*
X107124362Y-91962092D01*
X107260562Y-91935000D01*
X107399438Y-91935000D01*
X107535638Y-91962092D01*
X107535638Y-91962092D01*
G37*
G36*
X115155638Y-91962092D02*
X115155640Y-91962093D01*
X115155641Y-91962093D01*
X115283943Y-92015237D01*
X115398890Y-92092043D01*
X115399414Y-92092393D01*
X115497607Y-92190586D01*
X115497609Y-92190589D01*
X115574763Y-92306057D01*
X115627907Y-92434359D01*
X115655000Y-92570564D01*
X115655000Y-92709436D01*
X115627907Y-92845641D01*
X115574763Y-92973943D01*
X115497957Y-93088890D01*
X115497607Y-93089414D01*
X115399414Y-93187607D01*
X115399411Y-93187609D01*
X115283943Y-93264763D01*
X115155641Y-93317907D01*
X115155640Y-93317907D01*
X115155638Y-93317908D01*
X115019438Y-93345000D01*
X114880562Y-93345000D01*
X114744362Y-93317908D01*
X114744360Y-93317907D01*
X114744359Y-93317907D01*
X114616057Y-93264763D01*
X114500589Y-93187609D01*
X114500586Y-93187607D01*
X114402393Y-93089414D01*
X114402043Y-93088890D01*
X114325237Y-92973943D01*
X114272093Y-92845641D01*
X114245000Y-92709436D01*
X114245000Y-92570564D01*
X114272093Y-92434359D01*
X114325237Y-92306057D01*
X114402391Y-92190589D01*
X114402393Y-92190586D01*
X114500586Y-92092393D01*
X114501110Y-92092043D01*
X114616057Y-92015237D01*
X114744359Y-91962093D01*
X114744360Y-91962093D01*
X114744362Y-91962092D01*
X114880562Y-91935000D01*
X115019438Y-91935000D01*
X115155638Y-91962092D01*
X115155638Y-91962092D01*
G37*
G36*
X110075638Y-91962092D02*
X110075640Y-91962093D01*
X110075641Y-91962093D01*
X110203943Y-92015237D01*
X110318890Y-92092043D01*
X110319414Y-92092393D01*
X110417607Y-92190586D01*
X110417609Y-92190589D01*
X110494763Y-92306057D01*
X110547907Y-92434359D01*
X110575000Y-92570564D01*
X110575000Y-92709436D01*
X110547907Y-92845641D01*
X110494763Y-92973943D01*
X110417957Y-93088890D01*
X110417607Y-93089414D01*
X110319414Y-93187607D01*
X110319411Y-93187609D01*
X110203943Y-93264763D01*
X110075641Y-93317907D01*
X110075640Y-93317907D01*
X110075638Y-93317908D01*
X109939438Y-93345000D01*
X109800562Y-93345000D01*
X109664362Y-93317908D01*
X109664360Y-93317907D01*
X109664359Y-93317907D01*
X109536057Y-93264763D01*
X109420589Y-93187609D01*
X109420586Y-93187607D01*
X109322393Y-93089414D01*
X109322043Y-93088890D01*
X109245237Y-92973943D01*
X109192093Y-92845641D01*
X109165000Y-92709436D01*
X109165000Y-92570564D01*
X109192093Y-92434359D01*
X109245237Y-92306057D01*
X109322391Y-92190589D01*
X109322393Y-92190586D01*
X109420586Y-92092393D01*
X109421110Y-92092043D01*
X109536057Y-92015237D01*
X109664359Y-91962093D01*
X109664360Y-91962093D01*
X109664362Y-91962092D01*
X109800562Y-91935000D01*
X109939438Y-91935000D01*
X110075638Y-91962092D01*
X110075638Y-91962092D01*
G37*
G36*
X104995638Y-91962092D02*
X104995640Y-91962093D01*
X104995641Y-91962093D01*
X105123943Y-92015237D01*
X105238890Y-92092043D01*
X105239414Y-92092393D01*
X105337607Y-92190586D01*
X105337609Y-92190589D01*
X105414763Y-92306057D01*
X105467907Y-92434359D01*
X105495000Y-92570564D01*
X105495000Y-92709436D01*
X105467907Y-92845641D01*
X105414763Y-92973943D01*
X105337957Y-93088890D01*
X105337607Y-93089414D01*
X105239414Y-93187607D01*
X105239411Y-93187609D01*
X105123943Y-93264763D01*
X104995641Y-93317907D01*
X104995640Y-93317907D01*
X104995638Y-93317908D01*
X104859438Y-93345000D01*
X104720562Y-93345000D01*
X104584362Y-93317908D01*
X104584360Y-93317907D01*
X104584359Y-93317907D01*
X104456057Y-93264763D01*
X104340589Y-93187609D01*
X104340586Y-93187607D01*
X104242393Y-93089414D01*
X104242043Y-93088890D01*
X104165237Y-92973943D01*
X104112093Y-92845641D01*
X104085000Y-92709436D01*
X104085000Y-92570564D01*
X104112093Y-92434359D01*
X104165237Y-92306057D01*
X104242391Y-92190589D01*
X104242393Y-92190586D01*
X104340586Y-92092393D01*
X104341110Y-92092043D01*
X104456057Y-92015237D01*
X104584359Y-91962093D01*
X104584360Y-91962093D01*
X104584362Y-91962092D01*
X104720562Y-91935000D01*
X104859438Y-91935000D01*
X104995638Y-91962092D01*
X104995638Y-91962092D01*
G37*
G36*
X82299272Y-90513428D02*
X82485992Y-90590770D01*
X82654040Y-90703056D01*
X82796944Y-90845960D01*
X82909230Y-91014008D01*
X82986572Y-91200728D01*
X83026000Y-91398946D01*
X83026000Y-91601054D01*
X82986572Y-91799272D01*
X82909230Y-91985992D01*
X82796944Y-92154040D01*
X82654040Y-92296944D01*
X82485992Y-92409230D01*
X82299272Y-92486572D01*
X82101054Y-92526000D01*
X81898946Y-92526000D01*
X81700728Y-92486572D01*
X81514008Y-92409230D01*
X81345960Y-92296944D01*
X81203056Y-92154040D01*
X81090770Y-91985992D01*
X81013428Y-91799272D01*
X80974000Y-91601054D01*
X80974000Y-91398946D01*
X81013428Y-91200728D01*
X81090770Y-91014008D01*
X81203056Y-90845960D01*
X81345960Y-90703056D01*
X81514008Y-90590770D01*
X81700728Y-90513428D01*
X81898946Y-90474000D01*
X82101054Y-90474000D01*
X82299272Y-90513428D01*
X82299272Y-90513428D01*
G37*
G36*
X160123228Y-87931703D02*
X160278100Y-87995853D01*
X160417481Y-88088985D01*
X160536015Y-88207519D01*
X160629147Y-88346900D01*
X160693297Y-88501772D01*
X160726000Y-88666184D01*
X160726000Y-88833816D01*
X160693297Y-88998228D01*
X160629147Y-89153100D01*
X160536015Y-89292481D01*
X160417481Y-89411015D01*
X160278100Y-89504147D01*
X160123228Y-89568297D01*
X159958816Y-89601000D01*
X159791184Y-89601000D01*
X159626772Y-89568297D01*
X159471900Y-89504147D01*
X159332519Y-89411015D01*
X159213985Y-89292481D01*
X159120853Y-89153100D01*
X159056703Y-88998228D01*
X159024000Y-88833816D01*
X159024000Y-88666184D01*
X159056703Y-88501772D01*
X159120853Y-88346900D01*
X159213985Y-88207519D01*
X159332519Y-88088985D01*
X159471900Y-87995853D01*
X159626772Y-87931703D01*
X159791184Y-87899000D01*
X159958816Y-87899000D01*
X160123228Y-87931703D01*
X160123228Y-87931703D01*
G37*
G36*
X104995638Y-86882092D02*
X104995640Y-86882093D01*
X104995641Y-86882093D01*
X105123943Y-86935237D01*
X105238890Y-87012043D01*
X105239414Y-87012393D01*
X105337607Y-87110586D01*
X105337609Y-87110589D01*
X105414763Y-87226057D01*
X105467907Y-87354359D01*
X105495000Y-87490564D01*
X105495000Y-87629436D01*
X105467907Y-87765641D01*
X105414763Y-87893943D01*
X105337957Y-88008890D01*
X105337607Y-88009414D01*
X105239414Y-88107607D01*
X105239411Y-88107609D01*
X105123943Y-88184763D01*
X104995641Y-88237907D01*
X104995640Y-88237907D01*
X104995638Y-88237908D01*
X104859438Y-88265000D01*
X104720562Y-88265000D01*
X104584362Y-88237908D01*
X104584360Y-88237907D01*
X104584359Y-88237907D01*
X104456057Y-88184763D01*
X104340589Y-88107609D01*
X104340586Y-88107607D01*
X104242393Y-88009414D01*
X104242043Y-88008890D01*
X104165237Y-87893943D01*
X104112093Y-87765641D01*
X104085000Y-87629436D01*
X104085000Y-87490564D01*
X104112093Y-87354359D01*
X104165237Y-87226057D01*
X104242391Y-87110589D01*
X104242393Y-87110586D01*
X104340586Y-87012393D01*
X104341110Y-87012043D01*
X104456057Y-86935237D01*
X104584359Y-86882093D01*
X104584360Y-86882093D01*
X104584362Y-86882092D01*
X104720562Y-86855000D01*
X104859438Y-86855000D01*
X104995638Y-86882092D01*
X104995638Y-86882092D01*
G37*
G36*
X107535638Y-86882092D02*
X107535640Y-86882093D01*
X107535641Y-86882093D01*
X107663943Y-86935237D01*
X107778890Y-87012043D01*
X107779414Y-87012393D01*
X107877607Y-87110586D01*
X107877609Y-87110589D01*
X107954763Y-87226057D01*
X108007907Y-87354359D01*
X108035000Y-87490564D01*
X108035000Y-87629436D01*
X108007907Y-87765641D01*
X107954763Y-87893943D01*
X107877957Y-88008890D01*
X107877607Y-88009414D01*
X107779414Y-88107607D01*
X107779411Y-88107609D01*
X107663943Y-88184763D01*
X107535641Y-88237907D01*
X107535640Y-88237907D01*
X107535638Y-88237908D01*
X107399438Y-88265000D01*
X107260562Y-88265000D01*
X107124362Y-88237908D01*
X107124360Y-88237907D01*
X107124359Y-88237907D01*
X106996057Y-88184763D01*
X106880589Y-88107609D01*
X106880586Y-88107607D01*
X106782393Y-88009414D01*
X106782043Y-88008890D01*
X106705237Y-87893943D01*
X106652093Y-87765641D01*
X106625000Y-87629436D01*
X106625000Y-87490564D01*
X106652093Y-87354359D01*
X106705237Y-87226057D01*
X106782391Y-87110589D01*
X106782393Y-87110586D01*
X106880586Y-87012393D01*
X106881110Y-87012043D01*
X106996057Y-86935237D01*
X107124359Y-86882093D01*
X107124360Y-86882093D01*
X107124362Y-86882092D01*
X107260562Y-86855000D01*
X107399438Y-86855000D01*
X107535638Y-86882092D01*
X107535638Y-86882092D01*
G37*
G36*
X110075638Y-86882092D02*
X110075640Y-86882093D01*
X110075641Y-86882093D01*
X110203943Y-86935237D01*
X110318890Y-87012043D01*
X110319414Y-87012393D01*
X110417607Y-87110586D01*
X110417609Y-87110589D01*
X110494763Y-87226057D01*
X110547907Y-87354359D01*
X110575000Y-87490564D01*
X110575000Y-87629436D01*
X110547907Y-87765641D01*
X110494763Y-87893943D01*
X110417957Y-88008890D01*
X110417607Y-88009414D01*
X110319414Y-88107607D01*
X110319411Y-88107609D01*
X110203943Y-88184763D01*
X110075641Y-88237907D01*
X110075640Y-88237907D01*
X110075638Y-88237908D01*
X109939438Y-88265000D01*
X109800562Y-88265000D01*
X109664362Y-88237908D01*
X109664360Y-88237907D01*
X109664359Y-88237907D01*
X109536057Y-88184763D01*
X109420589Y-88107609D01*
X109420586Y-88107607D01*
X109322393Y-88009414D01*
X109322043Y-88008890D01*
X109245237Y-87893943D01*
X109192093Y-87765641D01*
X109165000Y-87629436D01*
X109165000Y-87490564D01*
X109192093Y-87354359D01*
X109245237Y-87226057D01*
X109322391Y-87110589D01*
X109322393Y-87110586D01*
X109420586Y-87012393D01*
X109421110Y-87012043D01*
X109536057Y-86935237D01*
X109664359Y-86882093D01*
X109664360Y-86882093D01*
X109664362Y-86882092D01*
X109800562Y-86855000D01*
X109939438Y-86855000D01*
X110075638Y-86882092D01*
X110075638Y-86882092D01*
G37*
G36*
X115655000Y-88265000D02*
X114245000Y-88265000D01*
X114245000Y-86855000D01*
X115655000Y-86855000D01*
X115655000Y-88265000D01*
X115655000Y-88265000D01*
G37*
G36*
X147306565Y-85989389D02*
X147497834Y-86068615D01*
X147669976Y-86183637D01*
X147816363Y-86330024D01*
X147931385Y-86502166D01*
X148010611Y-86693435D01*
X148051000Y-86896484D01*
X148051000Y-87103516D01*
X148010611Y-87306565D01*
X147931385Y-87497834D01*
X147816363Y-87669976D01*
X147669976Y-87816363D01*
X147497834Y-87931385D01*
X147306565Y-88010611D01*
X147103516Y-88051000D01*
X146896484Y-88051000D01*
X146693435Y-88010611D01*
X146502166Y-87931385D01*
X146330024Y-87816363D01*
X146183637Y-87669976D01*
X146068615Y-87497834D01*
X145989389Y-87306565D01*
X145949000Y-87103516D01*
X145949000Y-86896484D01*
X145989389Y-86693435D01*
X146068615Y-86502166D01*
X146183637Y-86330024D01*
X146330024Y-86183637D01*
X146502166Y-86068615D01*
X146693435Y-85989389D01*
X146896484Y-85949000D01*
X147103516Y-85949000D01*
X147306565Y-85989389D01*
X147306565Y-85989389D01*
G37*
G36*
X126306565Y-85989389D02*
X126497834Y-86068615D01*
X126669976Y-86183637D01*
X126816363Y-86330024D01*
X126931385Y-86502166D01*
X127010611Y-86693435D01*
X127051000Y-86896484D01*
X127051000Y-87103516D01*
X127010611Y-87306565D01*
X126931385Y-87497834D01*
X126816363Y-87669976D01*
X126669976Y-87816363D01*
X126497834Y-87931385D01*
X126306565Y-88010611D01*
X126103516Y-88051000D01*
X125896484Y-88051000D01*
X125693435Y-88010611D01*
X125502166Y-87931385D01*
X125330024Y-87816363D01*
X125183637Y-87669976D01*
X125068615Y-87497834D01*
X124989389Y-87306565D01*
X124949000Y-87103516D01*
X124949000Y-86896484D01*
X124989389Y-86693435D01*
X125068615Y-86502166D01*
X125183637Y-86330024D01*
X125330024Y-86183637D01*
X125502166Y-86068615D01*
X125693435Y-85989389D01*
X125896484Y-85949000D01*
X126103516Y-85949000D01*
X126306565Y-85989389D01*
X126306565Y-85989389D01*
G37*
G36*
X83026000Y-87526000D02*
X80974000Y-87526000D01*
X80974000Y-85474000D01*
X83026000Y-85474000D01*
X83026000Y-87526000D01*
X83026000Y-87526000D01*
G37*
G36*
X164976000Y-82101000D02*
X163274000Y-82101000D01*
X163274000Y-80399000D01*
X164976000Y-80399000D01*
X164976000Y-82101000D01*
X164976000Y-82101000D01*
G37*
G36*
X147801000Y-76076000D02*
X147636664Y-76076000D01*
X147612278Y-76078402D01*
X147588829Y-76085515D01*
X147567218Y-76097066D01*
X147548276Y-76112612D01*
X147532730Y-76131554D01*
X147521179Y-76153165D01*
X147514066Y-76176614D01*
X147511664Y-76201000D01*
X147514066Y-76225386D01*
X147521179Y-76248835D01*
X147532730Y-76270446D01*
X147557365Y-76297626D01*
X147634264Y-76360736D01*
X147706244Y-76448443D01*
X147759729Y-76548508D01*
X147792666Y-76657084D01*
X147803787Y-76770000D01*
X147792666Y-76882916D01*
X147759729Y-76991492D01*
X147759726Y-76991497D01*
X147706244Y-77091557D01*
X147634264Y-77179264D01*
X147546557Y-77251244D01*
X147465143Y-77294760D01*
X147444768Y-77308373D01*
X147427441Y-77325701D01*
X147413827Y-77346075D01*
X147404450Y-77368714D01*
X147399669Y-77392747D01*
X147399669Y-77417252D01*
X147404449Y-77441285D01*
X147413827Y-77463924D01*
X147427440Y-77484299D01*
X147444768Y-77501626D01*
X147465143Y-77515240D01*
X147546557Y-77558756D01*
X147634264Y-77630736D01*
X147706244Y-77718443D01*
X147759729Y-77818508D01*
X147792666Y-77927084D01*
X147803787Y-78040000D01*
X147792666Y-78152916D01*
X147759729Y-78261492D01*
X147706244Y-78361557D01*
X147634264Y-78449264D01*
X147546557Y-78521244D01*
X147446492Y-78574729D01*
X147337916Y-78607666D01*
X147253298Y-78616000D01*
X146746702Y-78616000D01*
X146662084Y-78607666D01*
X146553508Y-78574729D01*
X146453443Y-78521244D01*
X146365736Y-78449264D01*
X146293756Y-78361557D01*
X146240271Y-78261492D01*
X146207334Y-78152916D01*
X146196213Y-78040000D01*
X146207334Y-77927084D01*
X146240271Y-77818508D01*
X146293756Y-77718443D01*
X146365736Y-77630736D01*
X146453443Y-77558756D01*
X146534857Y-77515240D01*
X146555232Y-77501627D01*
X146572559Y-77484299D01*
X146586173Y-77463925D01*
X146595550Y-77441286D01*
X146600331Y-77417253D01*
X146600331Y-77392748D01*
X146595551Y-77368715D01*
X146586173Y-77346076D01*
X146572560Y-77325701D01*
X146555232Y-77308374D01*
X146534857Y-77294760D01*
X146453443Y-77251244D01*
X146365736Y-77179264D01*
X146293756Y-77091557D01*
X146240274Y-76991497D01*
X146240271Y-76991492D01*
X146207334Y-76882916D01*
X146196213Y-76770000D01*
X146207334Y-76657084D01*
X146240271Y-76548508D01*
X146293756Y-76448443D01*
X146365736Y-76360736D01*
X146442635Y-76297626D01*
X146459962Y-76280299D01*
X146473576Y-76259924D01*
X146482954Y-76237285D01*
X146487734Y-76213252D01*
X146487734Y-76188748D01*
X146482953Y-76164714D01*
X146473576Y-76142075D01*
X146459962Y-76121701D01*
X146442635Y-76104374D01*
X146422260Y-76090760D01*
X146399621Y-76081382D01*
X146363336Y-76076000D01*
X146199000Y-76076000D01*
X146199000Y-74924000D01*
X147801000Y-74924000D01*
X147801000Y-76076000D01*
X147801000Y-76076000D01*
G37*
G36*
X154166821Y-75781313D02*
X154166824Y-75781314D01*
X154166825Y-75781314D01*
X154327239Y-75829975D01*
X154327241Y-75829976D01*
X154327244Y-75829977D01*
X154475078Y-75908995D01*
X154604659Y-76015341D01*
X154711005Y-76144922D01*
X154790023Y-76292756D01*
X154790024Y-76292759D01*
X154790025Y-76292761D01*
X154838686Y-76453175D01*
X154838687Y-76453179D01*
X154855117Y-76620000D01*
X154838687Y-76786821D01*
X154790023Y-76947244D01*
X154711005Y-77095078D01*
X154604659Y-77224659D01*
X154475078Y-77331005D01*
X154327244Y-77410023D01*
X154327241Y-77410024D01*
X154327239Y-77410025D01*
X154166825Y-77458686D01*
X154166824Y-77458686D01*
X154166821Y-77458687D01*
X154041804Y-77471000D01*
X153958196Y-77471000D01*
X153833179Y-77458687D01*
X153833176Y-77458686D01*
X153833175Y-77458686D01*
X153672761Y-77410025D01*
X153672759Y-77410024D01*
X153672756Y-77410023D01*
X153524922Y-77331005D01*
X153395341Y-77224659D01*
X153288995Y-77095078D01*
X153209977Y-76947244D01*
X153161313Y-76786821D01*
X153144883Y-76620000D01*
X153161313Y-76453179D01*
X153161314Y-76453175D01*
X153209975Y-76292761D01*
X153209976Y-76292759D01*
X153209977Y-76292756D01*
X153288995Y-76144922D01*
X153395341Y-76015341D01*
X153524922Y-75908995D01*
X153672756Y-75829977D01*
X153672759Y-75829976D01*
X153672761Y-75829975D01*
X153833175Y-75781314D01*
X153833176Y-75781314D01*
X153833179Y-75781313D01*
X153958196Y-75769000D01*
X154041804Y-75769000D01*
X154166821Y-75781313D01*
X154166821Y-75781313D01*
G37*
G36*
X112386565Y-73989389D02*
X112577834Y-74068615D01*
X112749976Y-74183637D01*
X112896363Y-74330024D01*
X113011385Y-74502166D01*
X113090611Y-74693435D01*
X113131000Y-74896484D01*
X113131000Y-75103516D01*
X113090611Y-75306565D01*
X113011385Y-75497834D01*
X112896363Y-75669976D01*
X112749976Y-75816363D01*
X112577834Y-75931385D01*
X112386565Y-76010611D01*
X112183516Y-76051000D01*
X111976484Y-76051000D01*
X111773435Y-76010611D01*
X111582166Y-75931385D01*
X111410024Y-75816363D01*
X111263637Y-75669976D01*
X111148615Y-75497834D01*
X111069389Y-75306565D01*
X111029000Y-75103516D01*
X111029000Y-74896484D01*
X111069389Y-74693435D01*
X111148615Y-74502166D01*
X111263637Y-74330024D01*
X111410024Y-74183637D01*
X111582166Y-74068615D01*
X111773435Y-73989389D01*
X111976484Y-73949000D01*
X112183516Y-73949000D01*
X112386565Y-73989389D01*
X112386565Y-73989389D01*
G37*
G36*
X108051000Y-76051000D02*
X105949000Y-76051000D01*
X105949000Y-73949000D01*
X108051000Y-73949000D01*
X108051000Y-76051000D01*
X108051000Y-76051000D01*
G37*
G36*
X137786565Y-73989389D02*
X137977834Y-74068615D01*
X138149976Y-74183637D01*
X138296363Y-74330024D01*
X138411385Y-74502166D01*
X138490611Y-74693435D01*
X138531000Y-74896484D01*
X138531000Y-75103516D01*
X138490611Y-75306565D01*
X138411385Y-75497834D01*
X138296363Y-75669976D01*
X138149976Y-75816363D01*
X137977834Y-75931385D01*
X137786565Y-76010611D01*
X137583516Y-76051000D01*
X137376484Y-76051000D01*
X137173435Y-76010611D01*
X136982166Y-75931385D01*
X136810024Y-75816363D01*
X136663637Y-75669976D01*
X136548615Y-75497834D01*
X136469389Y-75306565D01*
X136429000Y-75103516D01*
X136429000Y-74896484D01*
X136469389Y-74693435D01*
X136548615Y-74502166D01*
X136663637Y-74330024D01*
X136810024Y-74183637D01*
X136982166Y-74068615D01*
X137173435Y-73989389D01*
X137376484Y-73949000D01*
X137583516Y-73949000D01*
X137786565Y-73989389D01*
X137786565Y-73989389D01*
G37*
G36*
X162128589Y-68132416D02*
X162255520Y-68157664D01*
X162414942Y-68223699D01*
X162558418Y-68319566D01*
X162680434Y-68441582D01*
X162776301Y-68585058D01*
X162842336Y-68744480D01*
X162876000Y-68913721D01*
X162876000Y-69086279D01*
X162842336Y-69255520D01*
X162776301Y-69414942D01*
X162680434Y-69558418D01*
X162558418Y-69680434D01*
X162414942Y-69776301D01*
X162255520Y-69842336D01*
X162128589Y-69867584D01*
X162086280Y-69876000D01*
X161913720Y-69876000D01*
X161871411Y-69867584D01*
X161744480Y-69842336D01*
X161585058Y-69776301D01*
X161441582Y-69680434D01*
X161319566Y-69558418D01*
X161223699Y-69414942D01*
X161157664Y-69255520D01*
X161124000Y-69086279D01*
X161124000Y-68913721D01*
X161157664Y-68744480D01*
X161223699Y-68585058D01*
X161319566Y-68441582D01*
X161441582Y-68319566D01*
X161585058Y-68223699D01*
X161744480Y-68157664D01*
X161871411Y-68132416D01*
X161913720Y-68124000D01*
X162086280Y-68124000D01*
X162128589Y-68132416D01*
X162128589Y-68132416D01*
G37*
G36*
X154248228Y-68181703D02*
X154403100Y-68245853D01*
X154542481Y-68338985D01*
X154661015Y-68457519D01*
X154754147Y-68596900D01*
X154818297Y-68751772D01*
X154851000Y-68916184D01*
X154851000Y-69083816D01*
X154818297Y-69248228D01*
X154754147Y-69403100D01*
X154661015Y-69542481D01*
X154542481Y-69661015D01*
X154403100Y-69754147D01*
X154248228Y-69818297D01*
X154083816Y-69851000D01*
X153916184Y-69851000D01*
X153751772Y-69818297D01*
X153596900Y-69754147D01*
X153457519Y-69661015D01*
X153338985Y-69542481D01*
X153245853Y-69403100D01*
X153181703Y-69248228D01*
X153149000Y-69083816D01*
X153149000Y-68916184D01*
X153181703Y-68751772D01*
X153245853Y-68596900D01*
X153338985Y-68457519D01*
X153457519Y-68338985D01*
X153596900Y-68245853D01*
X153751772Y-68181703D01*
X153916184Y-68149000D01*
X154083816Y-68149000D01*
X154248228Y-68181703D01*
X154248228Y-68181703D01*
G37*
G36*
X93123228Y-67931703D02*
X93278100Y-67995853D01*
X93417481Y-68088985D01*
X93536015Y-68207519D01*
X93629147Y-68346900D01*
X93693297Y-68501772D01*
X93726000Y-68666184D01*
X93726000Y-68833816D01*
X93693297Y-68998228D01*
X93629147Y-69153100D01*
X93536015Y-69292481D01*
X93417481Y-69411015D01*
X93278100Y-69504147D01*
X93123228Y-69568297D01*
X92958816Y-69601000D01*
X92791184Y-69601000D01*
X92626772Y-69568297D01*
X92471900Y-69504147D01*
X92332519Y-69411015D01*
X92213985Y-69292481D01*
X92120853Y-69153100D01*
X92056703Y-68998228D01*
X92024000Y-68833816D01*
X92024000Y-68666184D01*
X92056703Y-68501772D01*
X92120853Y-68346900D01*
X92213985Y-68207519D01*
X92332519Y-68088985D01*
X92471900Y-67995853D01*
X92626772Y-67931703D01*
X92791184Y-67899000D01*
X92958816Y-67899000D01*
X93123228Y-67931703D01*
X93123228Y-67931703D01*
G37*
G36*
X162128589Y-63132416D02*
X162255520Y-63157664D01*
X162414942Y-63223699D01*
X162558418Y-63319566D01*
X162680434Y-63441582D01*
X162776301Y-63585058D01*
X162842336Y-63744480D01*
X162876000Y-63913721D01*
X162876000Y-64086279D01*
X162842336Y-64255520D01*
X162776301Y-64414942D01*
X162680434Y-64558418D01*
X162558418Y-64680434D01*
X162414942Y-64776301D01*
X162255520Y-64842336D01*
X162128589Y-64867584D01*
X162086280Y-64876000D01*
X161913720Y-64876000D01*
X161871411Y-64867584D01*
X161744480Y-64842336D01*
X161585058Y-64776301D01*
X161441582Y-64680434D01*
X161319566Y-64558418D01*
X161223699Y-64414942D01*
X161157664Y-64255520D01*
X161124000Y-64086279D01*
X161124000Y-63913721D01*
X161157664Y-63744480D01*
X161223699Y-63585058D01*
X161319566Y-63441582D01*
X161441582Y-63319566D01*
X161585058Y-63223699D01*
X161744480Y-63157664D01*
X161871411Y-63132416D01*
X161913720Y-63124000D01*
X162086280Y-63124000D01*
X162128589Y-63132416D01*
X162128589Y-63132416D01*
G37*
G36*
X148248228Y-63181703D02*
X148403100Y-63245853D01*
X148542481Y-63338985D01*
X148661015Y-63457519D01*
X148754147Y-63596900D01*
X148818297Y-63751772D01*
X148851000Y-63916184D01*
X148851000Y-64083816D01*
X148818297Y-64248228D01*
X148754147Y-64403100D01*
X148661015Y-64542481D01*
X148542481Y-64661015D01*
X148403100Y-64754147D01*
X148248228Y-64818297D01*
X148083816Y-64851000D01*
X147916184Y-64851000D01*
X147751772Y-64818297D01*
X147596900Y-64754147D01*
X147457519Y-64661015D01*
X147338985Y-64542481D01*
X147245853Y-64403100D01*
X147181703Y-64248228D01*
X147149000Y-64083816D01*
X147149000Y-63916184D01*
X147181703Y-63751772D01*
X147245853Y-63596900D01*
X147338985Y-63457519D01*
X147457519Y-63338985D01*
X147596900Y-63245853D01*
X147751772Y-63181703D01*
X147916184Y-63149000D01*
X148083816Y-63149000D01*
X148248228Y-63181703D01*
X148248228Y-63181703D01*
G37*
G36*
X82026000Y-63526000D02*
X79974000Y-63526000D01*
X79974000Y-61474000D01*
X82026000Y-61474000D01*
X82026000Y-63526000D01*
X82026000Y-63526000D01*
G37*
G36*
X97976000Y-62101000D02*
X96274000Y-62101000D01*
X96274000Y-60399000D01*
X97976000Y-60399000D01*
X97976000Y-62101000D01*
X97976000Y-62101000D01*
G37*
G36*
X162876000Y-59876000D02*
X161124000Y-59876000D01*
X161124000Y-58124000D01*
X162876000Y-58124000D01*
X162876000Y-59876000D01*
X162876000Y-59876000D01*
G37*
G36*
X148248228Y-58181703D02*
X148403100Y-58245853D01*
X148542481Y-58338985D01*
X148661015Y-58457519D01*
X148754147Y-58596900D01*
X148818297Y-58751772D01*
X148851000Y-58916184D01*
X148851000Y-59083816D01*
X148818297Y-59248228D01*
X148754147Y-59403100D01*
X148661015Y-59542481D01*
X148542481Y-59661015D01*
X148403100Y-59754147D01*
X148248228Y-59818297D01*
X148083816Y-59851000D01*
X147916184Y-59851000D01*
X147751772Y-59818297D01*
X147596900Y-59754147D01*
X147457519Y-59661015D01*
X147338985Y-59542481D01*
X147245853Y-59403100D01*
X147181703Y-59248228D01*
X147149000Y-59083816D01*
X147149000Y-58916184D01*
X147181703Y-58751772D01*
X147245853Y-58596900D01*
X147338985Y-58457519D01*
X147457519Y-58338985D01*
X147596900Y-58245853D01*
X147751772Y-58181703D01*
X147916184Y-58149000D01*
X148083816Y-58149000D01*
X148248228Y-58181703D01*
X148248228Y-58181703D01*
G37*
G36*
X81299272Y-56513428D02*
X81485992Y-56590770D01*
X81654040Y-56703056D01*
X81796944Y-56845960D01*
X81909230Y-57014008D01*
X81986572Y-57200728D01*
X82026000Y-57398946D01*
X82026000Y-57601054D01*
X81986572Y-57799272D01*
X81909230Y-57985992D01*
X81796944Y-58154040D01*
X81654040Y-58296944D01*
X81485992Y-58409230D01*
X81299272Y-58486572D01*
X81101054Y-58526000D01*
X80898946Y-58526000D01*
X80700728Y-58486572D01*
X80514008Y-58409230D01*
X80345960Y-58296944D01*
X80203056Y-58154040D01*
X80090770Y-57985992D01*
X80013428Y-57799272D01*
X79974000Y-57601054D01*
X79974000Y-57398946D01*
X80013428Y-57200728D01*
X80090770Y-57014008D01*
X80203056Y-56845960D01*
X80345960Y-56703056D01*
X80514008Y-56590770D01*
X80700728Y-56513428D01*
X80898946Y-56474000D01*
X81101054Y-56474000D01*
X81299272Y-56513428D01*
X81299272Y-56513428D01*
G37*
G36*
X137786565Y-56209389D02*
X137977834Y-56288615D01*
X138149976Y-56403637D01*
X138296363Y-56550024D01*
X138411385Y-56722166D01*
X138490611Y-56913435D01*
X138531000Y-57116484D01*
X138531000Y-57323516D01*
X138490611Y-57526565D01*
X138411385Y-57717834D01*
X138296363Y-57889976D01*
X138149976Y-58036363D01*
X137977834Y-58151385D01*
X137786565Y-58230611D01*
X137583516Y-58271000D01*
X137376484Y-58271000D01*
X137173435Y-58230611D01*
X136982166Y-58151385D01*
X136810024Y-58036363D01*
X136663637Y-57889976D01*
X136548615Y-57717834D01*
X136469389Y-57526565D01*
X136429000Y-57323516D01*
X136429000Y-57116484D01*
X136469389Y-56913435D01*
X136548615Y-56722166D01*
X136663637Y-56550024D01*
X136810024Y-56403637D01*
X136982166Y-56288615D01*
X137173435Y-56209389D01*
X137376484Y-56169000D01*
X137583516Y-56169000D01*
X137786565Y-56209389D01*
X137786565Y-56209389D01*
G37*
G36*
X132706565Y-56209389D02*
X132897834Y-56288615D01*
X133069976Y-56403637D01*
X133216363Y-56550024D01*
X133331385Y-56722166D01*
X133410611Y-56913435D01*
X133451000Y-57116484D01*
X133451000Y-57323516D01*
X133410611Y-57526565D01*
X133331385Y-57717834D01*
X133216363Y-57889976D01*
X133069976Y-58036363D01*
X132897834Y-58151385D01*
X132706565Y-58230611D01*
X132503516Y-58271000D01*
X132296484Y-58271000D01*
X132093435Y-58230611D01*
X131902166Y-58151385D01*
X131730024Y-58036363D01*
X131583637Y-57889976D01*
X131468615Y-57717834D01*
X131389389Y-57526565D01*
X131349000Y-57323516D01*
X131349000Y-57116484D01*
X131389389Y-56913435D01*
X131468615Y-56722166D01*
X131583637Y-56550024D01*
X131730024Y-56403637D01*
X131902166Y-56288615D01*
X132093435Y-56209389D01*
X132296484Y-56169000D01*
X132503516Y-56169000D01*
X132706565Y-56209389D01*
X132706565Y-56209389D01*
G37*
G36*
X73525331Y-51268211D02*
X73853092Y-51403974D01*
X74148073Y-51601074D01*
X74398926Y-51851927D01*
X74596026Y-52146908D01*
X74731789Y-52474669D01*
X74801000Y-52822616D01*
X74801000Y-53177384D01*
X74731789Y-53525331D01*
X74596026Y-53853092D01*
X74398926Y-54148073D01*
X74148073Y-54398926D01*
X73853092Y-54596026D01*
X73525331Y-54731789D01*
X73177384Y-54801000D01*
X72822616Y-54801000D01*
X72474669Y-54731789D01*
X72146908Y-54596026D01*
X71851927Y-54398926D01*
X71601074Y-54148073D01*
X71403974Y-53853092D01*
X71268211Y-53525331D01*
X71199000Y-53177384D01*
X71199000Y-52822616D01*
X71268211Y-52474669D01*
X71403974Y-52146908D01*
X71601074Y-51851927D01*
X71851927Y-51601074D01*
X72146908Y-51403974D01*
X72474669Y-51268211D01*
X72822616Y-51199000D01*
X73177384Y-51199000D01*
X73525331Y-51268211D01*
X73525331Y-51268211D01*
G37*
G36*
X167525331Y-51268211D02*
X167853092Y-51403974D01*
X168148073Y-51601074D01*
X168398926Y-51851927D01*
X168596026Y-52146908D01*
X168731789Y-52474669D01*
X168801000Y-52822616D01*
X168801000Y-53177384D01*
X168731789Y-53525331D01*
X168596026Y-53853092D01*
X168398926Y-54148073D01*
X168148073Y-54398926D01*
X167853092Y-54596026D01*
X167525331Y-54731789D01*
X167177384Y-54801000D01*
X166822616Y-54801000D01*
X166474669Y-54731789D01*
X166146908Y-54596026D01*
X165851927Y-54398926D01*
X165601074Y-54148073D01*
X165403974Y-53853092D01*
X165268211Y-53525331D01*
X165199000Y-53177384D01*
X165199000Y-52822616D01*
X165268211Y-52474669D01*
X165403974Y-52146908D01*
X165601074Y-51851927D01*
X165851927Y-51601074D01*
X166146908Y-51403974D01*
X166474669Y-51268211D01*
X166822616Y-51199000D01*
X167177384Y-51199000D01*
X167525331Y-51268211D01*
X167525331Y-51268211D01*
G37*
M02*
