%TF.GenerationSoftware,KiCad,Pcbnew,(5.0.1)-4*%
%TF.CreationDate,2019-03-02T13:09:36-06:00*%
%TF.ProjectId,PS Rev2,505320526576322E6B696361645F7063,rev?*%
%TF.SameCoordinates,Original*%
%TF.FileFunction,Copper,L1,Top,Signal*%
%TF.FilePolarity,Positive*%
%FSLAX46Y46*%
G04 Gerber Fmt 4.6, Leading zero omitted, Abs format (unit mm)*
G04 Created by KiCad (PCBNEW (5.0.1)-4) date 2019-03-02 1:09:36 PM*
%MOMM*%
%LPD*%
G01*
G04 APERTURE LIST*
%ADD10C,0.381000*%
%ADD11C,3.500000*%
%ADD12C,1.600000*%
%ADD13C,1.950000*%
%ADD14R,1.950000X1.950000*%
%ADD15R,1.650000X1.650000*%
%ADD16C,1.650000*%
%ADD17C,2.000000*%
%ADD18C,1.308000*%
%ADD19R,1.308000X1.308000*%
%ADD20R,1.600000X1.600000*%
%ADD21R,2.000000X2.000000*%
%ADD22O,1.500000X1.050000*%
%ADD23R,1.500000X1.050000*%
%ADD24O,1.600000X1.600000*%
G04 APERTURE END LIST*
D10*
X79373000Y-78024000D02*
X79246000Y-77516000D01*
X80516000Y-75738000D02*
X79373000Y-78024000D01*
X79119000Y-75738000D02*
X80516000Y-75738000D01*
X80643000Y-73452000D02*
X79119000Y-75738000D01*
X80897000Y-73833000D02*
X80770000Y-73325000D01*
X81659000Y-73325000D02*
X80897000Y-73833000D01*
X79881000Y-75357000D02*
X81659000Y-73325000D01*
X81151000Y-75357000D02*
X79881000Y-75357000D01*
X79373000Y-78151000D02*
X81151000Y-75357000D01*
X79881000Y-77897000D02*
X79373000Y-78151000D01*
X79119000Y-78532000D02*
X79881000Y-77897000D01*
X79246000Y-77516000D02*
X79119000Y-78532000D01*
X79500000Y-75611000D02*
X80770000Y-75611000D01*
X80897000Y-73706000D02*
X79500000Y-75611000D01*
D11*
X73500000Y-101000000D03*
X167000000Y-101000000D03*
X73000000Y-53000000D03*
X167000000Y-53000000D03*
D12*
X148000000Y-59000000D03*
X148000000Y-64000000D03*
D13*
X81000000Y-57500000D03*
D14*
X81000000Y-62500000D03*
D15*
X162000000Y-59000000D03*
D16*
X162000000Y-64000000D03*
X162000000Y-69000000D03*
D14*
X82000000Y-86500000D03*
D13*
X82000000Y-91500000D03*
D17*
X147000000Y-87000000D03*
X126000000Y-87000000D03*
D18*
X114950000Y-92640000D03*
X109870000Y-92640000D03*
X107330000Y-92640000D03*
X104790000Y-92640000D03*
D19*
X114950000Y-87560000D03*
D18*
X109870000Y-87560000D03*
X107330000Y-87560000D03*
X104790000Y-87560000D03*
D20*
X97125000Y-61250000D03*
D12*
X92875000Y-68750000D03*
X159875000Y-88750000D03*
D20*
X164125000Y-81250000D03*
D21*
X107000000Y-75000000D03*
D17*
X112080000Y-75000000D03*
X137480000Y-57220000D03*
X137480000Y-75000000D03*
X132400000Y-57220000D03*
D22*
X147000000Y-76770000D03*
X147000000Y-78040000D03*
D23*
X147000000Y-75500000D03*
D12*
X154000000Y-69000000D03*
D24*
X154000000Y-76620000D03*
M02*
