%TF.GenerationSoftware,KiCad,Pcbnew,(5.0.1)-4*%
%TF.CreationDate,2019-03-02T13:09:36-06:00*%
%TF.ProjectId,PS Rev2,505320526576322E6B696361645F7063,rev?*%
%TF.SameCoordinates,Original*%
%TF.FileFunction,Copper,L2,Bot,Signal*%
%TF.FilePolarity,Positive*%
%FSLAX46Y46*%
G04 Gerber Fmt 4.6, Leading zero omitted, Abs format (unit mm)*
G04 Created by KiCad (PCBNEW (5.0.1)-4) date 2019-03-02 1:09:36 PM*
%MOMM*%
%LPD*%
G01*
G04 APERTURE LIST*
%ADD10C,3.500000*%
%ADD11C,1.600000*%
%ADD12C,1.950000*%
%ADD13R,1.950000X1.950000*%
%ADD14R,1.650000X1.650000*%
%ADD15C,1.650000*%
%ADD16C,2.000000*%
%ADD17C,1.308000*%
%ADD18R,1.308000X1.308000*%
%ADD19R,1.600000X1.600000*%
%ADD20R,2.000000X2.000000*%
%ADD21O,1.500000X1.050000*%
%ADD22R,1.500000X1.050000*%
%ADD23O,1.600000X1.600000*%
%ADD24C,0.400000*%
%ADD25C,0.250000*%
%ADD26C,0.300000*%
G04 APERTURE END LIST*
D10*
X73500000Y-101000000D03*
X167000000Y-101000000D03*
X73000000Y-53000000D03*
X167000000Y-53000000D03*
D11*
X148000000Y-59000000D03*
X148000000Y-64000000D03*
D12*
X81000000Y-57500000D03*
D13*
X81000000Y-62500000D03*
D14*
X162000000Y-59000000D03*
D15*
X162000000Y-64000000D03*
X162000000Y-69000000D03*
D13*
X82000000Y-86500000D03*
D12*
X82000000Y-91500000D03*
D16*
X147000000Y-87000000D03*
X126000000Y-87000000D03*
D17*
X114950000Y-92640000D03*
X109870000Y-92640000D03*
X107330000Y-92640000D03*
X104790000Y-92640000D03*
D18*
X114950000Y-87560000D03*
D17*
X109870000Y-87560000D03*
X107330000Y-87560000D03*
X104790000Y-87560000D03*
D19*
X97125000Y-61250000D03*
D11*
X92875000Y-68750000D03*
X159875000Y-88750000D03*
D19*
X164125000Y-81250000D03*
D20*
X107000000Y-75000000D03*
D16*
X112080000Y-75000000D03*
X137480000Y-57220000D03*
X137480000Y-75000000D03*
X132400000Y-57220000D03*
D21*
X147000000Y-76770000D03*
X147000000Y-78040000D03*
D22*
X147000000Y-75500000D03*
D11*
X154000000Y-69000000D03*
D23*
X154000000Y-76620000D03*
D24*
X148000000Y-59000000D02*
X162000000Y-59000000D01*
X148000000Y-54500000D02*
X148000000Y-59000000D01*
X146500000Y-53000000D02*
X148000000Y-54500000D01*
X134000000Y-53000000D02*
X146500000Y-53000000D01*
X132400000Y-57220000D02*
X132400000Y-54600000D01*
X132400000Y-54600000D02*
X134000000Y-53000000D01*
X124780000Y-57220000D02*
X132400000Y-57220000D01*
X123000000Y-59000000D02*
X124780000Y-57220000D01*
X114950000Y-87560000D02*
X121440000Y-87560000D01*
X121440000Y-87560000D02*
X123000000Y-86000000D01*
X123000000Y-86000000D02*
X123000000Y-82500000D01*
D25*
X123000000Y-83000000D02*
X123000000Y-82500000D01*
D24*
X123000000Y-82500000D02*
X123000000Y-59000000D01*
X148000000Y-64000000D02*
X162000000Y-64000000D01*
X137480000Y-57220000D02*
X137480000Y-62480000D01*
X139000000Y-64000000D02*
X148000000Y-64000000D01*
X137480000Y-62480000D02*
X139000000Y-64000000D01*
X165750000Y-81250000D02*
X164125000Y-81250000D01*
X167000000Y-80000000D02*
X165750000Y-81250000D01*
X167000000Y-65500000D02*
X167000000Y-80000000D01*
X162000000Y-64000000D02*
X165500000Y-64000000D01*
X165500000Y-64000000D02*
X167000000Y-65500000D01*
X148500000Y-75500000D02*
X147000000Y-75500000D01*
X150000000Y-74000000D02*
X148500000Y-75500000D01*
X148000000Y-64000000D02*
X150000000Y-66000000D01*
X150000000Y-66000000D02*
X150000000Y-74000000D01*
D26*
X81000000Y-57500000D02*
X81000000Y-55500000D01*
X81000000Y-55500000D02*
X83000000Y-53500000D01*
X83000000Y-53500000D02*
X95500000Y-53500000D01*
X97125000Y-55125000D02*
X97125000Y-61250000D01*
X95500000Y-53500000D02*
X97125000Y-55125000D01*
X97125000Y-61250000D02*
X105250000Y-61250000D01*
X107000000Y-63000000D02*
X107000000Y-75000000D01*
X105250000Y-61250000D02*
X107000000Y-63000000D01*
X82750000Y-68750000D02*
X92875000Y-68750000D01*
X81000000Y-62500000D02*
X81000000Y-67000000D01*
X81000000Y-67000000D02*
X82750000Y-68750000D01*
X92875000Y-68750000D02*
X92875000Y-77375000D01*
X92875000Y-77375000D02*
X95000000Y-79500000D01*
X95000000Y-79500000D02*
X110500000Y-79500000D01*
X112080000Y-77920000D02*
X112080000Y-75000000D01*
X110500000Y-79500000D02*
X112080000Y-77920000D01*
X154000000Y-69000000D02*
X162000000Y-69000000D01*
X82000000Y-85275000D02*
X83275000Y-84000000D01*
X82000000Y-86500000D02*
X82000000Y-85275000D01*
X83275000Y-84000000D02*
X109000000Y-84000000D01*
X109870000Y-84870000D02*
X109870000Y-87560000D01*
X109000000Y-84000000D02*
X109870000Y-84870000D01*
X82000000Y-91500000D02*
X103000000Y-91500000D01*
X104790000Y-89710000D02*
X104790000Y-87560000D01*
X103000000Y-91500000D02*
X104790000Y-89710000D01*
D24*
X159875000Y-90625000D02*
X159875000Y-88750000D01*
X159000000Y-91500000D02*
X159875000Y-90625000D01*
X148500000Y-91500000D02*
X159000000Y-91500000D01*
X147000000Y-87000000D02*
X147000000Y-90000000D01*
X147000000Y-90000000D02*
X148500000Y-91500000D01*
X147000000Y-87000000D02*
X147000000Y-78040000D01*
X114950000Y-92640000D02*
X124360000Y-92640000D01*
X126000000Y-91000000D02*
X126000000Y-87000000D01*
X124360000Y-92640000D02*
X126000000Y-91000000D01*
D25*
X153850000Y-76770000D02*
X154000000Y-76620000D01*
D26*
X147000000Y-76770000D02*
X153850000Y-76770000D01*
M02*
