%TF.GenerationSoftware,KiCad,Pcbnew,(5.0.1)-4*%
%TF.CreationDate,2019-03-02T13:09:36-06:00*%
%TF.ProjectId,PS Rev2,505320526576322E6B696361645F7063,rev?*%
%TF.SameCoordinates,Original*%
%TF.FileFunction,Legend,Top*%
%TF.FilePolarity,Positive*%
%FSLAX46Y46*%
G04 Gerber Fmt 4.6, Leading zero omitted, Abs format (unit mm)*
G04 Created by KiCad (PCBNEW (5.0.1)-4) date 2019-03-02 1:09:36 PM*
%MOMM*%
%LPD*%
G01*
G04 APERTURE LIST*
%ADD10C,0.200000*%
%ADD11C,0.300000*%
%ADD12C,0.250000*%
%ADD13C,0.010000*%
%ADD14C,0.120000*%
%ADD15C,0.280000*%
%ADD16C,0.127000*%
%ADD17C,0.203200*%
%ADD18C,0.150000*%
G04 APERTURE END LIST*
D10*
X144571428Y-74928571D02*
X144714285Y-74976190D01*
X144761904Y-75023809D01*
X144809523Y-75119047D01*
X144809523Y-75261904D01*
X144761904Y-75357142D01*
X144714285Y-75404761D01*
X144619047Y-75452380D01*
X144238095Y-75452380D01*
X144238095Y-74452380D01*
X144571428Y-74452380D01*
X144666666Y-74500000D01*
X144714285Y-74547619D01*
X144761904Y-74642857D01*
X144761904Y-74738095D01*
X144714285Y-74833333D01*
X144666666Y-74880952D01*
X144571428Y-74928571D01*
X144238095Y-74928571D01*
X144285714Y-76428571D02*
X144619047Y-76428571D01*
X144761904Y-76952380D02*
X144285714Y-76952380D01*
X144285714Y-75952380D01*
X144761904Y-75952380D01*
X144809523Y-78357142D02*
X144761904Y-78404761D01*
X144619047Y-78452380D01*
X144523809Y-78452380D01*
X144380952Y-78404761D01*
X144285714Y-78309523D01*
X144238095Y-78214285D01*
X144190476Y-78023809D01*
X144190476Y-77880952D01*
X144238095Y-77690476D01*
X144285714Y-77595238D01*
X144380952Y-77500000D01*
X144523809Y-77452380D01*
X144619047Y-77452380D01*
X144761904Y-77500000D01*
X144809523Y-77547619D01*
D11*
X71821428Y-56964285D02*
X71821428Y-56107142D01*
X71821428Y-56535714D02*
X73321428Y-56535714D01*
X73107142Y-56392857D01*
X72964285Y-56250000D01*
X72892857Y-56107142D01*
X73178571Y-57535714D02*
X73250000Y-57607142D01*
X73321428Y-57750000D01*
X73321428Y-58107142D01*
X73250000Y-58250000D01*
X73178571Y-58321428D01*
X73035714Y-58392857D01*
X72892857Y-58392857D01*
X72678571Y-58321428D01*
X71821428Y-57464285D01*
X71821428Y-58392857D01*
X73321428Y-59321428D02*
X73321428Y-59464285D01*
X73250000Y-59607142D01*
X73178571Y-59678571D01*
X73035714Y-59750000D01*
X72750000Y-59821428D01*
X72392857Y-59821428D01*
X72107142Y-59750000D01*
X71964285Y-59678571D01*
X71892857Y-59607142D01*
X71821428Y-59464285D01*
X71821428Y-59321428D01*
X71892857Y-59178571D01*
X71964285Y-59107142D01*
X72107142Y-59035714D01*
X72392857Y-58964285D01*
X72750000Y-58964285D01*
X73035714Y-59035714D01*
X73178571Y-59107142D01*
X73250000Y-59178571D01*
X73321428Y-59321428D01*
X73321428Y-60250000D02*
X71821428Y-60750000D01*
X73321428Y-61250000D01*
X72250000Y-61678571D02*
X72250000Y-62392857D01*
X71821428Y-61535714D02*
X73321428Y-62035714D01*
X71821428Y-62535714D01*
X71964285Y-63892857D02*
X71892857Y-63821428D01*
X71821428Y-63607142D01*
X71821428Y-63464285D01*
X71892857Y-63250000D01*
X72035714Y-63107142D01*
X72178571Y-63035714D01*
X72464285Y-62964285D01*
X72678571Y-62964285D01*
X72964285Y-63035714D01*
X73107142Y-63107142D01*
X73250000Y-63250000D01*
X73321428Y-63464285D01*
X73321428Y-63607142D01*
X73250000Y-63821428D01*
X73178571Y-63892857D01*
X74571428Y-63678571D02*
X74571428Y-62178571D01*
X75428571Y-63678571D01*
X75428571Y-62178571D01*
X75464285Y-57678571D02*
X74750000Y-57678571D01*
X74750000Y-56178571D01*
X133535714Y-92392857D02*
X133035714Y-92392857D01*
X133035714Y-93178571D02*
X133035714Y-91678571D01*
X133750000Y-91678571D01*
X134321428Y-91678571D02*
X134321428Y-92892857D01*
X134392857Y-93035714D01*
X134464285Y-93107142D01*
X134607142Y-93178571D01*
X134892857Y-93178571D01*
X135035714Y-93107142D01*
X135107142Y-93035714D01*
X135178571Y-92892857D01*
X135178571Y-91678571D01*
X135821428Y-93107142D02*
X136035714Y-93178571D01*
X136392857Y-93178571D01*
X136535714Y-93107142D01*
X136607142Y-93035714D01*
X136678571Y-92892857D01*
X136678571Y-92750000D01*
X136607142Y-92607142D01*
X136535714Y-92535714D01*
X136392857Y-92464285D01*
X136107142Y-92392857D01*
X135964285Y-92321428D01*
X135892857Y-92250000D01*
X135821428Y-92107142D01*
X135821428Y-91964285D01*
X135892857Y-91821428D01*
X135964285Y-91750000D01*
X136107142Y-91678571D01*
X136464285Y-91678571D01*
X136678571Y-91750000D01*
X137321428Y-92392857D02*
X137821428Y-92392857D01*
X138035714Y-93178571D02*
X137321428Y-93178571D01*
X137321428Y-91678571D01*
X138035714Y-91678571D01*
D10*
X120000000Y-94000000D02*
X120000000Y-95000000D01*
X146000000Y-94000000D02*
X120000000Y-94000000D01*
X146000000Y-103000000D02*
X146000000Y-94000000D01*
X120000000Y-103000000D02*
X146000000Y-103000000D01*
X120000000Y-95000000D02*
X120000000Y-103000000D01*
X99500000Y-103000000D02*
X99500000Y-96000000D01*
X118500000Y-103000000D02*
X99500000Y-103000000D01*
X118500000Y-96000000D02*
X118500000Y-103000000D01*
X99500000Y-96000000D02*
X118500000Y-96000000D01*
D12*
X75642857Y-90642857D02*
X75595238Y-90595238D01*
X75547619Y-90452380D01*
X75547619Y-90357142D01*
X75595238Y-90214285D01*
X75690476Y-90119047D01*
X75785714Y-90071428D01*
X75976190Y-90023809D01*
X76119047Y-90023809D01*
X76309523Y-90071428D01*
X76404761Y-90119047D01*
X76500000Y-90214285D01*
X76547619Y-90357142D01*
X76547619Y-90452380D01*
X76500000Y-90595238D01*
X76452380Y-90642857D01*
X76547619Y-91261904D02*
X76547619Y-91452380D01*
X76500000Y-91547619D01*
X76404761Y-91642857D01*
X76214285Y-91690476D01*
X75880952Y-91690476D01*
X75690476Y-91642857D01*
X75595238Y-91547619D01*
X75547619Y-91452380D01*
X75547619Y-91261904D01*
X75595238Y-91166666D01*
X75690476Y-91071428D01*
X75880952Y-91023809D01*
X76214285Y-91023809D01*
X76404761Y-91071428D01*
X76500000Y-91166666D01*
X76547619Y-91261904D01*
X75547619Y-92119047D02*
X76547619Y-92119047D01*
X75547619Y-93071428D02*
X75547619Y-92595238D01*
X76547619Y-92595238D01*
X76309523Y-86452380D02*
X75833333Y-86452380D01*
X75833333Y-85452380D01*
D11*
X121535714Y-97903571D02*
X121821428Y-97903571D01*
X121964285Y-97975000D01*
X122107142Y-98117857D01*
X122178571Y-98403571D01*
X122178571Y-98903571D01*
X122107142Y-99189285D01*
X121964285Y-99332142D01*
X121821428Y-99403571D01*
X121535714Y-99403571D01*
X121392857Y-99332142D01*
X121250000Y-99189285D01*
X121178571Y-98903571D01*
X121178571Y-98403571D01*
X121250000Y-98117857D01*
X121392857Y-97975000D01*
X121535714Y-97903571D01*
X123464285Y-98403571D02*
X123464285Y-99403571D01*
X122821428Y-98403571D02*
X122821428Y-99189285D01*
X122892857Y-99332142D01*
X123035714Y-99403571D01*
X123250000Y-99403571D01*
X123392857Y-99332142D01*
X123464285Y-99260714D01*
X123964285Y-98403571D02*
X124535714Y-98403571D01*
X124178571Y-97903571D02*
X124178571Y-99189285D01*
X124250000Y-99332142D01*
X124392857Y-99403571D01*
X124535714Y-99403571D01*
X125035714Y-98403571D02*
X125035714Y-99903571D01*
X125035714Y-98475000D02*
X125178571Y-98403571D01*
X125464285Y-98403571D01*
X125607142Y-98475000D01*
X125678571Y-98546428D01*
X125750000Y-98689285D01*
X125750000Y-99117857D01*
X125678571Y-99260714D01*
X125607142Y-99332142D01*
X125464285Y-99403571D01*
X125178571Y-99403571D01*
X125035714Y-99332142D01*
X127035714Y-98403571D02*
X127035714Y-99403571D01*
X126392857Y-98403571D02*
X126392857Y-99189285D01*
X126464285Y-99332142D01*
X126607142Y-99403571D01*
X126821428Y-99403571D01*
X126964285Y-99332142D01*
X127035714Y-99260714D01*
X127535714Y-98403571D02*
X128107142Y-98403571D01*
X127750000Y-97903571D02*
X127750000Y-99189285D01*
X127821428Y-99332142D01*
X127964285Y-99403571D01*
X128107142Y-99403571D01*
X128607142Y-99260714D02*
X128678571Y-99332142D01*
X128607142Y-99403571D01*
X128535714Y-99332142D01*
X128607142Y-99260714D01*
X128607142Y-99403571D01*
X128607142Y-98475000D02*
X128678571Y-98546428D01*
X128607142Y-98617857D01*
X128535714Y-98546428D01*
X128607142Y-98475000D01*
X128607142Y-98617857D01*
X130321428Y-97903571D02*
X131250000Y-97903571D01*
X130750000Y-98475000D01*
X130964285Y-98475000D01*
X131107142Y-98546428D01*
X131178571Y-98617857D01*
X131250000Y-98760714D01*
X131250000Y-99117857D01*
X131178571Y-99260714D01*
X131107142Y-99332142D01*
X130964285Y-99403571D01*
X130535714Y-99403571D01*
X130392857Y-99332142D01*
X130321428Y-99260714D01*
X131892857Y-99260714D02*
X131964285Y-99332142D01*
X131892857Y-99403571D01*
X131821428Y-99332142D01*
X131892857Y-99260714D01*
X131892857Y-99403571D01*
X132464285Y-97903571D02*
X133392857Y-97903571D01*
X132892857Y-98475000D01*
X133107142Y-98475000D01*
X133250000Y-98546428D01*
X133321428Y-98617857D01*
X133392857Y-98760714D01*
X133392857Y-99117857D01*
X133321428Y-99260714D01*
X133250000Y-99332142D01*
X133107142Y-99403571D01*
X132678571Y-99403571D01*
X132535714Y-99332142D01*
X132464285Y-99260714D01*
X134964285Y-97903571D02*
X135464285Y-99403571D01*
X135964285Y-97903571D01*
X136464285Y-99403571D02*
X136464285Y-97903571D01*
X136821428Y-97903571D01*
X137035714Y-97975000D01*
X137178571Y-98117857D01*
X137250000Y-98260714D01*
X137321428Y-98546428D01*
X137321428Y-98760714D01*
X137250000Y-99046428D01*
X137178571Y-99189285D01*
X137035714Y-99332142D01*
X136821428Y-99403571D01*
X136464285Y-99403571D01*
X138821428Y-99260714D02*
X138750000Y-99332142D01*
X138535714Y-99403571D01*
X138392857Y-99403571D01*
X138178571Y-99332142D01*
X138035714Y-99189285D01*
X137964285Y-99046428D01*
X137892857Y-98760714D01*
X137892857Y-98546428D01*
X137964285Y-98260714D01*
X138035714Y-98117857D01*
X138178571Y-97975000D01*
X138392857Y-97903571D01*
X138535714Y-97903571D01*
X138750000Y-97975000D01*
X138821428Y-98046428D01*
X130285714Y-101953571D02*
X130571428Y-101953571D01*
X130714285Y-101882142D01*
X130785714Y-101810714D01*
X130928571Y-101596428D01*
X131000000Y-101310714D01*
X131000000Y-100739285D01*
X130928571Y-100596428D01*
X130857142Y-100525000D01*
X130714285Y-100453571D01*
X130428571Y-100453571D01*
X130285714Y-100525000D01*
X130214285Y-100596428D01*
X130142857Y-100739285D01*
X130142857Y-101096428D01*
X130214285Y-101239285D01*
X130285714Y-101310714D01*
X130428571Y-101382142D01*
X130714285Y-101382142D01*
X130857142Y-101310714D01*
X130928571Y-101239285D01*
X131000000Y-101096428D01*
X132428571Y-101953571D02*
X131571428Y-101953571D01*
X132000000Y-101953571D02*
X132000000Y-100453571D01*
X131857142Y-100667857D01*
X131714285Y-100810714D01*
X131571428Y-100882142D01*
X133357142Y-100453571D02*
X133500000Y-100453571D01*
X133642857Y-100525000D01*
X133714285Y-100596428D01*
X133785714Y-100739285D01*
X133857142Y-101025000D01*
X133857142Y-101382142D01*
X133785714Y-101667857D01*
X133714285Y-101810714D01*
X133642857Y-101882142D01*
X133500000Y-101953571D01*
X133357142Y-101953571D01*
X133214285Y-101882142D01*
X133142857Y-101810714D01*
X133071428Y-101667857D01*
X133000000Y-101382142D01*
X133000000Y-101025000D01*
X133071428Y-100739285D01*
X133142857Y-100596428D01*
X133214285Y-100525000D01*
X133357142Y-100453571D01*
X135642857Y-101953571D02*
X135642857Y-100953571D01*
X135642857Y-101096428D02*
X135714285Y-101025000D01*
X135857142Y-100953571D01*
X136071428Y-100953571D01*
X136214285Y-101025000D01*
X136285714Y-101167857D01*
X136285714Y-101953571D01*
X136285714Y-101167857D02*
X136357142Y-101025000D01*
X136500000Y-100953571D01*
X136714285Y-100953571D01*
X136857142Y-101025000D01*
X136928571Y-101167857D01*
X136928571Y-101953571D01*
X137571428Y-101525000D02*
X138285714Y-101525000D01*
X137428571Y-101953571D02*
X137928571Y-100453571D01*
X138428571Y-101953571D01*
X140071428Y-101953571D02*
X140071428Y-100953571D01*
X140071428Y-101096428D02*
X140142857Y-101025000D01*
X140285714Y-100953571D01*
X140500000Y-100953571D01*
X140642857Y-101025000D01*
X140714285Y-101167857D01*
X140714285Y-101953571D01*
X140714285Y-101167857D02*
X140785714Y-101025000D01*
X140928571Y-100953571D01*
X141142857Y-100953571D01*
X141285714Y-101025000D01*
X141357142Y-101167857D01*
X141357142Y-101953571D01*
X142714285Y-101953571D02*
X142714285Y-101167857D01*
X142642857Y-101025000D01*
X142500000Y-100953571D01*
X142214285Y-100953571D01*
X142071428Y-101025000D01*
X142714285Y-101882142D02*
X142571428Y-101953571D01*
X142214285Y-101953571D01*
X142071428Y-101882142D01*
X142000000Y-101739285D01*
X142000000Y-101596428D01*
X142071428Y-101453571D01*
X142214285Y-101382142D01*
X142571428Y-101382142D01*
X142714285Y-101310714D01*
X143285714Y-101953571D02*
X144071428Y-100953571D01*
X143285714Y-100953571D02*
X144071428Y-101953571D01*
X144642857Y-101810714D02*
X144714285Y-101882142D01*
X144642857Y-101953571D01*
X144571428Y-101882142D01*
X144642857Y-101810714D01*
X144642857Y-101953571D01*
X121857142Y-96678571D02*
X121857142Y-95178571D01*
X122571428Y-95678571D02*
X122571428Y-96678571D01*
X122571428Y-95821428D02*
X122642857Y-95750000D01*
X122785714Y-95678571D01*
X123000000Y-95678571D01*
X123142857Y-95750000D01*
X123214285Y-95892857D01*
X123214285Y-96678571D01*
X123928571Y-95678571D02*
X123928571Y-97178571D01*
X123928571Y-95750000D02*
X124071428Y-95678571D01*
X124357142Y-95678571D01*
X124500000Y-95750000D01*
X124571428Y-95821428D01*
X124642857Y-95964285D01*
X124642857Y-96392857D01*
X124571428Y-96535714D01*
X124500000Y-96607142D01*
X124357142Y-96678571D01*
X124071428Y-96678571D01*
X123928571Y-96607142D01*
X125928571Y-95678571D02*
X125928571Y-96678571D01*
X125285714Y-95678571D02*
X125285714Y-96464285D01*
X125357142Y-96607142D01*
X125500000Y-96678571D01*
X125714285Y-96678571D01*
X125857142Y-96607142D01*
X125928571Y-96535714D01*
X126428571Y-95678571D02*
X127000000Y-95678571D01*
X126642857Y-95178571D02*
X126642857Y-96464285D01*
X126714285Y-96607142D01*
X126857142Y-96678571D01*
X127000000Y-96678571D01*
X127500000Y-96535714D02*
X127571428Y-96607142D01*
X127500000Y-96678571D01*
X127428571Y-96607142D01*
X127500000Y-96535714D01*
X127500000Y-96678571D01*
X127500000Y-95750000D02*
X127571428Y-95821428D01*
X127500000Y-95892857D01*
X127428571Y-95821428D01*
X127500000Y-95750000D01*
X127500000Y-95892857D01*
X130142857Y-96678571D02*
X129285714Y-96678571D01*
X129714285Y-96678571D02*
X129714285Y-95178571D01*
X129571428Y-95392857D01*
X129428571Y-95535714D01*
X129285714Y-95607142D01*
X130714285Y-95321428D02*
X130785714Y-95250000D01*
X130928571Y-95178571D01*
X131285714Y-95178571D01*
X131428571Y-95250000D01*
X131500000Y-95321428D01*
X131571428Y-95464285D01*
X131571428Y-95607142D01*
X131500000Y-95821428D01*
X130642857Y-96678571D01*
X131571428Y-96678571D01*
X132500000Y-95178571D02*
X132642857Y-95178571D01*
X132785714Y-95250000D01*
X132857142Y-95321428D01*
X132928571Y-95464285D01*
X133000000Y-95750000D01*
X133000000Y-96107142D01*
X132928571Y-96392857D01*
X132857142Y-96535714D01*
X132785714Y-96607142D01*
X132642857Y-96678571D01*
X132500000Y-96678571D01*
X132357142Y-96607142D01*
X132285714Y-96535714D01*
X132214285Y-96392857D01*
X132142857Y-96107142D01*
X132142857Y-95750000D01*
X132214285Y-95464285D01*
X132285714Y-95321428D01*
X132357142Y-95250000D01*
X132500000Y-95178571D01*
X134571428Y-95178571D02*
X135071428Y-96678571D01*
X135571428Y-95178571D01*
X136000000Y-96250000D02*
X136714285Y-96250000D01*
X135857142Y-96678571D02*
X136357142Y-95178571D01*
X136857142Y-96678571D01*
X138214285Y-96535714D02*
X138142857Y-96607142D01*
X137928571Y-96678571D01*
X137785714Y-96678571D01*
X137571428Y-96607142D01*
X137428571Y-96464285D01*
X137357142Y-96321428D01*
X137285714Y-96035714D01*
X137285714Y-95821428D01*
X137357142Y-95535714D01*
X137428571Y-95392857D01*
X137571428Y-95250000D01*
X137785714Y-95178571D01*
X137928571Y-95178571D01*
X138142857Y-95250000D01*
X138214285Y-95321428D01*
X100240476Y-97838095D02*
X100240476Y-96538095D01*
X100550000Y-96538095D01*
X100735714Y-96600000D01*
X100859523Y-96723809D01*
X100921428Y-96847619D01*
X100983333Y-97095238D01*
X100983333Y-97280952D01*
X100921428Y-97528571D01*
X100859523Y-97652380D01*
X100735714Y-97776190D01*
X100550000Y-97838095D01*
X100240476Y-97838095D01*
X101540476Y-97157142D02*
X101973809Y-97157142D01*
X102159523Y-97838095D02*
X101540476Y-97838095D01*
X101540476Y-96538095D01*
X102159523Y-96538095D01*
X102716666Y-97838095D02*
X102716666Y-96538095D01*
X103150000Y-97466666D01*
X103583333Y-96538095D01*
X103583333Y-97838095D01*
X105192857Y-97838095D02*
X105192857Y-96538095D01*
X105688095Y-96538095D01*
X105811904Y-96600000D01*
X105873809Y-96661904D01*
X105935714Y-96785714D01*
X105935714Y-96971428D01*
X105873809Y-97095238D01*
X105811904Y-97157142D01*
X105688095Y-97219047D01*
X105192857Y-97219047D01*
X106678571Y-97838095D02*
X106554761Y-97776190D01*
X106492857Y-97714285D01*
X106430952Y-97590476D01*
X106430952Y-97219047D01*
X106492857Y-97095238D01*
X106554761Y-97033333D01*
X106678571Y-96971428D01*
X106864285Y-96971428D01*
X106988095Y-97033333D01*
X107050000Y-97095238D01*
X107111904Y-97219047D01*
X107111904Y-97590476D01*
X107050000Y-97714285D01*
X106988095Y-97776190D01*
X106864285Y-97838095D01*
X106678571Y-97838095D01*
X107545238Y-96971428D02*
X107792857Y-97838095D01*
X108040476Y-97219047D01*
X108288095Y-97838095D01*
X108535714Y-96971428D01*
X109526190Y-97776190D02*
X109402380Y-97838095D01*
X109154761Y-97838095D01*
X109030952Y-97776190D01*
X108969047Y-97652380D01*
X108969047Y-97157142D01*
X109030952Y-97033333D01*
X109154761Y-96971428D01*
X109402380Y-96971428D01*
X109526190Y-97033333D01*
X109588095Y-97157142D01*
X109588095Y-97280952D01*
X108969047Y-97404761D01*
X110145238Y-97838095D02*
X110145238Y-96971428D01*
X110145238Y-97219047D02*
X110207142Y-97095238D01*
X110269047Y-97033333D01*
X110392857Y-96971428D01*
X110516666Y-96971428D01*
X111878571Y-97776190D02*
X112064285Y-97838095D01*
X112373809Y-97838095D01*
X112497619Y-97776190D01*
X112559523Y-97714285D01*
X112621428Y-97590476D01*
X112621428Y-97466666D01*
X112559523Y-97342857D01*
X112497619Y-97280952D01*
X112373809Y-97219047D01*
X112126190Y-97157142D01*
X112002380Y-97095238D01*
X111940476Y-97033333D01*
X111878571Y-96909523D01*
X111878571Y-96785714D01*
X111940476Y-96661904D01*
X112002380Y-96600000D01*
X112126190Y-96538095D01*
X112435714Y-96538095D01*
X112621428Y-96600000D01*
X113735714Y-96971428D02*
X113735714Y-97838095D01*
X113178571Y-96971428D02*
X113178571Y-97652380D01*
X113240476Y-97776190D01*
X113364285Y-97838095D01*
X113550000Y-97838095D01*
X113673809Y-97776190D01*
X113735714Y-97714285D01*
X114354761Y-96971428D02*
X114354761Y-98271428D01*
X114354761Y-97033333D02*
X114478571Y-96971428D01*
X114726190Y-96971428D01*
X114850000Y-97033333D01*
X114911904Y-97095238D01*
X114973809Y-97219047D01*
X114973809Y-97590476D01*
X114911904Y-97714285D01*
X114850000Y-97776190D01*
X114726190Y-97838095D01*
X114478571Y-97838095D01*
X114354761Y-97776190D01*
X115530952Y-96971428D02*
X115530952Y-98271428D01*
X115530952Y-97033333D02*
X115654761Y-96971428D01*
X115902380Y-96971428D01*
X116026190Y-97033333D01*
X116088095Y-97095238D01*
X116150000Y-97219047D01*
X116150000Y-97590476D01*
X116088095Y-97714285D01*
X116026190Y-97776190D01*
X115902380Y-97838095D01*
X115654761Y-97838095D01*
X115530952Y-97776190D01*
X116892857Y-97838095D02*
X116769047Y-97776190D01*
X116707142Y-97652380D01*
X116707142Y-96538095D01*
X117264285Y-96971428D02*
X117573809Y-97838095D01*
X117883333Y-96971428D02*
X117573809Y-97838095D01*
X117450000Y-98147619D01*
X117388095Y-98209523D01*
X117264285Y-98271428D01*
X109061904Y-100088095D02*
X109000000Y-100088095D01*
X108876190Y-100026190D01*
X108690476Y-99840476D01*
X108380952Y-99469047D01*
X108257142Y-99283333D01*
X108195238Y-99097619D01*
X108195238Y-98973809D01*
X108257142Y-98850000D01*
X108380952Y-98788095D01*
X108442857Y-98788095D01*
X108566666Y-98850000D01*
X108628571Y-98973809D01*
X108628571Y-99035714D01*
X108566666Y-99159523D01*
X108504761Y-99221428D01*
X108133333Y-99469047D01*
X108071428Y-99530952D01*
X108009523Y-99654761D01*
X108009523Y-99840476D01*
X108071428Y-99964285D01*
X108133333Y-100026190D01*
X108257142Y-100088095D01*
X108442857Y-100088095D01*
X108566666Y-100026190D01*
X108628571Y-99964285D01*
X108814285Y-99716666D01*
X108876190Y-99530952D01*
X108876190Y-99407142D01*
X102190476Y-102276190D02*
X102376190Y-102338095D01*
X102685714Y-102338095D01*
X102809523Y-102276190D01*
X102871428Y-102214285D01*
X102933333Y-102090476D01*
X102933333Y-101966666D01*
X102871428Y-101842857D01*
X102809523Y-101780952D01*
X102685714Y-101719047D01*
X102438095Y-101657142D01*
X102314285Y-101595238D01*
X102252380Y-101533333D01*
X102190476Y-101409523D01*
X102190476Y-101285714D01*
X102252380Y-101161904D01*
X102314285Y-101100000D01*
X102438095Y-101038095D01*
X102747619Y-101038095D01*
X102933333Y-101100000D01*
X103366666Y-101471428D02*
X103614285Y-102338095D01*
X103861904Y-101719047D01*
X104109523Y-102338095D01*
X104357142Y-101471428D01*
X104852380Y-102338095D02*
X104852380Y-101471428D01*
X104852380Y-101038095D02*
X104790476Y-101100000D01*
X104852380Y-101161904D01*
X104914285Y-101100000D01*
X104852380Y-101038095D01*
X104852380Y-101161904D01*
X105285714Y-101471428D02*
X105780952Y-101471428D01*
X105471428Y-101038095D02*
X105471428Y-102152380D01*
X105533333Y-102276190D01*
X105657142Y-102338095D01*
X105780952Y-102338095D01*
X106771428Y-102276190D02*
X106647619Y-102338095D01*
X106400000Y-102338095D01*
X106276190Y-102276190D01*
X106214285Y-102214285D01*
X106152380Y-102090476D01*
X106152380Y-101719047D01*
X106214285Y-101595238D01*
X106276190Y-101533333D01*
X106400000Y-101471428D01*
X106647619Y-101471428D01*
X106771428Y-101533333D01*
X107328571Y-102338095D02*
X107328571Y-101038095D01*
X107885714Y-102338095D02*
X107885714Y-101657142D01*
X107823809Y-101533333D01*
X107700000Y-101471428D01*
X107514285Y-101471428D01*
X107390476Y-101533333D01*
X107328571Y-101595238D01*
X108504761Y-102338095D02*
X108504761Y-101471428D01*
X108504761Y-101038095D02*
X108442857Y-101100000D01*
X108504761Y-101161904D01*
X108566666Y-101100000D01*
X108504761Y-101038095D01*
X108504761Y-101161904D01*
X109123809Y-101471428D02*
X109123809Y-102338095D01*
X109123809Y-101595238D02*
X109185714Y-101533333D01*
X109309523Y-101471428D01*
X109495238Y-101471428D01*
X109619047Y-101533333D01*
X109680952Y-101657142D01*
X109680952Y-102338095D01*
X110857142Y-101471428D02*
X110857142Y-102523809D01*
X110795238Y-102647619D01*
X110733333Y-102709523D01*
X110609523Y-102771428D01*
X110423809Y-102771428D01*
X110300000Y-102709523D01*
X110857142Y-102276190D02*
X110733333Y-102338095D01*
X110485714Y-102338095D01*
X110361904Y-102276190D01*
X110300000Y-102214285D01*
X110238095Y-102090476D01*
X110238095Y-101719047D01*
X110300000Y-101595238D01*
X110361904Y-101533333D01*
X110485714Y-101471428D01*
X110733333Y-101471428D01*
X110857142Y-101533333D01*
X112466666Y-101038095D02*
X112466666Y-102090476D01*
X112528571Y-102214285D01*
X112590476Y-102276190D01*
X112714285Y-102338095D01*
X112961904Y-102338095D01*
X113085714Y-102276190D01*
X113147619Y-102214285D01*
X113209523Y-102090476D01*
X113209523Y-101038095D01*
X113828571Y-101471428D02*
X113828571Y-102338095D01*
X113828571Y-101595238D02*
X113890476Y-101533333D01*
X114014285Y-101471428D01*
X114200000Y-101471428D01*
X114323809Y-101533333D01*
X114385714Y-101657142D01*
X114385714Y-102338095D01*
X115004761Y-102338095D02*
X115004761Y-101471428D01*
X115004761Y-101038095D02*
X114942857Y-101100000D01*
X115004761Y-101161904D01*
X115066666Y-101100000D01*
X115004761Y-101038095D01*
X115004761Y-101161904D01*
X115438095Y-101471428D02*
X115933333Y-101471428D01*
X115623809Y-101038095D02*
X115623809Y-102152380D01*
X115685714Y-102276190D01*
X115809523Y-102338095D01*
X115933333Y-102338095D01*
D12*
X168357142Y-70476190D02*
X168404761Y-70523809D01*
X168452380Y-70666666D01*
X168452380Y-70761904D01*
X168404761Y-70904761D01*
X168309523Y-71000000D01*
X168214285Y-71047619D01*
X168023809Y-71095238D01*
X167880952Y-71095238D01*
X167690476Y-71047619D01*
X167595238Y-71000000D01*
X167500000Y-70904761D01*
X167452380Y-70761904D01*
X167452380Y-70666666D01*
X167500000Y-70523809D01*
X167547619Y-70476190D01*
X167452380Y-70190476D02*
X167452380Y-69619047D01*
X168452380Y-69904761D02*
X167452380Y-69904761D01*
X168452380Y-68714285D02*
X167976190Y-69047619D01*
X168452380Y-69285714D02*
X167452380Y-69285714D01*
X167452380Y-68904761D01*
X167500000Y-68809523D01*
X167547619Y-68761904D01*
X167642857Y-68714285D01*
X167785714Y-68714285D01*
X167880952Y-68761904D01*
X167928571Y-68809523D01*
X167976190Y-68904761D01*
X167976190Y-69285714D01*
X168452380Y-67809523D02*
X168452380Y-68285714D01*
X167452380Y-68285714D01*
X167500000Y-65261904D02*
X167452380Y-65357142D01*
X167452380Y-65500000D01*
X167500000Y-65642857D01*
X167595238Y-65738095D01*
X167690476Y-65785714D01*
X167880952Y-65833333D01*
X168023809Y-65833333D01*
X168214285Y-65785714D01*
X168309523Y-65738095D01*
X168404761Y-65642857D01*
X168452380Y-65500000D01*
X168452380Y-65404761D01*
X168404761Y-65261904D01*
X168357142Y-65214285D01*
X168023809Y-65214285D01*
X168023809Y-65404761D01*
X168452380Y-64785714D02*
X167452380Y-64785714D01*
X168452380Y-64214285D01*
X167452380Y-64214285D01*
X168452380Y-63738095D02*
X167452380Y-63738095D01*
X167452380Y-63500000D01*
X167500000Y-63357142D01*
X167595238Y-63261904D01*
X167690476Y-63214285D01*
X167880952Y-63166666D01*
X168023809Y-63166666D01*
X168214285Y-63214285D01*
X168309523Y-63261904D01*
X168404761Y-63357142D01*
X168452380Y-63500000D01*
X168452380Y-63738095D01*
X167452380Y-60976190D02*
X167452380Y-60357142D01*
X167833333Y-60690476D01*
X167833333Y-60547619D01*
X167880952Y-60452380D01*
X167928571Y-60404761D01*
X168023809Y-60357142D01*
X168261904Y-60357142D01*
X168357142Y-60404761D01*
X168404761Y-60452380D01*
X168452380Y-60547619D01*
X168452380Y-60833333D01*
X168404761Y-60928571D01*
X168357142Y-60976190D01*
X168357142Y-59928571D02*
X168404761Y-59880952D01*
X168452380Y-59928571D01*
X168404761Y-59976190D01*
X168357142Y-59928571D01*
X168452380Y-59928571D01*
X167452380Y-59547619D02*
X167452380Y-58928571D01*
X167833333Y-59261904D01*
X167833333Y-59119047D01*
X167880952Y-59023809D01*
X167928571Y-58976190D01*
X168023809Y-58928571D01*
X168261904Y-58928571D01*
X168357142Y-58976190D01*
X168404761Y-59023809D01*
X168452380Y-59119047D01*
X168452380Y-59404761D01*
X168404761Y-59500000D01*
X168357142Y-59547619D01*
X167452380Y-58642857D02*
X168452380Y-58309523D01*
X167452380Y-57976190D01*
D13*
G36*
X147164043Y-65085835D02*
X147187065Y-65123245D01*
X147222534Y-65182514D01*
X147268996Y-65261118D01*
X147324996Y-65356538D01*
X147389081Y-65466250D01*
X147459796Y-65587734D01*
X147535687Y-65718468D01*
X147615299Y-65855930D01*
X147697178Y-65997598D01*
X147779870Y-66140951D01*
X147861921Y-66283467D01*
X147941876Y-66422624D01*
X148018281Y-66555901D01*
X148089682Y-66680776D01*
X148154624Y-66794727D01*
X148211653Y-66895233D01*
X148259315Y-66979772D01*
X148296155Y-67045822D01*
X148320720Y-67090862D01*
X148331554Y-67112370D01*
X148331951Y-67113714D01*
X148318501Y-67131965D01*
X148281114Y-67159882D01*
X148224235Y-67194725D01*
X148152312Y-67233754D01*
X148077015Y-67270843D01*
X147974560Y-67315817D01*
X147866817Y-67356226D01*
X147750073Y-67392969D01*
X147620618Y-67426942D01*
X147474740Y-67459044D01*
X147308726Y-67490173D01*
X147118866Y-67521227D01*
X146922469Y-67550145D01*
X146751834Y-67575800D01*
X146608545Y-67601198D01*
X146489008Y-67627602D01*
X146389630Y-67656273D01*
X146306818Y-67688473D01*
X146236978Y-67725465D01*
X146176518Y-67768512D01*
X146121845Y-67818875D01*
X146104214Y-67837583D01*
X146066000Y-67881139D01*
X146037732Y-67916682D01*
X146024618Y-67937583D01*
X146024268Y-67939297D01*
X146019680Y-67949806D01*
X146003758Y-67949924D01*
X145973266Y-67938254D01*
X145924968Y-67913396D01*
X145855627Y-67873952D01*
X145807439Y-67845587D01*
X145735583Y-67801247D01*
X145679742Y-67763279D01*
X145643667Y-67734416D01*
X145631113Y-67717388D01*
X145631121Y-67717264D01*
X145638906Y-67701037D01*
X145660892Y-67660400D01*
X145695803Y-67597567D01*
X145742363Y-67514752D01*
X145799295Y-67414172D01*
X145865323Y-67298040D01*
X145939172Y-67168571D01*
X146019564Y-67027980D01*
X146105224Y-66878482D01*
X146194876Y-66722292D01*
X146287243Y-66561624D01*
X146381049Y-66398693D01*
X146475018Y-66235713D01*
X146567874Y-66074900D01*
X146658340Y-65918468D01*
X146745141Y-65768633D01*
X146827000Y-65627608D01*
X146902641Y-65497609D01*
X146970787Y-65380849D01*
X147030163Y-65279545D01*
X147079493Y-65195911D01*
X147117500Y-65132162D01*
X147142907Y-65090511D01*
X147154440Y-65073175D01*
X147154923Y-65072805D01*
X147164043Y-65085835D01*
X147164043Y-65085835D01*
G37*
X147164043Y-65085835D02*
X147187065Y-65123245D01*
X147222534Y-65182514D01*
X147268996Y-65261118D01*
X147324996Y-65356538D01*
X147389081Y-65466250D01*
X147459796Y-65587734D01*
X147535687Y-65718468D01*
X147615299Y-65855930D01*
X147697178Y-65997598D01*
X147779870Y-66140951D01*
X147861921Y-66283467D01*
X147941876Y-66422624D01*
X148018281Y-66555901D01*
X148089682Y-66680776D01*
X148154624Y-66794727D01*
X148211653Y-66895233D01*
X148259315Y-66979772D01*
X148296155Y-67045822D01*
X148320720Y-67090862D01*
X148331554Y-67112370D01*
X148331951Y-67113714D01*
X148318501Y-67131965D01*
X148281114Y-67159882D01*
X148224235Y-67194725D01*
X148152312Y-67233754D01*
X148077015Y-67270843D01*
X147974560Y-67315817D01*
X147866817Y-67356226D01*
X147750073Y-67392969D01*
X147620618Y-67426942D01*
X147474740Y-67459044D01*
X147308726Y-67490173D01*
X147118866Y-67521227D01*
X146922469Y-67550145D01*
X146751834Y-67575800D01*
X146608545Y-67601198D01*
X146489008Y-67627602D01*
X146389630Y-67656273D01*
X146306818Y-67688473D01*
X146236978Y-67725465D01*
X146176518Y-67768512D01*
X146121845Y-67818875D01*
X146104214Y-67837583D01*
X146066000Y-67881139D01*
X146037732Y-67916682D01*
X146024618Y-67937583D01*
X146024268Y-67939297D01*
X146019680Y-67949806D01*
X146003758Y-67949924D01*
X145973266Y-67938254D01*
X145924968Y-67913396D01*
X145855627Y-67873952D01*
X145807439Y-67845587D01*
X145735583Y-67801247D01*
X145679742Y-67763279D01*
X145643667Y-67734416D01*
X145631113Y-67717388D01*
X145631121Y-67717264D01*
X145638906Y-67701037D01*
X145660892Y-67660400D01*
X145695803Y-67597567D01*
X145742363Y-67514752D01*
X145799295Y-67414172D01*
X145865323Y-67298040D01*
X145939172Y-67168571D01*
X146019564Y-67027980D01*
X146105224Y-66878482D01*
X146194876Y-66722292D01*
X146287243Y-66561624D01*
X146381049Y-66398693D01*
X146475018Y-66235713D01*
X146567874Y-66074900D01*
X146658340Y-65918468D01*
X146745141Y-65768633D01*
X146827000Y-65627608D01*
X146902641Y-65497609D01*
X146970787Y-65380849D01*
X147030163Y-65279545D01*
X147079493Y-65195911D01*
X147117500Y-65132162D01*
X147142907Y-65090511D01*
X147154440Y-65073175D01*
X147154923Y-65072805D01*
X147164043Y-65085835D01*
G36*
X148987528Y-68234619D02*
X148998908Y-68253693D01*
X149024488Y-68297421D01*
X149063002Y-68363619D01*
X149113186Y-68450102D01*
X149173775Y-68554685D01*
X149243503Y-68675183D01*
X149321107Y-68809412D01*
X149405320Y-68955187D01*
X149494879Y-69110323D01*
X149586998Y-69270000D01*
X149681076Y-69433117D01*
X149771402Y-69589709D01*
X149856665Y-69737506D01*
X149935557Y-69874240D01*
X150006769Y-69997642D01*
X150068991Y-70105444D01*
X150120913Y-70195377D01*
X150161228Y-70265173D01*
X150188624Y-70312564D01*
X150201507Y-70334786D01*
X150222507Y-70372330D01*
X150233925Y-70395831D01*
X150234551Y-70399920D01*
X150220636Y-70392242D01*
X150181941Y-70370203D01*
X150120487Y-70334971D01*
X150038298Y-70287711D01*
X149937396Y-70229589D01*
X149819805Y-70161771D01*
X149687546Y-70085424D01*
X149542642Y-70001714D01*
X149387117Y-69911806D01*
X149222992Y-69816867D01*
X149160549Y-69780732D01*
X148993487Y-69684083D01*
X148834074Y-69591938D01*
X148684355Y-69505475D01*
X148546376Y-69425871D01*
X148422185Y-69354305D01*
X148313827Y-69291955D01*
X148223348Y-69239998D01*
X148152796Y-69199613D01*
X148104215Y-69171978D01*
X148079654Y-69158272D01*
X148077085Y-69156974D01*
X148084569Y-69145220D01*
X148110614Y-69113795D01*
X148152559Y-69065594D01*
X148207746Y-69003510D01*
X148273517Y-68930439D01*
X148347212Y-68849276D01*
X148426173Y-68762916D01*
X148507740Y-68674253D01*
X148589254Y-68586182D01*
X148668057Y-68501599D01*
X148741490Y-68423397D01*
X148806893Y-68354472D01*
X148861608Y-68297719D01*
X148902977Y-68256032D01*
X148917164Y-68242363D01*
X148964180Y-68198201D01*
X148987528Y-68234619D01*
X148987528Y-68234619D01*
G37*
X148987528Y-68234619D02*
X148998908Y-68253693D01*
X149024488Y-68297421D01*
X149063002Y-68363619D01*
X149113186Y-68450102D01*
X149173775Y-68554685D01*
X149243503Y-68675183D01*
X149321107Y-68809412D01*
X149405320Y-68955187D01*
X149494879Y-69110323D01*
X149586998Y-69270000D01*
X149681076Y-69433117D01*
X149771402Y-69589709D01*
X149856665Y-69737506D01*
X149935557Y-69874240D01*
X150006769Y-69997642D01*
X150068991Y-70105444D01*
X150120913Y-70195377D01*
X150161228Y-70265173D01*
X150188624Y-70312564D01*
X150201507Y-70334786D01*
X150222507Y-70372330D01*
X150233925Y-70395831D01*
X150234551Y-70399920D01*
X150220636Y-70392242D01*
X150181941Y-70370203D01*
X150120487Y-70334971D01*
X150038298Y-70287711D01*
X149937396Y-70229589D01*
X149819805Y-70161771D01*
X149687546Y-70085424D01*
X149542642Y-70001714D01*
X149387117Y-69911806D01*
X149222992Y-69816867D01*
X149160549Y-69780732D01*
X148993487Y-69684083D01*
X148834074Y-69591938D01*
X148684355Y-69505475D01*
X148546376Y-69425871D01*
X148422185Y-69354305D01*
X148313827Y-69291955D01*
X148223348Y-69239998D01*
X148152796Y-69199613D01*
X148104215Y-69171978D01*
X148079654Y-69158272D01*
X148077085Y-69156974D01*
X148084569Y-69145220D01*
X148110614Y-69113795D01*
X148152559Y-69065594D01*
X148207746Y-69003510D01*
X148273517Y-68930439D01*
X148347212Y-68849276D01*
X148426173Y-68762916D01*
X148507740Y-68674253D01*
X148589254Y-68586182D01*
X148668057Y-68501599D01*
X148741490Y-68423397D01*
X148806893Y-68354472D01*
X148861608Y-68297719D01*
X148902977Y-68256032D01*
X148917164Y-68242363D01*
X148964180Y-68198201D01*
X148987528Y-68234619D01*
G36*
X145322094Y-68291158D02*
X145354619Y-68303736D01*
X145404193Y-68328712D01*
X145475374Y-68367876D01*
X145480916Y-68370988D01*
X145546474Y-68408476D01*
X145601798Y-68441319D01*
X145641455Y-68466205D01*
X145660012Y-68479820D01*
X145660531Y-68480487D01*
X145656048Y-68499390D01*
X145635486Y-68541605D01*
X145600183Y-68604832D01*
X145551480Y-68686772D01*
X145490718Y-68785122D01*
X145419236Y-68897585D01*
X145401445Y-68925165D01*
X145355093Y-69001699D01*
X145321342Y-69067556D01*
X145303153Y-69116782D01*
X145301286Y-69126507D01*
X145302115Y-69169312D01*
X145311394Y-69237209D01*
X145327968Y-69325843D01*
X145350680Y-69430859D01*
X145378373Y-69547902D01*
X145409890Y-69672616D01*
X145444075Y-69800645D01*
X145479771Y-69927634D01*
X145515821Y-70049228D01*
X145551068Y-70161072D01*
X145584356Y-70258810D01*
X145614528Y-70338087D01*
X145635561Y-70385122D01*
X145660337Y-70435225D01*
X145683730Y-70483168D01*
X145684997Y-70485793D01*
X145723699Y-70534220D01*
X145780184Y-70566828D01*
X145845939Y-70582454D01*
X145912451Y-70579937D01*
X145971205Y-70558114D01*
X146004258Y-70529382D01*
X146051859Y-70450583D01*
X146086739Y-70352378D01*
X146105877Y-70244779D01*
X146108588Y-70183780D01*
X146097670Y-70069935D01*
X146065624Y-69975660D01*
X146010726Y-69896379D01*
X145993607Y-69878733D01*
X145942661Y-69829235D01*
X145939163Y-69479362D01*
X145935664Y-69129489D01*
X146024818Y-68994531D01*
X146066654Y-68933445D01*
X146106945Y-68878493D01*
X146139943Y-68837336D01*
X146154126Y-68822192D01*
X146194281Y-68784810D01*
X146248665Y-68814098D01*
X146283039Y-68835084D01*
X146301846Y-68851378D01*
X146303049Y-68854307D01*
X146315903Y-68866728D01*
X146337896Y-68875977D01*
X146359150Y-68884313D01*
X146391694Y-68900149D01*
X146438322Y-68925033D01*
X146501829Y-68960509D01*
X146585008Y-69008123D01*
X146690653Y-69069422D01*
X146748062Y-69102932D01*
X146815594Y-69143071D01*
X146859885Y-69171659D01*
X146884855Y-69192039D01*
X146894423Y-69207553D01*
X146892508Y-69221546D01*
X146890911Y-69224796D01*
X146875376Y-69245266D01*
X146842136Y-69283665D01*
X146795062Y-69335696D01*
X146738028Y-69397066D01*
X146688700Y-69449090D01*
X146575030Y-69572567D01*
X146486105Y-69679591D01*
X146421134Y-69771240D01*
X146379321Y-69848588D01*
X146365217Y-69887866D01*
X146359392Y-69922249D01*
X146353375Y-69980899D01*
X146347696Y-70057117D01*
X146342884Y-70144202D01*
X146340619Y-70199268D01*
X146337459Y-70294464D01*
X146336069Y-70364062D01*
X146336858Y-70413409D01*
X146340235Y-70447854D01*
X146346608Y-70472743D01*
X146356387Y-70493425D01*
X146364067Y-70506053D01*
X146408421Y-70554726D01*
X146465574Y-70588645D01*
X146525708Y-70603438D01*
X146570773Y-70598086D01*
X146611576Y-70574930D01*
X146662724Y-70533462D01*
X146717042Y-70480912D01*
X146767357Y-70424516D01*
X146806494Y-70371505D01*
X146820905Y-70345889D01*
X146842491Y-70310814D01*
X146881753Y-70257389D01*
X146935102Y-70189789D01*
X146998952Y-70112190D01*
X147069715Y-70028768D01*
X147143804Y-69943698D01*
X147217632Y-69861155D01*
X147287611Y-69785316D01*
X147350155Y-69720356D01*
X147399260Y-69672669D01*
X147453779Y-69625032D01*
X147499642Y-69589908D01*
X147531811Y-69570949D01*
X147542489Y-69568864D01*
X147558853Y-69577274D01*
X147599671Y-69599846D01*
X147662586Y-69635224D01*
X147745244Y-69682054D01*
X147845289Y-69738981D01*
X147960366Y-69804649D01*
X148088119Y-69877703D01*
X148226194Y-69956788D01*
X148372234Y-70040548D01*
X148523884Y-70127629D01*
X148678790Y-70216676D01*
X148834595Y-70306332D01*
X148988944Y-70395243D01*
X149139482Y-70482054D01*
X149283854Y-70565409D01*
X149419704Y-70643954D01*
X149544677Y-70716333D01*
X149656417Y-70781190D01*
X149752570Y-70837171D01*
X149830779Y-70882920D01*
X149888689Y-70917083D01*
X149923946Y-70938304D01*
X149934165Y-70944963D01*
X149920402Y-70946280D01*
X149877104Y-70947559D01*
X149805714Y-70948796D01*
X149707673Y-70949983D01*
X149584422Y-70951115D01*
X149437403Y-70952186D01*
X149268057Y-70953189D01*
X149077826Y-70954119D01*
X148868151Y-70954968D01*
X148640473Y-70955732D01*
X148396235Y-70956403D01*
X148136877Y-70956976D01*
X147863841Y-70957444D01*
X147578568Y-70957802D01*
X147282500Y-70958042D01*
X146977079Y-70958159D01*
X146848924Y-70958171D01*
X143748970Y-70958171D01*
X143970053Y-70574847D01*
X144016856Y-70493680D01*
X144077102Y-70389166D01*
X144148778Y-70264801D01*
X144229869Y-70124082D01*
X144318362Y-69970503D01*
X144412240Y-69807562D01*
X144509491Y-69638754D01*
X144608100Y-69467575D01*
X144706053Y-69297521D01*
X144730825Y-69254512D01*
X144821152Y-69097857D01*
X144907289Y-68948803D01*
X144987942Y-68809568D01*
X145061816Y-68682371D01*
X145127617Y-68569432D01*
X145184050Y-68472968D01*
X145229821Y-68395200D01*
X145263635Y-68338346D01*
X145284198Y-68304625D01*
X145289953Y-68296040D01*
X145302058Y-68289189D01*
X145322094Y-68291158D01*
X145322094Y-68291158D01*
G37*
X145322094Y-68291158D02*
X145354619Y-68303736D01*
X145404193Y-68328712D01*
X145475374Y-68367876D01*
X145480916Y-68370988D01*
X145546474Y-68408476D01*
X145601798Y-68441319D01*
X145641455Y-68466205D01*
X145660012Y-68479820D01*
X145660531Y-68480487D01*
X145656048Y-68499390D01*
X145635486Y-68541605D01*
X145600183Y-68604832D01*
X145551480Y-68686772D01*
X145490718Y-68785122D01*
X145419236Y-68897585D01*
X145401445Y-68925165D01*
X145355093Y-69001699D01*
X145321342Y-69067556D01*
X145303153Y-69116782D01*
X145301286Y-69126507D01*
X145302115Y-69169312D01*
X145311394Y-69237209D01*
X145327968Y-69325843D01*
X145350680Y-69430859D01*
X145378373Y-69547902D01*
X145409890Y-69672616D01*
X145444075Y-69800645D01*
X145479771Y-69927634D01*
X145515821Y-70049228D01*
X145551068Y-70161072D01*
X145584356Y-70258810D01*
X145614528Y-70338087D01*
X145635561Y-70385122D01*
X145660337Y-70435225D01*
X145683730Y-70483168D01*
X145684997Y-70485793D01*
X145723699Y-70534220D01*
X145780184Y-70566828D01*
X145845939Y-70582454D01*
X145912451Y-70579937D01*
X145971205Y-70558114D01*
X146004258Y-70529382D01*
X146051859Y-70450583D01*
X146086739Y-70352378D01*
X146105877Y-70244779D01*
X146108588Y-70183780D01*
X146097670Y-70069935D01*
X146065624Y-69975660D01*
X146010726Y-69896379D01*
X145993607Y-69878733D01*
X145942661Y-69829235D01*
X145939163Y-69479362D01*
X145935664Y-69129489D01*
X146024818Y-68994531D01*
X146066654Y-68933445D01*
X146106945Y-68878493D01*
X146139943Y-68837336D01*
X146154126Y-68822192D01*
X146194281Y-68784810D01*
X146248665Y-68814098D01*
X146283039Y-68835084D01*
X146301846Y-68851378D01*
X146303049Y-68854307D01*
X146315903Y-68866728D01*
X146337896Y-68875977D01*
X146359150Y-68884313D01*
X146391694Y-68900149D01*
X146438322Y-68925033D01*
X146501829Y-68960509D01*
X146585008Y-69008123D01*
X146690653Y-69069422D01*
X146748062Y-69102932D01*
X146815594Y-69143071D01*
X146859885Y-69171659D01*
X146884855Y-69192039D01*
X146894423Y-69207553D01*
X146892508Y-69221546D01*
X146890911Y-69224796D01*
X146875376Y-69245266D01*
X146842136Y-69283665D01*
X146795062Y-69335696D01*
X146738028Y-69397066D01*
X146688700Y-69449090D01*
X146575030Y-69572567D01*
X146486105Y-69679591D01*
X146421134Y-69771240D01*
X146379321Y-69848588D01*
X146365217Y-69887866D01*
X146359392Y-69922249D01*
X146353375Y-69980899D01*
X146347696Y-70057117D01*
X146342884Y-70144202D01*
X146340619Y-70199268D01*
X146337459Y-70294464D01*
X146336069Y-70364062D01*
X146336858Y-70413409D01*
X146340235Y-70447854D01*
X146346608Y-70472743D01*
X146356387Y-70493425D01*
X146364067Y-70506053D01*
X146408421Y-70554726D01*
X146465574Y-70588645D01*
X146525708Y-70603438D01*
X146570773Y-70598086D01*
X146611576Y-70574930D01*
X146662724Y-70533462D01*
X146717042Y-70480912D01*
X146767357Y-70424516D01*
X146806494Y-70371505D01*
X146820905Y-70345889D01*
X146842491Y-70310814D01*
X146881753Y-70257389D01*
X146935102Y-70189789D01*
X146998952Y-70112190D01*
X147069715Y-70028768D01*
X147143804Y-69943698D01*
X147217632Y-69861155D01*
X147287611Y-69785316D01*
X147350155Y-69720356D01*
X147399260Y-69672669D01*
X147453779Y-69625032D01*
X147499642Y-69589908D01*
X147531811Y-69570949D01*
X147542489Y-69568864D01*
X147558853Y-69577274D01*
X147599671Y-69599846D01*
X147662586Y-69635224D01*
X147745244Y-69682054D01*
X147845289Y-69738981D01*
X147960366Y-69804649D01*
X148088119Y-69877703D01*
X148226194Y-69956788D01*
X148372234Y-70040548D01*
X148523884Y-70127629D01*
X148678790Y-70216676D01*
X148834595Y-70306332D01*
X148988944Y-70395243D01*
X149139482Y-70482054D01*
X149283854Y-70565409D01*
X149419704Y-70643954D01*
X149544677Y-70716333D01*
X149656417Y-70781190D01*
X149752570Y-70837171D01*
X149830779Y-70882920D01*
X149888689Y-70917083D01*
X149923946Y-70938304D01*
X149934165Y-70944963D01*
X149920402Y-70946280D01*
X149877104Y-70947559D01*
X149805714Y-70948796D01*
X149707673Y-70949983D01*
X149584422Y-70951115D01*
X149437403Y-70952186D01*
X149268057Y-70953189D01*
X149077826Y-70954119D01*
X148868151Y-70954968D01*
X148640473Y-70955732D01*
X148396235Y-70956403D01*
X148136877Y-70956976D01*
X147863841Y-70957444D01*
X147578568Y-70957802D01*
X147282500Y-70958042D01*
X146977079Y-70958159D01*
X146848924Y-70958171D01*
X143748970Y-70958171D01*
X143970053Y-70574847D01*
X144016856Y-70493680D01*
X144077102Y-70389166D01*
X144148778Y-70264801D01*
X144229869Y-70124082D01*
X144318362Y-69970503D01*
X144412240Y-69807562D01*
X144509491Y-69638754D01*
X144608100Y-69467575D01*
X144706053Y-69297521D01*
X144730825Y-69254512D01*
X144821152Y-69097857D01*
X144907289Y-68948803D01*
X144987942Y-68809568D01*
X145061816Y-68682371D01*
X145127617Y-68569432D01*
X145184050Y-68472968D01*
X145229821Y-68395200D01*
X145263635Y-68338346D01*
X145284198Y-68304625D01*
X145289953Y-68296040D01*
X145302058Y-68289189D01*
X145322094Y-68291158D01*
G36*
X154624430Y-96564848D02*
X154623811Y-96651931D01*
X154172086Y-97110891D01*
X153720361Y-97569852D01*
X153720032Y-97780471D01*
X153719703Y-97991089D01*
X153444610Y-97991089D01*
X153437522Y-98044530D01*
X153434838Y-98068888D01*
X153430313Y-98114759D01*
X153424191Y-98179405D01*
X153416712Y-98260091D01*
X153408119Y-98354081D01*
X153398654Y-98458637D01*
X153388558Y-98571025D01*
X153378074Y-98688507D01*
X153367444Y-98808348D01*
X153356909Y-98927811D01*
X153346713Y-99044159D01*
X153337095Y-99154657D01*
X153328300Y-99256569D01*
X153320568Y-99347158D01*
X153314142Y-99423687D01*
X153309263Y-99483421D01*
X153306175Y-99523624D01*
X153305117Y-99541559D01*
X153305118Y-99541644D01*
X153312827Y-99556035D01*
X153335981Y-99585748D01*
X153374895Y-99631131D01*
X153429884Y-99692529D01*
X153501264Y-99770288D01*
X153589349Y-99864754D01*
X153694454Y-99976272D01*
X153816895Y-100105188D01*
X153851310Y-100141287D01*
X154397137Y-100713416D01*
X154308881Y-100801436D01*
X154237485Y-100723758D01*
X154211366Y-100695686D01*
X154170566Y-100652274D01*
X154117777Y-100596366D01*
X154055691Y-100530808D01*
X153987000Y-100458441D01*
X153914396Y-100382112D01*
X153870960Y-100336524D01*
X153789416Y-100251119D01*
X153723504Y-100182710D01*
X153671544Y-100130053D01*
X153631855Y-100091905D01*
X153602757Y-100067020D01*
X153582569Y-100054156D01*
X153569610Y-100052068D01*
X153562200Y-100059513D01*
X153558658Y-100075246D01*
X153557303Y-100098023D01*
X153557121Y-100104239D01*
X153547703Y-100147061D01*
X153524497Y-100198819D01*
X153492136Y-100251328D01*
X153455252Y-100296403D01*
X153440493Y-100310328D01*
X153364767Y-100359047D01*
X153276308Y-100386306D01*
X153198100Y-100392773D01*
X153109468Y-100380576D01*
X153027612Y-100344813D01*
X152955164Y-100286722D01*
X152941797Y-100272262D01*
X152892918Y-100216733D01*
X152047326Y-100216733D01*
X152047326Y-100392773D01*
X151820990Y-100392773D01*
X151820990Y-100310531D01*
X151818150Y-100254386D01*
X151808607Y-100215416D01*
X151797009Y-100194219D01*
X151788723Y-100179052D01*
X151781627Y-100157062D01*
X151775252Y-100124987D01*
X151769128Y-100079569D01*
X151762784Y-100017548D01*
X151755750Y-99935662D01*
X151750934Y-99874746D01*
X151728839Y-99589343D01*
X151186435Y-100138805D01*
X151088363Y-100238228D01*
X150994216Y-100333815D01*
X150905715Y-100423810D01*
X150824580Y-100506457D01*
X150752531Y-100580001D01*
X150691288Y-100642684D01*
X150642573Y-100692752D01*
X150608104Y-100728448D01*
X150589621Y-100747995D01*
X150559257Y-100778944D01*
X150533929Y-100800530D01*
X150520305Y-100807723D01*
X150502905Y-100799297D01*
X150477540Y-100778245D01*
X150468942Y-100769671D01*
X150432486Y-100731620D01*
X150633198Y-100527658D01*
X150684404Y-100475699D01*
X150750431Y-100408820D01*
X150828382Y-100329950D01*
X150915362Y-100242014D01*
X151008474Y-100147941D01*
X151104821Y-100050658D01*
X151201508Y-99953093D01*
X151270866Y-99883145D01*
X151376297Y-99776550D01*
X151464871Y-99686307D01*
X151537719Y-99611192D01*
X151595977Y-99549986D01*
X151640775Y-99501466D01*
X151662979Y-99476129D01*
X151841276Y-99476129D01*
X151863599Y-99761555D01*
X151870331Y-99845219D01*
X151876843Y-99921727D01*
X151882766Y-99987081D01*
X151887732Y-100037281D01*
X151891371Y-100068329D01*
X151892542Y-100075273D01*
X151899162Y-100103565D01*
X152848636Y-100103565D01*
X152854974Y-100024606D01*
X152874110Y-99931315D01*
X152914154Y-99848791D01*
X152972582Y-99780038D01*
X153046871Y-99728063D01*
X153130252Y-99696863D01*
X153157302Y-99682228D01*
X153170844Y-99650819D01*
X153171128Y-99649434D01*
X153172753Y-99636174D01*
X153170744Y-99622595D01*
X153163142Y-99606181D01*
X153147984Y-99584411D01*
X153123312Y-99554767D01*
X153087164Y-99514732D01*
X153037580Y-99461785D01*
X152972599Y-99393409D01*
X152968401Y-99389005D01*
X152898507Y-99315611D01*
X152824200Y-99237437D01*
X152750586Y-99159864D01*
X152682771Y-99088275D01*
X152625860Y-99028051D01*
X152613168Y-99014587D01*
X152564513Y-98963820D01*
X152521291Y-98920375D01*
X152486605Y-98887241D01*
X152463556Y-98867405D01*
X152455818Y-98863046D01*
X152444278Y-98872170D01*
X152417290Y-98897200D01*
X152376979Y-98936052D01*
X152325471Y-98986643D01*
X152264891Y-99046888D01*
X152197364Y-99114704D01*
X152142174Y-99170565D01*
X151841276Y-99476129D01*
X151662979Y-99476129D01*
X151673249Y-99464411D01*
X151694529Y-99437599D01*
X151705749Y-99419808D01*
X151708246Y-99411570D01*
X151707300Y-99393590D01*
X151704427Y-99352892D01*
X151699813Y-99291819D01*
X151693642Y-99212713D01*
X151686102Y-99117914D01*
X151677379Y-99009767D01*
X151667657Y-98890612D01*
X151657124Y-98762791D01*
X151648635Y-98660635D01*
X151600604Y-98084674D01*
X151724195Y-98084674D01*
X151724727Y-98097104D01*
X151727231Y-98132110D01*
X151731504Y-98187215D01*
X151737347Y-98259943D01*
X151744557Y-98347814D01*
X151752934Y-98448351D01*
X151762277Y-98559077D01*
X151771242Y-98664205D01*
X151781398Y-98783483D01*
X151790858Y-98896080D01*
X151799404Y-98999305D01*
X151806821Y-99090473D01*
X151812892Y-99166895D01*
X151817399Y-99225883D01*
X151820127Y-99264749D01*
X151820884Y-99279844D01*
X151822065Y-99289238D01*
X151826744Y-99292966D01*
X151836724Y-99289471D01*
X151853810Y-99277199D01*
X151879804Y-99254594D01*
X151916510Y-99220100D01*
X151965733Y-99172162D01*
X152029274Y-99109224D01*
X152096695Y-99041968D01*
X152372399Y-98766477D01*
X152370467Y-98764406D01*
X152552710Y-98764406D01*
X152561016Y-98775780D01*
X152584267Y-98802563D01*
X152620135Y-98842292D01*
X152666287Y-98892507D01*
X152720394Y-98950746D01*
X152780126Y-99014547D01*
X152843152Y-99081449D01*
X152907142Y-99148990D01*
X152969764Y-99214710D01*
X153028690Y-99276146D01*
X153081588Y-99330837D01*
X153126128Y-99376322D01*
X153159980Y-99410138D01*
X153180812Y-99429826D01*
X153186494Y-99433837D01*
X153188366Y-99420891D01*
X153192254Y-99385134D01*
X153197943Y-99328804D01*
X153205219Y-99254140D01*
X153213869Y-99163380D01*
X153223678Y-99058762D01*
X153234434Y-98942526D01*
X153245921Y-98816908D01*
X153255093Y-98715618D01*
X153266826Y-98584279D01*
X153277665Y-98460552D01*
X153287430Y-98346681D01*
X153295937Y-98244911D01*
X153303005Y-98157487D01*
X153308451Y-98086653D01*
X153312092Y-98034653D01*
X153313747Y-98003732D01*
X153313558Y-97995703D01*
X153303666Y-98002854D01*
X153278476Y-98025841D01*
X153240190Y-98062439D01*
X153191011Y-98110422D01*
X153133139Y-98167566D01*
X153068778Y-98231647D01*
X153000129Y-98300438D01*
X152929395Y-98371716D01*
X152858778Y-98443255D01*
X152790480Y-98512830D01*
X152726704Y-98578217D01*
X152669650Y-98637191D01*
X152621522Y-98687527D01*
X152584522Y-98726999D01*
X152560852Y-98753383D01*
X152552710Y-98764406D01*
X152370467Y-98764406D01*
X152269591Y-98656295D01*
X152217232Y-98600377D01*
X152158465Y-98537948D01*
X152095615Y-98471443D01*
X152031005Y-98403298D01*
X151966958Y-98335948D01*
X151905797Y-98271828D01*
X151849847Y-98213372D01*
X151801430Y-98163018D01*
X151762870Y-98123198D01*
X151736491Y-98096350D01*
X151724616Y-98084908D01*
X151724195Y-98084674D01*
X151600604Y-98084674D01*
X151588599Y-97940726D01*
X150988062Y-97309158D01*
X150387525Y-96677589D01*
X150387966Y-96589315D01*
X150388408Y-96501040D01*
X150485417Y-96604666D01*
X150539709Y-96662463D01*
X150603808Y-96730368D01*
X150675984Y-96806572D01*
X150754508Y-96889269D01*
X150837651Y-96976653D01*
X150923681Y-97066915D01*
X151010870Y-97158250D01*
X151097487Y-97248849D01*
X151181803Y-97336907D01*
X151262088Y-97420615D01*
X151336613Y-97498167D01*
X151403646Y-97567757D01*
X151461459Y-97627576D01*
X151508321Y-97675818D01*
X151542504Y-97710676D01*
X151562276Y-97730343D01*
X151566610Y-97734116D01*
X151566908Y-97720992D01*
X151565269Y-97687389D01*
X151561977Y-97637880D01*
X151557318Y-97577037D01*
X151555318Y-97552732D01*
X151540423Y-97374951D01*
X151657045Y-97374951D01*
X151663066Y-97403243D01*
X151666137Y-97425618D01*
X151670452Y-97467717D01*
X151675512Y-97524178D01*
X151680819Y-97589635D01*
X151682656Y-97613862D01*
X151688073Y-97683421D01*
X151693541Y-97748018D01*
X151698512Y-97801548D01*
X151702439Y-97837910D01*
X151703325Y-97844509D01*
X151706666Y-97858056D01*
X151713899Y-97873914D01*
X151726560Y-97893861D01*
X151746189Y-97919673D01*
X151774322Y-97953129D01*
X151812498Y-97996007D01*
X151862254Y-98050083D01*
X151925129Y-98117136D01*
X152002659Y-98198943D01*
X152081749Y-98281950D01*
X152160436Y-98364094D01*
X152233888Y-98440169D01*
X152300276Y-98508325D01*
X152357773Y-98566712D01*
X152404549Y-98613481D01*
X152438776Y-98646782D01*
X152458627Y-98664767D01*
X152462860Y-98667442D01*
X152473997Y-98657741D01*
X152500029Y-98632441D01*
X152538430Y-98594082D01*
X152586672Y-98545200D01*
X152642230Y-98488334D01*
X152682408Y-98446906D01*
X152892169Y-98230000D01*
X152273663Y-98230000D01*
X152273663Y-97991089D01*
X153028119Y-97991089D01*
X153028119Y-98097542D01*
X153166435Y-97959654D01*
X153264553Y-97861840D01*
X153455643Y-97861840D01*
X153457471Y-97877270D01*
X153466723Y-97885867D01*
X153489050Y-97889613D01*
X153530105Y-97890489D01*
X153537376Y-97890495D01*
X153619109Y-97890495D01*
X153619109Y-97671172D01*
X153537376Y-97752179D01*
X153491270Y-97801428D01*
X153463694Y-97839159D01*
X153455643Y-97861840D01*
X153264553Y-97861840D01*
X153304752Y-97821766D01*
X153304752Y-97698952D01*
X153305137Y-97642450D01*
X153306900Y-97606505D01*
X153310950Y-97586530D01*
X153318199Y-97577937D01*
X153329130Y-97576139D01*
X153341288Y-97573498D01*
X153350273Y-97562912D01*
X153357174Y-97540381D01*
X153363076Y-97501909D01*
X153369065Y-97443498D01*
X153370987Y-97422104D01*
X153375148Y-97374951D01*
X151657045Y-97374951D01*
X151540423Y-97374951D01*
X151380891Y-97374951D01*
X151380891Y-97261782D01*
X151448686Y-97261782D01*
X151488338Y-97260696D01*
X151509884Y-97255454D01*
X151512520Y-97252334D01*
X151651384Y-97252334D01*
X151658692Y-97259462D01*
X151684007Y-97261662D01*
X151701092Y-97261782D01*
X151758119Y-97261782D01*
X151970779Y-97261782D01*
X153385302Y-97261782D01*
X153337458Y-97212786D01*
X153263150Y-97152324D01*
X153171184Y-97105691D01*
X153060002Y-97072249D01*
X152949529Y-97053753D01*
X152877227Y-97045122D01*
X152877227Y-97136040D01*
X152298812Y-97136040D01*
X152298812Y-97032893D01*
X152213935Y-97041496D01*
X152154632Y-97048756D01*
X152091449Y-97058379D01*
X152053614Y-97065252D01*
X151978168Y-97080407D01*
X151974474Y-97171095D01*
X151970779Y-97261782D01*
X151758119Y-97261782D01*
X151758119Y-97211485D01*
X151756456Y-97179976D01*
X151752303Y-97162463D01*
X151750629Y-97161188D01*
X151732013Y-97169254D01*
X151704817Y-97188820D01*
X151677552Y-97212944D01*
X151658733Y-97234682D01*
X151657057Y-97237508D01*
X151651384Y-97252334D01*
X151512520Y-97252334D01*
X151520338Y-97243081D01*
X151524558Y-97229604D01*
X151541781Y-97194627D01*
X151574862Y-97152579D01*
X151618107Y-97109356D01*
X151665826Y-97070854D01*
X151697170Y-97050801D01*
X151732877Y-97028851D01*
X151751181Y-97010411D01*
X151757612Y-96988668D01*
X151758106Y-96975718D01*
X151758106Y-96972575D01*
X152399406Y-96972575D01*
X152399406Y-97035446D01*
X152776633Y-97035446D01*
X152776633Y-96972575D01*
X152399406Y-96972575D01*
X151758106Y-96972575D01*
X151758119Y-96934852D01*
X151863952Y-96934852D01*
X151912645Y-96936029D01*
X151950595Y-96939165D01*
X151971692Y-96943671D01*
X151973977Y-96945495D01*
X151987359Y-96948295D01*
X152019926Y-96947148D01*
X152066084Y-96942393D01*
X152097624Y-96938003D01*
X152154812Y-96929378D01*
X152207114Y-96921591D01*
X152246418Y-96915847D01*
X152257945Y-96914215D01*
X152288063Y-96904888D01*
X152298812Y-96890272D01*
X152302080Y-96884320D01*
X152313770Y-96879778D01*
X152336712Y-96876470D01*
X152373735Y-96874215D01*
X152427668Y-96872834D01*
X152501340Y-96872150D01*
X152588020Y-96871980D01*
X152680529Y-96872077D01*
X152750906Y-96872530D01*
X152802164Y-96873590D01*
X152837320Y-96875503D01*
X152859389Y-96878519D01*
X152871385Y-96882885D01*
X152876324Y-96888849D01*
X152877227Y-96895784D01*
X152884921Y-96917795D01*
X152910121Y-96930321D01*
X152956009Y-96934788D01*
X152964264Y-96934852D01*
X153041973Y-96942868D01*
X153130233Y-96964936D01*
X153221085Y-96998084D01*
X153306570Y-97039339D01*
X153378726Y-97085731D01*
X153388072Y-97093082D01*
X153418533Y-97116998D01*
X153436572Y-97126576D01*
X153449169Y-97123480D01*
X153462100Y-97110704D01*
X153500293Y-97085678D01*
X153549998Y-97076071D01*
X153603524Y-97081067D01*
X153653178Y-97099851D01*
X153691267Y-97131606D01*
X153694025Y-97135297D01*
X153722526Y-97194575D01*
X153727828Y-97255934D01*
X153710518Y-97314427D01*
X153671180Y-97365104D01*
X153666370Y-97369289D01*
X153638440Y-97389167D01*
X153610102Y-97397921D01*
X153570263Y-97398553D01*
X153560311Y-97397992D01*
X153521332Y-97396562D01*
X153501254Y-97399839D01*
X153493985Y-97409728D01*
X153493240Y-97418961D01*
X153491716Y-97445744D01*
X153487935Y-97486025D01*
X153485218Y-97510124D01*
X153481277Y-97548401D01*
X153482916Y-97567996D01*
X153492421Y-97575158D01*
X153509351Y-97576139D01*
X153519392Y-97572901D01*
X153535590Y-97562420D01*
X153559145Y-97543548D01*
X153591257Y-97515135D01*
X153633128Y-97476035D01*
X153685957Y-97425097D01*
X153750945Y-97361173D01*
X153829291Y-97283114D01*
X153922197Y-97189772D01*
X154030863Y-97079998D01*
X154083231Y-97026952D01*
X154625049Y-96477767D01*
X154624430Y-96564848D01*
X154624430Y-96564848D01*
G37*
X154624430Y-96564848D02*
X154623811Y-96651931D01*
X154172086Y-97110891D01*
X153720361Y-97569852D01*
X153720032Y-97780471D01*
X153719703Y-97991089D01*
X153444610Y-97991089D01*
X153437522Y-98044530D01*
X153434838Y-98068888D01*
X153430313Y-98114759D01*
X153424191Y-98179405D01*
X153416712Y-98260091D01*
X153408119Y-98354081D01*
X153398654Y-98458637D01*
X153388558Y-98571025D01*
X153378074Y-98688507D01*
X153367444Y-98808348D01*
X153356909Y-98927811D01*
X153346713Y-99044159D01*
X153337095Y-99154657D01*
X153328300Y-99256569D01*
X153320568Y-99347158D01*
X153314142Y-99423687D01*
X153309263Y-99483421D01*
X153306175Y-99523624D01*
X153305117Y-99541559D01*
X153305118Y-99541644D01*
X153312827Y-99556035D01*
X153335981Y-99585748D01*
X153374895Y-99631131D01*
X153429884Y-99692529D01*
X153501264Y-99770288D01*
X153589349Y-99864754D01*
X153694454Y-99976272D01*
X153816895Y-100105188D01*
X153851310Y-100141287D01*
X154397137Y-100713416D01*
X154308881Y-100801436D01*
X154237485Y-100723758D01*
X154211366Y-100695686D01*
X154170566Y-100652274D01*
X154117777Y-100596366D01*
X154055691Y-100530808D01*
X153987000Y-100458441D01*
X153914396Y-100382112D01*
X153870960Y-100336524D01*
X153789416Y-100251119D01*
X153723504Y-100182710D01*
X153671544Y-100130053D01*
X153631855Y-100091905D01*
X153602757Y-100067020D01*
X153582569Y-100054156D01*
X153569610Y-100052068D01*
X153562200Y-100059513D01*
X153558658Y-100075246D01*
X153557303Y-100098023D01*
X153557121Y-100104239D01*
X153547703Y-100147061D01*
X153524497Y-100198819D01*
X153492136Y-100251328D01*
X153455252Y-100296403D01*
X153440493Y-100310328D01*
X153364767Y-100359047D01*
X153276308Y-100386306D01*
X153198100Y-100392773D01*
X153109468Y-100380576D01*
X153027612Y-100344813D01*
X152955164Y-100286722D01*
X152941797Y-100272262D01*
X152892918Y-100216733D01*
X152047326Y-100216733D01*
X152047326Y-100392773D01*
X151820990Y-100392773D01*
X151820990Y-100310531D01*
X151818150Y-100254386D01*
X151808607Y-100215416D01*
X151797009Y-100194219D01*
X151788723Y-100179052D01*
X151781627Y-100157062D01*
X151775252Y-100124987D01*
X151769128Y-100079569D01*
X151762784Y-100017548D01*
X151755750Y-99935662D01*
X151750934Y-99874746D01*
X151728839Y-99589343D01*
X151186435Y-100138805D01*
X151088363Y-100238228D01*
X150994216Y-100333815D01*
X150905715Y-100423810D01*
X150824580Y-100506457D01*
X150752531Y-100580001D01*
X150691288Y-100642684D01*
X150642573Y-100692752D01*
X150608104Y-100728448D01*
X150589621Y-100747995D01*
X150559257Y-100778944D01*
X150533929Y-100800530D01*
X150520305Y-100807723D01*
X150502905Y-100799297D01*
X150477540Y-100778245D01*
X150468942Y-100769671D01*
X150432486Y-100731620D01*
X150633198Y-100527658D01*
X150684404Y-100475699D01*
X150750431Y-100408820D01*
X150828382Y-100329950D01*
X150915362Y-100242014D01*
X151008474Y-100147941D01*
X151104821Y-100050658D01*
X151201508Y-99953093D01*
X151270866Y-99883145D01*
X151376297Y-99776550D01*
X151464871Y-99686307D01*
X151537719Y-99611192D01*
X151595977Y-99549986D01*
X151640775Y-99501466D01*
X151662979Y-99476129D01*
X151841276Y-99476129D01*
X151863599Y-99761555D01*
X151870331Y-99845219D01*
X151876843Y-99921727D01*
X151882766Y-99987081D01*
X151887732Y-100037281D01*
X151891371Y-100068329D01*
X151892542Y-100075273D01*
X151899162Y-100103565D01*
X152848636Y-100103565D01*
X152854974Y-100024606D01*
X152874110Y-99931315D01*
X152914154Y-99848791D01*
X152972582Y-99780038D01*
X153046871Y-99728063D01*
X153130252Y-99696863D01*
X153157302Y-99682228D01*
X153170844Y-99650819D01*
X153171128Y-99649434D01*
X153172753Y-99636174D01*
X153170744Y-99622595D01*
X153163142Y-99606181D01*
X153147984Y-99584411D01*
X153123312Y-99554767D01*
X153087164Y-99514732D01*
X153037580Y-99461785D01*
X152972599Y-99393409D01*
X152968401Y-99389005D01*
X152898507Y-99315611D01*
X152824200Y-99237437D01*
X152750586Y-99159864D01*
X152682771Y-99088275D01*
X152625860Y-99028051D01*
X152613168Y-99014587D01*
X152564513Y-98963820D01*
X152521291Y-98920375D01*
X152486605Y-98887241D01*
X152463556Y-98867405D01*
X152455818Y-98863046D01*
X152444278Y-98872170D01*
X152417290Y-98897200D01*
X152376979Y-98936052D01*
X152325471Y-98986643D01*
X152264891Y-99046888D01*
X152197364Y-99114704D01*
X152142174Y-99170565D01*
X151841276Y-99476129D01*
X151662979Y-99476129D01*
X151673249Y-99464411D01*
X151694529Y-99437599D01*
X151705749Y-99419808D01*
X151708246Y-99411570D01*
X151707300Y-99393590D01*
X151704427Y-99352892D01*
X151699813Y-99291819D01*
X151693642Y-99212713D01*
X151686102Y-99117914D01*
X151677379Y-99009767D01*
X151667657Y-98890612D01*
X151657124Y-98762791D01*
X151648635Y-98660635D01*
X151600604Y-98084674D01*
X151724195Y-98084674D01*
X151724727Y-98097104D01*
X151727231Y-98132110D01*
X151731504Y-98187215D01*
X151737347Y-98259943D01*
X151744557Y-98347814D01*
X151752934Y-98448351D01*
X151762277Y-98559077D01*
X151771242Y-98664205D01*
X151781398Y-98783483D01*
X151790858Y-98896080D01*
X151799404Y-98999305D01*
X151806821Y-99090473D01*
X151812892Y-99166895D01*
X151817399Y-99225883D01*
X151820127Y-99264749D01*
X151820884Y-99279844D01*
X151822065Y-99289238D01*
X151826744Y-99292966D01*
X151836724Y-99289471D01*
X151853810Y-99277199D01*
X151879804Y-99254594D01*
X151916510Y-99220100D01*
X151965733Y-99172162D01*
X152029274Y-99109224D01*
X152096695Y-99041968D01*
X152372399Y-98766477D01*
X152370467Y-98764406D01*
X152552710Y-98764406D01*
X152561016Y-98775780D01*
X152584267Y-98802563D01*
X152620135Y-98842292D01*
X152666287Y-98892507D01*
X152720394Y-98950746D01*
X152780126Y-99014547D01*
X152843152Y-99081449D01*
X152907142Y-99148990D01*
X152969764Y-99214710D01*
X153028690Y-99276146D01*
X153081588Y-99330837D01*
X153126128Y-99376322D01*
X153159980Y-99410138D01*
X153180812Y-99429826D01*
X153186494Y-99433837D01*
X153188366Y-99420891D01*
X153192254Y-99385134D01*
X153197943Y-99328804D01*
X153205219Y-99254140D01*
X153213869Y-99163380D01*
X153223678Y-99058762D01*
X153234434Y-98942526D01*
X153245921Y-98816908D01*
X153255093Y-98715618D01*
X153266826Y-98584279D01*
X153277665Y-98460552D01*
X153287430Y-98346681D01*
X153295937Y-98244911D01*
X153303005Y-98157487D01*
X153308451Y-98086653D01*
X153312092Y-98034653D01*
X153313747Y-98003732D01*
X153313558Y-97995703D01*
X153303666Y-98002854D01*
X153278476Y-98025841D01*
X153240190Y-98062439D01*
X153191011Y-98110422D01*
X153133139Y-98167566D01*
X153068778Y-98231647D01*
X153000129Y-98300438D01*
X152929395Y-98371716D01*
X152858778Y-98443255D01*
X152790480Y-98512830D01*
X152726704Y-98578217D01*
X152669650Y-98637191D01*
X152621522Y-98687527D01*
X152584522Y-98726999D01*
X152560852Y-98753383D01*
X152552710Y-98764406D01*
X152370467Y-98764406D01*
X152269591Y-98656295D01*
X152217232Y-98600377D01*
X152158465Y-98537948D01*
X152095615Y-98471443D01*
X152031005Y-98403298D01*
X151966958Y-98335948D01*
X151905797Y-98271828D01*
X151849847Y-98213372D01*
X151801430Y-98163018D01*
X151762870Y-98123198D01*
X151736491Y-98096350D01*
X151724616Y-98084908D01*
X151724195Y-98084674D01*
X151600604Y-98084674D01*
X151588599Y-97940726D01*
X150988062Y-97309158D01*
X150387525Y-96677589D01*
X150387966Y-96589315D01*
X150388408Y-96501040D01*
X150485417Y-96604666D01*
X150539709Y-96662463D01*
X150603808Y-96730368D01*
X150675984Y-96806572D01*
X150754508Y-96889269D01*
X150837651Y-96976653D01*
X150923681Y-97066915D01*
X151010870Y-97158250D01*
X151097487Y-97248849D01*
X151181803Y-97336907D01*
X151262088Y-97420615D01*
X151336613Y-97498167D01*
X151403646Y-97567757D01*
X151461459Y-97627576D01*
X151508321Y-97675818D01*
X151542504Y-97710676D01*
X151562276Y-97730343D01*
X151566610Y-97734116D01*
X151566908Y-97720992D01*
X151565269Y-97687389D01*
X151561977Y-97637880D01*
X151557318Y-97577037D01*
X151555318Y-97552732D01*
X151540423Y-97374951D01*
X151657045Y-97374951D01*
X151663066Y-97403243D01*
X151666137Y-97425618D01*
X151670452Y-97467717D01*
X151675512Y-97524178D01*
X151680819Y-97589635D01*
X151682656Y-97613862D01*
X151688073Y-97683421D01*
X151693541Y-97748018D01*
X151698512Y-97801548D01*
X151702439Y-97837910D01*
X151703325Y-97844509D01*
X151706666Y-97858056D01*
X151713899Y-97873914D01*
X151726560Y-97893861D01*
X151746189Y-97919673D01*
X151774322Y-97953129D01*
X151812498Y-97996007D01*
X151862254Y-98050083D01*
X151925129Y-98117136D01*
X152002659Y-98198943D01*
X152081749Y-98281950D01*
X152160436Y-98364094D01*
X152233888Y-98440169D01*
X152300276Y-98508325D01*
X152357773Y-98566712D01*
X152404549Y-98613481D01*
X152438776Y-98646782D01*
X152458627Y-98664767D01*
X152462860Y-98667442D01*
X152473997Y-98657741D01*
X152500029Y-98632441D01*
X152538430Y-98594082D01*
X152586672Y-98545200D01*
X152642230Y-98488334D01*
X152682408Y-98446906D01*
X152892169Y-98230000D01*
X152273663Y-98230000D01*
X152273663Y-97991089D01*
X153028119Y-97991089D01*
X153028119Y-98097542D01*
X153166435Y-97959654D01*
X153264553Y-97861840D01*
X153455643Y-97861840D01*
X153457471Y-97877270D01*
X153466723Y-97885867D01*
X153489050Y-97889613D01*
X153530105Y-97890489D01*
X153537376Y-97890495D01*
X153619109Y-97890495D01*
X153619109Y-97671172D01*
X153537376Y-97752179D01*
X153491270Y-97801428D01*
X153463694Y-97839159D01*
X153455643Y-97861840D01*
X153264553Y-97861840D01*
X153304752Y-97821766D01*
X153304752Y-97698952D01*
X153305137Y-97642450D01*
X153306900Y-97606505D01*
X153310950Y-97586530D01*
X153318199Y-97577937D01*
X153329130Y-97576139D01*
X153341288Y-97573498D01*
X153350273Y-97562912D01*
X153357174Y-97540381D01*
X153363076Y-97501909D01*
X153369065Y-97443498D01*
X153370987Y-97422104D01*
X153375148Y-97374951D01*
X151657045Y-97374951D01*
X151540423Y-97374951D01*
X151380891Y-97374951D01*
X151380891Y-97261782D01*
X151448686Y-97261782D01*
X151488338Y-97260696D01*
X151509884Y-97255454D01*
X151512520Y-97252334D01*
X151651384Y-97252334D01*
X151658692Y-97259462D01*
X151684007Y-97261662D01*
X151701092Y-97261782D01*
X151758119Y-97261782D01*
X151970779Y-97261782D01*
X153385302Y-97261782D01*
X153337458Y-97212786D01*
X153263150Y-97152324D01*
X153171184Y-97105691D01*
X153060002Y-97072249D01*
X152949529Y-97053753D01*
X152877227Y-97045122D01*
X152877227Y-97136040D01*
X152298812Y-97136040D01*
X152298812Y-97032893D01*
X152213935Y-97041496D01*
X152154632Y-97048756D01*
X152091449Y-97058379D01*
X152053614Y-97065252D01*
X151978168Y-97080407D01*
X151974474Y-97171095D01*
X151970779Y-97261782D01*
X151758119Y-97261782D01*
X151758119Y-97211485D01*
X151756456Y-97179976D01*
X151752303Y-97162463D01*
X151750629Y-97161188D01*
X151732013Y-97169254D01*
X151704817Y-97188820D01*
X151677552Y-97212944D01*
X151658733Y-97234682D01*
X151657057Y-97237508D01*
X151651384Y-97252334D01*
X151512520Y-97252334D01*
X151520338Y-97243081D01*
X151524558Y-97229604D01*
X151541781Y-97194627D01*
X151574862Y-97152579D01*
X151618107Y-97109356D01*
X151665826Y-97070854D01*
X151697170Y-97050801D01*
X151732877Y-97028851D01*
X151751181Y-97010411D01*
X151757612Y-96988668D01*
X151758106Y-96975718D01*
X151758106Y-96972575D01*
X152399406Y-96972575D01*
X152399406Y-97035446D01*
X152776633Y-97035446D01*
X152776633Y-96972575D01*
X152399406Y-96972575D01*
X151758106Y-96972575D01*
X151758119Y-96934852D01*
X151863952Y-96934852D01*
X151912645Y-96936029D01*
X151950595Y-96939165D01*
X151971692Y-96943671D01*
X151973977Y-96945495D01*
X151987359Y-96948295D01*
X152019926Y-96947148D01*
X152066084Y-96942393D01*
X152097624Y-96938003D01*
X152154812Y-96929378D01*
X152207114Y-96921591D01*
X152246418Y-96915847D01*
X152257945Y-96914215D01*
X152288063Y-96904888D01*
X152298812Y-96890272D01*
X152302080Y-96884320D01*
X152313770Y-96879778D01*
X152336712Y-96876470D01*
X152373735Y-96874215D01*
X152427668Y-96872834D01*
X152501340Y-96872150D01*
X152588020Y-96871980D01*
X152680529Y-96872077D01*
X152750906Y-96872530D01*
X152802164Y-96873590D01*
X152837320Y-96875503D01*
X152859389Y-96878519D01*
X152871385Y-96882885D01*
X152876324Y-96888849D01*
X152877227Y-96895784D01*
X152884921Y-96917795D01*
X152910121Y-96930321D01*
X152956009Y-96934788D01*
X152964264Y-96934852D01*
X153041973Y-96942868D01*
X153130233Y-96964936D01*
X153221085Y-96998084D01*
X153306570Y-97039339D01*
X153378726Y-97085731D01*
X153388072Y-97093082D01*
X153418533Y-97116998D01*
X153436572Y-97126576D01*
X153449169Y-97123480D01*
X153462100Y-97110704D01*
X153500293Y-97085678D01*
X153549998Y-97076071D01*
X153603524Y-97081067D01*
X153653178Y-97099851D01*
X153691267Y-97131606D01*
X153694025Y-97135297D01*
X153722526Y-97194575D01*
X153727828Y-97255934D01*
X153710518Y-97314427D01*
X153671180Y-97365104D01*
X153666370Y-97369289D01*
X153638440Y-97389167D01*
X153610102Y-97397921D01*
X153570263Y-97398553D01*
X153560311Y-97397992D01*
X153521332Y-97396562D01*
X153501254Y-97399839D01*
X153493985Y-97409728D01*
X153493240Y-97418961D01*
X153491716Y-97445744D01*
X153487935Y-97486025D01*
X153485218Y-97510124D01*
X153481277Y-97548401D01*
X153482916Y-97567996D01*
X153492421Y-97575158D01*
X153509351Y-97576139D01*
X153519392Y-97572901D01*
X153535590Y-97562420D01*
X153559145Y-97543548D01*
X153591257Y-97515135D01*
X153633128Y-97476035D01*
X153685957Y-97425097D01*
X153750945Y-97361173D01*
X153829291Y-97283114D01*
X153922197Y-97189772D01*
X154030863Y-97079998D01*
X154083231Y-97026952D01*
X154625049Y-96477767D01*
X154624430Y-96564848D01*
G36*
X154247822Y-102517822D02*
X150727029Y-102517822D01*
X150727029Y-101650198D01*
X154247822Y-101650198D01*
X154247822Y-102517822D01*
X154247822Y-102517822D01*
G37*
X154247822Y-102517822D02*
X150727029Y-102517822D01*
X150727029Y-101650198D01*
X154247822Y-101650198D01*
X154247822Y-102517822D01*
D14*
X150321000Y-58380000D02*
X150321000Y-64620000D01*
X145679000Y-58380000D02*
X145679000Y-64620000D01*
X150321000Y-58380000D02*
X148925000Y-58380000D01*
X147075000Y-58380000D02*
X145679000Y-58380000D01*
X150321000Y-64620000D02*
X148925000Y-64620000D01*
X147075000Y-64620000D02*
X145679000Y-64620000D01*
D15*
X79640000Y-63800000D02*
G75*
G03X79640000Y-63800000I-140000J0D01*
G01*
D16*
X85300000Y-65000000D02*
X77000000Y-65000000D01*
X85300000Y-55000000D02*
X85300000Y-65000000D01*
X77000000Y-55000000D02*
X85300000Y-55000000D01*
X77000000Y-65000000D02*
X77000000Y-55000000D01*
X166100000Y-56500000D02*
X166100000Y-71500000D01*
X166100000Y-71500000D02*
X165600000Y-71500000D01*
X165600000Y-71500000D02*
X157900000Y-71500000D01*
X157900000Y-71500000D02*
X157900000Y-56500000D01*
X157900000Y-56500000D02*
X166100000Y-56500000D01*
X165600000Y-56500000D02*
X165600000Y-71500000D01*
D17*
X162250000Y-55750000D02*
G75*
G03X162250000Y-55750000I-250000J0D01*
G01*
D16*
X86000000Y-84000000D02*
X86000000Y-94000000D01*
X86000000Y-94000000D02*
X77700000Y-94000000D01*
X77700000Y-94000000D02*
X77700000Y-84000000D01*
X77700000Y-84000000D02*
X86000000Y-84000000D01*
D15*
X83640000Y-85200000D02*
G75*
G03X83640000Y-85200000I-140000J0D01*
G01*
D14*
X148251000Y-87000000D02*
G75*
G03X148251000Y-87000000I-1251000J0D01*
G01*
X127251000Y-87000000D02*
G75*
G03X127251000Y-87000000I-1251000J0D01*
G01*
D16*
X116000000Y-93750000D02*
X116000000Y-86250000D01*
X116000000Y-86250000D02*
X101000000Y-86250000D01*
X101000000Y-86250000D02*
X101000000Y-93750000D01*
X101000000Y-93750000D02*
X116000000Y-93750000D01*
D11*
X115100000Y-85500000D02*
G75*
G03X115100000Y-85500000I-100000J0D01*
G01*
D10*
X100500000Y-54500000D02*
X100500000Y-75500000D01*
X100500000Y-75500000D02*
X89500000Y-75500000D01*
X89500000Y-75500000D02*
X89500000Y-54500000D01*
X89500000Y-54500000D02*
X100500000Y-54500000D01*
X156500000Y-74500000D02*
X167500000Y-74500000D01*
X156500000Y-95500000D02*
X156500000Y-74500000D01*
X167500000Y-95500000D02*
X156500000Y-95500000D01*
X167500000Y-74500000D02*
X167500000Y-95500000D01*
D14*
X140870000Y-78240000D02*
X103610000Y-78250000D01*
X103610000Y-78240000D02*
X103610000Y-53980000D01*
X103610000Y-53980000D02*
X140870000Y-53980000D01*
X140870000Y-78240000D02*
X140870000Y-53980000D01*
X108000000Y-78500000D02*
X106000000Y-78500000D01*
X145150000Y-74970000D02*
X145150000Y-78570000D01*
X145161522Y-74931522D02*
G75*
G02X149600000Y-76770000I1838478J-1838478D01*
G01*
X145161522Y-78608478D02*
G75*
G03X149600000Y-76770000I1838478J1838478D01*
G01*
X155040000Y-69540000D02*
X155370000Y-69540000D01*
X155370000Y-69540000D02*
X155370000Y-76080000D01*
X155370000Y-76080000D02*
X155040000Y-76080000D01*
X152960000Y-69540000D02*
X152630000Y-69540000D01*
X152630000Y-69540000D02*
X152630000Y-76080000D01*
X152630000Y-76080000D02*
X152960000Y-76080000D01*
D18*
X78714285Y-72452380D02*
X78142857Y-72452380D01*
X78428571Y-72452380D02*
X78428571Y-71452380D01*
X78333333Y-71595238D01*
X78238095Y-71690476D01*
X78142857Y-71738095D01*
X79095238Y-71547619D02*
X79142857Y-71500000D01*
X79238095Y-71452380D01*
X79476190Y-71452380D01*
X79571428Y-71500000D01*
X79619047Y-71547619D01*
X79666666Y-71642857D01*
X79666666Y-71738095D01*
X79619047Y-71880952D01*
X79047619Y-72452380D01*
X79666666Y-72452380D01*
X80285714Y-71452380D02*
X80380952Y-71452380D01*
X80476190Y-71500000D01*
X80523809Y-71547619D01*
X80571428Y-71642857D01*
X80619047Y-71833333D01*
X80619047Y-72071428D01*
X80571428Y-72261904D01*
X80523809Y-72357142D01*
X80476190Y-72404761D01*
X80380952Y-72452380D01*
X80285714Y-72452380D01*
X80190476Y-72404761D01*
X80142857Y-72357142D01*
X80095238Y-72261904D01*
X80047619Y-72071428D01*
X80047619Y-71833333D01*
X80095238Y-71642857D01*
X80142857Y-71547619D01*
X80190476Y-71500000D01*
X80285714Y-71452380D01*
X81666666Y-71452380D02*
X82000000Y-72452380D01*
X82333333Y-71452380D01*
X82619047Y-72166666D02*
X83095238Y-72166666D01*
X82523809Y-72452380D02*
X82857142Y-71452380D01*
X83190476Y-72452380D01*
X84095238Y-72357142D02*
X84047619Y-72404761D01*
X83904761Y-72452380D01*
X83809523Y-72452380D01*
X83666666Y-72404761D01*
X83571428Y-72309523D01*
X83523809Y-72214285D01*
X83476190Y-72023809D01*
X83476190Y-71880952D01*
X83523809Y-71690476D01*
X83571428Y-71595238D01*
X83666666Y-71500000D01*
X83809523Y-71452380D01*
X83904761Y-71452380D01*
X84047619Y-71500000D01*
X84095238Y-71547619D01*
X151807142Y-61666666D02*
X151854761Y-61714285D01*
X151902380Y-61857142D01*
X151902380Y-61952380D01*
X151854761Y-62095238D01*
X151759523Y-62190476D01*
X151664285Y-62238095D01*
X151473809Y-62285714D01*
X151330952Y-62285714D01*
X151140476Y-62238095D01*
X151045238Y-62190476D01*
X150950000Y-62095238D01*
X150902380Y-61952380D01*
X150902380Y-61857142D01*
X150950000Y-61714285D01*
X150997619Y-61666666D01*
X151902380Y-60714285D02*
X151902380Y-61285714D01*
X151902380Y-61000000D02*
X150902380Y-61000000D01*
X151045238Y-61095238D01*
X151140476Y-61190476D01*
X151188095Y-61285714D01*
D10*
X102588095Y-64204761D02*
X101288095Y-64204761D01*
X102216666Y-63771428D01*
X101288095Y-63338095D01*
X102588095Y-63338095D01*
X101288095Y-62471428D02*
X101288095Y-62223809D01*
X101350000Y-62100000D01*
X101473809Y-61976190D01*
X101721428Y-61914285D01*
X102154761Y-61914285D01*
X102402380Y-61976190D01*
X102526190Y-62100000D01*
X102588095Y-62223809D01*
X102588095Y-62471428D01*
X102526190Y-62595238D01*
X102402380Y-62719047D01*
X102154761Y-62780952D01*
X101721428Y-62780952D01*
X101473809Y-62719047D01*
X101350000Y-62595238D01*
X101288095Y-62471428D01*
X101288095Y-61542857D02*
X102588095Y-61109523D01*
X101288095Y-60676190D01*
X102092857Y-59252380D02*
X102092857Y-58261904D01*
X102588095Y-56652380D02*
X101288095Y-56652380D01*
X101907142Y-56652380D02*
X101907142Y-55909523D01*
X102588095Y-55909523D02*
X101288095Y-55909523D01*
X101288095Y-55476190D02*
X102588095Y-55042857D01*
X101288095Y-54609523D01*
X169542857Y-88700000D02*
X168342857Y-88700000D01*
X169200000Y-88300000D01*
X168342857Y-87900000D01*
X169542857Y-87900000D01*
X168342857Y-87100000D02*
X168342857Y-86871428D01*
X168400000Y-86757142D01*
X168514285Y-86642857D01*
X168742857Y-86585714D01*
X169142857Y-86585714D01*
X169371428Y-86642857D01*
X169485714Y-86757142D01*
X169542857Y-86871428D01*
X169542857Y-87100000D01*
X169485714Y-87214285D01*
X169371428Y-87328571D01*
X169142857Y-87385714D01*
X168742857Y-87385714D01*
X168514285Y-87328571D01*
X168400000Y-87214285D01*
X168342857Y-87100000D01*
X168342857Y-86242857D02*
X169542857Y-85842857D01*
X168342857Y-85442857D01*
X169085714Y-84128571D02*
X169085714Y-83214285D01*
X169542857Y-81157142D02*
X169542857Y-81728571D01*
X168342857Y-81728571D01*
X168342857Y-80928571D02*
X169542857Y-80528571D01*
X168342857Y-80128571D01*
D18*
X103062380Y-76224285D02*
X102062380Y-76224285D01*
X102062380Y-75843333D01*
X102110000Y-75748095D01*
X102157619Y-75700476D01*
X102252857Y-75652857D01*
X102395714Y-75652857D01*
X102490952Y-75700476D01*
X102538571Y-75748095D01*
X102586190Y-75843333D01*
X102586190Y-76224285D01*
X103014761Y-75271904D02*
X103062380Y-75129047D01*
X103062380Y-74890952D01*
X103014761Y-74795714D01*
X102967142Y-74748095D01*
X102871904Y-74700476D01*
X102776666Y-74700476D01*
X102681428Y-74748095D01*
X102633809Y-74795714D01*
X102586190Y-74890952D01*
X102538571Y-75081428D01*
X102490952Y-75176666D01*
X102443333Y-75224285D01*
X102348095Y-75271904D01*
X102252857Y-75271904D01*
X102157619Y-75224285D01*
X102110000Y-75176666D01*
X102062380Y-75081428D01*
X102062380Y-74843333D01*
X102110000Y-74700476D01*
X103062380Y-73748095D02*
X103062380Y-74319523D01*
X103062380Y-74033809D02*
X102062380Y-74033809D01*
X102205238Y-74129047D01*
X102300476Y-74224285D01*
X102348095Y-74319523D01*
X150107619Y-79484285D02*
X150060000Y-79436666D01*
X150012380Y-79341428D01*
X150012380Y-79103333D01*
X150060000Y-79008095D01*
X150107619Y-78960476D01*
X150202857Y-78912857D01*
X150298095Y-78912857D01*
X150440952Y-78960476D01*
X151012380Y-79531904D01*
X151012380Y-78912857D01*
X151012380Y-78484285D02*
X150012380Y-78484285D01*
X151012380Y-77912857D01*
X150012380Y-77912857D01*
X150012380Y-77531904D02*
X150012380Y-76912857D01*
X150393333Y-77246190D01*
X150393333Y-77103333D01*
X150440952Y-77008095D01*
X150488571Y-76960476D01*
X150583809Y-76912857D01*
X150821904Y-76912857D01*
X150917142Y-76960476D01*
X150964761Y-77008095D01*
X151012380Y-77103333D01*
X151012380Y-77389047D01*
X150964761Y-77484285D01*
X150917142Y-77531904D01*
X151012380Y-76436666D02*
X151012380Y-76246190D01*
X150964761Y-76150952D01*
X150917142Y-76103333D01*
X150774285Y-76008095D01*
X150583809Y-75960476D01*
X150202857Y-75960476D01*
X150107619Y-76008095D01*
X150060000Y-76055714D01*
X150012380Y-76150952D01*
X150012380Y-76341428D01*
X150060000Y-76436666D01*
X150107619Y-76484285D01*
X150202857Y-76531904D01*
X150440952Y-76531904D01*
X150536190Y-76484285D01*
X150583809Y-76436666D01*
X150631428Y-76341428D01*
X150631428Y-76150952D01*
X150583809Y-76055714D01*
X150536190Y-76008095D01*
X150440952Y-75960476D01*
X150012380Y-75341428D02*
X150012380Y-75246190D01*
X150060000Y-75150952D01*
X150107619Y-75103333D01*
X150202857Y-75055714D01*
X150393333Y-75008095D01*
X150631428Y-75008095D01*
X150821904Y-75055714D01*
X150917142Y-75103333D01*
X150964761Y-75150952D01*
X151012380Y-75246190D01*
X151012380Y-75341428D01*
X150964761Y-75436666D01*
X150917142Y-75484285D01*
X150821904Y-75531904D01*
X150631428Y-75579523D01*
X150393333Y-75579523D01*
X150202857Y-75531904D01*
X150107619Y-75484285D01*
X150060000Y-75436666D01*
X150012380Y-75341428D01*
X150345714Y-74150952D02*
X151012380Y-74150952D01*
X149964761Y-74389047D02*
X150679047Y-74627142D01*
X150679047Y-74008095D01*
X156822380Y-73405238D02*
X156822380Y-73976666D01*
X156822380Y-73690952D02*
X155822380Y-73690952D01*
X155965238Y-73786190D01*
X156060476Y-73881428D01*
X156108095Y-73976666D01*
X155822380Y-72786190D02*
X155822380Y-72690952D01*
X155870000Y-72595714D01*
X155917619Y-72548095D01*
X156012857Y-72500476D01*
X156203333Y-72452857D01*
X156441428Y-72452857D01*
X156631904Y-72500476D01*
X156727142Y-72548095D01*
X156774761Y-72595714D01*
X156822380Y-72690952D01*
X156822380Y-72786190D01*
X156774761Y-72881428D01*
X156727142Y-72929047D01*
X156631904Y-72976666D01*
X156441428Y-73024285D01*
X156203333Y-73024285D01*
X156012857Y-72976666D01*
X155917619Y-72929047D01*
X155870000Y-72881428D01*
X155822380Y-72786190D01*
X156822380Y-72024285D02*
X155822380Y-72024285D01*
X156441428Y-71929047D02*
X156822380Y-71643333D01*
X156155714Y-71643333D02*
X156536666Y-72024285D01*
M02*
