%TF.GenerationSoftware,KiCad,Pcbnew,(5.0.1)-4*%
%TF.CreationDate,2019-03-02T18:56:36-06:00*%
%TF.ProjectId,uC and Xbee,754320616E6420586265652E6B696361,rev?*%
%TF.SameCoordinates,Original*%
%TF.FileFunction,Copper,L2,Bot,Signal*%
%TF.FilePolarity,Positive*%
%FSLAX46Y46*%
G04 Gerber Fmt 4.6, Leading zero omitted, Abs format (unit mm)*
G04 Created by KiCad (PCBNEW (5.0.1)-4) date 2019-03-02 6:56:36 PM*
%MOMM*%
%LPD*%
G01*
G04 APERTURE LIST*
%TA.AperFunction,ComponentPad*%
%ADD10C,1.008000*%
%TD*%
%TA.AperFunction,ComponentPad*%
%ADD11R,1.008000X1.008000*%
%TD*%
%TA.AperFunction,ComponentPad*%
%ADD12R,1.650000X1.650000*%
%TD*%
%TA.AperFunction,ComponentPad*%
%ADD13C,1.650000*%
%TD*%
%TA.AperFunction,ComponentPad*%
%ADD14R,1.700000X1.700000*%
%TD*%
%TA.AperFunction,ComponentPad*%
%ADD15O,1.700000X1.700000*%
%TD*%
%TA.AperFunction,ComponentPad*%
%ADD16C,3.500000*%
%TD*%
%TA.AperFunction,Conductor*%
%ADD17C,0.300000*%
%TD*%
%TA.AperFunction,Conductor*%
%ADD18C,0.250000*%
%TD*%
%TA.AperFunction,Conductor*%
%ADD19C,0.400000*%
%TD*%
G04 APERTURE END LIST*
D10*
%TO.P,U1,11*%
%TO.N,Net-(U1-Pad11)*%
X202254000Y-100991000D03*
%TO.P,U1,12*%
%TO.N,Net-(U1-Pad12)*%
X202254000Y-98991000D03*
%TO.P,U1,13*%
%TO.N,Net-(U1-Pad13)*%
X202254000Y-96991000D03*
%TO.P,U1,14*%
%TO.N,Net-(U1-Pad14)*%
X202254000Y-94991000D03*
%TO.P,U1,15*%
%TO.N,Net-(U1-Pad15)*%
X202254000Y-92991000D03*
%TO.P,U1,16*%
%TO.N,Net-(U1-Pad16)*%
X202254000Y-90991000D03*
%TO.P,U1,17*%
%TO.N,Net-(U1-Pad17)*%
X202254000Y-88991000D03*
%TO.P,U1,18*%
%TO.N,Net-(U1-Pad18)*%
X202254000Y-86991000D03*
%TO.P,U1,19*%
%TO.N,Net-(U1-Pad19)*%
X202254000Y-84991000D03*
%TO.P,U1,20*%
%TO.N,Net-(U1-Pad20)*%
X202254000Y-82991000D03*
%TO.P,U1,10*%
%TO.N,GND1*%
X180254000Y-100991000D03*
%TO.P,U1,9*%
%TO.N,Net-(U1-Pad9)*%
X180254000Y-98991000D03*
%TO.P,U1,8*%
%TO.N,Net-(U1-Pad8)*%
X180254000Y-96991000D03*
%TO.P,U1,7*%
%TO.N,Net-(U1-Pad7)*%
X180254000Y-94991000D03*
%TO.P,U1,6*%
%TO.N,Net-(U1-Pad6)*%
X180254000Y-92991000D03*
%TO.P,U1,5*%
%TO.N,Net-(U1-Pad5)*%
X180254000Y-90991000D03*
%TO.P,U1,4*%
%TO.N,Net-(U1-Pad4)*%
X180254000Y-88991000D03*
%TO.P,U1,3*%
%TO.N,PA9*%
X180254000Y-86991000D03*
%TO.P,U1,2*%
%TO.N,PA10*%
X180254000Y-84991000D03*
D11*
%TO.P,U1,1*%
%TO.N,3.3V1*%
X180254000Y-82991000D03*
%TD*%
D12*
%TO.P,J2,1*%
%TO.N,GND1*%
X175340000Y-60920000D03*
D13*
%TO.P,J2,2*%
%TO.N,3.3V1*%
X180340000Y-60920000D03*
%TO.P,J2,3*%
%TO.N,PA0*%
X185340000Y-60920000D03*
%TO.P,J2,4*%
%TO.N,PA1*%
X190340000Y-60920000D03*
%TD*%
D14*
%TO.P,J3,1*%
%TO.N,PB10*%
X129500000Y-134580000D03*
D15*
%TO.P,J3,2*%
%TO.N,PB11*%
X132040000Y-134580000D03*
%TO.P,J3,3*%
%TO.N,PB12*%
X134580000Y-134580000D03*
%TO.P,J3,4*%
%TO.N,PB13*%
X137120000Y-134580000D03*
%TO.P,J3,5*%
%TO.N,PB14*%
X139660000Y-134580000D03*
%TO.P,J3,6*%
%TO.N,PB15*%
X142200000Y-134580000D03*
%TD*%
D12*
%TO.P,J1,1*%
%TO.N,PB0*%
X177840000Y-129500000D03*
D13*
%TO.P,J1,2*%
%TO.N,GND1*%
X182840000Y-129500000D03*
%TO.P,J1,3*%
%TO.N,3.3V1*%
X187840000Y-129500000D03*
%TD*%
D14*
%TO.P,J4,1*%
%TO.N,GND1*%
X119340000Y-58380000D03*
D15*
%TO.P,J4,2*%
%TO.N,Net-(J4-Pad2)*%
X119340000Y-60920000D03*
%TO.P,J4,3*%
%TO.N,3.3V1*%
X119340000Y-63460000D03*
%TO.P,J4,4*%
%TO.N,VBAT*%
X119340000Y-66000000D03*
%TO.P,J4,5*%
%TO.N,PC13*%
X119340000Y-68540000D03*
%TO.P,J4,6*%
%TO.N,PC14*%
X119340000Y-71080000D03*
%TO.P,J4,7*%
%TO.N,PC15*%
X119340000Y-73620000D03*
%TO.P,J4,8*%
%TO.N,PD0*%
X119340000Y-76160000D03*
%TO.P,J4,9*%
%TO.N,PD1*%
X119340000Y-78700000D03*
%TO.P,J4,10*%
%TO.N,RST*%
X119340000Y-81240000D03*
%TO.P,J4,11*%
%TO.N,PC0*%
X119340000Y-83780000D03*
%TO.P,J4,12*%
%TO.N,PC1*%
X119340000Y-86320000D03*
%TO.P,J4,13*%
%TO.N,PC2*%
X119340000Y-88860000D03*
%TO.P,J4,14*%
%TO.N,PC3*%
X119340000Y-91400000D03*
%TO.P,J4,15*%
%TO.N,PA0*%
X119340000Y-93940000D03*
%TO.P,J4,16*%
%TO.N,PA1*%
X119340000Y-96480000D03*
%TO.P,J4,17*%
%TO.N,PA2*%
X119340000Y-99020000D03*
%TO.P,J4,18*%
%TO.N,PA3*%
X119340000Y-101560000D03*
%TO.P,J4,19*%
%TO.N,PA4*%
X119340000Y-104100000D03*
%TO.P,J4,20*%
%TO.N,PA5*%
X119340000Y-106640000D03*
%TO.P,J4,21*%
%TO.N,PA6*%
X119340000Y-109180000D03*
%TO.P,J4,22*%
%TO.N,PA7*%
X119340000Y-111720000D03*
%TO.P,J4,23*%
%TO.N,PC4*%
X119340000Y-114260000D03*
%TO.P,J4,24*%
%TO.N,PC5*%
X119340000Y-116800000D03*
%TO.P,J4,25*%
%TO.N,PB0*%
X119340000Y-119340000D03*
%TO.P,J4,26*%
%TO.N,PB1*%
X119340000Y-121880000D03*
%TO.P,J4,27*%
%TO.N,PB2*%
X119340000Y-124420000D03*
%TO.P,J4,28*%
%TO.N,GND1*%
X119340000Y-126960000D03*
%TD*%
%TO.P,J5,28*%
%TO.N,GND1*%
X149500000Y-58500000D03*
%TO.P,J5,27*%
%TO.N,Net-(J5-Pad27)*%
X149500000Y-61040000D03*
%TO.P,J5,26*%
%TO.N,5V*%
X149500000Y-63580000D03*
%TO.P,J5,25*%
%TO.N,PB9*%
X149500000Y-66120000D03*
%TO.P,J5,24*%
%TO.N,PB8*%
X149500000Y-68660000D03*
%TO.P,J5,23*%
%TO.N,BOOT*%
X149500000Y-71200000D03*
%TO.P,J5,22*%
%TO.N,PB7*%
X149500000Y-73740000D03*
%TO.P,J5,21*%
%TO.N,PB6*%
X149500000Y-76280000D03*
%TO.P,J5,20*%
%TO.N,PB5*%
X149500000Y-78820000D03*
%TO.P,J5,19*%
%TO.N,PB4*%
X149500000Y-81360000D03*
%TO.P,J5,18*%
%TO.N,PB3*%
X149500000Y-83900000D03*
%TO.P,J5,17*%
%TO.N,PD2*%
X149500000Y-86440000D03*
%TO.P,J5,16*%
%TO.N,PC12*%
X149500000Y-88980000D03*
%TO.P,J5,15*%
%TO.N,PC11*%
X149500000Y-91520000D03*
%TO.P,J5,14*%
%TO.N,PC10*%
X149500000Y-94060000D03*
%TO.P,J5,13*%
%TO.N,PA15*%
X149500000Y-96600000D03*
%TO.P,J5,12*%
%TO.N,PA14*%
X149500000Y-99140000D03*
%TO.P,J5,11*%
%TO.N,PA13*%
X149500000Y-101680000D03*
%TO.P,J5,10*%
%TO.N,PA12*%
X149500000Y-104220000D03*
%TO.P,J5,9*%
%TO.N,PA11*%
X149500000Y-106760000D03*
%TO.P,J5,8*%
%TO.N,PA10*%
X149500000Y-109300000D03*
%TO.P,J5,7*%
%TO.N,PA9*%
X149500000Y-111840000D03*
%TO.P,J5,6*%
%TO.N,PA8*%
X149500000Y-114380000D03*
%TO.P,J5,5*%
%TO.N,PC9*%
X149500000Y-116920000D03*
%TO.P,J5,4*%
%TO.N,PC8*%
X149500000Y-119460000D03*
%TO.P,J5,3*%
%TO.N,PC7*%
X149500000Y-122000000D03*
%TO.P,J5,2*%
%TO.N,PC6*%
X149500000Y-124540000D03*
D14*
%TO.P,J5,1*%
%TO.N,GND1*%
X149500000Y-127080000D03*
%TD*%
%TO.P,J6,1*%
%TO.N,GND1*%
X165060000Y-126960000D03*
D15*
%TO.P,J6,2*%
%TO.N,PC6*%
X165060000Y-124420000D03*
%TO.P,J6,3*%
%TO.N,PC7*%
X165060000Y-121880000D03*
%TO.P,J6,4*%
%TO.N,PC8*%
X165060000Y-119340000D03*
%TO.P,J6,5*%
%TO.N,PC9*%
X165060000Y-116800000D03*
%TO.P,J6,6*%
%TO.N,PA8*%
X165060000Y-114260000D03*
%TO.P,J6,7*%
%TO.N,PA9*%
X165060000Y-111720000D03*
%TO.P,J6,8*%
%TO.N,PA10*%
X165060000Y-109180000D03*
%TO.P,J6,9*%
%TO.N,PA11*%
X165060000Y-106640000D03*
%TO.P,J6,10*%
%TO.N,PA12*%
X165060000Y-104100000D03*
%TO.P,J6,11*%
%TO.N,PA13*%
X165060000Y-101560000D03*
%TO.P,J6,12*%
%TO.N,PA14*%
X165060000Y-99020000D03*
%TO.P,J6,13*%
%TO.N,PA15*%
X165060000Y-96480000D03*
%TO.P,J6,14*%
%TO.N,PC10*%
X165060000Y-93940000D03*
%TO.P,J6,15*%
%TO.N,PC11*%
X165060000Y-91400000D03*
%TO.P,J6,16*%
%TO.N,PC12*%
X165060000Y-88860000D03*
%TO.P,J6,17*%
%TO.N,PD2*%
X165060000Y-86320000D03*
%TO.P,J6,18*%
%TO.N,PB3*%
X165060000Y-83780000D03*
%TO.P,J6,19*%
%TO.N,PB4*%
X165060000Y-81240000D03*
%TO.P,J6,20*%
%TO.N,PB5*%
X165060000Y-78700000D03*
%TO.P,J6,21*%
%TO.N,PB6*%
X165060000Y-76160000D03*
%TO.P,J6,22*%
%TO.N,PB7*%
X165060000Y-73620000D03*
%TO.P,J6,23*%
%TO.N,BOOT*%
X165060000Y-71080000D03*
%TO.P,J6,24*%
%TO.N,PB8*%
X165060000Y-68540000D03*
%TO.P,J6,25*%
%TO.N,PB9*%
X165060000Y-66000000D03*
%TO.P,J6,26*%
%TO.N,5V*%
X165060000Y-63460000D03*
%TO.P,J6,27*%
%TO.N,Net-(J6-Pad27)*%
X165060000Y-60920000D03*
%TO.P,J6,28*%
%TO.N,GND1*%
X165060000Y-58380000D03*
%TD*%
D16*
%TO.P,REF\002A\002A,1*%
%TO.N,N/C*%
X202500000Y-47000000D03*
%TD*%
%TO.P,REF\002A\002A,1*%
%TO.N,N/C*%
X108500000Y-47000000D03*
%TD*%
%TO.P,REF\002A\002A,1*%
%TO.N,N/C*%
X108500000Y-141000000D03*
%TD*%
%TO.P,REF\002A\002A,1*%
%TO.N,N/C*%
X202500000Y-141000000D03*
%TD*%
D17*
%TO.N,PA1*%
X190340000Y-60920000D02*
X190340000Y-52340000D01*
D18*
X118137919Y-96480000D02*
X119340000Y-96480000D01*
D17*
X190340000Y-52340000D02*
X190340000Y-50340000D01*
X190340000Y-50340000D02*
X189500000Y-49500000D01*
X119340000Y-96480000D02*
X115480000Y-96480000D01*
X115480000Y-96480000D02*
X113500000Y-94500000D01*
X113500000Y-94500000D02*
X113500000Y-68000000D01*
X113500000Y-68000000D02*
X110000000Y-64500000D01*
X110000000Y-64500000D02*
X110000000Y-51500000D01*
X112000000Y-49500000D02*
X189500000Y-49500000D01*
X110000000Y-51500000D02*
X112000000Y-49500000D01*
D19*
%TO.N,GND1*%
X149820000Y-126960000D02*
X165060000Y-126960000D01*
X149820000Y-58380000D02*
X165060000Y-58380000D01*
X119340000Y-126960000D02*
X119340000Y-129340000D01*
X119340000Y-129340000D02*
X121500000Y-131500000D01*
X121500000Y-131500000D02*
X148500000Y-131500000D01*
X149500000Y-130500000D02*
X149500000Y-127080000D01*
X148500000Y-131500000D02*
X149500000Y-130500000D01*
X149500000Y-58500000D02*
X145500000Y-58500000D01*
X145500000Y-58500000D02*
X144500000Y-59500000D01*
X144500000Y-59500000D02*
X144500000Y-126500000D01*
X145080000Y-127080000D02*
X149500000Y-127080000D01*
X144500000Y-126500000D02*
X145080000Y-127080000D01*
X165060000Y-57177919D02*
X166237919Y-56000000D01*
X165060000Y-58380000D02*
X165060000Y-57177919D01*
X166237919Y-56000000D02*
X174000000Y-56000000D01*
X175340000Y-57340000D02*
X175340000Y-60920000D01*
X174000000Y-56000000D02*
X175340000Y-57340000D01*
X149500000Y-57000000D02*
X149500000Y-58500000D01*
X149000000Y-56500000D02*
X149500000Y-57000000D01*
X120120000Y-56500000D02*
X149000000Y-56500000D01*
X119340000Y-58380000D02*
X119340000Y-57280000D01*
X119340000Y-57280000D02*
X120120000Y-56500000D01*
X180254000Y-100991000D02*
X182991000Y-100991000D01*
X182991000Y-100991000D02*
X184500000Y-102500000D01*
D18*
X183664999Y-128675001D02*
X182840000Y-129500000D01*
D19*
X184500000Y-127840000D02*
X183664999Y-128675001D01*
X184500000Y-102500000D02*
X184500000Y-127840000D01*
X180300000Y-126960000D02*
X182840000Y-129500000D01*
X165060000Y-126960000D02*
X180300000Y-126960000D01*
%TO.N,3.3V1*%
X180340000Y-60920000D02*
X180340000Y-55340000D01*
X180340000Y-55340000D02*
X179500000Y-54500000D01*
X179500000Y-54500000D02*
X115500000Y-54500000D01*
X115500000Y-54500000D02*
X114500000Y-55500000D01*
X114500000Y-55500000D02*
X114500000Y-62500000D01*
X114500000Y-62500000D02*
X115500000Y-63500000D01*
X115540000Y-63500000D02*
X119340000Y-63500000D01*
D18*
X115500000Y-63500000D02*
X115540000Y-63460000D01*
X180340000Y-82905000D02*
X180254000Y-82991000D01*
D19*
X180340000Y-60920000D02*
X180340000Y-82905000D01*
X180254000Y-82991000D02*
X194491000Y-82991000D01*
X194491000Y-82991000D02*
X196000000Y-84500000D01*
X196000000Y-84500000D02*
X196000000Y-126500000D01*
X196000000Y-126500000D02*
X193000000Y-129500000D01*
X193000000Y-129500000D02*
X187840000Y-129500000D01*
D17*
%TO.N,PA0*%
X185340000Y-54340000D02*
X183500000Y-52500000D01*
X113500000Y-52500000D02*
X111500000Y-54500000D01*
X185340000Y-60920000D02*
X185340000Y-54340000D01*
X183500000Y-52500000D02*
X113500000Y-52500000D01*
X111500000Y-54500000D02*
X111500000Y-63500000D01*
X111500000Y-63500000D02*
X115000000Y-67000000D01*
X115000000Y-67000000D02*
X115000000Y-92500000D01*
X116440000Y-93940000D02*
X119340000Y-93940000D01*
X115000000Y-92500000D02*
X116440000Y-93940000D01*
%TO.N,PB0*%
X177840000Y-137160000D02*
X177840000Y-129500000D01*
X174500000Y-140500000D02*
X177840000Y-137160000D01*
X116160000Y-119340000D02*
X119340000Y-119340000D01*
X115000000Y-120500000D02*
X116160000Y-119340000D01*
X115000000Y-138500000D02*
X115000000Y-120500000D01*
X174500000Y-140500000D02*
X117000000Y-140500000D01*
X117000000Y-140500000D02*
X115000000Y-138500000D01*
D19*
%TO.N,5V*%
X149820000Y-63460000D02*
X165060000Y-63460000D01*
D18*
%TO.N,PB9*%
X163857919Y-66000000D02*
X149820000Y-66000000D01*
X165060000Y-66000000D02*
X163857919Y-66000000D01*
%TO.N,PB8*%
X149820000Y-68540000D02*
X165060000Y-68540000D01*
%TO.N,BOOT*%
X149820000Y-71080000D02*
X165060000Y-71080000D01*
%TO.N,PB7*%
X149820000Y-73620000D02*
X165060000Y-73620000D01*
%TO.N,PB6*%
X149820000Y-76160000D02*
X165060000Y-76160000D01*
%TO.N,PB5*%
X149820000Y-78700000D02*
X165060000Y-78700000D01*
%TO.N,PB4*%
X149820000Y-81240000D02*
X165060000Y-81240000D01*
%TO.N,PB3*%
X149820000Y-83780000D02*
X165060000Y-83780000D01*
%TO.N,PD2*%
X149820000Y-86320000D02*
X165060000Y-86320000D01*
%TO.N,PC12*%
X149820000Y-88860000D02*
X165060000Y-88860000D01*
%TO.N,PC11*%
X149820000Y-91400000D02*
X165060000Y-91400000D01*
%TO.N,PC10*%
X149820000Y-93940000D02*
X164940000Y-93940000D01*
%TO.N,PA15*%
X149820000Y-96480000D02*
X165060000Y-96480000D01*
%TO.N,PA14*%
X149820000Y-99020000D02*
X165060000Y-99020000D01*
%TO.N,PA13*%
X149820000Y-101560000D02*
X165060000Y-101560000D01*
%TO.N,PA12*%
X149820000Y-104100000D02*
X165060000Y-104100000D01*
%TO.N,PA11*%
X149820000Y-106640000D02*
X165060000Y-106640000D01*
%TO.N,PA10*%
X149820000Y-109180000D02*
X165060000Y-109180000D01*
D19*
X172500000Y-87000000D02*
X172500000Y-107500000D01*
X174509000Y-84991000D02*
X172500000Y-87000000D01*
X170820000Y-109180000D02*
X165060000Y-109180000D01*
X172500000Y-107500000D02*
X170820000Y-109180000D01*
X174509000Y-84991000D02*
X180254000Y-84991000D01*
D18*
%TO.N,PA9*%
X149820000Y-111720000D02*
X165060000Y-111720000D01*
D19*
X172780000Y-111720000D02*
X165060000Y-111720000D01*
X174500000Y-110000000D02*
X172780000Y-111720000D01*
X174500000Y-88500000D02*
X174500000Y-110000000D01*
X176009000Y-86991000D02*
X174500000Y-88500000D01*
X176009000Y-86991000D02*
X180254000Y-86991000D01*
D18*
%TO.N,PA8*%
X149820000Y-114260000D02*
X165060000Y-114260000D01*
%TO.N,PC9*%
X149820000Y-116800000D02*
X165060000Y-116800000D01*
%TO.N,PC8*%
X149820000Y-119340000D02*
X165060000Y-119340000D01*
%TO.N,PC7*%
X149820000Y-121880000D02*
X165060000Y-121880000D01*
%TO.N,PC6*%
X164940000Y-124540000D02*
X165060000Y-124420000D01*
X149500000Y-124540000D02*
X164940000Y-124540000D01*
%TD*%
M02*
