M48
;DRILL file {KiCad (5.0.1)-4} date 2019-03-02 5:13:39 PM
;FORMAT={-:-/ absolute / inch / decimal}
FMAT,2
INCH,TZ
T1C0.0295
T2C0.0315
T3C0.0394
T4C0.0433
T5C0.0472
T6C0.0866
%
G90
G05
M72
T1
X7.3394Y-1.85
X7.3894Y-1.85
X7.4394Y-1.85
X7.4394Y-2.05
X7.4394Y-2.1
X7.4394Y-2.15
T2
X7.1644Y-2.35
X7.5644Y-2.35
X6.8898Y-1.5354
X6.9685Y-1.5354
X7.0472Y-1.5354
X7.5894Y-1.35
X7.5894Y-1.75
T3
X6.8394Y-2.375
X6.9394Y-2.375
X6.9644Y-1.35
X7.0644Y-1.35
X7.1644Y-1.35
X7.2644Y-1.35
X7.3644Y-1.35
X7.0644Y-1.875
X7.1644Y-1.875
T4
X6.6142Y-1.7126
X6.6142Y-1.9094
T5
X6.8394Y-2.15
X6.9894Y-2.15
T6
X7.8346Y-1.1811
X6.378Y-2.5197
X7.8346Y-2.5197
X6.378Y-1.1811
T0
M30
