%TF.GenerationSoftware,KiCad,Pcbnew,(5.0.1)-4*%
%TF.CreationDate,2019-03-02T17:13:33-06:00*%
%TF.ProjectId,pcbdesign,70636264657369676E2E6B696361645F,rev?*%
%TF.SameCoordinates,Original*%
%TF.FileFunction,Soldermask,Top*%
%TF.FilePolarity,Negative*%
%FSLAX46Y46*%
G04 Gerber Fmt 4.6, Leading zero omitted, Abs format (unit mm)*
G04 Created by KiCad (PCBNEW (5.0.1)-4) date 2019-03-02 5:13:33 PM*
%MOMM*%
%LPD*%
G01*
G04 APERTURE LIST*
%ADD10C,0.100000*%
G04 APERTURE END LIST*
D10*
G36*
X199308445Y-61766254D02*
X199656593Y-61835504D01*
X200066249Y-62005189D01*
X200434929Y-62251534D01*
X200748466Y-62565071D01*
X200994811Y-62933751D01*
X201164496Y-63343407D01*
X201251000Y-63778296D01*
X201251000Y-64221704D01*
X201164496Y-64656593D01*
X200994811Y-65066249D01*
X200748466Y-65434929D01*
X200434929Y-65748466D01*
X200066249Y-65994811D01*
X199656593Y-66164496D01*
X199308445Y-66233746D01*
X199221706Y-66251000D01*
X198778294Y-66251000D01*
X198691555Y-66233746D01*
X198343407Y-66164496D01*
X197933751Y-65994811D01*
X197565071Y-65748466D01*
X197251534Y-65434929D01*
X197005189Y-65066249D01*
X196835504Y-64656593D01*
X196749000Y-64221704D01*
X196749000Y-63778296D01*
X196835504Y-63343407D01*
X197005189Y-62933751D01*
X197251534Y-62565071D01*
X197565071Y-62251534D01*
X197933751Y-62005189D01*
X198343407Y-61835504D01*
X198691555Y-61766254D01*
X198778294Y-61749000D01*
X199221706Y-61749000D01*
X199308445Y-61766254D01*
X199308445Y-61766254D01*
G37*
G36*
X162308445Y-61766254D02*
X162656593Y-61835504D01*
X163066249Y-62005189D01*
X163434929Y-62251534D01*
X163748466Y-62565071D01*
X163994811Y-62933751D01*
X164164496Y-63343407D01*
X164251000Y-63778296D01*
X164251000Y-64221704D01*
X164164496Y-64656593D01*
X163994811Y-65066249D01*
X163748466Y-65434929D01*
X163434929Y-65748466D01*
X163066249Y-65994811D01*
X162656593Y-66164496D01*
X162308445Y-66233746D01*
X162221706Y-66251000D01*
X161778294Y-66251000D01*
X161691555Y-66233746D01*
X161343407Y-66164496D01*
X160933751Y-65994811D01*
X160565071Y-65748466D01*
X160251534Y-65434929D01*
X160005189Y-65066249D01*
X159835504Y-64656593D01*
X159749000Y-64221704D01*
X159749000Y-63778296D01*
X159835504Y-63343407D01*
X160005189Y-62933751D01*
X160251534Y-62565071D01*
X160565071Y-62251534D01*
X160933751Y-62005189D01*
X161343407Y-61835504D01*
X161691555Y-61766254D01*
X161778294Y-61749000D01*
X162221706Y-61749000D01*
X162308445Y-61766254D01*
X162308445Y-61766254D01*
G37*
G36*
X177161000Y-61226000D02*
X175359000Y-61226000D01*
X175359000Y-59424000D01*
X177161000Y-59424000D01*
X177161000Y-61226000D01*
X177161000Y-61226000D01*
G37*
G36*
X173830442Y-59430518D02*
X173896627Y-59437037D01*
X174009853Y-59471384D01*
X174066467Y-59488557D01*
X174131239Y-59523179D01*
X174222991Y-59572222D01*
X174258729Y-59601552D01*
X174360186Y-59684814D01*
X174433227Y-59773816D01*
X174472778Y-59822009D01*
X174472779Y-59822011D01*
X174556443Y-59978533D01*
X174556443Y-59978534D01*
X174607963Y-60148373D01*
X174625359Y-60325000D01*
X174607963Y-60501627D01*
X174599754Y-60528687D01*
X174556443Y-60671467D01*
X174482348Y-60810087D01*
X174472778Y-60827991D01*
X174443448Y-60863729D01*
X174360186Y-60965186D01*
X174258729Y-61048448D01*
X174222991Y-61077778D01*
X174222989Y-61077779D01*
X174066467Y-61161443D01*
X174009853Y-61178616D01*
X173896627Y-61212963D01*
X173830442Y-61219482D01*
X173764260Y-61226000D01*
X173675740Y-61226000D01*
X173609558Y-61219482D01*
X173543373Y-61212963D01*
X173430147Y-61178616D01*
X173373533Y-61161443D01*
X173217011Y-61077779D01*
X173217009Y-61077778D01*
X173181271Y-61048448D01*
X173079814Y-60965186D01*
X172996552Y-60863729D01*
X172967222Y-60827991D01*
X172957652Y-60810087D01*
X172883557Y-60671467D01*
X172840246Y-60528687D01*
X172832037Y-60501627D01*
X172814641Y-60325000D01*
X172832037Y-60148373D01*
X172883557Y-59978534D01*
X172883557Y-59978533D01*
X172967221Y-59822011D01*
X172967222Y-59822009D01*
X173006773Y-59773816D01*
X173079814Y-59684814D01*
X173181271Y-59601552D01*
X173217009Y-59572222D01*
X173308761Y-59523179D01*
X173373533Y-59488557D01*
X173430147Y-59471384D01*
X173543373Y-59437037D01*
X173609558Y-59430518D01*
X173675740Y-59424000D01*
X173764260Y-59424000D01*
X173830442Y-59430518D01*
X173830442Y-59430518D01*
G37*
G36*
X182223228Y-58871703D02*
X182378100Y-58935853D01*
X182517481Y-59028985D01*
X182636015Y-59147519D01*
X182729147Y-59286900D01*
X182793297Y-59441772D01*
X182826000Y-59606184D01*
X182826000Y-59773816D01*
X182793297Y-59938228D01*
X182729147Y-60093100D01*
X182636015Y-60232481D01*
X182517481Y-60351015D01*
X182378100Y-60444147D01*
X182223228Y-60508297D01*
X182058816Y-60541000D01*
X181891184Y-60541000D01*
X181726772Y-60508297D01*
X181571900Y-60444147D01*
X181432519Y-60351015D01*
X181313985Y-60232481D01*
X181220853Y-60093100D01*
X181156703Y-59938228D01*
X181124000Y-59773816D01*
X181124000Y-59606184D01*
X181156703Y-59441772D01*
X181220853Y-59286900D01*
X181313985Y-59147519D01*
X181432519Y-59028985D01*
X181571900Y-58935853D01*
X181726772Y-58871703D01*
X181891184Y-58839000D01*
X182058816Y-58839000D01*
X182223228Y-58871703D01*
X182223228Y-58871703D01*
G37*
G36*
X192301821Y-58851313D02*
X192301824Y-58851314D01*
X192301825Y-58851314D01*
X192462239Y-58899975D01*
X192462241Y-58899976D01*
X192462244Y-58899977D01*
X192610078Y-58978995D01*
X192739659Y-59085341D01*
X192846005Y-59214922D01*
X192925023Y-59362756D01*
X192925024Y-59362759D01*
X192925025Y-59362761D01*
X192973686Y-59523175D01*
X192973687Y-59523179D01*
X192990117Y-59690000D01*
X192973687Y-59856821D01*
X192973686Y-59856824D01*
X192973686Y-59856825D01*
X192948993Y-59938228D01*
X192925023Y-60017244D01*
X192846005Y-60165078D01*
X192739659Y-60294659D01*
X192610078Y-60401005D01*
X192462244Y-60480023D01*
X192462241Y-60480024D01*
X192462239Y-60480025D01*
X192301825Y-60528686D01*
X192301824Y-60528686D01*
X192301821Y-60528687D01*
X192176804Y-60541000D01*
X192093196Y-60541000D01*
X191968179Y-60528687D01*
X191968176Y-60528686D01*
X191968175Y-60528686D01*
X191807761Y-60480025D01*
X191807759Y-60480024D01*
X191807756Y-60480023D01*
X191659922Y-60401005D01*
X191530341Y-60294659D01*
X191423995Y-60165078D01*
X191344977Y-60017244D01*
X191321008Y-59938228D01*
X191296314Y-59856825D01*
X191296314Y-59856824D01*
X191296313Y-59856821D01*
X191279883Y-59690000D01*
X191296313Y-59523179D01*
X191296314Y-59523175D01*
X191344975Y-59362761D01*
X191344976Y-59362759D01*
X191344977Y-59362756D01*
X191423995Y-59214922D01*
X191530341Y-59085341D01*
X191659922Y-58978995D01*
X191807756Y-58899977D01*
X191807759Y-58899976D01*
X191807761Y-58899975D01*
X191968175Y-58851314D01*
X191968176Y-58851314D01*
X191968179Y-58851313D01*
X192093196Y-58839000D01*
X192176804Y-58839000D01*
X192301821Y-58851313D01*
X192301821Y-58851313D01*
G37*
G36*
X177775239Y-53377101D02*
X178011053Y-53448634D01*
X178228381Y-53564799D01*
X178418871Y-53721129D01*
X178575201Y-53911619D01*
X178691366Y-54128947D01*
X178762899Y-54364761D01*
X178787053Y-54610000D01*
X178762899Y-54855239D01*
X178691366Y-55091053D01*
X178575201Y-55308381D01*
X178418871Y-55498871D01*
X178228381Y-55655201D01*
X178011053Y-55771366D01*
X177775239Y-55842899D01*
X177591457Y-55861000D01*
X177468543Y-55861000D01*
X177284761Y-55842899D01*
X177048947Y-55771366D01*
X176831619Y-55655201D01*
X176641129Y-55498871D01*
X176484799Y-55308381D01*
X176368634Y-55091053D01*
X176297101Y-54855239D01*
X176272947Y-54610000D01*
X176297101Y-54364761D01*
X176368634Y-54128947D01*
X176484799Y-53911619D01*
X176641129Y-53721129D01*
X176831619Y-53564799D01*
X177048947Y-53448634D01*
X177284761Y-53377101D01*
X177468543Y-53359000D01*
X177591457Y-53359000D01*
X177775239Y-53377101D01*
X177775239Y-53377101D01*
G37*
G36*
X174971000Y-55861000D02*
X172469000Y-55861000D01*
X172469000Y-53359000D01*
X174971000Y-53359000D01*
X174971000Y-55861000D01*
X174971000Y-55861000D01*
G37*
G36*
X189761000Y-52646000D02*
X189596664Y-52646000D01*
X189572278Y-52648402D01*
X189548829Y-52655515D01*
X189527218Y-52667066D01*
X189508276Y-52682612D01*
X189492730Y-52701554D01*
X189481179Y-52723165D01*
X189474066Y-52746614D01*
X189471664Y-52771000D01*
X189474066Y-52795386D01*
X189481179Y-52818835D01*
X189492730Y-52840446D01*
X189517365Y-52867626D01*
X189594264Y-52930736D01*
X189666244Y-53018443D01*
X189719729Y-53118508D01*
X189752666Y-53227084D01*
X189763787Y-53340000D01*
X189752666Y-53452916D01*
X189719729Y-53561492D01*
X189719726Y-53561497D01*
X189666244Y-53661557D01*
X189594264Y-53749264D01*
X189506557Y-53821244D01*
X189425143Y-53864760D01*
X189404768Y-53878373D01*
X189387441Y-53895701D01*
X189373827Y-53916075D01*
X189364450Y-53938714D01*
X189359669Y-53962747D01*
X189359669Y-53987252D01*
X189364449Y-54011285D01*
X189373827Y-54033924D01*
X189387440Y-54054299D01*
X189404768Y-54071626D01*
X189425143Y-54085240D01*
X189506557Y-54128756D01*
X189594264Y-54200736D01*
X189666244Y-54288443D01*
X189719729Y-54388508D01*
X189752666Y-54497084D01*
X189763787Y-54610000D01*
X189752666Y-54722916D01*
X189719729Y-54831492D01*
X189666244Y-54931557D01*
X189594264Y-55019264D01*
X189506557Y-55091244D01*
X189406492Y-55144729D01*
X189297916Y-55177666D01*
X189213298Y-55186000D01*
X188706702Y-55186000D01*
X188622084Y-55177666D01*
X188513508Y-55144729D01*
X188413443Y-55091244D01*
X188325736Y-55019264D01*
X188253756Y-54931557D01*
X188200271Y-54831492D01*
X188167334Y-54722916D01*
X188156213Y-54610000D01*
X188167334Y-54497084D01*
X188200271Y-54388508D01*
X188253756Y-54288443D01*
X188325736Y-54200736D01*
X188413443Y-54128756D01*
X188494857Y-54085240D01*
X188515232Y-54071627D01*
X188532559Y-54054299D01*
X188546173Y-54033925D01*
X188555550Y-54011286D01*
X188560331Y-53987253D01*
X188560331Y-53962748D01*
X188555551Y-53938715D01*
X188546173Y-53916076D01*
X188532560Y-53895701D01*
X188515232Y-53878374D01*
X188494857Y-53864760D01*
X188413443Y-53821244D01*
X188325736Y-53749264D01*
X188253756Y-53661557D01*
X188200274Y-53561497D01*
X188200271Y-53561492D01*
X188167334Y-53452916D01*
X188156213Y-53340000D01*
X188167334Y-53227084D01*
X188200271Y-53118508D01*
X188253756Y-53018443D01*
X188325736Y-52930736D01*
X188402635Y-52867626D01*
X188419962Y-52850299D01*
X188433576Y-52829924D01*
X188442954Y-52807285D01*
X188447734Y-52783252D01*
X188447734Y-52758748D01*
X188442953Y-52734714D01*
X188433576Y-52712075D01*
X188419962Y-52691701D01*
X188402635Y-52674374D01*
X188382260Y-52660760D01*
X188359621Y-52651382D01*
X188323336Y-52646000D01*
X188159000Y-52646000D01*
X188159000Y-51494000D01*
X189761000Y-51494000D01*
X189761000Y-52646000D01*
X189761000Y-52646000D01*
G37*
G36*
X168128589Y-47632416D02*
X168255520Y-47657664D01*
X168414942Y-47723699D01*
X168558418Y-47819566D01*
X168680434Y-47941582D01*
X168776301Y-48085058D01*
X168842336Y-48244480D01*
X168876000Y-48413721D01*
X168876000Y-48586279D01*
X168842336Y-48755520D01*
X168776301Y-48914942D01*
X168680434Y-49058418D01*
X168558418Y-49180434D01*
X168414942Y-49276301D01*
X168255520Y-49342336D01*
X168128589Y-49367584D01*
X168086280Y-49376000D01*
X167913720Y-49376000D01*
X167871411Y-49367584D01*
X167744480Y-49342336D01*
X167585058Y-49276301D01*
X167441582Y-49180434D01*
X167319566Y-49058418D01*
X167223699Y-48914942D01*
X167157664Y-48755520D01*
X167124000Y-48586279D01*
X167124000Y-48413721D01*
X167157664Y-48244480D01*
X167223699Y-48085058D01*
X167319566Y-47941582D01*
X167441582Y-47819566D01*
X167585058Y-47723699D01*
X167744480Y-47657664D01*
X167871411Y-47632416D01*
X167913720Y-47624000D01*
X168086280Y-47624000D01*
X168128589Y-47632416D01*
X168128589Y-47632416D01*
G37*
G36*
X182876000Y-48526000D02*
X181074000Y-48526000D01*
X181074000Y-46724000D01*
X182876000Y-46724000D01*
X182876000Y-48526000D01*
X182876000Y-48526000D01*
G37*
G36*
X179545442Y-46730518D02*
X179611627Y-46737037D01*
X179724853Y-46771384D01*
X179781467Y-46788557D01*
X179920087Y-46862652D01*
X179937991Y-46872222D01*
X179973729Y-46901552D01*
X180075186Y-46984814D01*
X180158448Y-47086271D01*
X180187778Y-47122009D01*
X180187779Y-47122011D01*
X180271443Y-47278533D01*
X180271443Y-47278534D01*
X180322963Y-47448373D01*
X180340359Y-47625000D01*
X180322963Y-47801627D01*
X180317521Y-47819566D01*
X180271443Y-47971467D01*
X180210726Y-48085058D01*
X180187778Y-48127991D01*
X180158448Y-48163729D01*
X180075186Y-48265186D01*
X179973729Y-48348448D01*
X179937991Y-48377778D01*
X179937989Y-48377779D01*
X179781467Y-48461443D01*
X179724853Y-48478616D01*
X179611627Y-48512963D01*
X179545442Y-48519482D01*
X179479260Y-48526000D01*
X179390740Y-48526000D01*
X179324557Y-48519481D01*
X179258373Y-48512963D01*
X179145147Y-48478616D01*
X179088533Y-48461443D01*
X178932011Y-48377779D01*
X178932009Y-48377778D01*
X178896271Y-48348448D01*
X178794814Y-48265186D01*
X178711552Y-48163729D01*
X178682222Y-48127991D01*
X178659274Y-48085058D01*
X178598557Y-47971467D01*
X178552479Y-47819566D01*
X178547037Y-47801627D01*
X178529641Y-47625000D01*
X178547037Y-47448373D01*
X178598557Y-47278534D01*
X178598557Y-47278533D01*
X178682221Y-47122011D01*
X178682222Y-47122009D01*
X178711552Y-47086271D01*
X178794814Y-46984814D01*
X178896271Y-46901552D01*
X178932009Y-46872222D01*
X178949913Y-46862652D01*
X179088533Y-46788557D01*
X179145147Y-46771384D01*
X179258373Y-46737037D01*
X179324558Y-46730518D01*
X179390740Y-46724000D01*
X179479260Y-46724000D01*
X179545442Y-46730518D01*
X179545442Y-46730518D01*
G37*
G36*
X187802916Y-46197334D02*
X187911492Y-46230271D01*
X188011557Y-46283756D01*
X188099264Y-46355736D01*
X188162374Y-46432635D01*
X188179701Y-46449962D01*
X188200076Y-46463576D01*
X188222715Y-46472954D01*
X188246748Y-46477734D01*
X188271252Y-46477734D01*
X188295286Y-46472953D01*
X188317925Y-46463576D01*
X188338299Y-46449962D01*
X188355626Y-46432635D01*
X188369240Y-46412260D01*
X188378618Y-46389621D01*
X188384000Y-46353336D01*
X188384000Y-46189000D01*
X189536000Y-46189000D01*
X189536000Y-47791000D01*
X188384000Y-47791000D01*
X188384000Y-47626663D01*
X188381598Y-47602277D01*
X188374485Y-47578828D01*
X188362934Y-47557217D01*
X188347388Y-47538275D01*
X188328446Y-47522729D01*
X188306835Y-47511178D01*
X188283386Y-47504065D01*
X188259000Y-47501663D01*
X188234614Y-47504065D01*
X188211165Y-47511178D01*
X188189554Y-47522729D01*
X188162377Y-47547361D01*
X188099264Y-47624264D01*
X188011556Y-47696244D01*
X187911491Y-47749729D01*
X187802915Y-47782666D01*
X187690000Y-47793787D01*
X187577084Y-47782666D01*
X187468508Y-47749729D01*
X187368443Y-47696244D01*
X187280736Y-47624264D01*
X187208756Y-47536556D01*
X187165240Y-47455142D01*
X187151627Y-47434767D01*
X187134299Y-47417440D01*
X187113925Y-47403826D01*
X187091286Y-47394449D01*
X187067253Y-47389668D01*
X187042748Y-47389668D01*
X187018715Y-47394448D01*
X186996076Y-47403826D01*
X186975701Y-47417439D01*
X186958374Y-47434767D01*
X186944767Y-47455131D01*
X186901244Y-47536557D01*
X186829264Y-47624264D01*
X186741556Y-47696244D01*
X186641491Y-47749729D01*
X186532915Y-47782666D01*
X186420000Y-47793787D01*
X186307084Y-47782666D01*
X186198508Y-47749729D01*
X186098443Y-47696244D01*
X186010736Y-47624264D01*
X185938756Y-47536556D01*
X185885271Y-47436491D01*
X185852334Y-47327915D01*
X185844000Y-47243297D01*
X185844000Y-46736702D01*
X185852334Y-46652084D01*
X185885271Y-46543508D01*
X185922983Y-46472954D01*
X185938755Y-46443446D01*
X185964349Y-46412260D01*
X186010737Y-46355736D01*
X186098444Y-46283756D01*
X186198509Y-46230271D01*
X186307085Y-46197334D01*
X186420000Y-46186213D01*
X186532916Y-46197334D01*
X186641492Y-46230271D01*
X186741557Y-46283756D01*
X186829264Y-46355736D01*
X186901244Y-46443443D01*
X186944760Y-46524857D01*
X186958373Y-46545232D01*
X186975701Y-46562559D01*
X186996075Y-46576173D01*
X187018714Y-46585550D01*
X187042747Y-46590331D01*
X187067252Y-46590331D01*
X187091285Y-46585551D01*
X187113924Y-46576173D01*
X187134299Y-46562560D01*
X187151626Y-46545232D01*
X187165240Y-46524857D01*
X187208755Y-46443446D01*
X187234349Y-46412260D01*
X187280737Y-46355736D01*
X187368444Y-46283756D01*
X187468509Y-46230271D01*
X187577085Y-46197334D01*
X187690000Y-46186213D01*
X187802916Y-46197334D01*
X187802916Y-46197334D01*
G37*
G36*
X192936821Y-43611313D02*
X192936824Y-43611314D01*
X192936825Y-43611314D01*
X193097239Y-43659975D01*
X193097241Y-43659976D01*
X193097244Y-43659977D01*
X193245078Y-43738995D01*
X193374659Y-43845341D01*
X193481005Y-43974922D01*
X193560023Y-44122756D01*
X193608687Y-44283179D01*
X193625117Y-44450000D01*
X193608687Y-44616821D01*
X193560023Y-44777244D01*
X193481005Y-44925078D01*
X193374659Y-45054659D01*
X193245078Y-45161005D01*
X193097244Y-45240023D01*
X193097241Y-45240024D01*
X193097239Y-45240025D01*
X192936825Y-45288686D01*
X192936824Y-45288686D01*
X192936821Y-45288687D01*
X192811804Y-45301000D01*
X192728196Y-45301000D01*
X192603179Y-45288687D01*
X192603176Y-45288686D01*
X192603175Y-45288686D01*
X192442761Y-45240025D01*
X192442759Y-45240024D01*
X192442756Y-45240023D01*
X192294922Y-45161005D01*
X192165341Y-45054659D01*
X192058995Y-44925078D01*
X191979977Y-44777244D01*
X191931313Y-44616821D01*
X191914883Y-44450000D01*
X191931313Y-44283179D01*
X191979977Y-44122756D01*
X192058995Y-43974922D01*
X192165341Y-43845341D01*
X192294922Y-43738995D01*
X192442756Y-43659977D01*
X192442759Y-43659976D01*
X192442761Y-43659975D01*
X192603175Y-43611314D01*
X192603176Y-43611314D01*
X192603179Y-43611313D01*
X192728196Y-43599000D01*
X192811804Y-43599000D01*
X192936821Y-43611313D01*
X192936821Y-43611313D01*
G37*
G36*
X168876000Y-44376000D02*
X167124000Y-44376000D01*
X167124000Y-42624000D01*
X168876000Y-42624000D01*
X168876000Y-44376000D01*
X168876000Y-44376000D01*
G37*
G36*
X179056991Y-38276101D02*
X179142321Y-38284505D01*
X179279172Y-38326019D01*
X179279174Y-38326020D01*
X179279177Y-38326021D01*
X179405296Y-38393432D01*
X179515843Y-38484157D01*
X179606568Y-38594704D01*
X179673979Y-38720823D01*
X179673980Y-38720826D01*
X179673981Y-38720828D01*
X179715495Y-38857679D01*
X179729512Y-39000000D01*
X179715495Y-39142321D01*
X179673981Y-39279172D01*
X179673979Y-39279177D01*
X179606568Y-39405296D01*
X179515843Y-39515843D01*
X179405296Y-39606568D01*
X179279177Y-39673979D01*
X179279174Y-39673980D01*
X179279172Y-39673981D01*
X179142321Y-39715495D01*
X179056991Y-39723899D01*
X179035660Y-39726000D01*
X178964340Y-39726000D01*
X178943009Y-39723899D01*
X178857679Y-39715495D01*
X178720828Y-39673981D01*
X178720826Y-39673980D01*
X178720823Y-39673979D01*
X178594704Y-39606568D01*
X178484157Y-39515843D01*
X178393432Y-39405296D01*
X178326021Y-39279177D01*
X178326019Y-39279172D01*
X178284505Y-39142321D01*
X178270488Y-39000000D01*
X178284505Y-38857679D01*
X178326019Y-38720828D01*
X178326020Y-38720826D01*
X178326021Y-38720823D01*
X178393432Y-38594704D01*
X178484157Y-38484157D01*
X178594704Y-38393432D01*
X178720823Y-38326021D01*
X178720826Y-38326020D01*
X178720828Y-38326019D01*
X178857679Y-38284505D01*
X178943009Y-38276101D01*
X178964340Y-38274000D01*
X179035660Y-38274000D01*
X179056991Y-38276101D01*
X179056991Y-38276101D01*
G37*
G36*
X177056991Y-38276101D02*
X177142321Y-38284505D01*
X177279172Y-38326019D01*
X177279174Y-38326020D01*
X177279177Y-38326021D01*
X177405296Y-38393432D01*
X177515843Y-38484157D01*
X177606568Y-38594704D01*
X177673979Y-38720823D01*
X177673980Y-38720826D01*
X177673981Y-38720828D01*
X177715495Y-38857679D01*
X177729512Y-39000000D01*
X177715495Y-39142321D01*
X177673981Y-39279172D01*
X177673979Y-39279177D01*
X177606568Y-39405296D01*
X177515843Y-39515843D01*
X177405296Y-39606568D01*
X177279177Y-39673979D01*
X177279174Y-39673980D01*
X177279172Y-39673981D01*
X177142321Y-39715495D01*
X177056991Y-39723899D01*
X177035660Y-39726000D01*
X176964340Y-39726000D01*
X176943009Y-39723899D01*
X176857679Y-39715495D01*
X176720828Y-39673981D01*
X176720826Y-39673980D01*
X176720823Y-39673979D01*
X176594704Y-39606568D01*
X176484157Y-39515843D01*
X176393432Y-39405296D01*
X176326021Y-39279177D01*
X176326019Y-39279172D01*
X176284505Y-39142321D01*
X176270488Y-39000000D01*
X176284505Y-38857679D01*
X176326019Y-38720828D01*
X176326020Y-38720826D01*
X176326021Y-38720823D01*
X176393432Y-38594704D01*
X176484157Y-38484157D01*
X176594704Y-38393432D01*
X176720823Y-38326021D01*
X176720826Y-38326020D01*
X176720828Y-38326019D01*
X176857679Y-38284505D01*
X176943009Y-38276101D01*
X176964340Y-38274000D01*
X177035660Y-38274000D01*
X177056991Y-38276101D01*
X177056991Y-38276101D01*
G37*
G36*
X175726000Y-39726000D02*
X174274000Y-39726000D01*
X174274000Y-38274000D01*
X175726000Y-38274000D01*
X175726000Y-39726000D01*
X175726000Y-39726000D01*
G37*
G36*
X187956000Y-35191000D02*
X186154000Y-35191000D01*
X186154000Y-33389000D01*
X187956000Y-33389000D01*
X187956000Y-35191000D01*
X187956000Y-35191000D01*
G37*
G36*
X177005442Y-33395518D02*
X177071627Y-33402037D01*
X177184853Y-33436384D01*
X177241467Y-33453557D01*
X177380087Y-33527652D01*
X177397991Y-33537222D01*
X177433729Y-33566552D01*
X177535186Y-33649814D01*
X177615369Y-33747519D01*
X177647778Y-33787009D01*
X177647779Y-33787011D01*
X177731443Y-33943533D01*
X177731443Y-33943534D01*
X177782963Y-34113373D01*
X177800359Y-34290000D01*
X177782963Y-34466627D01*
X177761243Y-34538228D01*
X177731443Y-34636467D01*
X177657348Y-34775087D01*
X177647778Y-34792991D01*
X177618448Y-34828729D01*
X177535186Y-34930186D01*
X177433729Y-35013448D01*
X177397991Y-35042778D01*
X177397989Y-35042779D01*
X177241467Y-35126443D01*
X177193478Y-35141000D01*
X177071627Y-35177963D01*
X177005442Y-35184482D01*
X176939260Y-35191000D01*
X176850740Y-35191000D01*
X176784558Y-35184482D01*
X176718373Y-35177963D01*
X176596522Y-35141000D01*
X176548533Y-35126443D01*
X176392011Y-35042779D01*
X176392009Y-35042778D01*
X176356271Y-35013448D01*
X176254814Y-34930186D01*
X176171552Y-34828729D01*
X176142222Y-34792991D01*
X176132652Y-34775087D01*
X176058557Y-34636467D01*
X176028757Y-34538228D01*
X176007037Y-34466627D01*
X175989641Y-34290000D01*
X176007037Y-34113373D01*
X176058557Y-33943534D01*
X176058557Y-33943533D01*
X176142221Y-33787011D01*
X176142222Y-33787009D01*
X176174631Y-33747519D01*
X176254814Y-33649814D01*
X176356271Y-33566552D01*
X176392009Y-33537222D01*
X176409913Y-33527652D01*
X176548533Y-33453557D01*
X176605147Y-33436384D01*
X176718373Y-33402037D01*
X176784558Y-33395518D01*
X176850740Y-33389000D01*
X176939260Y-33389000D01*
X177005442Y-33395518D01*
X177005442Y-33395518D01*
G37*
G36*
X179545442Y-33395518D02*
X179611627Y-33402037D01*
X179724853Y-33436384D01*
X179781467Y-33453557D01*
X179920087Y-33527652D01*
X179937991Y-33537222D01*
X179973729Y-33566552D01*
X180075186Y-33649814D01*
X180155369Y-33747519D01*
X180187778Y-33787009D01*
X180187779Y-33787011D01*
X180271443Y-33943533D01*
X180271443Y-33943534D01*
X180322963Y-34113373D01*
X180340359Y-34290000D01*
X180322963Y-34466627D01*
X180301243Y-34538228D01*
X180271443Y-34636467D01*
X180197348Y-34775087D01*
X180187778Y-34792991D01*
X180158448Y-34828729D01*
X180075186Y-34930186D01*
X179973729Y-35013448D01*
X179937991Y-35042778D01*
X179937989Y-35042779D01*
X179781467Y-35126443D01*
X179733478Y-35141000D01*
X179611627Y-35177963D01*
X179545442Y-35184482D01*
X179479260Y-35191000D01*
X179390740Y-35191000D01*
X179324558Y-35184482D01*
X179258373Y-35177963D01*
X179136522Y-35141000D01*
X179088533Y-35126443D01*
X178932011Y-35042779D01*
X178932009Y-35042778D01*
X178896271Y-35013448D01*
X178794814Y-34930186D01*
X178711552Y-34828729D01*
X178682222Y-34792991D01*
X178672652Y-34775087D01*
X178598557Y-34636467D01*
X178568757Y-34538228D01*
X178547037Y-34466627D01*
X178529641Y-34290000D01*
X178547037Y-34113373D01*
X178598557Y-33943534D01*
X178598557Y-33943533D01*
X178682221Y-33787011D01*
X178682222Y-33787009D01*
X178714631Y-33747519D01*
X178794814Y-33649814D01*
X178896271Y-33566552D01*
X178932009Y-33537222D01*
X178949913Y-33527652D01*
X179088533Y-33453557D01*
X179145147Y-33436384D01*
X179258373Y-33402037D01*
X179324558Y-33395518D01*
X179390740Y-33389000D01*
X179479260Y-33389000D01*
X179545442Y-33395518D01*
X179545442Y-33395518D01*
G37*
G36*
X182085442Y-33395518D02*
X182151627Y-33402037D01*
X182264853Y-33436384D01*
X182321467Y-33453557D01*
X182460087Y-33527652D01*
X182477991Y-33537222D01*
X182513729Y-33566552D01*
X182615186Y-33649814D01*
X182695369Y-33747519D01*
X182727778Y-33787009D01*
X182727779Y-33787011D01*
X182811443Y-33943533D01*
X182811443Y-33943534D01*
X182862963Y-34113373D01*
X182880359Y-34290000D01*
X182862963Y-34466627D01*
X182841243Y-34538228D01*
X182811443Y-34636467D01*
X182737348Y-34775087D01*
X182727778Y-34792991D01*
X182698448Y-34828729D01*
X182615186Y-34930186D01*
X182513729Y-35013448D01*
X182477991Y-35042778D01*
X182477989Y-35042779D01*
X182321467Y-35126443D01*
X182273478Y-35141000D01*
X182151627Y-35177963D01*
X182085443Y-35184481D01*
X182019260Y-35191000D01*
X181930740Y-35191000D01*
X181864558Y-35184482D01*
X181798373Y-35177963D01*
X181676522Y-35141000D01*
X181628533Y-35126443D01*
X181472011Y-35042779D01*
X181472009Y-35042778D01*
X181436271Y-35013448D01*
X181334814Y-34930186D01*
X181251552Y-34828729D01*
X181222222Y-34792991D01*
X181212652Y-34775087D01*
X181138557Y-34636467D01*
X181108757Y-34538228D01*
X181087037Y-34466627D01*
X181069641Y-34290000D01*
X181087037Y-34113373D01*
X181138557Y-33943534D01*
X181138557Y-33943533D01*
X181222221Y-33787011D01*
X181222222Y-33787009D01*
X181254631Y-33747519D01*
X181334814Y-33649814D01*
X181436271Y-33566552D01*
X181472009Y-33537222D01*
X181489913Y-33527652D01*
X181628533Y-33453557D01*
X181685147Y-33436384D01*
X181798373Y-33402037D01*
X181864558Y-33395518D01*
X181930740Y-33389000D01*
X182019260Y-33389000D01*
X182085442Y-33395518D01*
X182085442Y-33395518D01*
G37*
G36*
X184625442Y-33395518D02*
X184691627Y-33402037D01*
X184804853Y-33436384D01*
X184861467Y-33453557D01*
X185000087Y-33527652D01*
X185017991Y-33537222D01*
X185053729Y-33566552D01*
X185155186Y-33649814D01*
X185235369Y-33747519D01*
X185267778Y-33787009D01*
X185267779Y-33787011D01*
X185351443Y-33943533D01*
X185351443Y-33943534D01*
X185402963Y-34113373D01*
X185420359Y-34290000D01*
X185402963Y-34466627D01*
X185381243Y-34538228D01*
X185351443Y-34636467D01*
X185277348Y-34775087D01*
X185267778Y-34792991D01*
X185238448Y-34828729D01*
X185155186Y-34930186D01*
X185053729Y-35013448D01*
X185017991Y-35042778D01*
X185017989Y-35042779D01*
X184861467Y-35126443D01*
X184813478Y-35141000D01*
X184691627Y-35177963D01*
X184625443Y-35184481D01*
X184559260Y-35191000D01*
X184470740Y-35191000D01*
X184404558Y-35184482D01*
X184338373Y-35177963D01*
X184216522Y-35141000D01*
X184168533Y-35126443D01*
X184012011Y-35042779D01*
X184012009Y-35042778D01*
X183976271Y-35013448D01*
X183874814Y-34930186D01*
X183791552Y-34828729D01*
X183762222Y-34792991D01*
X183752652Y-34775087D01*
X183678557Y-34636467D01*
X183648757Y-34538228D01*
X183627037Y-34466627D01*
X183609641Y-34290000D01*
X183627037Y-34113373D01*
X183678557Y-33943534D01*
X183678557Y-33943533D01*
X183762221Y-33787011D01*
X183762222Y-33787009D01*
X183794631Y-33747519D01*
X183874814Y-33649814D01*
X183976271Y-33566552D01*
X184012009Y-33537222D01*
X184029913Y-33527652D01*
X184168533Y-33453557D01*
X184225147Y-33436384D01*
X184338373Y-33402037D01*
X184404558Y-33395518D01*
X184470740Y-33389000D01*
X184559260Y-33389000D01*
X184625442Y-33395518D01*
X184625442Y-33395518D01*
G37*
G36*
X193018228Y-33471703D02*
X193173100Y-33535853D01*
X193312481Y-33628985D01*
X193431015Y-33747519D01*
X193524147Y-33886900D01*
X193588297Y-34041772D01*
X193621000Y-34206184D01*
X193621000Y-34373816D01*
X193588297Y-34538228D01*
X193524147Y-34693100D01*
X193431015Y-34832481D01*
X193312481Y-34951015D01*
X193173100Y-35044147D01*
X193018228Y-35108297D01*
X192853816Y-35141000D01*
X192686184Y-35141000D01*
X192521772Y-35108297D01*
X192366900Y-35044147D01*
X192227519Y-34951015D01*
X192108985Y-34832481D01*
X192015853Y-34693100D01*
X191951703Y-34538228D01*
X191919000Y-34373816D01*
X191919000Y-34206184D01*
X191951703Y-34041772D01*
X192015853Y-33886900D01*
X192108985Y-33747519D01*
X192227519Y-33628985D01*
X192366900Y-33535853D01*
X192521772Y-33471703D01*
X192686184Y-33439000D01*
X192853816Y-33439000D01*
X193018228Y-33471703D01*
X193018228Y-33471703D01*
G37*
G36*
X162308445Y-27766254D02*
X162656593Y-27835504D01*
X163066249Y-28005189D01*
X163434929Y-28251534D01*
X163748466Y-28565071D01*
X163994811Y-28933751D01*
X164164496Y-29343407D01*
X164251000Y-29778296D01*
X164251000Y-30221704D01*
X164164496Y-30656593D01*
X163994811Y-31066249D01*
X163748466Y-31434929D01*
X163434929Y-31748466D01*
X163066249Y-31994811D01*
X162656593Y-32164496D01*
X162308445Y-32233746D01*
X162221706Y-32251000D01*
X161778294Y-32251000D01*
X161691555Y-32233746D01*
X161343407Y-32164496D01*
X160933751Y-31994811D01*
X160565071Y-31748466D01*
X160251534Y-31434929D01*
X160005189Y-31066249D01*
X159835504Y-30656593D01*
X159749000Y-30221704D01*
X159749000Y-29778296D01*
X159835504Y-29343407D01*
X160005189Y-28933751D01*
X160251534Y-28565071D01*
X160565071Y-28251534D01*
X160933751Y-28005189D01*
X161343407Y-27835504D01*
X161691555Y-27766254D01*
X161778294Y-27749000D01*
X162221706Y-27749000D01*
X162308445Y-27766254D01*
X162308445Y-27766254D01*
G37*
G36*
X199308445Y-27766254D02*
X199656593Y-27835504D01*
X200066249Y-28005189D01*
X200434929Y-28251534D01*
X200748466Y-28565071D01*
X200994811Y-28933751D01*
X201164496Y-29343407D01*
X201251000Y-29778296D01*
X201251000Y-30221704D01*
X201164496Y-30656593D01*
X200994811Y-31066249D01*
X200748466Y-31434929D01*
X200434929Y-31748466D01*
X200066249Y-31994811D01*
X199656593Y-32164496D01*
X199308445Y-32233746D01*
X199221706Y-32251000D01*
X198778294Y-32251000D01*
X198691555Y-32233746D01*
X198343407Y-32164496D01*
X197933751Y-31994811D01*
X197565071Y-31748466D01*
X197251534Y-31434929D01*
X197005189Y-31066249D01*
X196835504Y-30656593D01*
X196749000Y-30221704D01*
X196749000Y-29778296D01*
X196835504Y-29343407D01*
X197005189Y-28933751D01*
X197251534Y-28565071D01*
X197565071Y-28251534D01*
X197933751Y-28005189D01*
X198343407Y-27835504D01*
X198691555Y-27766254D01*
X198778294Y-27749000D01*
X199221706Y-27749000D01*
X199308445Y-27766254D01*
X199308445Y-27766254D01*
G37*
M02*
