%TF.GenerationSoftware,KiCad,Pcbnew,(5.0.1)-4*%
%TF.CreationDate,2019-03-02T17:13:33-06:00*%
%TF.ProjectId,pcbdesign,70636264657369676E2E6B696361645F,rev?*%
%TF.SameCoordinates,Original*%
%TF.FileFunction,Copper,L2,Bot,Signal*%
%TF.FilePolarity,Positive*%
%FSLAX46Y46*%
G04 Gerber Fmt 4.6, Leading zero omitted, Abs format (unit mm)*
G04 Created by KiCad (PCBNEW (5.0.1)-4) date 2019-03-02 5:13:33 PM*
%MOMM*%
%LPD*%
G01*
G04 APERTURE LIST*
%ADD10R,1.700000X1.700000*%
%ADD11O,1.700000X1.700000*%
%ADD12C,1.650000*%
%ADD13R,1.650000X1.650000*%
%ADD14O,1.350000X1.350000*%
%ADD15R,1.350000X1.350000*%
%ADD16O,1.600000X1.600000*%
%ADD17C,1.600000*%
%ADD18R,2.400000X2.400000*%
%ADD19O,2.400000X2.400000*%
%ADD20R,1.500000X1.050000*%
%ADD21O,1.500000X1.050000*%
%ADD22O,1.050000X1.500000*%
%ADD23R,1.050000X1.500000*%
%ADD24C,4.400000*%
%ADD25C,0.250000*%
G04 APERTURE END LIST*
D10*
X187055000Y-34290000D03*
D11*
X184515000Y-34290000D03*
X181975000Y-34290000D03*
X179435000Y-34290000D03*
X176895000Y-34290000D03*
D12*
X168000000Y-48500000D03*
D13*
X168000000Y-43500000D03*
D11*
X179435000Y-47625000D03*
D10*
X181975000Y-47625000D03*
D14*
X179000000Y-39000000D03*
X177000000Y-39000000D03*
D15*
X175000000Y-39000000D03*
D16*
X192770000Y-44450000D03*
D17*
X192770000Y-34290000D03*
D16*
X192135000Y-59690000D03*
D17*
X181975000Y-59690000D03*
D18*
X173720000Y-54610000D03*
D19*
X177530000Y-54610000D03*
D10*
X176260000Y-60325000D03*
D11*
X173720000Y-60325000D03*
D20*
X188960000Y-52070000D03*
D21*
X188960000Y-54610000D03*
X188960000Y-53340000D03*
D22*
X187690000Y-46990000D03*
X186420000Y-46990000D03*
D23*
X188960000Y-46990000D03*
D24*
X199000000Y-64000000D03*
X199000000Y-30000000D03*
X162000000Y-64000000D03*
X162000000Y-30000000D03*
D25*
X168000000Y-48500000D02*
X168000000Y-47000000D01*
X168000000Y-47000000D02*
X169000000Y-46000000D01*
X177810000Y-46000000D02*
X179435000Y-47625000D01*
X169000000Y-46000000D02*
X177810000Y-46000000D01*
X173720000Y-54610000D02*
X173720000Y-49720000D01*
X172500000Y-48500000D02*
X173720000Y-49720000D01*
X168000000Y-48500000D02*
X172500000Y-48500000D01*
X173720000Y-54610000D02*
X173720000Y-60325000D01*
X176260000Y-60325000D02*
X178675000Y-60325000D01*
X178675000Y-60325000D02*
X180000000Y-59000000D01*
X180000000Y-57080000D02*
X177530000Y-54610000D01*
X180000000Y-59000000D02*
X180000000Y-57080000D01*
X177530000Y-54610000D02*
X188960000Y-54610000D01*
X168000000Y-43500000D02*
X168000000Y-41000000D01*
X170000000Y-39000000D02*
X175000000Y-39000000D01*
X168000000Y-41000000D02*
X170000000Y-39000000D01*
X175000000Y-39000000D02*
X175000000Y-41000000D01*
X175000000Y-41000000D02*
X176000000Y-42000000D01*
X176000000Y-42000000D02*
X183000000Y-42000000D01*
X184515000Y-40485000D02*
X184515000Y-34290000D01*
X183000000Y-42000000D02*
X184515000Y-40485000D01*
X188960000Y-47990000D02*
X188960000Y-52070000D01*
X188960000Y-46990000D02*
X188960000Y-47990000D01*
X188960000Y-46990000D02*
X194990000Y-46990000D01*
X194990000Y-46990000D02*
X196000000Y-45980000D01*
X196000000Y-45980000D02*
X196000000Y-32000000D01*
X196000000Y-32000000D02*
X195000000Y-31000000D01*
X195000000Y-31000000D02*
X186000000Y-31000000D01*
X184515000Y-32485000D02*
X184515000Y-34290000D01*
X186000000Y-31000000D02*
X184515000Y-32485000D01*
X185785000Y-47625000D02*
X186420000Y-46990000D01*
X181975000Y-47625000D02*
X185785000Y-47625000D01*
X187055000Y-34290000D02*
X192770000Y-34290000D01*
X181975000Y-59690000D02*
X181975000Y-62025000D01*
X181975000Y-62025000D02*
X180000000Y-64000000D01*
X180000000Y-64000000D02*
X167000000Y-64000000D01*
X167000000Y-64000000D02*
X165000000Y-62000000D01*
X165000000Y-62000000D02*
X165000000Y-33000000D01*
X165000000Y-33000000D02*
X167000000Y-31000000D01*
X167000000Y-31000000D02*
X181000000Y-31000000D01*
X181975000Y-31975000D02*
X181975000Y-34290000D01*
X181000000Y-31000000D02*
X181975000Y-31975000D01*
X179000000Y-34725000D02*
X179435000Y-34290000D01*
X179000000Y-39000000D02*
X179000000Y-34725000D01*
X177000000Y-34395000D02*
X176895000Y-34290000D01*
X177000000Y-39000000D02*
X177000000Y-34395000D01*
X192135000Y-59690000D02*
X192135000Y-54135000D01*
X191340000Y-53340000D02*
X188960000Y-53340000D01*
X192135000Y-54135000D02*
X191340000Y-53340000D01*
X192770000Y-44450000D02*
X188550000Y-44450000D01*
X187690000Y-45310000D02*
X187690000Y-46990000D01*
X188550000Y-44450000D02*
X187690000Y-45310000D01*
M02*
