%TF.GenerationSoftware,KiCad,Pcbnew,(5.0.1)-4*%
%TF.CreationDate,2019-03-02T17:13:33-06:00*%
%TF.ProjectId,pcbdesign,70636264657369676E2E6B696361645F,rev?*%
%TF.SameCoordinates,Original*%
%TF.FileFunction,Legend,Top*%
%TF.FilePolarity,Positive*%
%FSLAX46Y46*%
G04 Gerber Fmt 4.6, Leading zero omitted, Abs format (unit mm)*
G04 Created by KiCad (PCBNEW (5.0.1)-4) date 2019-03-02 5:13:33 PM*
%MOMM*%
%LPD*%
G01*
G04 APERTURE LIST*
%ADD10C,0.300000*%
%ADD11C,0.120000*%
%ADD12C,0.200000*%
%ADD13C,0.127000*%
%ADD14C,0.150000*%
G04 APERTURE END LIST*
D10*
X172400000Y-27233333D02*
X173200000Y-27233333D01*
X172800000Y-28633333D02*
X172800000Y-27233333D01*
X173666666Y-28633333D02*
X173666666Y-27233333D01*
X174266666Y-28633333D02*
X174266666Y-27900000D01*
X174200000Y-27766666D01*
X174066666Y-27700000D01*
X173866666Y-27700000D01*
X173733333Y-27766666D01*
X173666666Y-27833333D01*
X175466666Y-28566666D02*
X175333333Y-28633333D01*
X175066666Y-28633333D01*
X174933333Y-28566666D01*
X174866666Y-28433333D01*
X174866666Y-27900000D01*
X174933333Y-27766666D01*
X175066666Y-27700000D01*
X175333333Y-27700000D01*
X175466666Y-27766666D01*
X175533333Y-27900000D01*
X175533333Y-28033333D01*
X174866666Y-28166666D01*
X176133333Y-28633333D02*
X176133333Y-27700000D01*
X176133333Y-27966666D02*
X176200000Y-27833333D01*
X176266666Y-27766666D01*
X176400000Y-27700000D01*
X176533333Y-27700000D01*
X177000000Y-28633333D02*
X177000000Y-27700000D01*
X177000000Y-27833333D02*
X177066666Y-27766666D01*
X177200000Y-27700000D01*
X177400000Y-27700000D01*
X177533333Y-27766666D01*
X177600000Y-27900000D01*
X177600000Y-28633333D01*
X177600000Y-27900000D02*
X177666666Y-27766666D01*
X177800000Y-27700000D01*
X178000000Y-27700000D01*
X178133333Y-27766666D01*
X178200000Y-27900000D01*
X178200000Y-28633333D01*
X179066666Y-28633333D02*
X178933333Y-28566666D01*
X178866666Y-28500000D01*
X178800000Y-28366666D01*
X178800000Y-27966666D01*
X178866666Y-27833333D01*
X178933333Y-27766666D01*
X179066666Y-27700000D01*
X179266666Y-27700000D01*
X179400000Y-27766666D01*
X179466666Y-27833333D01*
X179533333Y-27966666D01*
X179533333Y-28366666D01*
X179466666Y-28500000D01*
X179400000Y-28566666D01*
X179266666Y-28633333D01*
X179066666Y-28633333D01*
X180066666Y-28566666D02*
X180200000Y-28633333D01*
X180466666Y-28633333D01*
X180600000Y-28566666D01*
X180666666Y-28433333D01*
X180666666Y-28366666D01*
X180600000Y-28233333D01*
X180466666Y-28166666D01*
X180266666Y-28166666D01*
X180133333Y-28100000D01*
X180066666Y-27966666D01*
X180066666Y-27900000D01*
X180133333Y-27766666D01*
X180266666Y-27700000D01*
X180466666Y-27700000D01*
X180600000Y-27766666D01*
X181066666Y-27700000D02*
X181600000Y-27700000D01*
X181266666Y-27233333D02*
X181266666Y-28433333D01*
X181333333Y-28566666D01*
X181466666Y-28633333D01*
X181600000Y-28633333D01*
X182666666Y-28633333D02*
X182666666Y-27900000D01*
X182600000Y-27766666D01*
X182466666Y-27700000D01*
X182200000Y-27700000D01*
X182066666Y-27766666D01*
X182666666Y-28566666D02*
X182533333Y-28633333D01*
X182200000Y-28633333D01*
X182066666Y-28566666D01*
X182000000Y-28433333D01*
X182000000Y-28300000D01*
X182066666Y-28166666D01*
X182200000Y-28100000D01*
X182533333Y-28100000D01*
X182666666Y-28033333D01*
X183133333Y-27700000D02*
X183666666Y-27700000D01*
X183333333Y-27233333D02*
X183333333Y-28433333D01*
X183400000Y-28566666D01*
X183533333Y-28633333D01*
X183666666Y-28633333D01*
X186000000Y-28500000D02*
X185933333Y-28566666D01*
X185733333Y-28633333D01*
X185600000Y-28633333D01*
X185400000Y-28566666D01*
X185266666Y-28433333D01*
X185200000Y-28300000D01*
X185133333Y-28033333D01*
X185133333Y-27833333D01*
X185200000Y-27566666D01*
X185266666Y-27433333D01*
X185400000Y-27300000D01*
X185600000Y-27233333D01*
X185733333Y-27233333D01*
X185933333Y-27300000D01*
X186000000Y-27366666D01*
X186600000Y-28633333D02*
X186600000Y-27700000D01*
X186600000Y-27233333D02*
X186533333Y-27300000D01*
X186600000Y-27366666D01*
X186666666Y-27300000D01*
X186600000Y-27233333D01*
X186600000Y-27366666D01*
X187266666Y-28633333D02*
X187266666Y-27700000D01*
X187266666Y-27966666D02*
X187333333Y-27833333D01*
X187400000Y-27766666D01*
X187533333Y-27700000D01*
X187666666Y-27700000D01*
X188733333Y-28566666D02*
X188600000Y-28633333D01*
X188333333Y-28633333D01*
X188200000Y-28566666D01*
X188133333Y-28500000D01*
X188066666Y-28366666D01*
X188066666Y-27966666D01*
X188133333Y-27833333D01*
X188200000Y-27766666D01*
X188333333Y-27700000D01*
X188600000Y-27700000D01*
X188733333Y-27766666D01*
X189933333Y-27700000D02*
X189933333Y-28633333D01*
X189333333Y-27700000D02*
X189333333Y-28433333D01*
X189400000Y-28566666D01*
X189533333Y-28633333D01*
X189733333Y-28633333D01*
X189866666Y-28566666D01*
X189933333Y-28500000D01*
X190600000Y-28633333D02*
X190600000Y-27700000D01*
X190600000Y-27233333D02*
X190533333Y-27300000D01*
X190600000Y-27366666D01*
X190666666Y-27300000D01*
X190600000Y-27233333D01*
X190600000Y-27366666D01*
X191066666Y-27700000D02*
X191600000Y-27700000D01*
X191266666Y-27233333D02*
X191266666Y-28433333D01*
X191333333Y-28566666D01*
X191466666Y-28633333D01*
X191600000Y-28633333D01*
D11*
X175565000Y-32960000D02*
X175565000Y-35620000D01*
X185785000Y-32960000D02*
X175565000Y-32960000D01*
X185785000Y-35620000D02*
X175565000Y-35620000D01*
X185785000Y-32960000D02*
X185785000Y-35620000D01*
X187055000Y-32960000D02*
X188385000Y-32960000D01*
X188385000Y-32960000D02*
X188385000Y-34290000D01*
D12*
X168100000Y-40300000D02*
G75*
G03X168100000Y-40300000I-100000J0D01*
G01*
D13*
X172100000Y-51000000D02*
X172100000Y-41000000D01*
X163900000Y-51000000D02*
X172100000Y-51000000D01*
X163900000Y-41000000D02*
X163900000Y-51000000D01*
X172100000Y-41000000D02*
X163900000Y-41000000D01*
D11*
X183305000Y-46295000D02*
X183305000Y-47625000D01*
X181975000Y-46295000D02*
X183305000Y-46295000D01*
X180705000Y-46295000D02*
X180705000Y-48955000D01*
X180705000Y-48955000D02*
X178105000Y-48955000D01*
X180705000Y-46295000D02*
X178105000Y-46295000D01*
X178105000Y-46295000D02*
X178105000Y-48955000D01*
X173940000Y-39000000D02*
X173940000Y-37940000D01*
X173940000Y-37940000D02*
X175000000Y-37940000D01*
X176000000Y-37940000D02*
X180060000Y-37940000D01*
X180060000Y-40060000D02*
X180060000Y-37940000D01*
X176000000Y-40060000D02*
X180060000Y-40060000D01*
X176000000Y-40060000D02*
X176000000Y-37940000D01*
X192770000Y-43410000D02*
X192770000Y-42640000D01*
X192770000Y-35330000D02*
X192770000Y-36100000D01*
X194140000Y-42640000D02*
X194140000Y-36100000D01*
X191400000Y-42640000D02*
X194140000Y-42640000D01*
X191400000Y-36100000D02*
X191400000Y-42640000D01*
X194140000Y-36100000D02*
X191400000Y-36100000D01*
X191095000Y-59690000D02*
X190325000Y-59690000D01*
X183015000Y-59690000D02*
X183785000Y-59690000D01*
X190325000Y-58320000D02*
X183785000Y-58320000D01*
X190325000Y-61060000D02*
X190325000Y-58320000D01*
X183785000Y-61060000D02*
X190325000Y-61060000D01*
X183785000Y-58320000D02*
X183785000Y-61060000D01*
X175640000Y-54610000D02*
G75*
G03X175640000Y-54610000I-1920000J0D01*
G01*
X175640000Y-54610000D02*
X176030000Y-54610000D01*
X172390000Y-58995000D02*
X172390000Y-61655000D01*
X174990000Y-58995000D02*
X172390000Y-58995000D01*
X174990000Y-61655000D02*
X172390000Y-61655000D01*
X174990000Y-58995000D02*
X174990000Y-61655000D01*
X176260000Y-58995000D02*
X177590000Y-58995000D01*
X177590000Y-58995000D02*
X177590000Y-60325000D01*
X187121522Y-55178478D02*
G75*
G03X191560000Y-53340000I1838478J1838478D01*
G01*
X187121522Y-51501522D02*
G75*
G02X191560000Y-53340000I1838478J-1838478D01*
G01*
X187110000Y-51540000D02*
X187110000Y-55140000D01*
X189490000Y-45140000D02*
X185890000Y-45140000D01*
X189528478Y-45151522D02*
G75*
G02X187690000Y-49590000I-1838478J-1838478D01*
G01*
X185851522Y-45151522D02*
G75*
G03X187690000Y-49590000I1838478J-1838478D01*
G01*
D14*
X188837380Y-34623333D02*
X189551666Y-34623333D01*
X189694523Y-34670952D01*
X189789761Y-34766190D01*
X189837380Y-34909047D01*
X189837380Y-35004285D01*
X189170714Y-33718571D02*
X189837380Y-33718571D01*
X188789761Y-33956666D02*
X189504047Y-34194761D01*
X189504047Y-33575714D01*
X183757380Y-47958333D02*
X184471666Y-47958333D01*
X184614523Y-48005952D01*
X184709761Y-48101190D01*
X184757380Y-48244047D01*
X184757380Y-48339285D01*
X183757380Y-47577380D02*
X183757380Y-46958333D01*
X184138333Y-47291666D01*
X184138333Y-47148809D01*
X184185952Y-47053571D01*
X184233571Y-47005952D01*
X184328809Y-46958333D01*
X184566904Y-46958333D01*
X184662142Y-47005952D01*
X184709761Y-47053571D01*
X184757380Y-47148809D01*
X184757380Y-47434523D01*
X184709761Y-47529761D01*
X184662142Y-47577380D01*
X173047619Y-39095238D02*
X173000000Y-39190476D01*
X172904761Y-39285714D01*
X172761904Y-39428571D01*
X172714285Y-39523809D01*
X172714285Y-39619047D01*
X172952380Y-39571428D02*
X172904761Y-39666666D01*
X172809523Y-39761904D01*
X172619047Y-39809523D01*
X172285714Y-39809523D01*
X172095238Y-39761904D01*
X172000000Y-39666666D01*
X171952380Y-39571428D01*
X171952380Y-39380952D01*
X172000000Y-39285714D01*
X172095238Y-39190476D01*
X172285714Y-39142857D01*
X172619047Y-39142857D01*
X172809523Y-39190476D01*
X172904761Y-39285714D01*
X172952380Y-39380952D01*
X172952380Y-39571428D01*
X172047619Y-38761904D02*
X172000000Y-38714285D01*
X171952380Y-38619047D01*
X171952380Y-38380952D01*
X172000000Y-38285714D01*
X172047619Y-38238095D01*
X172142857Y-38190476D01*
X172238095Y-38190476D01*
X172380952Y-38238095D01*
X172952380Y-38809523D01*
X172952380Y-38190476D01*
X195592380Y-39536666D02*
X195116190Y-39870000D01*
X195592380Y-40108095D02*
X194592380Y-40108095D01*
X194592380Y-39727142D01*
X194640000Y-39631904D01*
X194687619Y-39584285D01*
X194782857Y-39536666D01*
X194925714Y-39536666D01*
X195020952Y-39584285D01*
X195068571Y-39631904D01*
X195116190Y-39727142D01*
X195116190Y-40108095D01*
X194687619Y-39155714D02*
X194640000Y-39108095D01*
X194592380Y-39012857D01*
X194592380Y-38774761D01*
X194640000Y-38679523D01*
X194687619Y-38631904D01*
X194782857Y-38584285D01*
X194878095Y-38584285D01*
X195020952Y-38631904D01*
X195592380Y-39203333D01*
X195592380Y-38584285D01*
X186888333Y-57772380D02*
X186555000Y-57296190D01*
X186316904Y-57772380D02*
X186316904Y-56772380D01*
X186697857Y-56772380D01*
X186793095Y-56820000D01*
X186840714Y-56867619D01*
X186888333Y-56962857D01*
X186888333Y-57105714D01*
X186840714Y-57200952D01*
X186793095Y-57248571D01*
X186697857Y-57296190D01*
X186316904Y-57296190D01*
X187840714Y-57772380D02*
X187269285Y-57772380D01*
X187555000Y-57772380D02*
X187555000Y-56772380D01*
X187459761Y-56915238D01*
X187364523Y-57010476D01*
X187269285Y-57058095D01*
X174886904Y-52142380D02*
X174886904Y-51142380D01*
X175125000Y-51142380D01*
X175267857Y-51190000D01*
X175363095Y-51285238D01*
X175410714Y-51380476D01*
X175458333Y-51570952D01*
X175458333Y-51713809D01*
X175410714Y-51904285D01*
X175363095Y-51999523D01*
X175267857Y-52094761D01*
X175125000Y-52142380D01*
X174886904Y-52142380D01*
X176410714Y-52142380D02*
X175839285Y-52142380D01*
X176125000Y-52142380D02*
X176125000Y-51142380D01*
X176029761Y-51285238D01*
X175934523Y-51380476D01*
X175839285Y-51428095D01*
X175391904Y-55976666D02*
X175868095Y-55976666D01*
X175296666Y-56262380D02*
X175630000Y-55262380D01*
X175963333Y-56262380D01*
X178042380Y-60658333D02*
X178756666Y-60658333D01*
X178899523Y-60705952D01*
X178994761Y-60801190D01*
X179042380Y-60944047D01*
X179042380Y-61039285D01*
X179042380Y-59658333D02*
X179042380Y-60229761D01*
X179042380Y-59944047D02*
X178042380Y-59944047D01*
X178185238Y-60039285D01*
X178280476Y-60134523D01*
X178328095Y-60229761D01*
X193067619Y-53435238D02*
X193020000Y-53530476D01*
X192924761Y-53625714D01*
X192781904Y-53768571D01*
X192734285Y-53863809D01*
X192734285Y-53959047D01*
X192972380Y-53911428D02*
X192924761Y-54006666D01*
X192829523Y-54101904D01*
X192639047Y-54149523D01*
X192305714Y-54149523D01*
X192115238Y-54101904D01*
X192020000Y-54006666D01*
X191972380Y-53911428D01*
X191972380Y-53720952D01*
X192020000Y-53625714D01*
X192115238Y-53530476D01*
X192305714Y-53482857D01*
X192639047Y-53482857D01*
X192829523Y-53530476D01*
X192924761Y-53625714D01*
X192972380Y-53720952D01*
X192972380Y-53911428D01*
X192972380Y-52530476D02*
X192972380Y-53101904D01*
X192972380Y-52816190D02*
X191972380Y-52816190D01*
X192115238Y-52911428D01*
X192210476Y-53006666D01*
X192258095Y-53101904D01*
X187594761Y-51097619D02*
X187499523Y-51050000D01*
X187404285Y-50954761D01*
X187261428Y-50811904D01*
X187166190Y-50764285D01*
X187070952Y-50764285D01*
X187118571Y-51002380D02*
X187023333Y-50954761D01*
X186928095Y-50859523D01*
X186880476Y-50669047D01*
X186880476Y-50335714D01*
X186928095Y-50145238D01*
X187023333Y-50050000D01*
X187118571Y-50002380D01*
X187309047Y-50002380D01*
X187404285Y-50050000D01*
X187499523Y-50145238D01*
X187547142Y-50335714D01*
X187547142Y-50669047D01*
X187499523Y-50859523D01*
X187404285Y-50954761D01*
X187309047Y-51002380D01*
X187118571Y-51002380D01*
X187880476Y-50002380D02*
X188499523Y-50002380D01*
X188166190Y-50383333D01*
X188309047Y-50383333D01*
X188404285Y-50430952D01*
X188451904Y-50478571D01*
X188499523Y-50573809D01*
X188499523Y-50811904D01*
X188451904Y-50907142D01*
X188404285Y-50954761D01*
X188309047Y-51002380D01*
X188023333Y-51002380D01*
X187928095Y-50954761D01*
X187880476Y-50907142D01*
M02*
