G04 #@! TF.GenerationSoftware,KiCad,Pcbnew,(5.0.1)-4*
G04 #@! TF.CreationDate,2019-03-02T12:20:55-06:00*
G04 #@! TF.ProjectId,PS Rev2,505320526576322E6B696361645F7063,rev?*
G04 #@! TF.SameCoordinates,Original*
G04 #@! TF.FileFunction,Copper,L2,Bot,Signal*
G04 #@! TF.FilePolarity,Positive*
%FSLAX46Y46*%
G04 Gerber Fmt 4.6, Leading zero omitted, Abs format (unit mm)*
G04 Created by KiCad (PCBNEW (5.0.1)-4) date 2019-03-02 12:20:55 PM*
%MOMM*%
%LPD*%
G01*
G04 APERTURE LIST*
G04 #@! TA.AperFunction,ComponentPad*
%ADD10C,3.500000*%
G04 #@! TD*
G04 #@! TA.AperFunction,ComponentPad*
%ADD11C,1.600000*%
G04 #@! TD*
G04 #@! TA.AperFunction,ComponentPad*
%ADD12C,1.950000*%
G04 #@! TD*
G04 #@! TA.AperFunction,ComponentPad*
%ADD13R,1.950000X1.950000*%
G04 #@! TD*
G04 #@! TA.AperFunction,ComponentPad*
%ADD14R,1.650000X1.650000*%
G04 #@! TD*
G04 #@! TA.AperFunction,ComponentPad*
%ADD15C,1.650000*%
G04 #@! TD*
G04 #@! TA.AperFunction,ComponentPad*
%ADD16C,2.000000*%
G04 #@! TD*
G04 #@! TA.AperFunction,ComponentPad*
%ADD17C,1.308000*%
G04 #@! TD*
G04 #@! TA.AperFunction,ComponentPad*
%ADD18R,1.308000X1.308000*%
G04 #@! TD*
G04 #@! TA.AperFunction,ComponentPad*
%ADD19R,1.600000X1.600000*%
G04 #@! TD*
G04 #@! TA.AperFunction,ComponentPad*
%ADD20R,2.000000X2.000000*%
G04 #@! TD*
G04 #@! TA.AperFunction,ComponentPad*
%ADD21O,1.500000X1.050000*%
G04 #@! TD*
G04 #@! TA.AperFunction,ComponentPad*
%ADD22R,1.500000X1.050000*%
G04 #@! TD*
G04 #@! TA.AperFunction,ComponentPad*
%ADD23O,1.600000X1.600000*%
G04 #@! TD*
G04 #@! TA.AperFunction,Conductor*
%ADD24C,0.400000*%
G04 #@! TD*
G04 #@! TA.AperFunction,Conductor*
%ADD25C,0.250000*%
G04 #@! TD*
G04 #@! TA.AperFunction,Conductor*
%ADD26C,0.300000*%
G04 #@! TD*
G04 APERTURE END LIST*
D10*
G04 #@! TO.P,REF\002A\002A,1*
G04 #@! TO.N,N/C*
X73500000Y-101000000D03*
G04 #@! TD*
G04 #@! TO.P,REF\002A\002A,1*
G04 #@! TO.N,N/C*
X167000000Y-101000000D03*
G04 #@! TD*
G04 #@! TO.P,REF\002A\002A,1*
G04 #@! TO.N,N/C*
X73000000Y-53000000D03*
G04 #@! TD*
G04 #@! TO.P,REF\002A\002A,1*
G04 #@! TO.N,N/C*
X167000000Y-53000000D03*
G04 #@! TD*
D11*
G04 #@! TO.P,C1,1*
G04 #@! TO.N,Net-(C1-Pad1)*
X148000000Y-59000000D03*
G04 #@! TO.P,C1,2*
G04 #@! TO.N,Net-(C1-Pad2)*
X148000000Y-64000000D03*
G04 #@! TD*
D12*
G04 #@! TO.P,J1,2*
G04 #@! TO.N,Net-(J1-Pad2)*
X81000000Y-57500000D03*
D13*
G04 #@! TO.P,J1,1*
G04 #@! TO.N,Net-(J1-Pad1)*
X81000000Y-62500000D03*
G04 #@! TD*
D14*
G04 #@! TO.P,J2,1*
G04 #@! TO.N,Net-(C1-Pad1)*
X162000000Y-59000000D03*
D15*
G04 #@! TO.P,J2,2*
G04 #@! TO.N,Net-(C1-Pad2)*
X162000000Y-64000000D03*
G04 #@! TO.P,J2,3*
G04 #@! TO.N,Net-(J2-Pad3)*
X162000000Y-69000000D03*
G04 #@! TD*
D13*
G04 #@! TO.P,J3,1*
G04 #@! TO.N,Net-(J3-Pad1)*
X82000000Y-86500000D03*
D12*
G04 #@! TO.P,J3,2*
G04 #@! TO.N,Net-(J3-Pad2)*
X82000000Y-91500000D03*
G04 #@! TD*
D16*
G04 #@! TO.P,J4,1*
G04 #@! TO.N,Net-(J4-Pad1)*
X147000000Y-87000000D03*
G04 #@! TD*
G04 #@! TO.P,J5,1*
G04 #@! TO.N,Net-(J5-Pad1)*
X126000000Y-87000000D03*
G04 #@! TD*
D17*
G04 #@! TO.P,K1,12*
G04 #@! TO.N,Net-(J5-Pad1)*
X114950000Y-92640000D03*
G04 #@! TO.P,K1,10*
G04 #@! TO.N,Net-(K1-Pad10)*
X109870000Y-92640000D03*
G04 #@! TO.P,K1,9*
G04 #@! TO.N,Net-(K1-Pad9)*
X107330000Y-92640000D03*
G04 #@! TO.P,K1,8*
G04 #@! TO.N,Net-(K1-Pad8)*
X104790000Y-92640000D03*
D18*
G04 #@! TO.P,K1,1*
G04 #@! TO.N,Net-(C1-Pad1)*
X114950000Y-87560000D03*
D17*
G04 #@! TO.P,K1,3*
G04 #@! TO.N,Net-(J3-Pad1)*
X109870000Y-87560000D03*
G04 #@! TO.P,K1,4*
G04 #@! TO.N,Net-(K1-Pad4)*
X107330000Y-87560000D03*
G04 #@! TO.P,K1,5*
G04 #@! TO.N,Net-(J3-Pad2)*
X104790000Y-87560000D03*
G04 #@! TD*
D19*
G04 #@! TO.P,MOV - HV,1*
G04 #@! TO.N,Net-(J1-Pad2)*
X97125000Y-61250000D03*
D11*
G04 #@! TO.P,MOV - HV,2*
G04 #@! TO.N,Net-(J1-Pad1)*
X92875000Y-68750000D03*
G04 #@! TD*
G04 #@! TO.P,MOV - LV,2*
G04 #@! TO.N,Net-(J4-Pad1)*
X159875000Y-88750000D03*
D19*
G04 #@! TO.P,MOV - LV,1*
G04 #@! TO.N,Net-(C1-Pad2)*
X164125000Y-81250000D03*
G04 #@! TD*
D20*
G04 #@! TO.P,PS1,1*
G04 #@! TO.N,Net-(J1-Pad2)*
X107000000Y-75000000D03*
D16*
G04 #@! TO.P,PS1,2*
G04 #@! TO.N,Net-(J1-Pad1)*
X112080000Y-75000000D03*
G04 #@! TO.P,PS1,4*
G04 #@! TO.N,Net-(C1-Pad2)*
X137480000Y-57220000D03*
G04 #@! TO.P,PS1,3*
G04 #@! TO.N,Net-(PS1-Pad3)*
X137480000Y-75000000D03*
G04 #@! TO.P,PS1,5*
G04 #@! TO.N,Net-(C1-Pad1)*
X132400000Y-57220000D03*
G04 #@! TD*
D21*
G04 #@! TO.P,2N3904,2*
G04 #@! TO.N,Net-(Q1-Pad2)*
X147000000Y-76770000D03*
G04 #@! TO.P,2N3904,3*
G04 #@! TO.N,Net-(J4-Pad1)*
X147000000Y-78040000D03*
D22*
G04 #@! TO.P,2N3904,1*
G04 #@! TO.N,Net-(C1-Pad2)*
X147000000Y-75500000D03*
G04 #@! TD*
D11*
G04 #@! TO.P,10k,1*
G04 #@! TO.N,Net-(J2-Pad3)*
X154000000Y-69000000D03*
D23*
G04 #@! TO.P,10k,2*
G04 #@! TO.N,Net-(Q1-Pad2)*
X154000000Y-76620000D03*
G04 #@! TD*
D24*
G04 #@! TO.N,Net-(C1-Pad1)*
X148000000Y-59000000D02*
X162000000Y-59000000D01*
X148000000Y-54500000D02*
X148000000Y-59000000D01*
X146500000Y-53000000D02*
X148000000Y-54500000D01*
X134000000Y-53000000D02*
X146500000Y-53000000D01*
X132400000Y-57220000D02*
X132400000Y-54600000D01*
X132400000Y-54600000D02*
X134000000Y-53000000D01*
X124780000Y-57220000D02*
X132400000Y-57220000D01*
X123000000Y-59000000D02*
X124780000Y-57220000D01*
X114950000Y-87560000D02*
X121440000Y-87560000D01*
X121440000Y-87560000D02*
X123000000Y-86000000D01*
X123000000Y-86000000D02*
X123000000Y-82500000D01*
D25*
X123000000Y-83000000D02*
X123000000Y-82500000D01*
D24*
X123000000Y-82500000D02*
X123000000Y-59000000D01*
G04 #@! TO.N,Net-(C1-Pad2)*
X148000000Y-64000000D02*
X162000000Y-64000000D01*
X137480000Y-57220000D02*
X137480000Y-62480000D01*
X139000000Y-64000000D02*
X148000000Y-64000000D01*
X137480000Y-62480000D02*
X139000000Y-64000000D01*
X165750000Y-81250000D02*
X164125000Y-81250000D01*
X167000000Y-80000000D02*
X165750000Y-81250000D01*
X167000000Y-65500000D02*
X167000000Y-80000000D01*
X162000000Y-64000000D02*
X165500000Y-64000000D01*
X165500000Y-64000000D02*
X167000000Y-65500000D01*
X148500000Y-75500000D02*
X147000000Y-75500000D01*
X150000000Y-74000000D02*
X148500000Y-75500000D01*
X148000000Y-64000000D02*
X150000000Y-66000000D01*
X150000000Y-66000000D02*
X150000000Y-74000000D01*
D26*
G04 #@! TO.N,Net-(J1-Pad2)*
X81000000Y-57500000D02*
X81000000Y-55500000D01*
X81000000Y-55500000D02*
X83000000Y-53500000D01*
X83000000Y-53500000D02*
X95500000Y-53500000D01*
X97125000Y-55125000D02*
X97125000Y-61250000D01*
X95500000Y-53500000D02*
X97125000Y-55125000D01*
X97125000Y-61250000D02*
X105250000Y-61250000D01*
X107000000Y-63000000D02*
X107000000Y-75000000D01*
X105250000Y-61250000D02*
X107000000Y-63000000D01*
G04 #@! TO.N,Net-(J1-Pad1)*
X82750000Y-68750000D02*
X92875000Y-68750000D01*
X81000000Y-62500000D02*
X81000000Y-67000000D01*
X81000000Y-67000000D02*
X82750000Y-68750000D01*
X92875000Y-68750000D02*
X92875000Y-77375000D01*
X92875000Y-77375000D02*
X95000000Y-79500000D01*
X95000000Y-79500000D02*
X110500000Y-79500000D01*
X112080000Y-77920000D02*
X112080000Y-75000000D01*
X110500000Y-79500000D02*
X112080000Y-77920000D01*
G04 #@! TO.N,Net-(J2-Pad3)*
X154000000Y-69000000D02*
X162000000Y-69000000D01*
G04 #@! TO.N,Net-(J3-Pad1)*
X82000000Y-85275000D02*
X83275000Y-84000000D01*
X82000000Y-86500000D02*
X82000000Y-85275000D01*
X83275000Y-84000000D02*
X109000000Y-84000000D01*
X109870000Y-84870000D02*
X109870000Y-87560000D01*
X109000000Y-84000000D02*
X109870000Y-84870000D01*
G04 #@! TO.N,Net-(J3-Pad2)*
X82000000Y-91500000D02*
X103000000Y-91500000D01*
X104790000Y-89710000D02*
X104790000Y-87560000D01*
X103000000Y-91500000D02*
X104790000Y-89710000D01*
D24*
G04 #@! TO.N,Net-(J4-Pad1)*
X159875000Y-90625000D02*
X159875000Y-88750000D01*
X159000000Y-91500000D02*
X159875000Y-90625000D01*
X148500000Y-91500000D02*
X159000000Y-91500000D01*
X147000000Y-87000000D02*
X147000000Y-90000000D01*
X147000000Y-90000000D02*
X148500000Y-91500000D01*
X147000000Y-87000000D02*
X147000000Y-78040000D01*
G04 #@! TO.N,Net-(J5-Pad1)*
X114950000Y-92640000D02*
X124360000Y-92640000D01*
X126000000Y-91000000D02*
X126000000Y-87000000D01*
X124360000Y-92640000D02*
X126000000Y-91000000D01*
D25*
G04 #@! TO.N,Net-(Q1-Pad2)*
X153850000Y-76770000D02*
X154000000Y-76620000D01*
D26*
X147000000Y-76770000D02*
X153850000Y-76770000D01*
G04 #@! TD*
M02*
