M48
;DRILL file {KiCad (5.0.1)-4} date 2019-03-02 2:56:53 PM
;FORMAT={-:-/ absolute / inch / decimal}
FMAT,2
INCH,TZ
T1C0.0197
T2C0.0394
T3C0.0433
T4C0.0866
%
G90
G05
M72
T1
X6.9982Y-3.1689
X6.9982Y-3.2477
X6.9982Y-3.3264
X6.9982Y-3.4052
X6.9982Y-3.4839
X6.9982Y-3.5626
X6.9982Y-3.6414
X6.9982Y-3.7201
X6.9982Y-3.7989
X6.9982Y-3.8776
X7.8643Y-3.1689
X7.8643Y-3.2477
X7.8643Y-3.3264
X7.8643Y-3.4052
X7.8643Y-3.4839
X7.8643Y-3.5626
X7.8643Y-3.6414
X7.8643Y-3.7201
X7.8643Y-3.7989
X7.8643Y-3.8776
T2
X5.7874Y-2.2047
X5.7874Y-2.3047
X5.7874Y-2.4047
X5.7874Y-2.5047
X5.7874Y-2.6047
X5.7874Y-2.7047
X5.7874Y-2.8047
X5.7874Y-2.9047
X5.7874Y-3.0047
X5.7874Y-3.1047
X5.7874Y-3.2047
X5.7874Y-3.3047
X5.7874Y-3.4047
X5.7874Y-3.5047
X5.7874Y-3.6047
X5.7874Y-3.7047
X5.7874Y-3.8047
X5.7874Y-3.9047
X5.7874Y-4.0047
X5.7874Y-4.1047
X5.7874Y-4.2047
X5.7874Y-4.3047
X5.7874Y-4.4047
X5.7874Y-4.5047
X5.7874Y-4.6047
X5.7874Y-4.7047
X5.7874Y-4.8047
X5.7874Y-4.9047
X4.6Y-2.2
X4.6Y-2.3
X4.6Y-2.4
X4.6Y-2.5
X4.6Y-2.6
X4.6Y-2.7
X4.6Y-2.8
X4.6Y-2.9
X4.6Y-3.
X4.6Y-3.1
X4.6Y-3.2
X4.6Y-3.3
X4.6Y-3.4
X4.6Y-3.5
X4.6Y-3.6
X4.6Y-3.7
X4.6Y-3.8
X4.6Y-3.9
X4.6Y-4.
X4.6Y-4.1
X4.6Y-4.2
X4.6Y-4.3
X4.6Y-4.4
X4.6Y-4.5
X4.6Y-4.6
X4.6Y-4.7
X4.6Y-4.8
X4.6Y-4.9
X5.Y-5.2
X5.1Y-5.2
X5.2Y-5.2
X5.3Y-5.2
X5.4Y-5.2
X5.5Y-5.2
X6.4Y-2.2
X6.4Y-2.3
X6.4Y-2.4
X6.4Y-2.5
X6.4Y-2.6
X6.4Y-2.7
X6.4Y-2.8
X6.4Y-2.9
X6.4Y-3.
X6.4Y-3.1
X6.4Y-3.2
X6.4Y-3.3
X6.4Y-3.4
X6.4Y-3.5
X6.4Y-3.6
X6.4Y-3.7
X6.4Y-3.8
X6.4Y-3.9
X6.4Y-4.
X6.4Y-4.1
X6.4Y-4.2
X6.4Y-4.3
X6.4Y-4.4
X6.4Y-4.5
X6.4Y-4.6
X6.4Y-4.7
X6.4Y-4.8
X6.4Y-4.9
T3
X6.9031Y-5.
X7.1Y-5.
X7.2969Y-5.
X6.8047Y-2.3
X7.0016Y-2.3
X7.1984Y-2.3
X7.3953Y-2.3
T4
X7.9331Y-1.8898
X3.9173Y-1.8898
X7.9331Y-5.5118
X3.9173Y-5.5118
T0
M30
