%TF.GenerationSoftware,KiCad,Pcbnew,(5.0.1)-4*%
%TF.CreationDate,2019-03-02T14:56:48-06:00*%
%TF.ProjectId,uC and Xbee,754320616E6420586265652E6B696361,rev?*%
%TF.SameCoordinates,Original*%
%TF.FileFunction,Legend,Top*%
%TF.FilePolarity,Positive*%
%FSLAX46Y46*%
G04 Gerber Fmt 4.6, Leading zero omitted, Abs format (unit mm)*
G04 Created by KiCad (PCBNEW (5.0.1)-4) date 2019-03-02 2:56:48 PM*
%MOMM*%
%LPD*%
G01*
G04 APERTURE LIST*
%ADD10C,0.300000*%
%ADD11C,0.275000*%
%ADD12C,0.250000*%
%ADD13C,0.200000*%
%ADD14C,0.127000*%
%ADD15C,0.400000*%
%ADD16C,0.120000*%
%ADD17C,0.203200*%
%ADD18C,0.010000*%
%ADD19C,0.050000*%
%ADD20C,0.150000*%
G04 APERTURE END LIST*
D10*
X186964285Y-88178571D02*
X187964285Y-89678571D01*
X187964285Y-88178571D02*
X186964285Y-89678571D01*
X189035714Y-88892857D02*
X189250000Y-88964285D01*
X189321428Y-89035714D01*
X189392857Y-89178571D01*
X189392857Y-89392857D01*
X189321428Y-89535714D01*
X189250000Y-89607142D01*
X189107142Y-89678571D01*
X188535714Y-89678571D01*
X188535714Y-88178571D01*
X189035714Y-88178571D01*
X189178571Y-88250000D01*
X189250000Y-88321428D01*
X189321428Y-88464285D01*
X189321428Y-88607142D01*
X189250000Y-88750000D01*
X189178571Y-88821428D01*
X189035714Y-88892857D01*
X188535714Y-88892857D01*
X190607142Y-89607142D02*
X190464285Y-89678571D01*
X190178571Y-89678571D01*
X190035714Y-89607142D01*
X189964285Y-89464285D01*
X189964285Y-88892857D01*
X190035714Y-88750000D01*
X190178571Y-88678571D01*
X190464285Y-88678571D01*
X190607142Y-88750000D01*
X190678571Y-88892857D01*
X190678571Y-89035714D01*
X189964285Y-89178571D01*
X191892857Y-89607142D02*
X191750000Y-89678571D01*
X191464285Y-89678571D01*
X191321428Y-89607142D01*
X191250000Y-89464285D01*
X191250000Y-88892857D01*
X191321428Y-88750000D01*
X191464285Y-88678571D01*
X191750000Y-88678571D01*
X191892857Y-88750000D01*
X191964285Y-88892857D01*
X191964285Y-89035714D01*
X191250000Y-89178571D01*
D11*
X173661904Y-97950000D02*
X173557142Y-97897619D01*
X173400000Y-97897619D01*
X173242857Y-97950000D01*
X173138095Y-98054761D01*
X173085714Y-98159523D01*
X173033333Y-98369047D01*
X173033333Y-98526190D01*
X173085714Y-98735714D01*
X173138095Y-98840476D01*
X173242857Y-98945238D01*
X173400000Y-98997619D01*
X173504761Y-98997619D01*
X173661904Y-98945238D01*
X173714285Y-98892857D01*
X173714285Y-98526190D01*
X173504761Y-98526190D01*
X174185714Y-98997619D02*
X174185714Y-97897619D01*
X174814285Y-98997619D01*
X174814285Y-97897619D01*
X175338095Y-98997619D02*
X175338095Y-97897619D01*
X175600000Y-97897619D01*
X175757142Y-97950000D01*
X175861904Y-98054761D01*
X175914285Y-98159523D01*
X175966666Y-98369047D01*
X175966666Y-98526190D01*
X175914285Y-98735714D01*
X175861904Y-98840476D01*
X175757142Y-98945238D01*
X175600000Y-98997619D01*
X175338095Y-98997619D01*
D12*
X173033333Y-79952380D02*
X173400000Y-80952380D01*
X173766666Y-79952380D01*
X174761904Y-80857142D02*
X174709523Y-80904761D01*
X174552380Y-80952380D01*
X174447619Y-80952380D01*
X174290476Y-80904761D01*
X174185714Y-80809523D01*
X174133333Y-80714285D01*
X174080952Y-80523809D01*
X174080952Y-80380952D01*
X174133333Y-80190476D01*
X174185714Y-80095238D01*
X174290476Y-80000000D01*
X174447619Y-79952380D01*
X174552380Y-79952380D01*
X174709523Y-80000000D01*
X174761904Y-80047619D01*
X175861904Y-80857142D02*
X175809523Y-80904761D01*
X175652380Y-80952380D01*
X175547619Y-80952380D01*
X175390476Y-80904761D01*
X175285714Y-80809523D01*
X175233333Y-80714285D01*
X175180952Y-80523809D01*
X175180952Y-80380952D01*
X175233333Y-80190476D01*
X175285714Y-80095238D01*
X175390476Y-80000000D01*
X175547619Y-79952380D01*
X175652380Y-79952380D01*
X175809523Y-80000000D01*
X175861904Y-80047619D01*
D11*
X173816666Y-84997619D02*
X173450000Y-84473809D01*
X173188095Y-84997619D02*
X173188095Y-83897619D01*
X173607142Y-83897619D01*
X173711904Y-83950000D01*
X173764285Y-84002380D01*
X173816666Y-84107142D01*
X173816666Y-84264285D01*
X173764285Y-84369047D01*
X173711904Y-84421428D01*
X173607142Y-84473809D01*
X173188095Y-84473809D01*
X174183333Y-83897619D02*
X174916666Y-84997619D01*
X174916666Y-83897619D02*
X174183333Y-84997619D01*
X173161904Y-81897619D02*
X173790476Y-81897619D01*
X173476190Y-82997619D02*
X173476190Y-81897619D01*
X174052380Y-81897619D02*
X174785714Y-82997619D01*
X174785714Y-81897619D02*
X174052380Y-82997619D01*
D13*
X136000000Y-53000000D02*
X136000000Y-45000000D01*
X161000000Y-53000000D02*
X136000000Y-53000000D01*
X161000000Y-45000000D02*
X161000000Y-53000000D01*
X136000000Y-45000000D02*
X161000000Y-45000000D01*
D10*
X137464285Y-47128571D02*
X137464285Y-45628571D01*
X137821428Y-45628571D01*
X138035714Y-45700000D01*
X138178571Y-45842857D01*
X138250000Y-45985714D01*
X138321428Y-46271428D01*
X138321428Y-46485714D01*
X138250000Y-46771428D01*
X138178571Y-46914285D01*
X138035714Y-47057142D01*
X137821428Y-47128571D01*
X137464285Y-47128571D01*
X138964285Y-46342857D02*
X139464285Y-46342857D01*
X139678571Y-47128571D02*
X138964285Y-47128571D01*
X138964285Y-45628571D01*
X139678571Y-45628571D01*
X140321428Y-47128571D02*
X140321428Y-45628571D01*
X140821428Y-46700000D01*
X141321428Y-45628571D01*
X141321428Y-47128571D01*
X143178571Y-47128571D02*
X143178571Y-45628571D01*
X143678571Y-46700000D01*
X144178571Y-45628571D01*
X144178571Y-47128571D01*
X144892857Y-47128571D02*
X144892857Y-46128571D01*
X144892857Y-45628571D02*
X144821428Y-45700000D01*
X144892857Y-45771428D01*
X144964285Y-45700000D01*
X144892857Y-45628571D01*
X144892857Y-45771428D01*
X146250000Y-47057142D02*
X146107142Y-47128571D01*
X145821428Y-47128571D01*
X145678571Y-47057142D01*
X145607142Y-46985714D01*
X145535714Y-46842857D01*
X145535714Y-46414285D01*
X145607142Y-46271428D01*
X145678571Y-46200000D01*
X145821428Y-46128571D01*
X146107142Y-46128571D01*
X146250000Y-46200000D01*
X146892857Y-47128571D02*
X146892857Y-46128571D01*
X146892857Y-46414285D02*
X146964285Y-46271428D01*
X147035714Y-46200000D01*
X147178571Y-46128571D01*
X147321428Y-46128571D01*
X148035714Y-47128571D02*
X147892857Y-47057142D01*
X147821428Y-46985714D01*
X147750000Y-46842857D01*
X147750000Y-46414285D01*
X147821428Y-46271428D01*
X147892857Y-46200000D01*
X148035714Y-46128571D01*
X148250000Y-46128571D01*
X148392857Y-46200000D01*
X148464285Y-46271428D01*
X148535714Y-46414285D01*
X148535714Y-46842857D01*
X148464285Y-46985714D01*
X148392857Y-47057142D01*
X148250000Y-47128571D01*
X148035714Y-47128571D01*
X149821428Y-47057142D02*
X149678571Y-47128571D01*
X149392857Y-47128571D01*
X149250000Y-47057142D01*
X149178571Y-46985714D01*
X149107142Y-46842857D01*
X149107142Y-46414285D01*
X149178571Y-46271428D01*
X149250000Y-46200000D01*
X149392857Y-46128571D01*
X149678571Y-46128571D01*
X149821428Y-46200000D01*
X150678571Y-47128571D02*
X150535714Y-47057142D01*
X150464285Y-46985714D01*
X150392857Y-46842857D01*
X150392857Y-46414285D01*
X150464285Y-46271428D01*
X150535714Y-46200000D01*
X150678571Y-46128571D01*
X150892857Y-46128571D01*
X151035714Y-46200000D01*
X151107142Y-46271428D01*
X151178571Y-46414285D01*
X151178571Y-46842857D01*
X151107142Y-46985714D01*
X151035714Y-47057142D01*
X150892857Y-47128571D01*
X150678571Y-47128571D01*
X151821428Y-46128571D02*
X151821428Y-47128571D01*
X151821428Y-46271428D02*
X151892857Y-46200000D01*
X152035714Y-46128571D01*
X152250000Y-46128571D01*
X152392857Y-46200000D01*
X152464285Y-46342857D01*
X152464285Y-47128571D01*
X152964285Y-46128571D02*
X153535714Y-46128571D01*
X153178571Y-45628571D02*
X153178571Y-46914285D01*
X153250000Y-47057142D01*
X153392857Y-47128571D01*
X153535714Y-47128571D01*
X154035714Y-47128571D02*
X154035714Y-46128571D01*
X154035714Y-46414285D02*
X154107142Y-46271428D01*
X154178571Y-46200000D01*
X154321428Y-46128571D01*
X154464285Y-46128571D01*
X155178571Y-47128571D02*
X155035714Y-47057142D01*
X154964285Y-46985714D01*
X154892857Y-46842857D01*
X154892857Y-46414285D01*
X154964285Y-46271428D01*
X155035714Y-46200000D01*
X155178571Y-46128571D01*
X155392857Y-46128571D01*
X155535714Y-46200000D01*
X155607142Y-46271428D01*
X155678571Y-46414285D01*
X155678571Y-46842857D01*
X155607142Y-46985714D01*
X155535714Y-47057142D01*
X155392857Y-47128571D01*
X155178571Y-47128571D01*
X156535714Y-47128571D02*
X156392857Y-47057142D01*
X156321428Y-46914285D01*
X156321428Y-45628571D01*
X157321428Y-47128571D02*
X157178571Y-47057142D01*
X157107142Y-46914285D01*
X157107142Y-45628571D01*
X158464285Y-47057142D02*
X158321428Y-47128571D01*
X158035714Y-47128571D01*
X157892857Y-47057142D01*
X157821428Y-46914285D01*
X157821428Y-46342857D01*
X157892857Y-46200000D01*
X158035714Y-46128571D01*
X158321428Y-46128571D01*
X158464285Y-46200000D01*
X158535714Y-46342857D01*
X158535714Y-46485714D01*
X157821428Y-46628571D01*
X159178571Y-47128571D02*
X159178571Y-46128571D01*
X159178571Y-46414285D02*
X159250000Y-46271428D01*
X159321428Y-46200000D01*
X159464285Y-46128571D01*
X159607142Y-46128571D01*
X149642857Y-49678571D02*
X149571428Y-49678571D01*
X149428571Y-49607142D01*
X149214285Y-49392857D01*
X148857142Y-48964285D01*
X148714285Y-48750000D01*
X148642857Y-48535714D01*
X148642857Y-48392857D01*
X148714285Y-48250000D01*
X148857142Y-48178571D01*
X148928571Y-48178571D01*
X149071428Y-48250000D01*
X149142857Y-48392857D01*
X149142857Y-48464285D01*
X149071428Y-48607142D01*
X149000000Y-48678571D01*
X148571428Y-48964285D01*
X148500000Y-49035714D01*
X148428571Y-49178571D01*
X148428571Y-49392857D01*
X148500000Y-49535714D01*
X148571428Y-49607142D01*
X148714285Y-49678571D01*
X148928571Y-49678571D01*
X149071428Y-49607142D01*
X149142857Y-49535714D01*
X149357142Y-49250000D01*
X149428571Y-49035714D01*
X149428571Y-48892857D01*
X143571428Y-50728571D02*
X144571428Y-52228571D01*
X144571428Y-50728571D02*
X143571428Y-52228571D01*
X145642857Y-51442857D02*
X145857142Y-51514285D01*
X145928571Y-51585714D01*
X146000000Y-51728571D01*
X146000000Y-51942857D01*
X145928571Y-52085714D01*
X145857142Y-52157142D01*
X145714285Y-52228571D01*
X145142857Y-52228571D01*
X145142857Y-50728571D01*
X145642857Y-50728571D01*
X145785714Y-50800000D01*
X145857142Y-50871428D01*
X145928571Y-51014285D01*
X145928571Y-51157142D01*
X145857142Y-51300000D01*
X145785714Y-51371428D01*
X145642857Y-51442857D01*
X145142857Y-51442857D01*
X146642857Y-51442857D02*
X147142857Y-51442857D01*
X147357142Y-52228571D02*
X146642857Y-52228571D01*
X146642857Y-50728571D01*
X147357142Y-50728571D01*
X148000000Y-51442857D02*
X148500000Y-51442857D01*
X148714285Y-52228571D02*
X148000000Y-52228571D01*
X148000000Y-50728571D01*
X148714285Y-50728571D01*
X150500000Y-50728571D02*
X150500000Y-51942857D01*
X150571428Y-52085714D01*
X150642857Y-52157142D01*
X150785714Y-52228571D01*
X151071428Y-52228571D01*
X151214285Y-52157142D01*
X151285714Y-52085714D01*
X151357142Y-51942857D01*
X151357142Y-50728571D01*
X152071428Y-51228571D02*
X152071428Y-52228571D01*
X152071428Y-51371428D02*
X152142857Y-51300000D01*
X152285714Y-51228571D01*
X152500000Y-51228571D01*
X152642857Y-51300000D01*
X152714285Y-51442857D01*
X152714285Y-52228571D01*
X153428571Y-52228571D02*
X153428571Y-51228571D01*
X153428571Y-50728571D02*
X153357142Y-50800000D01*
X153428571Y-50871428D01*
X153500000Y-50800000D01*
X153428571Y-50728571D01*
X153428571Y-50871428D01*
X153928571Y-51228571D02*
X154500000Y-51228571D01*
X154142857Y-50728571D02*
X154142857Y-52014285D01*
X154214285Y-52157142D01*
X154357142Y-52228571D01*
X154500000Y-52228571D01*
D13*
X164857142Y-104592380D02*
X164857142Y-103592380D01*
X165238095Y-103592380D01*
X165333333Y-103640000D01*
X165380952Y-103687619D01*
X165428571Y-103782857D01*
X165428571Y-103925714D01*
X165380952Y-104020952D01*
X165333333Y-104068571D01*
X165238095Y-104116190D01*
X164857142Y-104116190D01*
X165809523Y-104306666D02*
X166285714Y-104306666D01*
X165714285Y-104592380D02*
X166047619Y-103592380D01*
X166380952Y-104592380D01*
X167238095Y-104592380D02*
X166666666Y-104592380D01*
X166952380Y-104592380D02*
X166952380Y-103592380D01*
X166857142Y-103735238D01*
X166761904Y-103830476D01*
X166666666Y-103878095D01*
X168190476Y-104592380D02*
X167619047Y-104592380D01*
X167904761Y-104592380D02*
X167904761Y-103592380D01*
X167809523Y-103735238D01*
X167714285Y-103830476D01*
X167619047Y-103878095D01*
X137612380Y-138874285D02*
X136612380Y-138874285D01*
X136612380Y-138493333D01*
X136660000Y-138398095D01*
X136707619Y-138350476D01*
X136802857Y-138302857D01*
X136945714Y-138302857D01*
X137040952Y-138350476D01*
X137088571Y-138398095D01*
X137136190Y-138493333D01*
X137136190Y-138874285D01*
X137088571Y-137540952D02*
X137136190Y-137398095D01*
X137183809Y-137350476D01*
X137279047Y-137302857D01*
X137421904Y-137302857D01*
X137517142Y-137350476D01*
X137564761Y-137398095D01*
X137612380Y-137493333D01*
X137612380Y-137874285D01*
X136612380Y-137874285D01*
X136612380Y-137540952D01*
X136660000Y-137445714D01*
X136707619Y-137398095D01*
X136802857Y-137350476D01*
X136898095Y-137350476D01*
X136993333Y-137398095D01*
X137040952Y-137445714D01*
X137088571Y-137540952D01*
X137088571Y-137874285D01*
X137612380Y-136350476D02*
X137612380Y-136921904D01*
X137612380Y-136636190D02*
X136612380Y-136636190D01*
X136755238Y-136731428D01*
X136850476Y-136826666D01*
X136898095Y-136921904D01*
X136612380Y-135445714D02*
X136612380Y-135921904D01*
X137088571Y-135969523D01*
X137040952Y-135921904D01*
X136993333Y-135826666D01*
X136993333Y-135588571D01*
X137040952Y-135493333D01*
X137088571Y-135445714D01*
X137183809Y-135398095D01*
X137421904Y-135398095D01*
X137517142Y-135445714D01*
X137564761Y-135493333D01*
X137612380Y-135588571D01*
X137612380Y-135826666D01*
X137564761Y-135921904D01*
X137517142Y-135969523D01*
X124912380Y-138874285D02*
X123912380Y-138874285D01*
X123912380Y-138493333D01*
X123960000Y-138398095D01*
X124007619Y-138350476D01*
X124102857Y-138302857D01*
X124245714Y-138302857D01*
X124340952Y-138350476D01*
X124388571Y-138398095D01*
X124436190Y-138493333D01*
X124436190Y-138874285D01*
X124388571Y-137540952D02*
X124436190Y-137398095D01*
X124483809Y-137350476D01*
X124579047Y-137302857D01*
X124721904Y-137302857D01*
X124817142Y-137350476D01*
X124864761Y-137398095D01*
X124912380Y-137493333D01*
X124912380Y-137874285D01*
X123912380Y-137874285D01*
X123912380Y-137540952D01*
X123960000Y-137445714D01*
X124007619Y-137398095D01*
X124102857Y-137350476D01*
X124198095Y-137350476D01*
X124293333Y-137398095D01*
X124340952Y-137445714D01*
X124388571Y-137540952D01*
X124388571Y-137874285D01*
X124912380Y-136350476D02*
X124912380Y-136921904D01*
X124912380Y-136636190D02*
X123912380Y-136636190D01*
X124055238Y-136731428D01*
X124150476Y-136826666D01*
X124198095Y-136921904D01*
X123912380Y-135731428D02*
X123912380Y-135636190D01*
X123960000Y-135540952D01*
X124007619Y-135493333D01*
X124102857Y-135445714D01*
X124293333Y-135398095D01*
X124531428Y-135398095D01*
X124721904Y-135445714D01*
X124817142Y-135493333D01*
X124864761Y-135540952D01*
X124912380Y-135636190D01*
X124912380Y-135731428D01*
X124864761Y-135826666D01*
X124817142Y-135874285D01*
X124721904Y-135921904D01*
X124531428Y-135969523D01*
X124293333Y-135969523D01*
X124102857Y-135921904D01*
X124007619Y-135874285D01*
X123960000Y-135826666D01*
X123912380Y-135731428D01*
X127452380Y-138874285D02*
X126452380Y-138874285D01*
X126452380Y-138493333D01*
X126500000Y-138398095D01*
X126547619Y-138350476D01*
X126642857Y-138302857D01*
X126785714Y-138302857D01*
X126880952Y-138350476D01*
X126928571Y-138398095D01*
X126976190Y-138493333D01*
X126976190Y-138874285D01*
X126928571Y-137540952D02*
X126976190Y-137398095D01*
X127023809Y-137350476D01*
X127119047Y-137302857D01*
X127261904Y-137302857D01*
X127357142Y-137350476D01*
X127404761Y-137398095D01*
X127452380Y-137493333D01*
X127452380Y-137874285D01*
X126452380Y-137874285D01*
X126452380Y-137540952D01*
X126500000Y-137445714D01*
X126547619Y-137398095D01*
X126642857Y-137350476D01*
X126738095Y-137350476D01*
X126833333Y-137398095D01*
X126880952Y-137445714D01*
X126928571Y-137540952D01*
X126928571Y-137874285D01*
X127452380Y-136350476D02*
X127452380Y-136921904D01*
X127452380Y-136636190D02*
X126452380Y-136636190D01*
X126595238Y-136731428D01*
X126690476Y-136826666D01*
X126738095Y-136921904D01*
X127452380Y-135398095D02*
X127452380Y-135969523D01*
X127452380Y-135683809D02*
X126452380Y-135683809D01*
X126595238Y-135779047D01*
X126690476Y-135874285D01*
X126738095Y-135969523D01*
X135072380Y-138874285D02*
X134072380Y-138874285D01*
X134072380Y-138493333D01*
X134120000Y-138398095D01*
X134167619Y-138350476D01*
X134262857Y-138302857D01*
X134405714Y-138302857D01*
X134500952Y-138350476D01*
X134548571Y-138398095D01*
X134596190Y-138493333D01*
X134596190Y-138874285D01*
X134548571Y-137540952D02*
X134596190Y-137398095D01*
X134643809Y-137350476D01*
X134739047Y-137302857D01*
X134881904Y-137302857D01*
X134977142Y-137350476D01*
X135024761Y-137398095D01*
X135072380Y-137493333D01*
X135072380Y-137874285D01*
X134072380Y-137874285D01*
X134072380Y-137540952D01*
X134120000Y-137445714D01*
X134167619Y-137398095D01*
X134262857Y-137350476D01*
X134358095Y-137350476D01*
X134453333Y-137398095D01*
X134500952Y-137445714D01*
X134548571Y-137540952D01*
X134548571Y-137874285D01*
X135072380Y-136350476D02*
X135072380Y-136921904D01*
X135072380Y-136636190D02*
X134072380Y-136636190D01*
X134215238Y-136731428D01*
X134310476Y-136826666D01*
X134358095Y-136921904D01*
X134405714Y-135493333D02*
X135072380Y-135493333D01*
X134024761Y-135731428D02*
X134739047Y-135969523D01*
X134739047Y-135350476D01*
X129992380Y-138874285D02*
X128992380Y-138874285D01*
X128992380Y-138493333D01*
X129040000Y-138398095D01*
X129087619Y-138350476D01*
X129182857Y-138302857D01*
X129325714Y-138302857D01*
X129420952Y-138350476D01*
X129468571Y-138398095D01*
X129516190Y-138493333D01*
X129516190Y-138874285D01*
X129468571Y-137540952D02*
X129516190Y-137398095D01*
X129563809Y-137350476D01*
X129659047Y-137302857D01*
X129801904Y-137302857D01*
X129897142Y-137350476D01*
X129944761Y-137398095D01*
X129992380Y-137493333D01*
X129992380Y-137874285D01*
X128992380Y-137874285D01*
X128992380Y-137540952D01*
X129040000Y-137445714D01*
X129087619Y-137398095D01*
X129182857Y-137350476D01*
X129278095Y-137350476D01*
X129373333Y-137398095D01*
X129420952Y-137445714D01*
X129468571Y-137540952D01*
X129468571Y-137874285D01*
X129992380Y-136350476D02*
X129992380Y-136921904D01*
X129992380Y-136636190D02*
X128992380Y-136636190D01*
X129135238Y-136731428D01*
X129230476Y-136826666D01*
X129278095Y-136921904D01*
X129087619Y-135969523D02*
X129040000Y-135921904D01*
X128992380Y-135826666D01*
X128992380Y-135588571D01*
X129040000Y-135493333D01*
X129087619Y-135445714D01*
X129182857Y-135398095D01*
X129278095Y-135398095D01*
X129420952Y-135445714D01*
X129992380Y-136017142D01*
X129992380Y-135398095D01*
X132532380Y-138874285D02*
X131532380Y-138874285D01*
X131532380Y-138493333D01*
X131580000Y-138398095D01*
X131627619Y-138350476D01*
X131722857Y-138302857D01*
X131865714Y-138302857D01*
X131960952Y-138350476D01*
X132008571Y-138398095D01*
X132056190Y-138493333D01*
X132056190Y-138874285D01*
X132008571Y-137540952D02*
X132056190Y-137398095D01*
X132103809Y-137350476D01*
X132199047Y-137302857D01*
X132341904Y-137302857D01*
X132437142Y-137350476D01*
X132484761Y-137398095D01*
X132532380Y-137493333D01*
X132532380Y-137874285D01*
X131532380Y-137874285D01*
X131532380Y-137540952D01*
X131580000Y-137445714D01*
X131627619Y-137398095D01*
X131722857Y-137350476D01*
X131818095Y-137350476D01*
X131913333Y-137398095D01*
X131960952Y-137445714D01*
X132008571Y-137540952D01*
X132008571Y-137874285D01*
X132532380Y-136350476D02*
X132532380Y-136921904D01*
X132532380Y-136636190D02*
X131532380Y-136636190D01*
X131675238Y-136731428D01*
X131770476Y-136826666D01*
X131818095Y-136921904D01*
X131532380Y-136017142D02*
X131532380Y-135398095D01*
X131913333Y-135731428D01*
X131913333Y-135588571D01*
X131960952Y-135493333D01*
X132008571Y-135445714D01*
X132103809Y-135398095D01*
X132341904Y-135398095D01*
X132437142Y-135445714D01*
X132484761Y-135493333D01*
X132532380Y-135588571D01*
X132532380Y-135874285D01*
X132484761Y-135969523D01*
X132437142Y-136017142D01*
X108458095Y-123960000D02*
X108362857Y-123912380D01*
X108220000Y-123912380D01*
X108077142Y-123960000D01*
X107981904Y-124055238D01*
X107934285Y-124150476D01*
X107886666Y-124340952D01*
X107886666Y-124483809D01*
X107934285Y-124674285D01*
X107981904Y-124769523D01*
X108077142Y-124864761D01*
X108220000Y-124912380D01*
X108315238Y-124912380D01*
X108458095Y-124864761D01*
X108505714Y-124817142D01*
X108505714Y-124483809D01*
X108315238Y-124483809D01*
X108934285Y-124912380D02*
X108934285Y-123912380D01*
X109505714Y-124912380D01*
X109505714Y-123912380D01*
X109981904Y-124912380D02*
X109981904Y-123912380D01*
X110220000Y-123912380D01*
X110362857Y-123960000D01*
X110458095Y-124055238D01*
X110505714Y-124150476D01*
X110553333Y-124340952D01*
X110553333Y-124483809D01*
X110505714Y-124674285D01*
X110458095Y-124769523D01*
X110362857Y-124864761D01*
X110220000Y-124912380D01*
X109981904Y-124912380D01*
X108053333Y-99512380D02*
X108053333Y-98512380D01*
X108434285Y-98512380D01*
X108529523Y-98560000D01*
X108577142Y-98607619D01*
X108624761Y-98702857D01*
X108624761Y-98845714D01*
X108577142Y-98940952D01*
X108529523Y-98988571D01*
X108434285Y-99036190D01*
X108053333Y-99036190D01*
X109005714Y-99226666D02*
X109481904Y-99226666D01*
X108910476Y-99512380D02*
X109243809Y-98512380D01*
X109577142Y-99512380D01*
X109815238Y-98512380D02*
X110434285Y-98512380D01*
X110100952Y-98893333D01*
X110243809Y-98893333D01*
X110339047Y-98940952D01*
X110386666Y-98988571D01*
X110434285Y-99083809D01*
X110434285Y-99321904D01*
X110386666Y-99417142D01*
X110339047Y-99464761D01*
X110243809Y-99512380D01*
X109958095Y-99512380D01*
X109862857Y-99464761D01*
X109815238Y-99417142D01*
X107761904Y-89352380D02*
X107761904Y-88352380D01*
X108142857Y-88352380D01*
X108238095Y-88400000D01*
X108285714Y-88447619D01*
X108333333Y-88542857D01*
X108333333Y-88685714D01*
X108285714Y-88780952D01*
X108238095Y-88828571D01*
X108142857Y-88876190D01*
X107761904Y-88876190D01*
X109333333Y-89257142D02*
X109285714Y-89304761D01*
X109142857Y-89352380D01*
X109047619Y-89352380D01*
X108904761Y-89304761D01*
X108809523Y-89209523D01*
X108761904Y-89114285D01*
X108714285Y-88923809D01*
X108714285Y-88780952D01*
X108761904Y-88590476D01*
X108809523Y-88495238D01*
X108904761Y-88400000D01*
X109047619Y-88352380D01*
X109142857Y-88352380D01*
X109285714Y-88400000D01*
X109333333Y-88447619D01*
X109666666Y-88352380D02*
X110285714Y-88352380D01*
X109952380Y-88733333D01*
X110095238Y-88733333D01*
X110190476Y-88780952D01*
X110238095Y-88828571D01*
X110285714Y-88923809D01*
X110285714Y-89161904D01*
X110238095Y-89257142D01*
X110190476Y-89304761D01*
X110095238Y-89352380D01*
X109809523Y-89352380D01*
X109714285Y-89304761D01*
X109666666Y-89257142D01*
X107981904Y-114752380D02*
X107981904Y-113752380D01*
X108362857Y-113752380D01*
X108458095Y-113800000D01*
X108505714Y-113847619D01*
X108553333Y-113942857D01*
X108553333Y-114085714D01*
X108505714Y-114180952D01*
X108458095Y-114228571D01*
X108362857Y-114276190D01*
X107981904Y-114276190D01*
X109553333Y-114657142D02*
X109505714Y-114704761D01*
X109362857Y-114752380D01*
X109267619Y-114752380D01*
X109124761Y-114704761D01*
X109029523Y-114609523D01*
X108981904Y-114514285D01*
X108934285Y-114323809D01*
X108934285Y-114180952D01*
X108981904Y-113990476D01*
X109029523Y-113895238D01*
X109124761Y-113800000D01*
X109267619Y-113752380D01*
X109362857Y-113752380D01*
X109505714Y-113800000D01*
X109553333Y-113847619D01*
X110458095Y-113752380D02*
X109981904Y-113752380D01*
X109934285Y-114228571D01*
X109981904Y-114180952D01*
X110077142Y-114133333D01*
X110315238Y-114133333D01*
X110410476Y-114180952D01*
X110458095Y-114228571D01*
X110505714Y-114323809D01*
X110505714Y-114561904D01*
X110458095Y-114657142D01*
X110410476Y-114704761D01*
X110315238Y-114752380D01*
X110077142Y-114752380D01*
X109981904Y-114704761D01*
X109934285Y-114657142D01*
X107981904Y-117292380D02*
X107981904Y-116292380D01*
X108362857Y-116292380D01*
X108458095Y-116340000D01*
X108505714Y-116387619D01*
X108553333Y-116482857D01*
X108553333Y-116625714D01*
X108505714Y-116720952D01*
X108458095Y-116768571D01*
X108362857Y-116816190D01*
X107981904Y-116816190D01*
X109315238Y-116768571D02*
X109458095Y-116816190D01*
X109505714Y-116863809D01*
X109553333Y-116959047D01*
X109553333Y-117101904D01*
X109505714Y-117197142D01*
X109458095Y-117244761D01*
X109362857Y-117292380D01*
X108981904Y-117292380D01*
X108981904Y-116292380D01*
X109315238Y-116292380D01*
X109410476Y-116340000D01*
X109458095Y-116387619D01*
X109505714Y-116482857D01*
X109505714Y-116578095D01*
X109458095Y-116673333D01*
X109410476Y-116720952D01*
X109315238Y-116768571D01*
X108981904Y-116768571D01*
X110172380Y-116292380D02*
X110267619Y-116292380D01*
X110362857Y-116340000D01*
X110410476Y-116387619D01*
X110458095Y-116482857D01*
X110505714Y-116673333D01*
X110505714Y-116911428D01*
X110458095Y-117101904D01*
X110410476Y-117197142D01*
X110362857Y-117244761D01*
X110267619Y-117292380D01*
X110172380Y-117292380D01*
X110077142Y-117244761D01*
X110029523Y-117197142D01*
X109981904Y-117101904D01*
X109934285Y-116911428D01*
X109934285Y-116673333D01*
X109981904Y-116482857D01*
X110029523Y-116387619D01*
X110077142Y-116340000D01*
X110172380Y-116292380D01*
X108053333Y-104592380D02*
X108053333Y-103592380D01*
X108434285Y-103592380D01*
X108529523Y-103640000D01*
X108577142Y-103687619D01*
X108624761Y-103782857D01*
X108624761Y-103925714D01*
X108577142Y-104020952D01*
X108529523Y-104068571D01*
X108434285Y-104116190D01*
X108053333Y-104116190D01*
X109005714Y-104306666D02*
X109481904Y-104306666D01*
X108910476Y-104592380D02*
X109243809Y-103592380D01*
X109577142Y-104592380D01*
X110386666Y-103592380D02*
X109910476Y-103592380D01*
X109862857Y-104068571D01*
X109910476Y-104020952D01*
X110005714Y-103973333D01*
X110243809Y-103973333D01*
X110339047Y-104020952D01*
X110386666Y-104068571D01*
X110434285Y-104163809D01*
X110434285Y-104401904D01*
X110386666Y-104497142D01*
X110339047Y-104544761D01*
X110243809Y-104592380D01*
X110005714Y-104592380D01*
X109910476Y-104544761D01*
X109862857Y-104497142D01*
X107981904Y-122372380D02*
X107981904Y-121372380D01*
X108362857Y-121372380D01*
X108458095Y-121420000D01*
X108505714Y-121467619D01*
X108553333Y-121562857D01*
X108553333Y-121705714D01*
X108505714Y-121800952D01*
X108458095Y-121848571D01*
X108362857Y-121896190D01*
X107981904Y-121896190D01*
X109315238Y-121848571D02*
X109458095Y-121896190D01*
X109505714Y-121943809D01*
X109553333Y-122039047D01*
X109553333Y-122181904D01*
X109505714Y-122277142D01*
X109458095Y-122324761D01*
X109362857Y-122372380D01*
X108981904Y-122372380D01*
X108981904Y-121372380D01*
X109315238Y-121372380D01*
X109410476Y-121420000D01*
X109458095Y-121467619D01*
X109505714Y-121562857D01*
X109505714Y-121658095D01*
X109458095Y-121753333D01*
X109410476Y-121800952D01*
X109315238Y-121848571D01*
X108981904Y-121848571D01*
X109934285Y-121467619D02*
X109981904Y-121420000D01*
X110077142Y-121372380D01*
X110315238Y-121372380D01*
X110410476Y-121420000D01*
X110458095Y-121467619D01*
X110505714Y-121562857D01*
X110505714Y-121658095D01*
X110458095Y-121800952D01*
X109886666Y-122372380D01*
X110505714Y-122372380D01*
X108053333Y-109672380D02*
X108053333Y-108672380D01*
X108434285Y-108672380D01*
X108529523Y-108720000D01*
X108577142Y-108767619D01*
X108624761Y-108862857D01*
X108624761Y-109005714D01*
X108577142Y-109100952D01*
X108529523Y-109148571D01*
X108434285Y-109196190D01*
X108053333Y-109196190D01*
X109005714Y-109386666D02*
X109481904Y-109386666D01*
X108910476Y-109672380D02*
X109243809Y-108672380D01*
X109577142Y-109672380D01*
X109815238Y-108672380D02*
X110481904Y-108672380D01*
X110053333Y-109672380D01*
X108053333Y-107132380D02*
X108053333Y-106132380D01*
X108434285Y-106132380D01*
X108529523Y-106180000D01*
X108577142Y-106227619D01*
X108624761Y-106322857D01*
X108624761Y-106465714D01*
X108577142Y-106560952D01*
X108529523Y-106608571D01*
X108434285Y-106656190D01*
X108053333Y-106656190D01*
X109005714Y-106846666D02*
X109481904Y-106846666D01*
X108910476Y-107132380D02*
X109243809Y-106132380D01*
X109577142Y-107132380D01*
X110339047Y-106132380D02*
X110148571Y-106132380D01*
X110053333Y-106180000D01*
X110005714Y-106227619D01*
X109910476Y-106370476D01*
X109862857Y-106560952D01*
X109862857Y-106941904D01*
X109910476Y-107037142D01*
X109958095Y-107084761D01*
X110053333Y-107132380D01*
X110243809Y-107132380D01*
X110339047Y-107084761D01*
X110386666Y-107037142D01*
X110434285Y-106941904D01*
X110434285Y-106703809D01*
X110386666Y-106608571D01*
X110339047Y-106560952D01*
X110243809Y-106513333D01*
X110053333Y-106513333D01*
X109958095Y-106560952D01*
X109910476Y-106608571D01*
X109862857Y-106703809D01*
X108053333Y-102052380D02*
X108053333Y-101052380D01*
X108434285Y-101052380D01*
X108529523Y-101100000D01*
X108577142Y-101147619D01*
X108624761Y-101242857D01*
X108624761Y-101385714D01*
X108577142Y-101480952D01*
X108529523Y-101528571D01*
X108434285Y-101576190D01*
X108053333Y-101576190D01*
X109005714Y-101766666D02*
X109481904Y-101766666D01*
X108910476Y-102052380D02*
X109243809Y-101052380D01*
X109577142Y-102052380D01*
X110339047Y-101385714D02*
X110339047Y-102052380D01*
X110100952Y-101004761D02*
X109862857Y-101719047D01*
X110481904Y-101719047D01*
X108053333Y-96972380D02*
X108053333Y-95972380D01*
X108434285Y-95972380D01*
X108529523Y-96020000D01*
X108577142Y-96067619D01*
X108624761Y-96162857D01*
X108624761Y-96305714D01*
X108577142Y-96400952D01*
X108529523Y-96448571D01*
X108434285Y-96496190D01*
X108053333Y-96496190D01*
X109005714Y-96686666D02*
X109481904Y-96686666D01*
X108910476Y-96972380D02*
X109243809Y-95972380D01*
X109577142Y-96972380D01*
X109862857Y-96067619D02*
X109910476Y-96020000D01*
X110005714Y-95972380D01*
X110243809Y-95972380D01*
X110339047Y-96020000D01*
X110386666Y-96067619D01*
X110434285Y-96162857D01*
X110434285Y-96258095D01*
X110386666Y-96400952D01*
X109815238Y-96972380D01*
X110434285Y-96972380D01*
X107761904Y-76652380D02*
X107761904Y-75652380D01*
X108142857Y-75652380D01*
X108238095Y-75700000D01*
X108285714Y-75747619D01*
X108333333Y-75842857D01*
X108333333Y-75985714D01*
X108285714Y-76080952D01*
X108238095Y-76128571D01*
X108142857Y-76176190D01*
X107761904Y-76176190D01*
X108761904Y-76652380D02*
X108761904Y-75652380D01*
X109000000Y-75652380D01*
X109142857Y-75700000D01*
X109238095Y-75795238D01*
X109285714Y-75890476D01*
X109333333Y-76080952D01*
X109333333Y-76223809D01*
X109285714Y-76414285D01*
X109238095Y-76509523D01*
X109142857Y-76604761D01*
X109000000Y-76652380D01*
X108761904Y-76652380D01*
X110285714Y-76652380D02*
X109714285Y-76652380D01*
X110000000Y-76652380D02*
X110000000Y-75652380D01*
X109904761Y-75795238D01*
X109809523Y-75890476D01*
X109714285Y-75938095D01*
X107981904Y-112212380D02*
X107981904Y-111212380D01*
X108362857Y-111212380D01*
X108458095Y-111260000D01*
X108505714Y-111307619D01*
X108553333Y-111402857D01*
X108553333Y-111545714D01*
X108505714Y-111640952D01*
X108458095Y-111688571D01*
X108362857Y-111736190D01*
X107981904Y-111736190D01*
X109553333Y-112117142D02*
X109505714Y-112164761D01*
X109362857Y-112212380D01*
X109267619Y-112212380D01*
X109124761Y-112164761D01*
X109029523Y-112069523D01*
X108981904Y-111974285D01*
X108934285Y-111783809D01*
X108934285Y-111640952D01*
X108981904Y-111450476D01*
X109029523Y-111355238D01*
X109124761Y-111260000D01*
X109267619Y-111212380D01*
X109362857Y-111212380D01*
X109505714Y-111260000D01*
X109553333Y-111307619D01*
X110410476Y-111545714D02*
X110410476Y-112212380D01*
X110172380Y-111164761D02*
X109934285Y-111879047D01*
X110553333Y-111879047D01*
X107761904Y-84272380D02*
X107761904Y-83272380D01*
X108142857Y-83272380D01*
X108238095Y-83320000D01*
X108285714Y-83367619D01*
X108333333Y-83462857D01*
X108333333Y-83605714D01*
X108285714Y-83700952D01*
X108238095Y-83748571D01*
X108142857Y-83796190D01*
X107761904Y-83796190D01*
X109333333Y-84177142D02*
X109285714Y-84224761D01*
X109142857Y-84272380D01*
X109047619Y-84272380D01*
X108904761Y-84224761D01*
X108809523Y-84129523D01*
X108761904Y-84034285D01*
X108714285Y-83843809D01*
X108714285Y-83700952D01*
X108761904Y-83510476D01*
X108809523Y-83415238D01*
X108904761Y-83320000D01*
X109047619Y-83272380D01*
X109142857Y-83272380D01*
X109285714Y-83320000D01*
X109333333Y-83367619D01*
X110285714Y-84272380D02*
X109714285Y-84272380D01*
X110000000Y-84272380D02*
X110000000Y-83272380D01*
X109904761Y-83415238D01*
X109809523Y-83510476D01*
X109714285Y-83558095D01*
X107981904Y-119832380D02*
X107981904Y-118832380D01*
X108362857Y-118832380D01*
X108458095Y-118880000D01*
X108505714Y-118927619D01*
X108553333Y-119022857D01*
X108553333Y-119165714D01*
X108505714Y-119260952D01*
X108458095Y-119308571D01*
X108362857Y-119356190D01*
X107981904Y-119356190D01*
X109315238Y-119308571D02*
X109458095Y-119356190D01*
X109505714Y-119403809D01*
X109553333Y-119499047D01*
X109553333Y-119641904D01*
X109505714Y-119737142D01*
X109458095Y-119784761D01*
X109362857Y-119832380D01*
X108981904Y-119832380D01*
X108981904Y-118832380D01*
X109315238Y-118832380D01*
X109410476Y-118880000D01*
X109458095Y-118927619D01*
X109505714Y-119022857D01*
X109505714Y-119118095D01*
X109458095Y-119213333D01*
X109410476Y-119260952D01*
X109315238Y-119308571D01*
X108981904Y-119308571D01*
X110505714Y-119832380D02*
X109934285Y-119832380D01*
X110220000Y-119832380D02*
X110220000Y-118832380D01*
X110124761Y-118975238D01*
X110029523Y-119070476D01*
X109934285Y-119118095D01*
X107761904Y-81732380D02*
X107761904Y-80732380D01*
X108142857Y-80732380D01*
X108238095Y-80780000D01*
X108285714Y-80827619D01*
X108333333Y-80922857D01*
X108333333Y-81065714D01*
X108285714Y-81160952D01*
X108238095Y-81208571D01*
X108142857Y-81256190D01*
X107761904Y-81256190D01*
X109333333Y-81637142D02*
X109285714Y-81684761D01*
X109142857Y-81732380D01*
X109047619Y-81732380D01*
X108904761Y-81684761D01*
X108809523Y-81589523D01*
X108761904Y-81494285D01*
X108714285Y-81303809D01*
X108714285Y-81160952D01*
X108761904Y-80970476D01*
X108809523Y-80875238D01*
X108904761Y-80780000D01*
X109047619Y-80732380D01*
X109142857Y-80732380D01*
X109285714Y-80780000D01*
X109333333Y-80827619D01*
X109952380Y-80732380D02*
X110047619Y-80732380D01*
X110142857Y-80780000D01*
X110190476Y-80827619D01*
X110238095Y-80922857D01*
X110285714Y-81113333D01*
X110285714Y-81351428D01*
X110238095Y-81541904D01*
X110190476Y-81637142D01*
X110142857Y-81684761D01*
X110047619Y-81732380D01*
X109952380Y-81732380D01*
X109857142Y-81684761D01*
X109809523Y-81637142D01*
X109761904Y-81541904D01*
X109714285Y-81351428D01*
X109714285Y-81113333D01*
X109761904Y-80922857D01*
X109809523Y-80827619D01*
X109857142Y-80780000D01*
X109952380Y-80732380D01*
X107833333Y-91892380D02*
X107833333Y-90892380D01*
X108214285Y-90892380D01*
X108309523Y-90940000D01*
X108357142Y-90987619D01*
X108404761Y-91082857D01*
X108404761Y-91225714D01*
X108357142Y-91320952D01*
X108309523Y-91368571D01*
X108214285Y-91416190D01*
X107833333Y-91416190D01*
X108785714Y-91606666D02*
X109261904Y-91606666D01*
X108690476Y-91892380D02*
X109023809Y-90892380D01*
X109357142Y-91892380D01*
X109880952Y-90892380D02*
X109976190Y-90892380D01*
X110071428Y-90940000D01*
X110119047Y-90987619D01*
X110166666Y-91082857D01*
X110214285Y-91273333D01*
X110214285Y-91511428D01*
X110166666Y-91701904D01*
X110119047Y-91797142D01*
X110071428Y-91844761D01*
X109976190Y-91892380D01*
X109880952Y-91892380D01*
X109785714Y-91844761D01*
X109738095Y-91797142D01*
X109690476Y-91701904D01*
X109642857Y-91511428D01*
X109642857Y-91273333D01*
X109690476Y-91082857D01*
X109738095Y-90987619D01*
X109785714Y-90940000D01*
X109880952Y-90892380D01*
X108452380Y-79192380D02*
X108119047Y-78716190D01*
X107880952Y-79192380D02*
X107880952Y-78192380D01*
X108261904Y-78192380D01*
X108357142Y-78240000D01*
X108404761Y-78287619D01*
X108452380Y-78382857D01*
X108452380Y-78525714D01*
X108404761Y-78620952D01*
X108357142Y-78668571D01*
X108261904Y-78716190D01*
X107880952Y-78716190D01*
X108833333Y-79144761D02*
X108976190Y-79192380D01*
X109214285Y-79192380D01*
X109309523Y-79144761D01*
X109357142Y-79097142D01*
X109404761Y-79001904D01*
X109404761Y-78906666D01*
X109357142Y-78811428D01*
X109309523Y-78763809D01*
X109214285Y-78716190D01*
X109023809Y-78668571D01*
X108928571Y-78620952D01*
X108880952Y-78573333D01*
X108833333Y-78478095D01*
X108833333Y-78382857D01*
X108880952Y-78287619D01*
X108928571Y-78240000D01*
X109023809Y-78192380D01*
X109261904Y-78192380D01*
X109404761Y-78240000D01*
X109690476Y-78192380D02*
X110261904Y-78192380D01*
X109976190Y-79192380D02*
X109976190Y-78192380D01*
X107833333Y-94432380D02*
X107833333Y-93432380D01*
X108214285Y-93432380D01*
X108309523Y-93480000D01*
X108357142Y-93527619D01*
X108404761Y-93622857D01*
X108404761Y-93765714D01*
X108357142Y-93860952D01*
X108309523Y-93908571D01*
X108214285Y-93956190D01*
X107833333Y-93956190D01*
X108785714Y-94146666D02*
X109261904Y-94146666D01*
X108690476Y-94432380D02*
X109023809Y-93432380D01*
X109357142Y-94432380D01*
X110214285Y-94432380D02*
X109642857Y-94432380D01*
X109928571Y-94432380D02*
X109928571Y-93432380D01*
X109833333Y-93575238D01*
X109738095Y-93670476D01*
X109642857Y-93718095D01*
X107761904Y-86812380D02*
X107761904Y-85812380D01*
X108142857Y-85812380D01*
X108238095Y-85860000D01*
X108285714Y-85907619D01*
X108333333Y-86002857D01*
X108333333Y-86145714D01*
X108285714Y-86240952D01*
X108238095Y-86288571D01*
X108142857Y-86336190D01*
X107761904Y-86336190D01*
X109333333Y-86717142D02*
X109285714Y-86764761D01*
X109142857Y-86812380D01*
X109047619Y-86812380D01*
X108904761Y-86764761D01*
X108809523Y-86669523D01*
X108761904Y-86574285D01*
X108714285Y-86383809D01*
X108714285Y-86240952D01*
X108761904Y-86050476D01*
X108809523Y-85955238D01*
X108904761Y-85860000D01*
X109047619Y-85812380D01*
X109142857Y-85812380D01*
X109285714Y-85860000D01*
X109333333Y-85907619D01*
X109714285Y-85907619D02*
X109761904Y-85860000D01*
X109857142Y-85812380D01*
X110095238Y-85812380D01*
X110190476Y-85860000D01*
X110238095Y-85907619D01*
X110285714Y-86002857D01*
X110285714Y-86098095D01*
X110238095Y-86240952D01*
X109666666Y-86812380D01*
X110285714Y-86812380D01*
X107785714Y-66452380D02*
X107785714Y-65452380D01*
X108166666Y-65452380D01*
X108261904Y-65500000D01*
X108309523Y-65547619D01*
X108357142Y-65642857D01*
X108357142Y-65785714D01*
X108309523Y-65880952D01*
X108261904Y-65928571D01*
X108166666Y-65976190D01*
X107785714Y-65976190D01*
X109357142Y-66357142D02*
X109309523Y-66404761D01*
X109166666Y-66452380D01*
X109071428Y-66452380D01*
X108928571Y-66404761D01*
X108833333Y-66309523D01*
X108785714Y-66214285D01*
X108738095Y-66023809D01*
X108738095Y-65880952D01*
X108785714Y-65690476D01*
X108833333Y-65595238D01*
X108928571Y-65500000D01*
X109071428Y-65452380D01*
X109166666Y-65452380D01*
X109309523Y-65500000D01*
X109357142Y-65547619D01*
X110309523Y-66452380D02*
X109738095Y-66452380D01*
X110023809Y-66452380D02*
X110023809Y-65452380D01*
X109928571Y-65595238D01*
X109833333Y-65690476D01*
X109738095Y-65738095D01*
X110642857Y-65452380D02*
X111261904Y-65452380D01*
X110928571Y-65833333D01*
X111071428Y-65833333D01*
X111166666Y-65880952D01*
X111214285Y-65928571D01*
X111261904Y-66023809D01*
X111261904Y-66261904D01*
X111214285Y-66357142D01*
X111166666Y-66404761D01*
X111071428Y-66452380D01*
X110785714Y-66452380D01*
X110690476Y-66404761D01*
X110642857Y-66357142D01*
X108738095Y-55380000D02*
X108642857Y-55332380D01*
X108500000Y-55332380D01*
X108357142Y-55380000D01*
X108261904Y-55475238D01*
X108214285Y-55570476D01*
X108166666Y-55760952D01*
X108166666Y-55903809D01*
X108214285Y-56094285D01*
X108261904Y-56189523D01*
X108357142Y-56284761D01*
X108500000Y-56332380D01*
X108595238Y-56332380D01*
X108738095Y-56284761D01*
X108785714Y-56237142D01*
X108785714Y-55903809D01*
X108595238Y-55903809D01*
X109214285Y-56332380D02*
X109214285Y-55332380D01*
X109785714Y-56332380D01*
X109785714Y-55332380D01*
X110261904Y-56332380D02*
X110261904Y-55332380D01*
X110500000Y-55332380D01*
X110642857Y-55380000D01*
X110738095Y-55475238D01*
X110785714Y-55570476D01*
X110833333Y-55760952D01*
X110833333Y-55903809D01*
X110785714Y-56094285D01*
X110738095Y-56189523D01*
X110642857Y-56284761D01*
X110500000Y-56332380D01*
X110261904Y-56332380D01*
X107785714Y-71572380D02*
X107785714Y-70572380D01*
X108166666Y-70572380D01*
X108261904Y-70620000D01*
X108309523Y-70667619D01*
X108357142Y-70762857D01*
X108357142Y-70905714D01*
X108309523Y-71000952D01*
X108261904Y-71048571D01*
X108166666Y-71096190D01*
X107785714Y-71096190D01*
X109357142Y-71477142D02*
X109309523Y-71524761D01*
X109166666Y-71572380D01*
X109071428Y-71572380D01*
X108928571Y-71524761D01*
X108833333Y-71429523D01*
X108785714Y-71334285D01*
X108738095Y-71143809D01*
X108738095Y-71000952D01*
X108785714Y-70810476D01*
X108833333Y-70715238D01*
X108928571Y-70620000D01*
X109071428Y-70572380D01*
X109166666Y-70572380D01*
X109309523Y-70620000D01*
X109357142Y-70667619D01*
X110309523Y-71572380D02*
X109738095Y-71572380D01*
X110023809Y-71572380D02*
X110023809Y-70572380D01*
X109928571Y-70715238D01*
X109833333Y-70810476D01*
X109738095Y-70858095D01*
X111214285Y-70572380D02*
X110738095Y-70572380D01*
X110690476Y-71048571D01*
X110738095Y-71000952D01*
X110833333Y-70953333D01*
X111071428Y-70953333D01*
X111166666Y-71000952D01*
X111214285Y-71048571D01*
X111261904Y-71143809D01*
X111261904Y-71381904D01*
X111214285Y-71477142D01*
X111166666Y-71524761D01*
X111071428Y-71572380D01*
X110833333Y-71572380D01*
X110738095Y-71524761D01*
X110690476Y-71477142D01*
X107857142Y-62952380D02*
X108190476Y-63952380D01*
X108523809Y-62952380D01*
X109190476Y-63428571D02*
X109333333Y-63476190D01*
X109380952Y-63523809D01*
X109428571Y-63619047D01*
X109428571Y-63761904D01*
X109380952Y-63857142D01*
X109333333Y-63904761D01*
X109238095Y-63952380D01*
X108857142Y-63952380D01*
X108857142Y-62952380D01*
X109190476Y-62952380D01*
X109285714Y-63000000D01*
X109333333Y-63047619D01*
X109380952Y-63142857D01*
X109380952Y-63238095D01*
X109333333Y-63333333D01*
X109285714Y-63380952D01*
X109190476Y-63428571D01*
X108857142Y-63428571D01*
X109809523Y-63666666D02*
X110285714Y-63666666D01*
X109714285Y-63952380D02*
X110047619Y-62952380D01*
X110380952Y-63952380D01*
X110571428Y-62952380D02*
X111142857Y-62952380D01*
X110857142Y-63952380D02*
X110857142Y-62952380D01*
X107761904Y-74112380D02*
X107761904Y-73112380D01*
X108142857Y-73112380D01*
X108238095Y-73160000D01*
X108285714Y-73207619D01*
X108333333Y-73302857D01*
X108333333Y-73445714D01*
X108285714Y-73540952D01*
X108238095Y-73588571D01*
X108142857Y-73636190D01*
X107761904Y-73636190D01*
X108761904Y-74112380D02*
X108761904Y-73112380D01*
X109000000Y-73112380D01*
X109142857Y-73160000D01*
X109238095Y-73255238D01*
X109285714Y-73350476D01*
X109333333Y-73540952D01*
X109333333Y-73683809D01*
X109285714Y-73874285D01*
X109238095Y-73969523D01*
X109142857Y-74064761D01*
X109000000Y-74112380D01*
X108761904Y-74112380D01*
X109952380Y-73112380D02*
X110047619Y-73112380D01*
X110142857Y-73160000D01*
X110190476Y-73207619D01*
X110238095Y-73302857D01*
X110285714Y-73493333D01*
X110285714Y-73731428D01*
X110238095Y-73921904D01*
X110190476Y-74017142D01*
X110142857Y-74064761D01*
X110047619Y-74112380D01*
X109952380Y-74112380D01*
X109857142Y-74064761D01*
X109809523Y-74017142D01*
X109761904Y-73921904D01*
X109714285Y-73731428D01*
X109714285Y-73493333D01*
X109761904Y-73302857D01*
X109809523Y-73207619D01*
X109857142Y-73160000D01*
X109952380Y-73112380D01*
X107761904Y-60452380D02*
X108380952Y-60452380D01*
X108047619Y-60833333D01*
X108190476Y-60833333D01*
X108285714Y-60880952D01*
X108333333Y-60928571D01*
X108380952Y-61023809D01*
X108380952Y-61261904D01*
X108333333Y-61357142D01*
X108285714Y-61404761D01*
X108190476Y-61452380D01*
X107904761Y-61452380D01*
X107809523Y-61404761D01*
X107761904Y-61357142D01*
X108666666Y-60452380D02*
X109000000Y-61452380D01*
X109333333Y-60452380D01*
X109571428Y-60452380D02*
X110190476Y-60452380D01*
X109857142Y-60833333D01*
X110000000Y-60833333D01*
X110095238Y-60880952D01*
X110142857Y-60928571D01*
X110190476Y-61023809D01*
X110190476Y-61261904D01*
X110142857Y-61357142D01*
X110095238Y-61404761D01*
X110000000Y-61452380D01*
X109714285Y-61452380D01*
X109619047Y-61404761D01*
X109571428Y-61357142D01*
X108214285Y-58872380D02*
X108214285Y-57872380D01*
X108785714Y-58872380D01*
X108785714Y-57872380D01*
X109833333Y-58777142D02*
X109785714Y-58824761D01*
X109642857Y-58872380D01*
X109547619Y-58872380D01*
X109404761Y-58824761D01*
X109309523Y-58729523D01*
X109261904Y-58634285D01*
X109214285Y-58443809D01*
X109214285Y-58300952D01*
X109261904Y-58110476D01*
X109309523Y-58015238D01*
X109404761Y-57920000D01*
X109547619Y-57872380D01*
X109642857Y-57872380D01*
X109785714Y-57920000D01*
X109833333Y-57967619D01*
X107785714Y-69032380D02*
X107785714Y-68032380D01*
X108166666Y-68032380D01*
X108261904Y-68080000D01*
X108309523Y-68127619D01*
X108357142Y-68222857D01*
X108357142Y-68365714D01*
X108309523Y-68460952D01*
X108261904Y-68508571D01*
X108166666Y-68556190D01*
X107785714Y-68556190D01*
X109357142Y-68937142D02*
X109309523Y-68984761D01*
X109166666Y-69032380D01*
X109071428Y-69032380D01*
X108928571Y-68984761D01*
X108833333Y-68889523D01*
X108785714Y-68794285D01*
X108738095Y-68603809D01*
X108738095Y-68460952D01*
X108785714Y-68270476D01*
X108833333Y-68175238D01*
X108928571Y-68080000D01*
X109071428Y-68032380D01*
X109166666Y-68032380D01*
X109309523Y-68080000D01*
X109357142Y-68127619D01*
X110309523Y-69032380D02*
X109738095Y-69032380D01*
X110023809Y-69032380D02*
X110023809Y-68032380D01*
X109928571Y-68175238D01*
X109833333Y-68270476D01*
X109738095Y-68318095D01*
X111166666Y-68365714D02*
X111166666Y-69032380D01*
X110928571Y-67984761D02*
X110690476Y-68699047D01*
X111309523Y-68699047D01*
X165238095Y-123960000D02*
X165142857Y-123912380D01*
X165000000Y-123912380D01*
X164857142Y-123960000D01*
X164761904Y-124055238D01*
X164714285Y-124150476D01*
X164666666Y-124340952D01*
X164666666Y-124483809D01*
X164714285Y-124674285D01*
X164761904Y-124769523D01*
X164857142Y-124864761D01*
X165000000Y-124912380D01*
X165095238Y-124912380D01*
X165238095Y-124864761D01*
X165285714Y-124817142D01*
X165285714Y-124483809D01*
X165095238Y-124483809D01*
X165714285Y-124912380D02*
X165714285Y-123912380D01*
X166285714Y-124912380D01*
X166285714Y-123912380D01*
X166761904Y-124912380D02*
X166761904Y-123912380D01*
X167000000Y-123912380D01*
X167142857Y-123960000D01*
X167238095Y-124055238D01*
X167285714Y-124150476D01*
X167333333Y-124340952D01*
X167333333Y-124483809D01*
X167285714Y-124674285D01*
X167238095Y-124769523D01*
X167142857Y-124864761D01*
X167000000Y-124912380D01*
X166761904Y-124912380D01*
X164761904Y-122372380D02*
X164761904Y-121372380D01*
X165142857Y-121372380D01*
X165238095Y-121420000D01*
X165285714Y-121467619D01*
X165333333Y-121562857D01*
X165333333Y-121705714D01*
X165285714Y-121800952D01*
X165238095Y-121848571D01*
X165142857Y-121896190D01*
X164761904Y-121896190D01*
X166333333Y-122277142D02*
X166285714Y-122324761D01*
X166142857Y-122372380D01*
X166047619Y-122372380D01*
X165904761Y-122324761D01*
X165809523Y-122229523D01*
X165761904Y-122134285D01*
X165714285Y-121943809D01*
X165714285Y-121800952D01*
X165761904Y-121610476D01*
X165809523Y-121515238D01*
X165904761Y-121420000D01*
X166047619Y-121372380D01*
X166142857Y-121372380D01*
X166285714Y-121420000D01*
X166333333Y-121467619D01*
X167190476Y-121372380D02*
X167000000Y-121372380D01*
X166904761Y-121420000D01*
X166857142Y-121467619D01*
X166761904Y-121610476D01*
X166714285Y-121800952D01*
X166714285Y-122181904D01*
X166761904Y-122277142D01*
X166809523Y-122324761D01*
X166904761Y-122372380D01*
X167095238Y-122372380D01*
X167190476Y-122324761D01*
X167238095Y-122277142D01*
X167285714Y-122181904D01*
X167285714Y-121943809D01*
X167238095Y-121848571D01*
X167190476Y-121800952D01*
X167095238Y-121753333D01*
X166904761Y-121753333D01*
X166809523Y-121800952D01*
X166761904Y-121848571D01*
X166714285Y-121943809D01*
X164761904Y-119832380D02*
X164761904Y-118832380D01*
X165142857Y-118832380D01*
X165238095Y-118880000D01*
X165285714Y-118927619D01*
X165333333Y-119022857D01*
X165333333Y-119165714D01*
X165285714Y-119260952D01*
X165238095Y-119308571D01*
X165142857Y-119356190D01*
X164761904Y-119356190D01*
X166333333Y-119737142D02*
X166285714Y-119784761D01*
X166142857Y-119832380D01*
X166047619Y-119832380D01*
X165904761Y-119784761D01*
X165809523Y-119689523D01*
X165761904Y-119594285D01*
X165714285Y-119403809D01*
X165714285Y-119260952D01*
X165761904Y-119070476D01*
X165809523Y-118975238D01*
X165904761Y-118880000D01*
X166047619Y-118832380D01*
X166142857Y-118832380D01*
X166285714Y-118880000D01*
X166333333Y-118927619D01*
X166666666Y-118832380D02*
X167333333Y-118832380D01*
X166904761Y-119832380D01*
X164761904Y-117292380D02*
X164761904Y-116292380D01*
X165142857Y-116292380D01*
X165238095Y-116340000D01*
X165285714Y-116387619D01*
X165333333Y-116482857D01*
X165333333Y-116625714D01*
X165285714Y-116720952D01*
X165238095Y-116768571D01*
X165142857Y-116816190D01*
X164761904Y-116816190D01*
X166333333Y-117197142D02*
X166285714Y-117244761D01*
X166142857Y-117292380D01*
X166047619Y-117292380D01*
X165904761Y-117244761D01*
X165809523Y-117149523D01*
X165761904Y-117054285D01*
X165714285Y-116863809D01*
X165714285Y-116720952D01*
X165761904Y-116530476D01*
X165809523Y-116435238D01*
X165904761Y-116340000D01*
X166047619Y-116292380D01*
X166142857Y-116292380D01*
X166285714Y-116340000D01*
X166333333Y-116387619D01*
X166904761Y-116720952D02*
X166809523Y-116673333D01*
X166761904Y-116625714D01*
X166714285Y-116530476D01*
X166714285Y-116482857D01*
X166761904Y-116387619D01*
X166809523Y-116340000D01*
X166904761Y-116292380D01*
X167095238Y-116292380D01*
X167190476Y-116340000D01*
X167238095Y-116387619D01*
X167285714Y-116482857D01*
X167285714Y-116530476D01*
X167238095Y-116625714D01*
X167190476Y-116673333D01*
X167095238Y-116720952D01*
X166904761Y-116720952D01*
X166809523Y-116768571D01*
X166761904Y-116816190D01*
X166714285Y-116911428D01*
X166714285Y-117101904D01*
X166761904Y-117197142D01*
X166809523Y-117244761D01*
X166904761Y-117292380D01*
X167095238Y-117292380D01*
X167190476Y-117244761D01*
X167238095Y-117197142D01*
X167285714Y-117101904D01*
X167285714Y-116911428D01*
X167238095Y-116816190D01*
X167190476Y-116768571D01*
X167095238Y-116720952D01*
X164761904Y-114952380D02*
X164761904Y-113952380D01*
X165142857Y-113952380D01*
X165238095Y-114000000D01*
X165285714Y-114047619D01*
X165333333Y-114142857D01*
X165333333Y-114285714D01*
X165285714Y-114380952D01*
X165238095Y-114428571D01*
X165142857Y-114476190D01*
X164761904Y-114476190D01*
X166333333Y-114857142D02*
X166285714Y-114904761D01*
X166142857Y-114952380D01*
X166047619Y-114952380D01*
X165904761Y-114904761D01*
X165809523Y-114809523D01*
X165761904Y-114714285D01*
X165714285Y-114523809D01*
X165714285Y-114380952D01*
X165761904Y-114190476D01*
X165809523Y-114095238D01*
X165904761Y-114000000D01*
X166047619Y-113952380D01*
X166142857Y-113952380D01*
X166285714Y-114000000D01*
X166333333Y-114047619D01*
X166809523Y-114952380D02*
X167000000Y-114952380D01*
X167095238Y-114904761D01*
X167142857Y-114857142D01*
X167238095Y-114714285D01*
X167285714Y-114523809D01*
X167285714Y-114142857D01*
X167238095Y-114047619D01*
X167190476Y-114000000D01*
X167095238Y-113952380D01*
X166904761Y-113952380D01*
X166809523Y-114000000D01*
X166761904Y-114047619D01*
X166714285Y-114142857D01*
X166714285Y-114380952D01*
X166761904Y-114476190D01*
X166809523Y-114523809D01*
X166904761Y-114571428D01*
X167095238Y-114571428D01*
X167190476Y-114523809D01*
X167238095Y-114476190D01*
X167285714Y-114380952D01*
X164833333Y-112212380D02*
X164833333Y-111212380D01*
X165214285Y-111212380D01*
X165309523Y-111260000D01*
X165357142Y-111307619D01*
X165404761Y-111402857D01*
X165404761Y-111545714D01*
X165357142Y-111640952D01*
X165309523Y-111688571D01*
X165214285Y-111736190D01*
X164833333Y-111736190D01*
X165785714Y-111926666D02*
X166261904Y-111926666D01*
X165690476Y-112212380D02*
X166023809Y-111212380D01*
X166357142Y-112212380D01*
X166833333Y-111640952D02*
X166738095Y-111593333D01*
X166690476Y-111545714D01*
X166642857Y-111450476D01*
X166642857Y-111402857D01*
X166690476Y-111307619D01*
X166738095Y-111260000D01*
X166833333Y-111212380D01*
X167023809Y-111212380D01*
X167119047Y-111260000D01*
X167166666Y-111307619D01*
X167214285Y-111402857D01*
X167214285Y-111450476D01*
X167166666Y-111545714D01*
X167119047Y-111593333D01*
X167023809Y-111640952D01*
X166833333Y-111640952D01*
X166738095Y-111688571D01*
X166690476Y-111736190D01*
X166642857Y-111831428D01*
X166642857Y-112021904D01*
X166690476Y-112117142D01*
X166738095Y-112164761D01*
X166833333Y-112212380D01*
X167023809Y-112212380D01*
X167119047Y-112164761D01*
X167166666Y-112117142D01*
X167214285Y-112021904D01*
X167214285Y-111831428D01*
X167166666Y-111736190D01*
X167119047Y-111688571D01*
X167023809Y-111640952D01*
X164833333Y-109672380D02*
X164833333Y-108672380D01*
X165214285Y-108672380D01*
X165309523Y-108720000D01*
X165357142Y-108767619D01*
X165404761Y-108862857D01*
X165404761Y-109005714D01*
X165357142Y-109100952D01*
X165309523Y-109148571D01*
X165214285Y-109196190D01*
X164833333Y-109196190D01*
X165785714Y-109386666D02*
X166261904Y-109386666D01*
X165690476Y-109672380D02*
X166023809Y-108672380D01*
X166357142Y-109672380D01*
X166738095Y-109672380D02*
X166928571Y-109672380D01*
X167023809Y-109624761D01*
X167071428Y-109577142D01*
X167166666Y-109434285D01*
X167214285Y-109243809D01*
X167214285Y-108862857D01*
X167166666Y-108767619D01*
X167119047Y-108720000D01*
X167023809Y-108672380D01*
X166833333Y-108672380D01*
X166738095Y-108720000D01*
X166690476Y-108767619D01*
X166642857Y-108862857D01*
X166642857Y-109100952D01*
X166690476Y-109196190D01*
X166738095Y-109243809D01*
X166833333Y-109291428D01*
X167023809Y-109291428D01*
X167119047Y-109243809D01*
X167166666Y-109196190D01*
X167214285Y-109100952D01*
X164857142Y-107132380D02*
X164857142Y-106132380D01*
X165238095Y-106132380D01*
X165333333Y-106180000D01*
X165380952Y-106227619D01*
X165428571Y-106322857D01*
X165428571Y-106465714D01*
X165380952Y-106560952D01*
X165333333Y-106608571D01*
X165238095Y-106656190D01*
X164857142Y-106656190D01*
X165809523Y-106846666D02*
X166285714Y-106846666D01*
X165714285Y-107132380D02*
X166047619Y-106132380D01*
X166380952Y-107132380D01*
X167238095Y-107132380D02*
X166666666Y-107132380D01*
X166952380Y-107132380D02*
X166952380Y-106132380D01*
X166857142Y-106275238D01*
X166761904Y-106370476D01*
X166666666Y-106418095D01*
X167857142Y-106132380D02*
X167952380Y-106132380D01*
X168047619Y-106180000D01*
X168095238Y-106227619D01*
X168142857Y-106322857D01*
X168190476Y-106513333D01*
X168190476Y-106751428D01*
X168142857Y-106941904D01*
X168095238Y-107037142D01*
X168047619Y-107084761D01*
X167952380Y-107132380D01*
X167857142Y-107132380D01*
X167761904Y-107084761D01*
X167714285Y-107037142D01*
X167666666Y-106941904D01*
X167619047Y-106751428D01*
X167619047Y-106513333D01*
X167666666Y-106322857D01*
X167714285Y-106227619D01*
X167761904Y-106180000D01*
X167857142Y-106132380D01*
X164685714Y-101961904D02*
X164685714Y-101161904D01*
X164990476Y-101161904D01*
X165066666Y-101200000D01*
X165104761Y-101238095D01*
X165142857Y-101314285D01*
X165142857Y-101428571D01*
X165104761Y-101504761D01*
X165066666Y-101542857D01*
X164990476Y-101580952D01*
X164685714Y-101580952D01*
X165447619Y-101733333D02*
X165828571Y-101733333D01*
X165371428Y-101961904D02*
X165638095Y-101161904D01*
X165904761Y-101961904D01*
X166590476Y-101961904D02*
X166133333Y-101961904D01*
X166361904Y-101961904D02*
X166361904Y-101161904D01*
X166285714Y-101276190D01*
X166209523Y-101352380D01*
X166133333Y-101390476D01*
X166895238Y-101238095D02*
X166933333Y-101200000D01*
X167009523Y-101161904D01*
X167200000Y-101161904D01*
X167276190Y-101200000D01*
X167314285Y-101238095D01*
X167352380Y-101314285D01*
X167352380Y-101390476D01*
X167314285Y-101504761D01*
X166857142Y-101961904D01*
X167352380Y-101961904D01*
X164685714Y-99361904D02*
X164685714Y-98561904D01*
X164990476Y-98561904D01*
X165066666Y-98600000D01*
X165104761Y-98638095D01*
X165142857Y-98714285D01*
X165142857Y-98828571D01*
X165104761Y-98904761D01*
X165066666Y-98942857D01*
X164990476Y-98980952D01*
X164685714Y-98980952D01*
X165447619Y-99133333D02*
X165828571Y-99133333D01*
X165371428Y-99361904D02*
X165638095Y-98561904D01*
X165904761Y-99361904D01*
X166590476Y-99361904D02*
X166133333Y-99361904D01*
X166361904Y-99361904D02*
X166361904Y-98561904D01*
X166285714Y-98676190D01*
X166209523Y-98752380D01*
X166133333Y-98790476D01*
X166857142Y-98561904D02*
X167352380Y-98561904D01*
X167085714Y-98866666D01*
X167200000Y-98866666D01*
X167276190Y-98904761D01*
X167314285Y-98942857D01*
X167352380Y-99019047D01*
X167352380Y-99209523D01*
X167314285Y-99285714D01*
X167276190Y-99323809D01*
X167200000Y-99361904D01*
X166971428Y-99361904D01*
X166895238Y-99323809D01*
X166857142Y-99285714D01*
X164685714Y-96861904D02*
X164685714Y-96061904D01*
X164990476Y-96061904D01*
X165066666Y-96100000D01*
X165104761Y-96138095D01*
X165142857Y-96214285D01*
X165142857Y-96328571D01*
X165104761Y-96404761D01*
X165066666Y-96442857D01*
X164990476Y-96480952D01*
X164685714Y-96480952D01*
X165447619Y-96633333D02*
X165828571Y-96633333D01*
X165371428Y-96861904D02*
X165638095Y-96061904D01*
X165904761Y-96861904D01*
X166590476Y-96861904D02*
X166133333Y-96861904D01*
X166361904Y-96861904D02*
X166361904Y-96061904D01*
X166285714Y-96176190D01*
X166209523Y-96252380D01*
X166133333Y-96290476D01*
X167276190Y-96328571D02*
X167276190Y-96861904D01*
X167085714Y-96023809D02*
X166895238Y-96595238D01*
X167390476Y-96595238D01*
X164685714Y-94341904D02*
X164685714Y-93541904D01*
X164990476Y-93541904D01*
X165066666Y-93580000D01*
X165104761Y-93618095D01*
X165142857Y-93694285D01*
X165142857Y-93808571D01*
X165104761Y-93884761D01*
X165066666Y-93922857D01*
X164990476Y-93960952D01*
X164685714Y-93960952D01*
X165447619Y-94113333D02*
X165828571Y-94113333D01*
X165371428Y-94341904D02*
X165638095Y-93541904D01*
X165904761Y-94341904D01*
X166590476Y-94341904D02*
X166133333Y-94341904D01*
X166361904Y-94341904D02*
X166361904Y-93541904D01*
X166285714Y-93656190D01*
X166209523Y-93732380D01*
X166133333Y-93770476D01*
X167314285Y-93541904D02*
X166933333Y-93541904D01*
X166895238Y-93922857D01*
X166933333Y-93884761D01*
X167009523Y-93846666D01*
X167200000Y-93846666D01*
X167276190Y-93884761D01*
X167314285Y-93922857D01*
X167352380Y-93999047D01*
X167352380Y-94189523D01*
X167314285Y-94265714D01*
X167276190Y-94303809D01*
X167200000Y-94341904D01*
X167009523Y-94341904D01*
X166933333Y-94303809D01*
X166895238Y-94265714D01*
X164628571Y-91801904D02*
X164628571Y-91001904D01*
X164933333Y-91001904D01*
X165009523Y-91040000D01*
X165047619Y-91078095D01*
X165085714Y-91154285D01*
X165085714Y-91268571D01*
X165047619Y-91344761D01*
X165009523Y-91382857D01*
X164933333Y-91420952D01*
X164628571Y-91420952D01*
X165885714Y-91725714D02*
X165847619Y-91763809D01*
X165733333Y-91801904D01*
X165657142Y-91801904D01*
X165542857Y-91763809D01*
X165466666Y-91687619D01*
X165428571Y-91611428D01*
X165390476Y-91459047D01*
X165390476Y-91344761D01*
X165428571Y-91192380D01*
X165466666Y-91116190D01*
X165542857Y-91040000D01*
X165657142Y-91001904D01*
X165733333Y-91001904D01*
X165847619Y-91040000D01*
X165885714Y-91078095D01*
X166647619Y-91801904D02*
X166190476Y-91801904D01*
X166419047Y-91801904D02*
X166419047Y-91001904D01*
X166342857Y-91116190D01*
X166266666Y-91192380D01*
X166190476Y-91230476D01*
X167142857Y-91001904D02*
X167219047Y-91001904D01*
X167295238Y-91040000D01*
X167333333Y-91078095D01*
X167371428Y-91154285D01*
X167409523Y-91306666D01*
X167409523Y-91497142D01*
X167371428Y-91649523D01*
X167333333Y-91725714D01*
X167295238Y-91763809D01*
X167219047Y-91801904D01*
X167142857Y-91801904D01*
X167066666Y-91763809D01*
X167028571Y-91725714D01*
X166990476Y-91649523D01*
X166952380Y-91497142D01*
X166952380Y-91306666D01*
X166990476Y-91154285D01*
X167028571Y-91078095D01*
X167066666Y-91040000D01*
X167142857Y-91001904D01*
X164628571Y-89261904D02*
X164628571Y-88461904D01*
X164933333Y-88461904D01*
X165009523Y-88500000D01*
X165047619Y-88538095D01*
X165085714Y-88614285D01*
X165085714Y-88728571D01*
X165047619Y-88804761D01*
X165009523Y-88842857D01*
X164933333Y-88880952D01*
X164628571Y-88880952D01*
X165885714Y-89185714D02*
X165847619Y-89223809D01*
X165733333Y-89261904D01*
X165657142Y-89261904D01*
X165542857Y-89223809D01*
X165466666Y-89147619D01*
X165428571Y-89071428D01*
X165390476Y-88919047D01*
X165390476Y-88804761D01*
X165428571Y-88652380D01*
X165466666Y-88576190D01*
X165542857Y-88500000D01*
X165657142Y-88461904D01*
X165733333Y-88461904D01*
X165847619Y-88500000D01*
X165885714Y-88538095D01*
X166647619Y-89261904D02*
X166190476Y-89261904D01*
X166419047Y-89261904D02*
X166419047Y-88461904D01*
X166342857Y-88576190D01*
X166266666Y-88652380D01*
X166190476Y-88690476D01*
X167409523Y-89261904D02*
X166952380Y-89261904D01*
X167180952Y-89261904D02*
X167180952Y-88461904D01*
X167104761Y-88576190D01*
X167028571Y-88652380D01*
X166952380Y-88690476D01*
X164628571Y-86721904D02*
X164628571Y-85921904D01*
X164933333Y-85921904D01*
X165009523Y-85960000D01*
X165047619Y-85998095D01*
X165085714Y-86074285D01*
X165085714Y-86188571D01*
X165047619Y-86264761D01*
X165009523Y-86302857D01*
X164933333Y-86340952D01*
X164628571Y-86340952D01*
X165885714Y-86645714D02*
X165847619Y-86683809D01*
X165733333Y-86721904D01*
X165657142Y-86721904D01*
X165542857Y-86683809D01*
X165466666Y-86607619D01*
X165428571Y-86531428D01*
X165390476Y-86379047D01*
X165390476Y-86264761D01*
X165428571Y-86112380D01*
X165466666Y-86036190D01*
X165542857Y-85960000D01*
X165657142Y-85921904D01*
X165733333Y-85921904D01*
X165847619Y-85960000D01*
X165885714Y-85998095D01*
X166647619Y-86721904D02*
X166190476Y-86721904D01*
X166419047Y-86721904D02*
X166419047Y-85921904D01*
X166342857Y-86036190D01*
X166266666Y-86112380D01*
X166190476Y-86150476D01*
X166952380Y-85998095D02*
X166990476Y-85960000D01*
X167066666Y-85921904D01*
X167257142Y-85921904D01*
X167333333Y-85960000D01*
X167371428Y-85998095D01*
X167409523Y-86074285D01*
X167409523Y-86150476D01*
X167371428Y-86264761D01*
X166914285Y-86721904D01*
X167409523Y-86721904D01*
X164761904Y-84272380D02*
X164761904Y-83272380D01*
X165142857Y-83272380D01*
X165238095Y-83320000D01*
X165285714Y-83367619D01*
X165333333Y-83462857D01*
X165333333Y-83605714D01*
X165285714Y-83700952D01*
X165238095Y-83748571D01*
X165142857Y-83796190D01*
X164761904Y-83796190D01*
X165761904Y-84272380D02*
X165761904Y-83272380D01*
X166000000Y-83272380D01*
X166142857Y-83320000D01*
X166238095Y-83415238D01*
X166285714Y-83510476D01*
X166333333Y-83700952D01*
X166333333Y-83843809D01*
X166285714Y-84034285D01*
X166238095Y-84129523D01*
X166142857Y-84224761D01*
X166000000Y-84272380D01*
X165761904Y-84272380D01*
X166714285Y-83367619D02*
X166761904Y-83320000D01*
X166857142Y-83272380D01*
X167095238Y-83272380D01*
X167190476Y-83320000D01*
X167238095Y-83367619D01*
X167285714Y-83462857D01*
X167285714Y-83558095D01*
X167238095Y-83700952D01*
X166666666Y-84272380D01*
X167285714Y-84272380D01*
X164761904Y-81732380D02*
X164761904Y-80732380D01*
X165142857Y-80732380D01*
X165238095Y-80780000D01*
X165285714Y-80827619D01*
X165333333Y-80922857D01*
X165333333Y-81065714D01*
X165285714Y-81160952D01*
X165238095Y-81208571D01*
X165142857Y-81256190D01*
X164761904Y-81256190D01*
X166095238Y-81208571D02*
X166238095Y-81256190D01*
X166285714Y-81303809D01*
X166333333Y-81399047D01*
X166333333Y-81541904D01*
X166285714Y-81637142D01*
X166238095Y-81684761D01*
X166142857Y-81732380D01*
X165761904Y-81732380D01*
X165761904Y-80732380D01*
X166095238Y-80732380D01*
X166190476Y-80780000D01*
X166238095Y-80827619D01*
X166285714Y-80922857D01*
X166285714Y-81018095D01*
X166238095Y-81113333D01*
X166190476Y-81160952D01*
X166095238Y-81208571D01*
X165761904Y-81208571D01*
X166666666Y-80732380D02*
X167285714Y-80732380D01*
X166952380Y-81113333D01*
X167095238Y-81113333D01*
X167190476Y-81160952D01*
X167238095Y-81208571D01*
X167285714Y-81303809D01*
X167285714Y-81541904D01*
X167238095Y-81637142D01*
X167190476Y-81684761D01*
X167095238Y-81732380D01*
X166809523Y-81732380D01*
X166714285Y-81684761D01*
X166666666Y-81637142D01*
X164761904Y-79192380D02*
X164761904Y-78192380D01*
X165142857Y-78192380D01*
X165238095Y-78240000D01*
X165285714Y-78287619D01*
X165333333Y-78382857D01*
X165333333Y-78525714D01*
X165285714Y-78620952D01*
X165238095Y-78668571D01*
X165142857Y-78716190D01*
X164761904Y-78716190D01*
X166095238Y-78668571D02*
X166238095Y-78716190D01*
X166285714Y-78763809D01*
X166333333Y-78859047D01*
X166333333Y-79001904D01*
X166285714Y-79097142D01*
X166238095Y-79144761D01*
X166142857Y-79192380D01*
X165761904Y-79192380D01*
X165761904Y-78192380D01*
X166095238Y-78192380D01*
X166190476Y-78240000D01*
X166238095Y-78287619D01*
X166285714Y-78382857D01*
X166285714Y-78478095D01*
X166238095Y-78573333D01*
X166190476Y-78620952D01*
X166095238Y-78668571D01*
X165761904Y-78668571D01*
X167190476Y-78525714D02*
X167190476Y-79192380D01*
X166952380Y-78144761D02*
X166714285Y-78859047D01*
X167333333Y-78859047D01*
X164761904Y-76652380D02*
X164761904Y-75652380D01*
X165142857Y-75652380D01*
X165238095Y-75700000D01*
X165285714Y-75747619D01*
X165333333Y-75842857D01*
X165333333Y-75985714D01*
X165285714Y-76080952D01*
X165238095Y-76128571D01*
X165142857Y-76176190D01*
X164761904Y-76176190D01*
X166095238Y-76128571D02*
X166238095Y-76176190D01*
X166285714Y-76223809D01*
X166333333Y-76319047D01*
X166333333Y-76461904D01*
X166285714Y-76557142D01*
X166238095Y-76604761D01*
X166142857Y-76652380D01*
X165761904Y-76652380D01*
X165761904Y-75652380D01*
X166095238Y-75652380D01*
X166190476Y-75700000D01*
X166238095Y-75747619D01*
X166285714Y-75842857D01*
X166285714Y-75938095D01*
X166238095Y-76033333D01*
X166190476Y-76080952D01*
X166095238Y-76128571D01*
X165761904Y-76128571D01*
X167238095Y-75652380D02*
X166761904Y-75652380D01*
X166714285Y-76128571D01*
X166761904Y-76080952D01*
X166857142Y-76033333D01*
X167095238Y-76033333D01*
X167190476Y-76080952D01*
X167238095Y-76128571D01*
X167285714Y-76223809D01*
X167285714Y-76461904D01*
X167238095Y-76557142D01*
X167190476Y-76604761D01*
X167095238Y-76652380D01*
X166857142Y-76652380D01*
X166761904Y-76604761D01*
X166714285Y-76557142D01*
X164761904Y-74112380D02*
X164761904Y-73112380D01*
X165142857Y-73112380D01*
X165238095Y-73160000D01*
X165285714Y-73207619D01*
X165333333Y-73302857D01*
X165333333Y-73445714D01*
X165285714Y-73540952D01*
X165238095Y-73588571D01*
X165142857Y-73636190D01*
X164761904Y-73636190D01*
X166095238Y-73588571D02*
X166238095Y-73636190D01*
X166285714Y-73683809D01*
X166333333Y-73779047D01*
X166333333Y-73921904D01*
X166285714Y-74017142D01*
X166238095Y-74064761D01*
X166142857Y-74112380D01*
X165761904Y-74112380D01*
X165761904Y-73112380D01*
X166095238Y-73112380D01*
X166190476Y-73160000D01*
X166238095Y-73207619D01*
X166285714Y-73302857D01*
X166285714Y-73398095D01*
X166238095Y-73493333D01*
X166190476Y-73540952D01*
X166095238Y-73588571D01*
X165761904Y-73588571D01*
X167190476Y-73112380D02*
X167000000Y-73112380D01*
X166904761Y-73160000D01*
X166857142Y-73207619D01*
X166761904Y-73350476D01*
X166714285Y-73540952D01*
X166714285Y-73921904D01*
X166761904Y-74017142D01*
X166809523Y-74064761D01*
X166904761Y-74112380D01*
X167095238Y-74112380D01*
X167190476Y-74064761D01*
X167238095Y-74017142D01*
X167285714Y-73921904D01*
X167285714Y-73683809D01*
X167238095Y-73588571D01*
X167190476Y-73540952D01*
X167095238Y-73493333D01*
X166904761Y-73493333D01*
X166809523Y-73540952D01*
X166761904Y-73588571D01*
X166714285Y-73683809D01*
X164761904Y-71572380D02*
X164761904Y-70572380D01*
X165142857Y-70572380D01*
X165238095Y-70620000D01*
X165285714Y-70667619D01*
X165333333Y-70762857D01*
X165333333Y-70905714D01*
X165285714Y-71000952D01*
X165238095Y-71048571D01*
X165142857Y-71096190D01*
X164761904Y-71096190D01*
X166095238Y-71048571D02*
X166238095Y-71096190D01*
X166285714Y-71143809D01*
X166333333Y-71239047D01*
X166333333Y-71381904D01*
X166285714Y-71477142D01*
X166238095Y-71524761D01*
X166142857Y-71572380D01*
X165761904Y-71572380D01*
X165761904Y-70572380D01*
X166095238Y-70572380D01*
X166190476Y-70620000D01*
X166238095Y-70667619D01*
X166285714Y-70762857D01*
X166285714Y-70858095D01*
X166238095Y-70953333D01*
X166190476Y-71000952D01*
X166095238Y-71048571D01*
X165761904Y-71048571D01*
X166666666Y-70572380D02*
X167333333Y-70572380D01*
X166904761Y-71572380D01*
X165142857Y-68428571D02*
X165285714Y-68476190D01*
X165333333Y-68523809D01*
X165380952Y-68619047D01*
X165380952Y-68761904D01*
X165333333Y-68857142D01*
X165285714Y-68904761D01*
X165190476Y-68952380D01*
X164809523Y-68952380D01*
X164809523Y-67952380D01*
X165142857Y-67952380D01*
X165238095Y-68000000D01*
X165285714Y-68047619D01*
X165333333Y-68142857D01*
X165333333Y-68238095D01*
X165285714Y-68333333D01*
X165238095Y-68380952D01*
X165142857Y-68428571D01*
X164809523Y-68428571D01*
X166000000Y-67952380D02*
X166190476Y-67952380D01*
X166285714Y-68000000D01*
X166380952Y-68095238D01*
X166428571Y-68285714D01*
X166428571Y-68619047D01*
X166380952Y-68809523D01*
X166285714Y-68904761D01*
X166190476Y-68952380D01*
X166000000Y-68952380D01*
X165904761Y-68904761D01*
X165809523Y-68809523D01*
X165761904Y-68619047D01*
X165761904Y-68285714D01*
X165809523Y-68095238D01*
X165904761Y-68000000D01*
X166000000Y-67952380D01*
X167047619Y-67952380D02*
X167238095Y-67952380D01*
X167333333Y-68000000D01*
X167428571Y-68095238D01*
X167476190Y-68285714D01*
X167476190Y-68619047D01*
X167428571Y-68809523D01*
X167333333Y-68904761D01*
X167238095Y-68952380D01*
X167047619Y-68952380D01*
X166952380Y-68904761D01*
X166857142Y-68809523D01*
X166809523Y-68619047D01*
X166809523Y-68285714D01*
X166857142Y-68095238D01*
X166952380Y-68000000D01*
X167047619Y-67952380D01*
X167761904Y-67952380D02*
X168333333Y-67952380D01*
X168047619Y-68952380D02*
X168047619Y-67952380D01*
X164761904Y-66452380D02*
X164761904Y-65452380D01*
X165142857Y-65452380D01*
X165238095Y-65500000D01*
X165285714Y-65547619D01*
X165333333Y-65642857D01*
X165333333Y-65785714D01*
X165285714Y-65880952D01*
X165238095Y-65928571D01*
X165142857Y-65976190D01*
X164761904Y-65976190D01*
X166095238Y-65928571D02*
X166238095Y-65976190D01*
X166285714Y-66023809D01*
X166333333Y-66119047D01*
X166333333Y-66261904D01*
X166285714Y-66357142D01*
X166238095Y-66404761D01*
X166142857Y-66452380D01*
X165761904Y-66452380D01*
X165761904Y-65452380D01*
X166095238Y-65452380D01*
X166190476Y-65500000D01*
X166238095Y-65547619D01*
X166285714Y-65642857D01*
X166285714Y-65738095D01*
X166238095Y-65833333D01*
X166190476Y-65880952D01*
X166095238Y-65928571D01*
X165761904Y-65928571D01*
X166904761Y-65880952D02*
X166809523Y-65833333D01*
X166761904Y-65785714D01*
X166714285Y-65690476D01*
X166714285Y-65642857D01*
X166761904Y-65547619D01*
X166809523Y-65500000D01*
X166904761Y-65452380D01*
X167095238Y-65452380D01*
X167190476Y-65500000D01*
X167238095Y-65547619D01*
X167285714Y-65642857D01*
X167285714Y-65690476D01*
X167238095Y-65785714D01*
X167190476Y-65833333D01*
X167095238Y-65880952D01*
X166904761Y-65880952D01*
X166809523Y-65928571D01*
X166761904Y-65976190D01*
X166714285Y-66071428D01*
X166714285Y-66261904D01*
X166761904Y-66357142D01*
X166809523Y-66404761D01*
X166904761Y-66452380D01*
X167095238Y-66452380D01*
X167190476Y-66404761D01*
X167238095Y-66357142D01*
X167285714Y-66261904D01*
X167285714Y-66071428D01*
X167238095Y-65976190D01*
X167190476Y-65928571D01*
X167095238Y-65880952D01*
X164761904Y-63952380D02*
X164761904Y-62952380D01*
X165142857Y-62952380D01*
X165238095Y-63000000D01*
X165285714Y-63047619D01*
X165333333Y-63142857D01*
X165333333Y-63285714D01*
X165285714Y-63380952D01*
X165238095Y-63428571D01*
X165142857Y-63476190D01*
X164761904Y-63476190D01*
X166095238Y-63428571D02*
X166238095Y-63476190D01*
X166285714Y-63523809D01*
X166333333Y-63619047D01*
X166333333Y-63761904D01*
X166285714Y-63857142D01*
X166238095Y-63904761D01*
X166142857Y-63952380D01*
X165761904Y-63952380D01*
X165761904Y-62952380D01*
X166095238Y-62952380D01*
X166190476Y-63000000D01*
X166238095Y-63047619D01*
X166285714Y-63142857D01*
X166285714Y-63238095D01*
X166238095Y-63333333D01*
X166190476Y-63380952D01*
X166095238Y-63428571D01*
X165761904Y-63428571D01*
X166809523Y-63952380D02*
X167000000Y-63952380D01*
X167095238Y-63904761D01*
X167142857Y-63857142D01*
X167238095Y-63714285D01*
X167285714Y-63523809D01*
X167285714Y-63142857D01*
X167238095Y-63047619D01*
X167190476Y-63000000D01*
X167095238Y-62952380D01*
X166904761Y-62952380D01*
X166809523Y-63000000D01*
X166761904Y-63047619D01*
X166714285Y-63142857D01*
X166714285Y-63380952D01*
X166761904Y-63476190D01*
X166809523Y-63523809D01*
X166904761Y-63571428D01*
X167095238Y-63571428D01*
X167190476Y-63523809D01*
X167238095Y-63476190D01*
X167285714Y-63380952D01*
X165309523Y-60452380D02*
X164833333Y-60452380D01*
X164785714Y-60928571D01*
X164833333Y-60880952D01*
X164928571Y-60833333D01*
X165166666Y-60833333D01*
X165261904Y-60880952D01*
X165309523Y-60928571D01*
X165357142Y-61023809D01*
X165357142Y-61261904D01*
X165309523Y-61357142D01*
X165261904Y-61404761D01*
X165166666Y-61452380D01*
X164928571Y-61452380D01*
X164833333Y-61404761D01*
X164785714Y-61357142D01*
X165642857Y-60452380D02*
X165976190Y-61452380D01*
X166309523Y-60452380D01*
X164714285Y-58952380D02*
X164714285Y-57952380D01*
X165285714Y-58952380D01*
X165285714Y-57952380D01*
X166333333Y-58857142D02*
X166285714Y-58904761D01*
X166142857Y-58952380D01*
X166047619Y-58952380D01*
X165904761Y-58904761D01*
X165809523Y-58809523D01*
X165761904Y-58714285D01*
X165714285Y-58523809D01*
X165714285Y-58380952D01*
X165761904Y-58190476D01*
X165809523Y-58095238D01*
X165904761Y-58000000D01*
X166047619Y-57952380D01*
X166142857Y-57952380D01*
X166285714Y-58000000D01*
X166333333Y-58047619D01*
X165238095Y-55380000D02*
X165142857Y-55332380D01*
X165000000Y-55332380D01*
X164857142Y-55380000D01*
X164761904Y-55475238D01*
X164714285Y-55570476D01*
X164666666Y-55760952D01*
X164666666Y-55903809D01*
X164714285Y-56094285D01*
X164761904Y-56189523D01*
X164857142Y-56284761D01*
X165000000Y-56332380D01*
X165095238Y-56332380D01*
X165238095Y-56284761D01*
X165285714Y-56237142D01*
X165285714Y-55903809D01*
X165095238Y-55903809D01*
X165714285Y-56332380D02*
X165714285Y-55332380D01*
X166285714Y-56332380D01*
X166285714Y-55332380D01*
X166761904Y-56332380D02*
X166761904Y-55332380D01*
X167000000Y-55332380D01*
X167142857Y-55380000D01*
X167238095Y-55475238D01*
X167285714Y-55570476D01*
X167333333Y-55760952D01*
X167333333Y-55903809D01*
X167285714Y-56094285D01*
X167238095Y-56189523D01*
X167142857Y-56284761D01*
X167000000Y-56332380D01*
X166761904Y-56332380D01*
D11*
X183850000Y-132892857D02*
X183797619Y-132945238D01*
X183640476Y-132997619D01*
X183535714Y-132997619D01*
X183378571Y-132945238D01*
X183273809Y-132840476D01*
X183221428Y-132735714D01*
X183169047Y-132526190D01*
X183169047Y-132369047D01*
X183221428Y-132159523D01*
X183273809Y-132054761D01*
X183378571Y-131950000D01*
X183535714Y-131897619D01*
X183640476Y-131897619D01*
X183797619Y-131950000D01*
X183850000Y-132002380D01*
X184321428Y-132997619D02*
X184321428Y-131897619D01*
X184950000Y-132997619D01*
X184950000Y-131897619D01*
X185316666Y-131897619D02*
X185945238Y-131897619D01*
X185630952Y-132997619D02*
X185630952Y-131897619D01*
X186940476Y-132997619D02*
X186573809Y-132473809D01*
X186311904Y-132997619D02*
X186311904Y-131897619D01*
X186730952Y-131897619D01*
X186835714Y-131950000D01*
X186888095Y-132002380D01*
X186940476Y-132107142D01*
X186940476Y-132264285D01*
X186888095Y-132369047D01*
X186835714Y-132421428D01*
X186730952Y-132473809D01*
X186311904Y-132473809D01*
X187935714Y-132997619D02*
X187411904Y-132997619D01*
X187411904Y-131897619D01*
X179161904Y-131950000D02*
X179057142Y-131897619D01*
X178900000Y-131897619D01*
X178742857Y-131950000D01*
X178638095Y-132054761D01*
X178585714Y-132159523D01*
X178533333Y-132369047D01*
X178533333Y-132526190D01*
X178585714Y-132735714D01*
X178638095Y-132840476D01*
X178742857Y-132945238D01*
X178900000Y-132997619D01*
X179004761Y-132997619D01*
X179161904Y-132945238D01*
X179214285Y-132892857D01*
X179214285Y-132526190D01*
X179004761Y-132526190D01*
X179685714Y-132997619D02*
X179685714Y-131897619D01*
X180314285Y-132997619D01*
X180314285Y-131897619D01*
X180838095Y-132997619D02*
X180838095Y-131897619D01*
X181100000Y-131897619D01*
X181257142Y-131950000D01*
X181361904Y-132054761D01*
X181414285Y-132159523D01*
X181466666Y-132369047D01*
X181466666Y-132526190D01*
X181414285Y-132735714D01*
X181361904Y-132840476D01*
X181257142Y-132945238D01*
X181100000Y-132997619D01*
X180838095Y-132997619D01*
X174347619Y-131897619D02*
X175028571Y-131897619D01*
X174661904Y-132316666D01*
X174819047Y-132316666D01*
X174923809Y-132369047D01*
X174976190Y-132421428D01*
X175028571Y-132526190D01*
X175028571Y-132788095D01*
X174976190Y-132892857D01*
X174923809Y-132945238D01*
X174819047Y-132997619D01*
X174504761Y-132997619D01*
X174400000Y-132945238D01*
X174347619Y-132892857D01*
X175500000Y-132892857D02*
X175552380Y-132945238D01*
X175500000Y-132997619D01*
X175447619Y-132945238D01*
X175500000Y-132892857D01*
X175500000Y-132997619D01*
X175919047Y-131897619D02*
X176600000Y-131897619D01*
X176233333Y-132316666D01*
X176390476Y-132316666D01*
X176495238Y-132369047D01*
X176547619Y-132421428D01*
X176600000Y-132526190D01*
X176600000Y-132788095D01*
X176547619Y-132892857D01*
X176495238Y-132945238D01*
X176390476Y-132997619D01*
X176076190Y-132997619D01*
X175971428Y-132945238D01*
X175919047Y-132892857D01*
X187500000Y-52997619D02*
X187500000Y-51897619D01*
X182633333Y-51897619D02*
X183000000Y-52997619D01*
X183366666Y-51897619D01*
X176847619Y-51897619D02*
X177528571Y-51897619D01*
X177161904Y-52316666D01*
X177319047Y-52316666D01*
X177423809Y-52369047D01*
X177476190Y-52421428D01*
X177528571Y-52526190D01*
X177528571Y-52788095D01*
X177476190Y-52892857D01*
X177423809Y-52945238D01*
X177319047Y-52997619D01*
X177004761Y-52997619D01*
X176900000Y-52945238D01*
X176847619Y-52892857D01*
X178000000Y-52892857D02*
X178052380Y-52945238D01*
X178000000Y-52997619D01*
X177947619Y-52945238D01*
X178000000Y-52892857D01*
X178000000Y-52997619D01*
X178419047Y-51897619D02*
X179100000Y-51897619D01*
X178733333Y-52316666D01*
X178890476Y-52316666D01*
X178995238Y-52369047D01*
X179047619Y-52421428D01*
X179100000Y-52526190D01*
X179100000Y-52788095D01*
X179047619Y-52892857D01*
X178995238Y-52945238D01*
X178890476Y-52997619D01*
X178576190Y-52997619D01*
X178471428Y-52945238D01*
X178419047Y-52892857D01*
X171661904Y-51950000D02*
X171557142Y-51897619D01*
X171400000Y-51897619D01*
X171242857Y-51950000D01*
X171138095Y-52054761D01*
X171085714Y-52159523D01*
X171033333Y-52369047D01*
X171033333Y-52526190D01*
X171085714Y-52735714D01*
X171138095Y-52840476D01*
X171242857Y-52945238D01*
X171400000Y-52997619D01*
X171504761Y-52997619D01*
X171661904Y-52945238D01*
X171714285Y-52892857D01*
X171714285Y-52526190D01*
X171504761Y-52526190D01*
X172185714Y-52997619D02*
X172185714Y-51897619D01*
X172814285Y-52997619D01*
X172814285Y-51897619D01*
X173338095Y-52997619D02*
X173338095Y-51897619D01*
X173600000Y-51897619D01*
X173757142Y-51950000D01*
X173861904Y-52054761D01*
X173914285Y-52159523D01*
X173966666Y-52369047D01*
X173966666Y-52526190D01*
X173914285Y-52735714D01*
X173861904Y-52840476D01*
X173757142Y-52945238D01*
X173600000Y-52997619D01*
X173338095Y-52997619D01*
D13*
X95500000Y-144000000D02*
X205500000Y-144000000D01*
X205500000Y-144000000D02*
X205500000Y-44000000D01*
X95500000Y-44000000D02*
X95500000Y-144000000D01*
X205500000Y-44000000D02*
X95500000Y-44000000D01*
D14*
X170340000Y-54320000D02*
X170340000Y-62520000D01*
X170340000Y-62520000D02*
X190340000Y-62520000D01*
X190340000Y-62520000D02*
X190340000Y-54320000D01*
X190340000Y-54320000D02*
X170340000Y-54320000D01*
D15*
X169895000Y-58420000D02*
G75*
G03X169895000Y-58420000I-200000J0D01*
G01*
D16*
X128270000Y-133410000D02*
X128270000Y-130750000D01*
X128270000Y-133410000D02*
X141030000Y-133410000D01*
X141030000Y-133410000D02*
X141030000Y-130750000D01*
X128270000Y-130750000D02*
X141030000Y-130750000D01*
X125670000Y-130750000D02*
X127000000Y-130750000D01*
X125670000Y-132080000D02*
X125670000Y-130750000D01*
D14*
X172840000Y-122900000D02*
X187840000Y-122900000D01*
X187840000Y-122900000D02*
X187840000Y-123400000D01*
X187840000Y-123400000D02*
X187840000Y-131100000D01*
X187840000Y-131100000D02*
X172840000Y-131100000D01*
X172840000Y-131100000D02*
X172840000Y-122900000D01*
X172840000Y-123400000D02*
X187840000Y-123400000D01*
D17*
X172340000Y-127000000D02*
G75*
G03X172340000Y-127000000I-250000J0D01*
G01*
D16*
X115510000Y-125790000D02*
X118170000Y-125790000D01*
X115510000Y-57150000D02*
X115510000Y-125790000D01*
X118170000Y-57150000D02*
X118170000Y-125790000D01*
X115510000Y-57150000D02*
X118170000Y-57150000D01*
X115510000Y-55880000D02*
X115510000Y-54550000D01*
X115510000Y-54550000D02*
X116840000Y-54550000D01*
D18*
G36*
X189164043Y-108085835D02*
X189187065Y-108123245D01*
X189222534Y-108182514D01*
X189268996Y-108261118D01*
X189324996Y-108356538D01*
X189389081Y-108466250D01*
X189459796Y-108587734D01*
X189535687Y-108718468D01*
X189615299Y-108855930D01*
X189697178Y-108997598D01*
X189779870Y-109140951D01*
X189861921Y-109283467D01*
X189941876Y-109422624D01*
X190018281Y-109555901D01*
X190089682Y-109680776D01*
X190154624Y-109794727D01*
X190211653Y-109895233D01*
X190259315Y-109979772D01*
X190296155Y-110045822D01*
X190320720Y-110090862D01*
X190331554Y-110112370D01*
X190331951Y-110113714D01*
X190318501Y-110131965D01*
X190281114Y-110159882D01*
X190224235Y-110194725D01*
X190152312Y-110233754D01*
X190077015Y-110270843D01*
X189974560Y-110315817D01*
X189866817Y-110356226D01*
X189750073Y-110392969D01*
X189620618Y-110426942D01*
X189474740Y-110459044D01*
X189308726Y-110490173D01*
X189118866Y-110521227D01*
X188922469Y-110550145D01*
X188751834Y-110575800D01*
X188608545Y-110601198D01*
X188489008Y-110627602D01*
X188389630Y-110656273D01*
X188306818Y-110688473D01*
X188236978Y-110725465D01*
X188176518Y-110768512D01*
X188121845Y-110818875D01*
X188104214Y-110837583D01*
X188066000Y-110881139D01*
X188037732Y-110916682D01*
X188024618Y-110937583D01*
X188024268Y-110939297D01*
X188019680Y-110949806D01*
X188003758Y-110949924D01*
X187973266Y-110938254D01*
X187924968Y-110913396D01*
X187855627Y-110873952D01*
X187807439Y-110845587D01*
X187735583Y-110801247D01*
X187679742Y-110763279D01*
X187643667Y-110734416D01*
X187631113Y-110717388D01*
X187631121Y-110717264D01*
X187638906Y-110701037D01*
X187660892Y-110660400D01*
X187695803Y-110597567D01*
X187742363Y-110514752D01*
X187799295Y-110414172D01*
X187865323Y-110298040D01*
X187939172Y-110168571D01*
X188019564Y-110027980D01*
X188105224Y-109878482D01*
X188194876Y-109722292D01*
X188287243Y-109561624D01*
X188381049Y-109398693D01*
X188475018Y-109235713D01*
X188567874Y-109074900D01*
X188658340Y-108918468D01*
X188745141Y-108768633D01*
X188827000Y-108627608D01*
X188902641Y-108497609D01*
X188970787Y-108380849D01*
X189030163Y-108279545D01*
X189079493Y-108195911D01*
X189117500Y-108132162D01*
X189142907Y-108090511D01*
X189154440Y-108073175D01*
X189154923Y-108072805D01*
X189164043Y-108085835D01*
X189164043Y-108085835D01*
G37*
X189164043Y-108085835D02*
X189187065Y-108123245D01*
X189222534Y-108182514D01*
X189268996Y-108261118D01*
X189324996Y-108356538D01*
X189389081Y-108466250D01*
X189459796Y-108587734D01*
X189535687Y-108718468D01*
X189615299Y-108855930D01*
X189697178Y-108997598D01*
X189779870Y-109140951D01*
X189861921Y-109283467D01*
X189941876Y-109422624D01*
X190018281Y-109555901D01*
X190089682Y-109680776D01*
X190154624Y-109794727D01*
X190211653Y-109895233D01*
X190259315Y-109979772D01*
X190296155Y-110045822D01*
X190320720Y-110090862D01*
X190331554Y-110112370D01*
X190331951Y-110113714D01*
X190318501Y-110131965D01*
X190281114Y-110159882D01*
X190224235Y-110194725D01*
X190152312Y-110233754D01*
X190077015Y-110270843D01*
X189974560Y-110315817D01*
X189866817Y-110356226D01*
X189750073Y-110392969D01*
X189620618Y-110426942D01*
X189474740Y-110459044D01*
X189308726Y-110490173D01*
X189118866Y-110521227D01*
X188922469Y-110550145D01*
X188751834Y-110575800D01*
X188608545Y-110601198D01*
X188489008Y-110627602D01*
X188389630Y-110656273D01*
X188306818Y-110688473D01*
X188236978Y-110725465D01*
X188176518Y-110768512D01*
X188121845Y-110818875D01*
X188104214Y-110837583D01*
X188066000Y-110881139D01*
X188037732Y-110916682D01*
X188024618Y-110937583D01*
X188024268Y-110939297D01*
X188019680Y-110949806D01*
X188003758Y-110949924D01*
X187973266Y-110938254D01*
X187924968Y-110913396D01*
X187855627Y-110873952D01*
X187807439Y-110845587D01*
X187735583Y-110801247D01*
X187679742Y-110763279D01*
X187643667Y-110734416D01*
X187631113Y-110717388D01*
X187631121Y-110717264D01*
X187638906Y-110701037D01*
X187660892Y-110660400D01*
X187695803Y-110597567D01*
X187742363Y-110514752D01*
X187799295Y-110414172D01*
X187865323Y-110298040D01*
X187939172Y-110168571D01*
X188019564Y-110027980D01*
X188105224Y-109878482D01*
X188194876Y-109722292D01*
X188287243Y-109561624D01*
X188381049Y-109398693D01*
X188475018Y-109235713D01*
X188567874Y-109074900D01*
X188658340Y-108918468D01*
X188745141Y-108768633D01*
X188827000Y-108627608D01*
X188902641Y-108497609D01*
X188970787Y-108380849D01*
X189030163Y-108279545D01*
X189079493Y-108195911D01*
X189117500Y-108132162D01*
X189142907Y-108090511D01*
X189154440Y-108073175D01*
X189154923Y-108072805D01*
X189164043Y-108085835D01*
G36*
X190987528Y-111234619D02*
X190998908Y-111253693D01*
X191024488Y-111297421D01*
X191063002Y-111363619D01*
X191113186Y-111450102D01*
X191173775Y-111554685D01*
X191243503Y-111675183D01*
X191321107Y-111809412D01*
X191405320Y-111955187D01*
X191494879Y-112110323D01*
X191586998Y-112270000D01*
X191681076Y-112433117D01*
X191771402Y-112589709D01*
X191856665Y-112737506D01*
X191935557Y-112874240D01*
X192006769Y-112997642D01*
X192068991Y-113105444D01*
X192120913Y-113195377D01*
X192161228Y-113265173D01*
X192188624Y-113312564D01*
X192201507Y-113334786D01*
X192222507Y-113372330D01*
X192233925Y-113395831D01*
X192234551Y-113399920D01*
X192220636Y-113392242D01*
X192181941Y-113370203D01*
X192120487Y-113334971D01*
X192038298Y-113287711D01*
X191937396Y-113229589D01*
X191819805Y-113161771D01*
X191687546Y-113085424D01*
X191542642Y-113001714D01*
X191387117Y-112911806D01*
X191222992Y-112816867D01*
X191160549Y-112780732D01*
X190993487Y-112684083D01*
X190834074Y-112591938D01*
X190684355Y-112505475D01*
X190546376Y-112425871D01*
X190422185Y-112354305D01*
X190313827Y-112291955D01*
X190223348Y-112239998D01*
X190152796Y-112199613D01*
X190104215Y-112171978D01*
X190079654Y-112158272D01*
X190077085Y-112156974D01*
X190084569Y-112145220D01*
X190110614Y-112113795D01*
X190152559Y-112065594D01*
X190207746Y-112003510D01*
X190273517Y-111930439D01*
X190347212Y-111849276D01*
X190426173Y-111762916D01*
X190507740Y-111674253D01*
X190589254Y-111586182D01*
X190668057Y-111501599D01*
X190741490Y-111423397D01*
X190806893Y-111354472D01*
X190861608Y-111297719D01*
X190902977Y-111256032D01*
X190917164Y-111242363D01*
X190964180Y-111198201D01*
X190987528Y-111234619D01*
X190987528Y-111234619D01*
G37*
X190987528Y-111234619D02*
X190998908Y-111253693D01*
X191024488Y-111297421D01*
X191063002Y-111363619D01*
X191113186Y-111450102D01*
X191173775Y-111554685D01*
X191243503Y-111675183D01*
X191321107Y-111809412D01*
X191405320Y-111955187D01*
X191494879Y-112110323D01*
X191586998Y-112270000D01*
X191681076Y-112433117D01*
X191771402Y-112589709D01*
X191856665Y-112737506D01*
X191935557Y-112874240D01*
X192006769Y-112997642D01*
X192068991Y-113105444D01*
X192120913Y-113195377D01*
X192161228Y-113265173D01*
X192188624Y-113312564D01*
X192201507Y-113334786D01*
X192222507Y-113372330D01*
X192233925Y-113395831D01*
X192234551Y-113399920D01*
X192220636Y-113392242D01*
X192181941Y-113370203D01*
X192120487Y-113334971D01*
X192038298Y-113287711D01*
X191937396Y-113229589D01*
X191819805Y-113161771D01*
X191687546Y-113085424D01*
X191542642Y-113001714D01*
X191387117Y-112911806D01*
X191222992Y-112816867D01*
X191160549Y-112780732D01*
X190993487Y-112684083D01*
X190834074Y-112591938D01*
X190684355Y-112505475D01*
X190546376Y-112425871D01*
X190422185Y-112354305D01*
X190313827Y-112291955D01*
X190223348Y-112239998D01*
X190152796Y-112199613D01*
X190104215Y-112171978D01*
X190079654Y-112158272D01*
X190077085Y-112156974D01*
X190084569Y-112145220D01*
X190110614Y-112113795D01*
X190152559Y-112065594D01*
X190207746Y-112003510D01*
X190273517Y-111930439D01*
X190347212Y-111849276D01*
X190426173Y-111762916D01*
X190507740Y-111674253D01*
X190589254Y-111586182D01*
X190668057Y-111501599D01*
X190741490Y-111423397D01*
X190806893Y-111354472D01*
X190861608Y-111297719D01*
X190902977Y-111256032D01*
X190917164Y-111242363D01*
X190964180Y-111198201D01*
X190987528Y-111234619D01*
G36*
X187322094Y-111291158D02*
X187354619Y-111303736D01*
X187404193Y-111328712D01*
X187475374Y-111367876D01*
X187480916Y-111370988D01*
X187546474Y-111408476D01*
X187601798Y-111441319D01*
X187641455Y-111466205D01*
X187660012Y-111479820D01*
X187660531Y-111480487D01*
X187656048Y-111499390D01*
X187635486Y-111541605D01*
X187600183Y-111604832D01*
X187551480Y-111686772D01*
X187490718Y-111785122D01*
X187419236Y-111897585D01*
X187401445Y-111925165D01*
X187355093Y-112001699D01*
X187321342Y-112067556D01*
X187303153Y-112116782D01*
X187301286Y-112126507D01*
X187302115Y-112169312D01*
X187311394Y-112237209D01*
X187327968Y-112325843D01*
X187350680Y-112430859D01*
X187378373Y-112547902D01*
X187409890Y-112672616D01*
X187444075Y-112800645D01*
X187479771Y-112927634D01*
X187515821Y-113049228D01*
X187551068Y-113161072D01*
X187584356Y-113258810D01*
X187614528Y-113338087D01*
X187635561Y-113385122D01*
X187660337Y-113435225D01*
X187683730Y-113483168D01*
X187684997Y-113485793D01*
X187723699Y-113534220D01*
X187780184Y-113566828D01*
X187845939Y-113582454D01*
X187912451Y-113579937D01*
X187971205Y-113558114D01*
X188004258Y-113529382D01*
X188051859Y-113450583D01*
X188086739Y-113352378D01*
X188105877Y-113244779D01*
X188108588Y-113183780D01*
X188097670Y-113069935D01*
X188065624Y-112975660D01*
X188010726Y-112896379D01*
X187993607Y-112878733D01*
X187942661Y-112829235D01*
X187939163Y-112479362D01*
X187935664Y-112129489D01*
X188024818Y-111994531D01*
X188066654Y-111933445D01*
X188106945Y-111878493D01*
X188139943Y-111837336D01*
X188154126Y-111822192D01*
X188194281Y-111784810D01*
X188248665Y-111814098D01*
X188283039Y-111835084D01*
X188301846Y-111851378D01*
X188303049Y-111854307D01*
X188315903Y-111866728D01*
X188337896Y-111875977D01*
X188359150Y-111884313D01*
X188391694Y-111900149D01*
X188438322Y-111925033D01*
X188501829Y-111960509D01*
X188585008Y-112008123D01*
X188690653Y-112069422D01*
X188748062Y-112102932D01*
X188815594Y-112143071D01*
X188859885Y-112171659D01*
X188884855Y-112192039D01*
X188894423Y-112207553D01*
X188892508Y-112221546D01*
X188890911Y-112224796D01*
X188875376Y-112245266D01*
X188842136Y-112283665D01*
X188795062Y-112335696D01*
X188738028Y-112397066D01*
X188688700Y-112449090D01*
X188575030Y-112572567D01*
X188486105Y-112679591D01*
X188421134Y-112771240D01*
X188379321Y-112848588D01*
X188365217Y-112887866D01*
X188359392Y-112922249D01*
X188353375Y-112980899D01*
X188347696Y-113057117D01*
X188342884Y-113144202D01*
X188340619Y-113199268D01*
X188337459Y-113294464D01*
X188336069Y-113364062D01*
X188336858Y-113413409D01*
X188340235Y-113447854D01*
X188346608Y-113472743D01*
X188356387Y-113493425D01*
X188364067Y-113506053D01*
X188408421Y-113554726D01*
X188465574Y-113588645D01*
X188525708Y-113603438D01*
X188570773Y-113598086D01*
X188611576Y-113574930D01*
X188662724Y-113533462D01*
X188717042Y-113480912D01*
X188767357Y-113424516D01*
X188806494Y-113371505D01*
X188820905Y-113345889D01*
X188842491Y-113310814D01*
X188881753Y-113257389D01*
X188935102Y-113189789D01*
X188998952Y-113112190D01*
X189069715Y-113028768D01*
X189143804Y-112943698D01*
X189217632Y-112861155D01*
X189287611Y-112785316D01*
X189350155Y-112720356D01*
X189399260Y-112672669D01*
X189453779Y-112625032D01*
X189499642Y-112589908D01*
X189531811Y-112570949D01*
X189542489Y-112568864D01*
X189558853Y-112577274D01*
X189599671Y-112599846D01*
X189662586Y-112635224D01*
X189745244Y-112682054D01*
X189845289Y-112738981D01*
X189960366Y-112804649D01*
X190088119Y-112877703D01*
X190226194Y-112956788D01*
X190372234Y-113040548D01*
X190523884Y-113127629D01*
X190678790Y-113216676D01*
X190834595Y-113306332D01*
X190988944Y-113395243D01*
X191139482Y-113482054D01*
X191283854Y-113565409D01*
X191419704Y-113643954D01*
X191544677Y-113716333D01*
X191656417Y-113781190D01*
X191752570Y-113837171D01*
X191830779Y-113882920D01*
X191888689Y-113917083D01*
X191923946Y-113938304D01*
X191934165Y-113944963D01*
X191920402Y-113946280D01*
X191877104Y-113947559D01*
X191805714Y-113948796D01*
X191707673Y-113949983D01*
X191584422Y-113951115D01*
X191437403Y-113952186D01*
X191268057Y-113953189D01*
X191077826Y-113954119D01*
X190868151Y-113954968D01*
X190640473Y-113955732D01*
X190396235Y-113956403D01*
X190136877Y-113956976D01*
X189863841Y-113957444D01*
X189578568Y-113957802D01*
X189282500Y-113958042D01*
X188977079Y-113958159D01*
X188848924Y-113958171D01*
X185748970Y-113958171D01*
X185970053Y-113574847D01*
X186016856Y-113493680D01*
X186077102Y-113389166D01*
X186148778Y-113264801D01*
X186229869Y-113124082D01*
X186318362Y-112970503D01*
X186412240Y-112807562D01*
X186509491Y-112638754D01*
X186608100Y-112467575D01*
X186706053Y-112297521D01*
X186730825Y-112254512D01*
X186821152Y-112097857D01*
X186907289Y-111948803D01*
X186987942Y-111809568D01*
X187061816Y-111682371D01*
X187127617Y-111569432D01*
X187184050Y-111472968D01*
X187229821Y-111395200D01*
X187263635Y-111338346D01*
X187284198Y-111304625D01*
X187289953Y-111296040D01*
X187302058Y-111289189D01*
X187322094Y-111291158D01*
X187322094Y-111291158D01*
G37*
X187322094Y-111291158D02*
X187354619Y-111303736D01*
X187404193Y-111328712D01*
X187475374Y-111367876D01*
X187480916Y-111370988D01*
X187546474Y-111408476D01*
X187601798Y-111441319D01*
X187641455Y-111466205D01*
X187660012Y-111479820D01*
X187660531Y-111480487D01*
X187656048Y-111499390D01*
X187635486Y-111541605D01*
X187600183Y-111604832D01*
X187551480Y-111686772D01*
X187490718Y-111785122D01*
X187419236Y-111897585D01*
X187401445Y-111925165D01*
X187355093Y-112001699D01*
X187321342Y-112067556D01*
X187303153Y-112116782D01*
X187301286Y-112126507D01*
X187302115Y-112169312D01*
X187311394Y-112237209D01*
X187327968Y-112325843D01*
X187350680Y-112430859D01*
X187378373Y-112547902D01*
X187409890Y-112672616D01*
X187444075Y-112800645D01*
X187479771Y-112927634D01*
X187515821Y-113049228D01*
X187551068Y-113161072D01*
X187584356Y-113258810D01*
X187614528Y-113338087D01*
X187635561Y-113385122D01*
X187660337Y-113435225D01*
X187683730Y-113483168D01*
X187684997Y-113485793D01*
X187723699Y-113534220D01*
X187780184Y-113566828D01*
X187845939Y-113582454D01*
X187912451Y-113579937D01*
X187971205Y-113558114D01*
X188004258Y-113529382D01*
X188051859Y-113450583D01*
X188086739Y-113352378D01*
X188105877Y-113244779D01*
X188108588Y-113183780D01*
X188097670Y-113069935D01*
X188065624Y-112975660D01*
X188010726Y-112896379D01*
X187993607Y-112878733D01*
X187942661Y-112829235D01*
X187939163Y-112479362D01*
X187935664Y-112129489D01*
X188024818Y-111994531D01*
X188066654Y-111933445D01*
X188106945Y-111878493D01*
X188139943Y-111837336D01*
X188154126Y-111822192D01*
X188194281Y-111784810D01*
X188248665Y-111814098D01*
X188283039Y-111835084D01*
X188301846Y-111851378D01*
X188303049Y-111854307D01*
X188315903Y-111866728D01*
X188337896Y-111875977D01*
X188359150Y-111884313D01*
X188391694Y-111900149D01*
X188438322Y-111925033D01*
X188501829Y-111960509D01*
X188585008Y-112008123D01*
X188690653Y-112069422D01*
X188748062Y-112102932D01*
X188815594Y-112143071D01*
X188859885Y-112171659D01*
X188884855Y-112192039D01*
X188894423Y-112207553D01*
X188892508Y-112221546D01*
X188890911Y-112224796D01*
X188875376Y-112245266D01*
X188842136Y-112283665D01*
X188795062Y-112335696D01*
X188738028Y-112397066D01*
X188688700Y-112449090D01*
X188575030Y-112572567D01*
X188486105Y-112679591D01*
X188421134Y-112771240D01*
X188379321Y-112848588D01*
X188365217Y-112887866D01*
X188359392Y-112922249D01*
X188353375Y-112980899D01*
X188347696Y-113057117D01*
X188342884Y-113144202D01*
X188340619Y-113199268D01*
X188337459Y-113294464D01*
X188336069Y-113364062D01*
X188336858Y-113413409D01*
X188340235Y-113447854D01*
X188346608Y-113472743D01*
X188356387Y-113493425D01*
X188364067Y-113506053D01*
X188408421Y-113554726D01*
X188465574Y-113588645D01*
X188525708Y-113603438D01*
X188570773Y-113598086D01*
X188611576Y-113574930D01*
X188662724Y-113533462D01*
X188717042Y-113480912D01*
X188767357Y-113424516D01*
X188806494Y-113371505D01*
X188820905Y-113345889D01*
X188842491Y-113310814D01*
X188881753Y-113257389D01*
X188935102Y-113189789D01*
X188998952Y-113112190D01*
X189069715Y-113028768D01*
X189143804Y-112943698D01*
X189217632Y-112861155D01*
X189287611Y-112785316D01*
X189350155Y-112720356D01*
X189399260Y-112672669D01*
X189453779Y-112625032D01*
X189499642Y-112589908D01*
X189531811Y-112570949D01*
X189542489Y-112568864D01*
X189558853Y-112577274D01*
X189599671Y-112599846D01*
X189662586Y-112635224D01*
X189745244Y-112682054D01*
X189845289Y-112738981D01*
X189960366Y-112804649D01*
X190088119Y-112877703D01*
X190226194Y-112956788D01*
X190372234Y-113040548D01*
X190523884Y-113127629D01*
X190678790Y-113216676D01*
X190834595Y-113306332D01*
X190988944Y-113395243D01*
X191139482Y-113482054D01*
X191283854Y-113565409D01*
X191419704Y-113643954D01*
X191544677Y-113716333D01*
X191656417Y-113781190D01*
X191752570Y-113837171D01*
X191830779Y-113882920D01*
X191888689Y-113917083D01*
X191923946Y-113938304D01*
X191934165Y-113944963D01*
X191920402Y-113946280D01*
X191877104Y-113947559D01*
X191805714Y-113948796D01*
X191707673Y-113949983D01*
X191584422Y-113951115D01*
X191437403Y-113952186D01*
X191268057Y-113953189D01*
X191077826Y-113954119D01*
X190868151Y-113954968D01*
X190640473Y-113955732D01*
X190396235Y-113956403D01*
X190136877Y-113956976D01*
X189863841Y-113957444D01*
X189578568Y-113957802D01*
X189282500Y-113958042D01*
X188977079Y-113958159D01*
X188848924Y-113958171D01*
X185748970Y-113958171D01*
X185970053Y-113574847D01*
X186016856Y-113493680D01*
X186077102Y-113389166D01*
X186148778Y-113264801D01*
X186229869Y-113124082D01*
X186318362Y-112970503D01*
X186412240Y-112807562D01*
X186509491Y-112638754D01*
X186608100Y-112467575D01*
X186706053Y-112297521D01*
X186730825Y-112254512D01*
X186821152Y-112097857D01*
X186907289Y-111948803D01*
X186987942Y-111809568D01*
X187061816Y-111682371D01*
X187127617Y-111569432D01*
X187184050Y-111472968D01*
X187229821Y-111395200D01*
X187263635Y-111338346D01*
X187284198Y-111304625D01*
X187289953Y-111296040D01*
X187302058Y-111289189D01*
X187322094Y-111291158D01*
G36*
X201124430Y-56064848D02*
X201123811Y-56151931D01*
X200672086Y-56610891D01*
X200220361Y-57069852D01*
X200220032Y-57280471D01*
X200219703Y-57491089D01*
X199944610Y-57491089D01*
X199937522Y-57544530D01*
X199934838Y-57568888D01*
X199930313Y-57614759D01*
X199924191Y-57679405D01*
X199916712Y-57760091D01*
X199908119Y-57854081D01*
X199898654Y-57958637D01*
X199888558Y-58071025D01*
X199878074Y-58188507D01*
X199867444Y-58308348D01*
X199856909Y-58427811D01*
X199846713Y-58544159D01*
X199837095Y-58654657D01*
X199828300Y-58756569D01*
X199820568Y-58847158D01*
X199814142Y-58923687D01*
X199809263Y-58983421D01*
X199806175Y-59023624D01*
X199805117Y-59041559D01*
X199805118Y-59041644D01*
X199812827Y-59056035D01*
X199835981Y-59085748D01*
X199874895Y-59131131D01*
X199929884Y-59192529D01*
X200001264Y-59270288D01*
X200089349Y-59364754D01*
X200194454Y-59476272D01*
X200316895Y-59605188D01*
X200351310Y-59641287D01*
X200897137Y-60213416D01*
X200808881Y-60301436D01*
X200737485Y-60223758D01*
X200711366Y-60195686D01*
X200670566Y-60152274D01*
X200617777Y-60096366D01*
X200555691Y-60030808D01*
X200487000Y-59958441D01*
X200414396Y-59882112D01*
X200370960Y-59836524D01*
X200289416Y-59751119D01*
X200223504Y-59682710D01*
X200171544Y-59630053D01*
X200131855Y-59591905D01*
X200102757Y-59567020D01*
X200082569Y-59554156D01*
X200069610Y-59552068D01*
X200062200Y-59559513D01*
X200058658Y-59575246D01*
X200057303Y-59598023D01*
X200057121Y-59604239D01*
X200047703Y-59647061D01*
X200024497Y-59698819D01*
X199992136Y-59751328D01*
X199955252Y-59796403D01*
X199940493Y-59810328D01*
X199864767Y-59859047D01*
X199776308Y-59886306D01*
X199698100Y-59892773D01*
X199609468Y-59880576D01*
X199527612Y-59844813D01*
X199455164Y-59786722D01*
X199441797Y-59772262D01*
X199392918Y-59716733D01*
X198547326Y-59716733D01*
X198547326Y-59892773D01*
X198320990Y-59892773D01*
X198320990Y-59810531D01*
X198318150Y-59754386D01*
X198308607Y-59715416D01*
X198297009Y-59694219D01*
X198288723Y-59679052D01*
X198281627Y-59657062D01*
X198275252Y-59624987D01*
X198269128Y-59579569D01*
X198262784Y-59517548D01*
X198255750Y-59435662D01*
X198250934Y-59374746D01*
X198228839Y-59089343D01*
X197686435Y-59638805D01*
X197588363Y-59738228D01*
X197494216Y-59833815D01*
X197405715Y-59923810D01*
X197324580Y-60006457D01*
X197252531Y-60080001D01*
X197191288Y-60142684D01*
X197142573Y-60192752D01*
X197108104Y-60228448D01*
X197089621Y-60247995D01*
X197059257Y-60278944D01*
X197033929Y-60300530D01*
X197020305Y-60307723D01*
X197002905Y-60299297D01*
X196977540Y-60278245D01*
X196968942Y-60269671D01*
X196932486Y-60231620D01*
X197133198Y-60027658D01*
X197184404Y-59975699D01*
X197250431Y-59908820D01*
X197328382Y-59829950D01*
X197415362Y-59742014D01*
X197508474Y-59647941D01*
X197604821Y-59550658D01*
X197701508Y-59453093D01*
X197770866Y-59383145D01*
X197876297Y-59276550D01*
X197964871Y-59186307D01*
X198037719Y-59111192D01*
X198095977Y-59049986D01*
X198140775Y-59001466D01*
X198162979Y-58976129D01*
X198341276Y-58976129D01*
X198363599Y-59261555D01*
X198370331Y-59345219D01*
X198376843Y-59421727D01*
X198382766Y-59487081D01*
X198387732Y-59537281D01*
X198391371Y-59568329D01*
X198392542Y-59575273D01*
X198399162Y-59603565D01*
X199348636Y-59603565D01*
X199354974Y-59524606D01*
X199374110Y-59431315D01*
X199414154Y-59348791D01*
X199472582Y-59280038D01*
X199546871Y-59228063D01*
X199630252Y-59196863D01*
X199657302Y-59182228D01*
X199670844Y-59150819D01*
X199671128Y-59149434D01*
X199672753Y-59136174D01*
X199670744Y-59122595D01*
X199663142Y-59106181D01*
X199647984Y-59084411D01*
X199623312Y-59054767D01*
X199587164Y-59014732D01*
X199537580Y-58961785D01*
X199472599Y-58893409D01*
X199468401Y-58889005D01*
X199398507Y-58815611D01*
X199324200Y-58737437D01*
X199250586Y-58659864D01*
X199182771Y-58588275D01*
X199125860Y-58528051D01*
X199113168Y-58514587D01*
X199064513Y-58463820D01*
X199021291Y-58420375D01*
X198986605Y-58387241D01*
X198963556Y-58367405D01*
X198955818Y-58363046D01*
X198944278Y-58372170D01*
X198917290Y-58397200D01*
X198876979Y-58436052D01*
X198825471Y-58486643D01*
X198764891Y-58546888D01*
X198697364Y-58614704D01*
X198642174Y-58670565D01*
X198341276Y-58976129D01*
X198162979Y-58976129D01*
X198173249Y-58964411D01*
X198194529Y-58937599D01*
X198205749Y-58919808D01*
X198208246Y-58911570D01*
X198207300Y-58893590D01*
X198204427Y-58852892D01*
X198199813Y-58791819D01*
X198193642Y-58712713D01*
X198186102Y-58617914D01*
X198177379Y-58509767D01*
X198167657Y-58390612D01*
X198157124Y-58262791D01*
X198148635Y-58160635D01*
X198100604Y-57584674D01*
X198224195Y-57584674D01*
X198224727Y-57597104D01*
X198227231Y-57632110D01*
X198231504Y-57687215D01*
X198237347Y-57759943D01*
X198244557Y-57847814D01*
X198252934Y-57948351D01*
X198262277Y-58059077D01*
X198271242Y-58164205D01*
X198281398Y-58283483D01*
X198290858Y-58396080D01*
X198299404Y-58499305D01*
X198306821Y-58590473D01*
X198312892Y-58666895D01*
X198317399Y-58725883D01*
X198320127Y-58764749D01*
X198320884Y-58779844D01*
X198322065Y-58789238D01*
X198326744Y-58792966D01*
X198336724Y-58789471D01*
X198353810Y-58777199D01*
X198379804Y-58754594D01*
X198416510Y-58720100D01*
X198465733Y-58672162D01*
X198529274Y-58609224D01*
X198596695Y-58541968D01*
X198872399Y-58266477D01*
X198870467Y-58264406D01*
X199052710Y-58264406D01*
X199061016Y-58275780D01*
X199084267Y-58302563D01*
X199120135Y-58342292D01*
X199166287Y-58392507D01*
X199220394Y-58450746D01*
X199280126Y-58514547D01*
X199343152Y-58581449D01*
X199407142Y-58648990D01*
X199469764Y-58714710D01*
X199528690Y-58776146D01*
X199581588Y-58830837D01*
X199626128Y-58876322D01*
X199659980Y-58910138D01*
X199680812Y-58929826D01*
X199686494Y-58933837D01*
X199688366Y-58920891D01*
X199692254Y-58885134D01*
X199697943Y-58828804D01*
X199705219Y-58754140D01*
X199713869Y-58663380D01*
X199723678Y-58558762D01*
X199734434Y-58442526D01*
X199745921Y-58316908D01*
X199755093Y-58215618D01*
X199766826Y-58084279D01*
X199777665Y-57960552D01*
X199787430Y-57846681D01*
X199795937Y-57744911D01*
X199803005Y-57657487D01*
X199808451Y-57586653D01*
X199812092Y-57534653D01*
X199813747Y-57503732D01*
X199813558Y-57495703D01*
X199803666Y-57502854D01*
X199778476Y-57525841D01*
X199740190Y-57562439D01*
X199691011Y-57610422D01*
X199633139Y-57667566D01*
X199568778Y-57731647D01*
X199500129Y-57800438D01*
X199429395Y-57871716D01*
X199358778Y-57943255D01*
X199290480Y-58012830D01*
X199226704Y-58078217D01*
X199169650Y-58137191D01*
X199121522Y-58187527D01*
X199084522Y-58226999D01*
X199060852Y-58253383D01*
X199052710Y-58264406D01*
X198870467Y-58264406D01*
X198769591Y-58156295D01*
X198717232Y-58100377D01*
X198658465Y-58037948D01*
X198595615Y-57971443D01*
X198531005Y-57903298D01*
X198466958Y-57835948D01*
X198405797Y-57771828D01*
X198349847Y-57713372D01*
X198301430Y-57663018D01*
X198262870Y-57623198D01*
X198236491Y-57596350D01*
X198224616Y-57584908D01*
X198224195Y-57584674D01*
X198100604Y-57584674D01*
X198088599Y-57440726D01*
X197488062Y-56809158D01*
X196887525Y-56177589D01*
X196887966Y-56089315D01*
X196888408Y-56001040D01*
X196985417Y-56104666D01*
X197039709Y-56162463D01*
X197103808Y-56230368D01*
X197175984Y-56306572D01*
X197254508Y-56389269D01*
X197337651Y-56476653D01*
X197423681Y-56566915D01*
X197510870Y-56658250D01*
X197597487Y-56748849D01*
X197681803Y-56836907D01*
X197762088Y-56920615D01*
X197836613Y-56998167D01*
X197903646Y-57067757D01*
X197961459Y-57127576D01*
X198008321Y-57175818D01*
X198042504Y-57210676D01*
X198062276Y-57230343D01*
X198066610Y-57234116D01*
X198066908Y-57220992D01*
X198065269Y-57187389D01*
X198061977Y-57137880D01*
X198057318Y-57077037D01*
X198055318Y-57052732D01*
X198040423Y-56874951D01*
X198157045Y-56874951D01*
X198163066Y-56903243D01*
X198166137Y-56925618D01*
X198170452Y-56967717D01*
X198175512Y-57024178D01*
X198180819Y-57089635D01*
X198182656Y-57113862D01*
X198188073Y-57183421D01*
X198193541Y-57248018D01*
X198198512Y-57301548D01*
X198202439Y-57337910D01*
X198203325Y-57344509D01*
X198206666Y-57358056D01*
X198213899Y-57373914D01*
X198226560Y-57393861D01*
X198246189Y-57419673D01*
X198274322Y-57453129D01*
X198312498Y-57496007D01*
X198362254Y-57550083D01*
X198425129Y-57617136D01*
X198502659Y-57698943D01*
X198581749Y-57781950D01*
X198660436Y-57864094D01*
X198733888Y-57940169D01*
X198800276Y-58008325D01*
X198857773Y-58066712D01*
X198904549Y-58113481D01*
X198938776Y-58146782D01*
X198958627Y-58164767D01*
X198962860Y-58167442D01*
X198973997Y-58157741D01*
X199000029Y-58132441D01*
X199038430Y-58094082D01*
X199086672Y-58045200D01*
X199142230Y-57988334D01*
X199182408Y-57946906D01*
X199392169Y-57730000D01*
X198773663Y-57730000D01*
X198773663Y-57491089D01*
X199528119Y-57491089D01*
X199528119Y-57597542D01*
X199666435Y-57459654D01*
X199764553Y-57361840D01*
X199955643Y-57361840D01*
X199957471Y-57377270D01*
X199966723Y-57385867D01*
X199989050Y-57389613D01*
X200030105Y-57390489D01*
X200037376Y-57390495D01*
X200119109Y-57390495D01*
X200119109Y-57171172D01*
X200037376Y-57252179D01*
X199991270Y-57301428D01*
X199963694Y-57339159D01*
X199955643Y-57361840D01*
X199764553Y-57361840D01*
X199804752Y-57321766D01*
X199804752Y-57198952D01*
X199805137Y-57142450D01*
X199806900Y-57106505D01*
X199810950Y-57086530D01*
X199818199Y-57077937D01*
X199829130Y-57076139D01*
X199841288Y-57073498D01*
X199850273Y-57062912D01*
X199857174Y-57040381D01*
X199863076Y-57001909D01*
X199869065Y-56943498D01*
X199870987Y-56922104D01*
X199875148Y-56874951D01*
X198157045Y-56874951D01*
X198040423Y-56874951D01*
X197880891Y-56874951D01*
X197880891Y-56761782D01*
X197948686Y-56761782D01*
X197988338Y-56760696D01*
X198009884Y-56755454D01*
X198012520Y-56752334D01*
X198151384Y-56752334D01*
X198158692Y-56759462D01*
X198184007Y-56761662D01*
X198201092Y-56761782D01*
X198258119Y-56761782D01*
X198470779Y-56761782D01*
X199885302Y-56761782D01*
X199837458Y-56712786D01*
X199763150Y-56652324D01*
X199671184Y-56605691D01*
X199560002Y-56572249D01*
X199449529Y-56553753D01*
X199377227Y-56545122D01*
X199377227Y-56636040D01*
X198798812Y-56636040D01*
X198798812Y-56532893D01*
X198713935Y-56541496D01*
X198654632Y-56548756D01*
X198591449Y-56558379D01*
X198553614Y-56565252D01*
X198478168Y-56580407D01*
X198474474Y-56671095D01*
X198470779Y-56761782D01*
X198258119Y-56761782D01*
X198258119Y-56711485D01*
X198256456Y-56679976D01*
X198252303Y-56662463D01*
X198250629Y-56661188D01*
X198232013Y-56669254D01*
X198204817Y-56688820D01*
X198177552Y-56712944D01*
X198158733Y-56734682D01*
X198157057Y-56737508D01*
X198151384Y-56752334D01*
X198012520Y-56752334D01*
X198020338Y-56743081D01*
X198024558Y-56729604D01*
X198041781Y-56694627D01*
X198074862Y-56652579D01*
X198118107Y-56609356D01*
X198165826Y-56570854D01*
X198197170Y-56550801D01*
X198232877Y-56528851D01*
X198251181Y-56510411D01*
X198257612Y-56488668D01*
X198258106Y-56475718D01*
X198258106Y-56472575D01*
X198899406Y-56472575D01*
X198899406Y-56535446D01*
X199276633Y-56535446D01*
X199276633Y-56472575D01*
X198899406Y-56472575D01*
X198258106Y-56472575D01*
X198258119Y-56434852D01*
X198363952Y-56434852D01*
X198412645Y-56436029D01*
X198450595Y-56439165D01*
X198471692Y-56443671D01*
X198473977Y-56445495D01*
X198487359Y-56448295D01*
X198519926Y-56447148D01*
X198566084Y-56442393D01*
X198597624Y-56438003D01*
X198654812Y-56429378D01*
X198707114Y-56421591D01*
X198746418Y-56415847D01*
X198757945Y-56414215D01*
X198788063Y-56404888D01*
X198798812Y-56390272D01*
X198802080Y-56384320D01*
X198813770Y-56379778D01*
X198836712Y-56376470D01*
X198873735Y-56374215D01*
X198927668Y-56372834D01*
X199001340Y-56372150D01*
X199088020Y-56371980D01*
X199180529Y-56372077D01*
X199250906Y-56372530D01*
X199302164Y-56373590D01*
X199337320Y-56375503D01*
X199359389Y-56378519D01*
X199371385Y-56382885D01*
X199376324Y-56388849D01*
X199377227Y-56395784D01*
X199384921Y-56417795D01*
X199410121Y-56430321D01*
X199456009Y-56434788D01*
X199464264Y-56434852D01*
X199541973Y-56442868D01*
X199630233Y-56464936D01*
X199721085Y-56498084D01*
X199806570Y-56539339D01*
X199878726Y-56585731D01*
X199888072Y-56593082D01*
X199918533Y-56616998D01*
X199936572Y-56626576D01*
X199949169Y-56623480D01*
X199962100Y-56610704D01*
X200000293Y-56585678D01*
X200049998Y-56576071D01*
X200103524Y-56581067D01*
X200153178Y-56599851D01*
X200191267Y-56631606D01*
X200194025Y-56635297D01*
X200222526Y-56694575D01*
X200227828Y-56755934D01*
X200210518Y-56814427D01*
X200171180Y-56865104D01*
X200166370Y-56869289D01*
X200138440Y-56889167D01*
X200110102Y-56897921D01*
X200070263Y-56898553D01*
X200060311Y-56897992D01*
X200021332Y-56896562D01*
X200001254Y-56899839D01*
X199993985Y-56909728D01*
X199993240Y-56918961D01*
X199991716Y-56945744D01*
X199987935Y-56986025D01*
X199985218Y-57010124D01*
X199981277Y-57048401D01*
X199982916Y-57067996D01*
X199992421Y-57075158D01*
X200009351Y-57076139D01*
X200019392Y-57072901D01*
X200035590Y-57062420D01*
X200059145Y-57043548D01*
X200091257Y-57015135D01*
X200133128Y-56976035D01*
X200185957Y-56925097D01*
X200250945Y-56861173D01*
X200329291Y-56783114D01*
X200422197Y-56689772D01*
X200530863Y-56579998D01*
X200583231Y-56526952D01*
X201125049Y-55977767D01*
X201124430Y-56064848D01*
X201124430Y-56064848D01*
G37*
X201124430Y-56064848D02*
X201123811Y-56151931D01*
X200672086Y-56610891D01*
X200220361Y-57069852D01*
X200220032Y-57280471D01*
X200219703Y-57491089D01*
X199944610Y-57491089D01*
X199937522Y-57544530D01*
X199934838Y-57568888D01*
X199930313Y-57614759D01*
X199924191Y-57679405D01*
X199916712Y-57760091D01*
X199908119Y-57854081D01*
X199898654Y-57958637D01*
X199888558Y-58071025D01*
X199878074Y-58188507D01*
X199867444Y-58308348D01*
X199856909Y-58427811D01*
X199846713Y-58544159D01*
X199837095Y-58654657D01*
X199828300Y-58756569D01*
X199820568Y-58847158D01*
X199814142Y-58923687D01*
X199809263Y-58983421D01*
X199806175Y-59023624D01*
X199805117Y-59041559D01*
X199805118Y-59041644D01*
X199812827Y-59056035D01*
X199835981Y-59085748D01*
X199874895Y-59131131D01*
X199929884Y-59192529D01*
X200001264Y-59270288D01*
X200089349Y-59364754D01*
X200194454Y-59476272D01*
X200316895Y-59605188D01*
X200351310Y-59641287D01*
X200897137Y-60213416D01*
X200808881Y-60301436D01*
X200737485Y-60223758D01*
X200711366Y-60195686D01*
X200670566Y-60152274D01*
X200617777Y-60096366D01*
X200555691Y-60030808D01*
X200487000Y-59958441D01*
X200414396Y-59882112D01*
X200370960Y-59836524D01*
X200289416Y-59751119D01*
X200223504Y-59682710D01*
X200171544Y-59630053D01*
X200131855Y-59591905D01*
X200102757Y-59567020D01*
X200082569Y-59554156D01*
X200069610Y-59552068D01*
X200062200Y-59559513D01*
X200058658Y-59575246D01*
X200057303Y-59598023D01*
X200057121Y-59604239D01*
X200047703Y-59647061D01*
X200024497Y-59698819D01*
X199992136Y-59751328D01*
X199955252Y-59796403D01*
X199940493Y-59810328D01*
X199864767Y-59859047D01*
X199776308Y-59886306D01*
X199698100Y-59892773D01*
X199609468Y-59880576D01*
X199527612Y-59844813D01*
X199455164Y-59786722D01*
X199441797Y-59772262D01*
X199392918Y-59716733D01*
X198547326Y-59716733D01*
X198547326Y-59892773D01*
X198320990Y-59892773D01*
X198320990Y-59810531D01*
X198318150Y-59754386D01*
X198308607Y-59715416D01*
X198297009Y-59694219D01*
X198288723Y-59679052D01*
X198281627Y-59657062D01*
X198275252Y-59624987D01*
X198269128Y-59579569D01*
X198262784Y-59517548D01*
X198255750Y-59435662D01*
X198250934Y-59374746D01*
X198228839Y-59089343D01*
X197686435Y-59638805D01*
X197588363Y-59738228D01*
X197494216Y-59833815D01*
X197405715Y-59923810D01*
X197324580Y-60006457D01*
X197252531Y-60080001D01*
X197191288Y-60142684D01*
X197142573Y-60192752D01*
X197108104Y-60228448D01*
X197089621Y-60247995D01*
X197059257Y-60278944D01*
X197033929Y-60300530D01*
X197020305Y-60307723D01*
X197002905Y-60299297D01*
X196977540Y-60278245D01*
X196968942Y-60269671D01*
X196932486Y-60231620D01*
X197133198Y-60027658D01*
X197184404Y-59975699D01*
X197250431Y-59908820D01*
X197328382Y-59829950D01*
X197415362Y-59742014D01*
X197508474Y-59647941D01*
X197604821Y-59550658D01*
X197701508Y-59453093D01*
X197770866Y-59383145D01*
X197876297Y-59276550D01*
X197964871Y-59186307D01*
X198037719Y-59111192D01*
X198095977Y-59049986D01*
X198140775Y-59001466D01*
X198162979Y-58976129D01*
X198341276Y-58976129D01*
X198363599Y-59261555D01*
X198370331Y-59345219D01*
X198376843Y-59421727D01*
X198382766Y-59487081D01*
X198387732Y-59537281D01*
X198391371Y-59568329D01*
X198392542Y-59575273D01*
X198399162Y-59603565D01*
X199348636Y-59603565D01*
X199354974Y-59524606D01*
X199374110Y-59431315D01*
X199414154Y-59348791D01*
X199472582Y-59280038D01*
X199546871Y-59228063D01*
X199630252Y-59196863D01*
X199657302Y-59182228D01*
X199670844Y-59150819D01*
X199671128Y-59149434D01*
X199672753Y-59136174D01*
X199670744Y-59122595D01*
X199663142Y-59106181D01*
X199647984Y-59084411D01*
X199623312Y-59054767D01*
X199587164Y-59014732D01*
X199537580Y-58961785D01*
X199472599Y-58893409D01*
X199468401Y-58889005D01*
X199398507Y-58815611D01*
X199324200Y-58737437D01*
X199250586Y-58659864D01*
X199182771Y-58588275D01*
X199125860Y-58528051D01*
X199113168Y-58514587D01*
X199064513Y-58463820D01*
X199021291Y-58420375D01*
X198986605Y-58387241D01*
X198963556Y-58367405D01*
X198955818Y-58363046D01*
X198944278Y-58372170D01*
X198917290Y-58397200D01*
X198876979Y-58436052D01*
X198825471Y-58486643D01*
X198764891Y-58546888D01*
X198697364Y-58614704D01*
X198642174Y-58670565D01*
X198341276Y-58976129D01*
X198162979Y-58976129D01*
X198173249Y-58964411D01*
X198194529Y-58937599D01*
X198205749Y-58919808D01*
X198208246Y-58911570D01*
X198207300Y-58893590D01*
X198204427Y-58852892D01*
X198199813Y-58791819D01*
X198193642Y-58712713D01*
X198186102Y-58617914D01*
X198177379Y-58509767D01*
X198167657Y-58390612D01*
X198157124Y-58262791D01*
X198148635Y-58160635D01*
X198100604Y-57584674D01*
X198224195Y-57584674D01*
X198224727Y-57597104D01*
X198227231Y-57632110D01*
X198231504Y-57687215D01*
X198237347Y-57759943D01*
X198244557Y-57847814D01*
X198252934Y-57948351D01*
X198262277Y-58059077D01*
X198271242Y-58164205D01*
X198281398Y-58283483D01*
X198290858Y-58396080D01*
X198299404Y-58499305D01*
X198306821Y-58590473D01*
X198312892Y-58666895D01*
X198317399Y-58725883D01*
X198320127Y-58764749D01*
X198320884Y-58779844D01*
X198322065Y-58789238D01*
X198326744Y-58792966D01*
X198336724Y-58789471D01*
X198353810Y-58777199D01*
X198379804Y-58754594D01*
X198416510Y-58720100D01*
X198465733Y-58672162D01*
X198529274Y-58609224D01*
X198596695Y-58541968D01*
X198872399Y-58266477D01*
X198870467Y-58264406D01*
X199052710Y-58264406D01*
X199061016Y-58275780D01*
X199084267Y-58302563D01*
X199120135Y-58342292D01*
X199166287Y-58392507D01*
X199220394Y-58450746D01*
X199280126Y-58514547D01*
X199343152Y-58581449D01*
X199407142Y-58648990D01*
X199469764Y-58714710D01*
X199528690Y-58776146D01*
X199581588Y-58830837D01*
X199626128Y-58876322D01*
X199659980Y-58910138D01*
X199680812Y-58929826D01*
X199686494Y-58933837D01*
X199688366Y-58920891D01*
X199692254Y-58885134D01*
X199697943Y-58828804D01*
X199705219Y-58754140D01*
X199713869Y-58663380D01*
X199723678Y-58558762D01*
X199734434Y-58442526D01*
X199745921Y-58316908D01*
X199755093Y-58215618D01*
X199766826Y-58084279D01*
X199777665Y-57960552D01*
X199787430Y-57846681D01*
X199795937Y-57744911D01*
X199803005Y-57657487D01*
X199808451Y-57586653D01*
X199812092Y-57534653D01*
X199813747Y-57503732D01*
X199813558Y-57495703D01*
X199803666Y-57502854D01*
X199778476Y-57525841D01*
X199740190Y-57562439D01*
X199691011Y-57610422D01*
X199633139Y-57667566D01*
X199568778Y-57731647D01*
X199500129Y-57800438D01*
X199429395Y-57871716D01*
X199358778Y-57943255D01*
X199290480Y-58012830D01*
X199226704Y-58078217D01*
X199169650Y-58137191D01*
X199121522Y-58187527D01*
X199084522Y-58226999D01*
X199060852Y-58253383D01*
X199052710Y-58264406D01*
X198870467Y-58264406D01*
X198769591Y-58156295D01*
X198717232Y-58100377D01*
X198658465Y-58037948D01*
X198595615Y-57971443D01*
X198531005Y-57903298D01*
X198466958Y-57835948D01*
X198405797Y-57771828D01*
X198349847Y-57713372D01*
X198301430Y-57663018D01*
X198262870Y-57623198D01*
X198236491Y-57596350D01*
X198224616Y-57584908D01*
X198224195Y-57584674D01*
X198100604Y-57584674D01*
X198088599Y-57440726D01*
X197488062Y-56809158D01*
X196887525Y-56177589D01*
X196887966Y-56089315D01*
X196888408Y-56001040D01*
X196985417Y-56104666D01*
X197039709Y-56162463D01*
X197103808Y-56230368D01*
X197175984Y-56306572D01*
X197254508Y-56389269D01*
X197337651Y-56476653D01*
X197423681Y-56566915D01*
X197510870Y-56658250D01*
X197597487Y-56748849D01*
X197681803Y-56836907D01*
X197762088Y-56920615D01*
X197836613Y-56998167D01*
X197903646Y-57067757D01*
X197961459Y-57127576D01*
X198008321Y-57175818D01*
X198042504Y-57210676D01*
X198062276Y-57230343D01*
X198066610Y-57234116D01*
X198066908Y-57220992D01*
X198065269Y-57187389D01*
X198061977Y-57137880D01*
X198057318Y-57077037D01*
X198055318Y-57052732D01*
X198040423Y-56874951D01*
X198157045Y-56874951D01*
X198163066Y-56903243D01*
X198166137Y-56925618D01*
X198170452Y-56967717D01*
X198175512Y-57024178D01*
X198180819Y-57089635D01*
X198182656Y-57113862D01*
X198188073Y-57183421D01*
X198193541Y-57248018D01*
X198198512Y-57301548D01*
X198202439Y-57337910D01*
X198203325Y-57344509D01*
X198206666Y-57358056D01*
X198213899Y-57373914D01*
X198226560Y-57393861D01*
X198246189Y-57419673D01*
X198274322Y-57453129D01*
X198312498Y-57496007D01*
X198362254Y-57550083D01*
X198425129Y-57617136D01*
X198502659Y-57698943D01*
X198581749Y-57781950D01*
X198660436Y-57864094D01*
X198733888Y-57940169D01*
X198800276Y-58008325D01*
X198857773Y-58066712D01*
X198904549Y-58113481D01*
X198938776Y-58146782D01*
X198958627Y-58164767D01*
X198962860Y-58167442D01*
X198973997Y-58157741D01*
X199000029Y-58132441D01*
X199038430Y-58094082D01*
X199086672Y-58045200D01*
X199142230Y-57988334D01*
X199182408Y-57946906D01*
X199392169Y-57730000D01*
X198773663Y-57730000D01*
X198773663Y-57491089D01*
X199528119Y-57491089D01*
X199528119Y-57597542D01*
X199666435Y-57459654D01*
X199764553Y-57361840D01*
X199955643Y-57361840D01*
X199957471Y-57377270D01*
X199966723Y-57385867D01*
X199989050Y-57389613D01*
X200030105Y-57390489D01*
X200037376Y-57390495D01*
X200119109Y-57390495D01*
X200119109Y-57171172D01*
X200037376Y-57252179D01*
X199991270Y-57301428D01*
X199963694Y-57339159D01*
X199955643Y-57361840D01*
X199764553Y-57361840D01*
X199804752Y-57321766D01*
X199804752Y-57198952D01*
X199805137Y-57142450D01*
X199806900Y-57106505D01*
X199810950Y-57086530D01*
X199818199Y-57077937D01*
X199829130Y-57076139D01*
X199841288Y-57073498D01*
X199850273Y-57062912D01*
X199857174Y-57040381D01*
X199863076Y-57001909D01*
X199869065Y-56943498D01*
X199870987Y-56922104D01*
X199875148Y-56874951D01*
X198157045Y-56874951D01*
X198040423Y-56874951D01*
X197880891Y-56874951D01*
X197880891Y-56761782D01*
X197948686Y-56761782D01*
X197988338Y-56760696D01*
X198009884Y-56755454D01*
X198012520Y-56752334D01*
X198151384Y-56752334D01*
X198158692Y-56759462D01*
X198184007Y-56761662D01*
X198201092Y-56761782D01*
X198258119Y-56761782D01*
X198470779Y-56761782D01*
X199885302Y-56761782D01*
X199837458Y-56712786D01*
X199763150Y-56652324D01*
X199671184Y-56605691D01*
X199560002Y-56572249D01*
X199449529Y-56553753D01*
X199377227Y-56545122D01*
X199377227Y-56636040D01*
X198798812Y-56636040D01*
X198798812Y-56532893D01*
X198713935Y-56541496D01*
X198654632Y-56548756D01*
X198591449Y-56558379D01*
X198553614Y-56565252D01*
X198478168Y-56580407D01*
X198474474Y-56671095D01*
X198470779Y-56761782D01*
X198258119Y-56761782D01*
X198258119Y-56711485D01*
X198256456Y-56679976D01*
X198252303Y-56662463D01*
X198250629Y-56661188D01*
X198232013Y-56669254D01*
X198204817Y-56688820D01*
X198177552Y-56712944D01*
X198158733Y-56734682D01*
X198157057Y-56737508D01*
X198151384Y-56752334D01*
X198012520Y-56752334D01*
X198020338Y-56743081D01*
X198024558Y-56729604D01*
X198041781Y-56694627D01*
X198074862Y-56652579D01*
X198118107Y-56609356D01*
X198165826Y-56570854D01*
X198197170Y-56550801D01*
X198232877Y-56528851D01*
X198251181Y-56510411D01*
X198257612Y-56488668D01*
X198258106Y-56475718D01*
X198258106Y-56472575D01*
X198899406Y-56472575D01*
X198899406Y-56535446D01*
X199276633Y-56535446D01*
X199276633Y-56472575D01*
X198899406Y-56472575D01*
X198258106Y-56472575D01*
X198258119Y-56434852D01*
X198363952Y-56434852D01*
X198412645Y-56436029D01*
X198450595Y-56439165D01*
X198471692Y-56443671D01*
X198473977Y-56445495D01*
X198487359Y-56448295D01*
X198519926Y-56447148D01*
X198566084Y-56442393D01*
X198597624Y-56438003D01*
X198654812Y-56429378D01*
X198707114Y-56421591D01*
X198746418Y-56415847D01*
X198757945Y-56414215D01*
X198788063Y-56404888D01*
X198798812Y-56390272D01*
X198802080Y-56384320D01*
X198813770Y-56379778D01*
X198836712Y-56376470D01*
X198873735Y-56374215D01*
X198927668Y-56372834D01*
X199001340Y-56372150D01*
X199088020Y-56371980D01*
X199180529Y-56372077D01*
X199250906Y-56372530D01*
X199302164Y-56373590D01*
X199337320Y-56375503D01*
X199359389Y-56378519D01*
X199371385Y-56382885D01*
X199376324Y-56388849D01*
X199377227Y-56395784D01*
X199384921Y-56417795D01*
X199410121Y-56430321D01*
X199456009Y-56434788D01*
X199464264Y-56434852D01*
X199541973Y-56442868D01*
X199630233Y-56464936D01*
X199721085Y-56498084D01*
X199806570Y-56539339D01*
X199878726Y-56585731D01*
X199888072Y-56593082D01*
X199918533Y-56616998D01*
X199936572Y-56626576D01*
X199949169Y-56623480D01*
X199962100Y-56610704D01*
X200000293Y-56585678D01*
X200049998Y-56576071D01*
X200103524Y-56581067D01*
X200153178Y-56599851D01*
X200191267Y-56631606D01*
X200194025Y-56635297D01*
X200222526Y-56694575D01*
X200227828Y-56755934D01*
X200210518Y-56814427D01*
X200171180Y-56865104D01*
X200166370Y-56869289D01*
X200138440Y-56889167D01*
X200110102Y-56897921D01*
X200070263Y-56898553D01*
X200060311Y-56897992D01*
X200021332Y-56896562D01*
X200001254Y-56899839D01*
X199993985Y-56909728D01*
X199993240Y-56918961D01*
X199991716Y-56945744D01*
X199987935Y-56986025D01*
X199985218Y-57010124D01*
X199981277Y-57048401D01*
X199982916Y-57067996D01*
X199992421Y-57075158D01*
X200009351Y-57076139D01*
X200019392Y-57072901D01*
X200035590Y-57062420D01*
X200059145Y-57043548D01*
X200091257Y-57015135D01*
X200133128Y-56976035D01*
X200185957Y-56925097D01*
X200250945Y-56861173D01*
X200329291Y-56783114D01*
X200422197Y-56689772D01*
X200530863Y-56579998D01*
X200583231Y-56526952D01*
X201125049Y-55977767D01*
X201124430Y-56064848D01*
G36*
X200747822Y-62017822D02*
X197227029Y-62017822D01*
X197227029Y-61150198D01*
X200747822Y-61150198D01*
X200747822Y-62017822D01*
X200747822Y-62017822D01*
G37*
X200747822Y-62017822D02*
X197227029Y-62017822D01*
X197227029Y-61150198D01*
X200747822Y-61150198D01*
X200747822Y-62017822D01*
D19*
X172533040Y-52226547D02*
X172533040Y-52942090D01*
X172485337Y-53085198D01*
X172389931Y-53180604D01*
X172246822Y-53228307D01*
X172151417Y-53228307D01*
X172962365Y-52321952D02*
X173010068Y-52274250D01*
X173105474Y-52226547D01*
X173343988Y-52226547D01*
X173439394Y-52274250D01*
X173487097Y-52321952D01*
X173534800Y-52417358D01*
X173534800Y-52512764D01*
X173487097Y-52655872D01*
X172914662Y-53228307D01*
X173534800Y-53228307D01*
D20*
X123682380Y-132413333D02*
X124396666Y-132413333D01*
X124539523Y-132460952D01*
X124634761Y-132556190D01*
X124682380Y-132699047D01*
X124682380Y-132794285D01*
X123682380Y-132032380D02*
X123682380Y-131413333D01*
X124063333Y-131746666D01*
X124063333Y-131603809D01*
X124110952Y-131508571D01*
X124158571Y-131460952D01*
X124253809Y-131413333D01*
X124491904Y-131413333D01*
X124587142Y-131460952D01*
X124634761Y-131508571D01*
X124682380Y-131603809D01*
X124682380Y-131889523D01*
X124634761Y-131984761D01*
X124587142Y-132032380D01*
X116506666Y-53002380D02*
X116506666Y-53716666D01*
X116459047Y-53859523D01*
X116363809Y-53954761D01*
X116220952Y-54002380D01*
X116125714Y-54002380D01*
X117411428Y-53335714D02*
X117411428Y-54002380D01*
X117173333Y-52954761D02*
X116935238Y-53669047D01*
X117554285Y-53669047D01*
M02*
